<svg xmlns="http://www.w3.org/2000/svg" width="61.375" height="61.375" viewBox="0 0 61.375 61.375"><defs><style>.a{fill:#eeae1d;}</style></defs><path class="a" d="M31.869,19A12.869,12.869,0,1,0,44.738,31.869,12.884,12.884,0,0,0,31.869,19ZM20.98,31.869c0-.335.021-.663.05-.99H42.708c.029.327.049.655.049.99s-.021.663-.05.99H21.03C21,32.532,20.98,32.2,20.98,31.869ZM32.859,28.9h-1.98v-3.96h1.98Zm8.7-1.98a10.792,10.792,0,0,1,.78,1.98H40.778v-1.98Zm-1.294-1.98h-.474a.99.99,0,0,0-.99.99V28.9h-3.96V23.95a.99.99,0,0,0-.99-.99h-3.96a.99.99,0,0,0-.99.99V28.9h-3.96V23.475a10.873,10.873,0,0,1,15.323,1.464Zm-17.3.688V28.9H21.4A10.847,10.847,0,0,1,22.96,25.627Zm2.668,15.151H38.109a10.826,10.826,0,0,1-12.482,0ZM40.262,38.8H23.475a10.87,10.87,0,0,1-2.074-3.96H42.335a10.868,10.868,0,0,1-2.073,3.96Z" transform="translate(-1.182 -1.182)"/><path class="a" d="M61.264,55.9,49.847,44.488a1.975,1.975,0,0,0-.342-2.321l-1.57-1.57h7.509a2.973,2.973,0,0,0,2.97-2.97V3.97A2.973,2.973,0,0,0,55.445,1H3.97A2.973,2.973,0,0,0,1,3.97V37.627A2.973,2.973,0,0,0,3.97,40.6H17.437a16.748,16.748,0,0,0,21.888,6.067l2.842,2.842a1.952,1.952,0,0,0,2.321.342L55.9,61.264A3.79,3.79,0,1,0,61.264,55.9ZM3.97,38.617a.992.992,0,0,1-.99-.99V3.97a.992.992,0,0,1,.99-.99H55.445a.992.992,0,0,1,.99.99V37.627a.992.992,0,0,1-.99.99h-8.44a16.684,16.684,0,0,0,1.231-3.96h3.249a.99.99,0,0,0,.99-.99v-3.96a.99.99,0,0,0-.99-.99H48.238a16.778,16.778,0,0,0-23.48-12.348v-4.48a.99.99,0,0,0-.99-.99h-3.96a.99.99,0,0,0-.99.99v8.977a16.761,16.761,0,0,0-3.681,7.852h-.278V5.95a.99.99,0,0,0-.99-.99H9.909a.99.99,0,0,0-.99.99V28.718h-.99a.99.99,0,0,0-.99.99v3.96a.99.99,0,0,0,.99.99h7.208a16.684,16.684,0,0,0,1.231,3.96Zm44.5-7.919H50.5v1.98h-2.03c.02-.33.05-.655.05-.99S48.485,31.027,48.465,30.7ZM22.778,17.436A16.817,16.817,0,0,0,20.8,18.88v-6h1.98ZM14.909,32.677H8.919V30.7h5.99c-.02.33-.05.655-.05.99S14.889,32.348,14.909,32.677Zm-2.03-3.96H10.9V6.939h1.98Zm3.96,2.97A14.849,14.849,0,1,1,31.687,46.536,14.866,14.866,0,0,1,16.839,31.687ZM41.094,45.634a16.987,16.987,0,0,0,4.54-4.54l2.472,2.472-4.54,4.54Zm17.49,14.761a1.8,1.8,0,0,1-1.28-.531L45.956,48.516l2.56-2.56L59.864,57.3a1.81,1.81,0,0,1-1.28,3.09Z" transform="translate(-1 -1)"/></svg>