<svg xmlns="http://www.w3.org/2000/svg" width="50.121" height="60.523" viewBox="0 0 50.121 60.523"><defs><style>.a{fill:#eeae1d;}</style></defs><g transform="translate(0 19.741)"><path class="a" d="M46.018,167.346a1.181,1.181,0,1,0,.346.836A1.19,1.19,0,0,0,46.018,167.346Z" transform="translate(-44 -167)"/></g><g transform="translate(0)"><path class="a" d="M90.575,0H66.657a1.182,1.182,0,1,0,0,2.364H90.575a1.183,1.183,0,0,1,1.182,1.182V56.977a1.183,1.183,0,0,1-1.182,1.182H47.546a1.183,1.183,0,0,1-1.182-1.182V25.336a1.182,1.182,0,1,0-2.364,0V56.977a3.55,3.55,0,0,0,3.546,3.546H90.575a3.55,3.55,0,0,0,3.546-3.546V3.546A3.55,3.55,0,0,0,90.575,0Z" transform="translate(-44)"/></g><g transform="translate(9.539 4.728)"><path class="a" d="M140.217,40a15.911,15.911,0,0,0-2.4.183,1.182,1.182,0,1,0,.358,2.337,13.521,13.521,0,0,1,2.044-.155,13.35,13.35,0,0,1,10.216,21.953,11.844,11.844,0,0,0-6.171-5.164,5.774,5.774,0,0,0,1.747-4.14V53.86a5.792,5.792,0,1,0-11.585,0v1.153a5.774,5.774,0,0,0,1.747,4.14,11.846,11.846,0,0,0-6.184,5.185,13.314,13.314,0,0,1-2.944-6.389,1.182,1.182,0,0,0-2.332.391A15.723,15.723,0,1,0,140.217,40Zm-3.428,13.86a3.428,3.428,0,1,1,6.856,0v1.153a3.428,3.428,0,1,1-6.856,0Zm3.428,15.22a13.342,13.342,0,0,1-8.475-3.012,9.455,9.455,0,0,1,16.94-.02A13.3,13.3,0,0,1,140.217,69.08Z" transform="translate(-124.696 -40)"/></g><g transform="translate(18.01 47.048)"><path class="a" d="M214.325,398H197.539a1.182,1.182,0,0,0,0,2.364h16.786a1.182,1.182,0,1,0,0-2.364Z" transform="translate(-196.357 -398.002)"/></g><g transform="translate(12.96 40.428)"><path class="a" d="M155.658,342.346a1.181,1.181,0,1,0,.346.836A1.191,1.191,0,0,0,155.658,342.346Z" transform="translate(-153.64 -342)"/></g><g transform="translate(12.96 47.048)"><path class="a" d="M155.658,398.346a1.181,1.181,0,1,0,.346.836A1.188,1.188,0,0,0,155.658,398.346Z" transform="translate(-153.64 -398)"/></g><g transform="translate(18.01 40.428)"><path class="a" d="M214.325,342H197.539a1.182,1.182,0,0,0,0,2.364h16.786a1.182,1.182,0,0,0,0-2.364Z" transform="translate(-196.357 -342.002)"/></g><g transform="translate(5.049 6.466)"><path class="a" d="M95.571,55.047a1.182,1.182,0,0,0-1.672,0L90.05,58.9l-1.316-1.316a1.182,1.182,0,1,0-1.672,1.672L89.214,61.4a1.182,1.182,0,0,0,1.672,0l4.686-4.686A1.182,1.182,0,0,0,95.571,55.047Z" transform="translate(-86.716 -54.701)"/></g><g transform="translate(0)"><path class="a" d="M53.693,0a9.693,9.693,0,1,0,9.693,9.693A9.7,9.7,0,0,0,53.693,0Zm0,17.022a7.329,7.329,0,1,1,7.329-7.329A7.337,7.337,0,0,1,53.693,17.022Z" transform="translate(-44)"/></g></svg>