<svg xmlns="http://www.w3.org/2000/svg" width="61.918" height="61.918" viewBox="0 0 61.918 61.918"><defs><style>.a{fill:#eeae1d;}</style></defs><path class="a" d="M8.032,19.32h8.256a1.032,1.032,0,0,0,1.032-1.032v-3.1H15.256v2.064H9.064V11.064h3.1V9H8.032A1.032,1.032,0,0,0,7,10.032v8.256A1.032,1.032,0,0,0,8.032,19.32Z" transform="translate(-1.84 -1.776)"/><path class="a" d="M12.087,13.755l-1.334-1.334L9.293,13.88l2.064,2.064a1.032,1.032,0,0,0,1.459,0l6.192-6.192L17.549,8.293Z" transform="translate(-1.767 -1.799)"/><path class="a" d="M15.256,30.256H9.064V24.064h3.1V22H8.032A1.032,1.032,0,0,0,7,23.032v8.256A1.032,1.032,0,0,0,8.032,32.32h8.256a1.032,1.032,0,0,0,1.032-1.032v-3.1H15.256Z" transform="translate(-1.84 -1.361)"/><path class="a" d="M12.087,26.755l-1.334-1.334L9.293,26.88l2.064,2.064a1.032,1.032,0,0,0,1.459,0l6.192-6.192-1.459-1.459Z" transform="translate(-1.767 -1.383)"/><path class="a" d="M16.288,35H8.032A1.032,1.032,0,0,0,7,36.032v8.256A1.032,1.032,0,0,0,8.032,45.32h8.256a1.032,1.032,0,0,0,1.032-1.032V36.032A1.032,1.032,0,0,0,16.288,35Zm-1.032,8.256H9.064V37.064h6.192Z" transform="translate(-1.84 -0.945)"/><path class="a" d="M16.288,48H8.032A1.032,1.032,0,0,0,7,49.032v8.256A1.032,1.032,0,0,0,8.032,58.32h8.256a1.032,1.032,0,0,0,1.032-1.032V49.032A1.032,1.032,0,0,0,16.288,48Zm-1.032,8.256H9.064V50.064h6.192Z" transform="translate(-1.84 -0.53)"/><path class="a" d="M59.488,5.4a1.032,1.032,0,0,0-1.459,0l-6.494,6.494L41.944,2.3a1.032,1.032,0,0,0-.73-.3H3.032A1.032,1.032,0,0,0,2,3.032V62.886a1.032,1.032,0,0,0,1.032,1.032h48.5a1.032,1.032,0,0,0,1.032-1.032V22.035L63.616,10.985a1.032,1.032,0,0,0,0-1.459ZM50.5,61.854H4.064V4.064H40.787l8.256,8.256h-6.8V7.16H40.183v6.192a1.032,1.032,0,0,0,1.032,1.032h7.828L25.006,38.421a1.036,1.036,0,0,0-.249.4l-2.064,6.192A1.032,1.032,0,0,0,24,46.322l6.192-2.064a1.036,1.036,0,0,0,.4-.249L50.5,24.1ZM26.186,41.061l1.767,1.767-2.65.883Zm3.677.758-2.669-2.669L58.758,7.587l2.669,2.669Z" transform="translate(-2 -2)"/><path class="a" d="M45,56h2.064v2.064H45Z" transform="translate(-0.625 -0.274)"/><path class="a" d="M41,56h2.064v2.064H41Z" transform="translate(-0.753 -0.274)"/><path class="a" d="M37,56h2.064v2.064H37Z" transform="translate(-0.881 -0.274)"/></svg>