<svg xmlns="http://www.w3.org/2000/svg" width="60.523" height="60.523" viewBox="0 0 60.523 60.523"><defs><style>.a{fill:#eeae1d;}</style></defs><g transform="translate(0 10.087)"><path class="a" d="M25.218,54.436A25.218,25.218,0,1,1,50.436,29.218,25.292,25.292,0,0,1,25.218,54.436Zm0-47.914a22.7,22.7,0,1,0,22.7,22.7A22.6,22.6,0,0,0,25.218,6.522Z" transform="translate(0 -4)"/></g><g transform="translate(8.826 18.914)"><path class="a" d="M19.892,40.284A16.392,16.392,0,1,1,36.283,23.892,16.359,16.359,0,0,1,19.892,40.284Zm0-30.262a13.993,13.993,0,0,0-13.87,13.87,13.993,13.993,0,0,0,13.87,13.87,13.993,13.993,0,0,0,13.87-13.87A13.993,13.993,0,0,0,19.892,10.022Z" transform="translate(-3.5 -7.5)"/></g><g transform="translate(17.653 27.74)"><path class="a" d="M14.565,26.131A7.43,7.43,0,0,1,7,18.565,7.43,7.43,0,0,1,14.565,11a7.43,7.43,0,0,1,7.565,7.565A7.43,7.43,0,0,1,14.565,26.131Zm0-12.609a5.044,5.044,0,1,0,5.044,5.044A5.058,5.058,0,0,0,14.565,13.522Z" transform="translate(-7 -11)"/></g><g transform="translate(23.831 15.257)"><path class="a" d="M10.837,27.359a1.516,1.516,0,0,1-1.009-.252,1.219,1.219,0,0,1,0-1.765L28.742,6.428a1.248,1.248,0,0,1,1.765,1.765L11.594,27.107C11.594,27.359,11.089,27.359,10.837,27.359Z" transform="translate(-9.45 -6.05)"/></g><g transform="translate(42.871 0)"><path class="a" d="M24.565,17.653h-6.3A1.191,1.191,0,0,1,17,16.392v-6.3c0-.252.252-.757.252-1.009L26.078.252A3.2,3.2,0,0,1,27.592,0a1.387,1.387,0,0,1,.757,1.261V6.3h5.044a1.387,1.387,0,0,1,1.261.757A3.2,3.2,0,0,1,34.4,8.574L25.574,17.4C25.322,17.4,24.818,17.653,24.565,17.653Zm-5.044-2.522h4.539l6.3-6.3H27.087a1.191,1.191,0,0,1-1.261-1.261V4.287l-6.3,6.3Z" transform="translate(-17 0)"/></g></svg>