<svg xmlns="http://www.w3.org/2000/svg" xmlns:xlink="http://www.w3.org/1999/xlink" width="1920" height="771" viewBox="0 0 1920 771"><defs><style>.a{fill:#0865ab;}.b{clip-path:url(#a);}.c{opacity:0.3;}.d{fill:#dadce0;isolation:isolate;}.e{fill:#ed7015;}.f{fill:#eeae1d;}.g{fill:#fff;}.h{fill:#ef7015;}.i{fill:#ee991a;}.j{fill:#ff6584;}.k{fill:#fe6483;}.l{fill:#e0e0e0;}.m{fill:#ebebeb;}.n{fill:#f5f5f5;}.o{fill:#fafafa;}.p{fill:#263238;}.q{opacity:0.7;}.r{fill:#eea71c;}.s{opacity:0.5;}.t{fill:#eea01b;}.u{opacity:0.1;}.v{fill:#ee9219;}.w{fill:#ed8c19;}.x{opacity:0.2;}.y{fill:#ed8518;}.z{opacity:0.4;}.aa{fill:#ed7e17;}.ab{fill:#455a64;}.ac{fill:#ffbe9d;}.ad{opacity:0.6;}</style><clipPath id="a"><rect class="a" width="1920" height="771"/></clipPath></defs><g class="b"><rect class="a" width="1920" height="771"/><g class="c" transform="translate(818.011 91.338)"><circle class="d" cx="5.628" cy="5.628" r="5.628" transform="translate(792.076 222.655)"/><circle class="d" cx="5.628" cy="5.628" r="5.628" transform="translate(41.617 370.536)"/><circle class="d" cx="5.628" cy="5.628" r="5.628" transform="translate(1009.487 402.543)"/><circle class="d" cx="5.628" cy="5.628" r="5.628" transform="translate(313.018 135.844)"/><circle class="d" cx="5.628" cy="5.628" r="5.628" transform="translate(294.531 6.431)"/><circle class="d" cx="5.628" cy="5.628" r="5.628" transform="translate(135.38 262.837)"/><path class="d" d="M707.227-202.977h-5.01v-5h-2.042v5h-5.01v2.053h5.01v5h2.042v-5h5.01Z" transform="translate(229.941 478.051)"/><path class="d" d="M748.592-288.429h-5.01v-5H741.54v5h-5.01v2.053h5.01v5h2.042v-5h5.01Z" transform="translate(272.45 390.237)"/><path class="d" d="M572.446-336.163h-5.01v-5.01h-2.041v5.01h-5.011v2.042h5.011v5.01h2.041v-5.01h5.01Z" transform="translate(91.433 341.173)"/><path class="d" d="M680.263-216.85h-5.01v-5h-2.042v5h-5v2.053h5v5h2.042v-5h5.01Z" transform="translate(202.243 463.794)"/><path class="d" d="M589.879-134.794h-5v-5h-2.041v5h-5.01v2.052h5.01v5h2.041v-5h5Z" transform="translate(109.36 548.118)"/><path class="d" d="M336.978-304.061h-5.01v-5h-2.042v5h-5.01v2.042h5.01v5.01h2.042v-5.01h5.01Z" transform="translate(-150.545 374.174)"/><path class="d" d="M250.981-271.948h-5.01v-5h-2.042v5h-5.01v2.042h5.01v5.01h2.042v-5.01h5.01Z" transform="translate(-238.918 407.175)"/><path class="d" d="M371.06-170.858h-5.01v-5.01h-2.042v5.01h-5v2.042h5v5.01h2.042v-5.01h5.01Z" transform="translate(-115.508 511.045)"/></g><g transform="translate(519.689 -688.33)"><path class="e" d="M15.711,11.623,9.289,7.535l4.088-6.423L11.623,0,7.538,6.423,1.116,2.335,0,4.085,6.423,8.173,2.335,14.6l1.753,1.116L8.173,9.289,14.6,13.374Z" transform="translate(598.443 298.519)"/><path class="e" d="M15.711,11.623,9.289,7.535l4.088-6.423L11.623,0,7.538,6.423,1.115,2.335,0,4.085,6.423,8.173,2.335,14.6l1.753,1.116L8.173,9.289,14.6,13.374Z" transform="translate(1345.424 772.146)"/><path class="f" d="M20.462,15.138,12.1,9.814l5.324-8.365L15.138,0,9.818,8.365,1.453,3.041,0,5.32l8.365,5.324L3.041,19.009l2.283,1.453,5.32-8.365,8.365,5.32Z" transform="translate(319.128 661.269)"/><path class="e" d="M15.711,11.623,9.289,7.535l4.088-6.423L11.623,0,7.538,6.423,1.115,2.335,0,4.085,6.423,8.173,2.335,14.6l1.753,1.116L8.173,9.289,14.6,13.374Z" transform="translate(911.27 1003.034)"/><path class="f" d="M15.711,11.623,9.289,7.535l4.088-6.423L11.623,0,7.538,6.423,1.116,2.335,0,4.085,6.423,8.173,2.335,14.6l1.753,1.116L8.173,9.289,14.6,13.374Z" transform="translate(280.972 876.917)"/><path class="e" d="M15.711,11.623,9.289,7.535l4.088-6.423L11.623,0,7.538,6.423,1.115,2.335,0,4.085,6.423,8.173,2.335,14.6l1.753,1.116L8.173,9.289,14.6,13.374Z" transform="translate(1638.541 738.439)"/><path class="g" d="M15.711,11.623,9.289,7.535l4.088-6.423L11.623,0,7.538,6.423,1.116,2.335,0,4.085,6.423,8.173,2.335,14.6l1.753,1.115L8.173,9.289,14.6,13.374Z" transform="translate(211.942 740.959)"/><path class="g" d="M22,16.271,13,10.552l5.722-8.993L16.274,0,10.552,8.99,1.562,3.268,0,5.722l8.993,5.719L3.271,20.434,5.722,22,11.444,13l8.99,5.722Z" transform="translate(750.989 650.001)"/><circle class="e" cx="9.427" cy="9.427" r="9.427" transform="translate(0 557.691)"/><circle class="e" cx="9.427" cy="9.427" r="9.427" transform="translate(705.281 194.822)"/><circle class="e" cx="6.037" cy="6.037" r="6.037" transform="translate(594.076 654.957)"/><circle class="e" cx="6.285" cy="6.285" r="6.285" transform="translate(614.155 575.039)"/><circle class="h" cx="6.285" cy="6.285" r="6.285" transform="translate(1326.112 922.327)"/><circle class="i" cx="6.285" cy="6.285" r="6.285" transform="translate(629.501 853.067)"/><circle class="j" cx="6.285" cy="6.285" r="6.285" transform="translate(689.57)"/><circle class="e" cx="6.285" cy="6.285" r="6.285" transform="translate(431.902 292.233)"/><circle class="g" cx="6.285" cy="6.285" r="6.285" transform="translate(510.46 81.7)"/><circle class="e" cx="9.427" cy="9.427" r="9.427" transform="translate(1446.861 644.169)"/><circle class="j" cx="18.142" cy="18.142" r="18.142" transform="translate(1014.321 643.556)"/><circle class="g" cx="9.427" cy="9.427" r="9.427" transform="translate(1041.506 559.327)"/><circle class="k" cx="4.585" cy="4.585" r="4.585" transform="translate(65.139 742.605)"/><circle class="f" cx="9.674" cy="9.674" r="9.674" transform="translate(399.353 956.234)"/><circle class="j" cx="9.674" cy="9.674" r="9.674" transform="translate(1512.045 700.49)"/></g><g class="c" transform="translate(-74.722 650.863)"><circle class="d" cx="3.663" cy="3.663" r="3.663" transform="translate(515.541 144.92)"/><circle class="d" cx="3.663" cy="3.663" r="3.663" transform="translate(27.087 241.172)"/><circle class="d" cx="3.663" cy="3.663" r="3.663" transform="translate(657.048 262.005)"/><circle class="d" cx="3.663" cy="3.663" r="3.663" transform="translate(203.735 88.417)"/><circle class="d" cx="3.663" cy="3.663" r="3.663" transform="translate(191.703 4.186)"/><circle class="d" cx="3.663" cy="3.663" r="3.663" transform="translate(88.115 171.074)"/><path class="d" d="M703.016-204.722h-3.261v-3.254h-1.329v3.254h-3.261v1.336h3.261v3.254h1.329v-3.254h3.261Z" transform="translate(-93.038 383.76)"/><path class="d" d="M744.381-290.175H741.12v-3.254h-1.329v3.254H736.53v1.336h3.261v3.254h1.329v-3.254h3.261Z" transform="translate(-79.812 356.438)"/><path class="d" d="M568.234-337.912h-3.261v-3.261h-1.329v3.261h-3.261v1.329h3.261v3.261h1.329v-3.261h3.261Z" transform="translate(-136.134 341.173)"/><path class="d" d="M676.055-218.6h-3.261v-3.254h-1.329v3.254h-3.254v1.336h3.254v3.254h1.329v-3.254h3.261Z" transform="translate(-101.656 379.325)"/><path class="d" d="M585.672-136.539h-3.254v-3.254h-1.329v3.254h-3.261v1.336h3.261v3.254h1.329V-135.2h3.254Z" transform="translate(-130.556 405.561)"/><path class="d" d="M332.766-305.806H329.5v-3.254h-1.329v3.254h-3.261v1.329h3.261v3.261H329.5v-3.261h3.261Z" transform="translate(-211.422 351.441)"/><path class="d" d="M246.769-273.694h-3.261v-3.254h-1.329v3.254h-3.261v1.329h3.261v3.261h1.329v-3.261h3.261Z" transform="translate(-238.918 361.709)"/><path class="d" d="M366.853-172.607h-3.261v-3.261h-1.329v3.261h-3.254v1.329h3.254v3.261h1.329v-3.261h3.261Z" transform="translate(-200.521 394.026)"/></g><g transform="translate(1081.224 356.276)"><g transform="translate(158.234 142.674)"><path class="l" d="M578.8,225.48a26.088,26.088,0,0,1-4.575,1.763,27.248,27.248,0,0,1-4.724,1.34,25.29,25.29,0,0,1,4.574-1.763A27.243,27.243,0,0,1,578.8,225.48Z" transform="translate(-217.828 -161.402)"/><path class="l" d="M445.99,417.641v38.6h5.165l6.937-39.037Z" transform="translate(-203.18 -184.139)"/><path class="l" d="M499.29,417.641v38.6h5.165l6.937-39.037Z" transform="translate(-209.501 -184.139)"/><path class="l" d="M564.312,417.641v38.6h-5.165L552.21,417.2Z" transform="translate(-215.777 -184.139)"/><path class="l" d="M601.761,417.641v38.6h-5.174L589.65,417.2Z" transform="translate(-220.218 -184.139)"/><path class="l" d="M478.268,321.085s-20.422-5.888-26.054,1.965S446,406.52,446,406.52s36.455.67,37.125,0S478.268,321.085,478.268,321.085Z" transform="translate(-203.182 -172.489)"/><path class="m" d="M587.715,380.892l.881-131.118a30.382,30.382,0,0,0-30.523-30.594H509.967A29.968,29.968,0,0,0,480,249.87l3.094,131Z" transform="translate(-207.213 -160.655)"/><path class="m" d="M584.521,398.79s-18.562-27.324-40.368-28.267-68.811,0-68.811,0-20.837.793-22.291,26.6v15.2H584.521Z" transform="translate(-204.018 -178.553)"/><path class="l" d="M541.712,371.306l-53.969-.282c-5.632,0-12.04-.723-17.5.829-16.086,4.566-18.448,25.138-17.17,39.328.053.582-.881.582-.881,0-1.067-11.9.185-28.566,10.365-36.49,5.87-4.566,12.692-4.636,19.7-4.6l59.486.309a.458.458,0,0,1,0,.881Z" transform="translate(-203.878 -178.551)"/><path class="l" d="M496.81,223.63a14.01,14.01,0,0,1,1.384-.414c.458-.079,1.04-.185,1.763-.291s1.481-.176,2.371-.256c3.578-.308,8.814-.494,15.2-.529,3.208,0,6.725,0,10.5.053a109,109,0,0,1,12.058.555,54.914,54.914,0,0,1,6.434,1.155,29.792,29.792,0,0,1,6.443,2.292,24.627,24.627,0,0,1,5.659,4.257,24.092,24.092,0,0,1,4.407,5.826,16.425,16.425,0,0,1,1.34,3.446,24.6,24.6,0,0,1,.555,3.587c.282,2.371.511,4.716.74,7.051.441,4.6.767,9.052,1.04,13.292.529,8.47.767,16.121.925,22.538s.212,11.617.256,15.2v5.209a2.855,2.855,0,0,1,0,.361,2.319,2.319,0,0,1,0-.361V305.53c0-.97-.071-2.353-.123-4.134-.088-3.614-.229-8.814-.4-15.2s-.467-14.058-1.022-22.52c-.282-4.231-.617-8.673-1.067-13.274-.229-2.292-.458-4.627-.749-7a23.456,23.456,0,0,0-.538-3.526,16.184,16.184,0,0,0-1.3-3.349,23.312,23.312,0,0,0-4.3-5.712,23.8,23.8,0,0,0-5.553-4.178,28.842,28.842,0,0,0-6.337-2.265,53.86,53.86,0,0,0-6.381-1.172,112.452,112.452,0,0,0-12-.591c-3.772-.071-7.289-.106-10.5-.106-6.417,0-11.608.132-15.187.379-.881.071-1.684.159-2.38.212l-1.763.247c-.467.088-.811.2-1.049.256Z" transform="translate(-209.207 -161.006)"/><path class="l" d="M583.113,263a33.9,33.9,0,0,1-7.483,2.644,17.991,17.991,0,0,1,3.667-1.525A17.346,17.346,0,0,1,583.113,263Z" transform="translate(-218.555 -165.851)"/><path class="l" d="M579.044,271.457c0,.123-.776.194-1.763.15s-1.7-.176-1.7-.3.776-.2,1.763-.159S579.053,271.333,579.044,271.457Z" transform="translate(-218.549 -166.816)"/><path class="l" d="M544.221,268.586a.955.955,0,0,1,.511-.141,2.019,2.019,0,0,1,1.357.494,1.948,1.948,0,0,1,.67,2.045,2.327,2.327,0,0,1-2.01,1.7A2.406,2.406,0,0,1,542.5,271.3a2.194,2.194,0,0,1,.159-2.151,2.344,2.344,0,0,1,1.1-.934c.317-.123.511-.115.52-.088a3.042,3.042,0,0,0-1.349,1.19,1.922,1.922,0,0,0-.053,1.763,2,2,0,0,0,1.842,1.111,1.93,1.93,0,0,0,1.63-1.357,1.648,1.648,0,0,0-.476-1.692,2.028,2.028,0,0,0-1.155-.555C544.415,268.586,544.229,268.63,544.221,268.586Z" transform="translate(-214.601 -166.458)"/><path class="l" d="M545.946,254.88c.053.062-.582.529-1.366,1.49a9.422,9.422,0,0,0-1.648,9.043c.388,1.172.82,1.833.749,1.869a4.563,4.563,0,0,1-1.058-1.763,8.893,8.893,0,0,1,1.719-9.369,4.67,4.67,0,0,1,1.6-1.269Z" transform="translate(-214.564 -164.888)"/><path class="l" d="M544.73,286.208a6.292,6.292,0,0,1-1.349-1.807,13.221,13.221,0,0,1-1.63-5.183,12.626,12.626,0,0,1,.053-3.014,4.671,4.671,0,0,1,.934-2.309,2.724,2.724,0,0,1,1.393-.943c.388-.106.617-.062.617,0a3.217,3.217,0,0,0-1.763,1.172c-.811,1.058-.969,3.041-.784,5.086a14.693,14.693,0,0,0,1.463,5.077A17.224,17.224,0,0,1,544.73,286.208Z" transform="translate(-214.529 -167.024)"/><path class="l" d="M536.68,270.339a2.644,2.644,0,0,1,2.265-.881,2.706,2.706,0,0,1,2.283.881,12.268,12.268,0,0,0-2.274-.423,12.077,12.077,0,0,0-2.274.423Z" transform="translate(-213.936 -166.616)"/><path class="l" d="M509.481,268.586a.955.955,0,0,1,.511-.141,2.028,2.028,0,0,1,1.357.494,1.974,1.974,0,0,1,.67,2.045,2.327,2.327,0,0,1-2.01,1.7,2.389,2.389,0,0,1-2.248-1.384,2.221,2.221,0,0,1,.15-2.151,2.389,2.389,0,0,1,1.1-.934c.326-.123.52-.115.52-.088a3,3,0,0,0-1.34,1.19,1.9,1.9,0,0,0-.053,1.763,2,2,0,0,0,1.833,1.111,1.93,1.93,0,0,0,1.639-1.357,1.648,1.648,0,0,0-.476-1.692,2.027,2.027,0,0,0-1.155-.555C509.71,268.586,509.489,268.63,509.481,268.586Z" transform="translate(-210.481 -166.458)"/><path class="l" d="M511.207,254.88c.053.062-.582.529-1.366,1.49a9.36,9.36,0,0,0-1.648,9.043c.388,1.172.811,1.833.749,1.869a4.567,4.567,0,0,1-1.058-1.763,9.044,9.044,0,0,1-.5-4.927,9.139,9.139,0,0,1,2.212-4.407A4.644,4.644,0,0,1,511.207,254.88Z" transform="translate(-210.444 -164.888)"/><path class="l" d="M509.988,286.2a6.106,6.106,0,0,1-1.349-1.807,13.108,13.108,0,0,1-1.648-5.244,12.633,12.633,0,0,1,.053-3.014,4.592,4.592,0,0,1,.934-2.309,2.723,2.723,0,0,1,1.393-.943c.388-.106.617-.062.617,0a3.182,3.182,0,0,0-1.763,1.172c-.82,1.058-.97,3.041-.784,5.086a14.9,14.9,0,0,0,1.454,5.077A18.82,18.82,0,0,1,509.988,286.2Z" transform="translate(-210.407 -167.016)"/><path class="l" d="M501.93,270.34a3.358,3.358,0,0,1,4.557,0,12.253,12.253,0,0,0-2.283-.423A12.465,12.465,0,0,0,501.93,270.34Z" transform="translate(-209.814 -166.616)"/><path class="n" d="M595.725,319.984s-31.228-8.082-36.869,2.547-6.646,83.848-6.646,83.848,45.084,1.657,45.19-.238S595.725,319.984,595.725,319.984Z" transform="translate(-215.777 -172.261)"/><path class="m" d="M599,319.765s-20.625-5.288-26.257,2.538-7.113,84.562-7.113,84.562,32.912.97,33.582.309S599,319.765,599,319.765Z" transform="translate(-217.369 -172.376)"/><path class="l" d="M589.593,363.284a.435.435,0,0,1,.379-.2,1.031,1.031,0,0,1,1,.652,3.26,3.26,0,0,1,.185,1.763,1.658,1.658,0,0,1-.494,1,1.384,1.384,0,0,1-1.172.317,1.6,1.6,0,0,1-1.234-1.058,2.08,2.08,0,0,1,0-1.428,2.909,2.909,0,0,1,1.3-1.428v.185c-.344-.15-.529-.247-.511-.282s.212,0,.573.088l.194.044-.167.141a3.129,3.129,0,0,0-1.057,1.384,1.761,1.761,0,0,0,0,1.137,1.154,1.154,0,0,0,.881.758,1,1,0,0,0,1.164-.925,3.349,3.349,0,0,0,.026-1.578.882.882,0,0,0-.705-.608C589.778,363.231,589.61,363.319,589.593,363.284Z" transform="translate(-220.037 -177.686)"/><path class="l" d="M583.13,347.57a9.86,9.86,0,0,1,1.278,1.869,44.316,44.316,0,0,1,2.495,4.874,44.77,44.77,0,0,1,1.86,5.156,9.547,9.547,0,0,1,.494,2.212,13.374,13.374,0,0,1-.8-2.115c-.458-1.313-1.128-3.12-1.974-5.068s-1.71-3.667-2.353-4.9A12.865,12.865,0,0,1,583.13,347.57Z" transform="translate(-219.444 -175.881)"/><path class="l" d="M596.33,349a10.079,10.079,0,0,1-.793,1.93c-.538,1.163-1.269,2.776-2.054,4.566s-1.437,3.437-1.921,4.627a10.575,10.575,0,0,1-.881,1.9,8.4,8.4,0,0,1,.546-2.018c.406-1.216,1.031-2.891,1.816-4.689s1.569-3.4,2.177-4.539A9.1,9.1,0,0,1,596.33,349Z" transform="translate(-220.34 -176.051)"/><path class="l" d="M583.288,388.723a2.814,2.814,0,0,1,.053-.881c.062-.573.176-1.384.335-2.389.317-2.01.829-4.777,1.516-7.809s1.41-5.747,1.983-7.7c.291-.978.538-1.763.723-2.3a3.67,3.67,0,0,1,.326-.82,26.693,26.693,0,0,1-.732,3.208c-.5,1.966-1.172,4.689-1.86,7.712s-1.234,5.773-1.639,7.765A28.144,28.144,0,0,1,583.288,388.723Z" transform="translate(-219.462 -178.164)"/><path class="l" d="M596.333,380.333a10.466,10.466,0,0,1-.74-2c-.423-1.243-1.031-2.953-1.763-4.8s-1.516-3.526-2.089-4.68a11.139,11.139,0,0,1-.881-1.948,8.222,8.222,0,0,1,1.155,1.763,43.731,43.731,0,0,1,3.9,9.537,9,9,0,0,1,.423,2.133Z" transform="translate(-220.361 -178.173)"/><rect class="m" width="5.967" height="23.719" transform="translate(110.74 272.266) rotate(180)"/><rect class="m" width="5.967" height="23.719" transform="translate(35.433 272.266) rotate(180)"/><rect class="l" width="5.967" height="23.719" transform="translate(71.05 272.266) rotate(180)"/><rect class="l" width="5.967" height="23.719" transform="translate(7.016 272.266) rotate(180)"/><rect class="m" width="81.389" height="54.7" transform="translate(29.351 193.839)"/><rect class="l" width="29.351" height="54.7" transform="translate(0 193.839)"/><path class="l" d="M212.518,401.36a2.082,2.082,0,0,0,0-.308v-4.3c0-2.979.044-7.316.071-12.78l-.132.132,65.506.079-.211-.212h0v17.381l.211-.212-46.715.1-13.759.062h-.009l13.723.053,46.864.1h.22V383.97h0l-.22-.22-65.506.088h-.132v.132c0,5.5.062,9.863.079,12.86V401.1A1.621,1.621,0,0,0,212.518,401.36Z" transform="translate(-175.481 -180.172)"/><path class="l" d="M246.44,393.475a2.873,2.873,0,1,0,2.865-2.865A2.873,2.873,0,0,0,246.44,393.475Z" transform="translate(-179.515 -180.985)"/><path class="n" d="M280.368,349l-3.208,4.61s7.21,2,7.21,8.417-4.407,7.615-9.211,7.615-9.422-1.4-9.22-7.818,6.17-8.814,6.17-8.814l-2.97-4.01Z" transform="translate(-181.827 -176.051)"/><path class="l" d="M179.52,358.68v11.74h50.5a5.87,5.87,0,0,0,5.87-5.87h0a5.87,5.87,0,0,0-5.87-5.87" transform="translate(-171.579 -177.199)"/><path class="o" d="M1.542,0h18.51V6.822H1.542A1.542,1.542,0,0,1,0,5.28V1.534A1.543,1.543,0,0,1,1.542,0Z" transform="translate(27.985 190.763) rotate(180)"/><path class="n" d="M179.52,345.88v11.74h50.5a5.87,5.87,0,0,0,5.87-5.87h0a5.87,5.87,0,0,0-5.87-5.87Z" transform="translate(-171.579 -175.681)"/><path class="l" d="M1.542,0h18.51V6.822H1.542A1.542,1.542,0,0,1,0,5.28V1.534A1.542,1.542,0,0,1,1.542,0Z" transform="translate(27.985 179.481) rotate(180)"/><rect class="l" width="1.763" height="92.318" transform="translate(372.452 12.898) rotate(-65.38)"/><rect class="l" width="1.763" height="230.752" transform="translate(435.723 41.347)"/><rect class="n" width="4.548" height="30.973" rx="2.274" transform="translate(439.055 133.339) rotate(180)"/><path class="m" d="M594.09,165.231l-2.345,4.028-10.436-6.064,2.644-4.143a5.923,5.923,0,0,1,7.792-2.027h0a5.932,5.932,0,0,1,2.345,8.206Z" transform="translate(-219.228 -153.2)"/><path class="n" d="M588.516,168.6l5.95,28.143L551.33,172.308l26.424-8.188Z" transform="translate(-215.673 -154.125)"/><path class="l" d="M548.956,174.464c2.159-3.993,14.1-1.763,26.592,5.05s21,15.5,18.8,19.5-14.1,1.763-26.592-5.042S546.832,178.456,548.956,174.464Z" transform="translate(-215.353 -155.117)"/><path class="l" d="M687.044,460.565H637.2s7.413-7.554,25.261-6.822S687.044,460.565,687.044,460.565Z" transform="translate(-225.857 -188.467)"/><path class="n" d="M662,199.275a3.376,3.376,0,1,0,.985-2.393,3.385,3.385,0,0,0-.985,2.393Z" transform="translate(-228.798 -157.893)"/><path class="m" d="M593.381,157.548l2.362-4.01-2.045-.758-1.869,4.2Z" transform="translate(-220.476 -152.78)"/><path class="l" d="M581.31,163.831a20.271,20.271,0,0,1,6.17,1.481,19.97,19.97,0,0,1,5.147,3.737,5.042,5.042,0,0,0-1.163-1.507,13.1,13.1,0,0,0-8.259-3.808,5.217,5.217,0,0,0-1.895.1Z" transform="translate(-219.228 -154.074)"/><path class="o" d="M580.982,182.16v8.382a4.046,4.046,0,0,1-.943,2.644c-1.075,1.216-3.3,2.186-7.809-.194-5.288-2.8-4.777-5.949-3.922-7.651a4.25,4.25,0,0,1,1.64-1.71l6.734-3.922Z" transform="translate(-217.623 -155.974)"/><path class="l" d="M578.781,180.74a6.712,6.712,0,0,0-.5.978,24.955,24.955,0,0,1-1.454,2.644c-.335.538-.723,1.1-1.155,1.7a3.964,3.964,0,0,1-.732.8,1.014,1.014,0,0,1-.952.194.776.776,0,0,1,.159-1.5,2.143,2.143,0,0,1,1.2.282,12.016,12.016,0,0,1,1.243.661,13.541,13.541,0,0,1,1.181.767c.379.264.679.546.635.881a2.239,2.239,0,0,1-.467,1.075c-.22.264-.555.176-.776-.1a.987.987,0,0,1-.1-.97,6.541,6.541,0,0,1,.494-1c.353-.643.688-1.252,1-1.807l1.419-2.644a5.132,5.132,0,0,0,.467-1,4.243,4.243,0,0,0-.626.881l-1.525,2.565c-.326.555-.67,1.155-1.049,1.763a6.976,6.976,0,0,0-.538,1.058,1.881,1.881,0,0,0-.114.67,1.216,1.216,0,0,0,.256.687,1.022,1.022,0,0,0,.652.423.881.881,0,0,0,.784-.273,2.283,2.283,0,0,0,.388-.626,2.232,2.232,0,0,0,.2-.723,1.137,1.137,0,0,0-.247-.793,2.539,2.539,0,0,0-.564-.511,14.412,14.412,0,0,0-1.216-.793,13.73,13.73,0,0,0-1.278-.679,2.592,2.592,0,0,0-1.472-.317,1.251,1.251,0,0,0-1.031,1.119,1.234,1.234,0,0,0,.793,1.225,1.375,1.375,0,0,0,1.34-.264,4.291,4.291,0,0,0,.811-.881c.423-.617.8-1.2,1.119-1.763a19.606,19.606,0,0,0,1.34-2.7A3.958,3.958,0,0,0,578.781,180.74Z" transform="translate(-218.251 -156.096)"/><rect class="l" width="94.98" height="62.448" transform="translate(21.48 105.945) rotate(-90)"/><rect class="o" width="88.326" height="57.097" transform="translate(24.036 102.649) rotate(-90)"/><rect class="l" width="28.813" height="15.715" transform="translate(44.846 72.892) rotate(-90)"/></g><g transform="translate(67 414.738)"><path class="p" d="M590.555,461.679c0,.123-117.227.229-261.778.229S67,461.8,67,461.679s117.227-.229,261.778-.229S590.555,461.556,590.555,461.679Z" transform="translate(-67 -461.45)"/></g><g transform="translate(74.739 67.567)"><path class="h" d="M136.67,91.27h39.8v24.362h-39.8A11.705,11.705,0,0,1,125,103.927v-.952A11.705,11.705,0,0,1,136.67,91.27Z" transform="translate(-81.618 -70.378)"/><g class="q" transform="translate(43.382 20.892)"><path class="r" d="M136.67,91.27h39.8v24.362h-39.8A11.705,11.705,0,0,1,125,103.927v-.952A11.705,11.705,0,0,1,136.67,91.27Z" transform="translate(-125 -91.27)"/></g><rect class="h" width="51.501" height="24.362" transform="translate(94.847 20.892)"/><g class="s" transform="translate(94.847 20.892)"><rect class="t" width="51.501" height="24.362"/></g><rect class="h" width="51.501" height="24.362" transform="translate(146.357 20.892)"/><g class="c" transform="translate(146.357 20.892)"><rect class="i" width="51.501" height="24.362"/></g><rect class="h" width="51.501" height="24.362" transform="translate(197.857 20.892)"/><g class="u" transform="translate(197.857 20.892)"><rect class="v" width="51.501" height="24.362"/></g><rect class="w" width="51.501" height="24.362" transform="translate(249.146 20.892)"/><rect class="h" width="51.501" height="24.362" transform="translate(300.479 20.892)"/><g class="x" transform="translate(300.479 20.892)"><rect class="y" width="51.501" height="24.362"/></g><rect class="h" width="51.501" height="24.362" transform="translate(351.804 20.892)"/><path class="h" d="M533.16,91.27h39.8a11.705,11.705,0,0,1,11.705,11.705v.952a11.705,11.705,0,0,1-11.705,11.705h-39.8Z" transform="translate(-130.023 -70.378)"/><g class="z" transform="translate(351.804 20.892)"><rect class="aa" width="51.501" height="24.362"/></g><g class="q" transform="translate(403.137 20.892)"><path class="e" d="M533.16,91.27h39.8a11.705,11.705,0,0,1,11.705,11.705v.952a11.705,11.705,0,0,1-11.705,11.705h-39.8Z" transform="translate(-533.16 -91.27)"/></g><circle class="p" cx="17.769" cy="17.769" r="17.769" transform="matrix(0.255, -0.967, 0.967, 0.255, 248.702, 45.339)"/><circle class="ab" cx="17.769" cy="17.769" r="17.769" transform="translate(249.797 32.685) rotate(-45)"/><path class="p" d="M401.072,102.535a24.085,24.085,0,0,0-.573-3.764,14.906,14.906,0,0,0-1.763-4.081,15.311,15.311,0,0,0-18.395-6.514,14.613,14.613,0,0,0-3.869,2.089,14.1,14.1,0,0,0-3.226,3.244,15.222,15.222,0,0,0,0,18.042,16.229,16.229,0,0,0,1.5,1.763,17.04,17.04,0,0,0,1.763,1.481,14.589,14.589,0,0,0,3.869,2.08,15.363,15.363,0,0,0,18.395-6.5,15.054,15.054,0,0,0,1.763-4.09,24.055,24.055,0,0,0,.573-3.755,1.024,1.024,0,0,1,0,.247v.74a7.052,7.052,0,0,1-.1,1.2,10.863,10.863,0,0,1-.291,1.613,14.519,14.519,0,0,1-1.683,4.178,15.637,15.637,0,0,1-18.792,6.778,14.694,14.694,0,0,1-3.975-2.124,14.456,14.456,0,0,1-3.332-3.332,15.6,15.6,0,0,1,0-18.58,17.189,17.189,0,0,1,1.525-1.86,16.878,16.878,0,0,1,1.763-1.507,14.729,14.729,0,0,1,3.975-2.133,15.6,15.6,0,0,1,18.765,6.778,14.576,14.576,0,0,1,1.684,4.169,11.061,11.061,0,0,1,.291,1.613,7.137,7.137,0,0,1,.1,1.2v.74A1.136,1.136,0,0,1,401.072,102.535Z" transform="translate(-110.658 -69.85)"/><path class="p" d="M180.738,67.69v7.051h-.952v-6.17H178.2V67.69Z" transform="translate(-87.927 -67.581)"/><path class="p" d="M245.124,73.832v.881h-5.042v-.679l2.856-2.759c.74-.723.881-1.163.881-1.6,0-.723-.511-1.163-1.49-1.163a2.2,2.2,0,0,0-1.763.758l-.687-.591a3.27,3.27,0,0,1,2.574-1.066c1.463,0,2.406.758,2.406,1.957a2.856,2.856,0,0,1-1.155,2.212l-2.142,2.062Z" transform="translate(-95.242 -67.571)"/><path class="p" d="M301.437,72.646c0,1.181-.881,2.142-2.644,2.142a4,4,0,0,1-2.583-.881l.467-.793a3.147,3.147,0,0,0,2.115.749c1.049,0,1.657-.485,1.657-1.243s-.538-1.225-1.763-1.225h-.564V70.69l1.763-2.168H296.51V67.64h4.627v.688L299.321,70.6C300.732,70.769,301.437,71.562,301.437,72.646Z" transform="translate(-101.922 -67.575)"/><path class="p" d="M361.524,72.987h-1.34V74.75h-.97V72.987h-3.9v-.7l3.6-4.6h1.084L356.544,72.1h2.7v-1.49h.943v1.525h1.34Z" transform="translate(-108.931 -67.581)"/><path class="p" d="M417.167,72.6c0,1.216-.881,2.186-2.644,2.186a4.054,4.054,0,0,1-2.583-.881l.467-.793a3.147,3.147,0,0,0,2.107.749c1.058,0,1.666-.494,1.666-1.252s-.5-1.287-2.133-1.287h-1.613l.379-3.675h3.958v.881h-3.12l-.185,1.93h.776C416.338,70.488,417.167,71.361,417.167,72.6Z" transform="translate(-115.647 -67.577)"/><path class="p" d="M476.838,72.567a2.265,2.265,0,0,1-2.486,2.212c-1.886,0-2.953-1.26-2.953-3.526,0-2.4,1.357-3.684,3.323-3.684a3.367,3.367,0,0,1,1.763.414l-.379.784a2.4,2.4,0,0,0-1.349-.335c-1.419,0-2.336.881-2.336,2.644a2.4,2.4,0,0,0,0,.247,2.345,2.345,0,0,1,2.018-.881,2.168,2.168,0,0,1,2.4,2.124Zm-.97,0c0-.82-.626-1.349-1.6-1.349a1.454,1.454,0,0,0-1.613,1.366c0,.714.582,1.349,1.657,1.349a1.393,1.393,0,0,0,1.56-1.331Z" transform="translate(-122.699 -67.567)"/><path class="p" d="M537.127,67.69v.687l-2.838,6.337h-1.067l2.785-6.17h-3.217v1.26h-.961V67.69Z" transform="translate(-129.866 -67.581)"/><path class="p" d="M382.175,107.719a23.8,23.8,0,0,1-3.72-2.909h-.044l-.212-.176.22-.176a23.6,23.6,0,0,1,3.755-2.768,24.565,24.565,0,0,1-3.473,3.129v-.353h.044a25.07,25.07,0,0,1,3.429,3.252Z" transform="translate(-111.646 -71.614)"/><path class="p" d="M394.49,101.65a24.306,24.306,0,0,1,3.72,2.909h.044l.2.185-.212.167a23.8,23.8,0,0,1-3.755,2.776,24.15,24.15,0,0,1,3.464-3.129v.353h-.044A25.073,25.073,0,0,1,394.49,101.65Z" transform="translate(-113.578 -71.609)"/><path class="p" d="M395.745,104.964a81.269,81.269,0,0,1-8.567.229,81.265,81.265,0,0,1-8.567-.229,77.063,77.063,0,0,1,8.567-.238,77.063,77.063,0,0,1,8.567.238Z" transform="translate(-111.695 -71.97)"/><path class="p" d="M105.6,104.73a24.744,24.744,0,0,0-.546-3.587,14.305,14.305,0,0,0-1.657-3.9,14.623,14.623,0,0,0-17.54-6.17,13.5,13.5,0,0,0-3.711,1.957,13.222,13.222,0,0,0-3.05,3.094,14.49,14.49,0,0,0,0,17.205,14.5,14.5,0,0,0,6.734,5.05,14.593,14.593,0,0,0,17.54-6.2,14.305,14.305,0,0,0,1.657-3.9,24.93,24.93,0,0,0,.546-3.587.971.971,0,0,1,0,.238v.705a6.516,6.516,0,0,1-.1,1.146,9.983,9.983,0,0,1-.282,1.542,13.786,13.786,0,0,1-1.6,3.975,14.908,14.908,0,0,1-17.9,6.425,13.925,13.925,0,0,1-3.808-2.027,17.553,17.553,0,0,1-1.7-1.446,16.451,16.451,0,0,1-1.472-1.763,14.913,14.913,0,0,1,0-17.743,18.457,18.457,0,0,1,1.472-1.763,16.307,16.307,0,0,1,1.7-1.437,14.1,14.1,0,0,1,3.808-2.036,14.846,14.846,0,0,1,17.857,6.47,13.821,13.821,0,0,1,1.6,3.984,9.8,9.8,0,0,1,.282,1.542,6.451,6.451,0,0,1,.1,1.146v.705A.97.97,0,0,1,105.6,104.73Z" transform="translate(-75.781 -70.185)"/><path class="p" d="M98.565,106.725a56.644,56.644,0,0,1-7.148.229,56.845,56.845,0,0,1-7.157-.229,54.909,54.909,0,0,1,7.157-.229A54.714,54.714,0,0,1,98.565,106.725Z" transform="translate(-76.786 -72.18)"/><path class="p" d="M628.988,102.637a24.175,24.175,0,0,0-.555-3.587,13.974,13.974,0,0,0-1.648-3.9,14.621,14.621,0,0,0-17.54-6.205,13.5,13.5,0,0,0-3.684,1.992,15.4,15.4,0,0,0-1.675,1.428,16.472,16.472,0,0,0-1.428,1.692,14.49,14.49,0,0,0,0,17.205,14.564,14.564,0,0,0,6.76,5.077,14.642,14.642,0,0,0,17.54-6.205,14.054,14.054,0,0,0,1.648-3.887,24.389,24.389,0,0,0,.555-3.587.97.97,0,0,1,0,.238v.705a6.513,6.513,0,0,1-.1,1.146,10,10,0,0,1-.282,1.542,14.042,14.042,0,0,1-1.6,3.975,14.917,14.917,0,0,1-17.91,6.425,14,14,0,0,1-3.8-2.027,17.536,17.536,0,0,1-1.7-1.446,15.486,15.486,0,0,1-1.472-1.763,14.914,14.914,0,0,1,0-17.743,18.447,18.447,0,0,1,1.472-1.763,16.289,16.289,0,0,1,1.7-1.349,14.039,14.039,0,0,1,3.8-2.036,14.923,14.923,0,0,1,17.91,6.443,14.1,14.1,0,0,1,1.6,3.984,9.773,9.773,0,0,1,.282,1.542,6.408,6.408,0,0,1,.1,1.137v.705A1.081,1.081,0,0,1,628.988,102.637Z" transform="translate(-137.852 -69.952)"/><path class="p" d="M621.925,104.619a111.739,111.739,0,0,1-14.305,0A111.734,111.734,0,0,1,621.925,104.619Z" transform="translate(-138.854 -71.934)"/><path class="p" d="M615.705,110.062a51.07,51.07,0,0,1-.229-6.9,51.151,51.151,0,0,1,.229-6.91,52.951,52.951,0,0,1,.229,6.91,52.87,52.87,0,0,1-.229,6.9Z" transform="translate(-139.782 -70.968)"/></g><g transform="translate(86.358 259.44)"><path class="h" d="M170.41,392.977c-8.462-7.051-9.634-18.862-8.462-29.324.2-1.763.15-3.614,1.111-5.086s2.979-2.371,4.486-1.507c1.252.714,1.7,2.274,2.336,3.579a10.233,10.233,0,0,0,3.8,4.248,3.9,3.9,0,0,0,3.57.608c1.578-.714,1.921-2.785,2.045-4.53.238-3.244.467-6.5.705-9.748a16.3,16.3,0,0,1,.934-5.13,5.412,5.412,0,0,1,3.684-3.385,3.288,3.288,0,0,1,3.887,2.512,16.485,16.485,0,0,1-.123,2.177,1.842,1.842,0,0,0,.934,1.807,2.1,2.1,0,0,0,1.974-.652,22.918,22.918,0,0,0,4.654-5.95,32.673,32.673,0,0,1,4.407-6.17,9.457,9.457,0,0,1,6.663-3.076,5.651,5.651,0,0,1,5.482,4.3c.432,2.494-1.19,4.892-2.9,6.752a39.143,39.143,0,0,1-8.708,7.051,3.226,3.226,0,0,0-1.472,1.349c-.467,1.128.546,2.371,1.657,2.847a20.559,20.559,0,0,0,4.037.776,3.925,3.925,0,0,1,3.182,2.309c.573,1.833-1.067,3.587-2.644,4.689a33.432,33.432,0,0,1-10.3,4.918,11.266,11.266,0,0,0-3.808,1.49,3.235,3.235,0,0,0-1.322,3.614c.529,1.278,2.1,1.763,3.464,1.657a24.526,24.526,0,0,0,3.94-1.163c2.459-.714,5.544-.309,6.91,1.886a5.509,5.509,0,0,1,.2,4.918,12.629,12.629,0,0,1-2.979,4.1,33.492,33.492,0,0,1-15.125,8.955c-5.7,1.49-10.894,1.6-16.253-.881" transform="translate(-97.573 -290.96)"/><g class="z" transform="translate(63.992 42.39)"><path class="f" d="M170.41,392.977c-8.462-7.051-9.634-18.862-8.462-29.324.2-1.763.15-3.614,1.111-5.086s2.979-2.371,4.486-1.507c1.252.714,1.7,2.274,2.336,3.579a10.233,10.233,0,0,0,3.8,4.248,3.9,3.9,0,0,0,3.57.608c1.578-.714,1.921-2.785,2.045-4.53.238-3.244.467-6.5.705-9.748a16.3,16.3,0,0,1,.934-5.13,5.412,5.412,0,0,1,3.684-3.385,3.288,3.288,0,0,1,3.887,2.512,16.485,16.485,0,0,1-.123,2.177,1.842,1.842,0,0,0,.934,1.807,2.1,2.1,0,0,0,1.974-.652,22.918,22.918,0,0,0,4.654-5.95,32.673,32.673,0,0,1,4.407-6.17,9.457,9.457,0,0,1,6.663-3.076,5.651,5.651,0,0,1,5.482,4.3c.432,2.494-1.19,4.892-2.9,6.752a39.143,39.143,0,0,1-8.708,7.051,3.226,3.226,0,0,0-1.472,1.349c-.467,1.128.546,2.371,1.657,2.847a20.559,20.559,0,0,0,4.037.776,3.925,3.925,0,0,1,3.182,2.309c.573,1.833-1.067,3.587-2.644,4.689a33.432,33.432,0,0,1-10.3,4.918,11.266,11.266,0,0,0-3.808,1.49,3.235,3.235,0,0,0-1.322,3.614c.529,1.278,2.1,1.763,3.464,1.657a24.526,24.526,0,0,0,3.94-1.163c2.459-.714,5.544-.309,6.91,1.886a5.509,5.509,0,0,1,.2,4.918,12.629,12.629,0,0,1-2.979,4.1,33.492,33.492,0,0,1-15.125,8.955c-5.7,1.49-10.894,1.6-16.253-.881" transform="translate(-161.566 -333.35)"/></g><path class="p" d="M211.139,335.29a1.016,1.016,0,0,1-.185.15l-.546.423c-.494.361-1.208.881-2.115,1.631a65.17,65.17,0,0,0-7.219,6.663c-1.428,1.507-2.917,3.235-4.486,5.112s-3.226,3.9-4.883,6.09a78.553,78.553,0,0,0-4.892,7.113c-.776,1.278-1.481,2.644-2.2,3.993s-1.454,2.768-2.186,4.178a159.275,159.275,0,0,0-7.527,16.28,77.644,77.644,0,0,0-4.028,14.1,57.107,57.107,0,0,0-.943,9.81c0,1.172,0,2.071.053,2.644v.943a1.009,1.009,0,0,1,0-.238,3.639,3.639,0,0,0-.053-.7c-.062-.617-.1-1.525-.115-2.7a54.73,54.73,0,0,1,.837-9.863,76.77,76.77,0,0,1,3.975-14.1,157.916,157.916,0,0,1,7.518-16.324l2.195-4.178c.723-1.366,1.437-2.724,2.221-4.01a77.772,77.772,0,0,1,4.918-7.131c1.675-2.186,3.34-4.2,4.918-6.082s3.085-3.587,4.522-5.095a61.281,61.281,0,0,1,7.307-6.6c.881-.714,1.657-1.234,2.151-1.587l.573-.4A.983.983,0,0,1,211.139,335.29Z" transform="translate(-98.551 -291.191)"/><path class="p" d="M188.763,363.324a4.5,4.5,0,0,1-.106-.758c-.053-.485-.115-1.2-.167-2.071-.106-1.763-.176-4.187-.238-6.857s-.176-5.1-.308-6.848c-.07-.881-.123-1.578-.176-2.071a3.093,3.093,0,0,1,0-.758,3.375,3.375,0,0,1,.159.74c.088.485.185,1.19.273,2.071.2,1.763.335,4.178.405,6.857s.115,5.033.15,6.857c0,.82.044,1.516.062,2.071A3.243,3.243,0,0,1,188.763,363.324Z" transform="translate(-100.678 -292.219)"/><path class="p" d="M211.636,363.156a4.212,4.212,0,0,1-.881,0c-.582,0-1.419,0-2.45.053-2.071.062-4.927.238-8.065.582s-5.976.776-8.012,1.155c-1.022.176-1.842.344-2.406.458a4.129,4.129,0,0,1-.881.141,5.845,5.845,0,0,1,.881-.264c.564-.15,1.384-.353,2.4-.564,2.036-.432,4.874-.881,8.021-1.252a80.349,80.349,0,0,1,8.1-.485c1.031,0,1.877,0,2.45.053A5.344,5.344,0,0,1,211.636,363.156Z" transform="translate(-100.82 -294.474)"/><path class="p" d="M174.4,389.322a1.073,1.073,0,0,1-.132-.282c-.088-.229-.194-.5-.317-.881-.273-.732-.643-1.763-1.084-3.129-.881-2.644-1.974-6.355-3.129-10.453s-2.221-7.8-3.05-10.471c-.405-1.3-.732-2.362-.978-3.155l-.264-.881a1.057,1.057,0,0,1-.071-.309,1.075,1.075,0,0,1,.132.282c.088.229.194.5.317.837.273.732.643,1.807,1.084,3.129.881,2.644,1.974,6.355,3.138,10.454s2.221,7.809,3.041,10.471c.405,1.3.732,2.362.978,3.156l.264.881A.987.987,0,0,1,174.4,389.322Z" transform="translate(-98.024 -294.093)"/><path class="p" d="M206.137,385.079a1.449,1.449,0,0,1-.3.1l-.881.22-3.27.784c-2.759.661-6.558,1.613-10.762,2.644s-8.012,1.983-10.788,2.591c-1.384.3-2.512.538-3.3.679l-.881.159c-.2,0-.317.053-.317,0a1.437,1.437,0,0,1,.309-.1l.881-.22,3.27-.784c2.759-.661,6.566-1.613,10.762-2.644s8.021-1.983,10.788-2.591c1.393-.3,2.512-.538,3.3-.679l.881-.167A1.732,1.732,0,0,1,206.137,385.079Z" transform="translate(-99.242 -297.094)"/><path class="f" d="M154.017,377.3c13.133-10.806,14.869-29.086,13.045-45.243-.3-2.7-.229-5.579-1.7-7.844s-4.6-3.658-6.937-2.327c-1.93,1.1-2.644,3.526-3.6,5.526a15.936,15.936,0,0,1-5.87,6.558c-1.648,1.031-3.737,1.763-5.518.943-2.433-1.111-2.962-4.31-3.155-7l-1.049-15.054a25.049,25.049,0,0,0-1.446-7.933c-1.031-2.486-3.067-4.716-5.685-5.227s-5.667,1.207-6,3.878a25.237,25.237,0,0,0,.194,3.358,2.865,2.865,0,0,1-1.446,2.794c-1.031.4-2.186-.273-3.058-1-2.988-2.494-5.147-5.844-7.183-9.184s-4.019-6.769-6.778-9.537-6.417-4.839-10.286-4.751-7.792,2.785-8.47,6.646,1.842,7.536,4.486,10.418a60.27,60.27,0,0,0,13.406,10.912,4.98,4.98,0,0,1,2.3,2.115c.723,1.763-.881,3.667-2.565,4.407-1.948.82-4.143.784-6.223,1.2s-4.275,1.516-4.909,3.526c-.881,2.838,1.639,5.535,4.046,7.245a51.517,51.517,0,0,0,15.918,7.589c2.036.573,4.169,1.04,5.879,2.309s2.856,3.6,2.036,5.579-3.244,2.768-5.341,2.547-4.046-1.2-6.082-1.763c-3.808-1.1-8.558-.476-10.683,2.909a8.55,8.55,0,0,0-.309,7.6,19.673,19.673,0,0,0,4.6,6.328,51.888,51.888,0,0,0,23.3,13.785c8.814,2.3,16.826,2.477,25.1-1.3" transform="translate(-88.963 -285.257)"/><path class="p" d="M93.13,288.27l.282.238.881.652c.758.564,1.869,1.4,3.27,2.521a101.76,101.76,0,0,1,11.15,10.277c2.195,2.336,4.5,5,6.919,7.933s4.971,6.029,7.545,9.4a122.784,122.784,0,0,1,7.536,10.982c1.2,1.974,2.3,4.054,3.411,6.17l3.385,6.452a246.96,246.96,0,0,1,11.617,25.129,120.111,120.111,0,0,1,6.223,21.727,88.139,88.139,0,0,1,1.446,15.169c0,1.807,0,3.208-.079,4.151v1.084a2,2,0,0,0,0,.37,1.762,1.762,0,0,0,.044-.37c0-.264.053-.626.088-1.075.088-.952.15-2.353.176-4.16a84.351,84.351,0,0,0-1.3-15.231,118.843,118.843,0,0,0-6.17-21.832,242.3,242.3,0,0,0-11.617-25.2l-3.376-6.443c-1.119-2.115-2.221-4.213-3.429-6.17a122.878,122.878,0,0,0-7.6-11.009c-2.591-3.376-5.165-6.5-7.6-9.387s-4.76-5.544-6.981-7.871a95.517,95.517,0,0,0-11.308-10.224c-1.419-1.093-2.547-1.9-3.323-2.45l-.881-.608Z" transform="translate(-89.457 -285.614)"/><path class="p" d="M136.044,331.567a5.288,5.288,0,0,0,.176-1.172c.079-.749.167-1.851.247-3.2.176-2.715.282-6.461.379-10.577s.264-7.871.476-10.577c.1-1.349.194-2.442.264-3.191a5.431,5.431,0,0,0,.062-1.181,4.955,4.955,0,0,0-.247,1.155c-.141.74-.282,1.833-.432,3.182-.3,2.7-.511,6.452-.617,10.577s-.167,7.774-.229,10.577c0,1.269-.07,2.345-.1,3.208a5.642,5.642,0,0,0,.018,1.2Z" transform="translate(-94.542 -287.203)"/><path class="p" d="M96.23,331.3a7.337,7.337,0,0,0,1.393.053c.881,0,2.195,0,3.79.079,3.191.088,7.6.37,12.454.881s9.219,1.208,12.34,1.763c1.578.273,2.847.538,3.72.705a7.645,7.645,0,0,0,1.375.229,6.752,6.752,0,0,0-1.331-.414c-.881-.238-2.124-.546-3.7-.881-3.138-.661-7.51-1.393-12.34-1.93a123.4,123.4,0,0,0-12.507-.749c-1.6,0-2.9,0-3.79.079A7.831,7.831,0,0,0,96.23,331.3Z" transform="translate(-89.825 -290.686)"/><path class="p" d="M156.58,371.722a2.055,2.055,0,0,0,.2-.441c.132-.353.291-.776.494-1.3.423-1.128.987-2.776,1.666-4.83,1.357-4.09,3.058-9.8,4.839-16.139s3.437-12.049,4.707-16.165c.617-2,1.137-3.649,1.516-4.874.159-.529.291-.97.405-1.322a1.649,1.649,0,0,0,.106-.476,1.764,1.764,0,0,0-.2.441c-.132.353-.3.776-.494,1.3-.423,1.128-1,2.776-1.666,4.821-1.357,4.1-3.059,9.81-4.848,16.147s-3.429,12.049-4.7,16.165l-1.516,4.865c-.159.538-.291.97-.405,1.331a1.6,1.6,0,0,0-.106.476Z" transform="translate(-96.982 -290.11)"/><path class="p" d="M103.11,365.14a1.94,1.94,0,0,0,.467.159l1.375.344,5.042,1.208c4.266,1.014,10.136,2.494,16.615,4.134s12.34,3.067,16.659,4c2.151.467,3.887.829,5.086,1.058l1.393.247a.25.25,0,1,0,.018-.1l-1.366-.344-5.05-1.208c-4.257-1.022-10.127-2.5-16.615-4.143s-12.34-3.067-16.659-4c-2.142-.467-3.878-.829-5.086-1.049L103.6,365.2a2.985,2.985,0,0,0-.494-.062Z" transform="translate(-90.641 -294.731)"/><path class="p" d="M144.36,424.87l1.2,32.445h34.965l2.768-32.445Z" transform="translate(-95.533 -301.814)"/><rect class="p" width="46.477" height="10.727" transform="translate(45.451 112.329)"/><path class="ab" d="M183.816,424.63c0,.123-8.761.22-19.567.22s-19.558-.1-19.558-.22,8.752-.22,19.558-.22S183.816,424.507,183.816,424.63Z" transform="translate(-95.572 -301.76)"/></g><g transform="translate(314.922 92.878)"><path class="p" d="M477.372,431.809,447.862,279.07h.044c-.062-.229-.115-.449-.167-.67h0c-4.53-17.963-8.109-22.37-8.109-22.37L395.472,257.2c-3.464,6.223-3.9,21.154-3.9,21.154-.467,1.833,6.329,150.421,6.329,150.421l18.3-.053,5-140.919,39.5,144.374Z" transform="translate(-353.411 -115.229)"/><path class="ab" d="M435.459,286.678c0,.141-4.874,1.542-10.974,3.12s-11.07,2.741-11.106,2.591,4.874-1.543,10.973-3.12S435.424,286.528,435.459,286.678Z" transform="translate(-356 -118.862)"/><path class="ab" d="M402.054,433.067c-.132,0-1.234-35.1-2.477-78.392s-2.142-78.445-2.018-78.445,1.234,35.089,2.477,78.392S402.177,433.067,402.054,433.067Z" transform="translate(-354.123 -117.624)"/><path class="ab" d="M408.287,430.431c-.132,0-.353-34.56-.5-77.176s-.159-77.185,0-77.185.353,34.551.494,77.185S408.41,430.422,408.287,430.431Z" transform="translate(-355.323 -117.605)"/><path class="ab" d="M416.8,273.69c.132,0-.353,35.027-1.084,78.225s-1.41,78.234-1.543,78.234.361-35.027,1.084-78.242S416.663,273.69,416.8,273.69Z" transform="translate(-356.092 -117.323)"/><path class="ab" d="M425.078,289.808a77.158,77.158,0,0,1-.626-8.462,80.691,80.691,0,0,1-.159-8.5,76.528,76.528,0,0,1,.617,8.47A79.257,79.257,0,0,1,425.078,289.808Z" transform="translate(-357.289 -117.223)"/><path class="ab" d="M469.519,433.7c-.123,0-8.814-35.952-19.514-80.367s-19.188-80.446-19.065-80.481,8.867,35.953,19.514,80.34S469.642,433.671,469.519,433.7Z" transform="translate(-358.083 -117.223)"/><path class="ab" d="M475.768,433.366c-.123,0-8.409-36.279-18.51-81.089s-18.192-81.16-18.069-81.186,8.409,36.27,18.51,81.089S475.892,433.339,475.768,433.366Z" transform="translate(-359.061 -117.015)"/><path class="ab" d="M480.21,432.46c-.132,0-7.333-36.076-16.094-80.622s-15.76-80.7-15.636-80.728,7.324,36.067,16.086,80.631S480.334,432.434,480.21,432.46Z" transform="translate(-360.163 -117.017)"/><path class="ac" d="M393.54,176.286l-29.386-25.34.573-36.138.564-.758c.309-.423.652-.881,1.066-1.384a6.832,6.832,0,0,1,1.692-1.49,10.454,10.454,0,0,1,2.512-1.234c.837-.185,1.031-1.287.326-1.587s-3.032.159-5.288,1.825-1.137-2.512-.758-4.046,1.3-6.311.881-6.787c-.555-.7-1.428-.212-1.763,1.322s-1.666,6.082-2.468,5.87,1.2-7.986,1.2-7.986.705-1.6-.22-1.877c-1.657-.5-3.164,7.933-3.288,8.708-.088.555-.97.353-.881-.238s2.177-7.712.494-8.241c-1.3-.405-1.313,6.9-2.556,8.162s.582-5.553-.67-5.888c-.467-.123-.829-.15-1.313,3.9a76.417,76.417,0,0,0-.881,8.435h0l-5.095,43.506,29.571,33.247Z" transform="translate(-348.28 -96.328)"/><path class="h" d="M399.317,452.327l-2.4,7.986,17.082-.2.758-8.55Z" transform="translate(-354.048 -138.417)"/><path class="p" d="M414.387,459.368a10.467,10.467,0,0,1-2.486.194c-1.534.044-3.658,0-6,0l-5.994-.194a11.976,11.976,0,0,1-2.486-.194,11,11,0,0,1,2.486-.185h6.011l5.993.185A12.409,12.409,0,0,1,414.387,459.368Z" transform="translate(-354.108 -139.297)"/><path class="p" d="M408.293,451.2a12.6,12.6,0,0,1,.07,3.6,12.339,12.339,0,0,1-.476,3.579,12.707,12.707,0,0,1-.07-3.605A13.716,13.716,0,0,1,408.293,451.2Z" transform="translate(-355.329 -138.375)"/><g class="ad" transform="translate(42.872 319.85)"><path class="g" d="M396.92,461.215l17.082-.2.141-1.622-16.932-.22-.291,1.851" transform="translate(-396.92 -459.17)"/></g><path class="ac" d="M413.744,97.7c-1.119.652,2.4,6.76.881,5.861s-3.429-7.933-4.575-7.228c-1.49.943,2.318,7.28,2.6,7.836s-.529.961-.758.45c-.326-.749-3.949-8.479-5.421-7.562-.82.5.273,1.869.273,1.869s3.922,7,3.217,7.4-3.173-3.623-3.9-5.042-1.692-1.639-2.054-.82c-.247.555,1.877,4.945,2.644,6.328s2.882,5.139.308,4.1-4.945-.881-5.553-.414-.141,1.49.723,1.454a10.453,10.453,0,0,1,2.75.546,6.8,6.8,0,0,1,2.01,1c.529.388.987.74,1.393,1.066l.74.591,14.72,36.3-13.389,31.131,20.731,7.721,9.316-41.17-21.365-40.069h0a77.8,77.8,0,0,0-3.023-7.933C414.511,97.338,414.158,97.462,413.744,97.7Z" transform="translate(-354.549 -96.284)"/><path class="h" d="M487.619,456.943l-.07-1.763-17.628.511.159,5.738h1.084c4.857.123,24.679.291,27.9-.705C502.6,459.658,487.619,456.943,487.619,456.943Z" transform="translate(-362.706 -138.847)"/><g class="ad" transform="translate(107.232 317.82)"><path class="g" d="M476.427,461.391a5.641,5.641,0,0,0-2.344-3.42,6.241,6.241,0,0,0-4.143-1.075l.141,4.566Z" transform="translate(-469.94 -456.867)"/></g><g class="ad" transform="translate(107.364 319.7)"><path class="g" d="M494.981,459s5.289,1.26,4.645,2.08-20.678,1.34-29.536.881V461.6l23.384-.432S493.958,459,494.981,459Z" transform="translate(-470.09 -459)"/></g><path class="p" d="M469.79,461.766h1.19l3.2.044c2.7,0,6.425,0,10.577-.106s7.836-.273,10.577-.432l3.182-.212.881-.07h-.89l-3.191.141c-2.7.123-6.417.273-10.533.379s-7.836.141-10.533.159h-4.081Z" transform="translate(-362.69 -139.536)"/><path class="p" d="M496.637,461.33a7,7,0,0,1,.555-1.437,7.133,7.133,0,0,1,1.058-1.163,2.38,2.38,0,0,0-1.243,1.066A2.159,2.159,0,0,0,496.637,461.33Z" transform="translate(-365.872 -139.268)"/><path class="p" d="M490.679,458.874a2.037,2.037,0,0,0,.538-.643c.247-.388.406-.714.353-.74s-.291.264-.538.643S490.635,458.821,490.679,458.874Z" transform="translate(-365.167 -139.121)"/><path class="p" d="M489.049,458.182a2.756,2.756,0,0,0,.6-.4c.291-.256.5-.511.467-.546s-.317.141-.608.4S489.005,458.138,489.049,458.182Z" transform="translate(-364.974 -139.09)"/><path class="p" d="M488,456.573a2.31,2.31,0,0,0,.881.079,2.1,2.1,0,0,0,.881-.106,2.008,2.008,0,0,0-.881-.088,2.283,2.283,0,0,0-.881.115Z" transform="translate(-364.85 -138.997)"/><path class="p" d="M487.59,455.369a2.768,2.768,0,0,0,2.08.088,5.278,5.278,0,0,0-1.04-.044,5.447,5.447,0,0,0-1.04-.044Z" transform="translate(-364.801 -138.868)"/><path class="p" d="M491.31,457.23a3.613,3.613,0,0,0,1.128,0,7.6,7.6,0,0,0,1.19-.282,3.366,3.366,0,0,0,.679-.282.529.529,0,0,0,.273-.335.4.4,0,0,0-.185-.414,2.168,2.168,0,0,0-2.538.635,1.857,1.857,0,0,0-.353.705.676.676,0,0,0,0,.291,2.881,2.881,0,0,1,.485-.881,2.035,2.035,0,0,1,.952-.6,1.877,1.877,0,0,1,1.349.044c.176.123.114.317-.079.432a3.947,3.947,0,0,1-.626.273,8.806,8.806,0,0,1-1.155.309A8.716,8.716,0,0,0,491.31,457.23Z" transform="translate(-365.243 -138.913)"/><path class="p" d="M491.436,457.211a.987.987,0,0,0,.115-.732,1.763,1.763,0,0,0-.335-.758,1.137,1.137,0,0,0-.952-.511.406.406,0,0,0-.335.494,1.041,1.041,0,0,0,.2.458,3.041,3.041,0,0,0,.555.626,1.763,1.763,0,0,0,.652.406s-.229-.185-.546-.5a4.2,4.2,0,0,1-.494-.617c-.159-.22-.282-.617,0-.67a1.014,1.014,0,0,1,.758.423,1.709,1.709,0,0,1,.344.679A3.278,3.278,0,0,1,491.436,457.211Z" transform="translate(-365.077 -138.85)"/><path class="p" d="M470,456.779a7.248,7.248,0,0,1,1.3,0,5.879,5.879,0,0,1,2.865,1A5.288,5.288,0,0,1,476,460.067a11.636,11.636,0,0,1,.37,1.155s0-.123,0-.335a4.146,4.146,0,0,0-.22-.881,5.068,5.068,0,0,0-1.851-2.389,5.713,5.713,0,0,0-2.979-.987,5.05,5.05,0,0,0-.97.044A.883.883,0,0,0,470,456.779Z" transform="translate(-362.715 -139.018)"/><path class="p" d="M479.76,460.065a10.578,10.578,0,0,0,2.565.167,10.378,10.378,0,0,0,2.565-.256,22.6,22.6,0,0,0-2.565.062C480.915,460.1,479.76,459.995,479.76,460.065Z" transform="translate(-363.873 -139.413)"/><path class="p" d="M475.849,460.179c-.044.044.106.22.229.467s.194.45.256.45.079-.264-.07-.538S475.884,460.135,475.849,460.179Z" transform="translate(-363.408 -139.439)"/><path class="p" d="M474.329,458.509c-.044.044.079.212.264.379s.37.264.414.229-.079-.212-.264-.37S474.364,458.474,474.329,458.509Z" transform="translate(-363.228 -139.241)"/><path class="p" d="M472.2,457.777c0,.053.247.053.511.123s.45.2.494.167-.115-.264-.432-.353S472.182,457.733,472.2,457.777Z" transform="translate(-362.976 -139.143)"/><path class="p" d="M470.69,457.456c0,.053.079.141.229.185s.282.044.3,0-.079-.132-.229-.176S470.708,457.412,470.69,457.456Z" transform="translate(-362.797 -139.113)"/><path class="f" d="M436.961,205.288l-4.795,24.953c10,13.917,10.912,25.86,10.912,25.86l-53.81,6.293c0-9.748,7.1-25.508,7.1-25.508L387.726,207.4l-15.636-20.36L387.6,173.055c-.291.784,14.552,9.378,14.552,9.378l21.321.185a17.709,17.709,0,0,1,3.067.608l10.418-27.006a37.9,37.9,0,0,1,7.518,26.363c-1.684,17.046-3.72,12.807-7.518,22.705" transform="translate(-351.104 -103.392)"/><path class="o" d="M410.79,236.76a.927.927,0,0,1-.194.467,4.749,4.749,0,0,1-.811,1.111,2.882,2.882,0,0,1-1.9.881,2.239,2.239,0,0,1-1.243-.317c-.379-.22-.714-.511-1.058-.749a3.182,3.182,0,0,0-2.159-.635,3.244,3.244,0,0,0-1.763.661,5.883,5.883,0,0,0-1.137,1.375,2.371,2.371,0,0,1,.934-1.622,3.314,3.314,0,0,1,1.9-.881,3.525,3.525,0,0,1,2.468.679c.714.546,1.313,1.067,2.018,1.031a2.732,2.732,0,0,0,1.684-.714C410.375,237.359,410.719,236.707,410.79,236.76Z" transform="translate(-354.477 -112.943)"/><path class="o" d="M440.983,255.68a.985.985,0,0,1-.185.467,4.84,4.84,0,0,1-.82,1.111,2.865,2.865,0,0,1-1.895.881,2.195,2.195,0,0,1-1.243-.326,11.7,11.7,0,0,1-1.049-.74,3.235,3.235,0,0,0-3.9,0,6.17,6.17,0,0,0-1.137,1.375,2.415,2.415,0,0,1,.934-1.622,3.315,3.315,0,0,1,1.913-.837,3.526,3.526,0,0,1,2.459.679c.714.538,1.322,1.066,2.018,1.022a2.644,2.644,0,0,0,1.683-.705C440.569,256.279,440.913,255.627,440.983,255.68Z" transform="translate(-358.06 -115.187)"/><path class="o" d="M422.679,225.82a1.871,1.871,0,0,1,.37.335,5.077,5.077,0,0,1,.767,1.155A2.917,2.917,0,0,1,424,229.4a2.256,2.256,0,0,1-.74,1.058,11.947,11.947,0,0,1-1.066.723,3.217,3.217,0,0,0-1.34,1.763,3.094,3.094,0,0,0,0,1.86,6.021,6.021,0,0,0,.881,1.551,2.439,2.439,0,0,1-1.207-1.446,3.314,3.314,0,0,1-.123-2.08,3.525,3.525,0,0,1,1.5-2.071c.749-.476,1.454-.881,1.657-1.534a2.688,2.688,0,0,0-.079-1.833C423.049,226.419,422.556,225.864,422.679,225.82Z" transform="translate(-356.82 -111.646)"/><path class="o" d="M426,251.948v-.5a4.963,4.963,0,0,1,.326-1.34,2.944,2.944,0,0,1,1.419-1.551,2.213,2.213,0,0,1,1.269-.168,11.58,11.58,0,0,1,1.26.291,3.217,3.217,0,0,0,3.6-1.5,5.915,5.915,0,0,0,.538-1.71,2.424,2.424,0,0,1-.247,1.86,3.331,3.331,0,0,1-1.454,1.5,3.525,3.525,0,0,1-2.538.3,3.376,3.376,0,0,0-2.256-.185,2.645,2.645,0,0,0-1.287,1.3A11.9,11.9,0,0,0,426,251.948Z" transform="translate(-357.497 -113.976)"/><path class="o" d="M429.82,267.046a1.814,1.814,0,0,1,.273-.423,5.024,5.024,0,0,1,1.022-.934,2.935,2.935,0,0,1,2.036-.511,2.274,2.274,0,0,1,1.155.573c.326.291.591.635.881.943a3.261,3.261,0,0,0,1.992,1.049,3.2,3.2,0,0,0,1.833-.309,5.712,5.712,0,0,0,1.393-1.128c.044,0-.194.776-1.234,1.41a3.314,3.314,0,0,1-2.045.441A3.525,3.525,0,0,1,434.853,267c-.591-.67-1.084-1.3-1.763-1.4a2.706,2.706,0,0,0-1.763.361C430.34,266.535,429.873,267.107,429.82,267.046Z" transform="translate(-357.95 -116.311)"/><path class="o" d="M396.93,268.112a1.9,1.9,0,0,1,.37-.335,4.776,4.776,0,0,1,1.225-.643,2.873,2.873,0,0,1,2.1,0,2.168,2.168,0,0,1,.97.837,11.033,11.033,0,0,1,.617,1.137,3.253,3.253,0,0,0,1.666,1.516,3.129,3.129,0,0,0,1.851.167,6.276,6.276,0,0,0,1.631-.732,2.415,2.415,0,0,1-1.551,1.075,3.305,3.305,0,0,1-2.089-.088,3.526,3.526,0,0,1-1.9-1.7c-.405-.793-.723-1.534-1.366-1.807a2.645,2.645,0,0,0-1.824-.1C397.565,267.759,396.992,268.191,396.93,268.112Z" transform="translate(-354.05 -116.522)"/><path class="o" d="M430.94,218.422a1.858,1.858,0,0,1,.476-.167,4.971,4.971,0,0,1,1.384-.106,2.918,2.918,0,0,1,1.913.881,2.292,2.292,0,0,1,.564,1.163c.079.432.07.881.115,1.287a3.243,3.243,0,0,0,.881,2.054,3.2,3.2,0,0,0,1.639.881,5.551,5.551,0,0,0,1.763,0,2.336,2.336,0,0,1-1.842.353,3.384,3.384,0,0,1-1.877-.881,3.525,3.525,0,0,1-1.075-2.318,3.341,3.341,0,0,0-.538-2.195,2.644,2.644,0,0,0-1.631-.82A17.493,17.493,0,0,0,430.94,218.422Z" transform="translate(-358.083 -110.735)"/><path class="o" d="M448.734,172.92a1.653,1.653,0,0,1,.388.326,4.866,4.866,0,0,1,.82,1.111,2.909,2.909,0,0,1,.282,2.08,2.265,2.265,0,0,1-.688,1.084,11.662,11.662,0,0,1-1.031.776,3.253,3.253,0,0,0-1.26,1.869,3.174,3.174,0,0,0,.106,1.86,5.289,5.289,0,0,0,.97,1.5c0,.044-.749-.273-1.269-1.375a3.332,3.332,0,0,1-.22-2.08,3.526,3.526,0,0,1,1.393-2.133c.732-.52,1.419-.934,1.6-1.613a2.741,2.741,0,0,0-.167-1.825C449.157,173.5,448.645,172.991,448.734,172.92Z" transform="translate(-359.958 -105.372)"/><path class="o" d="M419.32,212.4a1.7,1.7,0,0,1,.476-.167,5,5,0,0,1,1.375-.1,2.847,2.847,0,0,1,1.913.881,2.168,2.168,0,0,1,.564,1.155,12.88,12.88,0,0,1,.115,1.287,3.235,3.235,0,0,0,2.556,2.944,6.171,6.171,0,0,0,1.763,0,2.415,2.415,0,0,1-1.842.344,3.332,3.332,0,0,1-1.877-.881,3.57,3.57,0,0,1-1.084-2.318,3.393,3.393,0,0,0-.529-2.195,2.644,2.644,0,0,0-1.639-.82C420.043,212.332,419.32,212.491,419.32,212.4Z" transform="translate(-356.705 -110.022)"/><path class="o" d="M441.09,186.242a1.7,1.7,0,0,1,.476-.167,4.97,4.97,0,0,1,1.384-.106,2.917,2.917,0,0,1,1.913.881,2.213,2.213,0,0,1,.555,1.163,10.724,10.724,0,0,1,.115,1.287,3.252,3.252,0,0,0,.926,2.054,3.208,3.208,0,0,0,1.631.881,5.622,5.622,0,0,0,1.763,0,2.336,2.336,0,0,1-1.842.353,3.358,3.358,0,0,1-1.877-.881,3.526,3.526,0,0,1-1.075-2.318,3.393,3.393,0,0,0-.538-2.195,2.644,2.644,0,0,0-1.639-.82C441.813,186.163,441.1,186.33,441.09,186.242Z" transform="translate(-359.287 -106.919)"/><path class="o" d="M396.79,218.72a1.11,1.11,0,0,1,.476.159,4.757,4.757,0,0,1,1.155.758,2.917,2.917,0,0,1,1,1.851,2.283,2.283,0,0,1-.264,1.26c-.2.388-.467.732-.7,1.084a3.261,3.261,0,0,0-.52,2.195,3.191,3.191,0,0,0,.749,1.7,5.738,5.738,0,0,0,1.428,1.066,2.406,2.406,0,0,1-1.666-.881,3.332,3.332,0,0,1-.934-1.869,3.526,3.526,0,0,1,.564-2.494c.5-.74,1-1.366.881-2.062a2.706,2.706,0,0,0-.793-1.648C397.407,219.1,396.746,218.79,396.79,218.72Z" transform="translate(-354.033 -110.804)"/><path class="o" d="M386.11,191.1a1.855,1.855,0,0,1,.476-.176,4.759,4.759,0,0,1,1.366-.168,2.918,2.918,0,0,1,1.957.767,2.308,2.308,0,0,1,.608,1.137c.1.432.115.881.168,1.278a3.226,3.226,0,0,0,1.014,2.01,3.146,3.146,0,0,0,1.666.82,5.748,5.748,0,0,0,1.763-.106,2.38,2.38,0,0,1-1.825.432,3.394,3.394,0,0,1-1.921-.829A3.526,3.526,0,0,1,390.209,194a3.419,3.419,0,0,0-.635-2.177,2.644,2.644,0,0,0-1.666-.74C386.833,190.971,386.119,191.192,386.11,191.1Z" transform="translate(-352.766 -107.488)"/><path class="o" d="M387.7,179.552a2.064,2.064,0,0,1,.467-.185,5.176,5.176,0,0,1,1.375-.168,2.891,2.891,0,0,1,1.948.776,2.2,2.2,0,0,1,.608,1.137,10.84,10.84,0,0,1,.176,1.278,3.235,3.235,0,0,0,.978,2.01,3.173,3.173,0,0,0,1.675.82,6.089,6.089,0,0,0,1.763-.106,2.442,2.442,0,0,1-1.833.423,3.27,3.27,0,0,1-1.913-.82,3.57,3.57,0,0,1-1.181-2.265,3.35,3.35,0,0,0-.626-2.177,2.7,2.7,0,0,0-1.666-.749C388.423,179.447,387.709,179.641,387.7,179.552Z" transform="translate(-352.955 -106.117)"/><path class="o" d="M387.42,206.632a2.06,2.06,0,0,1,.467-.185,5.175,5.175,0,0,1,1.375-.167,2.926,2.926,0,0,1,1.948.776,2.2,2.2,0,0,1,.608,1.137,10.871,10.871,0,0,1,.176,1.278,3.235,3.235,0,0,0,1,2.01,3.173,3.173,0,0,0,1.675.82,5.959,5.959,0,0,0,1.763-.106,2.406,2.406,0,0,1-1.824.423,3.27,3.27,0,0,1-1.913-.82,3.525,3.525,0,0,1-1.181-2.265,3.349,3.349,0,0,0-.626-2.177,2.715,2.715,0,0,0-1.675-.749C388.143,206.527,387.429,206.721,387.42,206.632Z" transform="translate(-352.922 -109.329)"/><path class="o" d="M379.73,189a1.068,1.068,0,0,1,.476.167,4.934,4.934,0,0,1,1.155.758,2.883,2.883,0,0,1,.987,1.842,2.2,2.2,0,0,1-.256,1.26,12.223,12.223,0,0,1-.7,1.093,3.2,3.2,0,0,0-.529,2.186,3.164,3.164,0,0,0,.749,1.7,6.167,6.167,0,0,0,1.437,1.075,2.4,2.4,0,0,1-1.675-.881,3.3,3.3,0,0,1-.926-1.869,3.526,3.526,0,0,1,.555-2.486,3.464,3.464,0,0,0,.926-2.071,2.715,2.715,0,0,0-.8-1.648A9.72,9.72,0,0,0,379.73,189Z" transform="translate(-352.009 -107.279)"/><path class="o" d="M429.22,233.283a1.932,1.932,0,0,1,.476-.159,4.971,4.971,0,0,1,1.384-.106,2.918,2.918,0,0,1,1.913.881,2.221,2.221,0,0,1,.555,1.155,11.044,11.044,0,0,1,.115,1.287,3.208,3.208,0,0,0,.925,2.054,3.085,3.085,0,0,0,1.631.881,5.816,5.816,0,0,0,1.763,0,2.38,2.38,0,0,1-1.842.353,3.358,3.358,0,0,1-1.877-.881,3.526,3.526,0,0,1-1.075-2.318,3.42,3.42,0,0,0-.538-2.2,2.644,2.644,0,0,0-1.639-.811C429.907,233.213,429.229,233.371,429.22,233.283Z" transform="translate(-357.879 -112.498)"/><path class="o" d="M400.73,258.976a1.233,1.233,0,0,1,.141-.485,4.868,4.868,0,0,1,.714-1.19,2.909,2.909,0,0,1,1.763-1.066,2.274,2.274,0,0,1,1.269.211,12.443,12.443,0,0,1,1.119.652,3.252,3.252,0,0,0,2.212.432,3.138,3.138,0,0,0,1.666-.82,5.855,5.855,0,0,0,1.014-1.481,2.379,2.379,0,0,1-.784,1.71,3.3,3.3,0,0,1-1.824,1,3.525,3.525,0,0,1-2.512-.45,3.376,3.376,0,0,0-2.107-.837,2.645,2.645,0,0,0-1.613.881C401.091,258.341,400.8,259.02,400.73,258.976Z" transform="translate(-354.5 -115.134)"/><path class="o" d="M418.71,266.851a1.736,1.736,0,0,1-.238-.449,5.13,5.13,0,0,1-.335-1.34,2.918,2.918,0,0,1,.529-2.027,2.23,2.23,0,0,1,1.058-.74,10.786,10.786,0,0,1,1.243-.326,3.252,3.252,0,0,0,1.877-1.243,3.173,3.173,0,0,0,.608-1.763,5.95,5.95,0,0,0-.317-1.763,2.415,2.415,0,0,1,.643,1.763,3.27,3.27,0,0,1-.591,2,3.525,3.525,0,0,1-2.107,1.445c-.881.2-1.666.326-2.08.881a2.715,2.715,0,0,0-.538,1.763C418.517,266.146,418.79,266.825,418.71,266.851Z" transform="translate(-356.563 -115.367)"/><path class="o" d="M408.17,247.436a2.038,2.038,0,0,1,.335-.379,4.629,4.629,0,0,1,1.128-.8,2.918,2.918,0,0,1,2.08-.247,2.256,2.256,0,0,1,1.075.705,12.112,12.112,0,0,1,.758,1.049,3.226,3.226,0,0,0,1.842,1.287,3.191,3.191,0,0,0,1.86-.079,5.888,5.888,0,0,0,1.525-.943c.044,0-.291.749-1.4,1.252a3.358,3.358,0,0,1-2.08.176,3.526,3.526,0,0,1-2.115-1.428c-.5-.74-.881-1.428-1.587-1.613a2.644,2.644,0,0,0-1.825.141C408.761,247,408.223,247.515,408.17,247.436Z" transform="translate(-355.383 -114.029)"/><path class="o" d="M404.65,224.575a1.73,1.73,0,0,1,.317-.388,4.707,4.707,0,0,1,1.1-.829,2.9,2.9,0,0,1,2.08-.308,2.212,2.212,0,0,1,1.093.679c.3.326.529.7.784,1.022a3.235,3.235,0,0,0,1.877,1.243,3.164,3.164,0,0,0,1.86-.123,5.783,5.783,0,0,0,1.49-.978c.044,0-.264.749-1.366,1.278a3.288,3.288,0,0,1-2.071.238,3.526,3.526,0,0,1-2.151-1.375c-.529-.723-.952-1.41-1.631-1.569a2.644,2.644,0,0,0-1.816.185C405.223,224.126,404.7,224.646,404.65,224.575Z" transform="translate(-354.965 -111.309)"/><path class="p" d="M405.571,137.983c-4.478,2.027-6.267,6.963-6.708,11.458s0,9.272-1.763,13.521c-1.481,3.587-4.513,6.857-4.169,10.691.256,2.856,2.38,5.377,2.776,8.232.749,5.518-5.1,10.453-4.046,15.936.485,2.512,2.415,4.663,4.716,6.17a33.494,33.494,0,0,0,7.615,3.279c3.526,1.181,7.518,2.353,11.009,1.119,3.1-1.111,5.218-3.94,8.426-4.751s6.364.494,9.581.564a10.762,10.762,0,0,0,7.933-3.014,7.148,7.148,0,0,0,1.639-7.536c-1.437-3.526-5.844-5.817-6.522-9.519-.617-3.358,2.115-6.672,1.252-9.986-.961-3.693-5.9-5.632-7.051-9.264-1.437-4.354,3.147-9.008,1.357-13.221-1.049-2.5-4.063-4.09-4.874-6.655-.555-1.763.044-3.667-.361-5.465-.688-3.1-4.178-5.1-7.58-5.808a17.778,17.778,0,0,0-12.34,1.763,12.543,12.543,0,0,0-6.417,9.5" transform="translate(-353.41 -100.676)"/><path class="p" d="M415,134.867a15.063,15.063,0,0,1,20.149,11.141c.688,3.455.176,7.2,1.684,10.383,1.631,3.464,5.465,5.844,6.038,9.625s-2.16,6.981-2.732,10.639c-.591,3.8,1.2,7.651.767,11.458a9.969,9.969,0,0,1-17.32,5.544" transform="translate(-356.193 -100.742)"/><path class="p" d="M428.316,142.8a8.814,8.814,0,0,1,12.066-7.051,6.8,6.8,0,0,1,3.482,3,7.377,7.377,0,0,1,.326,5.438,9.854,9.854,0,0,1-5.377,6.346,8,8,0,0,1-8.109-1,6.751,6.751,0,0,1-1.9-7.765" transform="translate(-357.768 -100.887)"/><path class="h" d="M434.7,151.018a2.317,2.317,0,0,1-.8.115,16.624,16.624,0,0,1-2.212.044,9.035,9.035,0,0,1-3.244-.705,5.527,5.527,0,0,1-2.865-2.873,6.461,6.461,0,0,1-.353-4.054,7.466,7.466,0,0,1,1.5-2.97,8.047,8.047,0,0,1,1.631-1.516,2.123,2.123,0,0,1,.714-.388,15.72,15.72,0,0,0-2.089,2.107,7.618,7.618,0,0,0-1.349,2.856,6.311,6.311,0,0,0,.37,3.781,5.289,5.289,0,0,0,2.644,2.644,9.15,9.15,0,0,0,3.085.758C433.5,151,434.7,150.939,434.7,151.018Z" transform="translate(-357.385 -101.311)"/><path class="ab" d="M435.406,151.136a6.93,6.93,0,0,0-.952,2.08,7.934,7.934,0,0,0-.167,2.724,14.2,14.2,0,0,0,.881,3.526,40.17,40.17,0,0,0,1.957,4.072,19.394,19.394,0,0,1,1.869,4.945,7.827,7.827,0,0,1-1.014,5.888,7.933,7.933,0,0,1-5.218,3.623l-.282.062v-.291c.062-1.111.132-2.283.2-3.482l.441.1a4.477,4.477,0,0,1-1.287,1.763,4.751,4.751,0,0,1-4.072,1.049l-.282-.062.132-.264a21.214,21.214,0,0,0,2.274-6.108,7.855,7.855,0,0,0-.088-3.014,7.29,7.29,0,0,0-1.243-2.644c-1.111-1.551-2.5-2.8-3.464-4.257a12.411,12.411,0,0,1-1.851-4.407,12.8,12.8,0,0,1,.405-6.8,9.178,9.178,0,0,1,1.084-2.239,22.448,22.448,0,0,0-.925,2.292,12.93,12.93,0,0,0-.264,6.69,12.216,12.216,0,0,0,1.851,4.284c.943,1.4,2.336,2.644,3.526,4.222a7.766,7.766,0,0,1,1.322,2.741,8.426,8.426,0,0,1,.106,3.191,21.571,21.571,0,0,1-2.3,6.24l-.15-.317a4.346,4.346,0,0,0,3.675-.961,4.064,4.064,0,0,0,1.155-1.578l.52-1.26-.079,1.357c-.07,1.2-.141,2.371-.212,3.526l-.264-.238a7.562,7.562,0,0,0,4.936-3.42,7.413,7.413,0,0,0,.97-5.474,19.389,19.389,0,0,0-1.763-4.857,42.971,42.971,0,0,1-1.922-4.125,13.814,13.814,0,0,1-.881-3.64,7.933,7.933,0,0,1,.238-2.794,5.623,5.623,0,0,1,.74-1.6A3.675,3.675,0,0,1,435.406,151.136Z" transform="translate(-357.137 -102.345)"/><path class="ab" d="M439.473,135.71a1.967,1.967,0,0,1,.238.688,9.785,9.785,0,0,1,.264,1.957,11.511,11.511,0,0,1-6.258,10.744,10.1,10.1,0,0,1-1.833.732,2.045,2.045,0,0,1-.714.132c0-.079.978-.335,2.389-1.155a11.961,11.961,0,0,0,6.1-10.453C439.667,136.724,439.394,135.728,439.473,135.71Z" transform="translate(-358.11 -100.959)"/><path class="ab" d="M436.632,147.3a3.94,3.94,0,0,1-1.825.062,7.88,7.88,0,0,1-6.514-5.447,4.009,4.009,0,0,1-.256-1.816c.079,0,.167.679.564,1.71a8.4,8.4,0,0,0,6.258,5.236C435.935,147.257,436.632,147.222,436.632,147.3Z" transform="translate(-357.737 -101.48)"/><path class="ab" d="M416.378,208.491a10.814,10.814,0,0,0,2.821-1.666,13.133,13.133,0,0,0,4.187-7.686,19.391,19.391,0,0,0-2.574-12.727A63.976,63.976,0,0,0,416.255,180a20.6,20.6,0,0,1-2.159-3.623,12.067,12.067,0,0,1-1.066-4.222,18.721,18.721,0,0,1,1.692-8.338c1.058-2.556,2.406-4.839,3.526-7.1a25.317,25.317,0,0,0,2.389-6.646,16.3,16.3,0,0,0-4.143-13.962,19.4,19.4,0,0,0-2.538-2.089l.194.1.546.326a13.083,13.083,0,0,1,1.921,1.534,16.191,16.191,0,0,1,4.248,7.933,16.367,16.367,0,0,1,.15,6.249,25.214,25.214,0,0,1-2.389,6.769c-1.093,2.283-2.424,4.566-3.464,7.051a18.431,18.431,0,0,0-1.648,8.135,14.508,14.508,0,0,0,3.129,7.615,62.432,62.432,0,0,1,4.566,6.47,19.578,19.578,0,0,1,2.521,12.992,13.151,13.151,0,0,1-4.407,7.765,9.56,9.56,0,0,1-2.115,1.26l-.608.2Z" transform="translate(-355.958 -100.76)"/><path class="ab" d="M407.545,209.465s-.053,0-.15-.123a5.717,5.717,0,0,1-.405-.405,6.84,6.84,0,0,1-1.119-1.913,7.756,7.756,0,0,1-.405-3.473,7.052,7.052,0,0,1,1.957-4.178c1.252-1.26,3.1-1.877,4.786-2.891a5.6,5.6,0,0,0,2.107-2.054,5.121,5.121,0,0,0,.529-3.076,11,11,0,0,0-3.147-6.046c-1.657-1.763-3.675-3.4-5.165-5.615a9.247,9.247,0,0,1-1.49-3.623,11.947,11.947,0,0,1,0-3.8,31.3,31.3,0,0,1,2.08-6.8,27.783,27.783,0,0,0,1.833-6.082,10.779,10.779,0,0,0-.52-5.4,7.174,7.174,0,0,0-1.216-2.036,11.957,11.957,0,0,0-1.578-1.445,23.732,23.732,0,0,1-2.688-2.221,4.2,4.2,0,0,1-1.093-1.921,2.2,2.2,0,0,1-.071-.767,2.648,2.648,0,0,0,.159.749,4.284,4.284,0,0,0,1.137,1.763,24.119,24.119,0,0,0,2.715,2.151,11.691,11.691,0,0,1,1.639,1.454,7.439,7.439,0,0,1,1.3,2.107,10.974,10.974,0,0,1,.59,5.579,27.444,27.444,0,0,1-1.763,6.17,30.85,30.85,0,0,0-2.027,6.716,11.573,11.573,0,0,0,0,3.658,8.876,8.876,0,0,0,1.419,3.455c1.428,2.124,3.429,3.746,5.112,5.553a11.459,11.459,0,0,1,3.244,6.311,5.6,5.6,0,0,1-.591,3.314,6.1,6.1,0,0,1-2.274,2.221c-1.763,1.022-3.526,1.613-4.768,2.794a6.8,6.8,0,0,0-1.922,3.984,7.1,7.1,0,0,0,1.825,5.879Z" transform="translate(-354.625 -102.131)"/><path class="ab" d="M435.216,205.459a1.765,1.765,0,0,1-.238-.414,4.65,4.65,0,0,1-.441-1.278,7.994,7.994,0,0,1-.123-2.142,21.038,21.038,0,0,1,.441-2.794c.212-1.014.476-2.124.643-3.323a14.244,14.244,0,0,0,.115-1.86,9.966,9.966,0,0,0-.309-1.939,10.25,10.25,0,0,0-2.036-3.667,36.5,36.5,0,0,0-3.226-3.3,41.411,41.411,0,0,1-3.27-3.323,12.823,12.823,0,0,1-2.265-3.746,13.67,13.67,0,0,1-.353-7.316,32.522,32.522,0,0,1,1.34-4.76c.194-.555.353-.978.467-1.26a1.86,1.86,0,0,1,.2-.432,2.262,2.262,0,0,1-.115.458c-.1.344-.229.767-.388,1.287a39.686,39.686,0,0,0-1.181,4.768,13.512,13.512,0,0,0,.423,7.113c.952,2.556,3.138,4.724,5.456,6.875a37.321,37.321,0,0,1,3.252,3.341,10.577,10.577,0,0,1,2.1,3.843,9.25,9.25,0,0,1,.3,2.036,13.642,13.642,0,0,1-.132,1.93c-.185,1.225-.476,2.327-.705,3.341a23.083,23.083,0,0,0-.5,2.75,8.4,8.4,0,0,0,.044,2.089,11.53,11.53,0,0,0,.5,1.719Z" transform="translate(-357.238 -104.304)"/></g></g></g></svg>