<svg xmlns="http://www.w3.org/2000/svg" width="61.309" height="61.309" viewBox="0 0 61.309 61.309"><defs><style>.a{fill:#eeae1d;}</style></defs><path class="a" d="M54.47,51.538l-1.007-.4A30.655,30.655,0,0,0,56,13.41a.959.959,0,0,0-.153-.22A30.74,30.74,0,0,0,50.506,7.3.968.968,0,0,0,49.252,8.77a28.826,28.826,0,0,1,4.381,4.658,42.7,42.7,0,0,1-7.254,2.015A34.584,34.584,0,0,0,43.594,9.18,22.175,22.175,0,0,0,38.569,3.04a28.55,28.55,0,0,1,8.141,3.8.968.968,0,0,0,1.084-1.6A30.655,30.655,0,0,0,7.858,51.147l-.995.39a5.5,5.5,0,0,0-3.481,5.335V60.34a.969.969,0,0,0,.968.969H18.6a.959.959,0,0,0,.137-.011.962.962,0,0,0,.137.011h3.939a.968.968,0,1,0,0-1.936H19.842V56a4.731,4.731,0,0,1,2.907-4.62l.045-.016,4.714-1.846c.01.011.02.023.031.033l2.505,2.44a.969.969,0,0,0,.675.275h.015a.967.967,0,0,0,.682-.3l2.406-2.5,4.708,1.888.046.017A4.732,4.732,0,0,1,41.488,56v3.371H25.838a.968.968,0,1,0,0,1.936H56.979a.974.974,0,0,0,.968-.975V56.871A5.5,5.5,0,0,0,54.47,51.538Zm-2.929-1.175-.954-.383V49.43a5.062,5.062,0,0,0,2.25-2.791,2.734,2.734,0,0,0,1.512-4.847v-1.72a6.532,6.532,0,0,0-5.7-6.469c.037-.656.062-1.318.074-1.98H59.355A28.582,28.582,0,0,1,51.541,50.363Zm-3.495-2.179h-.883a3.105,3.105,0,0,1-3.1-3.1V42.521h0a10.008,10.008,0,0,0,5.215-2.015A4.354,4.354,0,0,0,51.149,42.3v2.782A3.106,3.106,0,0,1,48.046,48.184Zm.6,1.9v.537l-1.079,1.119-1.014-.987v-.669a5.065,5.065,0,0,0,.6.038h.883A5.039,5.039,0,0,0,48.651,50.083ZM43.1,40.648h0c-.033,0-.066,0-.1.005l-.031,0c-.022,0-.044.006-.065.01l-.043.011-.05.013-.031.011v-.631a4.593,4.593,0,0,1,4.588-4.588h.463a4.593,4.593,0,0,1,4.587,4.588v.623l-.055-.015-.027-.008c-1.35-.307-1.791-2.108-1.794-2.122a.968.968,0,0,0-1.729-.353C47.056,40.62,43.148,40.648,43.1,40.648Zm9.988,3.917v-1.3a.8.8,0,0,1,0,1.3Zm1.685-29.507a28.668,28.668,0,0,1,4.586,14.629H48.726A48.863,48.863,0,0,0,46.952,17.3,43.2,43.2,0,0,0,54.769,15.058Zm-7.98,14.629H36.878A7.9,7.9,0,0,0,31.623,27.1V18.777a87.28,87.28,0,0,0,13.419-1.129A46.8,46.8,0,0,1,46.789,29.687ZM38.25,39.8a1.246,1.246,0,0,1-.908,1.2V38.6A1.247,1.247,0,0,1,38.25,39.8ZM31.623,1.99c3.852.411,7.477,3.27,10.294,8.157a32.467,32.467,0,0,1,2.537,5.642,85.78,85.78,0,0,1-12.831,1.053V1.99Zm-.614,27.022a5.987,5.987,0,0,1,5.98,5.98v1.183l-.02-.015-.043-.032-.035-.023-.044-.027-.042-.022-.041-.02-.052-.02L36.676,36l-.06-.017-.027-.008c-1.839-.418-2.421-2.816-2.426-2.837a.968.968,0,0,0-1.729-.353c-2.267,3.134-7.274,3.166-7.341,3.166h0c-.033,0-.066,0-.1,0l-.03,0c-.022,0-.044.006-.066.01l-.041.011L24.8,36l-.046.017-.043.015-.051.025-.033.016c-.017.009-.034.02-.051.03l-.029.018c-.016.011-.03.022-.045.034l-.029.022-.026.023V34.992a5.987,5.987,0,0,1,5.98-5.98h.579Zm-16.489.675a46.8,46.8,0,0,1,1.748-12.04,87.373,87.373,0,0,0,13.418,1.131v8.334a7.9,7.9,0,0,0-5.132,2.581.99.99,0,0,0-.107-.006H14.52Zm9.6,8.9V41a1.243,1.243,0,0,1,0-2.415Zm5.564-36.6V16.841a85.831,85.831,0,0,1-12.83-1.056,32.48,32.48,0,0,1,2.536-5.639C22.21,5.26,25.834,2.4,29.687,1.99ZM22.729,3.049A22.192,22.192,0,0,0,17.715,9.18a34.582,34.582,0,0,0-2.784,6.262,42.792,42.792,0,0,1-7.243-2.01A28.814,28.814,0,0,1,22.729,3.049ZM6.549,15.062A43.289,43.289,0,0,0,14.358,17.3a48.857,48.857,0,0,0-1.774,12.39H1.954A28.538,28.538,0,0,1,6.549,15.062Zm6.238,35.021a5.065,5.065,0,0,0,.6.037h.883a5.035,5.035,0,0,0,.6-.038v.537L13.8,51.738l-1.014-.987Zm1.488-1.9h-.883a3.106,3.106,0,0,1-3.1-3.1v-2.56A10,10,0,0,0,15.5,40.506,4.355,4.355,0,0,0,17.376,42.3v2.782A3.106,3.106,0,0,1,14.274,48.184Zm2.491-9.634a.968.968,0,0,0-1.728-.353c-1.754,2.425-5.665,2.451-5.712,2.451h0c-.033,0-.066,0-.1,0l-.03,0c-.022,0-.044.006-.066.01l-.041.011-.052.013L9,40.7v-.631a4.593,4.593,0,0,1,4.588-4.588h.463a4.593,4.593,0,0,1,4.587,4.588v.623h0c-.019-.006-.038-.011-.057-.016l-.025-.007C17.21,40.365,16.768,38.564,16.765,38.55ZM1.954,31.623H12.583c.012.667.038,1.333.075,1.993a6.533,6.533,0,0,0-5.591,6.456v1.713A2.733,2.733,0,0,0,8.6,46.641a5.061,5.061,0,0,0,2.25,2.789v.545l-1.057.414A28.57,28.57,0,0,1,1.954,31.623Zm6.4,11.616v1.347a.8.8,0,0,1,0-1.347ZM17.906,56v3.371H5.319v-2.5a3.6,3.6,0,0,1,2.192-3.51l.045-.016,3.651-1.43,1.94,1.89a.968.968,0,0,0,.675.275h.015a.967.967,0,0,0,.682-.3l1.833-1.9,2.265.908A7.23,7.23,0,0,0,17.906,56Zm9.34-8.459-5.138,2.012a6.172,6.172,0,0,0-2.363,1.6l-2.93-1.175V49.43a5.061,5.061,0,0,0,2.25-2.791,2.734,2.734,0,0,0,1.512-4.847v-1.72a6.531,6.531,0,0,0-5.983-6.5c-.037-.646-.062-1.3-.075-1.95h8.749a7.866,7.866,0,0,0-.755,3.369v2.259a3.179,3.179,0,0,0,1.858,5.725,6.085,6.085,0,0,0,2.874,3.58v.987Zm-7.933-2.978v-1.3a.8.8,0,0,1,0,1.3Zm12.971,3.653v.062L30.7,49.927,29.181,48.45V47.232a6.063,6.063,0,0,0,1,.084h1.1a6.087,6.087,0,0,0,1-.084Zm-1-2.838h-1.1a4.127,4.127,0,0,1-4.122-4.122V37.84a12.188,12.188,0,0,0,6.831-2.683,5.277,5.277,0,0,0,2.517,2.463v3.637A4.127,4.127,0,0,1,31.285,45.38Zm10.307,5.782a6.177,6.177,0,0,0-2.365-1.606l-5.007-2.008v-.993a6.084,6.084,0,0,0,2.874-3.581,3.179,3.179,0,0,0,1.831-5.713V34.992a7.865,7.865,0,0,0-.755-3.369h8.62c-.013.655-.038,1.309-.076,1.958a6.532,6.532,0,0,0-5.875,6.491v1.713a2.733,2.733,0,0,0,1.534,4.856,5.061,5.061,0,0,0,2.25,2.789v.545Zm.534-7.923v1.347a.8.8,0,0,1,0-1.347ZM56.011,59.373H43.424V56a7.229,7.229,0,0,0-.706-3.2l2.26-.885,1.94,1.89a.968.968,0,0,0,.675.275h.015a.967.967,0,0,0,.682-.3l1.833-1.9,3.643,1.461.044.017a3.6,3.6,0,0,1,2.2,3.513v2.5Z" transform="translate(0 0)"/></svg>