<svg xmlns="http://www.w3.org/2000/svg" width="48.531" height="61.727" viewBox="0 0 48.531 61.727"><defs><style>.a{fill:#eeae1d;}</style></defs><path class="a" d="M247.5,5.911A.911.911,0,0,0,248.412,5V.911a.911.911,0,1,0-1.822,0V5A.911.911,0,0,0,247.5,5.911Z" transform="translate(-223.235)"/><path class="a" d="M361.9,56.582l-2.891,2.891a.911.911,0,0,0,1.289,1.288l2.891-2.891a.911.911,0,0,0-1.289-1.288Z" transform="translate(-321.764 -49.475)"/><path class="a" d="M113.792,304.688l-2.891,2.891a.911.911,0,1,0,1.288,1.288l2.891-2.891a.911.911,0,1,0-1.288-1.288Z" transform="translate(-103.794 -267.444)"/><path class="a" d="M113.792,60.761a.911.911,0,0,0,1.288-1.288l-2.891-2.891a.911.911,0,0,0-1.288,1.288Z" transform="translate(-103.794 -49.474)"/><path class="a" d="M360.3,304.688a.911.911,0,0,0-1.288,1.288l2.891,2.891a.911.911,0,0,0,1.289-1.288Z" transform="translate(-321.765 -267.444)"/><path class="a" d="M59.32,192.269H55.231a.911.911,0,1,0,0,1.822H59.32a.911.911,0,0,0,0-1.822Z" transform="translate(-54.32 -168.915)"/><path class="a" d="M410.2,192.269h-4.089a.911.911,0,1,0,0,1.822H410.2a.911.911,0,0,0,0-1.822Z" transform="translate(-362.577 -168.915)"/><path class="a" d="M141.5,230.606a.911.911,0,0,0,0-1.822h-.329v-3.079l.017-.1a12.913,12.913,0,0,1,.993-3.235.911.911,0,0,0-1.657-.757,14.768,14.768,0,0,0-1.021,3.109h-10.68a14.762,14.762,0,0,0-4.556-8.007,14.81,14.81,0,0,1-4.852-9.433.911.911,0,1,0-1.811.2,16.63,16.63,0,0,0,5.446,10.592,12.959,12.959,0,0,1,4.079,7.5l.023.136v3.079h-.3a.911.911,0,1,0,0,1.822h.3v2.244h-.3a.911.911,0,1,0,0,1.822h.3v1.562a2.506,2.506,0,0,0,1.644,2.348,5.348,5.348,0,0,0,2.975,4.437.911.911,0,0,0,.811-1.632,3.537,3.537,0,0,1-1.936-2.65h7.032a3.536,3.536,0,0,1-1.936,2.65.911.911,0,1,0,.811,1.632,5.348,5.348,0,0,0,2.975-4.437,2.506,2.506,0,0,0,1.644-2.348v-1.562h.329a.911.911,0,1,0,0-1.822h-.329v-2.244Zm-12.527-4.066h10.375v2.244H128.977Zm10.376,9.694a.683.683,0,0,1-.682.682h-9.012a.683.683,0,0,1-.682-.682v-1.562h10.376Zm0-3.384H128.977v-2.244h10.376Z" transform="translate(-109.915 -181.388)"/><path class="a" d="M220.294,170.645a4.673,4.673,0,1,0-4.673-4.673A4.678,4.678,0,0,0,220.294,170.645Zm0-7.523a2.851,2.851,0,1,1-2.851,2.851A2.854,2.854,0,0,1,220.294,163.122Z" transform="translate(-196.028 -141.707)"/><path class="a" d="M160.459,113.337a1.52,1.52,0,0,0-1.518,1.518V117.5a1.52,1.52,0,0,0,1.518,1.518h1.818a8.649,8.649,0,0,0,.4.962l-1.286,1.286a1.52,1.52,0,0,0,0,2.147l1.871,1.871a1.52,1.52,0,0,0,2.147,0L166.695,124a8.653,8.653,0,0,0,.962.4v1.818a1.52,1.52,0,0,0,1.518,1.518h2.645a1.52,1.52,0,0,0,1.518-1.518V124.4a8.655,8.655,0,0,0,.963-.4l1.286,1.286a1.518,1.518,0,0,0,2.147,0l1.871-1.871a1.52,1.52,0,0,0,0-2.147l-1.286-1.286a8.6,8.6,0,0,0,.4-.962h1.819a1.52,1.52,0,0,0,1.518-1.518v-2.646a1.52,1.52,0,0,0-1.518-1.518h-1.819a8.638,8.638,0,0,0-.4-.963l1.286-1.286a1.52,1.52,0,0,0,0-2.147l-1.871-1.871a1.519,1.519,0,0,0-2.147,0l-1.286,1.286a8.635,8.635,0,0,0-.963-.4v-1.818a1.52,1.52,0,0,0-1.518-1.518h-2.645a1.52,1.52,0,0,0-1.518,1.518v1.818a8.634,8.634,0,0,0-.962.4l-1.286-1.286a1.52,1.52,0,0,0-2.147,0l-1.871,1.871a1.52,1.52,0,0,0,0,2.147l1.286,1.286a8.652,8.652,0,0,0-.4.963h-1.818Zm3.985-1.772-1.551-1.551,1.441-1.441,1.551,1.551a.911.911,0,0,0,1.109.139,6.827,6.827,0,0,1,1.8-.746.911.911,0,0,0,.686-.883v-2.192h2.038v2.192a.911.911,0,0,0,.686.883,6.825,6.825,0,0,1,1.8.746.911.911,0,0,0,1.109-.139l1.551-1.551,1.441,1.441-1.551,1.551a.911.911,0,0,0-.139,1.109,6.825,6.825,0,0,1,.746,1.8.911.911,0,0,0,.883.686h2.192V117.2h-2.192a.911.911,0,0,0-.883.686,6.824,6.824,0,0,1-.746,1.8.911.911,0,0,0,.139,1.109l1.551,1.551-1.441,1.441-1.551-1.551a.911.911,0,0,0-1.109-.139,6.827,6.827,0,0,1-1.8.746.911.911,0,0,0-.686.883v2.192h-2.038v-2.192a.911.911,0,0,0-.686-.883,6.833,6.833,0,0,1-1.8-.746.911.911,0,0,0-1.109.139l-1.551,1.551-1.441-1.441,1.551-1.551a.911.911,0,0,0,.139-1.109,6.831,6.831,0,0,1-.746-1.8.911.911,0,0,0-.883-.686h-2.192v-2.038h2.192a.911.911,0,0,0,.883-.686,6.831,6.831,0,0,1,.746-1.8.911.911,0,0,0-.139-1.109Z" transform="translate(-146.233 -91.913)"/><path class="a" d="M146.283,67.466a16.712,16.712,0,0,0-28.4,9.618.911.911,0,0,0,1.807.233,14.849,14.849,0,1,1,24.719,12.857,15.68,15.68,0,0,0-1.345,1.384.911.911,0,1,0,1.383,1.187,13.862,13.862,0,0,1,1.188-1.223,16.671,16.671,0,0,0,.644-24.055Z" transform="translate(-110.159 -54.92)"/></svg>