<svg xmlns="http://www.w3.org/2000/svg" width="60.375" height="60.375" viewBox="0 0 60.375 60.375"><defs><style>.a{fill:#eeae1d;}</style></defs><path class="a" d="M28.642,42.192H24c-1.351,0-2.8-1.016-2.8-3.248v-3.28a4.6,4.6,0,0,0-1.879-3.575A11.148,11.148,0,0,1,15,23.033,11.372,11.372,0,0,1,26.154,12a11.284,11.284,0,0,1,11.486,11.25,11.185,11.185,0,0,1-4.153,8.707,5.178,5.178,0,0,0-2.04,3.96v3.474a2.8,2.8,0,0,1-2.8,2.8ZM26.32,14.52h-.133a8.944,8.944,0,0,0-8.669,8.563,8.652,8.652,0,0,0,3.348,7.026,7.094,7.094,0,0,1,2.843,5.555v3.28c0,.075.008.732.289.732h4.644a.286.286,0,0,0,.289-.279V35.923A7.68,7.68,0,0,1,31.9,30.011,8.732,8.732,0,0,0,26.32,14.52Z" transform="translate(22.735 18.184)"/><path class="a" d="M26.458,23.683H18.72a1.258,1.258,0,1,1,0-2.516h7.738a1.258,1.258,0,0,1,0,2.516Z" transform="translate(26.466 32.082)"/><path class="a" d="M31.446,52.829H6.289A6.3,6.3,0,0,1,0,46.539V6.289A6.3,6.3,0,0,1,6.289,0H33.961A6.3,6.3,0,0,1,40.25,6.289V26.414a1.258,1.258,0,0,1-2.516,0V6.289a3.778,3.778,0,0,0-3.773-3.773H6.289A3.778,3.778,0,0,0,2.516,6.289v40.25a3.778,3.778,0,0,0,3.773,3.773H31.446a1.258,1.258,0,1,1,0,2.516Z"/><path class="a" d="M4.258,22.093a1.257,1.257,0,0,1-.891-2.146l6.289-6.289a1.255,1.255,0,0,1,1.452-.236l4.221,2.111,8.163-8.163a1.258,1.258,0,0,1,1.779,1.779l-8.8,8.8a1.255,1.255,0,0,1-1.452.236l-4.221-2.111L5.146,21.725A1.253,1.253,0,0,1,4.258,22.093Z" transform="translate(4.547 10.611)"/><path class="a" d="M16.8,17.063A1.258,1.258,0,0,1,15.547,15.8V9.516H9.258A1.258,1.258,0,0,1,9.258,7H16.8a1.258,1.258,0,0,1,1.258,1.258V15.8A1.258,1.258,0,0,1,16.8,17.063Z" transform="translate(12.125 10.61)"/></svg>