<svg xmlns="http://www.w3.org/2000/svg" width="59.316" height="61.354" viewBox="0 0 59.316 61.354"><defs><style>.a{fill:#eeae1d;}</style></defs><g transform="translate(-8.506)"><path class="a" d="M38.164,18.279H36.483v.965a.665.665,0,0,0,.2.472.676.676,0,0,0,.476.2h2.021a.684.684,0,0,0,.673-.673v-.965Zm24.063,21.8-4.5-1.525L54.8,39.995V41.35a3.714,3.714,0,0,0,7.429,0V40.083ZM54.8,38l2.425-1.185a.884.884,0,0,1,.737-.071l4.266,1.444v-1.78a1.693,1.693,0,0,0-1.682-1.685H56.483A1.693,1.693,0,0,0,54.8,36.408V38ZM14.1,37H21.53V34.723H15.786A1.693,1.693,0,0,0,14.1,36.408Zm7.429,1.8H14.1V41.35a3.715,3.715,0,0,0,7.429,0Zm20.35,1.2a6.037,6.037,0,0,1-4.861-1.3,4.532,4.532,0,0,1-2.568.618V41.35a3.714,3.714,0,0,0,7.429,0V39.995Zm-7.429-2.487a2.7,2.7,0,0,0,2.089-.656.894.894,0,0,1,1.264.088,4.224,4.224,0,0,0,4.076,1.247v-1.78A1.693,1.693,0,0,0,40.2,34.723H36.133a1.694,1.694,0,0,0-1.682,1.685ZM23.327,41.35a5.478,5.478,0,0,1-.941,3.074,5.257,5.257,0,0,1,4.739,5.224V60.458a.9.9,0,0,1-.9.9H9.406a.9.9,0,0,1-.9-.9v-3.37a.9.9,0,0,1,1.8,0v2.47h1.729V51.327a.9.9,0,1,1,1.8,0v8.231H21.8V51.327a.9.9,0,1,1,1.8,0v8.231h1.729V49.649A3.456,3.456,0,0,0,21.876,46.2h-1.44a5.509,5.509,0,0,1-5.238,0H13.758A3.462,3.462,0,0,0,10.3,49.649v3.37a.9.9,0,0,1-1.8,0v-3.37a5.263,5.263,0,0,1,4.742-5.224A5.48,5.48,0,0,1,12.3,41.35V36.408a3.491,3.491,0,0,1,3.482-3.482H22.43a.9.9,0,0,1,.9.9V41.35Zm40.7,0a5.478,5.478,0,0,1-.941,3.074,5.257,5.257,0,0,1,4.739,5.224V60.458a.9.9,0,0,1-.9.9H50.1a.9.9,0,0,1-.9-.9v-3.37a.9.9,0,0,1,1.8,0v2.47H52.73V51.327a.9.9,0,1,1,1.8,0v8.231H62.5V51.327a.9.9,0,1,1,1.8,0v8.231h1.729V49.649A3.456,3.456,0,0,0,62.574,46.2h-1.44a5.509,5.509,0,0,1-5.238,0h-1.44A3.462,3.462,0,0,0,51,49.649v3.37a.9.9,0,0,1-1.8,0v-3.37a5.263,5.263,0,0,1,4.742-5.224A5.48,5.48,0,0,1,53,41.35V36.408a3.491,3.491,0,0,1,3.482-3.482h4.063a3.485,3.485,0,0,1,3.478,3.482V41.35Zm-20.347,0a5.5,5.5,0,0,1-.941,3.074,5.264,5.264,0,0,1,4.739,5.224V60.458a.9.9,0,0,1-.9.9H29.753a.9.9,0,0,1-.9-.9v-3.37a.9.9,0,0,1,1.8,0v2.47h1.729V51.327a.9.9,0,1,1,1.8,0v8.231h7.972V51.327a.9.9,0,1,1,1.8,0v8.231h1.729V49.649A3.462,3.462,0,0,0,42.227,46.2H40.783a5.5,5.5,0,0,1-5.234,0H34.1a3.462,3.462,0,0,0-3.451,3.451v3.37a.9.9,0,0,1-1.8,0v-3.37A5.257,5.257,0,0,1,33.6,44.424a5.477,5.477,0,0,1-.941-3.074V36.408a3.485,3.485,0,0,1,3.478-3.482H40.2a3.491,3.491,0,0,1,3.482,3.482ZM24.342,23.782H34.951a.9.9,0,0,1,.808.506l2.4,4.168q1.218-2.115,2.439-4.222a.9.9,0,0,1,.774-.452H52.013a.9.9,0,0,1,.669.3l4.426,4.263.5-4.283a.9.9,0,0,1,.676-.771,11.081,11.081,0,0,0,5.588-3.981A11,11,0,0,0,55.033,1.8H21.3a10.98,10.98,0,0,0-8.839,17.511,11.091,11.091,0,0,0,5.635,4,.9.9,0,0,1,.635.8l.493,4.236L23.7,24.033a.935.935,0,0,1,.645-.251Zm10.092,1.8H24.675l-5.483,5.282a.883.883,0,0,1-.554.275.892.892,0,0,1-.992-.788l-.642-5.517a12.912,12.912,0,0,1-5.989-4.457A12.792,12.792,0,0,1,21.3,0H55.033A12.771,12.771,0,0,1,65.312,20.374a12.9,12.9,0,0,1-5.985,4.457l-.642,5.5a.916.916,0,0,1-.248.533.9.9,0,0,1-1.267.024l-5.517-5.313H41.894q-1.478,2.558-2.952,5.116a.919.919,0,0,1-.33.326.894.894,0,0,1-1.223-.329Q35.912,28.133,34.434,25.579Zm.255-8.268a5.116,5.116,0,0,0-1.114-2.68,7.424,7.424,0,0,1-1.6-4.413,6.186,6.186,0,0,1,12.371,0,7.445,7.445,0,0,1-1.593,4.413,5.118,5.118,0,0,0-1.114,2.68l0,1.933a2.482,2.482,0,0,1-2.47,2.47H37.155a2.476,2.476,0,0,1-2.469-2.47Zm1.712-.832H39.93a7.415,7.415,0,0,1,1.332-2.833,5.964,5.964,0,0,0,1.291-3.427,4.387,4.387,0,1,0-8.774,0,5.939,5.939,0,0,0,1.291,3.427A7.514,7.514,0,0,1,36.4,16.478Z"/></g></svg>