<svg xmlns="http://www.w3.org/2000/svg" width="546.5" height="171.535" viewBox="0 0 546.5 171.535"><defs><style>.a{fill:none;stroke:#fff;stroke-width:0.5px;}.b{fill:#eeae1d;}.c{fill:#252525;}.d{fill:#2f2e41;}.e{fill:#9f616a;}.f{fill:#ccc;}.g{fill:#f2f2f2;}.h{fill:#e6e6e6;}.i{opacity:0.1;}.j{fill:#ef7015;}</style></defs><g transform="translate(-5.5 -2506.9)"><line class="a" x2="546.5" transform="translate(5.5 2669.379)"/><g transform="translate(304.148 2506.9)"><path class="b" d="M489.208,530.444H364.5l.056-13.222c.142-33.456,26.846-61.024,60.3-61.593q.542-.009,1.086-.009h0A62.559,62.559,0,0,1,488.6,516.028Z" transform="translate(-334.592 -368.402)"/><path class="c" d="M398.287,372.743l5.495,4,5.5,46.957h12.988l-4.5-53.452-17.984-6.994Z" transform="translate(-308.137 -269.839)"/><path class="c" d="M508.937,426.593s-1.5,16.985,4.5,17.484,28.974-5,28.974-5l10.99,38.965,16.485-8.492s-9.991-43.96-15.986-46.458S527.92,415.6,527.92,415.6l-14.487,2.5Z" transform="translate(-441.766 -338.674)"/><path class="c" d="M644.428,710.906s-3,11.49-1,12.489a36.117,36.117,0,0,1,3.5,2v-2s2.5,2.5,2.5,4.5,13.488,2.5,13.488,0-.5-5.495-3-6.994-5.495-9.991-5.495-9.991Z" transform="translate(-541.29 -558.047)"/><path class="d" d="M505.14,501.8l1,9.491,3.5,5.994,8.492-9.491-6.494-10.49Z" transform="translate(-387.515 -369.423)"/><path class="c" d="M713.633,651.728s1.839-6.289,3.667-5.642,8.821,7.141,8.821,7.141l5,3s9.991,1,6.994,4-13.987,6.994-18.983,5-5.995-2.5-5.995-2.5l-1.5,1-5.995-1.5,1-10.491S708.138,656.224,713.633,651.728Z" transform="translate(-588.015 -509.859)"/><circle class="e" cx="11.49" cy="11.49" r="11.49" transform="translate(72.666 2.496)"/><path class="e" d="M538.457,187.615s1,10.49-2,10.49.5,12.988,8.492,12.988,10.99-15.486,10.99-15.486a7.519,7.519,0,0,1-4.5-8.492C552.445,180.622,538.457,187.615,538.457,187.615Z" transform="translate(-461.545 -166.886)"/><path class="c" d="M495.066,224.267l-4.2,1.8-11.4,4.822a2.314,2.314,0,0,0-1.4,2.39l4.3,38.247s-4.5,9.491,2.5,9.991l1,3.5,7.993-9.491,29.973-1,.5-48.456-13.714-5.419S508.757,230.96,495.066,224.267Z" transform="translate(-418.95 -193.847)"/><path class="c" d="M464.528,264.315l-1.846-.527a1.522,1.522,0,0,0-1.921,1.224l-4.9,30.729A10.672,10.672,0,0,0,456.9,302.4c1.514,2.866,4.657,5.465,11.12,2.374l4.5-32.471Z" transform="translate(-402.353 -225.852)"/><path class="c" d="M635.7,238.809l5.995,1,16.485,22.979,1.5,4,9.491-3s-.5,4.5,4.5,4c0,0-5.995,16.485-18.483,11.49S638.7,259.29,638.7,259.29Z" transform="translate(-536.058 -207.339)"/><path class="f" d="M394.567,135.224l-22.48-8.992-1,3,10.49,8.992Z" transform="translate(-287.932 -93.763)"/><path class="c" d="M528.238,131.138c.424-.113.487-.677.5-1.116a5.834,5.834,0,0,1,3.742-5.447,6.291,6.291,0,0,1,2.652-.146,10.044,10.044,0,0,1,3.591,1.2,5.6,5.6,0,0,0,1.826.827c.439.066,2.34.619,2.777.7.961.171,1.854,1.031,2.777.711.882-.306,1.078-1.449,1.1-2.382.049-2.127-1.566-5.072-2.989-6.654a7.421,7.421,0,0,0-4.294-2.044,28.585,28.585,0,0,0-5.615-.342,17.843,17.843,0,0,0-7.449,1.342,7.22,7.22,0,0,0-4.328,5.83c-.023.529.032,1.061-.013,1.589a23.373,23.373,0,0,1-1.113,3.7,6.776,6.776,0,0,0,.946,5.414c.851,1.252,4.254,2.389,4.2,3.9.615-.637-.835-1.279-.22-1.916a1.515,1.515,0,0,0,.451-1.851l-.653-2.547a2.3,2.3,0,0,1-.057-1.418C526.773,128.759,527.53,131.327,528.238,131.138Z" transform="translate(-451 -116.42)"/><path class="g" d="M343.666,113.354l-9.491,36.966,36.966,12.988,21.481-17.984,13.488-40.463-21.98,15.985Z" transform="translate(-260.51 -77.888)"/><rect class="h" width="0.499" height="37.199" transform="matrix(0.255, -0.967, 0.967, 0.255, 84.84, 39.953)"/><rect class="h" width="0.499" height="37.199" transform="matrix(0.255, -0.967, 0.967, 0.255, 83.841, 42.451)"/><rect class="h" width="0.499" height="37.199" transform="matrix(0.255, -0.967, 0.967, 0.255, 83.342, 44.949)"/><rect class="h" width="0.499" height="37.199" transform="matrix(0.255, -0.967, 0.967, 0.255, 82.842, 47.447)"/><rect class="h" width="0.499" height="37.199" transform="matrix(0.255, -0.967, 0.967, 0.255, 82.343, 49.944)"/><rect class="h" width="0.499" height="37.199" transform="matrix(0.255, -0.967, 0.967, 0.255, 81.843, 52.442)"/><rect class="h" width="0.499" height="37.199" transform="matrix(0.255, -0.967, 0.967, 0.255, 81.343, 54.94)"/><rect class="h" width="0.499" height="37.199" transform="matrix(0.255, -0.967, 0.967, 0.255, 80.844, 57.438)"/><rect class="h" width="0.499" height="37.199" transform="matrix(0.255, -0.967, 0.967, 0.255, 80.344, 59.935)"/><path class="e" d="M512.35,349.225s11.235-6.711,16.231-2.215S514.094,358,514.094,358Z" transform="translate(-444.426 -286.567)"/><path class="c" d="M462.66,356.986l14.487-5.5s-2.5,9.491,2.5,9.991l-6.994,8.492S458.663,369.974,462.66,356.986Z" transform="translate(-406.978 -291.047)"/><path class="h" d="M399.35,255.6l19.223,6.479L414.024,272,394.8,265.519Z" transform="translate(-305.547 -189.869)"/><path class="f" d="M531.978,142.079l14.487-10.99-4,13.488-14.986,10.99Z" transform="translate(-404.112 -97.371)"/><rect class="h" width="18.184" height="0.5" transform="matrix(0.797, -0.604, 0.604, 0.797, 120.722, 62.991)"/><rect class="h" width="18.184" height="0.5" transform="matrix(0.797, -0.604, 0.604, 0.797, 119.723, 68.486)"/><path class="e" d="M767.363,321.684s12.489-7.493,4.5-10.49-7.993,8.492-7.993,8.492S763.366,322.184,767.363,321.684Z" transform="translate(-631.254 -260.741)"/><path class="i" d="M290.962,171.888l-.5,19.482,7.743-2.21-6.244.211Z" transform="translate(-228.037 -127.68)"/><path class="j" d="M279.546,678.966c1.562,5.773,6.91,9.348,6.91,9.348s2.817-5.784,1.255-11.557-6.91-9.348-6.91-9.348S277.985,673.193,279.546,678.966Z" transform="translate(-271.132 -525.734)"/><path class="c" d="M258.893,694.465c4.285,4.171,4.808,10.584,4.808,10.584s-6.424-.351-10.709-4.522-4.808-10.583-4.808-10.583S254.608,690.294,258.893,694.465Z" transform="translate(-248.184 -542.474)"/><rect class="g" width="7.714" height="7.714" transform="translate(148.702 97.503)"/><rect class="g" width="7.714" height="7.714" transform="translate(117.846 10.079)"/><circle class="g" cx="3.857" cy="3.857" r="3.857" transform="translate(24.766 80.533)"/></g></g></svg>