<svg xmlns="http://www.w3.org/2000/svg" width="61.726" height="61.726" viewBox="0 0 61.726 61.726"><defs><style>.a{fill:#eeae1d;}</style></defs><path class="a" d="M59.857,25.964H56.4V23.838a1.871,1.871,0,0,0-1.869-1.869H54.4V19.844a1.871,1.871,0,0,0-1.869-1.869h-.129V15.153A6.915,6.915,0,0,0,56.34,9.8h1.153a2.9,2.9,0,0,0,2.9-2.9V2.9a1.905,1.905,0,0,0-1.9-1.9H56.171A1.9,1.9,0,0,0,54.5,0H44.511a1.9,1.9,0,0,0-1.674,1H40.516a1.905,1.905,0,0,0-1.9,1.9V6.9a2.9,2.9,0,0,0,2.9,2.9h1.166A7.04,7.04,0,0,0,46.6,15.132v2.843h-.129a1.871,1.871,0,0,0-1.869,1.869V21.97h-.129a1.871,1.871,0,0,0-1.869,1.869v2.126H39.151a1.871,1.871,0,0,0-1.869,1.869V29.9a1.871,1.871,0,0,0,1.869,1.869h.129v4.183H28.072a.9.9,0,1,0,0,1.808H39.279v2.186H20.51a.06.06,0,0,1-.06-.06V37.819a.06.06,0,0,1,.06-.06h3.946a.9.9,0,1,0,0-1.808H20.51a1.871,1.871,0,0,0-1.869,1.869v2.066a1.871,1.871,0,0,0,1.869,1.869h.129v4.183H1.869A1.871,1.871,0,0,0,0,47.805v2.066A1.871,1.871,0,0,0,1.869,51.74H2v8.083a1.9,1.9,0,0,0,1.9,1.9H6.989a.9.9,0,0,0,0-1.808H3.9a.094.094,0,0,1-.094-.094V57.731H57.92v2.092a.1.1,0,0,1-.094.094H10.606a.9.9,0,0,0,0,1.808h47.22a1.9,1.9,0,0,0,1.9-1.9V31.767h.129A1.871,1.871,0,0,0,61.726,29.9V27.833a1.871,1.871,0,0,0-1.869-1.869ZM58.586,2.9V6.9a1.094,1.094,0,0,1-1.093,1.093H56.4V2.807h2.092a.1.1,0,0,1,.094.095ZM40.422,6.9V2.9a.1.1,0,0,1,.094-.095h2.092V7.989H41.515A1.094,1.094,0,0,1,40.422,6.9Zm3.994,1.9V1.9a.1.1,0,0,1,.095-.094H54.5a.1.1,0,0,1,.094.094v6.99a5.088,5.088,0,0,1-5.175,5.087,5.161,5.161,0,0,1-5-5.185Zm3.995,6.9a6.712,6.712,0,0,0,.976.088h.119A6.979,6.979,0,0,0,50.6,15.7v2.273H48.411Zm-2,4.144a.06.06,0,0,1,.06-.06h6.06a.06.06,0,0,1,.06.06V21.97H46.414Zm-2,3.994a.06.06,0,0,1,.06-.06H54.531a.06.06,0,0,1,.06.06v2.126H44.416ZM1.808,49.871V47.806a.06.06,0,0,1,.06-.06h18.77v2.186H1.869a.06.06,0,0,1-.06-.06ZM57.92,55.923H3.806V51.74H21.542a.9.9,0,0,0,.9-.9V41.753H40.183a.9.9,0,0,0,.9-.9V31.767H57.92V55.923Zm2-26.025a.06.06,0,0,1-.06.06H39.151a.06.06,0,0,1-.06-.06V27.833a.06.06,0,0,1,.06-.06H59.857a.06.06,0,0,1,.06.06Z" transform="translate(0 0)"/><path class="a" d="M392.359,34.037a.9.9,0,0,0-.9-.9H387.46a.9.9,0,1,0,0,1.808h3.994A.9.9,0,0,0,392.359,34.037Z" transform="translate(-339.953 -29.139)"/><path class="a" d="M55.108,93.069a1.9,1.9,0,0,0,2.691,0L75.537,75.331a.09.09,0,0,1,.12-.012,2.887,2.887,0,0,0,2.037.744,2.954,2.954,0,0,0,2.8-2.956V69.168a2.9,2.9,0,0,0-2.9-2.9H73.658A2.949,2.949,0,0,0,70.7,69.095a2.886,2.886,0,0,0,.744,2.013.114.114,0,0,1-.012.12L53.7,88.965a1.905,1.905,0,0,0,0,2.691Zm-.134-2.825L72.712,72.506a1.918,1.918,0,0,0,.076-2.609,1.084,1.084,0,0,1-.279-.757,1.129,1.129,0,0,1,1.149-1.065H77.6a1.094,1.094,0,0,1,1.093,1.093v3.938a1.132,1.132,0,0,1-1.055,1.149,1.082,1.082,0,0,1-.766-.279,1.9,1.9,0,0,0-2.609.076L56.52,91.79a.1.1,0,0,1-.133,0l-1.412-1.412a.1.1,0,0,1,0-.134Z" transform="translate(-46.733 -58.278)"/></svg>