<svg xmlns="http://www.w3.org/2000/svg" width="50.199" height="62.799" viewBox="0 0 50.199 62.799"><defs><style>.a{fill:#eeae1d;stroke:#0865ab;stroke-width:2px;}</style></defs><path class="a" d="M38.135,13.673l-2.12,2.121,2.12,2.121a2.375,2.375,0,1,1-3.359,3.358l-2.12-2.12-2.121,2.12a2.375,2.375,0,0,1-3.359-3.358L29.3,15.794l-2.121-2.121a2.375,2.375,0,0,1,3.359-3.358l2.121,2.12,2.12-2.12a2.375,2.375,0,0,1,3.359,3.358Zm-15.913-2.41a2.375,2.375,0,0,0-3.359,0l-4.341,4.348-1.773-1.829a2.375,2.375,0,1,0-3.41,3.306l3.453,3.562a2.374,2.374,0,0,0,1.688.722H14.5a2.374,2.374,0,0,0,1.681-.7l6.047-6.056A2.375,2.375,0,0,0,22.222,11.263ZM38.831,30.05a2.375,2.375,0,0,0-2.375-2.375h-7.6a2.375,2.375,0,1,0,0,4.75h7.6A2.375,2.375,0,0,0,38.831,30.05ZM19.475,27.668h-7.6a2.375,2.375,0,1,0,0,4.75h7.6a2.375,2.375,0,0,0,0-4.75Zm9.381,8.787a2.375,2.375,0,1,0,0,4.75h5.225a2.375,2.375,0,0,0,0-4.75Zm-9.381-.007h-7.6a2.375,2.375,0,1,0,0,4.75h7.6a2.375,2.375,0,1,0,0-4.75Zm0,8.676h-7.6a2.375,2.375,0,1,0,0,4.75h7.6a2.375,2.375,0,0,0,0-4.75ZM45.823,41.8A2.375,2.375,0,0,0,48.2,39.424V9.5A9.51,9.51,0,0,0,38.7,0H9.5A9.51,9.51,0,0,0,0,9.5V51.3a9.51,9.51,0,0,0,9.5,9.5H38.7a9.511,9.511,0,0,0,9.5-9.5,2.375,2.375,0,1,0-4.75,0,4.756,4.756,0,0,1-4.75,4.75H9.5A4.756,4.756,0,0,1,4.75,51.3V9.5A4.756,4.756,0,0,1,9.5,4.75H38.7a4.756,4.756,0,0,1,4.75,4.75V39.424A2.374,2.374,0,0,0,45.823,41.8Zm0,0" transform="translate(1 1)"/></svg>