<svg xmlns="http://www.w3.org/2000/svg" width="49.06" height="60.523" viewBox="0 0 49.06 60.523"><defs><style>.a{fill:#eeae1d;}</style></defs><g transform="translate(0 0)"><path class="a" d="M154.512,481.89a.886.886,0,0,0-.887.887v.9h-27.6v-.9a.887.887,0,0,0-1.773,0v1.786a.886.886,0,0,0,.887.887h29.375a.886.886,0,0,0,.887-.887v-1.786A.886.886,0,0,0,154.512,481.89Z" transform="translate(-115.294 -424.926)"/><path class="a" d="M130.138,157.546a2.8,2.8,0,0,0,.886,5.449h1.028a7.815,7.815,0,0,0,3.817,6.542v2.519l-3,.8h-.006l-1.722.462a9.245,9.245,0,0,0-6.846,8.624.887.887,0,0,0,.857.915h.03a.887.887,0,0,0,.886-.857,7.428,7.428,0,0,1,5.533-6.97l.883-.237.523,1.89a3.273,3.273,0,0,0,5.253,1.642l1.6-1.337,1.6,1.337a3.275,3.275,0,0,0,5.253-1.642l.523-1.89.883.237a7.428,7.428,0,0,1,5.533,6.97.887.887,0,0,0,.886.857h.03a.887.887,0,0,0,.857-.915,9.245,9.245,0,0,0-6.846-8.624l-1.722-.462h-.006l-3-.8v-2.519A7.815,7.815,0,0,0,147.669,163H148.7a2.8,2.8,0,0,0,.648-5.518v-2.414a9.605,9.605,0,0,0-14.056-8.511.887.887,0,0,0,.824,1.57,7.832,7.832,0,0,1,11.459,6.941V157.4h-2.934a1.5,1.5,0,0,1-1.5-1.5.887.887,0,1,0-1.773,0,1.5,1.5,0,0,1-1.5,1.5h-7.95v-2.337a7.776,7.776,0,0,1,1.423-4.5.887.887,0,1,0-1.449-1.021,9.54,9.54,0,0,0-1.747,5.525v2.482ZM130,160.2a1.025,1.025,0,0,1,1.023-1.024h1.025v2.048h-1.024A1.025,1.025,0,0,1,130,160.2Zm5.711,17.052a1.477,1.477,0,0,1-1-1.033l-.52-1.876,1.836-.492a4.009,4.009,0,0,0,1.95,2.406l-.858.715a1.476,1.476,0,0,1-1.409.28Zm9.3-1.033a1.5,1.5,0,0,1-2.408.753l-.858-.715a4.009,4.009,0,0,0,1.95-2.406l1.836.492Zm-2.93-3.481a2.218,2.218,0,1,1-4.436,0v-2.421a7.788,7.788,0,0,0,4.436,0Zm7.642-12.538a1.025,1.025,0,0,1-1.024,1.024h-1.024v-2.048H148.7A1.025,1.025,0,0,1,149.722,160.2Zm-7.473-2.06a3.268,3.268,0,0,0,2.389,1.036H145.9v3.651a6.039,6.039,0,0,1-12.079,0v-3.651h6.039A3.266,3.266,0,0,0,142.249,158.138Z" transform="translate(-115.331 -128.265)"/><path class="a" d="M193.9,9.261a.773.773,0,0,1,.222.684l-.3,1.744a2.546,2.546,0,0,0,3.694,2.684l1.566-.824a.772.772,0,0,1,.719,0l1.566.824a2.546,2.546,0,0,0,3.694-2.684l-.3-1.744a.773.773,0,0,1,.222-.684l1.267-1.235a2.546,2.546,0,0,0-1.411-4.343L203.1,3.429a.773.773,0,0,1-.582-.423l-.783-1.587a2.546,2.546,0,0,0-4.566,0l-.783,1.587a.772.772,0,0,1-.582.423l-1.751.255a2.546,2.546,0,0,0-1.411,4.342Zm-.225-3.3a.753.753,0,0,1,.624-.526l1.751-.255a2.546,2.546,0,0,0,1.917-1.393l.783-1.587a.773.773,0,0,1,1.386,0l.783,1.587a2.545,2.545,0,0,0,1.917,1.393l1.751.255a.773.773,0,0,1,.428,1.318l-1.267,1.235a2.545,2.545,0,0,0-.732,2.254l.3,1.744a.773.773,0,0,1-1.121.815l-1.567-.824a2.546,2.546,0,0,0-2.369,0L196.7,12.8a.773.773,0,0,1-1.121-.815l.3-1.744a2.546,2.546,0,0,0-.732-2.253l-1.267-1.235A.753.753,0,0,1,193.68,5.964Z" transform="translate(-174.918 0)"/><path class="a" d="M349.639,42.372a2.546,2.546,0,0,0-1.411-4.343l-1.751-.254a.773.773,0,0,1-.582-.423l-.783-1.587a2.546,2.546,0,0,0-4.566,0l-.783,1.587a.772.772,0,0,1-.582.423l-1.751.254a2.546,2.546,0,0,0-1.411,4.343l1.267,1.235a.773.773,0,0,1,.222.684l-.3,1.744a2.546,2.546,0,0,0,3.694,2.684l1.566-.824a.772.772,0,0,1,.719,0l1.566.824a2.546,2.546,0,0,0,3.694-2.684l-.3-1.744a.773.773,0,0,1,.222-.684Zm-2.5-.034a2.545,2.545,0,0,0-.732,2.254l.3,1.744a.773.773,0,0,1-1.121.815l-1.566-.824a2.545,2.545,0,0,0-2.369,0l-1.566.824a.773.773,0,0,1-1.121-.815l.3-1.744a2.545,2.545,0,0,0-.732-2.253L337.255,41.1a.773.773,0,0,1,.428-1.318l1.751-.254a2.546,2.546,0,0,0,1.917-1.393l.783-1.587a.773.773,0,0,1,1.386,0l.783,1.587a2.545,2.545,0,0,0,1.917,1.393l1.751.254A.773.773,0,0,1,348.4,41.1Z" transform="translate(-301.349 -30.286)"/><path class="a" d="M60.677,48.526a2.53,2.53,0,0,0,1.013-2.49l-.3-1.744a.773.773,0,0,1,.222-.684l1.267-1.235a2.546,2.546,0,0,0-1.411-4.343l-1.751-.254a.773.773,0,0,1-.582-.423l-.783-1.587a2.53,2.53,0,0,0-2.283-1.419h0a2.53,2.53,0,0,0-2.283,1.419L53,37.353a.772.772,0,0,1-.582.423l-1.751.254a2.546,2.546,0,0,0-1.411,4.343l1.267,1.235a.773.773,0,0,1,.222.684l-.3,1.744a2.543,2.543,0,0,0,3.694,2.684L55.71,47.9a.772.772,0,0,1,.719,0L58,48.72A2.531,2.531,0,0,0,60.677,48.526ZM56.07,46.035a2.544,2.544,0,0,0-1.185.293l-1.566.824a.773.773,0,0,1-1.121-.815l.3-1.744a2.545,2.545,0,0,0-.732-2.254L50.5,41.1a.773.773,0,0,1,.428-1.318l1.751-.254a2.546,2.546,0,0,0,1.917-1.393l.783-1.587a.753.753,0,0,1,.693-.431h0a.753.753,0,0,1,.693.431h0l.783,1.587a2.545,2.545,0,0,0,1.917,1.393l1.751.254a.773.773,0,0,1,.428,1.318l-1.267,1.235a2.545,2.545,0,0,0-.732,2.253l.3,1.744a.773.773,0,0,1-1.121.815l-1.566-.823A2.544,2.544,0,0,0,56.07,46.035Z" transform="translate(-48.489 -30.287)"/></g></svg>