<svg xmlns="http://www.w3.org/2000/svg" width="56.428" height="60.313" viewBox="0 0 56.428 60.313"><defs><style>.a{fill:#eeae1d;}</style></defs><path class="a" d="M153.8,108.372H136.415a.884.884,0,0,0,0,1.768H153.8a.884.884,0,0,0,0-1.768Z" transform="translate(-121.5 -95.6)"/><path class="a" d="M72.082,145.365a.884.884,0,0,0,.884.884H86.274a.884.884,0,1,0,0-1.768H72.966A.884.884,0,0,0,72.082,145.365Z" transform="translate(-65.529 -127.454)"/><path class="a" d="M244.118,144.481h-9.645a.884.884,0,0,0,0,1.768h9.645a.884.884,0,1,0,0-1.768Z" transform="translate(-208.002 -127.454)"/><path class="a" d="M72.966,184.422H86.274a.884.884,0,1,0,0-1.768H72.966a.884.884,0,1,0,0,1.768Z" transform="translate(-65.529 -161.128)"/><path class="a" d="M233.589,183.538a.884.884,0,0,0,.884.884h13.308a.884.884,0,1,0,0-1.768H234.473A.884.884,0,0,0,233.589,183.538Z" transform="translate(-208.002 -161.128)"/><path class="a" d="M72.966,222.594H86.274a.884.884,0,1,0,0-1.768H72.966a.884.884,0,1,0,0,1.768Z" transform="translate(-65.529 -194.801)"/><path class="a" d="M248.665,221.71a.884.884,0,0,0-.884-.884H234.473a.884.884,0,0,0,0,1.768h13.308A.884.884,0,0,0,248.665,221.71Z" transform="translate(-208.002 -194.801)"/><path class="a" d="M62.812,0a10.133,10.133,0,0,0-1.579.124C60.967.054,27.85.01,27.494.016c-.767.013-1.164.6-1.686,1.1L20.64,5.987,18.118,8.365c-.457.431-1.581,1.2-1.634,1.853,0,.01,0,.019,0,.029s0,.029,0,.044V57.017a3.3,3.3,0,0,0,3.3,3.3H51.515a.884.884,0,1,0,0-1.768H19.775a1.53,1.53,0,0,1-1.528-1.528V11.175H24.91A3.3,3.3,0,0,0,28.205,7.88v-6.1H57.091a10.09,10.09,0,0,0,4.838,18.367V57.017A1.529,1.529,0,0,1,60.4,58.545H55.648a.884.884,0,0,0,0,1.768H60.4a3.3,3.3,0,0,0,3.3-3.3V20.151A10.095,10.095,0,0,0,62.812,0ZM26.437,7.88A1.529,1.529,0,0,1,24.91,9.407H19.589l6.848-6.459ZM62.812,18.425A8.328,8.328,0,1,1,71.14,10.1,8.338,8.338,0,0,1,62.812,18.425Z" transform="translate(-16.48)"/><path class="a" d="M367.093,29.463,363.23,25.6a2.614,2.614,0,0,0-3.692,0l-3.777,3.777a2.776,2.776,0,0,0-.124,3.734,2.483,2.483,0,0,0,3.248.453v3a2.611,2.611,0,1,0,5.222,0V33.66a2.611,2.611,0,0,0,2.985-4.2Zm-1.25,2.443a.844.844,0,0,1-1.192,0l-.1-.1a1.294,1.294,0,0,0-2.209.915v3.848a.843.843,0,1,1-1.686,0V32.5a1.293,1.293,0,0,0-2.209-.915l-.4.4a.718.718,0,0,1-1.074-.036.993.993,0,0,1,.044-1.32l3.777-3.777a.844.844,0,0,1,1.192,0l3.862,3.861a.843.843,0,0,1,0,1.192Z" transform="translate(-315.082 -21.912)"/><path class="a" d="M151.113,261.972a9.11,9.11,0,0,0-5.792,2.082.884.884,0,1,0,1.126,1.362,7.307,7.307,0,1,1-2.15,2.954.884.884,0,1,0-1.643-.651,9.093,9.093,0,0,0,2.826,10.481v6.362a1.572,1.572,0,0,0,2.134,1.469l3.5-1.338,3.5,1.338a1.572,1.572,0,0,0,2.134-1.469V278.2a9.09,9.09,0,0,0-5.633-16.229Zm3.865,22.307-3.3-1.263a1.57,1.57,0,0,0-1.123,0l-3.3,1.263V279.3a9.073,9.073,0,0,0,7.73,0Z" transform="translate(-127.223 -231.098)"/><path class="a" d="M183.8,294.75a1.69,1.69,0,0,0-1.372-1.157l-1.7-.247-.761-1.542a1.7,1.7,0,0,0-3.049,0l-.761,1.542-1.7.247a1.7,1.7,0,0,0-.942,2.9l1.231,1.2-.291,1.695a1.7,1.7,0,0,0,2.467,1.792l1.522-.8,1.522.8a1.7,1.7,0,0,0,2.467-1.792l-.291-1.695,1.231-1.2A1.689,1.689,0,0,0,183.8,294.75Zm-3.08,1.857a1.278,1.278,0,0,0-.367,1.131l.311,1.814-1.629-.856a1.278,1.278,0,0,0-1.189,0l-1.628.856.311-1.813a1.278,1.278,0,0,0-.367-1.132l-1.318-1.284,1.821-.265a1.278,1.278,0,0,0,.962-.7l.814-1.65.814,1.65a1.278,1.278,0,0,0,.962.7l1.821.265Z" transform="translate(-154.551 -256.578)"/></svg>