<svg xmlns="http://www.w3.org/2000/svg" width="66.847" height="61.277" viewBox="0 0 66.847 61.277"><defs><style>.a{fill:#eeae1d;}</style></defs><path class="a" d="M1.393,45.422a1.391,1.391,0,0,1-.749-2.565l30.638-19.5a1.391,1.391,0,0,1,1.732.189L43.169,33.7l21.3-21.3a1.392,1.392,0,0,1,1.969,1.969L44.153,36.66a1.394,1.394,0,0,1-1.969,0L31.83,26.307,2.142,45.2a1.384,1.384,0,0,1-.749.217Z" transform="translate(0 15.854)"/><path class="a" d="M31.534,25.926a1.393,1.393,0,0,1-1.393-1.393V14.785H20.393a1.393,1.393,0,1,1,0-2.785H31.534a1.393,1.393,0,0,1,1.393,1.393V24.534A1.393,1.393,0,0,1,31.534,25.926Z" transform="translate(33.921 15.853)"/><path class="a" d="M19.319,35.424H13.748c-1.34,0-2.785-1.028-2.785-3.287V28.46A4.919,4.919,0,0,0,9.08,24.469,12.461,12.461,0,0,1,4,14.211,12.594,12.594,0,0,1,16.347,2a12.441,12.441,0,0,1,7.687,22.433A5.03,5.03,0,0,0,22.1,28.48v4.158A2.786,2.786,0,0,1,19.319,35.424ZM16.528,4.785h-.142a9.907,9.907,0,0,0-9.6,9.481,9.666,9.666,0,0,0,3.944,7.958,7.712,7.712,0,0,1,3.016,6.236v3.677a1.015,1.015,0,0,0,.1.551l5.47-.05V28.48A7.825,7.825,0,0,1,22.374,22.2,9.615,9.615,0,0,0,23.4,7.6a9.709,9.709,0,0,0-6.877-2.813Z" transform="translate(7.141 -2)"/><path class="a" d="M16.249,13.785H7.893a1.393,1.393,0,1,1,0-2.785h8.356a1.393,1.393,0,1,1,0,2.785Z" transform="translate(11.604 14.068)"/></svg>