<svg xmlns="http://www.w3.org/2000/svg" width="2173.942" height="1413.258" viewBox="0 0 2173.942 1413.258"><defs><style>.a,.d{fill:#f8f9fa;}.b{opacity:0.3;}.c,.n{fill:#dadce0;}.c{isolation:isolate;}.d,.o{opacity:0.1;}.e{opacity:0.7;}.f{fill:#ed7015;}.g{fill:#eeae1d;}.h{fill:#fff;}.i{fill:#ef7015;}.j{fill:#ee991a;}.k{fill:#ff6584;}.l{fill:#fe6483;}.m{opacity:0.2;}.o,.t{fill:#3f3d56;}.p{fill:#252525;}.q{fill:#e8eaed;}.r{fill:#0865ab;}.s{fill:#f1f3f4;}</style></defs><g transform="translate(0 688.33)"><g transform="translate(0 -661.33)"><rect class="a" width="1920" height="719" transform="translate(0 627.33)"/><g class="b" transform="translate(818.011 826.059)"><circle class="c" cx="5.628" cy="5.628" r="5.628" transform="translate(792.076 222.655)"/><circle class="c" cx="5.628" cy="5.628" r="5.628" transform="translate(41.617 370.536)"/><circle class="c" cx="5.628" cy="5.628" r="5.628" transform="translate(1009.487 402.543)"/><circle class="c" cx="5.628" cy="5.628" r="5.628" transform="translate(313.018 135.844)"/><circle class="c" cx="5.628" cy="5.628" r="5.628" transform="translate(294.531 6.431)"/><circle class="c" cx="5.628" cy="5.628" r="5.628" transform="translate(135.38 262.837)"/><path class="c" d="M707.227-202.977h-5.01v-5h-2.042v5h-5.01v2.053h5.01v5h2.042v-5h5.01Z" transform="translate(229.941 478.051)"/><path class="c" d="M748.592-288.429h-5.01v-5H741.54v5h-5.01v2.053h5.01v5h2.042v-5h5.01Z" transform="translate(272.45 390.237)"/><path class="c" d="M572.446-336.163h-5.01v-5.01h-2.041v5.01h-5.011v2.042h5.011v5.01h2.041v-5.01h5.01Z" transform="translate(91.433 341.173)"/><path class="c" d="M680.263-216.85h-5.01v-5h-2.042v5h-5v2.053h5v5h2.042v-5h5.01Z" transform="translate(202.243 463.794)"/><path class="c" d="M589.879-134.794h-5v-5h-2.041v5h-5.01v2.052h5.01v5h2.041v-5h5Z" transform="translate(109.36 548.118)"/><path class="c" d="M336.978-304.061h-5.01v-5h-2.042v5h-5.01v2.042h5.01v5.01h2.042v-5.01h5.01Z" transform="translate(-150.545 374.174)"/><path class="c" d="M250.981-271.948h-5.01v-5h-2.042v5h-5.01v2.042h5.01v5.01h2.042v-5.01h5.01Z" transform="translate(-238.918 407.175)"/><path class="c" d="M371.06-170.858h-5.01v-5.01h-2.042v5.01h-5v2.042h5v5.01h2.042v-5.01h5.01Z" transform="translate(-115.508 511.045)"/></g></g><path class="d" d="M1246.69,606.347c19.285,143.525-6.975,287.207-140.546,343.156s-287.207-6.975-343.156-140.546S839.047,595.465,903.534,465.8C1034.487,202.491,1186.8,160.632,1246.69,606.347Z" transform="translate(381.405 -255.14)"/><g class="e" transform="translate(425.117 185.259)"><g transform="translate(94.573 -873.59)"><path class="f" d="M15.711,11.623,9.289,7.535l4.088-6.423L11.623,0,7.538,6.423,1.116,2.335,0,4.085,6.423,8.173,2.335,14.6l1.753,1.116L8.173,9.289,14.6,13.374Z" transform="translate(598.443 298.519)"/><path class="f" d="M15.711,11.623,9.289,7.535l4.088-6.423L11.623,0,7.538,6.423,1.115,2.335,0,4.085,6.423,8.173,2.335,14.6l1.753,1.116L8.173,9.289,14.6,13.374Z" transform="translate(1345.424 772.146)"/><path class="g" d="M20.462,15.138,12.1,9.814l5.324-8.365L15.138,0,9.818,8.365,1.453,3.041,0,5.32l8.365,5.324L3.041,19.009l2.283,1.453,5.32-8.365,8.365,5.32Z" transform="translate(319.128 661.269)"/><path class="f" d="M15.711,11.623,9.289,7.535l4.088-6.423L11.623,0,7.538,6.423,1.115,2.335,0,4.085,6.423,8.173,2.335,14.6l1.753,1.116L8.173,9.289,14.6,13.374Z" transform="translate(911.27 1003.034)"/><path class="g" d="M15.711,11.623,9.289,7.535l4.088-6.423L11.623,0,7.538,6.423,1.116,2.335,0,4.085,6.423,8.173,2.335,14.6l1.753,1.116L8.173,9.289,14.6,13.374Z" transform="translate(280.972 876.917)"/><path class="f" d="M15.711,11.623,9.289,7.535l4.088-6.423L11.623,0,7.538,6.423,1.115,2.335,0,4.085,6.423,8.173,2.335,14.6l1.753,1.116L8.173,9.289,14.6,13.374Z" transform="translate(1638.541 738.439)"/><path class="h" d="M15.711,11.623,9.289,7.535l4.088-6.423L11.623,0,7.538,6.423,1.116,2.335,0,4.085,6.423,8.173,2.335,14.6l1.753,1.115L8.173,9.289,14.6,13.374Z" transform="translate(211.942 740.959)"/><path class="h" d="M22,16.271,13,10.552l5.722-8.993L16.274,0,10.552,8.99,1.562,3.268,0,5.722l8.993,5.719L3.271,20.434,5.722,22,11.444,13l8.99,5.722Z" transform="translate(750.989 650.001)"/><circle class="f" cx="9.427" cy="9.427" r="9.427" transform="translate(0 557.691)"/><circle class="f" cx="9.427" cy="9.427" r="9.427" transform="translate(705.281 194.822)"/><circle class="f" cx="6.037" cy="6.037" r="6.037" transform="translate(594.076 654.957)"/><circle class="f" cx="6.285" cy="6.285" r="6.285" transform="translate(614.155 575.039)"/><circle class="i" cx="6.285" cy="6.285" r="6.285" transform="translate(1326.112 922.327)"/><circle class="j" cx="6.285" cy="6.285" r="6.285" transform="translate(629.501 853.067)"/><circle class="k" cx="6.285" cy="6.285" r="6.285" transform="translate(689.57)"/><circle class="f" cx="6.285" cy="6.285" r="6.285" transform="translate(431.902 292.233)"/><circle class="h" cx="6.285" cy="6.285" r="6.285" transform="translate(510.46 81.7)"/><circle class="f" cx="9.427" cy="9.427" r="9.427" transform="translate(1446.861 644.169)"/><circle class="k" cx="18.142" cy="18.142" r="18.142" transform="translate(1014.321 643.556)"/><circle class="h" cx="9.427" cy="9.427" r="9.427" transform="translate(1041.506 559.327)"/><circle class="l" cx="4.585" cy="4.585" r="4.585" transform="translate(65.139 742.605)"/><circle class="g" cx="9.674" cy="9.674" r="9.674" transform="translate(399.353 956.234)"/><circle class="k" cx="9.674" cy="9.674" r="9.674" transform="translate(1512.045 700.49)"/></g><path class="g" d="M566.92,209.218l-8.552-5.438,5.441-8.552-2.331-1.482-5.441,8.549-8.549-5.441L546,199.187l8.552,5.438-5.441,8.552,2.331,1.485,5.441-8.552,8.549,5.441Z" transform="translate(331.499 -166.927)"/><g transform="translate(850.689 120.406)"><circle class="h" cx="9.675" cy="9.675" r="9.675"/></g></g><g transform="translate(1206.303 357.154)"><rect class="h" width="1.662" height="8.976" transform="matrix(0.894, 0.448, -0.448, 0.894, 161.382, 65.226)"/><path class="i" d="M115.453,10.835a36.992,36.992,0,0,0-52.314,0l-.01.01a36.979,36.979,0,1,0-52.3,52.3l-.007.007,52.314,52.314,52.314-52.314A36.991,36.991,0,0,0,115.453,10.835Z" transform="translate(267.76 -14.824) rotate(13)"/><path class="i" d="M535.463,476.865H219.1a6.459,6.459,0,0,1-1.182-.094L367.544,217.6a10.476,10.476,0,0,1,18.236,0L486.2,391.525l4.811,8.322Z" transform="translate(-177.916 -151.614)"/><path class="m" d="M494.254,362.7H386.241l53.024-77.018,3.816-5.548,1.908-2.774,4.81,8.322Z" transform="translate(-136.708 -37.447)"/><path class="n" d="M832.173,518.259H558.547l53.023-77.018,3.816-5.548L684.48,335.323c4.53-6.578,15.427-6.988,20.753-1.241a12.459,12.459,0,0,1,.995,1.241Z" transform="translate(-298.479 -191.913)"/><rect class="o" width="573.698" height="1.448" transform="translate(0 324.27)"/><ellipse class="p" cx="20.895" cy="6.559" rx="20.895" ry="6.559" transform="translate(245.65 303.714) rotate(-21.176)"/><circle class="p" cx="41.789" cy="41.789" r="41.789" transform="translate(183.858 266.21)"/><rect class="p" width="12.696" height="22.746" transform="translate(206.605 340.796)"/><rect class="p" width="12.696" height="22.746" transform="translate(231.996 340.796)"/><ellipse class="p" cx="10.58" cy="3.967" rx="10.58" ry="3.967" transform="translate(206.605 359.839)"/><ellipse class="p" cx="10.58" cy="3.967" rx="10.58" ry="3.967" transform="translate(231.996 359.31)"/><circle class="h" cx="14.282" cy="14.282" r="14.282" transform="translate(212.423 283.137)"/><circle class="p" cx="4.761" cy="4.761" r="4.761" transform="translate(221.945 292.659)"/><path class="q" d="M442.186,515.822c-3.374-15.112,7.412-30.381,24.092-34.106s32.937,5.507,36.311,20.618-7.68,20.685-24.36,24.41S445.56,530.933,442.186,515.822Z" transform="translate(-257.075 -246.685)"/><ellipse class="p" cx="20.895" cy="6.559" rx="20.895" ry="6.559" transform="translate(164.337 323.296) rotate(-45)"/><path class="h" d="M473.5,615.67c0,4.09,10.531,12.167,22.217,12.167s22.643-11.515,22.643-15.6-10.957.793-22.643.793S473.5,611.58,473.5,615.67Z" transform="translate(-268.376 -292.595)"/><ellipse class="p" cx="6.559" cy="20.895" rx="6.559" ry="20.895" transform="translate(280.463 300.855) rotate(-68.824)"/><circle class="p" cx="41.789" cy="41.789" r="41.789" transform="translate(302.384 266.21)"/><rect class="p" width="12.696" height="22.746" transform="translate(363.217 363.542) rotate(180)"/><rect class="p" width="12.696" height="22.746" transform="translate(337.826 363.542) rotate(180)"/><ellipse class="p" cx="10.58" cy="3.967" rx="10.58" ry="3.967" transform="translate(342.058 359.839)"/><ellipse class="p" cx="10.58" cy="3.967" rx="10.58" ry="3.967" transform="translate(316.667 359.31)"/><circle class="h" cx="14.282" cy="14.282" r="14.282" transform="translate(328.833 283.137)"/><circle class="p" cx="4.761" cy="4.761" r="4.761" transform="translate(338.355 292.659)"/><path class="r" d="M718.051,515.822c3.374-15.112-7.412-30.381-24.092-34.106s-32.937,5.507-36.311,20.618,7.68,20.685,24.36,24.41S714.677,530.933,718.051,515.822Z" transform="translate(-333.341 -246.685)"/><ellipse class="p" cx="6.559" cy="20.895" rx="6.559" ry="20.895" transform="translate(366.664 303.022) rotate(-45)"/><path class="h" d="M695.926,615.67c0,4.09-10.531,12.167-22.217,12.167s-22.643-11.515-22.643-15.6,10.957.793,22.643.793S695.926,611.58,695.926,615.67Z" transform="translate(-331.226 -292.595)"/><path class="s" d="M1004.709,493.61c0,27.006-16.055,36.435-35.859,36.435s-35.859-9.43-35.859-36.435,35.859-61.362,35.859-61.362S1004.709,466.6,1004.709,493.61Z" transform="translate(-431.012 -229.469)"/><path class="t" d="M822.578,313.55l.367-22.6,15.284-27.961L823,287.4l.165-10.162L833.7,257.01l-10.49,17.54h0l.3-18.278,11.28-16.106L823.555,253.4l.185-33.515-1.166,44.368.1-1.83L811.2,244.868l11.284,21.067-1.068,20.413-.032-.542-13.22-18.473,13.18,20.387-.134,2.552-.024.039.011.209-2.711,51.79h3.623l.434-26.751,13.149-20.337Z" transform="translate(-286.046 -17.104)"/><path class="q" d="M64.765,6.078a20.751,20.751,0,0,0-29.346,0l-.006.006A20.744,20.744,0,1,0,6.076,35.42l0,0L35.418,64.771,64.765,35.424A20.751,20.751,0,0,0,64.765,6.078Z" transform="matrix(0.998, -0.07, 0.07, 0.998, 345.733, -92.852)"/><path class="s" d="M51.785,4.86a16.592,16.592,0,0,0-23.465,0l0,0A16.587,16.587,0,1,0,4.858,28.322l0,0L28.32,51.79,51.785,28.325A16.592,16.592,0,0,0,51.785,4.86Z" transform="translate(258.651 -142.803) rotate(14)"/></g></g></svg>