<svg xmlns="http://www.w3.org/2000/svg" width="1920" height="1073.359" viewBox="0 0 1920 1073.359"><defs><style>.a{fill:#0865ab;}.b{fill:#f8f9fa;opacity:0.1;}.c{opacity:0.3;}.d{fill:#dadce0;isolation:isolate;}</style></defs><g transform="translate(0 104.932)"><g transform="translate(0 55)"><g transform="translate(0 -738.196)"><path class="a" d="M0,0H1920V795.866H0Z" transform="translate(0 683.196)"/><path class="b" d="M1510.749,785.568c29.527,219.751-10.68,439.741-215.189,525.4s-439.741-10.68-525.4-215.189,116.454-326.875,215.189-525.4C1185.846,167.226,1419.052,103.137,1510.749,785.568Z" transform="translate(193.879 309.374)"/></g></g><g class="c" transform="translate(818.012 91.338)"><circle class="d" cx="5.628" cy="5.628" r="5.628" transform="translate(792.076 222.655)"/><circle class="d" cx="5.628" cy="5.628" r="5.628" transform="translate(41.617 370.536)"/><circle class="d" cx="5.628" cy="5.628" r="5.628" transform="translate(1009.487 402.543)"/><circle class="d" cx="5.628" cy="5.628" r="5.628" transform="translate(313.018 135.844)"/><circle class="d" cx="5.628" cy="5.628" r="5.628" transform="translate(294.531 6.431)"/><circle class="d" cx="5.628" cy="5.628" r="5.628" transform="translate(135.38 262.837)"/><path class="d" d="M707.227-202.977h-5.01v-5h-2.042v5h-5.01v2.053h5.01v5h2.042v-5h5.01Z" transform="translate(229.941 478.051)"/><path class="d" d="M748.592-288.429h-5.01v-5H741.54v5h-5.01v2.053h5.01v5h2.042v-5h5.01Z" transform="translate(272.45 390.237)"/><path class="d" d="M572.446-336.163h-5.01v-5.01h-2.041v5.01h-5.011v2.042h5.011v5.01h2.041v-5.01h5.01Z" transform="translate(91.433 341.173)"/><path class="d" d="M680.263-216.85h-5.01v-5h-2.042v5h-5v2.053h5v5h2.042v-5h5.01Z" transform="translate(202.243 463.794)"/><path class="d" d="M589.879-134.794h-5v-5h-2.041v5h-5.01v2.052h5.01v5h2.041v-5h5Z" transform="translate(109.36 548.118)"/><path class="d" d="M336.978-304.061h-5.01v-5h-2.042v5h-5.01v2.042h5.01v5.01h2.042v-5.01h5.01Z" transform="translate(-150.545 374.174)"/><path class="d" d="M250.981-271.948h-5.01v-5h-2.042v5h-5.01v2.042h5.01v5.01h2.042v-5.01h5.01Z" transform="translate(-238.918 407.175)"/><path class="d" d="M371.06-170.858h-5.01v-5.01h-2.042v5.01h-5v2.042h5v5.01h2.042v-5.01h5.01Z" transform="translate(-115.508 511.045)"/></g></g></svg>