<svg xmlns="http://www.w3.org/2000/svg" width="2173.942" height="1511.894" viewBox="0 0 2173.942 1511.894"><defs><style>.a,.d{fill:#f8f9fa;}.b{opacity:0.3;}.c,.n{fill:#dadce0;}.c{isolation:isolate;}.d{opacity:0.1;}.e{opacity:0.7;}.f{fill:#ed7015;}.g{fill:#eeae1d;}.h{fill:#fff;}.i{fill:#ef7015;}.j{fill:#ee991a;}.k{fill:#ff6584;}.l{fill:#fe6483;}.m{fill:#80868b;}.o,.q{fill:gray;}.o,.p{opacity:0.4;}.r{fill:#666;}.s{fill:#cbcbcb;}.t{fill:#a5b4c2;}.u{fill:#eac9b8;}.v{fill:#c4ccd7;}.w{fill:#fad1b1;}.x{fill:#647889;}.y{fill:#f8fbfc;}.z{fill:#d4d2d1;}.aa{fill:#fdf5ea;}.ab{fill:#ed8417;}.ac{fill:#0865ab;}.ad{fill:#252525;}.ae{fill:#9aa0a6;}.af{fill:#e28166;}.ag{fill:#93603d;}.ah{fill:#a4704c;}.ai{opacity:0.5;}.aj{fill:#f16a44;}.ak{fill:#f9e1df;}</style></defs><g transform="translate(0 688.33)"><g transform="translate(0 -661.33)"><rect class="a" width="1920" height="719" transform="translate(0 627.33)"/><g class="b" transform="translate(818.011 826.059)"><circle class="c" cx="5.628" cy="5.628" r="5.628" transform="translate(792.076 222.655)"/><circle class="c" cx="5.628" cy="5.628" r="5.628" transform="translate(41.617 370.536)"/><circle class="c" cx="5.628" cy="5.628" r="5.628" transform="translate(1009.487 402.543)"/><circle class="c" cx="5.628" cy="5.628" r="5.628" transform="translate(313.018 135.844)"/><circle class="c" cx="5.628" cy="5.628" r="5.628" transform="translate(294.531 6.431)"/><circle class="c" cx="5.628" cy="5.628" r="5.628" transform="translate(135.38 262.837)"/><path class="c" d="M707.227-202.977h-5.01v-5h-2.042v5h-5.01v2.053h5.01v5h2.042v-5h5.01Z" transform="translate(229.941 478.051)"/><path class="c" d="M748.592-288.429h-5.01v-5H741.54v5h-5.01v2.053h5.01v5h2.042v-5h5.01Z" transform="translate(272.45 390.237)"/><path class="c" d="M572.446-336.163h-5.01v-5.01h-2.041v5.01h-5.011v2.042h5.011v5.01h2.041v-5.01h5.01Z" transform="translate(91.433 341.173)"/><path class="c" d="M680.263-216.85h-5.01v-5h-2.042v5h-5v2.053h5v5h2.042v-5h5.01Z" transform="translate(202.243 463.794)"/><path class="c" d="M589.879-134.794h-5v-5h-2.041v5h-5.01v2.052h5.01v5h2.041v-5h5Z" transform="translate(109.36 548.118)"/><path class="c" d="M336.978-304.061h-5.01v-5h-2.042v5h-5.01v2.042h5.01v5.01h2.042v-5.01h5.01Z" transform="translate(-150.545 374.174)"/><path class="c" d="M250.981-271.948h-5.01v-5h-2.042v5h-5.01v2.042h5.01v5.01h2.042v-5.01h5.01Z" transform="translate(-238.918 407.175)"/><path class="c" d="M371.06-170.858h-5.01v-5.01h-2.042v5.01h-5v2.042h5v5.01h2.042v-5.01h5.01Z" transform="translate(-115.508 511.045)"/></g></g><path class="d" d="M1246.69,606.347c19.285,143.525-6.975,287.207-140.546,343.156s-287.207-6.975-343.156-140.546S839.047,595.465,903.534,465.8C1034.487,202.491,1186.8,160.632,1246.69,606.347Z" transform="translate(381.405 -255.14)"/><g class="e" transform="translate(425.117 185.259)"><g transform="translate(94.573 -873.59)"><path class="f" d="M15.711,11.623,9.289,7.535l4.088-6.423L11.623,0,7.538,6.423,1.116,2.335,0,4.085,6.423,8.173,2.335,14.6l1.753,1.116L8.173,9.289,14.6,13.374Z" transform="translate(598.443 298.519)"/><path class="f" d="M15.711,11.623,9.289,7.535l4.088-6.423L11.623,0,7.538,6.423,1.115,2.335,0,4.085,6.423,8.173,2.335,14.6l1.753,1.116L8.173,9.289,14.6,13.374Z" transform="translate(1345.424 772.146)"/><path class="g" d="M20.462,15.138,12.1,9.814l5.324-8.365L15.138,0,9.818,8.365,1.453,3.041,0,5.32l8.365,5.324L3.041,19.009l2.283,1.453,5.32-8.365,8.365,5.32Z" transform="translate(319.128 661.269)"/><path class="f" d="M15.711,11.623,9.289,7.535l4.088-6.423L11.623,0,7.538,6.423,1.115,2.335,0,4.085,6.423,8.173,2.335,14.6l1.753,1.116L8.173,9.289,14.6,13.374Z" transform="translate(911.27 1003.034)"/><path class="g" d="M15.711,11.623,9.289,7.535l4.088-6.423L11.623,0,7.538,6.423,1.116,2.335,0,4.085,6.423,8.173,2.335,14.6l1.753,1.116L8.173,9.289,14.6,13.374Z" transform="translate(280.972 876.917)"/><path class="f" d="M15.711,11.623,9.289,7.535l4.088-6.423L11.623,0,7.538,6.423,1.115,2.335,0,4.085,6.423,8.173,2.335,14.6l1.753,1.116L8.173,9.289,14.6,13.374Z" transform="translate(1638.541 738.439)"/><path class="h" d="M15.711,11.623,9.289,7.535l4.088-6.423L11.623,0,7.538,6.423,1.116,2.335,0,4.085,6.423,8.173,2.335,14.6l1.753,1.115L8.173,9.289,14.6,13.374Z" transform="translate(211.942 740.959)"/><path class="h" d="M22,16.271,13,10.552l5.722-8.993L16.274,0,10.552,8.99,1.562,3.268,0,5.722l8.993,5.719L3.271,20.434,5.722,22,11.444,13l8.99,5.722Z" transform="translate(750.989 650.001)"/><circle class="f" cx="9.427" cy="9.427" r="9.427" transform="translate(0 557.691)"/><circle class="f" cx="9.427" cy="9.427" r="9.427" transform="translate(705.281 194.822)"/><circle class="f" cx="6.037" cy="6.037" r="6.037" transform="translate(594.076 654.957)"/><circle class="f" cx="6.285" cy="6.285" r="6.285" transform="translate(614.155 575.039)"/><circle class="i" cx="6.285" cy="6.285" r="6.285" transform="translate(1326.112 922.327)"/><circle class="j" cx="6.285" cy="6.285" r="6.285" transform="translate(629.501 853.067)"/><circle class="k" cx="6.285" cy="6.285" r="6.285" transform="translate(689.57)"/><circle class="f" cx="6.285" cy="6.285" r="6.285" transform="translate(431.902 292.233)"/><circle class="h" cx="6.285" cy="6.285" r="6.285" transform="translate(510.46 81.7)"/><circle class="f" cx="9.427" cy="9.427" r="9.427" transform="translate(1446.861 644.169)"/><circle class="k" cx="18.142" cy="18.142" r="18.142" transform="translate(1014.321 643.556)"/><circle class="h" cx="9.427" cy="9.427" r="9.427" transform="translate(1041.506 559.327)"/><circle class="l" cx="4.585" cy="4.585" r="4.585" transform="translate(65.139 742.605)"/><circle class="g" cx="9.674" cy="9.674" r="9.674" transform="translate(399.353 956.234)"/><circle class="k" cx="9.674" cy="9.674" r="9.674" transform="translate(1512.045 700.49)"/></g><path class="g" d="M566.92,209.218l-8.552-5.438,5.441-8.552-2.331-1.482-5.441,8.549-8.549-5.441L546,199.187l8.552,5.438-5.441,8.552,2.331,1.485,5.441-8.552,8.549,5.441Z" transform="translate(331.499 -166.927)"/><g transform="translate(850.689 120.406)"><circle class="h" cx="9.675" cy="9.675" r="9.675"/></g></g><g transform="translate(612.65 140.133)"><path class="m" d="M1097.358,595.5a10.026,10.026,0,0,1-.645-20.03c.287-.021,12.243-.949,28.037-7.4a120.948,120.948,0,0,0,52.479-41.285,10.026,10.026,0,1,1,16.182,11.841c-38.588,52.739-93.118,56.714-95.421,56.857C1097.778,595.49,1097.567,595.5,1097.358,595.5Z" transform="translate(87.141 87.935)"/><path class="m" d="M766.951,433.007a10.026,10.026,0,0,1,20.03-.643c.021.286.949,12.242,7.4,28.037a120.961,120.961,0,0,0,41.286,52.479,10.026,10.026,0,0,1-11.841,16.182c-52.739-38.588-56.714-93.12-56.858-95.423C766.957,433.427,766.951,433.216,766.951,433.007Z" transform="translate(28.545 69.704)"/><path class="m" d="M1037.489,101.115a10.026,10.026,0,0,1-12.927,15.314c-.227-.176-9.732-7.488-25.786-13.263a120.954,120.954,0,0,0-66.624-4.444,10.026,10.026,0,0,1-4.1-19.628c63.969-13.363,107.147,20.178,108.955,21.613C1037.172,100.838,1037.334,100.975,1037.489,101.115Z" transform="translate(56.55 6.235)"/><path class="j" d="M810.226,429.065l57.75-30.291L889.726,456,832.5,476.192Z" transform="translate(36.459 65.276)"/><path class="j" d="M825.941,427.729s18.17-3.745,25.9,0,14.333,26.72,14.333,26.72l38.092,2.716L869.8,392.417l-35.715,16.918Z" transform="translate(39.334 64.113)"/><path class="n" d="M841.957,270.237a57.893,57.893,0,0,0-29.73,76.285L910.26,569.76a57.893,57.893,0,0,0,76.286,29.73l285.27-125.273V81.47Z" transform="translate(35.929 7.244)"/><circle class="o" cx="19.48" cy="19.48" r="19.48" transform="translate(1239.045 468.252) rotate(-76.769)"/><circle class="o" cx="19.48" cy="19.48" r="19.48" transform="matrix(0.229, -0.973, 0.973, 0.229, 1162.206, 211.616)"/><circle class="o" cx="19.48" cy="19.48" r="19.48" transform="translate(885.82 357.911) rotate(-76.666)"/><g class="p" transform="translate(876.083 410.965)"><path class="q" d="M993.546,401.6l-18.588,19.007-77.981,67.671-12.191-2.814,11.307,25.749a58.4,58.4,0,0,0,3.579,6.843c9.248-2.5,20.785-6.191,25.785-10.146,8.98-7.1,49.918-64.537,49.918-64.537s12.114-7.52,13.735-11.583,4.645-21.835,5.9-24.759S993.546,401.6,993.546,401.6Z" transform="translate(-825.987 -345.173)"/><path class="q" d="M932.042,399.884c4.178-.414,7.291-6.27,7.291-6.27l6.494-2.924.835-6.474L935.8,379.628l-60.929-17.483L837.01,353.9l-1.932,6.392,11.067,25.2,63.548,12.543S927.865,400.3,932.042,399.884Z" transform="translate(-835.078 -353.897)"/></g><path class="o" d="M1093.729,355.619l4.244,39.406,22.439,36.324,34.223,34.776-141.579,61.909L1004.7,459.8l-8.077-36.344-22.477-38.5,117.524-51.142a6.4,6.4,0,0,1,.891,2.547C1092.611,337.548,1093.729,355.619,1093.729,355.619Z" transform="translate(66.439 53.396)"/><g transform="translate(1040.588 386.311)"><rect class="n" width="117.587" height="80.293" rx="3.375" transform="translate(13.616 70.031) rotate(-23.364)"/><rect class="r" width="93.281" height="49.926" rx="2.736" transform="translate(25.975 67.994) rotate(-23.364)"/><rect class="s" width="21.412" height="18.872" rx="2.838" transform="matrix(0.918, -0.397, 0.397, 0.918, 80.129, 102.741)"/><path class="h" d="M1088.38,333.3l-56.224,24.288-56.225,24.288a2.95,2.95,0,0,0-.982,4.728l13.668,14.563a2.154,2.154,0,0,0,2.425.5l50.695-21.9,50.7-21.9a2.152,2.152,0,0,0,1.3-2.11l-1.234-19.933A2.95,2.95,0,0,0,1088.38,333.3Z" transform="translate(-974.148 -333.055)"/><path class="q" d="M1093.595,355.428l-1.228-19.838a2.954,2.954,0,0,0-3.186-.457l-56.225,24.29L976.732,383.71a2.956,2.956,0,0,0-1.852,2.632l13.6,14.494a2.154,2.154,0,0,0,2.425.5l50.7-21.9,50.7-21.9A2.152,2.152,0,0,0,1093.595,355.428Z" transform="translate(-974.015 -332.724)"/><path class="t" d="M1087.632,355.929l-.379-16.364a2.739,2.739,0,0,0-2.837-.261l-51.233,22.133L981.95,383.569a2.739,2.739,0,0,0-1.754,2.244L991.852,397.3a1.964,1.964,0,0,0,2.153.329l46.194-19.957,46.2-19.955A1.967,1.967,0,0,0,1087.632,355.929Z" transform="translate(-973.042 -331.961)"/></g><path class="u" d="M1034.371,465.871l-4.562-21.911s4.3-13.912,3.971-16.563-5.029-19.266-5.029-19.266-3.167-.338-3.843,1.352,0,9.822,0,9.822a22.154,22.154,0,0,1-3.041-4.076c-.512-1.151-1.6-12.568-2.105-18.049a3.2,3.2,0,0,0-3.189-2.908h0a3.2,3.2,0,0,0-3.176,2.8l-.826,6.433-5.407,1.081-2.536,5.916-5.689,12.168,3.581,13.733,8.023,10.6,1.69,18.868Z" transform="translate(70.973 64.452)"/><path class="u" d="M1101.147,436.081l-15.084-16.532s-13.793-4.665-15.75-6.482-12.669-15.363-12.669-15.363,1.582-2.764,3.346-2.322,7.961,5.754,7.961,5.754a22.2,22.2,0,0,0-1.521-4.853c-.634-1.089-9.247-8.662-13.4-12.278a3.2,3.2,0,0,1-.487-4.288h0a3.2,3.2,0,0,1,4.126-.937l5.7,3.1,4.045-3.75,6.279,1.41,13.194,2.518L1095.921,393l3.893,12.714,14.3,12.422Z" transform="translate(80.849 61.5)"/><rect class="h" width="98.304" height="70.456" transform="translate(927.073 445.179) rotate(-19.604)"/><rect class="v" width="95.798" height="65.234" transform="translate(927.073 445.179) rotate(-19.604)"/><rect class="f" width="98.304" height="70.456" transform="translate(922.216 440.258) rotate(-19.604)"/><path class="w" d="M888.906,360.87l11.576,4.872s13.231-2.783,17.6-1.113,17.443,10,18.821,10.984,3.5,5.58,3.5,6.554-2.8,5.15-5.83,5.428-16.969.7-16.969.7a52.2,52.2,0,0,1,4.135,3.9c.59.835.709,3.2.235,3.618s-11.222-4.176-14.293-5.15-7.678-5.011-8.505-5.846-3.662-4.037-3.662-4.037l-12.757-5.162Z" transform="translate(49.726 58.343)"/><path class="w" d="M951.548,448.286l8.058-9.635s13.035-3.587,16.155-7.074,2.127-9,2.9-10.512-.365-11.255.3-11.966c2.406-2.561,5.794-5.06,7.782-7.25,3.509-3.863,1-5.607-.773-4.89-2.82,1.139-21.472,13.8-21.472,13.8a52.163,52.163,0,0,0,1.889-5.359c.143-1.012-.836-3.171-1.448-3.325S956.88,410.929,954.6,413.2s-4.529,7.972-4.881,9.093-1.406,5.266-1.406,5.266L939.334,438Z" transform="translate(60.072 64.915)"/><g transform="translate(998.48 273.104)"><rect class="x" width="93.976" height="63.027" rx="7.06" transform="translate(0 29.684) rotate(-18.413)"/><path class="y" d="M1040.364,301.8l-73.318,24.408a10.5,10.5,0,0,1-13.263-6.637l-14.632-43.954a10.5,10.5,0,0,1,6.637-13.261l73.318-24.409a10.5,10.5,0,0,1,13.263,6.637L1047,288.542A10.5,10.5,0,0,1,1040.364,301.8ZM950.4,265.326a6.222,6.222,0,0,0-3.934,7.86L961.1,317.139a6.221,6.221,0,0,0,7.859,3.934l70.053-23.322a6.222,6.222,0,0,0,3.934-7.859l-14.632-43.954a6.223,6.223,0,0,0-7.86-3.934Z" transform="translate(-938.54 -237.34)"/><path class="z" d="M951.641,286.7a2.6,2.6,0,1,1-3.292-1.648A2.6,2.6,0,0,1,951.641,286.7Z" transform="translate(-937.085 -228.651)"/></g><path class="o" d="M893.849,225.981,963,325.323l31.186-7.871-8.792-20.889-18.009-5.076-21.169-38.1,108.54-39.593,1.671-17.223L1042.14,160.86Z" transform="translate(51.753 21.763)"/><path class="aa" d="M978.018,284.887l-14.327-6.577a1.687,1.687,0,0,0-2.052.518l-.144.19a1.689,1.689,0,0,0,.667,2.562l14.47,6.385a1.688,1.688,0,0,0,1.386-3.079Z" transform="translate(64.063 43.216)"/><path class="u" d="M955.132,205.607a36.852,36.852,0,0,1-8.163,2.277c-3.951.509-8.963-1.67-12.3-1.138s-11.7,6.381-11.7,6.381l-3.2,7.8-1.949,12.81,14.343,5.848s3.688,1.653,9.676-1.551,16.784-12.513,16.784-12.513l7.233-3.759Z" transform="translate(56.136 29.947)"/><path class="u" d="M961.916,268.077l9.772,3.4s5.127,5.484,6.072,7,0,6.052,0,6.052,3.4,3.4,3.215,6.618-5.3,7.565-11.728,7.753-13.234.946-14.747,0-8.7-15.411-8.7-15.411L935.59,269.4l19.856-9.644Z" transform="translate(59.387 39.85)"/><path class="g" d="M782.939,458.616s-3.185-33.455,4.411-43.9,48.655-82.614,52.128-85.492,76.247,37.239,76.247,37.239-8.17,19.153-9.021,19.527-54.809-19.245-54.809-19.245L842.49,396.9l13.966-5.38,12.526,28.522s-14.848,9.34-40.07,21.77S782.939,458.616,782.939,458.616Z" transform="translate(31.348 52.529)"/><path class="g" d="M806.567,495.787c-.337.867,36.211,27.751,50.326,22.905s69.038-18.474,76.517-23.789,48.672-54.219,48.672-54.219L969,424.772l-43.416,39.3-29.954,9.279-14.156-32.236S820.728,459.453,806.567,495.787Z" transform="translate(35.79 70.03)"/><path class="ab" d="M1004.845,456.4l32.4-4.3,12.219,44.264,82.833-36.376-28.731-28.439,19.694-23.989,63.664,52.271s18.657,55.053,18.169,61.132-22.59,52.33-56.109,67.952-78.939-4.586-84.973-6-41.841-46.868-42.506-48.381S1004.845,456.4,1004.845,456.4Z" transform="translate(72.053 66.882)"/><g transform="translate(933.635 104.145)"><path class="ac" d="M1060.213,204.534c-4.114-21.964-6-71.223-10.1-78.217-5.37-9.146-17.771-21.973-37.366-29.61,0,0-83.71-7.23-102.889,4.577s-26.164,115.481-26.123,120.2,64.482,86.734,64.482,86.734l20.449-16.029L927.3,224.237l91.912-40.363,1.648,11.459L956.69,224.942l12.726,22.76,82.177-28.46A13,13,0,0,0,1060.213,204.534Z" transform="translate(-883.732 -94.516)"/><path class="ac" d="M957.963,280.675l-7.746,1.647-66.054-79.34,63.972,85.4Z" transform="translate(-883.653 -74.678)"/><path class="ac" d="M1047.76,191.047c-.161.226-4.032,5.576-9.961,7.825-6.058,2.3-77.082,24.019-77.082,24.019l-8.408-1.008,4.565,8.164,82.178-28.46A12.992,12.992,0,0,0,1047.76,191.047Z" transform="translate(-871.189 -76.861)"/><path class="ac" d="M920.566,219.492l13.176-97.31s37.874-3.9,48.456,0,26.4,10.968,26.4,10.968l3.882,45.981Z" transform="translate(-876.995 -89.773)"/><path class="ac" d="M910.988,106.14s20.018,24.517,20.452,48.6,8.232,14.059,8.232,14.059l-4.178-44S925.191,110.6,910.988,106.14Z" transform="translate(-878.747 -92.39)"/><path class="ac" d="M997.769,145.7s-4.419-25.853,8.112-38.386c0,0-15.873,6.962-20.607,25.064S997.769,145.7,997.769,145.7Z" transform="translate(-865.311 -92.174)"/></g><g transform="translate(986.531 77.873)"><path class="u" d="M989.9,126.515c.659-.241-.51,17.637-.51,17.637l-5.861,9.131s-13.64,9.741-16.195,10.929-17.432,1.41-17.432,1.41-4.452,2.132-6.555,1.158-4.322-8.386-4.322-8.386-8.247-4.452-7.959-21.511,21.983-24.519,21.983-24.519Z" transform="translate(-927.972 -64.98)"/><path class="u" d="M937.3,97.619s-5.06-2.07-7.943,1.792,2,11.047,2,11.047Z" transform="translate(-928.45 -67.778)"/><path class="u" d="M994.3,125.032s3.753,1.054,3.792,4.218-7.248,10.885-12.308,10.311S994.3,125.032,994.3,125.032Z" transform="translate(-918.17 -62.663)"/><path class="ad" d="M929.1,138.857s-2.849-30.865,7.227-45.531S957.429,76.11,957.429,76.11a28.488,28.488,0,0,1,23.628-2.188c13.17,4.642,24.642,16.886,28.878,29.79s-1.868,31.6-9,40.7a96.246,96.246,0,0,1-16.978,16.2s4.074-11.965-.687-12.71c0,0-19.114,14.492-31.873,13.688s-15.206-3.4-15.206-3.4,15.586-3.724,22.088-9.1c0,0-18.2,5.431-26.5,5.235l6.136-7.736-4.232,2.051A15.253,15.253,0,0,1,929.1,138.857Z" transform="translate(-928.399 -72.306)"/></g><path class="ad" d="M857.806,464.5s1.7,6.886-1.362,11.727-8.912,5.816-12.811,11.247-11.53,16.1-22.266,16.337-18.81-11.046-25.076-13.413S774.013,492.486,769,482.46s6.823-26.873-.975-35.506-6.661-18.99-2.227-23.95c7.207-8.063,16.708-8.842,27.708-2.576s17.267,1.6,22.28-.069,13.506-2.291,16.708-.867,5.373,7.048,5.373,7.048Z" transform="translate(27.697 68.475)"/><path class="ae" d="M848.47,381.866l-13.966,5.38-8.563,21.721s13.575-1.88,16.708,0c1.461.876,4.146,4.591,6.6,8.305,7.611-4.282,11.748-6.884,11.748-6.884Z" transform="translate(39.334 62.183)"/><path class="ae" d="M872.515,438.588s-3.739,1.128-9.575,3.38c2.531,5.83,6.253,15.685,5.41,21.582-1.254,8.772-12.774,15.456-12.774,15.456l31.095-8.181Z" transform="translate(44.754 72.557)"/><path class="w" d="M1076.351,519.907s-5.545-15.061.111-23.912c6.592-10.314,24.628-17.058,36.068-12.655,16.764,6.453,15.59,11.879,15.59,11.879Z" transform="translate(84.686 80.492)"/><path class="ad" d="M1136.754,495.992s-12.114-13.074-30.132-10.2-22.022,6.667-22.022,6.667l4.683-.129-8.366,6.4s-9.907,16.2-9.642,27.71a35.411,35.411,0,0,0,5.714,18.877s2.125,11.269,7.449,16.1,18.148,9.961,27.828,8.963a49.2,49.2,0,0,0,18.108-6.126,22.391,22.391,0,0,0,14.354-7.888,23.665,23.665,0,0,0,5.687-15.245s5.856-7.245,6.17-11.526-2.96-15.094-2.96-15.094S1149.506,496.639,1136.754,495.992Z" transform="translate(84.202 81.115)"/><path class="f" d="M1042.566,488.253l5.042,20.695,13.785,16.464s3.759-23.069,21.722-37.938,49.291-11.107,53.887-10.9S1159.14,497.3,1159.14,497.3l-9.608-25.591L1125.4,451.877Z" transform="translate(78.952 74.988)"/><path class="af" d="M1190.116,514.9s-33.929,43.643-65.235,52.283c-27.436,7.573-60.753-1.121-68.578-3.389,10.289,3.416,51.967,20.075,83.271,5.485C1163.434,558.157,1181.5,531.522,1190.116,514.9Z" transform="translate(81.465 86.514)"/><path class="aa" d="M971.71,281.876l-15.932-7.314a1.879,1.879,0,0,0-2.283.576l-.16.212a1.88,1.88,0,0,0,.74,2.85l16.092,7.1a1.878,1.878,0,0,0,1.543-3.424Z" transform="translate(62.563 42.527)"/><rect class="h" width="98.304" height="70.456" transform="translate(1144.661 304.2)"/><rect class="v" width="95.798" height="65.234" transform="translate(1144.661 304.2)"/><rect class="ac" width="98.304" height="70.456" transform="translate(1141.737 297.935)"/><rect class="h" width="98.304" height="70.456" transform="translate(1152.37 240.406) rotate(-8.769)"/><rect class="v" width="95.798" height="65.234" transform="translate(1152.37 240.406) rotate(-8.769)"/><rect class="g" width="98.304" height="70.456" transform="translate(1148.525 234.659) rotate(-8.769)"/><g transform="translate(884.744 311.345)"><path class="f" d="M844.13,305.344a2.944,2.944,0,0,0,4.055.948l10.181-6.323-3.107-5-10.181,6.323A2.945,2.945,0,0,0,844.13,305.344Z" transform="translate(-842.165 -265.054)"/><circle class="f" cx="18.119" cy="18.119" r="18.119" transform="translate(0 25.624) rotate(-45)"/><path class="y" d="M849.938,291.041A16.566,16.566,0,0,1,851.4,286.1a16.757,16.757,0,0,1,2.949-4.282,17.138,17.138,0,0,1,9.1-4.929c.433-.069.871-.118,1.3-.177s.876-.052,1.314-.082c.219-.006.438-.024.656-.02l.658.025c.439,0,.875.063,1.311.11a16.707,16.707,0,0,1,9.321,4.388,16.7,16.7,0,0,1,3.136,4.085,17.916,17.916,0,0,0-7.733-6.345,17.083,17.083,0,0,0-18.557,3.455A18.112,18.112,0,0,0,849.938,291.041Z" transform="translate(-841.022 -268.411)"/><circle class="ag" cx="14.642" cy="14.642" r="14.642" transform="translate(10.982 10.982)"/><path class="ah" d="M852.194,296.814a14.64,14.64,0,0,0,28.544-2.181,14.64,14.64,0,0,0-28.544,2.181Z" transform="translate(-840.609 -267.033)"/><g class="ai" transform="translate(13.544 15.786)"><path class="y" d="M874.6,285.894a.233.233,0,1,0-.393.25,11.617,11.617,0,0,1-9.813,17.829,11.824,11.824,0,0,1-1.844-.146.233.233,0,1,0-.073.46,12.09,12.09,0,0,0,14-11.929A12.04,12.04,0,0,0,874.6,285.894Z" transform="translate(-852.309 -282.519)"/><path class="y" d="M859.13,283.446a.233.233,0,0,0-.273-.377,12.081,12.081,0,0,0-1.9,17.879.233.233,0,0,0,.346-.312,11.616,11.616,0,0,1,1.83-17.19Z" transform="translate(-853.85 -283.024)"/><path class="y" d="M865.294,285.073a7.584,7.584,0,0,1,1.114.083.233.233,0,1,0,.069-.461,7.973,7.973,0,0,0-9.066,9.031.233.233,0,0,0,.229.2l.034,0a.233.233,0,0,0,.2-.264,7.744,7.744,0,0,1-.078-1.087A7.51,7.51,0,0,1,865.294,285.073Z" transform="translate(-853.214 -282.735)"/><path class="y" d="M870.806,296a.233.233,0,1,0-.341-.317,7.5,7.5,0,0,1-11.012-.044.233.233,0,1,0-.343.316,7.967,7.967,0,0,0,11.7.045Z" transform="translate(-852.899 -280.731)"/><path class="y" d="M866.953,285.755a7.472,7.472,0,0,1,4.1,6.688c0,.194-.007.384-.021.575a.233.233,0,0,0,.214.25h.018a.232.232,0,0,0,.232-.215c.015-.2.024-.4.024-.609a7.934,7.934,0,0,0-4.359-7.1.233.233,0,0,0-.212.415Z" transform="translate(-851.477 -282.606)"/><path class="y" d="M864.1,297.084a6.14,6.14,0,0,0,5.3-2.993.233.233,0,0,0-.4-.24,5.676,5.676,0,0,1-4.9,2.767.233.233,0,0,0,0,.466Z" transform="translate(-852.018 -281.065)"/><path class="y" d="M868.934,288.256a.233.233,0,0,0,.329-.33,6.141,6.141,0,0,0-4.37-1.81,6.206,6.206,0,0,0-5.341,3.068.232.232,0,0,0,.083.318.24.24,0,0,0,.117.032.234.234,0,0,0,.2-.116,5.739,5.739,0,0,1,4.939-2.837A5.681,5.681,0,0,1,868.934,288.256Z" transform="translate(-852.813 -282.459)"/></g></g><g transform="translate(1162.438 170.308)"><path class="aj" d="M1114.621,151.832a2.943,2.943,0,0,0-4.165,0l-8.474,8.474,4.164,4.164,8.475-8.474A2.944,2.944,0,0,0,1114.621,151.832Z" transform="translate(-1072.619 -150.354)"/><circle class="aj" cx="18.119" cy="18.119" r="18.119" transform="translate(0 35.261) rotate(-76.669)"/><path class="y" d="M1081.471,168.585a16.506,16.506,0,0,1,1.461-4.935,16.7,16.7,0,0,1,2.949-4.283,17.138,17.138,0,0,1,9.1-4.929c.434-.069.871-.118,1.306-.177s.875-.052,1.313-.082c.219-.006.438-.024.658-.02l.658.025c.439,0,.874.063,1.309.11a16.7,16.7,0,0,1,9.321,4.389,16.694,16.694,0,0,1,3.136,4.085,17.92,17.92,0,0,0-7.731-6.345,17.086,17.086,0,0,0-18.558,3.455A18.1,18.1,0,0,0,1081.471,168.585Z" transform="translate(-1076.37 -149.771)"/><circle class="ag" cx="14.642" cy="14.642" r="14.642" transform="translate(7.166 7.166)"/><path class="ah" d="M1083.726,174.358a14.641,14.641,0,0,0,28.546-2.181,14.641,14.641,0,0,0-28.546,2.181Z" transform="translate(-1075.958 -148.393)"/><g class="ai" transform="translate(9.729 11.97)"><path class="y" d="M1106.129,163.438a.233.233,0,1,0-.394.25,11.615,11.615,0,0,1-9.813,17.829,11.7,11.7,0,0,1-1.844-.146.233.233,0,0,0-.073.46,12.09,12.09,0,0,0,14-11.928A12.039,12.039,0,0,0,1106.129,163.438Z" transform="translate(-1083.842 -160.064)"/><path class="y" d="M1090.662,160.99a.233.233,0,1,0-.273-.377,12.084,12.084,0,0,0-1.9,17.879.235.235,0,0,0,.174.077.229.229,0,0,0,.155-.06.234.234,0,0,0,.018-.329,11.617,11.617,0,0,1,1.829-17.19Z" transform="translate(-1085.383 -160.568)"/><path class="y" d="M1096.826,162.617a7.591,7.591,0,0,1,1.114.083.233.233,0,1,0,.069-.461,7.97,7.97,0,0,0-9.148,7.879,8.132,8.132,0,0,0,.083,1.152.235.235,0,0,0,.23.2l.033,0a.233.233,0,0,0,.2-.264,7.5,7.5,0,0,1,7.421-8.587Z" transform="translate(-1084.747 -160.279)"/><path class="y" d="M1102.339,173.544a.233.233,0,0,0-.34-.317,7.5,7.5,0,0,1-11.012-.044.233.233,0,1,0-.343.316,7.966,7.966,0,0,0,11.695.045Z" transform="translate(-1084.432 -158.275)"/><path class="y" d="M1098.486,163.3a7.472,7.472,0,0,1,4.1,6.689c0,.193-.007.383-.021.574a.234.234,0,0,0,.215.25h.018a.233.233,0,0,0,.232-.215c.014-.2.022-.4.022-.608a7.935,7.935,0,0,0-4.359-7.1.233.233,0,1,0-.211.415Z" transform="translate(-1083.01 -160.15)"/><path class="y" d="M1095.631,174.628a6.139,6.139,0,0,0,5.3-2.993.233.233,0,1,0-.4-.24,5.676,5.676,0,0,1-4.9,2.767.233.233,0,0,0,0,.466Z" transform="translate(-1083.551 -158.609)"/><path class="y" d="M1100.466,165.8a.233.233,0,0,0,.33-.329,6.141,6.141,0,0,0-4.371-1.811,6.206,6.206,0,0,0-5.341,3.068.233.233,0,1,0,.4.234,5.741,5.741,0,0,1,4.938-2.837A5.677,5.677,0,0,1,1100.466,165.8Z" transform="translate(-1084.346 -160.003)"/></g></g><g transform="translate(1239.276 423.778)"><path class="aj" d="M1174.793,406.476a2.944,2.944,0,0,0,.908-4.064l-6.424-10.117-4.972,3.156,6.424,10.118A2.943,2.943,0,0,0,1174.793,406.476Z" transform="translate(-1138.059 -359.688)"/><circle class="aj" cx="18.119" cy="18.119" r="18.119" transform="translate(0 35.261) rotate(-76.669)"/><path class="y" d="M1146.429,382.865a16.516,16.516,0,0,1,1.461-4.936,16.726,16.726,0,0,1,2.949-4.282,17.137,17.137,0,0,1,9.1-4.929c.433-.069.871-.118,1.3-.177s.876-.052,1.313-.082c.22-.006.439-.024.658-.02l.658.025c.439,0,.875.063,1.311.11a16.7,16.7,0,0,1,9.321,4.387,16.734,16.734,0,0,1,3.135,4.085,17.914,17.914,0,0,0-7.731-6.345,17.089,17.089,0,0,0-18.558,3.456A18.113,18.113,0,0,0,1146.429,382.865Z" transform="translate(-1141.329 -364.051)"/><circle class="ag" cx="14.642" cy="14.642" r="14.642" transform="translate(7.166 7.166)"/><path class="ah" d="M1148.685,388.637a14.64,14.64,0,0,0,28.544-2.18,14.64,14.64,0,0,0-28.544,2.18Z" transform="translate(-1140.916 -362.673)"/><g class="ai" transform="translate(9.728 11.97)"><path class="y" d="M1171.087,377.717a.233.233,0,0,0-.393.251,11.617,11.617,0,0,1-9.813,17.828,11.831,11.831,0,0,1-1.844-.145.233.233,0,1,0-.073.46,12.329,12.329,0,0,0,1.917.15,12.082,12.082,0,0,0,10.206-18.544Z" transform="translate(-1148.8 -374.344)"/><path class="y" d="M1155.621,375.27a.233.233,0,0,0-.273-.377,12.079,12.079,0,0,0-1.9,17.878.232.232,0,1,0,.345-.311,11.615,11.615,0,0,1,1.83-17.19Z" transform="translate(-1150.341 -374.848)"/><path class="y" d="M1161.786,376.9a7.589,7.589,0,0,1,1.114.083.233.233,0,1,0,.069-.461,7.971,7.971,0,0,0-9.066,9.031.232.232,0,0,0,.23.2.166.166,0,0,0,.034,0,.232.232,0,0,0,.2-.264,7.691,7.691,0,0,1-.078-1.086A7.509,7.509,0,0,1,1161.786,376.9Z" transform="translate(-1149.704 -374.559)"/><path class="y" d="M1167.3,387.824a.233.233,0,1,0-.341-.317,7.5,7.5,0,0,1-11.012-.044.233.233,0,0,0-.343.315,7.965,7.965,0,0,0,11.7.046Z" transform="translate(-1149.39 -372.555)"/><path class="y" d="M1163.443,377.579a7.471,7.471,0,0,1,4.1,6.688c0,.193-.007.384-.022.574a.234.234,0,0,0,.215.251h.018a.233.233,0,0,0,.232-.215c.015-.2.022-.4.022-.609a7.934,7.934,0,0,0-4.358-7.1.233.233,0,0,0-.212.415Z" transform="translate(-1147.968 -374.43)"/><path class="y" d="M1160.59,388.908a6.137,6.137,0,0,0,5.295-2.993.233.233,0,0,0-.4-.241,5.675,5.675,0,0,1-4.9,2.768.233.233,0,0,0,0,.466Z" transform="translate(-1148.509 -372.889)"/><path class="y" d="M1165.426,380.08a.233.233,0,1,0,.329-.33,6.144,6.144,0,0,0-4.37-1.81,6.209,6.209,0,0,0-5.342,3.068.233.233,0,0,0,.084.318.237.237,0,0,0,.117.032.234.234,0,0,0,.2-.116,5.74,5.74,0,0,1,4.939-2.837A5.676,5.676,0,0,1,1165.426,380.08Z" transform="translate(-1149.304 -374.283)"/></g></g><path class="w" d="M856.58,441.495c-.41-.977-2.841-1.371-5.206-1.519-9.005-16.7-31.806-17.282-31.806-17.282s-1.822,7.153,7.9,19.011,9.655,35.342,9.655,35.342a43.03,43.03,0,0,0,10.286-8.427c4.319-4.754,8.576-11.743,6.765-20.957C855.608,445.291,857.02,442.54,856.58,441.495Z" transform="translate(38.143 69.65)"/><path class="ak" d="M1042.606,453.438l-2.279-8.209a4.337,4.337,0,0,0-4.728-3.142l-28.449,3.63a4.339,4.339,0,0,0-3.669,5.314l2.123,8.854a4.337,4.337,0,0,0,4.859,3.278l28.6-4.275A4.338,4.338,0,0,0,1042.606,453.438Z" transform="translate(71.782 73.191)"/><path class="ak" d="M1080.455,428.41l6.652,5.323a4.338,4.338,0,0,0,5.673-.22l20.943-19.593a4.337,4.337,0,0,0-.135-6.455l-6.9-5.937a4.337,4.337,0,0,0-5.859.186l-20.691,20.207A4.337,4.337,0,0,0,1080.455,428.41Z" transform="translate(85.584 65.587)"/></g></g></svg>