<svg xmlns="http://www.w3.org/2000/svg" width="2173.942" height="1403.122" viewBox="0 0 2173.942 1403.122"><defs><style>.a,.d{fill:#f8f9fa;}.b{opacity:0.3;}.c,.m{fill:#dadce0;}.c{isolation:isolate;}.d{opacity:0.1;}.e,.p{fill:#3f3d56;}.f{fill:#ed7015;}.g{fill:#ee991a;}.h,.q{fill:#252525;}.i{fill:#eeae1d;}.j{fill:#2f2e41;}.k,.p,.q{opacity:0.2;}.l{fill:#f1f3f4;}.n{fill:#ffb9b9;}.o{fill:#d0cde1;}.r{fill:#fff;}.s{opacity:0.7;}.t{fill:#ef7015;}.u{fill:#ff6584;}.v{fill:#fe6483;}</style></defs><g transform="translate(0 688.33)"><g transform="translate(0 -661.33)"><rect class="a" width="1920" height="719" transform="translate(0 627.33)"/><g class="b" transform="translate(818.011 826.059)"><circle class="c" cx="5.628" cy="5.628" r="5.628" transform="translate(792.076 222.655)"/><circle class="c" cx="5.628" cy="5.628" r="5.628" transform="translate(41.617 370.536)"/><circle class="c" cx="5.628" cy="5.628" r="5.628" transform="translate(1009.487 402.543)"/><circle class="c" cx="5.628" cy="5.628" r="5.628" transform="translate(313.018 135.844)"/><circle class="c" cx="5.628" cy="5.628" r="5.628" transform="translate(294.531 6.431)"/><circle class="c" cx="5.628" cy="5.628" r="5.628" transform="translate(135.38 262.837)"/><path class="c" d="M707.227-202.977h-5.01v-5h-2.042v5h-5.01v2.053h5.01v5h2.042v-5h5.01Z" transform="translate(229.941 478.051)"/><path class="c" d="M748.592-288.429h-5.01v-5H741.54v5h-5.01v2.053h5.01v5h2.042v-5h5.01Z" transform="translate(272.45 390.237)"/><path class="c" d="M572.446-336.163h-5.01v-5.01h-2.041v5.01h-5.011v2.042h5.011v5.01h2.041v-5.01h5.01Z" transform="translate(91.433 341.173)"/><path class="c" d="M680.263-216.85h-5.01v-5h-2.042v5h-5v2.053h5v5h2.042v-5h5.01Z" transform="translate(202.243 463.794)"/><path class="c" d="M589.879-134.794h-5v-5h-2.041v5h-5.01v2.052h5.01v5h2.041v-5h5Z" transform="translate(109.36 548.118)"/><path class="c" d="M336.978-304.061h-5.01v-5h-2.042v5h-5.01v2.042h5.01v5.01h2.042v-5.01h5.01Z" transform="translate(-150.545 374.174)"/><path class="c" d="M250.981-271.948h-5.01v-5h-2.042v5h-5.01v2.042h5.01v5.01h2.042v-5.01h5.01Z" transform="translate(-238.918 407.175)"/><path class="c" d="M371.06-170.858h-5.01v-5.01h-2.042v5.01h-5v2.042h5v5.01h2.042v-5.01h5.01Z" transform="translate(-115.508 511.045)"/></g></g><path class="d" d="M1246.69,606.347c19.285,143.525-6.975,287.207-140.546,343.156s-287.207-6.975-343.156-140.546S839.047,595.465,903.534,465.8C1034.487,202.491,1186.8,160.632,1246.69,606.347Z" transform="translate(381.405 -255.14)"/><g transform="translate(-146.702 159.088)"><g transform="translate(1123.428 208.379)"><g transform="translate(222.516)"><path class="e" d="M219.2,394.632c-.829,0-1.666-.013-2.488-.039l.019-.6c1.18.037,2.385.047,3.571.031l.008.6Q219.753,394.631,219.2,394.632Z" transform="translate(-174.047 -275.799)"/><path class="e" d="M235.488,393.861l-.035-.6c1.182-.07,2.379-.168,3.559-.291l.062.594C237.886,393.692,236.679,393.791,235.488,393.861Z" transform="translate(-185.633 -275.167)"/><path class="e" d="M201.508,393.518c-1.192-.091-2.4-.211-3.58-.356l.073-.593c1.175.144,2.37.263,3.553.353Z" transform="translate(-162.439 -274.917)"/><path class="e" d="M254.133,391.381l-.09-.591c1.175-.178,2.358-.385,3.517-.615l.116.586C256.509,390.993,255.317,391.2,254.133,391.381Z" transform="translate(-197.124 -273.438)"/><path class="e" d="M182.889,390.711c-1.178-.2-2.366-.429-3.533-.682l.127-.584c1.158.252,2.337.479,3.506.677Z" transform="translate(-150.959 -272.986)"/><path class="e" d="M272.521,387.207l-.144-.58c1.153-.285,2.312-.6,3.446-.936l.17.573C274.851,386.6,273.683,386.92,272.521,387.207Z" transform="translate(-208.456 -270.666)"/><path class="e" d="M164.606,386.216c-1.155-.307-2.317-.645-3.455-1.005l.18-.57c1.129.357,2.282.692,3.428,1Z" transform="translate(-139.707 -270.017)"/><path class="e" d="M290.5,381.367l-.2-.564c1.119-.389,2.244-.81,3.345-1.25l.222.555C292.757,380.551,291.623,380.975,290.5,381.367Z" transform="translate(-219.534 -266.872)"/><path class="e" d="M146.783,380.046c-1.122-.412-2.251-.857-3.355-1.322l.232-.551c1.1.462,2.216.9,3.329,1.313Z" transform="translate(-128.752 -266.019)"/><path class="e" d="M307.883,373.926l-.247-.544c1.074-.488,2.154-1.009,3.21-1.549l.272.532C310.054,372.909,308.966,373.434,307.883,373.926Z" transform="translate(-230.249 -262.1)"/><path class="e" d="M324.547,364.941l-.3-.519c1.03-.588,2.059-1.206,3.057-1.837l.319.5C326.622,363.726,325.586,364.349,324.547,364.941Z" transform="translate(-240.519 -256.384)"/><path class="e" d="M340.374,354.488l-.342-.49c.97-.678,1.938-1.388,2.878-2.11l.364.474C342.327,353.09,341.352,353.8,340.374,354.488Z" transform="translate(-250.273 -249.773)"/><path class="e" d="M355.23,342.658l-.385-.457c.9-.763,1.8-1.558,2.675-2.364l.406.439C357.048,341.088,356.141,341.889,355.23,342.658Z" transform="translate(-259.429 -242.324)"/><path class="e" d="M368.992,329.549l-.425-.42c.834-.845,1.658-1.719,2.451-2.6l.444.4C370.663,327.817,369.833,328.7,368.992,329.549Z" transform="translate(-267.911 -234.099)"/><path class="e" d="M381.547,315.27l-.462-.379c.753-.917,1.495-1.862,2.2-2.812l.479.358C383.053,313.394,382.305,314.347,381.547,315.27Z" transform="translate(-275.648 -225.167)"/><path class="e" d="M392.783,299.936l-.494-.336c.666-.981,1.319-1.991,1.94-3l.509.313C394.112,297.93,393.454,298.948,392.783,299.936Z" transform="translate(-282.573 -215.598)"/><path class="e" d="M402.607,283.671l-.523-.289c.574-1.038,1.131-2.1,1.657-3.169l.536.265C403.747,281.55,403.185,282.625,402.607,283.671Z" transform="translate(-288.627 -205.47)"/><path class="e" d="M410.924,266.605l-.547-.24c.476-1.088.933-2.2,1.359-3.31l.558.214C411.865,264.387,411.4,265.509,410.924,266.605Z" transform="translate(-293.753 -194.865)"/><path class="e" d="M417.658,248.893l-.567-.188c.373-1.124.725-2.272,1.046-3.414l.575.162C418.389,246.6,418.034,247.76,417.658,248.893Z" transform="translate(-297.903 -183.885)"/><path class="e" d="M422.734,230.711l-.582-.135c.268-1.152.512-2.328.727-3.5l.588.108C423.251,228.365,423,229.55,422.734,230.711Z" transform="translate(-301.032 -172.629)"/><path class="e" d="M426.128,212.189l-.592-.081c.161-1.17.3-2.364.4-3.547l.6.054C426.427,209.807,426.29,211.01,426.128,212.189Z" transform="translate(-303.123 -161.182)"/><path class="e" d="M427.822,193.483l-.6-.027c.053-1.184.08-2.385.08-3.57h.6C427.9,191.08,427.876,192.29,427.822,193.483Z" transform="translate(-304.167 -149.639)"/><path class="e" d="M425.685,162.543c-.119-1.178-.284-1.753-.457-2.926l.591-.087c.174,1.182.324,2.084.445,3.271Z" transform="translate(-302.933 -130.876)"/><path class="e" d="M422.412,144.672c-.228-1.166-.485-2.339-.764-3.488l.581-.141c.282,1.157.541,2.34.77,3.514Z" transform="translate(-300.719 -119.449)"/><path class="e" d="M417.475,126.56c-.333-1.138-.7-2.282-1.082-3.4l.565-.194c.388,1.129.755,2.282,1.091,3.429Z" transform="translate(-297.472 -108.274)"/><path class="e" d="M410.9,109c-.436-1.1-.9-2.2-1.388-3.281l.545-.245c.489,1.086.959,2.2,1.4,3.306Z" transform="translate(-293.221 -97.462)"/><path class="e" d="M402.766,92.133c-.535-1.055-1.1-2.112-1.684-3.142l.52-.294c.587,1.038,1.158,2.1,1.7,3.166Z" transform="translate(-288.008 -87.094)"/><path class="f" d="M343.022,560.482c8.146,9.38,8.116,22.746,8.116,22.746s-13.238-1.842-21.385-11.222-8.116-22.746-8.116-22.746S334.876,551.1,343.022,560.482Z" transform="translate(-238.904 -371.768)"/><path class="f" d="M348.07,343.976c3.589,11.894,14.911,19,14.911,19s5.5-12.18,1.914-24.074-14.911-19-14.911-19S344.481,332.082,348.07,343.976Z" transform="translate(-254.49 -230.002)"/><path class="g" d="M325.887,361.674c9.148,8.406,10.62,21.69,10.62,21.69s-13.361-.343-22.51-8.749-10.62-21.69-10.62-21.69S316.739,353.269,325.887,361.674Z" transform="translate(-227.617 -250.414)"/><path class="e" d="M417.259,457.125c-9.958,7.429-12.776,20.494-12.776,20.494s13.327,1.021,23.285-6.408,12.776-20.494,12.776-20.494S427.217,449.7,417.259,457.125Z" transform="translate(-290.11 -310.829)"/><path class="e" d="M398.607,717.677s-.088.115-.264.321H363.48a31.706,31.706,0,0,1,11.388-4.774C387.078,710.917,398.607,717.677,398.607,717.677Z" transform="translate(-264.766 -472.817)"/><path class="h" d="M372.073,505.577c-.042.21-.088.42-.134.63s-.088.413-.134.619q-.143.665-.3,1.329a100.015,100.015,0,0,1-14.665,33.806H355.46a98.841,98.841,0,0,0,14.928-34.031c.084-.367.168-.733.248-1.1.111-.493.214-.985.317-1.478q.281-1.352.527-2.719c3.8-20.955,2.219-44.9-4.823-73.061-.1-.4-.2-.8-.3-1.2-.015-.05-.027-.1-.038-.145l1.108-.283c.126.493.252.985.37,1.478l.069.264C375.17,459.065,376.545,483.908,372.073,505.577Z" transform="translate(-259.809 -296.78)"/><circle class="f" cx="10.843" cy="10.843" r="10.843" transform="translate(67.287 73.893)"/><path class="f" d="M812.488,612.646c-6.818,7.492-7.045,18.388-7.045,18.388s10.826-1.252,17.643-8.744,7.045-18.388,7.045-18.388S819.306,605.154,812.488,612.646Z" transform="translate(-537.943 -405.542)"/><path class="f" d="M826.16,435.972c-3.15,9.628-12.513,15.2-12.513,15.2s-4.256-10.033-1.106-19.66,12.513-15.2,12.513-15.2S829.31,426.344,826.16,435.972Z" transform="translate(-541.613 -289.593)"/><path class="g" d="M825.53,450.913c-7.616,6.679-9.066,17.48-9.066,17.48s10.9-.028,18.514-6.707,9.066-17.48,9.066-17.48S833.146,444.234,825.53,450.913Z" transform="translate(-544.755 -306.834)"/><path class="g" d="M746.309,525.93c7.977,6.244,10.027,16.947,10.027,16.947s-10.883.58-18.859-5.663-10.027-16.947-10.027-16.947S738.332,519.687,746.309,525.93Z" transform="translate(-489.735 -353.839)"/><path class="e" d="M811.07,588.837h-1.039a83.63,83.63,0,0,1-6.733-19.748c-.111-.531-.218-1.062-.317-1.6-.034-.168-.065-.34-.1-.512a99.994,99.994,0,0,1-1.493-13.275c-.691-14.424,1.417-30.434,6.359-48.509.019-.073.038-.145.061-.218.107-.4.218-.794.328-1.2l.9.252c-.012.038-.019.073-.031.111-.092.328-.183.653-.271.978-4.984,18.133-7.107,34.161-6.412,48.582a100.217,100.217,0,0,0,1.1,10.873q.177,1.123.378,2.234.195,1.06.413,2.116A82.523,82.523,0,0,0,811.07,588.837Z" transform="translate(-535.361 -343.657)"/><circle class="i" cx="8.841" cy="8.841" r="8.841" transform="translate(288.853 113.996)"/><path class="j" d="M558.074,534.427l-.252,7.89-1.115,35.135H524.261l-3.3-35.135-1.627-17.361L510.73,496.55l55.952-11.19s4.3,16.357,6.023,28.406S558.074,534.427,558.074,534.427Z" transform="translate(-355.781 -332.271)"/><path class="k" d="M558.074,534.427l-.252,7.89-1.115,35.135H524.261l-3.3-35.135-1.627-17.361L510.73,496.55l55.952-11.19s4.3,16.357,6.023,28.406S558.074,534.427,558.074,534.427Z" transform="translate(-355.781 -332.271)"/><path class="l" d="M373.5,252.6H0V12L60.47,50.954h-.512V217.463H318.887v-.046Z" transform="translate(0 -7.417)"/><path class="m" d="M12,0,79.585,43.537H326.3V202.466L385.5,240.6V0Z" transform="translate(-7.417)"/><path class="h" d="M615.769,108.818h0c-17.174,0-31.1,15.45-31.1,34.509v24.215h7.447l4.312-8.972-1.078,8.972h47.868l3.919-8.156-.98,8.156h5.39V148.529C651.552,126.6,635.531,108.818,615.769,108.818Z" transform="translate(-401.486 -99.531)"/><path class="n" d="M581.259,397.032l-5.165,19.8,48.2-1.722-.861-16.355S587.284,389.285,581.259,397.032Z" transform="translate(-396.183 -275.792)"/><path class="n" d="M362.9,512.29,378.4,546.722l14.633-18.077-12.051-24.1Z" transform="translate(-224.31 -311.858)"/><circle class="n" cx="19.798" cy="19.798" r="19.798" transform="translate(188.519 23.109)"/><path class="n" d="M654.665,233.821l-9.107,7.592-1.222,1.016-.861,10.33H609.9s4.579-3.968,8.832-8.074c.086-.095.181-.2.284-.293.577-.559,1.093-1.076,1.558-1.541.25-.258.491-.5.706-.723.353-.37.7-.723,1.042-1.076a.03.03,0,0,0,.009-.017,33.575,33.575,0,0,0,2.479-2.909l.009-.009a9.975,9.975,0,0,0,.577-.852c2.582-4.3-3.443-12.912-3.443-12.912l18.938-9.469c.663,9.331,8.556,15.563,12.086,17.9C654.011,233.468,654.665,233.821,654.665,233.821Z" transform="translate(-417.08 -165.09)"/><path class="n" d="M745.73,408.847c-12.912,3.443-13.773-22.381-13.773-22.381l-17.623-35.246a81.512,81.512,0,0,1-7.592-23.645l-4.052-25.467-1.231,1.472v.009l-2.212,1.1L685.8,283.171l-3.77-6.026v-6.886l12.912-6.026h5.165s.112-.017.31-.034c2.376-.25,17.836-1.283,18.628,13.807.312,5.922.285,10.829.124,14.679a113.673,113.673,0,0,0,3,31.687,38.959,38.959,0,0,0,2.9,8.726c3.443,6.026,15.494,53.369,15.494,53.369S758.641,405.4,745.73,408.847Z" transform="translate(-461.662 -195.503)"/><path class="n" d="M542.482,229.045l-3.262,5.948-1.928,3.521-9.443,17.216s-2.677,2.186-7.016,5.01c-7.213,4.691-19.041,11.13-30.859,12.206-18.937,1.722-.861-59.395-.861-59.395s6.026-24.1,14.634-21.52,1.722,11.19-4.3,27.545-.861,34.432-.861,34.432,18.077-11.19,27.545-19.8c4.932-4.485,9.167-5.7,12.086-5.828h.009a10.962,10.962,0,0,1,2.884.224A6.511,6.511,0,0,1,542.482,229.045Z" transform="translate(-337.608 -150.845)"/><path class="o" d="M643.23,275.741c-.034.095-.439.861-3.529,4A41.546,41.546,0,0,0,643.23,275.741Z" transform="translate(-435.498 -202.706)"/><path class="g" d="M639.58,301.1l-.8,1.05-12.542,21.761s-16.355-6.026-28.406-7.747a16.881,16.881,0,0,0-17.207,7.721l3.435-13.747-1.851-6.181c-.215-.723-.465-1.524-.732-2.427-2.582-8.608,6.886-18.077,6.886-18.077l11.225-11.853h.009a10.963,10.963,0,0,1,2.884.224c-.465.465-.981.981-1.558,1.541-.1.095-.2.2-.284.293-3.3,3.366-1.584,4.3-.043,4.554a7.583,7.583,0,0,0,1.541.077c3.59.516,11.449-2.634,17.216-5.268,3.925-1.79,6.886-3.34,6.886-3.34l7.515-6.886,1.128-1.033c1.033.68,1.687,1.033,1.687,1.033h.861s.112-.017.31-.035l-3.919,2.908a14.572,14.572,0,0,0-5.859,12.62h0Z" transform="translate(-398.983 -194.068)"/><path class="h" d="M462.056,415.355l-12.585,4.914s-68.33-26.434-78.66-4.914,36.153,73.168,36.153,73.168l20.659-9.469-8.608-25.824s49.926,42.179,70.585,18.938,6.886-56.1,6.886-56.1S483.576,405.886,462.056,415.355Z" transform="translate(-268.372 -283.786)"/><path class="h" d="M504.952,651.471,497.2,657.5s6.886,27.546,4.3,31.85-7.747,16.355,1.722,15.494,19.8-15.494,20.659-20.659,6.886-20.659,6.886-20.659,10.329-24.1,2.582-24.963-20.086-1.437-20.086-1.437Z" transform="translate(-347.421 -426.076)"/><path class="h" d="M632.935,123.082a16.308,16.308,0,0,0-12.868-6.566h-.611c-11.771,0-21.313,10.651-21.313,23.79h3.944l.637-4.848.934,4.848h23.392l1.96-4.1-.49,4.1h4.6q3.221,16-9.257,31.994h7.839l3.92-8.2-.98,8.2h14.943l2.94-18.868C652.528,139.3,644.318,127.318,632.935,123.082Z" transform="translate(-409.812 -104.289)"/><rect class="p" width="199" height="1" transform="translate(70.758 278.532)"/></g><rect class="q" width="669.032" height="0.86" transform="translate(63.455 246.932)"/><path class="e" d="M516.861,403.821c-.776-.778-1.546-1.581-2.289-2.388l.806-.743c.734.8,1.493,1.59,2.259,2.357Z" transform="translate(-514.572 -164.005)"/><g transform="translate(142.419 175.866)"><rect class="f" width="6.773" height="8.805" transform="translate(1.814)"/><ellipse class="h" cx="26.752" cy="26.752" rx="26.752" ry="26.752" transform="translate(15.036 34.047)"/><path class="h" d="M156.459,438.513l-8-1.448,2.594-16.7,8,1.448Z" transform="translate(-125.003 -341.079)"/><rect class="h" width="8.127" height="14.561" transform="translate(42.048 82.183) rotate(10.261)"/><ellipse class="h" cx="2.54" cy="6.773" rx="2.54" ry="6.773" transform="matrix(0.646, -0.763, 0.763, 0.646, 38.037, 96.596)"/><ellipse class="h" cx="2.54" cy="6.773" rx="2.54" ry="6.773" transform="matrix(0.646, -0.763, 0.763, 0.646, 22.375, 96.132)"/><ellipse class="r" cx="9.143" cy="9.143" rx="9.143" ry="9.143" transform="translate(34.518 45.112)"/><ellipse class="h" cx="3.048" cy="3.048" rx="3.048" ry="3.048" transform="translate(44.371 47.93)"/><path class="g" d="M335.33,295.15c-.4-9.9,8.134-18.293,19.065-18.737s20.12,7.225,20.522,17.129-7.2,12.154-18.129,12.6S335.732,305.054,335.33,295.15Z" transform="translate(-314.645 -263.454)"/><ellipse class="h" cx="13.376" cy="4.199" rx="13.376" ry="4.199" transform="matrix(0.975, -0.223, 0.223, 0.975, 52.513, 54.821)"/><ellipse class="h" cx="13.376" cy="4.199" rx="13.376" ry="4.199" transform="matrix(0.975, -0.223, 0.223, 0.975, 0, 63.553)"/><path class="r" d="M379.513,457.7a6.1,6.1,0,1,0,12,2.172c.6-3.313-1.962-4.485-5.274-5.084S380.113,454.389,379.513,457.7Z" transform="translate(-345.073 -386.36)"/></g></g></g><g class="s" transform="translate(425.117 185.259)"><g transform="translate(94.573 -873.59)"><path class="f" d="M15.711,11.623,9.289,7.535l4.088-6.423L11.623,0,7.538,6.423,1.116,2.335,0,4.085,6.423,8.173,2.335,14.6l1.753,1.116L8.173,9.289,14.6,13.374Z" transform="translate(598.443 298.519)"/><path class="f" d="M15.711,11.623,9.289,7.535l4.088-6.423L11.623,0,7.538,6.423,1.115,2.335,0,4.085,6.423,8.173,2.335,14.6l1.753,1.116L8.173,9.289,14.6,13.374Z" transform="translate(1345.424 772.146)"/><path class="i" d="M20.462,15.138,12.1,9.814l5.324-8.365L15.138,0,9.818,8.365,1.453,3.041,0,5.32l8.365,5.324L3.041,19.009l2.283,1.453,5.32-8.365,8.365,5.32Z" transform="translate(319.128 661.269)"/><path class="f" d="M15.711,11.623,9.289,7.535l4.088-6.423L11.623,0,7.538,6.423,1.115,2.335,0,4.085,6.423,8.173,2.335,14.6l1.753,1.116L8.173,9.289,14.6,13.374Z" transform="translate(911.27 1003.034)"/><path class="i" d="M15.711,11.623,9.289,7.535l4.088-6.423L11.623,0,7.538,6.423,1.116,2.335,0,4.085,6.423,8.173,2.335,14.6l1.753,1.116L8.173,9.289,14.6,13.374Z" transform="translate(280.972 876.917)"/><path class="f" d="M15.711,11.623,9.289,7.535l4.088-6.423L11.623,0,7.538,6.423,1.115,2.335,0,4.085,6.423,8.173,2.335,14.6l1.753,1.116L8.173,9.289,14.6,13.374Z" transform="translate(1638.541 738.439)"/><path class="r" d="M15.711,11.623,9.289,7.535l4.088-6.423L11.623,0,7.538,6.423,1.116,2.335,0,4.085,6.423,8.173,2.335,14.6l1.753,1.115L8.173,9.289,14.6,13.374Z" transform="translate(211.942 740.959)"/><path class="r" d="M22,16.271,13,10.552l5.722-8.993L16.274,0,10.552,8.99,1.562,3.268,0,5.722l8.993,5.719L3.271,20.434,5.722,22,11.444,13l8.99,5.722Z" transform="translate(750.989 650.001)"/><circle class="f" cx="9.427" cy="9.427" r="9.427" transform="translate(0 557.691)"/><circle class="f" cx="9.427" cy="9.427" r="9.427" transform="translate(705.281 194.822)"/><circle class="f" cx="6.037" cy="6.037" r="6.037" transform="translate(594.076 654.957)"/><circle class="f" cx="6.285" cy="6.285" r="6.285" transform="translate(614.155 575.039)"/><circle class="t" cx="6.285" cy="6.285" r="6.285" transform="translate(1326.112 922.327)"/><circle class="g" cx="6.285" cy="6.285" r="6.285" transform="translate(629.501 853.067)"/><circle class="u" cx="6.285" cy="6.285" r="6.285" transform="translate(689.57)"/><circle class="f" cx="6.285" cy="6.285" r="6.285" transform="translate(431.902 292.233)"/><circle class="r" cx="6.285" cy="6.285" r="6.285" transform="translate(510.46 81.7)"/><circle class="f" cx="9.427" cy="9.427" r="9.427" transform="translate(1446.861 644.169)"/><circle class="u" cx="18.142" cy="18.142" r="18.142" transform="translate(1014.321 643.556)"/><circle class="r" cx="9.427" cy="9.427" r="9.427" transform="translate(1041.506 559.327)"/><circle class="v" cx="4.585" cy="4.585" r="4.585" transform="translate(65.139 742.605)"/><circle class="i" cx="9.674" cy="9.674" r="9.674" transform="translate(399.353 956.234)"/><circle class="u" cx="9.674" cy="9.674" r="9.674" transform="translate(1512.045 700.49)"/></g><path class="i" d="M566.92,209.218l-8.552-5.438,5.441-8.552-2.331-1.482-5.441,8.549-8.549-5.441L546,199.187l8.552,5.438-5.441,8.552,2.331,1.485,5.441-8.552,8.549,5.441Z" transform="translate(331.499 -166.927)"/><g transform="translate(850.689 120.406)"><circle class="r" cx="9.675" cy="9.675" r="9.675"/></g></g></g></svg>