<svg xmlns="http://www.w3.org/2000/svg" width="2173.942" height="1522.352" viewBox="0 0 2173.942 1522.352"><defs><style>.a{fill:#0865ab;}.b{fill:#f8f9fa;}.b,.p{opacity:0.1;}.c{opacity:0.3;}.d,.o{fill:#dadce0;}.d{isolation:isolate;}.e{opacity:0.9;}.f{opacity:0.7;}.g{fill:#ed7015;}.h{fill:#eeae1d;}.i{fill:#fff;}.j{fill:#ef7015;}.k{fill:#ee991a;}.l{fill:#ff6584;}.m{fill:#fe6483;}.n{opacity:0.2;}.p,.t{fill:#3f3d56;}.q{fill:#252525;}.r{fill:#e8eaed;}.s{fill:#f1f3f4;}</style></defs><g transform="translate(0 688.33)"><g transform="translate(0 55)"><g transform="translate(0 -738.196)"><path class="a" d="M0,0H1920V795.866H0Z" transform="translate(0 683.196)"/><path class="b" d="M1415.425,720.87c25.83,192.234-9.343,384.677-188.243,459.614S842.5,1171.141,767.568,992.24,869.44,706.3,955.811,532.627C1131.207,179.957,1335.211,123.892,1415.425,720.87Z" transform="translate(242.081 309.374)"/></g></g><g class="c" transform="translate(818.012 91.338)"><circle class="d" cx="5.628" cy="5.628" r="5.628" transform="translate(792.076 222.655)"/><circle class="d" cx="5.628" cy="5.628" r="5.628" transform="translate(41.617 370.536)"/><circle class="d" cx="5.628" cy="5.628" r="5.628" transform="translate(1009.487 402.543)"/><circle class="d" cx="5.628" cy="5.628" r="5.628" transform="translate(313.018 135.844)"/><circle class="d" cx="5.628" cy="5.628" r="5.628" transform="translate(294.531 6.431)"/><circle class="d" cx="5.628" cy="5.628" r="5.628" transform="translate(135.38 262.837)"/><path class="d" d="M707.227-202.977h-5.01v-5h-2.042v5h-5.01v2.053h5.01v5h2.042v-5h5.01Z" transform="translate(229.941 478.051)"/><path class="d" d="M748.592-288.429h-5.01v-5H741.54v5h-5.01v2.053h5.01v5h2.042v-5h5.01Z" transform="translate(272.45 390.237)"/><path class="d" d="M572.446-336.163h-5.01v-5.01h-2.041v5.01h-5.011v2.042h5.011v5.01h2.041v-5.01h5.01Z" transform="translate(91.433 341.173)"/><path class="d" d="M680.263-216.85h-5.01v-5h-2.042v5h-5v2.053h5v5h2.042v-5h5.01Z" transform="translate(202.243 463.794)"/><path class="d" d="M589.879-134.794h-5v-5h-2.041v5h-5.01v2.052h5.01v5h2.041v-5h5Z" transform="translate(109.36 548.118)"/><path class="d" d="M336.978-304.061h-5.01v-5h-2.042v5h-5.01v2.042h5.01v5.01h2.042v-5.01h5.01Z" transform="translate(-150.545 374.174)"/><path class="d" d="M250.981-271.948h-5.01v-5h-2.042v5h-5.01v2.042h5.01v5.01h2.042v-5.01h5.01Z" transform="translate(-238.918 407.175)"/><path class="d" d="M371.06-170.858h-5.01v-5.01h-2.042v5.01h-5v2.042h5v5.01h2.042v-5.01h5.01Z" transform="translate(-115.508 511.045)"/></g><g class="e" transform="translate(425.117 185.259)"><g class="f" transform="translate(94.573 -873.59)"><path class="g" d="M15.711,11.623,9.289,7.535l4.088-6.423L11.623,0,7.538,6.423,1.116,2.335,0,4.085,6.423,8.173,2.335,14.6l1.753,1.116L8.173,9.289,14.6,13.374Z" transform="translate(598.443 298.519)"/><path class="g" d="M15.711,11.623,9.289,7.535l4.088-6.423L11.623,0,7.538,6.423,1.115,2.335,0,4.085,6.423,8.173,2.335,14.6l1.753,1.116L8.173,9.289,14.6,13.374Z" transform="translate(1345.424 772.146)"/><path class="h" d="M20.462,15.138,12.1,9.814l5.324-8.365L15.138,0,9.818,8.365,1.453,3.041,0,5.32l8.365,5.324L3.041,19.009l2.283,1.453,5.32-8.365,8.365,5.32Z" transform="translate(319.128 661.269)"/><path class="g" d="M15.711,11.623,9.289,7.535l4.088-6.423L11.623,0,7.538,6.423,1.115,2.335,0,4.085,6.423,8.173,2.335,14.6l1.753,1.116L8.173,9.289,14.6,13.374Z" transform="translate(911.27 1003.034)"/><path class="h" d="M15.711,11.623,9.289,7.535l4.088-6.423L11.623,0,7.538,6.423,1.116,2.335,0,4.085,6.423,8.173,2.335,14.6l1.753,1.116L8.173,9.289,14.6,13.374Z" transform="translate(280.972 876.917)"/><path class="g" d="M15.711,11.623,9.289,7.535l4.088-6.423L11.623,0,7.538,6.423,1.115,2.335,0,4.085,6.423,8.173,2.335,14.6l1.753,1.116L8.173,9.289,14.6,13.374Z" transform="translate(1638.541 738.439)"/><path class="i" d="M15.711,11.623,9.289,7.535l4.088-6.423L11.623,0,7.538,6.423,1.116,2.335,0,4.085,6.423,8.173,2.335,14.6l1.753,1.115L8.173,9.289,14.6,13.374Z" transform="translate(211.942 740.959)"/><path class="i" d="M22,16.271,13,10.552l5.722-8.993L16.274,0,10.552,8.99,1.562,3.268,0,5.722l8.993,5.719L3.271,20.434,5.722,22,11.444,13l8.99,5.722Z" transform="translate(750.989 650.001)"/><circle class="g" cx="9.427" cy="9.427" r="9.427" transform="translate(0 557.691)"/><circle class="g" cx="9.427" cy="9.427" r="9.427" transform="translate(705.281 194.822)"/><circle class="g" cx="6.037" cy="6.037" r="6.037" transform="translate(594.076 654.957)"/><circle class="g" cx="6.285" cy="6.285" r="6.285" transform="translate(614.155 575.039)"/><circle class="j" cx="6.285" cy="6.285" r="6.285" transform="translate(1326.112 922.327)"/><circle class="k" cx="6.285" cy="6.285" r="6.285" transform="translate(629.501 853.067)"/><circle class="l" cx="6.285" cy="6.285" r="6.285" transform="translate(689.57)"/><circle class="g" cx="6.285" cy="6.285" r="6.285" transform="translate(431.902 292.233)"/><circle class="i" cx="6.285" cy="6.285" r="6.285" transform="translate(510.46 81.7)"/><circle class="g" cx="9.427" cy="9.427" r="9.427" transform="translate(1446.861 644.169)"/><circle class="l" cx="18.142" cy="18.142" r="18.142" transform="translate(1014.321 643.556)"/><circle class="i" cx="9.427" cy="9.427" r="9.427" transform="translate(1041.506 559.327)"/><circle class="m" cx="4.585" cy="4.585" r="4.585" transform="translate(65.139 742.605)"/><circle class="h" cx="9.674" cy="9.674" r="9.674" transform="translate(399.353 956.234)"/><circle class="l" cx="9.674" cy="9.674" r="9.674" transform="translate(1512.045 700.49)"/></g><path class="h" d="M566.92,209.218l-8.552-5.438,5.441-8.552-2.331-1.482-5.441,8.549-8.549-5.441L546,199.187l8.552,5.438-5.441,8.552,2.331,1.485,5.441-8.552,8.549,5.441Z" transform="translate(331.499 -166.927)"/><g transform="translate(850.689 120.406)"><circle class="i" cx="9.675" cy="9.675" r="9.675"/></g></g><g transform="translate(1102.494 522.803)"><rect class="i" width="1.476" height="7.969" transform="matrix(0.894, 0.448, -0.448, 0.894, 143.271, 41.88)"/><path class="j" d="M102.5,9.619a32.84,32.84,0,0,0-46.443,0l-.009.009A32.829,32.829,0,1,0,9.616,56.055l-.006.006L56.053,102.5,102.5,56.062A32.84,32.84,0,0,0,102.5,9.619Z" transform="translate(237.711 -29.187) rotate(13)"/><path class="j" d="M499.827,447.173H218.97a5.735,5.735,0,0,1-1.05-.083L350.753,217.005a9.3,9.3,0,0,1,16.19,0l89.147,154.4,4.271,7.388Z" transform="translate(-182.406 -174.448)"/><path class="n" d="M482.133,353.121H386.241l47.073-68.375,3.387-4.925,1.694-2.463,4.271,7.388Z" transform="translate(-164.711 -80.396)"/><path class="o" d="M801.465,497.139H558.547l47.073-68.375,3.387-4.926,61.34-89.106c4.021-5.84,13.7-6.2,18.424-1.1a11.057,11.057,0,0,1,.883,1.1Z" transform="translate(-327.665 -223.442)"/><rect class="p" width="509.315" height="1.285" transform="translate(0 271.854)"/><ellipse class="q" cx="18.55" cy="5.823" rx="18.55" ry="5.823" transform="translate(218.082 253.605) rotate(-21.176)"/><circle class="q" cx="37.1" cy="37.1" r="37.1" transform="translate(163.225 220.309)"/><rect class="q" width="11.271" height="20.193" transform="translate(183.419 286.525)"/><rect class="q" width="11.271" height="20.193" transform="translate(205.96 286.525)"/><ellipse class="q" cx="9.392" cy="3.522" rx="9.392" ry="3.522" transform="translate(183.419 303.431)"/><ellipse class="q" cx="9.392" cy="3.522" rx="9.392" ry="3.522" transform="translate(205.96 302.961)"/><circle class="i" cx="12.68" cy="12.68" r="12.68" transform="translate(188.584 235.337)"/><circle class="q" cx="4.227" cy="4.227" r="4.227" transform="translate(197.038 243.79)"/><path class="r" d="M442.117,511.9c-3-13.416,6.58-26.972,21.388-30.278s29.241,4.889,32.236,18.3-6.818,18.364-21.626,21.67S445.112,525.317,442.117,511.9Z" transform="translate(-277.78 -288.994)"/><ellipse class="q" cx="18.55" cy="5.823" rx="18.55" ry="5.823" transform="translate(145.894 270.989) rotate(-45)"/><path class="i" d="M473.5,615.1c0,3.631,9.349,10.8,19.724,10.8s20.1-10.223,20.1-13.854-9.727.7-20.1.7S473.5,611.47,473.5,615.1Z" transform="translate(-291.396 -344.308)"/><ellipse class="q" cx="5.823" cy="18.55" rx="5.823" ry="18.55" transform="translate(248.989 251.066) rotate(-68.824)"/><circle class="q" cx="37.1" cy="37.1" r="37.1" transform="translate(268.45 220.309)"/><rect class="q" width="11.271" height="20.193" transform="translate(322.455 306.718) rotate(180)"/><rect class="q" width="11.271" height="20.193" transform="translate(299.914 306.718) rotate(180)"/><ellipse class="q" cx="9.392" cy="3.522" rx="9.392" ry="3.522" transform="translate(303.671 303.431)"/><ellipse class="q" cx="9.392" cy="3.522" rx="9.392" ry="3.522" transform="translate(281.129 302.961)"/><circle class="i" cx="12.68" cy="12.68" r="12.68" transform="translate(291.93 235.337)"/><circle class="q" cx="4.227" cy="4.227" r="4.227" transform="translate(300.383 243.79)"/><path class="a" d="M711.2,511.9c3-13.416-6.58-26.972-21.388-30.278s-29.241,4.889-32.236,18.3,6.818,18.364,21.626,21.67S708.209,525.317,711.2,511.9Z" transform="translate(-369.667 -288.994)"/><ellipse class="q" cx="5.823" cy="18.55" rx="5.823" ry="18.55" transform="translate(325.515 252.99) rotate(-45)"/><path class="i" d="M690.892,615.1c0,3.631-9.349,10.8-19.724,10.8s-20.1-10.223-20.1-13.854,9.727.7,20.1.7S690.892,611.47,690.892,615.1Z" transform="translate(-367.119 -344.308)"/><path class="s" d="M996.661,486.724c0,23.975-14.253,32.346-31.834,32.346s-31.835-8.371-31.835-32.346,31.835-54.475,31.835-54.475S996.661,462.749,996.661,486.724Z" transform="translate(-487.346 -268.251)"/><path class="t" d="M820.961,303.038l.326-20.065,13.569-24.823-13.517,21.676.147-9.022,9.351-17.96-9.313,15.572h0l.264-16.226,10.014-14.3-9.972,11.746.164-29.754-1.035,39.389.085-1.625-10.181-15.584,10.018,18.7-.949,18.122-.028-.481-11.737-16.4,11.7,18.1-.119,2.266-.021.035.01.186-2.407,45.978h3.216l.385-23.749L832.6,286.769Z" transform="translate(-344.64 -55.887)"/><path class="r" d="M57.5,5.4a18.422,18.422,0,0,0-26.053,0l0,0A18.416,18.416,0,1,0,5.394,31.445l0,0L31.444,57.5,57.5,31.449A18.422,18.422,0,0,0,57.5,5.4Z" transform="matrix(0.998, -0.07, 0.07, 0.998, 306.934, -98.457)"/><path class="s" d="M45.974,4.314a14.73,14.73,0,0,0-20.832,0l0,0A14.725,14.725,0,1,0,4.313,25.143l0,0L25.142,45.978,45.974,25.146A14.73,14.73,0,0,0,45.974,4.314Z" transform="translate(229.624 -142.803) rotate(14)"/></g></g></svg>