<svg xmlns="http://www.w3.org/2000/svg" width="1654.253" height="1018.746" viewBox="0 0 1654.253 1018.746"><defs><style>.a{opacity:0.7;}.b{fill:#ed7015;}.c{fill:#eeae1d;}.d{fill:#fff;}.e{fill:#ef7015;}.f{fill:#ee991a;}.g{fill:#ff6584;}.h{fill:#fe6483;}</style></defs><g class="a" transform="translate(-94.573 873.59)"><g transform="translate(94.573 -873.59)"><path class="b" d="M15.711,11.623,9.289,7.535l4.088-6.423L11.623,0,7.538,6.423,1.116,2.335,0,4.085,6.423,8.173,2.335,14.6l1.753,1.116L8.173,9.289,14.6,13.374Z" transform="translate(598.443 298.519)"/><path class="b" d="M15.711,11.623,9.289,7.535l4.088-6.423L11.623,0,7.538,6.423,1.115,2.335,0,4.085,6.423,8.173,2.335,14.6l1.753,1.116L8.173,9.289,14.6,13.374Z" transform="translate(1345.424 772.146)"/><path class="c" d="M20.462,15.138,12.1,9.814l5.324-8.365L15.138,0,9.818,8.365,1.453,3.041,0,5.32l8.365,5.324L3.041,19.009l2.283,1.453,5.32-8.365,8.365,5.32Z" transform="translate(319.128 661.269)"/><path class="b" d="M15.711,11.623,9.289,7.535l4.088-6.423L11.623,0,7.538,6.423,1.115,2.335,0,4.085,6.423,8.173,2.335,14.6l1.753,1.116L8.173,9.289,14.6,13.374Z" transform="translate(911.27 1003.034)"/><path class="c" d="M15.711,11.623,9.289,7.535l4.088-6.423L11.623,0,7.538,6.423,1.116,2.335,0,4.085,6.423,8.173,2.335,14.6l1.753,1.116L8.173,9.289,14.6,13.374Z" transform="translate(280.972 876.917)"/><path class="b" d="M15.711,11.623,9.289,7.535l4.088-6.423L11.623,0,7.538,6.423,1.115,2.335,0,4.085,6.423,8.173,2.335,14.6l1.753,1.116L8.173,9.289,14.6,13.374Z" transform="translate(1638.541 738.439)"/><path class="d" d="M15.711,11.623,9.289,7.535l4.088-6.423L11.623,0,7.538,6.423,1.116,2.335,0,4.085,6.423,8.173,2.335,14.6l1.753,1.115L8.173,9.289,14.6,13.374Z" transform="translate(211.942 740.959)"/><path class="d" d="M22,16.271,13,10.552l5.722-8.993L16.274,0,10.552,8.99,1.562,3.268,0,5.722l8.993,5.719L3.271,20.434,5.722,22,11.444,13l8.99,5.722Z" transform="translate(750.989 650.001)"/><circle class="b" cx="9.427" cy="9.427" r="9.427" transform="translate(0 557.691)"/><circle class="b" cx="9.427" cy="9.427" r="9.427" transform="translate(705.281 194.822)"/><circle class="b" cx="6.037" cy="6.037" r="6.037" transform="translate(594.076 654.957)"/><circle class="b" cx="6.285" cy="6.285" r="6.285" transform="translate(614.155 575.039)"/><circle class="e" cx="6.285" cy="6.285" r="6.285" transform="translate(1326.112 922.327)"/><circle class="f" cx="6.285" cy="6.285" r="6.285" transform="translate(629.501 853.067)"/><circle class="g" cx="6.285" cy="6.285" r="6.285" transform="translate(689.57)"/><circle class="b" cx="6.285" cy="6.285" r="6.285" transform="translate(431.902 292.233)"/><circle class="d" cx="6.285" cy="6.285" r="6.285" transform="translate(510.46 81.7)"/><circle class="b" cx="9.427" cy="9.427" r="9.427" transform="translate(1446.861 644.169)"/><circle class="g" cx="18.142" cy="18.142" r="18.142" transform="translate(1014.321 643.556)"/><circle class="d" cx="9.427" cy="9.427" r="9.427" transform="translate(1041.506 559.327)"/><circle class="h" cx="4.585" cy="4.585" r="4.585" transform="translate(65.139 742.605)"/><circle class="c" cx="9.674" cy="9.674" r="9.674" transform="translate(399.353 956.234)"/><circle class="g" cx="9.674" cy="9.674" r="9.674" transform="translate(1512.045 700.49)"/></g><path class="c" d="M566.92,209.218l-8.552-5.438,5.441-8.552-2.331-1.482-5.441,8.549-8.549-5.441L546,199.187l8.552,5.438-5.441,8.552,2.331,1.485,5.441-8.552,8.549,5.441Z" transform="translate(331.499 -166.927)"/><g transform="translate(850.689 120.406)"><circle class="d" cx="9.675" cy="9.675" r="9.675"/></g></g></svg>