<svg xmlns="http://www.w3.org/2000/svg" width="36.299" height="66.192" viewBox="0 0 36.299 66.192"><defs><style>.a{fill:#eeae1d;}</style></defs><path class="a" d="M152.029,8H124.27A4.276,4.276,0,0,0,120,12.27V69.922a4.276,4.276,0,0,0,4.27,4.27h27.758a4.276,4.276,0,0,0,4.27-4.27V12.27A4.276,4.276,0,0,0,152.029,8Zm-8.883,2.135-.6,2.135h-8.9l-.534-2.135Zm11.018,59.787a2.138,2.138,0,0,1-2.135,2.135H124.27a2.138,2.138,0,0,1-2.135-2.135V12.27a2.138,2.138,0,0,1,2.135-2.135h6.639l.866,3.462a1.068,1.068,0,0,0,1.036.809h10.543a1.068,1.068,0,0,0,1.028-.778l.982-3.492h6.665a2.138,2.138,0,0,1,2.135,2.135Z" transform="translate(-120 -8)"/><path class="a" d="M160.541,456h-7.473a1.068,1.068,0,1,0,0,2.135h7.473a1.068,1.068,0,1,0,0-2.135Z" transform="translate(-147.73 -396.213)"/><path class="a" d="M234.135,456h-1.068a1.068,1.068,0,1,0,0,2.135h1.068a1.068,1.068,0,1,0,0-2.135Z" transform="translate(-217.053 -396.213)"/><path class="a" d="M232.022,208.151a1.068,1.068,0,0,0-1.465.366l-6.406,10.676a1.068,1.068,0,0,0,1.831,1.1l6.406-10.676A1.068,1.068,0,0,0,232.022,208.151Z" transform="translate(-210.12 -181.308)"/><path class="a" d="M297.9,208.4a1.068,1.068,0,1,0-1.667,1.335l3.737,4.671-3.737,4.671a1.068,1.068,0,1,0,1.667,1.335l4.27-5.338a1.068,1.068,0,0,0,0-1.335Z" transform="translate(-272.511 -181.308)"/><path class="a" d="M172.5,220.409a1.068,1.068,0,0,0,1.667-1.335l-3.737-4.671,3.737-4.671A1.068,1.068,0,1,0,172.5,208.4l-4.27,5.338a1.068,1.068,0,0,0,0,1.335Z" transform="translate(-161.593 -181.308)"/></svg>