<svg xmlns="http://www.w3.org/2000/svg" width="63.8" height="59.684" viewBox="0 0 63.8 59.684"><defs><style>.a{fill:#eeae1d;}</style></defs><g transform="translate(0 0)"><path class="a" d="M329.029,144A1.029,1.029,0,0,0,328,145.029v13.377a1.029,1.029,0,0,0,2.058,0V145.029A1.029,1.029,0,0,0,329.029,144Z" transform="translate(-286.839 -128.564)"/><path class="a" d="M329.029,272A1.029,1.029,0,0,0,328,273.029v1.029a1.029,1.029,0,0,0,2.058,0v-1.029A1.029,1.029,0,0,0,329.029,272Z" transform="translate(-286.839 -240.1)"/><path class="a" d="M70.771,24H9.029A1.029,1.029,0,0,0,8,25.029V70.307a1.029,1.029,0,0,0,1.029,1.029H46.074v8.232a4.116,4.116,0,0,0,8.232,0V71.336h6.174a1.03,1.03,0,0,0,.728-.3L71.5,60.744a1.03,1.03,0,0,0,.3-.728V25.029A1.029,1.029,0,0,0,70.771,24ZM52.248,79.568a2.058,2.058,0,0,1-4.116,0V77.51h4.116Zm0-4.116H48.132V74.423h4.116Zm0-3.087H48.132V38.406h4.116Zm0-36.016H48.132v-.786l.121-.243h3.874l.121.243Zm-2.966-3.087.908-1.815.908,1.815ZM61.51,67.823V61.045h6.777Zm8.232-8.836H60.481a1.029,1.029,0,0,0-1.029,1.029v9.261H54.307V35.319a1.039,1.039,0,0,0-.108-.46l-3.087-6.174a1.03,1.03,0,0,0-1.842,0l-3.087,6.174a1.039,1.039,0,0,0-.108.46V69.277H10.058V26.058H69.742Z" transform="translate(-8 -24)"/><path class="a" d="M41.029,58.058H50.29a1.029,1.029,0,1,0,0-2.058H41.029a1.029,1.029,0,1,0,0,2.058Z" transform="translate(-35.884 -51.884)"/><path class="a" d="M45.145,81.029A1.029,1.029,0,0,0,44.116,80H41.029a1.029,1.029,0,1,0,0,2.058h3.087A1.029,1.029,0,0,0,45.145,81.029Z" transform="translate(-35.884 -72.797)"/><path class="a" d="M197.377,88A13.393,13.393,0,0,0,184,101.377a1.029,1.029,0,1,0,2.058,0,11.332,11.332,0,0,1,11.319-11.319,1.029,1.029,0,0,0,0-2.058Z" transform="translate(-161.361 -79.768)"/><path class="a" d="M156.348,184a1.029,1.029,0,0,0-1.029,1.029,10.3,10.3,0,0,1-10.29,10.29,1.029,1.029,0,1,0,0,2.058,12.362,12.362,0,0,0,12.348-12.348A1.029,1.029,0,0,0,156.348,184Z" transform="translate(-126.506 -163.419)"/><path class="a" d="M393.261,122.29a1.029,1.029,0,0,0,2.058,0A10.3,10.3,0,0,0,385.029,112a1.029,1.029,0,0,0,0,2.058A8.241,8.241,0,0,1,393.261,122.29Z" transform="translate(-335.635 -100.681)"/><path class="a" d="M84.348,174.174a6.174,6.174,0,1,0-6.174,6.174,6.174,6.174,0,0,0,6.174-6.174Zm-6.174,4.116a4.116,4.116,0,1,1,4.116-4.116A4.116,4.116,0,0,1,78.174,178.29Z" transform="translate(-63.768 -149.477)"/><path class="a" d="M243.087,288a3.087,3.087,0,1,0,3.087,3.087A3.087,3.087,0,0,0,243.087,288Zm0,4.116a1.029,1.029,0,1,1,1.029-1.029A1.029,1.029,0,0,1,243.087,292.116Z" transform="translate(-210.158 -254.042)"/><path class="a" d="M411.087,70.174A3.087,3.087,0,1,0,408,67.087,3.087,3.087,0,0,0,411.087,70.174Zm0-4.116a1.029,1.029,0,1,1-1.029,1.029A1.029,1.029,0,0,1,411.087,66.058Z" transform="translate(-356.548 -58.855)"/></g></svg>