<svg xmlns="http://www.w3.org/2000/svg" width="65.952" height="66.074" viewBox="0 0 65.952 66.074"><defs><style>.a{fill:#eeae1d;}</style></defs><path class="a" d="M62.138,74.372H53.894a.969.969,0,1,0,0,1.938h8.244a2.351,2.351,0,0,1,2.349,2.349v34.222H2.411V78.659A2.351,2.351,0,0,1,4.76,76.31h8.115a.969.969,0,1,0,0-1.938H4.76A4.292,4.292,0,0,0,.473,78.659V116A4.292,4.292,0,0,0,4.76,120.29H21.034v4.364L18.4,128.325a1.586,1.586,0,0,0,1.288,2.509h27.39a1.586,1.586,0,0,0,1.288-2.509l-2.516-3.509a.963.963,0,0,0-.117-.333V120.29h16.4A4.292,4.292,0,0,0,66.425,116V78.659a4.292,4.292,0,0,0-4.287-4.287Zm0,43.979H40.525a.969.969,0,1,0,0,1.938H43.8V124h-1.71a.969.969,0,1,0,0,1.938h2.181l2.124,2.962H20.377l2.124-2.962h2.31a.969.969,0,0,0,0-1.938H22.972V120.29H36.394a.969.969,0,0,0,0-1.938H4.76A2.351,2.351,0,0,1,2.411,116V114.82H64.486V116A2.351,2.351,0,0,1,62.138,118.351Z" transform="translate(-0.473 -64.761)"/><path class="a" d="M119.668,11.642l15.989,8.576a1.625,1.625,0,0,0,1.54,0l15.989-8.576a1.629,1.629,0,0,0,0-2.872L137.2.194a1.626,1.626,0,0,0-1.54,0L119.668,8.77a1.629,1.629,0,0,0,0,2.872Zm16.759-9.661,15.335,8.225-15.335,8.225-15.335-8.225Z" transform="translate(-103.516 0)"/><path class="a" d="M236.618,136.947l-5.721-3.069a.969.969,0,1,0-.916,1.708l5.214,2.8-15.335,8.225-3.809-2.043a.969.969,0,1,0-.916,1.708l3.955,2.121a1.625,1.625,0,0,0,1.54,0l15.989-8.576a1.629,1.629,0,0,0,0-2.872Z" transform="translate(-186.948 -116.477)"/><path class="a" d="M119.669,139.82l8.28,4.441a.969.969,0,0,0,.916-1.708l-7.772-4.169,5.214-2.8a.969.969,0,0,0-.916-1.708l-5.721,3.069a1.629,1.629,0,0,0,0,2.872Z" transform="translate(-103.517 -116.477)"/><path class="a" d="M326.764,233.229a.969.969,0,0,0,1.312.4l6.09-3.267a1.629,1.629,0,0,0,0-2.872l-5.721-3.069a.969.969,0,1,0-.916,1.708l5.214,2.8-5.582,2.994A.969.969,0,0,0,326.764,233.229Z" transform="translate(-284.496 -195.315)"/><path class="a" d="M119.668,230.358l15.989,8.576a1.625,1.625,0,0,0,1.54,0l6.22-3.336a.969.969,0,0,0-.916-1.708l-6.074,3.258-15.335-8.225,5.214-2.8a.969.969,0,1,0-.916-1.708l-5.722,3.069a1.629,1.629,0,0,0,0,2.872Z" transform="translate(-103.516 -195.315)"/></svg>