<svg xmlns="http://www.w3.org/2000/svg" width="2173.942" height="1302.387" viewBox="0 0 2173.942 1302.387"><defs><style>.a{fill:#eeae1d;}.b{opacity:0.9;}.c{fill:#ed7015;}.d{fill:#fff;}.e{fill:#ef7015;}.f{fill:#ee991a;}.g{fill:#ff6584;}.h{fill:#fe6483;}.i{opacity:0.8;}.j{opacity:0.3;}.k{fill:#dadce0;isolation:isolate;}.l{fill:#f8f9fa;opacity:0.1;}.m,.r{fill:#252525;}.n{fill:#ffb8b8;}.o{fill:#0865ab;}.p{fill:#e8eaed;}.q{fill:#3f3d56;}.r{opacity:0.2;}</style></defs><g transform="translate(0 688.33)"><path class="a" d="M0,0H1920V612H0Z"/><g class="b" transform="translate(425.117 185.259)"><g transform="translate(94.573 -873.59)"><path class="c" d="M15.711,11.623,9.289,7.535l4.088-6.423L11.623,0,7.538,6.423,1.116,2.335,0,4.085,6.423,8.173,2.335,14.6l1.753,1.116L8.173,9.289,14.6,13.374Z" transform="translate(598.443 298.519)"/><path class="c" d="M15.711,11.623,9.289,7.535l4.088-6.423L11.623,0,7.538,6.423,1.115,2.335,0,4.085,6.423,8.173,2.335,14.6l1.753,1.116L8.173,9.289,14.6,13.374Z" transform="translate(1345.424 772.146)"/><path class="a" d="M20.462,15.138,12.1,9.814l5.324-8.365L15.138,0,9.818,8.365,1.453,3.041,0,5.32l8.365,5.324L3.041,19.009l2.283,1.453,5.32-8.365,8.365,5.32Z" transform="translate(319.128 661.269)"/><path class="c" d="M15.711,11.623,9.289,7.535l4.088-6.423L11.623,0,7.538,6.423,1.115,2.335,0,4.085,6.423,8.173,2.335,14.6l1.753,1.116L8.173,9.289,14.6,13.374Z" transform="translate(911.27 1003.034)"/><path class="a" d="M15.711,11.623,9.289,7.535l4.088-6.423L11.623,0,7.538,6.423,1.116,2.335,0,4.085,6.423,8.173,2.335,14.6l1.753,1.116L8.173,9.289,14.6,13.374Z" transform="translate(280.972 876.917)"/><path class="c" d="M15.711,11.623,9.289,7.535l4.088-6.423L11.623,0,7.538,6.423,1.115,2.335,0,4.085,6.423,8.173,2.335,14.6l1.753,1.116L8.173,9.289,14.6,13.374Z" transform="translate(1638.541 738.439)"/><path class="d" d="M15.711,11.623,9.289,7.535l4.088-6.423L11.623,0,7.538,6.423,1.116,2.335,0,4.085,6.423,8.173,2.335,14.6l1.753,1.115L8.173,9.289,14.6,13.374Z" transform="translate(211.942 740.959)"/><path class="d" d="M22,16.271,13,10.552l5.722-8.993L16.274,0,10.552,8.99,1.562,3.268,0,5.722l8.993,5.719L3.271,20.434,5.722,22,11.444,13l8.99,5.722Z" transform="translate(750.989 650.001)"/><circle class="c" cx="9.427" cy="9.427" r="9.427" transform="translate(0 557.691)"/><circle class="c" cx="9.427" cy="9.427" r="9.427" transform="translate(705.281 194.822)"/><circle class="c" cx="6.037" cy="6.037" r="6.037" transform="translate(594.076 654.957)"/><circle class="c" cx="6.285" cy="6.285" r="6.285" transform="translate(614.155 575.039)"/><circle class="e" cx="6.285" cy="6.285" r="6.285" transform="translate(1326.112 922.327)"/><circle class="f" cx="6.285" cy="6.285" r="6.285" transform="translate(629.501 853.067)"/><circle class="g" cx="6.285" cy="6.285" r="6.285" transform="translate(689.57)"/><circle class="c" cx="6.285" cy="6.285" r="6.285" transform="translate(431.902 292.233)"/><circle class="d" cx="6.285" cy="6.285" r="6.285" transform="translate(510.46 81.7)"/><circle class="c" cx="9.427" cy="9.427" r="9.427" transform="translate(1446.861 644.169)"/><circle class="g" cx="18.142" cy="18.142" r="18.142" transform="translate(1014.321 643.556)"/><circle class="d" cx="9.427" cy="9.427" r="9.427" transform="translate(1041.506 559.327)"/><circle class="h" cx="4.585" cy="4.585" r="4.585" transform="translate(65.139 742.605)"/><circle class="a" cx="9.674" cy="9.674" r="9.674" transform="translate(399.353 956.234)"/><circle class="g" cx="9.674" cy="9.674" r="9.674" transform="translate(1512.045 700.49)"/></g><path class="a" d="M566.92,209.218l-8.552-5.438,5.441-8.552-2.331-1.482-5.441,8.549-8.549-5.441L546,199.187l8.552,5.438-5.441,8.552,2.331,1.485,5.441-8.552,8.549,5.441Z" transform="translate(331.499 -166.927)"/><g transform="translate(850.689 120.406)"><circle class="d" cx="9.675" cy="9.675" r="9.675"/></g><g class="i" transform="translate(94.573 -873.59)"><path class="c" d="M15.711,11.623,9.289,7.535l4.088-6.423L11.623,0,7.538,6.423,1.116,2.335,0,4.085,6.423,8.173,2.335,14.6l1.753,1.116L8.173,9.289,14.6,13.374Z" transform="translate(598.443 298.519)"/><path class="c" d="M15.711,11.623,9.289,7.535l4.088-6.423L11.623,0,7.538,6.423,1.115,2.335,0,4.085,6.423,8.173,2.335,14.6l1.753,1.116L8.173,9.289,14.6,13.374Z" transform="translate(1345.424 772.146)"/><path class="c" d="M20.462,15.138,12.1,9.814l5.324-8.365L15.138,0,9.818,8.365,1.453,3.041,0,5.32l8.365,5.324L3.041,19.009l2.283,1.453,5.32-8.365,8.365,5.32Z" transform="translate(319.128 661.269)"/><path class="c" d="M15.711,11.623,9.289,7.535l4.088-6.423L11.623,0,7.538,6.423,1.115,2.335,0,4.085,6.423,8.173,2.335,14.6l1.753,1.116L8.173,9.289,14.6,13.374Z" transform="translate(911.27 1003.034)"/><path class="c" d="M15.711,11.623,9.289,7.535l4.088-6.423L11.623,0,7.538,6.423,1.116,2.335,0,4.085,6.423,8.173,2.335,14.6l1.753,1.116L8.173,9.289,14.6,13.374Z" transform="translate(280.972 876.917)"/><path class="c" d="M15.711,11.623,9.289,7.535l4.088-6.423L11.623,0,7.538,6.423,1.115,2.335,0,4.085,6.423,8.173,2.335,14.6l1.753,1.116L8.173,9.289,14.6,13.374Z" transform="translate(1638.541 738.439)"/><path class="c" d="M15.711,11.623,9.289,7.535l4.088-6.423L11.623,0,7.538,6.423,1.116,2.335,0,4.085,6.423,8.173,2.335,14.6l1.753,1.115L8.173,9.289,14.6,13.374Z" transform="translate(211.942 740.959)"/><path class="c" d="M22,16.271,13,10.552l5.722-8.993L16.274,0,10.552,8.99,1.562,3.268,0,5.722l8.993,5.719L3.271,20.434,5.722,22,11.444,13l8.99,5.722Z" transform="translate(750.989 650.001)"/><circle class="c" cx="9.427" cy="9.427" r="9.427" transform="translate(0 557.691)"/><circle class="c" cx="9.427" cy="9.427" r="9.427" transform="translate(705.281 194.822)"/><circle class="c" cx="6.037" cy="6.037" r="6.037" transform="translate(594.076 654.957)"/><circle class="c" cx="6.285" cy="6.285" r="6.285" transform="translate(614.155 575.039)"/><circle class="c" cx="6.285" cy="6.285" r="6.285" transform="translate(1326.112 922.327)"/><circle class="c" cx="6.285" cy="6.285" r="6.285" transform="translate(629.501 853.067)"/><circle class="c" cx="6.285" cy="6.285" r="6.285" transform="translate(689.57)"/><circle class="c" cx="6.285" cy="6.285" r="6.285" transform="translate(431.902 292.233)"/><circle class="c" cx="6.285" cy="6.285" r="6.285" transform="translate(510.46 81.7)"/><circle class="c" cx="9.427" cy="9.427" r="9.427" transform="translate(1446.861 644.169)"/><circle class="c" cx="18.142" cy="18.142" r="18.142" transform="translate(1014.321 643.556)"/><circle class="c" cx="9.427" cy="9.427" r="9.427" transform="translate(1041.506 559.327)"/><circle class="c" cx="4.585" cy="4.585" r="4.585" transform="translate(65.139 742.605)"/><circle class="c" cx="9.674" cy="9.674" r="9.674" transform="translate(399.353 956.234)"/><circle class="c" cx="9.674" cy="9.674" r="9.674" transform="translate(1512.045 700.49)"/></g></g><g class="j" transform="translate(818.011 91.338)"><circle class="k" cx="5.628" cy="5.628" r="5.628" transform="translate(792.076 222.655)"/><circle class="k" cx="5.628" cy="5.628" r="5.628" transform="translate(41.617 370.536)"/><circle class="k" cx="5.628" cy="5.628" r="5.628" transform="translate(1009.487 402.543)"/><circle class="k" cx="5.628" cy="5.628" r="5.628" transform="translate(313.018 135.844)"/><circle class="k" cx="5.628" cy="5.628" r="5.628" transform="translate(294.531 6.431)"/><circle class="k" cx="5.628" cy="5.628" r="5.628" transform="translate(135.38 262.837)"/><path class="k" d="M707.227-202.977h-5.01v-5h-2.042v5h-5.01v2.053h5.01v5h2.042v-5h5.01Z" transform="translate(229.941 478.051)"/><path class="k" d="M748.592-288.429h-5.01v-5H741.54v5h-5.01v2.053h5.01v5h2.042v-5h5.01Z" transform="translate(272.45 390.237)"/><path class="k" d="M572.446-336.163h-5.01v-5.01h-2.041v5.01h-5.011v2.042h5.011v5.01h2.041v-5.01h5.01Z" transform="translate(91.433 341.173)"/><path class="k" d="M680.263-216.85h-5.01v-5h-2.042v5h-5v2.053h5v5h2.042v-5h5.01Z" transform="translate(202.243 463.794)"/><path class="k" d="M589.879-134.794h-5v-5h-2.041v5h-5.01v2.052h5.01v5h2.041v-5h5Z" transform="translate(109.36 548.118)"/><path class="k" d="M336.978-304.061h-5.01v-5h-2.042v5h-5.01v2.042h5.01v5.01h2.042v-5.01h5.01Z" transform="translate(-150.545 374.174)"/><path class="k" d="M250.981-271.948h-5.01v-5h-2.042v5h-5.01v2.042h5.01v5.01h2.042v-5.01h5.01Z" transform="translate(-238.918 407.175)"/><path class="k" d="M371.06-170.858h-5.01v-5.01h-2.042v5.01h-5v2.042h5v5.01h2.042v-5.01h5.01Z" transform="translate(-115.508 511.045)"/></g><path class="l" d="M1246.69,592.194c19.285,137.506-6.975,275.162-140.546,328.764s-287.207-6.683-343.156-134.652,76.059-204.538,140.546-328.764C1034.487,205.275,1186.8,165.172,1246.69,592.194Z" transform="translate(381.405 -328.53)"/><g transform="translate(-63.564 30.93)"><g transform="translate(758.674 292.791)"><g transform="translate(442.431 -35.389)"><rect class="a" width="10.636" height="13.826" transform="translate(276.235 285.666)"/><rect class="c" width="10.636" height="13.826" transform="translate(447.97 143.381) rotate(90)"/><g transform="translate(351.63 215.082)"><circle class="m" cx="32.03" cy="32.03" r="32.03" transform="translate(14.28 25.27)"/><path class="m" d="M875.1,606.707l9.575-1.733-3.106-19.993-9.575,1.733Z" transform="translate(-816.418 -505.545)"/><rect class="m" width="9.731" height="17.434" transform="translate(49.105 100.055) rotate(169.739)"/><ellipse class="m" cx="8.109" cy="3.041" rx="8.109" ry="3.041" transform="matrix(0.763, -0.646, 0.646, 0.763, 34.495, 106.002)"/><ellipse class="m" cx="8.109" cy="3.041" rx="8.109" ry="3.041" transform="matrix(0.763, -0.646, 0.646, 0.763, 53.246, 105.445)"/><circle class="d" cx="10.947" cy="10.947" r="10.947" transform="translate(33.12 38.519)"/><circle class="m" cx="3.649" cy="3.649" r="3.649" transform="translate(35.919 41.893)"/><path class="c" d="M931.011,510.886c.482-11.858-9.738-21.9-22.826-22.433s-24.089,8.65-24.571,20.508,8.617,14.552,21.7,15.084S930.529,522.744,931.011,510.886Z" transform="translate(-859.435 -488.431)"/><ellipse class="m" cx="5.028" cy="16.015" rx="5.028" ry="16.015" transform="matrix(0.223, -0.975, 0.975, 0.223, 0, 52.788)"/><ellipse class="m" cx="5.028" cy="16.015" rx="5.028" ry="16.015" transform="matrix(0.223, -0.975, 0.975, 0.223, 62.873, 63.243)"/><path class="d" d="M942.457,670.365a7.3,7.3,0,1,1-14.362,2.6c-.718-3.966,2.349-5.37,6.315-6.088S941.74,666.4,942.457,670.365Z" transform="translate(-887.351 -600.442)"/></g><path class="n" d="M396.986,579.942l-1.46,18.987,14.118,1.461-3.408-22.882Z" transform="translate(-202.967 -296.353)"/><path class="m" d="M353.926,343.7h0c12.034,3.708,18.454,17.542,14.338,30.9l-5.229,16.968-5.219-1.608-1.084-7.218-1.182,6.52-33.544-10.337-.985-6.562-1.075,5.927-3.777-1.164,4.106-13.323C325.012,348.428,340.078,339.429,353.926,343.7Z" transform="translate(-209.097 -233.011)"/><path class="n" d="M345.629,449.313a7.9,7.9,0,0,0-9.178,7.269c-.21,2.942.806,6.386,5.366,8.936,9.741,5.448,30.864,17.324,30.864,17.324l40.3,7.74s20.366,16.251,22.918,7.008S416.577,482.7,416.577,482.7l-37.026-9.5-23.593-17.065S351.634,450.372,345.629,449.313Z" transform="translate(-219.491 -287.698)"/><path class="n" d="M232.636,406.641l4.051,11.416,24.306-5.892-6.261-8.47Z" transform="translate(-119.379 -207.159)"/><path class="n" d="M79.717,615.108,61.3,613.266l12.889-12.521,9.207,6.26Z" transform="translate(-31.459 -308.278)"/><circle class="n" cx="15.123" cy="15.123" r="15.123" transform="translate(125.45 118.647)"/><path class="n" d="M334.98,397.1s-8.47,9.943-12.889,11.416-15.467,15.467-9.943,24.674,25.778-2.21,25.778-2.21l-.737-9.207s8.47-14.731,10.311-15.835S334.98,397.1,334.98,397.1Z" transform="translate(-206.256 -260.959)"/><path class="o" d="M333.258,427.777c-5.631-8.478-18.691-6.961-21.931,2.687q-.086.258-.165.524c-2.946,9.943,1.473,26.883,1.473,26.883l6.629,19.886s17.308-8.1,29.829,5.524l-1.841-13.994s5.156-11.784-1.473-20.254C341.56,443.642,337.64,434.373,333.258,427.777Z" transform="translate(-206.007 -273.856)"/><path class="m" d="M136.392,718.226l-.737,5.524s-24.305-4.788-29.461-.368-5.156,7.365-9.207,4.419c-1.722-1.252-.25-4.3,2.011-7.391a37.207,37.207,0,0,1,13.713-11.386c6.078-2.976,14.474-7.3,14.474-8.474,0-1.841,6.629-7.365,9.207-4.419s7.365,11.048,7.365,11.048Z" transform="translate(-96.235 -413.973)"/><path class="m" d="M486.019,720.968s-5.4,19.138-3.435,20.12,5.889,3.926,11.777,3.926c3.48,0,8.673,1.885,12.339,3.427a29.745,29.745,0,0,0,13.557,2.332c3.091-.213,5.719-.938,5.51-2.815-.491-4.417-9.814-5.4-9.814-5.4L506.138,729.8s-1.718-8.1-3.19-8.1a3.223,3.223,0,0,1-2.208-.736Z" transform="translate(-294.272 -427.154)"/><path class="m" d="M353.279,352.143a11.958,11.958,0,0,1,10.435-1.823l.428.132c8.248,2.542,12.635,12.066,9.8,21.273h0l-2.764-.852.6-3.535-1.7,3.2-16.392-5.051-.488-3.3-.542,2.98-3.225-.994q-5.712,10.514-.422,24.418l-5.493-1.693-.975-6.595-1.085,5.96-10.472-3.227,2.014-13.857C336.046,359.277,344.387,352.653,353.279,352.143Z" transform="translate(-216.697 -236.704)"/><path class="p" d="M0,0H125.118V234.171H0Z" transform="translate(204.283 25.803)"/><path class="q" d="M670.633,377.92H514.844V117.459H670.633Zm-154.816-.974H669.659V118.433H515.817Z" transform="translate(-311.048 -117.459)"/><path class="q" d="M671.659,284.538H553.844V176.459H671.659Zm-116.842-.974H670.686V177.433H554.817Z" transform="translate(-331.061 -147.735)"/><path class="q" d="M458.589,143.961l-.688-.688,36.719-36.719,21.559,21.559,58.32-58.32.688.688L516.179,129.49,494.62,107.931Z" transform="translate(-234.975 -35.815)"/><circle class="a" cx="7.303" cy="7.303" r="7.303" transform="translate(252.48 64.263)"/><circle class="o" cx="7.303" cy="7.303" r="7.303" transform="translate(274.388 84.224)"/><circle class="c" cx="7.303" cy="7.303" r="7.303" transform="translate(332.809 26.776)"/><rect class="o" width="88.605" height="8.763" transform="translate(237.388 166.987)"/><path class="q" d="M577.5,447.895H536.608V407h27.75v.974H537.582v38.947h38.947V427.447h.974Z" transform="translate(-275.365 -208.855)"/><path class="c" d="M569.058,433.981l-8.65-11.533,3.116-2.337,5.956,7.94,27.379-27.379,2.753,2.754Z" transform="translate(-287.578 -205.608)"/><path class="m" d="M287.655,542.135s-8.838-11.784-26.883-4.787l-3.314,9.206s-19.15,15.1-8.47,38.3l-.737,34.617-2.946,9.943-53.4-4.419-1.841,16.94,9.575.737s54.135,21.359,62.6,8.1,26.147-65.551,26.147-65.551l45.852,6.866s-1.342,14.35.131,16.191.737,9.575,1.473,11.048.123,5.3.123,5.3l15.213-.5v-7.365s1.841-9.943,1.841-12.521,11.048-36.458-8.1-39.4-52.112-8.339-52.112-8.339Z" transform="translate(-144.385 -331.789)"/><path class="n" d="M335.848,425.178a9.13,9.13,0,0,0-12.648-4.8c-3.042,1.535-5.856,4.583-5.684,10.617.368,12.889,1.1,40.877,1.1,40.877l16.2,44.56s-4.051,29.829,6.629,26.883,3.314-27.988,3.314-27.988l-12.521-42.35,2.946-33.512S338.355,431.762,335.848,425.178Z" transform="translate(-209.784 -272.395)"/></g><path class="r" d="M0,0H1224.571V.8H0Z" transform="translate(0 287.661)"/><g transform="translate(917.395 217.562)"><path class="a" d="M153.1,488.609c.009,19.471-11.562,26.274-25.84,26.281q-.5,0-.99-.011-.993-.021-1.964-.089c-12.886-.906-22.9-8.048-22.911-26.155-.009-18.739,23.929-42.4,25.725-44.149l0,0,.1-.1S153.088,469.14,153.1,488.609Z" transform="translate(-101.393 -444.384)"/><path class="d" d="M158.789,511.912l9.449-13.216-9.472,14.666-.025,1.517q-.993-.021-1.964-.09l1.009-19.479-.008-.151.017-.029.1-1.841-9.51-14.693,9.538,13.314.024.39.762-14.717L150.564,462.4,158.8,475l.786-30.513,0-.1v.1l-.122,24.063L167.565,459l-8.126,11.616-.208,13.178,7.558-12.65L159.2,485.734l-.115,7.327,10.968-17.608-11.01,20.165Z" transform="translate(-133.867 -444.384)"/></g></g></g></g></svg>