<svg xmlns="http://www.w3.org/2000/svg" width="2173.942" height="1329.731" viewBox="0 0 2173.942 1329.731"><defs><style>.a{fill:#eeae1d;}.b{opacity:0.9;}.c{fill:#ed7015;}.d{fill:#fff;}.e{fill:#ef7015;}.f{fill:#ee991a;}.g{fill:#ff6584;}.h{fill:#fe6483;}.i{opacity:0.3;}.j{fill:#dadce0;}.j,.p{isolation:isolate;}.k{fill:#f8f9fa;opacity:0.1;}.l{opacity:0.8;}.m{opacity:0.7;}.n{fill:#0865ab;}.o,.q{fill:#252525;}.o,.p,.r{opacity:0.2;}.r,.s{fill:#e6e6e6;}.t{fill:#ffb8b8;}.u{fill:#2f2e41;}</style></defs><g transform="translate(0 688.33)"><path class="a" d="M0,0H1920V719H0Z" transform="translate(0 -107)"/><g class="b" transform="translate(425.117 185.259)"><g transform="translate(94.573 -873.59)"><path class="c" d="M15.711,11.623,9.289,7.535l4.088-6.423L11.623,0,7.538,6.423,1.116,2.335,0,4.085,6.423,8.173,2.335,14.6l1.753,1.116L8.173,9.289,14.6,13.374Z" transform="translate(598.443 298.519)"/><path class="c" d="M15.711,11.623,9.289,7.535l4.088-6.423L11.623,0,7.538,6.423,1.115,2.335,0,4.085,6.423,8.173,2.335,14.6l1.753,1.116L8.173,9.289,14.6,13.374Z" transform="translate(1345.424 772.146)"/><path class="a" d="M20.462,15.138,12.1,9.814l5.324-8.365L15.138,0,9.818,8.365,1.453,3.041,0,5.32l8.365,5.324L3.041,19.009l2.283,1.453,5.32-8.365,8.365,5.32Z" transform="translate(319.128 661.269)"/><path class="c" d="M15.711,11.623,9.289,7.535l4.088-6.423L11.623,0,7.538,6.423,1.115,2.335,0,4.085,6.423,8.173,2.335,14.6l1.753,1.116L8.173,9.289,14.6,13.374Z" transform="translate(911.27 1003.034)"/><path class="a" d="M15.711,11.623,9.289,7.535l4.088-6.423L11.623,0,7.538,6.423,1.116,2.335,0,4.085,6.423,8.173,2.335,14.6l1.753,1.116L8.173,9.289,14.6,13.374Z" transform="translate(280.972 876.917)"/><path class="c" d="M15.711,11.623,9.289,7.535l4.088-6.423L11.623,0,7.538,6.423,1.115,2.335,0,4.085,6.423,8.173,2.335,14.6l1.753,1.116L8.173,9.289,14.6,13.374Z" transform="translate(1638.541 738.439)"/><path class="d" d="M15.711,11.623,9.289,7.535l4.088-6.423L11.623,0,7.538,6.423,1.116,2.335,0,4.085,6.423,8.173,2.335,14.6l1.753,1.115L8.173,9.289,14.6,13.374Z" transform="translate(211.942 740.959)"/><path class="d" d="M22,16.271,13,10.552l5.722-8.993L16.274,0,10.552,8.99,1.562,3.268,0,5.722l8.993,5.719L3.271,20.434,5.722,22,11.444,13l8.99,5.722Z" transform="translate(750.989 650.001)"/><circle class="c" cx="9.427" cy="9.427" r="9.427" transform="translate(0 557.691)"/><circle class="c" cx="9.427" cy="9.427" r="9.427" transform="translate(705.281 194.822)"/><circle class="c" cx="6.037" cy="6.037" r="6.037" transform="translate(594.076 654.957)"/><circle class="c" cx="6.285" cy="6.285" r="6.285" transform="translate(614.155 575.039)"/><circle class="e" cx="6.285" cy="6.285" r="6.285" transform="translate(1326.112 922.327)"/><circle class="f" cx="6.285" cy="6.285" r="6.285" transform="translate(629.501 853.067)"/><circle class="g" cx="6.285" cy="6.285" r="6.285" transform="translate(689.57)"/><circle class="c" cx="6.285" cy="6.285" r="6.285" transform="translate(431.902 292.233)"/><circle class="d" cx="6.285" cy="6.285" r="6.285" transform="translate(510.46 81.7)"/><circle class="c" cx="9.427" cy="9.427" r="9.427" transform="translate(1446.861 644.169)"/><circle class="g" cx="18.142" cy="18.142" r="18.142" transform="translate(1014.321 643.556)"/><circle class="d" cx="9.427" cy="9.427" r="9.427" transform="translate(1041.506 559.327)"/><circle class="h" cx="4.585" cy="4.585" r="4.585" transform="translate(65.139 742.605)"/><circle class="a" cx="9.674" cy="9.674" r="9.674" transform="translate(399.353 956.234)"/><circle class="g" cx="9.674" cy="9.674" r="9.674" transform="translate(1512.045 700.49)"/></g><path class="a" d="M566.92,209.218l-8.552-5.438,5.441-8.552-2.331-1.482-5.441,8.549-8.549-5.441L546,199.187l8.552,5.438-5.441,8.552,2.331,1.485,5.441-8.552,8.549,5.441Z" transform="translate(331.499 -166.927)"/><g transform="translate(850.689 120.406)"><circle class="d" cx="9.675" cy="9.675" r="9.675"/></g></g><g class="i" transform="translate(818.011 91.338)"><circle class="j" cx="5.628" cy="5.628" r="5.628" transform="translate(792.076 222.655)"/><circle class="j" cx="5.628" cy="5.628" r="5.628" transform="translate(41.617 370.536)"/><circle class="j" cx="5.628" cy="5.628" r="5.628" transform="translate(1009.487 402.543)"/><circle class="j" cx="5.628" cy="5.628" r="5.628" transform="translate(313.018 135.844)"/><circle class="j" cx="5.628" cy="5.628" r="5.628" transform="translate(294.531 6.431)"/><circle class="j" cx="5.628" cy="5.628" r="5.628" transform="translate(135.38 262.837)"/><path class="j" d="M707.227-202.977h-5.01v-5h-2.042v5h-5.01v2.053h5.01v5h2.042v-5h5.01Z" transform="translate(229.941 478.051)"/><path class="j" d="M748.592-288.429h-5.01v-5H741.54v5h-5.01v2.053h5.01v5h2.042v-5h5.01Z" transform="translate(272.45 390.237)"/><path class="j" d="M572.446-336.163h-5.01v-5.01h-2.041v5.01h-5.011v2.042h5.011v5.01h2.041v-5.01h5.01Z" transform="translate(91.433 341.173)"/><path class="j" d="M680.263-216.85h-5.01v-5h-2.042v5h-5v2.053h5v5h2.042v-5h5.01Z" transform="translate(202.243 463.794)"/><path class="j" d="M589.879-134.794h-5v-5h-2.041v5h-5.01v2.052h5.01v5h2.041v-5h5Z" transform="translate(109.36 548.118)"/><path class="j" d="M336.978-304.061h-5.01v-5h-2.042v5h-5.01v2.042h5.01v5.01h2.042v-5.01h5.01Z" transform="translate(-150.545 374.174)"/><path class="j" d="M250.981-271.948h-5.01v-5h-2.042v5h-5.01v2.042h5.01v5.01h2.042v-5.01h5.01Z" transform="translate(-238.918 407.175)"/><path class="j" d="M371.06-170.858h-5.01v-5.01h-2.042v5.01h-5v2.042h5v5.01h2.042v-5.01h5.01Z" transform="translate(-115.508 511.045)"/></g><path class="k" d="M1246.69,606.347c19.285,143.525-6.975,287.207-140.546,343.156s-287.207-6.975-343.156-140.546S839.047,595.465,903.534,465.8C1034.487,202.491,1186.8,160.632,1246.69,606.347Z" transform="translate(381.405 -328.53)"/><g class="l" transform="translate(519.689 -688.33)"><path class="c" d="M15.711,11.623,9.289,7.535l4.088-6.423L11.623,0,7.538,6.423,1.116,2.335,0,4.085,6.423,8.173,2.335,14.6l1.753,1.116L8.173,9.289,14.6,13.374Z" transform="translate(598.443 298.519)"/><path class="c" d="M15.711,11.623,9.289,7.535l4.088-6.423L11.623,0,7.538,6.423,1.115,2.335,0,4.085,6.423,8.173,2.335,14.6l1.753,1.116L8.173,9.289,14.6,13.374Z" transform="translate(1345.424 772.146)"/><path class="c" d="M20.462,15.138,12.1,9.814l5.324-8.365L15.138,0,9.818,8.365,1.453,3.041,0,5.32l8.365,5.324L3.041,19.009l2.283,1.453,5.32-8.365,8.365,5.32Z" transform="translate(319.128 661.269)"/><path class="c" d="M15.711,11.623,9.289,7.535l4.088-6.423L11.623,0,7.538,6.423,1.115,2.335,0,4.085,6.423,8.173,2.335,14.6l1.753,1.116L8.173,9.289,14.6,13.374Z" transform="translate(911.27 1003.034)"/><path class="c" d="M15.711,11.623,9.289,7.535l4.088-6.423L11.623,0,7.538,6.423,1.116,2.335,0,4.085,6.423,8.173,2.335,14.6l1.753,1.116L8.173,9.289,14.6,13.374Z" transform="translate(280.972 876.917)"/><path class="c" d="M15.711,11.623,9.289,7.535l4.088-6.423L11.623,0,7.538,6.423,1.115,2.335,0,4.085,6.423,8.173,2.335,14.6l1.753,1.116L8.173,9.289,14.6,13.374Z" transform="translate(1638.541 738.439)"/><path class="c" d="M15.711,11.623,9.289,7.535l4.088-6.423L11.623,0,7.538,6.423,1.116,2.335,0,4.085,6.423,8.173,2.335,14.6l1.753,1.115L8.173,9.289,14.6,13.374Z" transform="translate(211.942 740.959)"/><path class="c" d="M22,16.271,13,10.552l5.722-8.993L16.274,0,10.552,8.99,1.562,3.268,0,5.722l8.993,5.719L3.271,20.434,5.722,22,11.444,13l8.99,5.722Z" transform="translate(750.989 650.001)"/><circle class="c" cx="9.427" cy="9.427" r="9.427" transform="translate(0 557.691)"/><circle class="c" cx="9.427" cy="9.427" r="9.427" transform="translate(705.281 194.822)"/><circle class="c" cx="6.037" cy="6.037" r="6.037" transform="translate(594.076 654.957)"/><circle class="c" cx="6.285" cy="6.285" r="6.285" transform="translate(614.155 575.039)"/><circle class="c" cx="6.285" cy="6.285" r="6.285" transform="translate(1326.112 922.327)"/><circle class="c" cx="6.285" cy="6.285" r="6.285" transform="translate(629.501 853.067)"/><circle class="c" cx="6.285" cy="6.285" r="6.285" transform="translate(689.57)"/><circle class="c" cx="6.285" cy="6.285" r="6.285" transform="translate(431.902 292.233)"/><circle class="c" cx="6.285" cy="6.285" r="6.285" transform="translate(510.46 81.7)"/><circle class="c" cx="9.427" cy="9.427" r="9.427" transform="translate(1446.861 644.169)"/><circle class="c" cx="18.142" cy="18.142" r="18.142" transform="translate(1014.321 643.556)"/><circle class="c" cx="9.427" cy="9.427" r="9.427" transform="translate(1041.506 559.327)"/><circle class="c" cx="4.585" cy="4.585" r="4.585" transform="translate(65.139 742.605)"/><circle class="c" cx="9.674" cy="9.674" r="9.674" transform="translate(399.353 956.234)"/><circle class="c" cx="9.674" cy="9.674" r="9.674" transform="translate(1512.045 700.49)"/></g><g class="m" transform="translate(425.117 212.259)"><path class="a" d="M566.92,209.218l-8.552-5.438,5.441-8.552-2.331-1.482-5.441,8.549-8.549-5.441L546,199.187l8.552,5.438-5.441,8.552,2.331,1.485,5.441-8.552,8.549,5.441Z" transform="translate(331.499 -166.927)"/></g><g transform="translate(-123 51.458)"><g transform="translate(844.484 -193.155)"><g transform="translate(78.759 493.857)"><g transform="translate(399.865 152.929)"><path class="n" d="M160.382,494.839c.011,22.214-13.191,29.975-29.48,29.983q-.568,0-1.13-.012-1.132-.024-2.241-.1c-14.7-1.034-26.128-9.182-26.138-29.84-.01-21.379,27.3-48.372,29.349-50.368l0,0,.118-.114S160.371,472.627,160.382,494.839Z" transform="translate(-101.393 -444.384)"/><path class="d" d="M160.256,521.425l10.78-15.077L160.229,523.08l-.028,1.731q-1.132-.024-2.241-.1l1.151-22.223-.009-.172.02-.033.109-2.1-10.85-16.763,10.882,15.19.027.445.87-16.791-9.29-17.323,9.4,14.372.9-34.812,0-.116v.114l-.139,27.453,9.232-10.888L161,474.315l-.237,15.034,8.622-14.432-8.656,16.642-.132,8.36,12.514-20.089-12.561,23.005Z" transform="translate(-131.822 -444.384)"/></g><rect class="o" width="700.998" height="0.661" transform="translate(300 233.033)"/><path class="a" d="M104.936,442.688a3.964,3.964,0,1,1,3.964-3.964,3.964,3.964,0,0,1-3.964,3.964Zm0-7.268a3.3,3.3,0,1,0,3.3,3.3A3.3,3.3,0,0,0,104.936,435.421Z" transform="translate(353.533 -285.222)"/><path class="n" d="M256.24,399.24h-8.589v-8.589h8.589Zm-7.928-.661h7.268v-7.268h-7.268Z" transform="translate(258.547 -256.659)"/></g><g transform="translate(513.711)"><circle class="e" cx="0.797" cy="0.797" r="0.797" transform="translate(281.949 722.839)"/><path class="p" d="M893.547,725.541a.8.8,0,0,1-.872,1.311.8.8,0,1,0,.872-1.311Z" transform="translate(-610.464 -2.626)"/><ellipse class="q" cx="1.96" cy="0.797" rx="1.96" ry="0.797" transform="translate(301.286 723.703)"/><path class="p" d="M946.686,727.577c-.068,0-.134,0-.2,0,.989.041,1.761.38,1.761.793s-.772.753-1.761.794c.065,0,.132,0,.2,0,1.083,0,1.96-.357,1.96-.8S947.768,727.577,946.686,727.577Z" transform="translate(-643.439 -3.874)"/><path class="q" d="M912.911,727.638h-9.835v-1.063a.2.2,0,0,0-.2-.2h-5.449a.2.2,0,0,0-.2.2v1.063h-5.715v-.665a.2.2,0,0,0-.2-.2H888.39a.2.2,0,0,0-.2.2v.665h-.8a.2.2,0,0,0-.2.2v13.092a.2.2,0,0,0,.2.2h25.519a.2.2,0,0,0,.2-.2V727.838a.2.2,0,0,0-.2-.2Z" transform="translate(-607.106 -3.138)"/><rect class="e" width="25.917" height="2.525" transform="translate(280.088 729.95)"/><circle class="e" cx="5.05" cy="5.05" r="5.05" transform="translate(287.996 726.162)"/><circle class="q" cx="3.758" cy="3.758" r="3.758" transform="translate(289.288 727.454)"/><path class="d" d="M918.954,742.342a2.9,2.9,0,0,1-.237,1.154,2.839,2.839,0,0,1-.315.556,2.924,2.924,0,1,1-4.082-4.081,2.848,2.848,0,0,1,.556-.316,2.924,2.924,0,0,1,4.078,2.687Z" transform="translate(-622.984 -11.13)"/><path class="r" d="M0,0H.774V563.5H0Z" transform="translate(42.69)"/><path class="s" d="M164.344,230.2a.468.468,0,0,0-.467.467v61.1a.468.468,0,0,0,.467.467h85.125a.468.468,0,0,0,.467-.467v-61.1a.468.468,0,0,0-.467-.467Z" transform="translate(-163.877 300.903)"/><path class="d" d="M252.671,241.494v43.422a1.093,1.093,0,0,1-1.092,1.093H177.866a.914.914,0,0,1-.157-.012,1.092,1.092,0,0,1-.936-1.081V241.494a1.093,1.093,0,0,1,1.092-1.093h73.713a1.093,1.093,0,0,1,1.093,1.092Z" transform="translate(-171.779 294.654)"/><path class="s" d="M227.694,296.365h-47.05a.962.962,0,0,1-.176-.014l22.253-38.545a1.558,1.558,0,0,1,2.712,0l14.934,25.867.715,1.238Z" transform="translate(-174.043 284.473)"/><path class="p" d="M113.13,211.7H97.066l7.885-11.455.568-.825L105.8,199l.716,1.238Z" transform="translate(-59.479 369.142)"/><path class="s" d="M305.683,314.34H264.989l7.886-11.454.568-.825,10.276-14.927a2.079,2.079,0,0,1,3.086-.184,1.847,1.847,0,0,1,.148.184Z" transform="translate(-225.835 266.498)"/><circle class="d" cx="1.549" cy="1.549" r="1.549" transform="translate(41.529 530.971)"/><rect class="r" width="0.774" height="563.498" transform="translate(168.539)"/><path class="s" d="M489.344,230.2a.468.468,0,0,0-.467.467v61.1a.468.468,0,0,0,.467.467h85.125a.468.468,0,0,0,.467-.467v-61.1a.468.468,0,0,0-.467-.467Z" transform="translate(-363.028 300.903)"/><path class="d" d="M577.671,241.494v43.422a1.093,1.093,0,0,1-1.093,1.093H502.866a.913.913,0,0,1-.157-.012,1.092,1.092,0,0,1-.937-1.081V241.494a1.093,1.093,0,0,1,1.092-1.093h73.713a1.093,1.093,0,0,1,1.094,1.092Z" transform="translate(-370.93 294.654)"/><path class="e" d="M552.694,296.365h-47.05a.948.948,0,0,1-.176-.014l22.253-38.545a1.558,1.558,0,0,1,2.712,0l14.934,25.867.715,1.238Z" transform="translate(-373.195 284.473)"/><path class="p" d="M438.13,211.7H422.066l7.885-11.455.568-.825L430.8,199l.716,1.238Z" transform="translate(-258.631 369.142)"/><path class="e" d="M630.683,314.34H589.989l7.886-11.454.568-.825,10.276-14.927a2.079,2.079,0,0,1,3.086-.185,1.818,1.818,0,0,1,.148.185Z" transform="translate(-424.987 266.498)"/><circle class="d" cx="1.549" cy="1.549" r="1.549" transform="translate(167.377 530.971)"/><rect class="r" width="0.774" height="563.498" transform="translate(294.388)"/><path class="s" d="M814.344,230.2a.468.468,0,0,0-.468.467v61.1a.468.468,0,0,0,.468.467h85.125a.468.468,0,0,0,.468-.467v-61.1a.468.468,0,0,0-.468-.467Z" transform="translate(-562.179 300.903)"/><path class="d" d="M902.671,241.494v43.422a1.092,1.092,0,0,1-1.093,1.093H827.866a.911.911,0,0,1-.157-.012,1.092,1.092,0,0,1-.937-1.081V241.494a1.093,1.093,0,0,1,1.093-1.093h73.713a1.093,1.093,0,0,1,1.093,1.092Z" transform="translate(-570.081 294.654)"/><path class="s" d="M877.694,296.365h-47.05a.977.977,0,0,1-.176-.014l22.253-38.545a1.558,1.558,0,0,1,2.712,0l14.934,25.866.715,1.238Z" transform="translate(-572.346 284.473)"/><path class="p" d="M763.13,211.7H747.066l7.885-11.455.568-.825L755.8,199l.716,1.238Z" transform="translate(-457.782 369.142)"/><path class="s" d="M955.683,314.34H914.988l7.886-11.454.568-.825,10.276-14.927a2.08,2.08,0,0,1,3.087-.184,1.862,1.862,0,0,1,.148.184Z" transform="translate(-624.138 266.498)"/><circle class="d" cx="1.549" cy="1.549" r="1.549" transform="translate(293.226 530.971)"/><g transform="translate(171.213 512.909)"><g transform="translate(0 6.5)"><path class="t" d="M838,476.107l.907,6.2a5.485,5.485,0,0,1-6.185,6.226h0a5.485,5.485,0,0,1-4.358-7.409l3.08-7.97L829.806,419.4l9.506-3.606Z" transform="translate(-745.306 -355.257)"/><circle class="t" cx="13.112" cy="13.112" r="13.112" transform="translate(52.703 5.465)"/><path class="t" d="M799.992,360.973l-24.257-.983c2.693-5.9,3.762-11.6,2.623-17.046h16.062C793.574,348.077,795.906,354.24,799.992,360.973Z" transform="translate(-718.442 -317.811)"/><path class="n" d="M778.268,424.245l-35.73,2.622,1.3-20.19c-4.118-9.794-3.46-16.867,1.386-21.552l.439-6.822a10.464,10.464,0,0,1,7.731-9.434l6.191-1.661c8.016,4.7,14.407,4.632,19.012-.655l7.368,3.774a9.885,9.885,0,0,1,5.318,9.889Z" transform="translate(-700.652 -329.946)"/><path class="t" d="M687.506,448.748l-10.086,5.295a4.347,4.347,0,0,1-5.284-.977h0a4.347,4.347,0,0,1,2.392-7.131l7.078-1.448,21.962-8.523,3.606-25.568,10.162,2.622-1.967,30.158Z" transform="translate(-664.633 -352.483)"/><path class="n" d="M840.148,397.668,829,404.224,828.347,378l1.922-.656a9.879,9.879,0,0,1,9.879,9.879Z" transform="translate(-745.486 -335.494)"/><path class="q" d="M758.594,611.5l-9.477-1.483c-1.914-32.38-5.768-62.609-12.65-89.482-15.913,21.087-29.254,52.165-40.647,90.8l-11.145-2.95L713.849,481.2l34.746-.656C762.807,500,758.646,560.094,758.594,611.5Z" transform="translate(-671.636 -388.542)"/><path class="u" d="M677.107,757.378l-16.467-2.308a3.247,3.247,0,0,1-2.681-4.07h0a3.247,3.247,0,0,1,2.668-2.359l2.926-.423,9.252-5.651,7.653,2.041,2.27,6.7a5.039,5.039,0,0,1-5.621,6.072Z" transform="translate(-657.844 -523.227)"/><path class="u" d="M809.987,757.378,793.52,755.07a3.247,3.247,0,0,1-2.682-4.07h0a3.248,3.248,0,0,1,2.668-2.359l2.926-.423,9.252-5.651,7.653,2.041,2.269,6.7a5.038,5.038,0,0,1-5.62,6.072Z" transform="translate(-726.147 -523.227)"/><path class="n" d="M752.656,400.158c-2.981-6.551-8.127-9.089-16.718-5.245l1.158-8.542a16.6,16.6,0,0,1,11.953-13.748h0Z" transform="translate(-697.986 -333.067)"/><path class="q" d="M761.345,303.077s-2.062-16.053,14.768-10.789c0,0,12.021-2.206,15.963,12.83l3.991,15.761-1.945-1.059-.907,1.982-3.152.8-1.349-2.677-.652,3.251-25.818,2.574s11.564-6.839,11.747-19.1l-2.2,2.328Z" transform="translate(-711.005 -291.228)"/></g><circle class="q" cx="6.492" cy="6.492" r="6.492" transform="translate(72.457 1.225)"/><path class="q" d="M805.663,283.981a6.487,6.487,0,0,1,6.489-6.068c-.134-.017-.267-.038-.4-.046a6.492,6.492,0,1,0-.833,12.957c.137.009.271.005.406.006A6.487,6.487,0,0,1,805.663,283.981Z" transform="translate(-733.403 -277.853)"/></g><path class="s" d="M259.259,415.112v10.274a.259.259,0,0,1-.259.259H241.56a.213.213,0,0,1-.037,0,.258.258,0,0,1-.222-.256V415.112a.259.259,0,0,1,.258-.259H259a.258.258,0,0,1,.259.258Z" transform="translate(-211.321 187.755)"/><path class="e" d="M595.259,415.112v10.274a.259.259,0,0,1-.259.259H577.56a.214.214,0,0,1-.037,0,.258.258,0,0,1-.222-.256V415.112a.258.258,0,0,1,.258-.259H595a.258.258,0,0,1,.259.258Z" transform="translate(-417.212 187.755)"/><path class="s" d="M920.259,415.112v10.274a.259.259,0,0,1-.258.259H902.56a.212.212,0,0,1-.037,0,.258.258,0,0,1-.221-.256V415.112a.258.258,0,0,1,.258-.259H920a.259.259,0,0,1,.259.258Z" transform="translate(-616.363 187.755)"/></g></g></g></g></svg>