<svg xmlns="http://www.w3.org/2000/svg" width="139.114" height="19.347" viewBox="0 0 139.114 19.347"><defs><style>.a{fill:#252525;}.b{fill:#ef7015;}</style></defs><g transform="translate(-119.057 -36)"><path class="a" d="M529.911,305.824v-19h12.764v3.238H533.6v4.9h7.545v3H533.6v7.866Z" transform="translate(-410.854 -250.826)"/><path class="a" d="M545.5,305.824v-19H549.2v19Z" transform="translate(-411.088 -250.826)"/><path class="a" d="M553.272,305.824v-19h8.4a5.393,5.393,0,0,1,2.421.549,6.264,6.264,0,0,1,1.914,1.445,6.808,6.808,0,0,1,1.258,2.034,6.113,6.113,0,0,1,.454,2.287,6.311,6.311,0,0,1-.922,3.358,5.292,5.292,0,0,1-2.5,2.181l4.335,7.144h-4.147l-3.881-6.368h-3.639v6.368Zm3.693-9.606h4.629a1.956,1.956,0,0,0,.951-.24,2.436,2.436,0,0,0,.763-.656,3.3,3.3,0,0,0,.507-.977,3.773,3.773,0,0,0,.188-1.2,3.427,3.427,0,0,0-.215-1.23,3.2,3.2,0,0,0-.575-.977,2.594,2.594,0,0,0-.829-.642,2.155,2.155,0,0,0-.949-.228h-4.469Z" transform="translate(-411.204 -250.826)"/><path class="a" d="M582.635,291.8a4.607,4.607,0,0,0-.683-.508,8.393,8.393,0,0,0-1.2-.628,10.431,10.431,0,0,0-1.54-.522,6.709,6.709,0,0,0-1.685-.214,3.775,3.775,0,0,0-2.274.561,1.857,1.857,0,0,0-.749,1.578,1.622,1.622,0,0,0,.281.977,2.422,2.422,0,0,0,.816.683,6.912,6.912,0,0,0,1.352.535q.816.241,1.886.508,1.392.375,2.53.8a6.851,6.851,0,0,1,1.926,1.071,4.418,4.418,0,0,1,1.218,1.539,5.114,5.114,0,0,1,.428,2.207,5.506,5.506,0,0,1-.575,2.609,4.851,4.851,0,0,1-1.551,1.752,6.763,6.763,0,0,1-2.249.976,11.292,11.292,0,0,1-2.663.308,14.322,14.322,0,0,1-4.228-.642,13.1,13.1,0,0,1-3.746-1.819l1.633-3.185a5.136,5.136,0,0,0,.869.628,13.04,13.04,0,0,0,1.485.776,11.385,11.385,0,0,0,1.9.655,8.537,8.537,0,0,0,2.14.268q3.05,0,3.051-1.953a1.6,1.6,0,0,0-.349-1.043,2.937,2.937,0,0,0-.99-.75,9.5,9.5,0,0,0-1.552-.588q-.91-.267-2.033-.589a17.312,17.312,0,0,1-2.369-.817,6.252,6.252,0,0,1-1.673-1.043,3.933,3.933,0,0,1-1-1.391,4.834,4.834,0,0,1-.333-1.887,5.89,5.89,0,0,1,.535-2.568,5.183,5.183,0,0,1,1.484-1.874,6.735,6.735,0,0,1,2.209-1.138,9.128,9.128,0,0,1,2.7-.388,10.482,10.482,0,0,1,3.693.629,13.781,13.781,0,0,1,2.943,1.484Z" transform="translate(-411.453 -250.69)"/><path class="a" d="M602.037,290.064h-6.074v15.761H592.3V290.064h-6.075v-3.238h15.815Z" transform="translate(-411.697 -250.826)"/><path class="b" d="M619.489,305.824V294.452l-4.12,8.268h-2.355l-4.12-8.268v11.372h-4.387v-19h4.762l4.924,9.927,4.95-9.927h4.737v19Z" transform="translate(-411.971 -250.826)"/><path class="b" d="M633,286.826h3.961l6.931,19h-4.5l-1.472-4.254h-5.913l-1.445,4.254h-4.495Zm4.2,11.721-2.22-6.717-2.275,6.717Z" transform="translate(-412.293 -250.826)"/><path class="b" d="M646.067,305.824v-19h4.387v19Z" transform="translate(-412.592 -250.826)"/><path class="b" d="M658.6,294.96v10.864h-4.388v-19h3.425l8.856,11.159V286.826h4.388v19h-3.531Z" transform="translate(-412.714 -250.826)"/></g></svg>