<svg xmlns="http://www.w3.org/2000/svg" xmlns:xlink="http://www.w3.org/1999/xlink" width="2173.942" height="1484.33" viewBox="0 0 2173.942 1484.33"><defs><style>.a{fill:#fff;stroke:#707070;}.b{fill:#f0b01c;}.c{opacity:0.7;}.d{fill:#eeae1d;}.e,.p{fill:#f8f9fa;}.e{opacity:0.1;}.f{opacity:0.3;}.g{fill:#dadce0;isolation:isolate;}.h{clip-path:url(#a);}.i{fill:#ed7015;}.j{fill:#f2b833;}.k{fill:#a0616a;}.l{fill:#252525;}.m{fill:#0865ab;}.n{opacity:0.15;}.o{fill:#d0cde1;}.q{opacity:0.8;}</style><clipPath id="a"><rect class="a" width="762" height="574" transform="translate(912 222)"/></clipPath></defs><g transform="translate(0 688.33)"><g transform="translate(0 55)"><g transform="translate(0 -738.196)"><path class="b" d="M0,0H1920V795.866H0Z" transform="translate(0 683.196)"/><g class="c" transform="translate(1302.62 924.325)"><path class="d" d="M566.92,209.218l-8.552-5.438,5.441-8.552-2.331-1.482-5.441,8.549-8.549-5.441L546,199.187l8.552,5.438-5.441,8.552,2.331,1.485,5.441-8.552,8.549,5.441Z" transform="translate(-546.004 -193.746)"/></g></g><path class="e" d="M1388.364,702.5c24.78,184.422-8.963,369.045-180.594,440.937s-369.045-8.963-440.937-180.594,97.732-274.325,180.594-440.937C1115.7,183.571,1311.41,129.784,1388.364,702.5Z" transform="translate(255.765 -428.823)"/></g><g class="f" transform="translate(818.011 91.338)"><circle class="g" cx="5.628" cy="5.628" r="5.628" transform="translate(792.076 222.655)"/><circle class="g" cx="5.628" cy="5.628" r="5.628" transform="translate(41.617 370.536)"/><circle class="g" cx="5.628" cy="5.628" r="5.628" transform="translate(1009.487 402.543)"/><circle class="g" cx="5.628" cy="5.628" r="5.628" transform="translate(313.018 135.844)"/><circle class="g" cx="5.628" cy="5.628" r="5.628" transform="translate(294.531 6.431)"/><circle class="g" cx="5.628" cy="5.628" r="5.628" transform="translate(135.38 262.837)"/><path class="g" d="M707.227-202.977h-5.01v-5h-2.042v5h-5.01v2.053h5.01v5h2.042v-5h5.01Z" transform="translate(229.941 478.051)"/><path class="g" d="M748.592-288.429h-5.01v-5H741.54v5h-5.01v2.053h5.01v5h2.042v-5h5.01Z" transform="translate(272.45 390.237)"/><path class="g" d="M572.446-336.163h-5.01v-5.01h-2.041v5.01h-5.011v2.042h5.011v5.01h2.041v-5.01h5.01Z" transform="translate(91.433 341.173)"/><path class="g" d="M680.263-216.85h-5.01v-5h-2.042v5h-5v2.053h5v5h2.042v-5h5.01Z" transform="translate(202.243 463.794)"/><path class="g" d="M589.879-134.794h-5v-5h-2.041v5h-5.01v2.052h5.01v5h2.041v-5h5Z" transform="translate(109.36 548.118)"/><path class="g" d="M336.978-304.061h-5.01v-5h-2.042v5h-5.01v2.042h5.01v5.01h2.042v-5.01h5.01Z" transform="translate(-150.545 374.174)"/><path class="g" d="M250.981-271.948h-5.01v-5h-2.042v5h-5.01v2.042h5.01v5.01h2.042v-5.01h5.01Z" transform="translate(-238.918 407.175)"/><path class="g" d="M371.06-170.858h-5.01v-5.01h-2.042v5.01h-5v2.042h5v5.01h2.042v-5.01h5.01Z" transform="translate(-115.508 511.045)"/></g><g class="h"><g transform="translate(1079.414 360.267)"><path class="i" d="M797.867,176.4c0,19.373-4.589,35.321-12.548,48.982a97.854,97.854,0,0,1-8.918,12.807c-29.261,35.789-83.663,55.377-132.832,87.106-145.138,93.656-160.86-56.418-154.3-148.9,2.644-37.315,17.176-71.5,40.262-97.666A153.267,153.267,0,0,1,545.2,63.33c26.21-22.32,60.07-35.827,98.371-35.827,65.711,0,121.826,39.634,144.075,95.485A144.238,144.238,0,0,1,797.867,176.4Z" transform="translate(-270.703 -27.503)"/><path class="j" d="M710.262,88.423,563.344,106.1a153.256,153.256,0,0,1,15.672-15.407Z" transform="translate(-304.521 -54.865)"/><path class="j" d="M917.82,384.833A97.881,97.881,0,0,1,908.9,397.64L783.054,382.5Z" transform="translate(-403.204 -186.95)"/><path class="j" d="M867.338,206.166,654.054,178.5,862.2,190.809A143.483,143.483,0,0,1,867.338,206.166Z" transform="translate(-345.264 -95.324)"/><path class="i" d="M491.366,86.928c0,.38-.011.755-.044,1.124A15.422,15.422,0,1,1,462.3,79.728a14.18,14.18,0,0,1,1.135-1.823,15.418,15.418,0,0,1,27.873,7.767C491.349,86.085,491.366,86.5,491.366,86.928Z" transform="translate(-258.337 -47.266)"/><path class="j" d="M497.654,98.157c0,.38-.011.755-.044,1.124L474.519,96.5l23.081.4C497.638,97.315,497.654,97.733,497.654,98.157Z" transform="translate(-264.626 -58.495)"/><path class="j" d="M487.771,113.615l-21.362,2.572a15.45,15.45,0,0,1-1.631-2.176Z" transform="translate(-260.251 -66.18)"/><path class="j" d="M481.253,82.615l-17.495,2.1a14.176,14.176,0,0,1,1.135-1.823Z" transform="translate(-259.793 -52.256)"/><path class="i" d="M876.565,585.16c-.178.336-.364.661-.566.972a15.422,15.422,0,1,1-21.731-20.956,14.181,14.181,0,0,1,1.857-1.079,15.418,15.418,0,0,1,20.98,19.927C876.946,584.408,876.764,584.785,876.565,585.16Z" transform="translate(-432.157 -267.799)"/><path class="j" d="M884.22,593.6c-.178.336-.364.661-.566.972l-19.1-13.277,20.2,11.17C884.6,592.845,884.419,593.223,884.22,593.6Z" transform="translate(-439.811 -276.236)"/><path class="j" d="M868.092,602.9l-20.076-7.742a15.472,15.472,0,0,1-.42-2.686Z" transform="translate(-432.193 -281.259)"/><path class="j" d="M876.215,572.816l-16.44-6.342a14.18,14.18,0,0,1,1.857-1.079Z" transform="translate(-437.663 -269.096)"/><path class="i" d="M1076.986,117.16c.266.272.519.548.753.835a15.422,15.422,0,1,1-26.586,14.3,14.207,14.207,0,0,1-.461-2.1,15.418,15.418,0,0,1,25.377-13.9C1076.386,116.568,1076.69,116.856,1076.986,117.16Z" transform="translate(-523.337 -65.682)"/><path class="j" d="M1084.118,120.253c.265.272.519.548.753.835l-18.47,14.135,16.8-15.831C1083.518,119.662,1083.822,119.95,1084.118,120.253Z" transform="translate(-530.469 -68.775)"/><path class="j" d="M1088.06,138.039l-13.5,16.757a15.457,15.457,0,0,1-2.686-.419Z" transform="translate(-532.928 -77.15)"/><path class="j" d="M1062.347,123.526l-11.056,13.721a14.176,14.176,0,0,1-.461-2.1Z" transform="translate(-523.476 -70.631)"/><path class="k" d="M569.816,636.956s33.847,1.41,33.847,9.872-38.078,0-38.078,0Z" transform="translate(-305.528 -301.238)"/><path class="l" d="M364.955,726.217l-63.464-4.231-2.821-33.847-14.1,29.616-62.054-8.462c1.41-53.592,23.975-105.773,25.386-112.825s4.781-36.188,4.781-36.188c6.163-13.074,38.459-14.3,63.774-13.116,10.493.479,19.8,1.382,25.541,2.031,3.794.423,6.036.733,6.036.733,10.112,10.422,16.628,24.624,20.633,40.49C383.105,647.578,364.955,726.217,364.955,726.217Z" transform="translate(-151.438 -260.751)"/><circle class="k" cx="35.258" cy="35.258" r="35.258" transform="translate(107.744 67.76)"/><path class="k" d="M287.163,229.879s-9.872,43.72-25.386,56.412,60.643,0,60.643,0-16.924-28.206-4.231-40.9S287.163,229.879,287.163,229.879Z" transform="translate(-168.137 -118.4)"/><path class="m" d="M342.235,443.746l-23.4,2.595-65.452,7.277s-.31-.832-.86-2.341c-4.753-12.961-27.642-76.03-30.167-94.97-2.821-21.155,26.8-46.54,26.8-46.54s28.206-5.641,36.668-5.641,42.309,12.693,42.309,12.693l12.622,113.544,1.086,9.83Z" transform="translate(-151.284 -151.747)"/><path class="n" d="M426.066,529.726l-47.429-27.8s-.832-2.708-2.243-7.277c-.705-2.285-1.565-5.049-2.538-8.18C368.385,468.9,359.2,439.9,351.842,418.721c-11.283-32.437,43.719,57.823,43.719,57.823l2.75,2.13,1.086,9.83c3.794.423,6.036.733,6.036.733C415.545,499.658,422.061,513.86,426.066,529.726Z" transform="translate(-208.84 -200.058)"/><path class="m" d="M367.7,328.886s-14.1,18.334-2.821,50.771,26.8,83.208,26.8,83.208l81.8,47.95,11.282-14.1L408.6,437.48S405.779,330.3,391.676,326.065,367.7,328.886,367.7,328.886Z" transform="translate(-213.417 -160.995)"/><path class="k" d="M246.836,548.259s19.744,40.9,28.206,36.668-21.155-46.54-21.155-46.54Z" transform="translate(-162.362 -256.966)"/><path class="m" d="M175.843,352.77,101.1,414.824s-28.206,19.744,23.975,33.847,56.412,22.565,56.412,22.565,5.641-18.334,12.693-15.513l-60.643-29.616,49.361-29.616Z" transform="translate(-93.485 -173.596)"/><path class="l" d="M174.663,198.554c3.923-1.943,12.586-5.864,19.965-10.587-.517-15.367,1.375-29.318,6.914-36.712,3.109-7.06,9.639-14.128,14.753-19.695,12.558-13.67,40.328-21.3,45.253-14.47,37.251.735,41.173,29.935,41.173,29.935-.194,12.213-12.887,12.6-24.007,12.155,1,8.338-1.658,17-9.342,20.844-14.695,7.347-19.1,16.9-11.756,23.511s20.572,24.246,2.939,28.654-19.838,13.225-14.695,16.9-11.756-6.613-11.756-6.613-2.939,17.633-18.368,13.225a9.281,9.281,0,0,1-4.123-2.921c-4.167,4.579-7.885,7.286-10.686,7.3-16.046.085-14.122-17.688-14.122-17.688s-19.046,5.349-13.1,3.2,6.2-11.235-9.594-20.235S165.805,202.94,174.663,198.554Z" transform="translate(-122.347 -66.598)"/><path class="j" d="M545.381,292.519l-.256-.034.624,2.372a62.34,62.34,0,0,0,2.561,9.737l18.3,69.577a11.793,11.793,0,0,0,9.6,8.654l37.326,5.774a11.793,11.793,0,0,0,12.2-6.088l35.471-66.254a62.25,62.25,0,0,0,3.034-5.667l1.2-2.25-.188-.025a62.713,62.713,0,1,0-119.881-15.8Z" transform="translate(-296.185 -114.494)"/><path class="o" d="M613.179,389.622a12.826,12.826,0,0,1-1.963-.151L572.2,383.435a12.874,12.874,0,0,1-10.485-9.45l-19.131-72.727a65.566,65.566,0,0,1-2.687-10.222l-.484-3.182A66.116,66.116,0,0,1,615.1,214.116l-.169,1.089A65.038,65.038,0,0,0,540.6,288.42l.372,2.38a65.159,65.159,0,0,0,2.664,10.136L562.78,373.7a11.772,11.772,0,0,0,9.588,8.642l39.016,6.036a11.792,11.792,0,0,0,12.182-6.079l.972.52A12.9,12.9,0,0,1,613.179,389.622Z" transform="translate(-293.532 -110.971)"/><rect class="p" width="69.029" height="1.425" transform="translate(305.804 258.661) rotate(-69.885)"/><rect class="p" width="1.425" height="69.029" transform="translate(289.361 187.903) rotate(-2.516)"/><path class="l" d="M626.027,584.6l-49.994-7.734a1.425,1.425,0,1,1,.436-2.817l49.994,7.734a1.425,1.425,0,0,1-.436,2.817Z" transform="translate(-309.679 -272.974)"/><path class="l" d="M628.354,565.324,578.36,557.59a1.425,1.425,0,0,1,.436-2.817l49.994,7.734a1.425,1.425,0,0,1-.436,2.817Z" transform="translate(-310.724 -264.318)"/><path class="l" d="M630.681,546.051l-49.994-7.734a1.425,1.425,0,1,1,.436-2.817l49.994,7.734a1.425,1.425,0,0,1-.436,2.816Z" transform="translate(-311.769 -255.661)"/><path class="l" d="M606.408,592.1c9.917,1.534,18.811-2.749,19.865-9.567l-35.911-5.556C589.308,583.794,596.492,590.564,606.408,592.1Z" transform="translate(-316.611 -274.298)"/><path class="p" d="M635.288,346.733a8.778,8.778,0,0,1-4.865-3.146c-.317-.37-.626-.755-.936-1.14a11.128,11.128,0,0,0-3.672-3.418c-3.27-1.526-7.124.605-10.46,2.892l-.806-1.175c3.668-2.515,7.945-4.838,11.869-3.008a12.349,12.349,0,0,1,4.18,3.817c.3.374.6.747.907,1.106,1.006,1.175,3.013,3.079,5.162,2.639a6.939,6.939,0,0,0,2.476-1.311,13.27,13.27,0,0,1,1.752-1.106,6.979,6.979,0,0,1,7.661,1.083,13.769,13.769,0,0,1,1.039,1.1,5.05,5.05,0,0,0,2.034,1.671c1.165.372,2.4-.293,3.7-1a7.369,7.369,0,0,1,4.313-1.291l.154.021c2.807.434,4.1,3.538,4.833,5.855l-1.359.429c-.995-3.149-2.207-4.715-3.795-4.89a6.266,6.266,0,0,0-3.469,1.13c-1.508.814-3.069,1.656-4.81,1.1a6.163,6.163,0,0,1-2.673-2.089,12.569,12.569,0,0,0-.93-.988,5.6,5.6,0,0,0-6.066-.857,12.029,12.029,0,0,0-1.562.992,8.1,8.1,0,0,1-3.013,1.544A4.685,4.685,0,0,1,635.288,346.733Z" transform="translate(-327.52 -166.55)"/></g></g><g class="q" transform="translate(519.689 -688.33)"><path class="i" d="M15.711,11.623,9.289,7.535l4.088-6.423L11.623,0,7.538,6.423,1.116,2.335,0,4.085,6.423,8.173,2.335,14.6l1.753,1.116L8.173,9.289,14.6,13.374Z" transform="translate(598.443 298.519)"/><path class="i" d="M15.711,11.623,9.289,7.535l4.088-6.423L11.623,0,7.538,6.423,1.115,2.335,0,4.085,6.423,8.173,2.335,14.6l1.753,1.116L8.173,9.289,14.6,13.374Z" transform="translate(1345.424 772.146)"/><path class="i" d="M20.462,15.138,12.1,9.814l5.324-8.365L15.138,0,9.818,8.365,1.453,3.041,0,5.32l8.365,5.324L3.041,19.009l2.283,1.453,5.32-8.365,8.365,5.32Z" transform="translate(319.128 661.269)"/><path class="i" d="M15.711,11.623,9.289,7.535l4.088-6.423L11.623,0,7.538,6.423,1.115,2.335,0,4.085,6.423,8.173,2.335,14.6l1.753,1.116L8.173,9.289,14.6,13.374Z" transform="translate(911.27 1003.034)"/><path class="i" d="M15.711,11.623,9.289,7.535l4.088-6.423L11.623,0,7.538,6.423,1.116,2.335,0,4.085,6.423,8.173,2.335,14.6l1.753,1.116L8.173,9.289,14.6,13.374Z" transform="translate(280.972 876.917)"/><path class="i" d="M15.711,11.623,9.289,7.535l4.088-6.423L11.623,0,7.538,6.423,1.115,2.335,0,4.085,6.423,8.173,2.335,14.6l1.753,1.116L8.173,9.289,14.6,13.374Z" transform="translate(1638.541 738.439)"/><path class="i" d="M15.711,11.623,9.289,7.535l4.088-6.423L11.623,0,7.538,6.423,1.116,2.335,0,4.085,6.423,8.173,2.335,14.6l1.753,1.115L8.173,9.289,14.6,13.374Z" transform="translate(211.942 740.959)"/><path class="i" d="M22,16.271,13,10.552l5.722-8.993L16.274,0,10.552,8.99,1.562,3.268,0,5.722l8.993,5.719L3.271,20.434,5.722,22,11.444,13l8.99,5.722Z" transform="translate(750.989 650.001)"/><circle class="i" cx="9.427" cy="9.427" r="9.427" transform="translate(0 557.691)"/><circle class="i" cx="9.427" cy="9.427" r="9.427" transform="translate(705.281 194.822)"/><circle class="i" cx="6.037" cy="6.037" r="6.037" transform="translate(594.076 654.957)"/><circle class="i" cx="6.285" cy="6.285" r="6.285" transform="translate(614.155 575.039)"/><circle class="i" cx="6.285" cy="6.285" r="6.285" transform="translate(1326.112 922.327)"/><circle class="i" cx="6.285" cy="6.285" r="6.285" transform="translate(629.501 853.067)"/><circle class="i" cx="6.285" cy="6.285" r="6.285" transform="translate(689.57)"/><circle class="i" cx="6.285" cy="6.285" r="6.285" transform="translate(431.902 292.233)"/><circle class="i" cx="6.285" cy="6.285" r="6.285" transform="translate(510.46 81.7)"/><circle class="i" cx="9.427" cy="9.427" r="9.427" transform="translate(1446.861 644.169)"/><circle class="i" cx="18.142" cy="18.142" r="18.142" transform="translate(1014.321 643.556)"/><circle class="i" cx="9.427" cy="9.427" r="9.427" transform="translate(1041.506 559.327)"/><circle class="i" cx="4.585" cy="4.585" r="4.585" transform="translate(65.139 742.605)"/><circle class="i" cx="9.674" cy="9.674" r="9.674" transform="translate(399.353 956.234)"/><circle class="i" cx="9.674" cy="9.674" r="9.674" transform="translate(1512.045 700.49)"/></g></g></svg>