<svg xmlns="http://www.w3.org/2000/svg" width="171.01" height="143.604" viewBox="0 0 171.01 143.604"><defs><style>.a{fill:#e6e6e6;}.b{fill:#dadce0;}.c{fill:#e8eaed;}.d{fill:#252525;}.e{fill:#ed7015;}.f{fill:#fff;}</style></defs><ellipse class="a" cx="18.535" cy="1.414" rx="18.535" ry="1.414" transform="translate(131.598 140.776)"/><ellipse class="a" cx="18.535" cy="1.414" rx="18.535" ry="1.414" transform="translate(41.307 140.776)"/><path class="b" d="M459.3,303.809H333.26a1.988,1.988,0,0,1-1.986-1.986V180.816a1.988,1.988,0,0,1,1.986-1.986H459.3a1.988,1.988,0,0,1,1.986,1.986V301.823A1.988,1.988,0,0,1,459.3,303.809ZM333.26,179.625a1.193,1.193,0,0,0-1.192,1.192V301.823a1.193,1.193,0,0,0,1.192,1.192H459.3a1.193,1.193,0,0,0,1.192-1.192V180.816a1.193,1.193,0,0,0-1.192-1.192Z" transform="translate(-317.241 -178.83)"/><path class="c" d="M364.069,218.831a.8.8,0,0,0-.794.794v32.833a.8.8,0,0,0,.794.794H396.9a.8.8,0,0,0,.794-.794V219.625a.8.8,0,0,0-.794-.794Z" transform="translate(-340.768 -208.239)"/><path class="c" d="M558.649,308.581a.96.96,0,1,0,0,1.92H603.9a.96.96,0,0,0,.032-1.919H558.649Z" transform="translate(-483.704 -274.225)"/><path class="c" d="M558.649,275.581a.96.96,0,1,0,0,1.92h12.942a.96.96,0,1,0,.032-1.919H558.649Z" transform="translate(-483.704 -249.963)"/><path class="c" d="M558.649,342.581a.96.96,0,1,0,0,1.92H603.9a.96.96,0,0,0,.032-1.919H558.649Z" transform="translate(-483.704 -299.222)"/><path class="c" d="M585.83,427.341H523.648c-1.212,0-2.195-.7-2.2-1.562V412.263c0-.862.984-1.562,2.2-1.562H585.83c1.212,0,2.195.7,2.2,1.562v13.515C588.024,426.641,587.042,427.34,585.83,427.341Z" transform="translate(-457.062 -349.305)"/><path class="c" d="M426.83,551.341H364.648c-1.212,0-2.195-.7-2.2-1.562V536.263c0-.862.984-1.562,2.2-1.562H426.83c1.212,0,2.195.7,2.2,1.562v13.515C429.025,550.64,428.042,551.339,426.83,551.341Z" transform="translate(-340.163 -440.472)"/><path class="d" d="M355.987,579.459H293.806c-1.212,0-2.194-.7-2.2-1.562V564.381c0-.862.984-1.562,2.2-1.562h62.182c1.212,0,2.195.7,2.2,1.562V577.9C358.182,578.758,357.2,579.458,355.987,579.459Zm-62.182-16.015c-.727,0-1.317.42-1.318.937V577.9c0,.517.59.937,1.318.937h62.182c.727,0,1.317-.42,1.318-.937V564.381c0-.517-.59-.937-1.318-.937Z" transform="translate(-288.079 -461.144)"/><ellipse class="e" cx="5.5" cy="5" rx="5.5" ry="5" transform="translate(85.01 71.936)"/><ellipse class="e" cx="5" cy="5.5" rx="5" ry="5.5" transform="translate(10.01 104.936)"/><path class="d" d="M657.649,453.206a.96.96,0,1,0,0,1.92h35.978a.96.96,0,1,0,.032-1.919h-36.01Z" transform="translate(-556.491 -380.555)"/><path class="d" d="M657.649,473.206a.96.96,0,1,0,0,1.92h35.978a.96.96,0,1,0,.032-1.919h-36.01Z" transform="translate(-556.491 -395.259)"/><path class="d" d="M372.649,580.206a.96.96,0,1,0,0,1.919h35.979a.96.96,0,1,0,.032-1.919h-36.01Z" transform="translate(-346.955 -473.927)"/><path class="d" d="M372.649,600.206a.96.96,0,1,0,0,1.919h35.979a.96.96,0,1,0,.032-1.919h-36.01Z" transform="translate(-346.955 -488.632)"/><circle class="d" cx="11.404" cy="11.404" r="11.404" transform="translate(139.252 114.616)"/><rect class="d" width="3.464" height="6.207" transform="translate(152.388 134.969)"/><rect class="d" width="3.464" height="6.207" transform="translate(145.459 134.969)"/><ellipse class="d" cx="2.887" cy="1.083" rx="2.887" ry="1.083" transform="translate(150.078 140.166)"/><ellipse class="d" cx="2.887" cy="1.083" rx="2.887" ry="1.083" transform="translate(143.15 140.021)"/><circle class="f" cx="3.897" cy="3.897" r="3.897" transform="translate(146.47 119.235)"/><circle class="d" cx="1.299" cy="1.299" r="1.299" transform="translate(149.068 121.833)"/><path class="a" d="M842.8,588.242c.921-4.124-2.023-8.291-6.574-9.307s-8.988,1.5-9.909,5.626,2.1,5.645,6.647,6.661S841.876,592.366,842.8,588.242Z" transform="translate(-681.079 -472.828)"/><path class="d" d="M325.251,337.114a11.342,11.342,0,0,1-1.173,5.042c-.087.18-.18.355-.278.53H303.9c-.1-.175-.191-.35-.278-.53a11.4,11.4,0,1,1,21.633-5.042Z" transform="translate(-296.042 -286.816)"/><circle class="f" cx="3.897" cy="3.897" r="3.897" transform="translate(14.197 43.513)"/><circle class="d" cx="1.299" cy="1.299" r="1.299" transform="translate(16.795 46.111)"/><path class="e" d="M303.276,302.267c-.921-4.124,2.023-8.29,6.574-9.307s8.988,1.5,9.909,5.626-2.1,5.645-6.647,6.661S304.2,306.391,303.276,302.267Z" transform="translate(-296.532 -262.575)"/><path class="d" d="M312.432,255.83H279.6a1.324,1.324,0,0,0-1.324,1.324v32.833a1.324,1.324,0,0,0,1.324,1.324h32.833a1.324,1.324,0,0,0,1.324-1.324V257.154a1.324,1.324,0,0,0-1.324-1.324Zm.794,34.157a.8.8,0,0,1-.794.794H279.6a.8.8,0,0,1-.794-.794V257.154a.8.8,0,0,1,.794-.794h32.833a.8.8,0,0,1,.794.794Z" transform="translate(-278.274 -235.442)"/><ellipse class="d" cx="5.702" cy="1.79" rx="5.702" ry="1.79" transform="matrix(0.357, -0.934, 0.934, 0.357, 64.816, 122.096)"/><circle class="d" cx="11.404" cy="11.404" r="11.404" transform="translate(44.901 135.448) rotate(-80.783)"/><rect class="d" width="3.464" height="6.207" transform="translate(52.787 134.969)"/><rect class="d" width="3.464" height="6.207" transform="translate(59.716 134.969)"/><ellipse class="d" cx="2.887" cy="1.083" rx="2.887" ry="1.083" transform="translate(52.787 140.166)"/><ellipse class="d" cx="2.887" cy="1.083" rx="2.887" ry="1.083" transform="translate(59.716 140.021)"/><path class="e" d="M455.013,588.242c-.921-4.124,2.023-8.291,6.574-9.307s8.988,1.5,9.909,5.626-2.1,5.645-6.647,6.661S455.934,592.366,455.013,588.242Z" transform="translate(-408.092 -472.828)"/><ellipse class="d" cx="1.79" cy="5.702" rx="1.79" ry="5.702" transform="translate(39.221 119.902) rotate(-64.626)"/><circle class="d" cx="11.124" cy="11.124" r="11.124" transform="translate(142.972 80.132)"/><rect class="d" width="3.38" height="6.055" transform="matrix(1, -0.005, 0.005, 1, 155.827, 99.979)"/><rect class="d" width="3.38" height="6.055" transform="matrix(1, -0.005, 0.005, 1, 149.068, 100.01)"/><ellipse class="d" cx="2.816" cy="1.056" rx="2.816" ry="1.056" transform="translate(147.12 107.201) rotate(-30.266)"/><ellipse class="d" cx="2.816" cy="1.056" rx="2.816" ry="1.056" transform="translate(153.738 107.17) rotate(-30.266)"/><circle class="f" cx="3.802" cy="3.802" r="3.802" transform="translate(150 84.639)"/><circle class="d" cx="1.267" cy="1.267" r="1.267" transform="translate(151.232 85.561)"/><path class="e" d="M855.691,458.5c.879-4.027-2.011-8.078-6.455-9.049s-8.761,1.507-9.64,5.533,2.07,5.5,6.515,6.468S854.811,462.53,855.691,458.5Z" transform="translate(-690.851 -377.642)"/><ellipse class="d" cx="1.746" cy="5.562" rx="1.746" ry="5.562" transform="translate(136.675 85.068) rotate(-67.095)"/><ellipse class="d" cx="1.746" cy="5.562" rx="1.746" ry="5.562" transform="translate(159.403 94.288) rotate(-67.095)"/><path class="f" d="M854.657,537.122a2.535,2.535,0,0,1-5.069.029v-.005c-.006-1.4,1.127-1.7,2.527-1.7S854.651,535.722,854.657,537.122Z" transform="translate(-698.312 -441.018)"/><path class="d" d="M646.924,452.293H584.743c-1.212,0-2.195-.7-2.2-1.562V437.216c0-.862.984-1.562,2.2-1.562h62.182c1.212,0,2.195.7,2.2,1.562v13.515C649.119,451.593,648.136,452.292,646.924,452.293Zm-62.182-16.015c-.727,0-1.317.42-1.318.937V450.73c0,.517.59.937,1.318.937h62.182c.727,0,1.317-.42,1.318-.937V437.216c0-.517-.59-.937-1.318-.937Z" transform="translate(-501.98 -367.651)"/></svg>