<svg xmlns="http://www.w3.org/2000/svg" width="207.617" height="179.768" viewBox="0 0 207.617 179.768"><defs><style>.a{fill:#252525;}.b{fill:#ffb8b8;}.c{fill:#ed7015;}.d{fill:#2f2e41;}.e{fill:#e6e6e6;}.f{fill:#3f3d56;opacity:0.3;}</style></defs><path class="a" d="M366.185,223.562h0c-5.767,0-9.966,4.31-11.381,10.464l-1.755,9.231H354.3L357,235.7l-.569,7.557h1.4l1.04-3.893-.219,3.893H375.52v-9.42C375.52,228.163,371.341,223.562,366.185,223.562Z" transform="translate(-315.592 -194.518)"/><path class="a" d="M351.443,407.993s-8.531,11.86-8.115,16.646,5.826,82.813,5.826,82.813l12.692.624L358.1,451.9l3.121-15.189,7.7,70.744,15.605.416-13.941-91.76-2.7-8.115Z" transform="translate(-308.472 -329.396)"/><path class="b" d="M367.988,273.245s2.7,4.994-.832,8.323-5.2,12.276-5.2,12.276l19.975-1.456-1.665-11.236s-4.37-2.7-3.329-7.491Z" transform="translate(-322.105 -230.852)"/><path class="c" d="M369.756,322.807s1.248,3.745,6.658,3.329a18.564,18.564,0,0,0,9.155-3.329v24.344l-16.646-.624V331.754Z" transform="translate(-327.202 -267.098)"/><path class="a" d="M353.24,328.156l1.248-4.161s-.416-9.779-2.081-13.733c0,0,3.181-10.421,3.671-13.429l-1.59,1.153-9.571,4.578,3.329,17.27,2.289,3.745-2.371,9.84Z" transform="translate(-309.645 -248.102)"/><path class="a" d="M406.1,321.967l4.786-26.009-1.313-6.45,3.81,3.745,7.491,2.289L417.332,315.1l-2.081,4.161,1.029,9.337Z" transform="translate(-354.386 -242.745)"/><path class="b" d="M463.644,475.367s2.081,8.947-2.081,9.987-2.7-9.987-2.7-9.987Z" transform="translate(-392.792 -378.667)"/><path class="b" d="M331.965,440.8s8.012,4.493,5.976,8.268-9.2-4.733-9.2-4.733Z" transform="translate(-297.814 -353.391)"/><path class="a" d="M448.33,312.382l3.121-.416s1.873,2.5,2.081,4.37,3.537,33.5,3.537,33.5c.24.69,0,1.368-.208,7.074l-.624,2.5s-1.248-4.786-6.034-2.289l-.624-2.913s-1.248-11.028-1.248-16.23-.416-10.82-.416-10.82Z" transform="translate(-384.969 -259.169)"/><ellipse class="d" cx="2.959" cy="1.11" rx="2.959" ry="1.11" transform="translate(45.329 177.26)"/><ellipse class="d" cx="2.959" cy="1.11" rx="2.959" ry="1.11" transform="translate(65.301 177.26)"/><path class="a" d="M332.982,317.386l-2.289.208-5.2,20.183s-.632,26.207,4.578,21.223c0,0-1.873-5.41,2.913-7.283V340.69l1.665-9.571Z" transform="translate(-295.421 -263.133)"/><ellipse class="b" cx="0.312" cy="1.04" rx="0.312" ry="1.04" transform="translate(57.224 39.376)"/><ellipse class="b" cx="0.312" cy="1.04" rx="0.312" ry="1.04" transform="translate(43.075 39.376)"/><circle class="b" cx="6.866" cy="6.866" r="6.866" transform="translate(43.595 33.03)"/><path class="a" d="M165.82,122.476l-.175,1.664H170.4l.624-1.249-.132,1.249h5.75l-3.953-6.242-8.739.208-2.081,6.034h3.121Z" transform="translate(-118.376 -86.221)"/><path class="e" d="M627.978,238.611A55.617,55.617,0,1,1,683.6,182.993,55.68,55.68,0,0,1,627.978,238.611Zm0-110.7a55.08,55.08,0,1,0,55.08,55.08A55.142,55.142,0,0,0,627.978,127.913Z" transform="translate(-475.978 -124.175)"/><path class="e" d="M670.394,265.443a40.034,40.034,0,1,1,40.034-40.034A40.079,40.079,0,0,1,670.394,265.443Zm0-79.53a39.5,39.5,0,1,0,39.5,39.5A39.541,39.541,0,0,0,670.394,185.913Z" transform="translate(-518.395 -166.592)"/><path class="e" d="M713.292,292.581a24.273,24.273,0,1,1,24.273-24.273,24.273,24.273,0,0,1-24.273,24.273Zm0-48.009a23.736,23.736,0,1,0,23.736,23.736,23.736,23.736,0,0,0-23.736-23.736Z" transform="translate(-561.293 -209.49)"/><circle class="c" cx="12.325" cy="12.325" r="12.325" transform="translate(139.674 46.492)"/><circle class="c" cx="3.908" cy="3.908" r="3.908" transform="translate(156.909 0)"/><circle class="c" cx="3.908" cy="3.908" r="3.908" transform="translate(107.908 92.891)"/><circle class="e" cx="3.908" cy="3.908" r="3.908" transform="translate(108.446 59.306)"/><circle class="e" cx="3.908" cy="3.908" r="3.908" transform="translate(181.527 32.975)"/><circle class="e" cx="3.908" cy="3.908" r="3.908" transform="translate(196.842 81.607)"/><circle class="c" cx="3.908" cy="3.908" r="3.908" transform="translate(185.468 64.333)"/><circle class="c" cx="3.908" cy="3.908" r="3.908" transform="translate(99.792 27.056)"/><circle class="c" cx="3.908" cy="3.908" r="3.908" transform="translate(162.621 108.524)"/><path class="e" d="M216.152,727.348c3.874,5.189,11.917,5.735,11.917,5.735s1.761-7.866-2.113-13.055-11.917-5.735-11.917-5.735S212.278,722.159,216.152,727.348Z" transform="translate(-213.639 -553.398)"/><path class="e" d="M274.328,746.693c-2.557,3.424-7.863,3.784-7.863,3.784s-1.162-5.191,1.395-8.614,7.863-3.784,7.863-3.784S276.885,743.27,274.328,746.693Z" transform="translate(-252.079 -570.793)"/><rect class="f" width="178.406" height="0.602" transform="translate(2.197 179.166)"/></svg>