<svg xmlns="http://www.w3.org/2000/svg" xmlns:xlink="http://www.w3.org/1999/xlink" width="2173.942" height="1656.757" viewBox="0 0 2173.942 1656.757"><defs><style>.a,.k,.n,.p,.q,.s{fill:#fff;}.a,.m{stroke:#707070;}.b{fill:#f0b01c;}.c{opacity:0.7;}.d{fill:#eeae1d;}.aa,.e{fill:#f8f9fa;}.e,.f{opacity:0.1;}.f,.m,.r{fill:none;}.f{stroke:#000;}.g{opacity:0.3;}.h{fill:#dadce0;isolation:isolate;}.i{opacity:0.8;}.j,.o{fill:#ed7015;}.l{fill:#ef7015;}.m{opacity:0.5;}.n,.o{font-size:18px;}.n{font-family:Poppins-Regular, Poppins;}.o{font-family:Poppins-Medium, Poppins;font-weight:500;}.p{font-size:23px;}.p,.s{font-family:Poppins-Light, Poppins;font-weight:300;}.q{font-size:55px;font-family:Poppins-SemiBold, Poppins;font-weight:600;}.r{stroke:#fff;stroke-width:4px;}.s{font-size:19px;}.t{clip-path:url(#a);}.u{fill:#f2b833;}.v{fill:#a0616a;}.w{fill:#252525;}.x{fill:#0865ab;}.y{opacity:0.15;}.z{fill:#d0cde1;}.ab{opacity:0.9;}.ac{fill:#ee991a;}.ad{fill:#ff6584;}.ae{fill:#fe6483;}</style><clipPath id="a"><rect class="a" width="762" height="574" transform="translate(912 222)"/></clipPath></defs><g transform="translate(0 688.33)"><g transform="translate(0 55)"><g transform="translate(0 -738.196)"><path class="b" d="M0,0H1920V795.866H0Z" transform="translate(0 683.196)"/><g class="c" transform="translate(1302.62 924.325)"><path class="d" d="M566.92,209.218l-8.552-5.438,5.441-8.552-2.331-1.482-5.441,8.549-8.549-5.441L546,199.187l8.552,5.438-5.441,8.552,2.331,1.485,5.441-8.552,8.549,5.441Z" transform="translate(-546.004 -193.746)"/></g></g><path class="e" d="M1510.749,785.568c29.527,219.751-10.68,439.741-215.189,525.4s-439.741-10.68-525.4-215.189,116.454-326.875,215.189-525.4C1185.846,167.226,1419.052,103.137,1510.749,785.568Z" transform="translate(193.879 -428.823)"/></g><g transform="translate(168.482 -2597.677)"><line class="f" x2="653.492" transform="translate(837.5 3393.673)"/></g><g class="g" transform="translate(818.011 91.338)"><circle class="h" cx="5.628" cy="5.628" r="5.628" transform="translate(792.076 222.655)"/><circle class="h" cx="5.628" cy="5.628" r="5.628" transform="translate(41.617 370.536)"/><circle class="h" cx="5.628" cy="5.628" r="5.628" transform="translate(1009.487 402.543)"/><circle class="h" cx="5.628" cy="5.628" r="5.628" transform="translate(313.018 135.844)"/><circle class="h" cx="5.628" cy="5.628" r="5.628" transform="translate(294.531 6.431)"/><circle class="h" cx="5.628" cy="5.628" r="5.628" transform="translate(135.38 262.837)"/><path class="h" d="M707.227-202.977h-5.01v-5h-2.042v5h-5.01v2.053h5.01v5h2.042v-5h5.01Z" transform="translate(229.941 478.051)"/><path class="h" d="M748.592-288.429h-5.01v-5H741.54v5h-5.01v2.053h5.01v5h2.042v-5h5.01Z" transform="translate(272.45 390.237)"/><path class="h" d="M572.446-336.163h-5.01v-5.01h-2.041v5.01h-5.011v2.042h5.011v5.01h2.041v-5.01h5.01Z" transform="translate(91.433 341.173)"/><path class="h" d="M680.263-216.85h-5.01v-5h-2.042v5h-5v2.053h5v5h2.042v-5h5.01Z" transform="translate(202.243 463.794)"/><path class="h" d="M589.879-134.794h-5v-5h-2.041v5h-5.01v2.052h5.01v5h2.041v-5h5Z" transform="translate(109.36 548.118)"/><path class="h" d="M336.978-304.061h-5.01v-5h-2.042v5h-5.01v2.042h5.01v5.01h2.042v-5.01h5.01Z" transform="translate(-150.545 374.174)"/><path class="h" d="M250.981-271.948h-5.01v-5h-2.042v5h-5.01v2.042h5.01v5.01h2.042v-5.01h5.01Z" transform="translate(-238.918 407.175)"/><path class="h" d="M371.06-170.858h-5.01v-5.01h-2.042v5.01h-5v2.042h5v5.01h2.042v-5.01h5.01Z" transform="translate(-115.508 511.045)"/></g><g class="i" transform="translate(519.689 -688.33)"><path class="j" d="M15.711,11.623,9.289,7.535l4.088-6.423L11.623,0,7.538,6.423,1.116,2.335,0,4.085,6.423,8.173,2.335,14.6l1.753,1.116L8.173,9.289,14.6,13.374Z" transform="translate(598.443 298.519)"/><path class="j" d="M15.711,11.623,9.289,7.535l4.088-6.423L11.623,0,7.538,6.423,1.115,2.335,0,4.085,6.423,8.173,2.335,14.6l1.753,1.116L8.173,9.289,14.6,13.374Z" transform="translate(1345.424 772.146)"/><path class="j" d="M20.462,15.138,12.1,9.814l5.324-8.365L15.138,0,9.818,8.365,1.453,3.041,0,5.32l8.365,5.324L3.041,19.009l2.283,1.453,5.32-8.365,8.365,5.32Z" transform="translate(319.128 661.269)"/><path class="j" d="M15.711,11.623,9.289,7.535l4.088-6.423L11.623,0,7.538,6.423,1.115,2.335,0,4.085,6.423,8.173,2.335,14.6l1.753,1.116L8.173,9.289,14.6,13.374Z" transform="translate(911.27 1003.034)"/><path class="j" d="M15.711,11.623,9.289,7.535l4.088-6.423L11.623,0,7.538,6.423,1.116,2.335,0,4.085,6.423,8.173,2.335,14.6l1.753,1.116L8.173,9.289,14.6,13.374Z" transform="translate(280.972 876.917)"/><path class="j" d="M15.711,11.623,9.289,7.535l4.088-6.423L11.623,0,7.538,6.423,1.115,2.335,0,4.085,6.423,8.173,2.335,14.6l1.753,1.116L8.173,9.289,14.6,13.374Z" transform="translate(1638.541 738.439)"/><path class="j" d="M15.711,11.623,9.289,7.535l4.088-6.423L11.623,0,7.538,6.423,1.116,2.335,0,4.085,6.423,8.173,2.335,14.6l1.753,1.115L8.173,9.289,14.6,13.374Z" transform="translate(211.942 740.959)"/><path class="j" d="M22,16.271,13,10.552l5.722-8.993L16.274,0,10.552,8.99,1.562,3.268,0,5.722l8.993,5.719L3.271,20.434,5.722,22,11.444,13l8.99,5.722Z" transform="translate(750.989 650.001)"/><circle class="j" cx="9.427" cy="9.427" r="9.427" transform="translate(0 557.691)"/><circle class="j" cx="9.427" cy="9.427" r="9.427" transform="translate(705.281 194.822)"/><circle class="j" cx="6.037" cy="6.037" r="6.037" transform="translate(594.076 654.957)"/><circle class="j" cx="6.285" cy="6.285" r="6.285" transform="translate(614.155 575.039)"/><circle class="j" cx="6.285" cy="6.285" r="6.285" transform="translate(1326.112 922.327)"/><circle class="j" cx="6.285" cy="6.285" r="6.285" transform="translate(629.501 853.067)"/><circle class="j" cx="6.285" cy="6.285" r="6.285" transform="translate(689.57)"/><circle class="j" cx="6.285" cy="6.285" r="6.285" transform="translate(431.902 292.233)"/><circle class="j" cx="6.285" cy="6.285" r="6.285" transform="translate(510.46 81.7)"/><circle class="j" cx="9.427" cy="9.427" r="9.427" transform="translate(1446.861 644.169)"/><circle class="j" cx="18.142" cy="18.142" r="18.142" transform="translate(1014.321 643.556)"/><circle class="j" cx="9.427" cy="9.427" r="9.427" transform="translate(1041.506 559.327)"/><circle class="j" cx="4.585" cy="4.585" r="4.585" transform="translate(65.139 742.605)"/><circle class="j" cx="9.674" cy="9.674" r="9.674" transform="translate(399.353 956.234)"/><circle class="j" cx="9.674" cy="9.674" r="9.674" transform="translate(1512.045 700.49)"/></g><g transform="translate(0 20)"><path class="k" d="M529.911,305.824v-19h12.764v3.238H533.6v4.9h7.545v3H533.6v7.866Z" transform="translate(-410.854 -250.826)"/><path class="k" d="M545.5,305.824v-19H549.2v19Z" transform="translate(-411.088 -250.826)"/><path class="k" d="M553.272,305.824v-19h8.4a5.393,5.393,0,0,1,2.421.549,6.264,6.264,0,0,1,1.914,1.445,6.808,6.808,0,0,1,1.258,2.034,6.113,6.113,0,0,1,.454,2.287,6.311,6.311,0,0,1-.922,3.358,5.292,5.292,0,0,1-2.5,2.181l4.335,7.144h-4.147l-3.881-6.368h-3.639v6.368Zm3.693-9.606h4.629a1.956,1.956,0,0,0,.951-.24,2.436,2.436,0,0,0,.763-.656,3.3,3.3,0,0,0,.507-.977,3.773,3.773,0,0,0,.188-1.2,3.427,3.427,0,0,0-.215-1.23,3.2,3.2,0,0,0-.575-.977,2.594,2.594,0,0,0-.829-.642,2.155,2.155,0,0,0-.949-.228h-4.469Z" transform="translate(-411.204 -250.826)"/><path class="k" d="M582.635,291.8a4.607,4.607,0,0,0-.683-.508,8.393,8.393,0,0,0-1.2-.628,10.431,10.431,0,0,0-1.54-.522,6.709,6.709,0,0,0-1.685-.214,3.775,3.775,0,0,0-2.274.561,1.857,1.857,0,0,0-.749,1.578,1.622,1.622,0,0,0,.281.977,2.422,2.422,0,0,0,.816.683,6.912,6.912,0,0,0,1.352.535q.816.241,1.886.508,1.392.375,2.53.8a6.851,6.851,0,0,1,1.926,1.071,4.418,4.418,0,0,1,1.218,1.539,5.114,5.114,0,0,1,.428,2.207,5.506,5.506,0,0,1-.575,2.609,4.851,4.851,0,0,1-1.551,1.752,6.763,6.763,0,0,1-2.249.976,11.292,11.292,0,0,1-2.663.308,14.322,14.322,0,0,1-4.228-.642,13.1,13.1,0,0,1-3.746-1.819l1.633-3.185a5.136,5.136,0,0,0,.869.628,13.04,13.04,0,0,0,1.485.776,11.385,11.385,0,0,0,1.9.655,8.537,8.537,0,0,0,2.14.268q3.05,0,3.051-1.953a1.6,1.6,0,0,0-.349-1.043,2.937,2.937,0,0,0-.99-.75,9.5,9.5,0,0,0-1.552-.588q-.91-.267-2.033-.589a17.312,17.312,0,0,1-2.369-.817,6.252,6.252,0,0,1-1.673-1.043,3.933,3.933,0,0,1-1-1.391,4.834,4.834,0,0,1-.333-1.887,5.89,5.89,0,0,1,.535-2.568,5.183,5.183,0,0,1,1.484-1.874,6.735,6.735,0,0,1,2.209-1.138,9.128,9.128,0,0,1,2.7-.388,10.482,10.482,0,0,1,3.693.629,13.781,13.781,0,0,1,2.943,1.484Z" transform="translate(-411.453 -250.69)"/><path class="k" d="M602.037,290.064h-6.074v15.761H592.3V290.064h-6.075v-3.238h15.815Z" transform="translate(-411.697 -250.826)"/><path class="l" d="M619.489,305.824V294.452l-4.12,8.268h-2.355l-4.12-8.268v11.372h-4.387v-19h4.762l4.924,9.927,4.95-9.927h4.737v19Z" transform="translate(-411.971 -250.826)"/><path class="l" d="M633,286.826h3.961l6.931,19h-4.5l-1.472-4.254h-5.913l-1.445,4.254h-4.495Zm4.2,11.721-2.22-6.717-2.275,6.717Z" transform="translate(-412.293 -250.826)"/><path class="l" d="M646.067,305.824v-19h4.387v19Z" transform="translate(-412.592 -250.826)"/><path class="l" d="M658.6,294.96v10.864h-4.388v-19h3.425l8.856,11.159V286.826h4.388v19h-3.531Z" transform="translate(-412.714 -250.826)"/><g transform="translate(-27.5 -1.5)"><g transform="translate(1713 35)"><g transform="translate(0 0)"><path class="k" d="M10,20A10,10,0,1,1,20,10,10.011,10.011,0,0,1,10,20ZM10,2a8,8,0,1,0,5.657,2.344A8.009,8.009,0,0,0,10,2Z" transform="translate(0 0)"/><path class="k" d="M7.294,8.294A1,1,0,0,1,6.584,8L.294,1.714A1,1,0,0,1,1.714.294L8,6.574a1.01,1.01,0,0,1-.71,1.72Z" transform="translate(15.706 15.706)"/></g></g><line class="m" y2="25" transform="translate(1761.5 34.5)"/><line class="m" y2="25" transform="translate(1687.5 34.5)"/></g><g transform="translate(-20)"><g transform="translate(1834.512 36)"><path class="k" d="M20.282,5.847a7.267,7.267,0,0,0-.462-2.413A5.094,5.094,0,0,0,16.91.524,7.285,7.285,0,0,0,14.5.062C13.433.012,13.095,0,10.395,0S7.357.012,6.3.058A7.269,7.269,0,0,0,3.884.521,4.852,4.852,0,0,0,2.12,1.671,4.9,4.9,0,0,0,.974,3.43,7.286,7.286,0,0,0,.511,5.843c-.051,1.065-.062,1.4-.062,4.1s.012,3.038.058,4.1A7.266,7.266,0,0,0,.97,16.457a5.094,5.094,0,0,0,2.91,2.91,7.286,7.286,0,0,0,2.413.462c1.06.047,1.4.058,4.1.058s3.038-.012,4.1-.058a7.265,7.265,0,0,0,2.412-.462,5.087,5.087,0,0,0,2.91-2.91,7.291,7.291,0,0,0,.462-2.413c.047-1.061.058-1.4.058-4.1S20.328,6.907,20.282,5.847Zm-1.791,8.12a5.451,5.451,0,0,1-.342,1.845A3.3,3.3,0,0,1,16.261,17.7a5.47,5.47,0,0,1-1.845.342c-1.049.047-1.364.058-4.017.058s-2.972-.012-4.017-.058A5.448,5.448,0,0,1,4.536,17.7a3.06,3.06,0,0,1-1.142-.742,3.092,3.092,0,0,1-.742-1.142A5.471,5.471,0,0,1,2.31,13.97c-.047-1.049-.058-1.364-.058-4.017s.012-2.972.058-4.017a5.448,5.448,0,0,1,.342-1.845A3.023,3.023,0,0,1,3.4,2.949,3.087,3.087,0,0,1,4.54,2.207a5.474,5.474,0,0,1,1.845-.342c1.049-.047,1.364-.058,4.017-.058s2.972.012,4.017.058a5.451,5.451,0,0,1,1.845.342,3.058,3.058,0,0,1,1.142.742,3.091,3.091,0,0,1,.742,1.142,5.473,5.473,0,0,1,.342,1.845c.047,1.049.058,1.364.058,4.017S18.538,12.917,18.491,13.966Zm0,0" transform="translate(-0.449 0)"/><path class="k" d="M130.058,124.5a5.109,5.109,0,1,0,5.109,5.109A5.11,5.11,0,0,0,130.058,124.5Zm0,8.423a3.314,3.314,0,1,1,3.314-3.314A3.314,3.314,0,0,1,130.058,132.923Zm0,0" transform="translate(-120.112 -119.663)"/><path class="k" d="M364.835,89.794a1.193,1.193,0,1,1-1.193-1.193A1.193,1.193,0,0,1,364.835,89.794Zm0,0" transform="translate(-348.386 -85.159)"/></g><g transform="translate(1771.923 35)"><path class="k" d="M32.826,0,30.147,0a4.7,4.7,0,0,0-4.955,5.084V7.428H22.5a.421.421,0,0,0-.421.421v3.4a.421.421,0,0,0,.421.421h2.694v8.57a.421.421,0,0,0,.421.421h3.514a.421.421,0,0,0,.421-.421v-8.57H32.7a.421.421,0,0,0,.421-.421V7.85a.422.422,0,0,0-.421-.421H29.549V5.441c0-.955.228-1.44,1.472-1.44h1.8a.421.421,0,0,0,.421-.421V.426A.421.421,0,0,0,32.826,0Z"/></g></g><text class="n" transform="translate(1174 52)"><tspan x="0" y="0">Portfolio</tspan></text><text class="o" transform="translate(1390 52)"><tspan x="0" y="0">About Us</tspan></text><text class="n" transform="translate(899 52)"><tspan x="0" y="0">Services</tspan></text><text class="n" transform="translate(1299 52)"><tspan x="0" y="0">Blog</tspan></text><text class="n" transform="translate(1026 52)"><tspan x="0" y="0">E-Learning</tspan></text><text class="n" transform="translate(1521 52)"><tspan x="0" y="0">Contact Us</tspan></text></g><g transform="translate(-892 -616)"><g transform="translate(1052 846)"><text class="p" transform="translate(0 3)"><tspan x="0" y="24">We are an</tspan></text><text class="q" transform="translate(0 95)"><tspan x="0" y="0">innovation</tspan><tspan x="0" y="65">aggregator</tspan></text><line class="r" x2="197.858" y2="0.307" transform="translate(0.642 212.193)"/><text class="s" transform="translate(0 246)"><tspan x="0" y="20">that aims at filling the gaps in the existing </tspan><tspan x="0" y="61">entrepreneurial environment by working </tspan><tspan x="0" y="102">to enable and empower entrepreneurs at </tspan><tspan x="0" y="143">the foundation and early-stage startups</tspan></text></g></g><g class="t"><g transform="translate(1079.414 360.267)"><path class="j" d="M797.867,176.4c0,19.373-4.589,35.321-12.548,48.982a97.854,97.854,0,0,1-8.918,12.807c-29.261,35.789-83.663,55.377-132.832,87.106-145.138,93.656-160.86-56.418-154.3-148.9,2.644-37.315,17.176-71.5,40.262-97.666A153.267,153.267,0,0,1,545.2,63.33c26.21-22.32,60.07-35.827,98.371-35.827,65.711,0,121.826,39.634,144.075,95.485A144.238,144.238,0,0,1,797.867,176.4Z" transform="translate(-270.703 -27.503)"/><path class="u" d="M710.262,88.423,563.344,106.1a153.256,153.256,0,0,1,15.672-15.407Z" transform="translate(-304.521 -54.865)"/><path class="u" d="M917.82,384.833A97.881,97.881,0,0,1,908.9,397.64L783.054,382.5Z" transform="translate(-403.204 -186.95)"/><path class="u" d="M867.338,206.166,654.054,178.5,862.2,190.809A143.483,143.483,0,0,1,867.338,206.166Z" transform="translate(-345.264 -95.324)"/><path class="j" d="M491.366,86.928c0,.38-.011.755-.044,1.124A15.422,15.422,0,1,1,462.3,79.728a14.18,14.18,0,0,1,1.135-1.823,15.418,15.418,0,0,1,27.873,7.767C491.349,86.085,491.366,86.5,491.366,86.928Z" transform="translate(-258.337 -47.266)"/><path class="u" d="M497.654,98.157c0,.38-.011.755-.044,1.124L474.519,96.5l23.081.4C497.638,97.315,497.654,97.733,497.654,98.157Z" transform="translate(-264.626 -58.495)"/><path class="u" d="M487.771,113.615l-21.362,2.572a15.45,15.45,0,0,1-1.631-2.176Z" transform="translate(-260.251 -66.18)"/><path class="u" d="M481.253,82.615l-17.495,2.1a14.176,14.176,0,0,1,1.135-1.823Z" transform="translate(-259.793 -52.256)"/><path class="j" d="M876.565,585.16c-.178.336-.364.661-.566.972a15.422,15.422,0,1,1-21.731-20.956,14.181,14.181,0,0,1,1.857-1.079,15.418,15.418,0,0,1,20.98,19.927C876.946,584.408,876.764,584.785,876.565,585.16Z" transform="translate(-432.157 -267.799)"/><path class="u" d="M884.22,593.6c-.178.336-.364.661-.566.972l-19.1-13.277,20.2,11.17C884.6,592.845,884.419,593.223,884.22,593.6Z" transform="translate(-439.811 -276.236)"/><path class="u" d="M868.092,602.9l-20.076-7.742a15.472,15.472,0,0,1-.42-2.686Z" transform="translate(-432.193 -281.259)"/><path class="u" d="M876.215,572.816l-16.44-6.342a14.18,14.18,0,0,1,1.857-1.079Z" transform="translate(-437.663 -269.096)"/><path class="j" d="M1076.986,117.16c.266.272.519.548.753.835a15.422,15.422,0,1,1-26.586,14.3,14.207,14.207,0,0,1-.461-2.1,15.418,15.418,0,0,1,25.377-13.9C1076.386,116.568,1076.69,116.856,1076.986,117.16Z" transform="translate(-523.337 -65.682)"/><path class="u" d="M1084.118,120.253c.265.272.519.548.753.835l-18.47,14.135,16.8-15.831C1083.518,119.662,1083.822,119.95,1084.118,120.253Z" transform="translate(-530.469 -68.775)"/><path class="u" d="M1088.06,138.039l-13.5,16.757a15.457,15.457,0,0,1-2.686-.419Z" transform="translate(-532.928 -77.15)"/><path class="u" d="M1062.347,123.526l-11.056,13.721a14.176,14.176,0,0,1-.461-2.1Z" transform="translate(-523.476 -70.631)"/><path class="v" d="M569.816,636.956s33.847,1.41,33.847,9.872-38.078,0-38.078,0Z" transform="translate(-305.528 -301.238)"/><path class="w" d="M364.955,726.217l-63.464-4.231-2.821-33.847-14.1,29.616-62.054-8.462c1.41-53.592,23.975-105.773,25.386-112.825s4.781-36.188,4.781-36.188c6.163-13.074,38.459-14.3,63.774-13.116,10.493.479,19.8,1.382,25.541,2.031,3.794.423,6.036.733,6.036.733,10.112,10.422,16.628,24.624,20.633,40.49C383.105,647.578,364.955,726.217,364.955,726.217Z" transform="translate(-151.438 -260.751)"/><circle class="v" cx="35.258" cy="35.258" r="35.258" transform="translate(107.744 67.76)"/><path class="v" d="M287.163,229.879s-9.872,43.72-25.386,56.412,60.643,0,60.643,0-16.924-28.206-4.231-40.9S287.163,229.879,287.163,229.879Z" transform="translate(-168.137 -118.4)"/><path class="x" d="M342.235,443.746l-23.4,2.595-65.452,7.277s-.31-.832-.86-2.341c-4.753-12.961-27.642-76.03-30.167-94.97-2.821-21.155,26.8-46.54,26.8-46.54s28.206-5.641,36.668-5.641,42.309,12.693,42.309,12.693l12.622,113.544,1.086,9.83Z" transform="translate(-151.284 -151.747)"/><path class="y" d="M426.066,529.726l-47.429-27.8s-.832-2.708-2.243-7.277c-.705-2.285-1.565-5.049-2.538-8.18C368.385,468.9,359.2,439.9,351.842,418.721c-11.283-32.437,43.719,57.823,43.719,57.823l2.75,2.13,1.086,9.83c3.794.423,6.036.733,6.036.733C415.545,499.658,422.061,513.86,426.066,529.726Z" transform="translate(-208.84 -200.058)"/><path class="x" d="M367.7,328.886s-14.1,18.334-2.821,50.771,26.8,83.208,26.8,83.208l81.8,47.95,11.282-14.1L408.6,437.48S405.779,330.3,391.676,326.065,367.7,328.886,367.7,328.886Z" transform="translate(-213.417 -160.995)"/><path class="v" d="M246.836,548.259s19.744,40.9,28.206,36.668-21.155-46.54-21.155-46.54Z" transform="translate(-162.362 -256.966)"/><path class="x" d="M175.843,352.77,101.1,414.824s-28.206,19.744,23.975,33.847,56.412,22.565,56.412,22.565,5.641-18.334,12.693-15.513l-60.643-29.616,49.361-29.616Z" transform="translate(-93.485 -173.596)"/><path class="w" d="M174.663,198.554c3.923-1.943,12.586-5.864,19.965-10.587-.517-15.367,1.375-29.318,6.914-36.712,3.109-7.06,9.639-14.128,14.753-19.695,12.558-13.67,40.328-21.3,45.253-14.47,37.251.735,41.173,29.935,41.173,29.935-.194,12.213-12.887,12.6-24.007,12.155,1,8.338-1.658,17-9.342,20.844-14.695,7.347-19.1,16.9-11.756,23.511s20.572,24.246,2.939,28.654-19.838,13.225-14.695,16.9-11.756-6.613-11.756-6.613-2.939,17.633-18.368,13.225a9.281,9.281,0,0,1-4.123-2.921c-4.167,4.579-7.885,7.286-10.686,7.3-16.046.085-14.122-17.688-14.122-17.688s-19.046,5.349-13.1,3.2,6.2-11.235-9.594-20.235S165.805,202.94,174.663,198.554Z" transform="translate(-122.347 -66.598)"/><path class="u" d="M545.381,292.519l-.256-.034.624,2.372a62.34,62.34,0,0,0,2.561,9.737l18.3,69.577a11.793,11.793,0,0,0,9.6,8.654l37.326,5.774a11.793,11.793,0,0,0,12.2-6.088l35.471-66.254a62.25,62.25,0,0,0,3.034-5.667l1.2-2.25-.188-.025a62.713,62.713,0,1,0-119.881-15.8Z" transform="translate(-296.185 -114.494)"/><path class="z" d="M613.179,389.622a12.826,12.826,0,0,1-1.963-.151L572.2,383.435a12.874,12.874,0,0,1-10.485-9.45l-19.131-72.727a65.566,65.566,0,0,1-2.687-10.222l-.484-3.182A66.116,66.116,0,0,1,615.1,214.116l-.169,1.089A65.038,65.038,0,0,0,540.6,288.42l.372,2.38a65.159,65.159,0,0,0,2.664,10.136L562.78,373.7a11.772,11.772,0,0,0,9.588,8.642l39.016,6.036a11.792,11.792,0,0,0,12.182-6.079l.972.52A12.9,12.9,0,0,1,613.179,389.622Z" transform="translate(-293.532 -110.971)"/><rect class="aa" width="69.029" height="1.425" transform="translate(305.804 258.661) rotate(-69.885)"/><rect class="aa" width="1.425" height="69.029" transform="translate(289.361 187.903) rotate(-2.516)"/><path class="w" d="M626.027,584.6l-49.994-7.734a1.425,1.425,0,1,1,.436-2.817l49.994,7.734a1.425,1.425,0,0,1-.436,2.817Z" transform="translate(-309.679 -272.974)"/><path class="w" d="M628.354,565.324,578.36,557.59a1.425,1.425,0,0,1,.436-2.817l49.994,7.734a1.425,1.425,0,0,1-.436,2.817Z" transform="translate(-310.724 -264.318)"/><path class="w" d="M630.681,546.051l-49.994-7.734a1.425,1.425,0,1,1,.436-2.817l49.994,7.734a1.425,1.425,0,0,1-.436,2.816Z" transform="translate(-311.769 -255.661)"/><path class="w" d="M606.408,592.1c9.917,1.534,18.811-2.749,19.865-9.567l-35.911-5.556C589.308,583.794,596.492,590.564,606.408,592.1Z" transform="translate(-316.611 -274.298)"/><path class="aa" d="M635.288,346.733a8.778,8.778,0,0,1-4.865-3.146c-.317-.37-.626-.755-.936-1.14a11.128,11.128,0,0,0-3.672-3.418c-3.27-1.526-7.124.605-10.46,2.892l-.806-1.175c3.668-2.515,7.945-4.838,11.869-3.008a12.349,12.349,0,0,1,4.18,3.817c.3.374.6.747.907,1.106,1.006,1.175,3.013,3.079,5.162,2.639a6.939,6.939,0,0,0,2.476-1.311,13.27,13.27,0,0,1,1.752-1.106,6.979,6.979,0,0,1,7.661,1.083,13.769,13.769,0,0,1,1.039,1.1,5.05,5.05,0,0,0,2.034,1.671c1.165.372,2.4-.293,3.7-1a7.369,7.369,0,0,1,4.313-1.291l.154.021c2.807.434,4.1,3.538,4.833,5.855l-1.359.429c-.995-3.149-2.207-4.715-3.795-4.89a6.266,6.266,0,0,0-3.469,1.13c-1.508.814-3.069,1.656-4.81,1.1a6.163,6.163,0,0,1-2.673-2.089,12.569,12.569,0,0,0-.93-.988,5.6,5.6,0,0,0-6.066-.857,12.029,12.029,0,0,0-1.562.992,8.1,8.1,0,0,1-3.013,1.544A4.685,4.685,0,0,1,635.288,346.733Z" transform="translate(-327.52 -166.55)"/></g></g><g class="ab" transform="translate(425.117 185.259)"><g transform="translate(94.573 -873.59)"><path class="j" d="M15.711,11.623,9.289,7.535l4.088-6.423L11.623,0,7.538,6.423,1.116,2.335,0,4.085,6.423,8.173,2.335,14.6l1.753,1.116L8.173,9.289,14.6,13.374Z" transform="translate(598.443 298.519)"/><path class="j" d="M15.711,11.623,9.289,7.535l4.088-6.423L11.623,0,7.538,6.423,1.115,2.335,0,4.085,6.423,8.173,2.335,14.6l1.753,1.116L8.173,9.289,14.6,13.374Z" transform="translate(1345.424 772.146)"/><path class="d" d="M20.462,15.138,12.1,9.814l5.324-8.365L15.138,0,9.818,8.365,1.453,3.041,0,5.32l8.365,5.324L3.041,19.009l2.283,1.453,5.32-8.365,8.365,5.32Z" transform="translate(319.128 661.269)"/><path class="j" d="M15.711,11.623,9.289,7.535l4.088-6.423L11.623,0,7.538,6.423,1.115,2.335,0,4.085,6.423,8.173,2.335,14.6l1.753,1.116L8.173,9.289,14.6,13.374Z" transform="translate(911.27 1003.034)"/><path class="d" d="M15.711,11.623,9.289,7.535l4.088-6.423L11.623,0,7.538,6.423,1.116,2.335,0,4.085,6.423,8.173,2.335,14.6l1.753,1.116L8.173,9.289,14.6,13.374Z" transform="translate(280.972 876.917)"/><path class="j" d="M15.711,11.623,9.289,7.535l4.088-6.423L11.623,0,7.538,6.423,1.115,2.335,0,4.085,6.423,8.173,2.335,14.6l1.753,1.116L8.173,9.289,14.6,13.374Z" transform="translate(1638.541 738.439)"/><path class="k" d="M15.711,11.623,9.289,7.535l4.088-6.423L11.623,0,7.538,6.423,1.116,2.335,0,4.085,6.423,8.173,2.335,14.6l1.753,1.115L8.173,9.289,14.6,13.374Z" transform="translate(211.942 740.959)"/><path class="k" d="M22,16.271,13,10.552l5.722-8.993L16.274,0,10.552,8.99,1.562,3.268,0,5.722l8.993,5.719L3.271,20.434,5.722,22,11.444,13l8.99,5.722Z" transform="translate(750.989 650.001)"/><circle class="j" cx="9.427" cy="9.427" r="9.427" transform="translate(0 557.691)"/><circle class="j" cx="9.427" cy="9.427" r="9.427" transform="translate(705.281 194.822)"/><circle class="j" cx="6.037" cy="6.037" r="6.037" transform="translate(594.076 654.957)"/><circle class="j" cx="6.285" cy="6.285" r="6.285" transform="translate(614.155 575.039)"/><circle class="l" cx="6.285" cy="6.285" r="6.285" transform="translate(1326.112 922.327)"/><circle class="ac" cx="6.285" cy="6.285" r="6.285" transform="translate(629.501 853.067)"/><circle class="ad" cx="6.285" cy="6.285" r="6.285" transform="translate(689.57)"/><circle class="j" cx="6.285" cy="6.285" r="6.285" transform="translate(431.902 292.233)"/><circle class="k" cx="6.285" cy="6.285" r="6.285" transform="translate(510.46 81.7)"/><circle class="j" cx="9.427" cy="9.427" r="9.427" transform="translate(1446.861 644.169)"/><circle class="ad" cx="18.142" cy="18.142" r="18.142" transform="translate(1014.321 643.556)"/><circle class="k" cx="9.427" cy="9.427" r="9.427" transform="translate(1041.506 559.327)"/><circle class="ae" cx="4.585" cy="4.585" r="4.585" transform="translate(65.139 742.605)"/><circle class="d" cx="9.674" cy="9.674" r="9.674" transform="translate(399.353 956.234)"/><circle class="ad" cx="9.674" cy="9.674" r="9.674" transform="translate(1512.045 700.49)"/></g><path class="d" d="M566.92,209.218l-8.552-5.438,5.441-8.552-2.331-1.482-5.441,8.549-8.549-5.441L546,199.187l8.552,5.438-5.441,8.552,2.331,1.485,5.441-8.552,8.549,5.441Z" transform="translate(331.499 -166.927)"/><g transform="translate(850.689 120.406)"><circle class="k" cx="9.675" cy="9.675" r="9.675"/></g></g><g class="i" transform="translate(519.689 -688.33)"><path class="j" d="M15.711,11.623,9.289,7.535l4.088-6.423L11.623,0,7.538,6.423,1.116,2.335,0,4.085,6.423,8.173,2.335,14.6l1.753,1.116L8.173,9.289,14.6,13.374Z" transform="translate(598.443 298.519)"/><path class="j" d="M15.711,11.623,9.289,7.535l4.088-6.423L11.623,0,7.538,6.423,1.115,2.335,0,4.085,6.423,8.173,2.335,14.6l1.753,1.116L8.173,9.289,14.6,13.374Z" transform="translate(1345.424 772.146)"/><path class="j" d="M20.462,15.138,12.1,9.814l5.324-8.365L15.138,0,9.818,8.365,1.453,3.041,0,5.32l8.365,5.324L3.041,19.009l2.283,1.453,5.32-8.365,8.365,5.32Z" transform="translate(319.128 661.269)"/><path class="j" d="M15.711,11.623,9.289,7.535l4.088-6.423L11.623,0,7.538,6.423,1.115,2.335,0,4.085,6.423,8.173,2.335,14.6l1.753,1.116L8.173,9.289,14.6,13.374Z" transform="translate(911.27 1003.034)"/><path class="j" d="M15.711,11.623,9.289,7.535l4.088-6.423L11.623,0,7.538,6.423,1.116,2.335,0,4.085,6.423,8.173,2.335,14.6l1.753,1.116L8.173,9.289,14.6,13.374Z" transform="translate(280.972 876.917)"/><path class="j" d="M15.711,11.623,9.289,7.535l4.088-6.423L11.623,0,7.538,6.423,1.115,2.335,0,4.085,6.423,8.173,2.335,14.6l1.753,1.116L8.173,9.289,14.6,13.374Z" transform="translate(1638.541 738.439)"/><path class="j" d="M15.711,11.623,9.289,7.535l4.088-6.423L11.623,0,7.538,6.423,1.116,2.335,0,4.085,6.423,8.173,2.335,14.6l1.753,1.115L8.173,9.289,14.6,13.374Z" transform="translate(211.942 740.959)"/><path class="j" d="M22,16.271,13,10.552l5.722-8.993L16.274,0,10.552,8.99,1.562,3.268,0,5.722l8.993,5.719L3.271,20.434,5.722,22,11.444,13l8.99,5.722Z" transform="translate(750.989 650.001)"/><circle class="j" cx="9.427" cy="9.427" r="9.427" transform="translate(0 557.691)"/><circle class="j" cx="9.427" cy="9.427" r="9.427" transform="translate(705.281 194.822)"/><circle class="j" cx="6.037" cy="6.037" r="6.037" transform="translate(594.076 654.957)"/><circle class="j" cx="6.285" cy="6.285" r="6.285" transform="translate(614.155 575.039)"/><circle class="j" cx="6.285" cy="6.285" r="6.285" transform="translate(1326.112 922.327)"/><circle class="j" cx="6.285" cy="6.285" r="6.285" transform="translate(629.501 853.067)"/><circle class="j" cx="6.285" cy="6.285" r="6.285" transform="translate(689.57)"/><circle class="j" cx="6.285" cy="6.285" r="6.285" transform="translate(431.902 292.233)"/><circle class="j" cx="6.285" cy="6.285" r="6.285" transform="translate(510.46 81.7)"/><circle class="j" cx="9.427" cy="9.427" r="9.427" transform="translate(1446.861 644.169)"/><circle class="j" cx="18.142" cy="18.142" r="18.142" transform="translate(1014.321 643.556)"/><circle class="j" cx="9.427" cy="9.427" r="9.427" transform="translate(1041.506 559.327)"/><circle class="j" cx="4.585" cy="4.585" r="4.585" transform="translate(65.139 742.605)"/><circle class="j" cx="9.674" cy="9.674" r="9.674" transform="translate(399.353 956.234)"/><circle class="j" cx="9.674" cy="9.674" r="9.674" transform="translate(1512.045 700.49)"/></g></g></svg>