<svg xmlns="http://www.w3.org/2000/svg" width="280.634" height="293.513" viewBox="0 0 280.634 293.513"><defs><style>.a{fill:#e6e6e6;}.b{fill:#ed7015;}</style></defs><g transform="translate(-102.794)"><path class="a" d="M712.678,408.01c-77.371,0-140.317-62.946-140.317-140.317s62.946-140.317,140.317-140.317,140.317,62.946,140.317,140.317S790.049,408.01,712.678,408.01Zm0-279.279c-76.623,0-138.961,62.338-138.961,138.961s62.338,138.962,138.961,138.962,138.961-62.338,138.961-138.962S789.3,128.731,712.678,128.731Z" transform="translate(-469.567 -119.302)"/><path class="a" d="M731.362,387.378a101,101,0,1,1,101-101A101.116,101.116,0,0,1,731.362,387.378Zm0-200.647a99.646,99.646,0,1,0,99.645,99.645A99.758,99.758,0,0,0,731.362,186.731Z" transform="translate(-488.251 -137.986)"/><path class="a" d="M750.258,366.512A61.239,61.239,0,1,1,811.5,305.273a61.239,61.239,0,0,1-61.239,61.239Zm0-121.122a59.883,59.883,0,1,0,59.883,59.883,59.883,59.883,0,0,0-59.883-59.883Z" transform="translate(-507.147 -156.882)"/><circle class="b" cx="31.096" cy="31.096" r="31.096" transform="translate(212.015 117.295)"/><circle class="b" cx="9.86" cy="9.86" r="9.86" transform="translate(255.497 0)"/><circle class="b" cx="9.86" cy="9.86" r="9.86" transform="translate(131.873 234.356)"/><circle class="a" cx="9.86" cy="9.86" r="9.86" transform="translate(133.228 149.623)"/><circle class="a" cx="9.86" cy="9.86" r="9.86" transform="translate(317.606 83.193)"/><circle class="a" cx="9.86" cy="9.86" r="9.86" transform="translate(356.244 205.885)"/><circle class="b" cx="9.86" cy="9.86" r="9.86" transform="translate(327.548 162.305)"/><circle class="b" cx="9.86" cy="9.86" r="9.86" transform="translate(111.395 68.259)"/><circle class="b" cx="9.86" cy="9.86" r="9.86" transform="translate(269.907 273.794)"/></g></svg>