<svg xmlns="http://www.w3.org/2000/svg" width="59.434" height="57.912" viewBox="0 0 59.434 57.912"><defs><style>.a{fill:#eeae1d;}</style></defs><path class="a" d="M121.992,88.865a2.905,2.905,0,1,0-2.319-1.159L114.9,94.369a2.894,2.894,0,0,0-2.879.634l-3.178-1.8a2.9,2.9,0,1,0-5.674,0L100,95a2.9,2.9,0,1,0,.862,1.513l3.178-1.8a2.895,2.895,0,0,0,3.951,0l3.178,1.8a2.9,2.9,0,1,0,5.156-1.133l4.768-6.663A2.893,2.893,0,0,0,121.992,88.865Zm0-4.063a1.161,1.161,0,1,1-1.161,1.161A1.162,1.162,0,0,1,121.992,84.8ZM98.02,98.287a1.161,1.161,0,1,1,1.161-1.161A1.162,1.162,0,0,1,98.02,98.287Zm7.991-4.537a1.161,1.161,0,1,1,1.161-1.161A1.162,1.162,0,0,1,106.01,93.75ZM114,98.287a1.161,1.161,0,1,1,1.161-1.161A1.162,1.162,0,0,1,114,98.287Z" transform="translate(-84.077 -74.18)"/><path class="a" d="M48.615,79.218H2.463a.722.722,0,0,1-.721-.721V42.579a.722.722,0,0,1,.721-.721h4.1a.871.871,0,0,0,0-1.741h-4.1A2.465,2.465,0,0,0,0,42.579V78.5a2.465,2.465,0,0,0,2.463,2.463h6v1.916a1.982,1.982,0,0,0,1.98,1.98H19.16l-4.1,8.009a.871.871,0,1,0,1.55.794l4.509-8.8h9.626l4.509,8.8a.871.871,0,1,0,1.55-.794l-4.1-8.009h8.715a1.982,1.982,0,0,0,1.98-1.98V80.959h5.222a.871.871,0,0,0,0-1.741Zm-6.963,3.657a.239.239,0,0,1-.238.238H10.445a.239.239,0,0,1-.238-.238V80.959H41.651Z" transform="translate(0 -36.221)"/><path class="a" d="M79.942,12.195h39.346a.722.722,0,0,1,.721.721v8.278a.871.871,0,1,0,1.741,0V12.916a2.465,2.465,0,0,0-2.463-2.463H100.653V8.742a2.187,2.187,0,0,0-2.184-2.184h-5.3a2.187,2.187,0,0,0-2.184,2.184v1.711H79.942a.871.871,0,0,0,0,1.741ZM92.731,8.742a.444.444,0,0,1,.443-.443h5.3a.444.444,0,0,1,.443.443v1.711H92.731V8.742Z" transform="translate(-69.892 -6.558)"/><path class="a" d="M98.273,267.576a.871.871,0,0,0-.871.871v7.693a.871.871,0,0,0,.871.871H101.8a.871.871,0,0,0,.871-.871v-7.693a.871.871,0,0,0-.871-.871Zm2.661,7.693H99.143v-5.952h1.791Z" transform="translate(-86.095 -237.276)"/><path class="a" d="M167.108,229.248a.871.871,0,0,0-.871.871v12.142a.871.871,0,0,0,.871.871h3.532a.871.871,0,0,0,.871-.871V230.119a.871.871,0,0,0-.871-.871Zm2.662,12.142h-1.791v-10.4h1.791Z" transform="translate(-146.94 -203.398)"/><path class="a" d="M235.944,267.576a.871.871,0,0,0-.871.871v7.693a.871.871,0,0,0,.871.871h3.532a.871.871,0,0,0,.871-.871v-7.693a.871.871,0,0,0-.871-.871Zm2.661,7.693h-1.791v-5.952h1.791Z" transform="translate(-207.785 -237.276)"/><path class="a" d="M304.78,311.832a.871.871,0,0,0-.871.871v2.556a.871.871,0,0,0,.871.871h3.532a.871.871,0,1,0,0-1.741H305.65V312.7A.871.871,0,0,0,304.78,311.832Z" transform="translate(-268.631 -276.395)"/><path class="a" d="M320.217,172.281l-4.995-8.651a11.385,11.385,0,1,0-11.258,3.213,11.441,11.441,0,0,0,2.964.393,11.237,11.237,0,0,0,2.563-.3l4.994,8.651a3.31,3.31,0,1,0,5.732-3.31Zm-15.8-7.12a9.638,9.638,0,1,1,7.313-.963A9.576,9.576,0,0,1,304.415,165.161Zm13.72,10.133a1.57,1.57,0,0,1-2.142-.574l-4.8-8.324a11.428,11.428,0,0,0,2.715-1.569l4.806,8.324a1.567,1.567,0,0,1-.574,2.142Z" transform="translate(-261.227 -128.465)"/><path class="a" d="M338.464,181.964a8.239,8.239,0,0,0-.412-5.968.871.871,0,1,0-1.575.742,6.521,6.521,0,1,1-1.966-2.429.871.871,0,1,0,1.051-1.388,8.268,8.268,0,1,0,2.9,9.044Z" transform="translate(-284.887 -152.125)"/></svg>