<svg xmlns="http://www.w3.org/2000/svg" width="61.758" height="61.758" viewBox="0 0 61.758 61.758"><defs><style>.a{fill:#eeae1d;}</style></defs><path class="a" d="M62.466,48.606l-11.5-11.5.833-.833.292.292a1,1,0,0,0,1.408,0l2.988-2.988a1,1,0,0,0,0-1.408L50.8,26.486V7.973A6.981,6.981,0,0,0,43.832,1H5.98A4.986,4.986,0,0,0,1,5.98v7.969a1,1,0,0,0,1,1H8.969V57.777a4.986,4.986,0,0,0,4.98,4.98H49.809a4.986,4.986,0,0,0,4.98-4.98V55.785a1,1,0,0,0-1-1H50.8V44.742L58.567,52.5a1,1,0,0,0,1.408,0l2.49-2.49A1,1,0,0,0,62.466,48.606ZM44.828,40.431l-3.572-3.572L46.82,31.3l3.572,3.572Zm-.412,2.4-1.58,1.58-5.564-5.564,1.58-1.58ZM52.8,34.455l-5.564-5.564,1.58-1.58,5.564,5.564ZM8.969,12.953H2.992V5.98a2.988,2.988,0,1,1,5.977,0ZM52.8,57.777a2.992,2.992,0,0,1-2.988,2.988H17.932a4.954,4.954,0,0,0,1-2.988v-1H52.8Zm-3.984-2.988H17.934a1,1,0,0,0-1,1v1.992a2.988,2.988,0,0,1-5.977,0V5.98A4.929,4.929,0,0,0,9.939,2.992H43.832a4.986,4.986,0,0,1,4.98,4.98V24.906a.993.993,0,0,0-.7.292L45.12,28.186a1,1,0,0,0,0,1.408l.292.292-5.564,5.564-.292-.292a1,1,0,0,0-1.408,0l-2.988,2.988a1,1,0,0,0,0,1.408l6.973,6.973a1,1,0,0,0,1.408,0l2.988-2.988a1,1,0,0,0,0-1.408l-.292-.292.833-.833,1.743,1.743Zm10.459-4.4L48.478,39.6l1.082-1.082L60.353,49.31Z" transform="translate(-1 -1)"/><path class="a" d="M14,19H46.871v1.992H14Z" transform="translate(-1.051 -1.07)"/><path class="a" d="M14,27H42.887v1.992H14Z" transform="translate(-1.051 -1.102)"/><path class="a" d="M14,23H46.871v1.992H14Z" transform="translate(-1.051 -1.086)"/><path class="a" d="M14,11H46.871v1.992H14Z" transform="translate(-1.051 -1.039)"/><path class="a" d="M14,7H46.871V8.992H14Z" transform="translate(-1.051 -1.023)"/><path class="a" d="M14,15H46.871v1.992H14Z" transform="translate(-1.051 -1.055)"/><path class="a" d="M14,31H40.894v1.992H14Z" transform="translate(-1.051 -1.117)"/><path class="a" d="M21.965,35a8.965,8.965,0,1,0,8.965,8.965A8.975,8.975,0,0,0,21.965,35Zm0,15.937a6.973,6.973,0,1,1,6.973-6.973A6.981,6.981,0,0,1,21.965,50.937Z" transform="translate(-1.047 -1.133)"/><path class="a" d="M21.98,39a4.98,4.98,0,1,0,4.98,4.98A4.986,4.986,0,0,0,21.98,39Zm0,7.969a2.988,2.988,0,1,1,2.988-2.988A2.992,2.992,0,0,1,21.98,46.969Z" transform="translate(-1.063 -1.149)"/><path class="a" d="M38.977,49a1,1,0,0,0-1.825-.553l-.335.5A4.579,4.579,0,0,1,33,50.988V52.98a6.568,6.568,0,0,0,4.594-1.868,3.986,3.986,0,0,0,3.375,1.868h3.984V50.988H40.969A1.994,1.994,0,0,1,38.977,49Z" transform="translate(-1.125 -1.184)"/></svg>