<svg xmlns="http://www.w3.org/2000/svg" width="1161.006" height="275.265" viewBox="0 0 1161.006 275.265"><defs><style>.a{fill:#eeae1d;}.b{fill:#ed7015;}.c,.j{fill:#252525;}.d{fill:#fff;}.e{fill:#ffb8b8;}.f{fill:#0865ab;}.g{fill:#2f2e41;}.h{fill:#e8eaed;}.i{fill:#3f3d56;}.j{opacity:0.2;}</style></defs><g transform="translate(-758.674 -153.791)"><g transform="translate(1178.139 153.791)"><rect class="a" width="8.988" height="11.684" transform="translate(233.442 241.412)"/><rect class="b" width="8.988" height="11.684" transform="translate(378.573 121.169) rotate(90)"/><circle class="c" cx="35.503" cy="35.503" r="35.503" transform="translate(312.985 180.637)"/><path class="c" d="M875.435,609.063l10.613-1.921-3.442-22.161L871.993,586.9Z" transform="translate(-513.235 -344.306)"/><rect class="c" width="10.786" height="19.324" transform="translate(351.587 263.53) rotate(169.739)"/><ellipse class="c" cx="8.988" cy="3.37" rx="8.988" ry="3.37" transform="matrix(0.763, -0.646, 0.646, 0.763, 335.393, 270.121)"/><ellipse class="c" cx="8.988" cy="3.37" rx="8.988" ry="3.37" transform="matrix(0.763, -0.646, 0.646, 0.763, 356.177, 269.504)"/><circle class="d" cx="12.134" cy="12.134" r="12.134" transform="translate(333.869 195.321)"/><circle class="c" cx="4.045" cy="4.045" r="4.045" transform="translate(336.971 199.061)"/><path class="b" d="M936.152,513.321c.534-13.143-10.794-24.276-25.3-24.866s-26.7,9.588-27.235,22.732,9.551,16.13,24.058,16.719S935.618,526.464,936.152,513.321Z" transform="translate(-559.658 -335.805)"/><ellipse class="c" cx="5.573" cy="17.751" rx="5.573" ry="17.751" transform="matrix(0.223, -0.975, 0.975, 0.223, 297.157, 211.137)"/><ellipse class="c" cx="5.573" cy="17.751" rx="5.573" ry="17.751" transform="matrix(0.223, -0.975, 0.975, 0.223, 366.847, 222.727)"/><path class="d" d="M944.026,670.778a8.089,8.089,0,1,1-15.92,2.882c-.8-4.4,2.6-5.952,7-6.748S943.23,666.382,944.026,670.778Z" transform="translate(-585.787 -440.647)"/><path class="e" d="M396.76,579.565l-1.234,16.046,11.931,1.234-2.88-19.337Z" transform="translate(-232.798 -339.908)"/><path class="c" d="M348.077,343.532h0c10.17,3.134,15.6,14.824,12.117,26.111l-4.419,14.34-4.41-1.359-.916-6.1-1,5.51L321.1,373.3l-.833-5.545-.908,5.009-3.192-.983,3.47-11.259C323.643,347.531,336.374,339.926,348.077,343.532Z" transform="translate(-225.684 -249.993)"/><path class="e" d="M344.2,449.3a6.678,6.678,0,0,0-7.756,6.143c-.177,2.486.681,5.4,4.535,7.552,8.232,4.6,26.083,14.641,26.083,14.641l34.059,6.541s17.211,13.734,19.368,5.922-16.331-12.58-16.331-12.58l-31.29-8.025-19.938-14.421S349.278,450.192,344.2,449.3Z" transform="translate(-237.606 -312.718)"/><path class="e" d="M232.636,406.185l3.423,9.647,20.54-4.979-5.291-7.158Z" transform="translate(-136.924 -237.606)"/><path class="e" d="M76.864,612.883,61.3,611.327,72.2,600.746l7.78,5.291Z" transform="translate(-36.082 -353.585)"/><circle class="e" cx="12.78" cy="12.78" r="12.78" transform="translate(106.016 100.267)"/><path class="e" d="M331.208,397.1s-7.158,8.4-10.892,9.648-13.071,13.071-8.4,20.851,21.785-1.867,21.785-1.867l-.622-7.78s7.158-12.449,8.714-13.382S331.208,397.1,331.208,397.1Z" transform="translate(-222.426 -282.049)"/><path class="f" d="M329.678,426.918c-4.758-7.164-15.8-5.882-18.534,2.271q-.073.218-.14.443c-2.49,8.4,1.245,22.719,1.245,22.719l5.6,16.806s14.627-6.847,25.208,4.668L341.5,462s4.357-9.959-1.245-17.117C336.694,440.325,333.381,432.492,329.678,426.918Z" transform="translate(-222.14 -296.842)"/><path class="g" d="M130.171,714.671l-.622,4.668s-20.54-4.046-24.9-.311-4.357,6.224-7.78,3.735c-1.455-1.058-.212-3.634,1.7-6.246a31.444,31.444,0,0,1,11.588-9.622c5.136-2.515,12.232-6.169,12.232-7.161,0-1.556,5.6-6.224,7.78-3.735s6.224,9.336,6.224,9.336Z" transform="translate(-96.235 -457.552)"/><path class="g" d="M485.42,720.968s-4.562,16.173-2.9,17,4.976,3.318,9.953,3.318c2.941,0,7.329,1.593,10.428,2.9a25.135,25.135,0,0,0,11.457,1.971c2.612-.18,4.833-.792,4.657-2.379-.415-3.732-8.294-4.562-8.294-4.562l-8.294-10.782s-1.451-6.843-2.7-6.843a2.724,2.724,0,0,1-1.866-.622Z" transform="translate(-323.378 -472.67)"/><path class="c" d="M349.824,351.785a10.106,10.106,0,0,1,8.818-1.54l.362.111c6.971,2.148,10.678,10.2,8.28,17.978h0l-2.336-.72.508-2.987-1.438,2.7-13.853-4.269-.412-2.787-.458,2.518-2.725-.84q-4.827,8.885-.357,20.636l-4.642-1.431-.824-5.573-.917,5.037-8.849-2.727,1.7-11.71C335.262,357.814,342.31,352.217,349.824,351.785Z" transform="translate(-234.401 -254.23)"/><rect class="h" width="105.736" height="197.894" transform="translate(172.636 21.805)"/><path class="i" d="M646.5,337.57H514.843V117.459H646.5Zm-130.832-.823h130.01V118.282H515.666Z" transform="translate(-342.619 -117.459)"/><path class="i" d="M653.408,267.795H553.843V176.459h99.564Zm-98.741-.823h97.919v-89.69H554.666Z" transform="translate(-365.573 -152.185)"/><path class="i" d="M458.483,132.472l-.582-.582,31.031-31.031,18.219,18.219,49.286-49.286.582.582-49.867,49.867-18.219-18.219Z" transform="translate(-269.51 -41.079)"/><circle class="a" cx="6.171" cy="6.171" r="6.171" transform="translate(213.367 54.308)"/><circle class="b" cx="6.171" cy="6.171" r="6.171" transform="translate(231.881 71.176)"/><circle class="f" cx="6.171" cy="6.171" r="6.171" transform="translate(281.252 22.628)"/><rect class="f" width="74.879" height="7.406" transform="translate(200.613 141.118)"/><path class="i" d="M571.167,441.56h-34.56V407h23.451v.823H537.431v32.914h32.914V424.28h.823Z" transform="translate(-315.835 -239.551)"/><path class="b" d="M567.718,428.821l-7.31-9.747,2.633-1.975,5.033,6.71,23.138-23.138L593.539,403Z" transform="translate(-329.843 -235.826)"/><path class="g" d="M272.537,541.049s-7.469-9.959-22.719-4.046l-2.8,7.78s-16.183,12.76-7.158,32.366l-.622,29.254-2.49,8.4-45.126-3.735-1.556,14.316,8.092.622s45.748,18.05,52.906,6.847,22.1-55.4,22.1-55.4l38.749,5.8s-1.134,12.127.111,13.683.622,8.091,1.245,9.336.1,4.481.1,4.481l12.857-.424v-6.224s1.556-8.4,1.556-10.581,9.336-30.81-6.847-33.3-44.039-7.047-44.039-7.047Z" transform="translate(-151.462 -363.29)"/><path class="e" d="M333.007,424.281a7.716,7.716,0,0,0-10.688-4.053c-2.571,1.3-4.949,3.873-4.8,8.973.311,10.892.934,34.545.934,34.545L332.142,501.4s-3.423,25.208,5.6,22.719,2.8-23.652,2.8-23.652l-10.581-35.79,2.49-28.32S335.126,429.845,333.007,424.281Z" transform="translate(-226.472 -295.166)"/></g><path class="j" d="M0,0H1161.006V.76H0Z" transform="translate(758.674 426.52)"/><g transform="translate(1627.022 218.08)"><path class="a" d="M150.414,486.313c.009,18.46-10.962,24.91-24.5,24.916q-.472,0-.939-.01-.941-.02-1.862-.085c-12.217-.859-21.713-7.63-21.721-24.8-.009-17.766,22.687-40.2,24.389-41.857h0l.1-.095S150.4,467.855,150.414,486.313Z" transform="translate(-99.967 -302.403)"/><path class="d" d="M158.249,508.406l8.958-12.53-8.98,13.9-.023,1.438q-.941-.02-1.862-.085l.957-18.468-.008-.143.017-.027.091-1.745-9.016-13.93,9.043,12.623.023.37.723-13.953-7.72-14.4,7.813,11.944.746-28.929,0-.1v.095l-.115,22.814,7.672-9.048-7.7,11.013-.2,12.494,7.165-11.993-7.193,13.83-.109,6.947,10.4-16.694-10.438,19.118Z" transform="translate(-133.194 -302.403)"/></g></g></svg>