<svg xmlns="http://www.w3.org/2000/svg" width="2194.727" height="2023.412" viewBox="0 0 2194.727 2023.412"><defs><style>.a{fill:#eeae1d;}.b{fill:#ed7015;}.c{fill:#fff;}.d{fill:#fe6483;}.e{fill:#0764aa;}.f{fill:#0865ab;}.g{fill:#ff6584;}.h,.p{fill:#3f3d56;}.i{fill:#ee991a;}.j{fill:#252525;}.k{fill:#2f2e41;}.l,.p{opacity:0.2;}.m{fill:#ed8417;}.n{fill:#ffb9b9;}.o{fill:#d0cde1;}.q{fill:#e8eaed;}</style></defs><g transform="translate(-250 1302.706)"><g transform="translate(-80.965 -1478.706)"><path class="a" d="M421.007,889.618c-9.187,345.4,451.234,697.993,1025.944,697.993S2936.893,906.669,2502.217,889.618c-837.566-32.854-1124.588-379.73-1040.605-625.624C1612.019-176.383,439.1,209.524,421.007,889.618Z" transform="translate(-89.907 99.678)"/><path class="b" d="M517.144,166.426l-7.007-4.46,4.46-7.007-1.913-1.214-4.456,7.007-7.007-4.46L500,158.2l7.007,4.46-4.46,7.007,1.913,1.217,4.457-7.007,7.007,4.456Z" transform="translate(578.417 715.084)"/><path class="c" d="M669.144,314.426l-7.007-4.46,4.46-7.007-1.913-1.214-4.457,7.007-7.007-4.46L652,306.2l7.007,4.46-4.46,7.007,1.913,1.217,4.456-7.007,7.007,4.457Z" transform="translate(1203.152 1055.423)"/><path class="d" d="M428.327,300.261l-9.126-5.809,5.809-9.126-2.491-1.581-5.8,9.126-9.126-5.808L406,289.55l9.126,5.808-5.808,9.126,2.491,1.585,5.8-9.126,9.125,5.8Z" transform="translate(351.334 1022.283)"/><path class="c" d="M607.144,392.426l-7.007-4.46,4.46-7.007-1.913-1.214-4.457,7.007-7.007-4.46L590,384.2l7.007,4.46-4.46,7.007,1.913,1.217,4.457-7.007,7.007,4.457Z" transform="translate(829.695 1257.676)"/><path class="e" d="M436.144,355.426l-7.007-4.46,4.46-7.007-1.913-1.214-4.456,7.007-7.007-4.46L419,347.2l7.007,4.46-4.46,7.007,1.913,1.217,4.457-7.007,7.007,4.457Z" transform="translate(313.072 1157.088)"/><path class="b" d="M848.144,306.427l-7.007-4.46,4.46-7.007-1.913-1.214-4.457,7.007-7.007-4.46L831,298.2l7.007,4.46-4.46,7.007,1.913,1.217,4.456-7.007,7.007,4.457Z" transform="translate(1226.451 1096.034)"/><path class="c" d="M394.144,185.426l-7.007-4.46,4.46-7.007-1.913-1.214-4.456,7.007-7.007-4.46L377,177.2l7.007,4.46-4.46,7.007,1.913,1.217,4.456-7.007,7.007,4.457Z" transform="translate(321.833 1201.904)"/><path class="f" d="M570,211.5l-9.811-6.239,6.243-9.811-2.674-1.7-6.242,9.808-9.808-6.242-1.7,2.677,9.811,6.239-6.243,9.811,2.674,1.7,6.242-9.811,9.808,6.243Z" transform="translate(690.109 1140.355)"/><circle class="b" cx="10.284" cy="10.284" r="10.284" transform="translate(896.733 1357.867)"/><circle class="b" cx="10.284" cy="10.284" r="10.284" transform="translate(495.647 1132.791)"/><circle class="b" cx="10.284" cy="10.284" r="10.284" transform="translate(1194.976 755.702)"/><circle class="b" cx="6.587" cy="6.587" r="6.587" transform="translate(1106.385 1279.506)"/><circle class="b" cx="6.856" cy="6.856" r="6.856" transform="translate(1095.561 1170.5)"/><circle class="b" cx="6.856" cy="6.856" r="6.856" transform="translate(1879.633 1547.27)"/><circle class="g" cx="6.856" cy="6.856" r="6.856" transform="translate(749.325 1098.51)"/><circle class="g" cx="6.856" cy="6.856" r="6.856" transform="translate(1177.835 543.161)"/><circle class="b" cx="6.856" cy="6.856" r="6.856" transform="translate(896.733 861.973)"/><circle class="c" cx="6.856" cy="6.856" r="6.856" transform="translate(982.435 632.292)"/><circle class="b" cx="10.284" cy="10.284" r="10.284" transform="translate(1843.083 1398.422)"/><circle class="b" cx="13.482" cy="13.482" r="13.482" transform="translate(1509.957 1459.147)"/><circle class="c" cx="10.284" cy="10.284" r="10.284" transform="translate(1561.78 1153.359)"/><circle class="d" cx="5.002" cy="5.002" r="5.002" transform="translate(496.612 1353.307)"/><circle class="f" cx="10.554" cy="10.554" r="10.554" transform="translate(861.223 1586.365)"/><circle class="g" cx="10.554" cy="10.554" r="10.554" transform="translate(2075.114 1307.36)"/><path class="c" d="M436.144,355.426l-7.007-4.46,4.46-7.007-1.913-1.214-4.456,7.007-7.007-4.46L419,347.2l7.007,4.46-4.46,7.007,1.913,1.217,4.457-7.007,7.007,4.457Z" transform="translate(516.06 1099.241)"/><path class="c" d="M436.144,355.426l-7.007-4.46,4.46-7.007-1.913-1.214-4.456,7.007-7.007-4.46L419,347.2l7.007,4.46-4.46,7.007,1.913,1.217,4.457-7.007,7.007,4.457Z" transform="translate(1561.505 1099.241)"/></g><g transform="translate(1286.237 343.48)"><path class="h" d="M219.959,394.826c-1.083,0-2.176-.017-3.25-.051l.024-.78c1.541.048,3.115.061,4.663.04l.011.781Q220.685,394.826,219.959,394.826Z" transform="translate(-160.994 -239.635)"/><path class="h" d="M235.5,394.133l-.046-.779c1.544-.091,3.107-.219,4.647-.38l.082.776C238.63,393.912,237.055,394.041,235.5,394.133Z" transform="translate(-170.39 -239.123)"/><path class="h" d="M202.6,393.808c-1.557-.119-3.13-.276-4.676-.465l.1-.774c1.534.188,3.1.343,4.64.461Z" transform="translate(-151.58 -238.92)"/><path class="h" d="M254.161,391.75l-.117-.771c1.534-.233,3.08-.5,4.593-.8l.152.765C257.263,391.244,255.706,391.516,254.161,391.75Z" transform="translate(-179.708 -237.72)"/><path class="h" d="M183.969,391.1c-1.538-.261-3.09-.56-4.614-.891l.166-.763c1.512.328,3.052.626,4.579.884Z" transform="translate(-142.271 -237.354)"/><path class="h" d="M272.565,387.671l-.187-.758c1.506-.372,3.02-.784,4.5-1.223l.222.748C275.608,386.881,274.082,387.3,272.565,387.671Z" transform="translate(-188.898 -235.472)"/><path class="h" d="M165.663,386.7c-1.509-.4-3.027-.842-4.512-1.312l.235-.744c1.474.466,2.981.9,4.477,1.3Z" transform="translate(-133.146 -234.946)"/><path class="h" d="M290.556,381.922l-.256-.737c1.461-.508,2.93-1.057,4.368-1.633l.29.725C293.509,380.857,292.028,381.41,290.556,381.922Z" transform="translate(-197.882 -232.395)"/><path class="h" d="M147.809,380.619c-1.465-.539-2.939-1.12-4.381-1.727l.3-.719c1.431.6,2.894,1.179,4.348,1.714Z" transform="translate(-124.262 -231.704)"/><path class="h" d="M307.959,374.566l-.323-.71c1.4-.638,2.814-1.318,4.192-2.023l.355.7C310.794,373.238,309.373,373.924,307.959,374.566Z" transform="translate(-206.571 -228.526)"/><path class="h" d="M324.638,365.662l-.386-.678c1.346-.768,2.689-1.575,3.992-2.4l.417.659C327.347,364.076,325.994,364.889,324.638,365.662Z" transform="translate(-214.9 -223.891)"/><path class="h" d="M340.478,355.283l-.447-.639c1.267-.885,2.532-1.812,3.758-2.755l.476.619C343.03,353.457,341.755,354.391,340.478,355.283Z" transform="translate(-222.81 -218.529)"/><path class="h" d="M355.348,343.521l-.5-.6c1.181-1,2.356-2.035,3.494-3.087l.53.573C357.723,341.47,356.538,342.517,355.348,343.521Z" transform="translate(-230.235 -212.488)"/><path class="h" d="M369.123,330.472l-.556-.548c1.089-1.1,2.166-2.245,3.2-3.393l.58.522C371.3,328.21,370.22,329.361,369.123,330.472Z" transform="translate(-237.113 -205.818)"/><path class="h" d="M381.688,316.246l-.6-.5c.984-1.2,1.952-2.432,2.879-3.672l.625.467C383.655,313.8,382.679,315.041,381.688,316.246Z" transform="translate(-243.387 -198.574)"/><path class="h" d="M392.934,300.958l-.646-.438c.87-1.282,1.723-2.6,2.533-3.921l.665.408C394.67,298.337,393.811,299.667,392.934,300.958Z" transform="translate(-249.003 -190.815)"/><path class="h" d="M402.767,284.729l-.683-.377c.749-1.356,1.477-2.748,2.164-4.139l.7.346C404.256,281.96,403.522,283.363,402.767,284.729Z" transform="translate(-253.913 -182.601)"/><path class="h" d="M411.091,267.692l-.715-.313c.622-1.42,1.219-2.875,1.775-4.323l.729.28C412.32,264.795,411.718,266.26,411.091,267.692Z" transform="translate(-258.07 -174.001)"/><path class="h" d="M417.832,249.995l-.741-.245c.487-1.468.947-2.967,1.366-4.459l.752.211C418.786,247,418.322,248.516,417.832,249.995Z" transform="translate(-261.436 -165.097)"/><path class="h" d="M422.913,231.822l-.76-.177c.349-1.5.669-3.04.95-4.565l.767.141C423.587,228.758,423.265,230.306,422.913,231.822Z" transform="translate(-263.973 -155.969)"/><path class="h" d="M426.309,213.3l-.774-.106c.21-1.529.387-3.087.527-4.633l.777.07C426.7,210.189,426.52,211.759,426.309,213.3Z" transform="translate(-265.668 -146.686)"/><path class="h" d="M428,194.583l-.78-.035c.069-1.546.1-3.115.1-4.662h.78C428.11,191.445,428.075,193.025,428,194.583Z" transform="translate(-266.515 -137.325)"/><path class="h" d="M425.825,163.465c-.156-1.539-.37-2.289-.6-3.821l.772-.114c.228,1.544.423,2.722.581,4.272Z" transform="translate(-265.515 -122.109)"/><path class="h" d="M422.646,145.782c-.3-1.522-.633-3.055-1-4.555l.758-.184c.368,1.511.706,3.056,1.006,4.59Z" transform="translate(-263.719 -112.842)"/><path class="h" d="M417.806,127.661c-.435-1.486-.911-2.981-1.413-4.443l.738-.254c.507,1.474.986,2.98,1.425,4.478Z" transform="translate(-261.086 -103.78)"/><path class="h" d="M411.329,110.075c-.569-1.436-1.179-2.878-1.812-4.284l.712-.321c.638,1.418,1.253,2.87,1.826,4.317Z" transform="translate(-257.639 -95.011)"/><path class="h" d="M403.281,93.185c-.7-1.378-1.439-2.758-2.2-4.1l.679-.385c.767,1.355,1.513,2.746,2.217,4.135Z" transform="translate(-253.411 -86.604)"/><path class="b" d="M349.565,563.916c10.639,12.25,10.6,29.705,10.6,29.705s-17.289-2.406-27.928-14.656-10.6-29.705-10.6-29.705S338.927,551.666,349.565,563.916Z" transform="translate(-213.59 -317.461)"/><path class="b" d="M348.441,351.342c4.687,15.533,19.473,24.81,19.473,24.81s7.187-15.907,2.5-31.44-19.473-24.81-19.473-24.81S343.754,335.809,348.441,351.342Z" transform="translate(-226.229 -202.496)"/><path class="i" d="M332.774,364.351c11.948,10.977,13.869,28.327,13.869,28.327s-17.45-.448-29.4-11.426-13.869-28.327-13.869-28.327S320.827,353.374,332.774,364.351Z" transform="translate(-204.436 -219.049)"/><path class="h" d="M421.168,459.1c-13,9.7-16.685,26.765-16.685,26.765s17.4,1.333,30.409-8.369,16.685-26.765,16.685-26.765S434.173,449.4,421.168,459.1Z" transform="translate(-255.116 -268.043)"/><path class="h" d="M409.355,719.186s-.115.15-.344.419H363.48a41.4,41.4,0,0,1,14.873-6.234C394.3,710.358,409.355,719.186,409.355,719.186Z" transform="translate(-234.563 -399.408)"/><path class="j" d="M377.156,529.331c-.055.274-.115.549-.175.823s-.115.539-.175.808q-.187.868-.389,1.736a130.616,130.616,0,0,1-19.152,44.149H355.46a129.084,129.084,0,0,0,19.5-44.444c.11-.479.219-.958.324-1.441.145-.643.279-1.287.414-1.93q.367-1.766.688-3.551c4.968-27.366,2.9-58.638-6.3-95.416-.13-.519-.264-1.042-.394-1.566-.02-.065-.035-.125-.05-.19l1.446-.369c.165.643.329,1.287.484,1.93l.09.344C381.2,468.588,383,501.032,377.156,529.331Z" transform="translate(-230.543 -256.65)"/><ellipse class="b" cx="14.16" cy="14.16" rx="14.16" ry="14.16" transform="translate(87.874 96.501)"/><path class="b" d="M814.644,615.321c-8.9,9.785-9.2,24.014-9.2,24.014s14.138-1.635,23.042-11.419,9.2-24.014,9.2-24.014S823.547,605.537,814.644,615.321Z" transform="translate(-456.097 -344.851)"/><path class="b" d="M830.682,441.987c-4.114,12.573-16.342,19.856-16.342,19.856s-5.558-13.1-1.444-25.676,16.342-19.856,16.342-19.856S834.8,429.414,830.682,441.987Z" transform="translate(-459.073 -250.821)"/><path class="i" d="M828.3,452.965c-9.946,8.722-11.84,22.828-11.84,22.828s14.232-.036,24.179-8.759,11.84-22.828,11.84-22.828S838.251,444.242,828.3,452.965Z" transform="translate(-461.621 -264.803)"/><path class="i" d="M752.079,527.668c10.417,8.154,13.1,22.132,13.1,22.132s-14.212.758-24.63-7.4-13.1-22.132-13.1-22.132S741.662,519.514,752.079,527.668Z" transform="translate(-417.003 -302.922)"/><path class="h" d="M814.07,614.862h-1.356a109.219,109.219,0,0,1-8.793-25.79c-.145-.693-.284-1.387-.414-2.09-.045-.219-.085-.444-.125-.668a130.6,130.6,0,0,1-1.95-17.336c-.9-18.838,1.85-39.745,8.3-63.351.025-.095.05-.19.08-.284.14-.519.284-1.037.429-1.561l1.172.329c-.015.05-.025.095-.04.145-.119.429-.239.853-.354,1.277-6.509,23.681-9.282,44.613-8.374,63.446a130.912,130.912,0,0,0,1.437,14.2q.232,1.466.493,2.918.255,1.384.539,2.763A107.769,107.769,0,0,0,814.07,614.862Z" transform="translate(-454.003 -294.665)"/><ellipse class="a" cx="11.546" cy="11.545" rx="11.546" ry="11.545" transform="translate(377.233 148.875)"/><path class="k" d="M572.56,549.44l-.329,10.3-1.456,45.885H528.4l-4.3-45.885-2.125-22.673-11.242-37.1L583.8,485.36s5.621,21.361,7.865,37.1S572.56,549.44,572.56,549.44Z" transform="translate(-308.372 -285.432)"/><path class="l" d="M572.56,549.44l-.329,10.3-1.456,45.885H528.4l-4.3-45.885-2.125-22.673-11.242-37.1L583.8,485.36s5.621,21.361,7.865,37.1S572.56,549.44,572.56,549.44Z" transform="translate(-308.372 -285.432)"/><path class="a" d="M487.778,326.212H0V12L78.972,62.872H78.3V280.327H416.456v-.06Z" transform="translate(0 -6.015)"/><path class="m" d="M12,0l88.264,56.857H422.471V264.413l77.306,49.8V0Z" transform="translate(-6.015)"/><path class="j" d="M625.283,108.818h0c-22.428,0-40.61,20.178-40.61,45.068v31.623H594.4l5.631-11.717-1.408,11.717h62.514l5.119-10.652-1.28,10.652h7.038v-24.83C672.014,132.037,651.092,108.818,625.283,108.818Z" transform="translate(-345.436 -96.689)"/><path class="n" d="M582.839,397.964l-6.745,25.856,62.954-2.248-1.124-21.359S590.708,387.847,582.839,397.964Z" transform="translate(-341.136 -239.63)"/><path class="n" d="M362.9,514.661l20.235,44.967,19.111-23.607-15.738-31.477Z" transform="translate(-181.905 -252.903)"/><ellipse class="n" cx="25.856" cy="25.856" rx="25.856" ry="25.856" transform="translate(246.2 30.18)"/><path class="n" d="M668.36,239.616l-11.894,9.915-1.6,1.327-1.124,13.49H609.9s5.981-5.182,11.534-10.545c.113-.124.236-.259.371-.382.753-.731,1.428-1.405,2.035-2.012.326-.337.641-.652.922-.944.461-.483.911-.944,1.36-1.405a.04.04,0,0,0,.011-.022,43.854,43.854,0,0,0,3.238-3.8l.011-.011a13.047,13.047,0,0,0,.753-1.113c3.373-5.621-4.5-16.863-4.5-16.863l24.732-12.366c.865,12.186,11.174,20.325,15.783,23.383C667.506,239.155,668.36,239.616,668.36,239.616Z" transform="translate(-358.083 -149.855)"/><path class="n" d="M765.219,453.139c-16.863,4.5-17.987-29.228-17.987-29.228l-23.015-46.03A106.452,106.452,0,0,1,714.3,347l-5.291-33.259-1.608,1.922v.011l-2.889,1.439-17.559-28.1-4.924-7.869v-8.993l16.863-7.869h6.745s.146-.023.4-.045c3.1-.326,23.293-1.675,24.327,18.032.407,7.734.372,14.142.161,19.17a148.457,148.457,0,0,0,3.921,41.382c1.19,4.883,2.489,9.123,3.787,11.4,4.5,7.869,20.235,69.7,20.235,69.7S782.082,448.642,765.219,453.139Z" transform="translate(-394.237 -174.518)"/><path class="n" d="M561.193,240.429l-4.261,7.768-2.518,4.6-12.332,22.483s-3.5,2.855-9.162,6.543c-9.42,6.127-24.867,14.536-40.3,15.941-24.732,2.248-1.124-77.568-1.124-77.568s7.869-31.477,19.111-28.1,2.248,14.614-5.621,35.973-1.124,44.967-1.124,44.967,23.608-14.614,35.973-25.856c6.441-5.857,11.972-7.442,15.783-7.611h.011a14.315,14.315,0,0,1,3.766.292A8.505,8.505,0,0,1,561.193,240.429Z" transform="translate(-293.634 -138.303)"/><path class="o" d="M644.31,275.741c-.045.124-.573,1.124-4.609,5.227A54.237,54.237,0,0,0,644.31,275.741Z" transform="translate(-373.019 -180.36)"/><path class="f" d="M657.619,313.141l-1.045,1.371-16.379,28.419s-21.359-7.869-37.1-10.118A22.047,22.047,0,0,0,580.624,342.9l4.485-17.953-2.417-8.072c-.281-.944-.607-1.99-.956-3.17-3.372-11.242,8.993-23.607,8.993-23.607l14.659-15.48h.011a14.314,14.314,0,0,1,3.766.292c-.607.607-1.282,1.282-2.035,2.012-.135.124-.258.259-.371.382-4.306,4.4-2.069,5.621-.056,5.947a9.9,9.9,0,0,0,2.012.1c4.688.674,14.951-3.44,22.483-6.88,5.126-2.338,8.993-4.362,8.993-4.362l9.814-8.993,1.473-1.349c1.349.888,2.2,1.349,2.2,1.349h1.124s.146-.023.4-.045l-5.119,3.8a19.03,19.03,0,0,0-7.652,16.482h0Z" transform="translate(-343.407 -173.355)"/><path class="j" d="M490.432,417.937,474,424.355s-89.237-34.522-102.727-6.418,47.215,95.554,47.215,95.554l26.98-12.366L434.224,467.4s65.2,55.084,92.182,24.732,8.994-73.27,8.994-73.27S518.537,405.571,490.432,417.937Z" transform="translate(-237.487 -246.112)"/><path class="j" d="M507.322,655.862,497.2,663.731s8.993,35.973,5.621,41.594-10.118,21.359,2.248,20.235,25.856-20.235,26.98-26.98,8.993-26.98,8.993-26.98,13.49-31.477,3.372-32.6-26.232-1.877-26.232-1.877Z" transform="translate(-301.593 -361.503)"/><path class="j" d="M643.58,125.091a21.3,21.3,0,0,0-16.8-8.576h-.8c-15.372,0-27.834,13.91-27.834,31.069h5.151l.832-6.332,1.22,6.332H635.9l2.56-5.357-.64,5.357h6.01q4.207,20.891-12.089,41.783h10.238l5.119-10.714-1.28,10.714h19.516l3.839-24.641C669.168,146.272,658.446,130.624,643.58,125.091Z" transform="translate(-352.188 -100.548)"/><rect class="p" width="259" height="1" transform="translate(93.763 363.52)"/></g><g transform="translate(981 496.49)"><rect class="b" width="9.71" height="12.623" transform="translate(2.601 73.17)"/><path class="b" d="M480.834,212.268c-1.482-1.9-2.9-3.892-4.22-5.909l.988-.646c1.3,1.99,2.7,3.952,4.163,5.83ZM472.9,200.12c-1.146-2.121-2.218-4.316-3.185-6.525l1.082-.474c.954,2.179,2.011,4.345,3.142,6.437Zm-5.818-13.291c-.78-2.277-1.475-4.618-2.067-6.959l1.145-.29c.584,2.31,1.27,4.62,2.039,6.866Zm-2.4-14.26-1.164.2c-.4-2.381-.708-4.8-.912-7.2l1.177-.1C463.986,167.829,464.289,170.22,464.684,172.569Zm-1.215-14.259-1.181,0c-.006-2.411.088-4.851.281-7.253l1.177.094C463.556,153.525,463.463,155.933,463.469,158.311Zm1.148-14.264-1.165-.192c.392-2.379.889-4.772,1.477-7.113l1.145.288c-.581,2.309-1.071,4.669-1.458,7.017Zm158.128-34.178c-1.321-1.975-2.742-3.921-4.224-5.784l.924-.735c1.5,1.888,2.943,3.86,4.281,5.862Zm-154.638,20.29-1.118-.381c.779-2.281,1.663-4.558,2.627-6.77l1.082.472c-.952,2.182-1.824,4.43-2.592,6.679Zm145.727-31.49c-1.629-1.732-3.35-3.418-5.117-5.011l.791-.877c1.79,1.615,3.535,3.324,5.186,5.079Zm-140,18.367-1.04-.56c1.142-2.124,2.387-4.225,3.7-6.248l.991.643C476.186,112.866,474.958,114.94,473.832,117.036ZM603.206,89.082c-1.891-1.444-3.865-2.826-5.868-4.11l.637-.994c2.029,1.3,4.03,2.7,5.947,4.165ZM481.621,105.026l-.935-.721c1.473-1.908,3.043-3.779,4.667-5.56l.873.8C484.624,101.3,483.074,103.143,481.621,105.026ZM591.154,81.357c-2.1-1.116-4.275-2.158-6.46-3.1l.466-1.085c2.215.952,4.417,2.008,6.547,3.139Zm-99.89,13.095-.8-.865c1.766-1.643,3.621-3.231,5.513-4.72l.73.928C494.836,91.264,493.007,92.831,491.264,94.451ZM578,75.7c-2.259-.757-4.574-1.429-6.881-2l.282-1.147c2.338.575,4.685,1.255,6.974,2.022Zm-75.5,9.9-.651-.985c2.011-1.329,4.1-2.589,6.212-3.746l.567,1.036C506.552,83.051,504.49,84.294,502.506,85.6ZM564.1,72.289c-2.348-.374-4.742-.654-7.116-.832l.089-1.177c2.406.18,4.832.464,7.213.843Zm-49.046,6.444-.479-1.079c2.2-.978,4.471-1.876,6.75-2.67l.389,1.115C519.464,76.883,517.224,77.769,515.053,78.733Zm34.77-7.515c-2.374.019-4.78.138-7.154.354l-.107-1.176c2.405-.218,4.845-.339,7.251-.358Zm-21.257,2.8-.3-1.143c2.33-.6,4.725-1.119,7.1-1.532l.2,1.164C533.226,72.918,530.865,73.428,528.566,74.023Z" transform="translate(-376.214 -70.038)"/><path class="q" d="M594.319,150.44a58.262,58.262,0,1,0,68.231,46.19A58.262,58.262,0,0,0,594.319,150.44Zm-5.456,92.384a7.086,7.086,0,1,1,5.618-8.3A7.086,7.086,0,0,1,588.863,242.824Zm39.261-51.7-11.447,2.2-2.205-11.447,11.447-2.2Z" transform="translate(-423.31 -114.112)"/><ellipse class="j" cx="38.356" cy="38.356" rx="38.356" ry="38.356" transform="translate(21.558 121.984)"/><path class="j" d="M159.927,446.384l-11.466-2.076,3.719-23.942,11.466,2.076Z" transform="translate(-114.828 -233.519)"/><rect class="j" width="11.652" height="20.877" transform="translate(60.286 190.999) rotate(10.261)"/><ellipse class="j" cx="3.641" cy="9.71" rx="3.641" ry="9.71" transform="matrix(0.646, -0.763, 0.763, 0.646, 54.535, 211.665)"/><ellipse class="j" cx="3.641" cy="9.71" rx="3.641" ry="9.71" transform="matrix(0.646, -0.763, 0.763, 0.646, 32.081, 210.999)"/><ellipse class="c" cx="13.109" cy="13.109" rx="13.109" ry="13.109" transform="translate(49.49 137.849)"/><ellipse class="j" cx="4.37" cy="4.37" rx="4.37" ry="4.37" transform="translate(63.617 141.89)"/><path class="i" d="M335.336,303.285c-.577-14.2,11.661-26.227,27.335-26.864s28.847,10.358,29.424,24.558-10.318,17.426-25.992,18.063S335.912,317.485,335.336,303.285Z" transform="translate(-305.68 -184.672)"/><ellipse class="j" cx="19.178" cy="6.021" rx="19.178" ry="6.021" transform="matrix(0.975, -0.223, 0.223, 0.975, 75.291, 151.769)"/><ellipse class="j" cx="19.178" cy="6.021" rx="19.178" ry="6.021" transform="matrix(0.975, -0.223, 0.223, 0.975, 0, 164.29)"/><path class="c" d="M379.556,459.08a8.739,8.739,0,1,0,17.2,3.113c.86-4.749-2.812-6.43-7.562-7.29S380.416,454.331,379.556,459.08Z" transform="translate(-330.177 -283.625)"/></g></g></svg>