<svg xmlns="http://www.w3.org/2000/svg" width="2194.459" height="1989.634" viewBox="0 0 2194.459 1989.634"><defs><style>.a{fill:#0865ab;}.b{fill:#ed7015;}.c{fill:#eeae1d;}.d{fill:#fff;}.e{fill:#ef7015;}.f{fill:#ee991a;}.g{fill:#ff6584;}.h{fill:#fe6483;}.i{opacity:0.2;}.j{fill:#dadce0;}.k,.o{fill:#3f3d56;}.k{opacity:0.1;}.l{fill:#252525;}.m{fill:#e8eaed;}.n{fill:#f1f3f4;}</style></defs><g transform="translate(0 1240.706)"><g transform="translate(-330.965 -1416.706)"><path class="a" d="M421.007,889.519c-9.186,345.359,451.179,697.908,1025.819,697.908s1489.76-680.859,1055.137-697.908C1664.5,856.669,1377.512,509.836,1461.485,263.971,1611.874-176.352,439.094,209.507,421.007,889.519Z" transform="translate(-89.907 99.678)"/><path class="b" d="M517.142,166.425l-7.006-4.459,4.459-7.006-1.913-1.213-4.456,7.006-7.006-4.459L500,158.2l7.006,4.459-4.459,7.006,1.913,1.217,4.456-7.006,7.006,4.456Z" transform="translate(578.326 715)"/><path class="b" d="M669.142,314.425l-7.006-4.459,4.459-7.006-1.912-1.213-4.456,7.006-7.006-4.459L652,306.2l7.006,4.459-4.459,7.006,1.913,1.217,4.456-7.006,7.006,4.456Z" transform="translate(1202.966 1055.279)"/><path class="c" d="M428.324,300.259l-9.124-5.808,5.808-9.124-2.491-1.58-5.8,9.125-9.125-5.808L406,289.549l9.124,5.808-5.808,9.124,2.491,1.585,5.8-9.125,9.124,5.8Z" transform="translate(351.282 1022.145)"/><path class="b" d="M607.142,392.425l-7.006-4.459,4.459-7.006-1.913-1.213-4.456,7.006-7.006-4.459L590,384.2l7.006,4.459-4.459,7.006,1.912,1.217,4.456-7.006,7.006,4.456Z" transform="translate(829.562 1257.497)"/><path class="c" d="M436.142,355.425l-7.006-4.459,4.459-7.006-1.913-1.213-4.456,7.006-7.006-4.459L419,347.2l7.006,4.459-4.459,7.006,1.913,1.217,4.456-7.006,7.006,4.456Z" transform="translate(313.023 1156.926)"/><path class="b" d="M848.142,306.425l-7.006-4.459,4.459-7.006-1.913-1.213-4.456,7.006-7.006-4.459L831,298.2l7.006,4.459-4.459,7.006,1.913,1.217,4.456-7.006,7.006,4.456Z" transform="translate(1381.881 1054.872)"/><path class="d" d="M394.142,185.425l-7.006-4.459,4.459-7.006-1.913-1.213-4.456,7.006-7.006-4.459L377,177.2l7.006,4.459-4.459,7.006,1.913,1.217,4.456-7.006,7.006,4.456Z" transform="translate(279.723 1178.622)"/><path class="d" d="M570,211.494l-9.81-6.238,6.242-9.81-2.674-1.7-6.242,9.806-9.807-6.242-1.7,2.677,9.81,6.238-6.242,9.81,2.673,1.7,6.242-9.81,9.807,6.242Z" transform="translate(689.998 1140.214)"/><circle class="b" cx="10.283" cy="10.283" r="10.283" transform="translate(896.664 1357.723)"/><circle class="b" cx="10.283" cy="10.283" r="10.283" transform="translate(425.538 1151.455)"/><circle class="b" cx="10.283" cy="10.283" r="10.283" transform="translate(1194.87 755.632)"/><circle class="b" cx="6.586" cy="6.586" r="6.586" transform="translate(1106.29 1279.371)"/><circle class="b" cx="6.855" cy="6.855" r="6.855" transform="translate(1095.468 1170.379)"/><circle class="e" cx="6.855" cy="6.855" r="6.855" transform="translate(1872.083 1549.206)"/><circle class="f" cx="6.855" cy="6.855" r="6.855" transform="translate(1112.207 1473.657)"/><circle class="g" cx="6.855" cy="6.855" r="6.855" transform="translate(1177.732 543.117)"/><circle class="b" cx="6.855" cy="6.855" r="6.855" transform="translate(896.664 861.889)"/><circle class="d" cx="6.855" cy="6.855" r="6.855" transform="translate(982.355 632.236)"/><circle class="b" cx="10.283" cy="10.283" r="10.283" transform="translate(2003.798 1245.787)"/><circle class="g" cx="19.79" cy="19.79" r="19.79" transform="translate(1529.794 1256.026)"/><circle class="d" cx="10.283" cy="10.283" r="10.283" transform="translate(1561.63 1153.24)"/><circle class="h" cx="5.001" cy="5.001" r="5.001" transform="translate(496.592 1353.163)"/><circle class="c" cx="10.553" cy="10.553" r="10.553" transform="translate(861.159 1586.193)"/><circle class="g" cx="10.553" cy="10.553" r="10.553" transform="translate(2074.902 1307.222)"/></g><path class="c" d="M568.82,210.623l-9.328-5.932,5.935-9.328-2.543-1.617-5.935,9.325-9.325-5.935L546,199.681l9.328,5.932-5.935,9.328,2.542,1.62,5.935-9.328,9.325,5.935Z" transform="translate(402.603 -85.155)"/><circle class="d" cx="10.554" cy="10.554" r="10.554" transform="translate(919.356 210.677)"/><g transform="translate(1206.303 381.154)"><rect class="d" width="1.662" height="8.976" transform="matrix(0.894, 0.448, -0.448, 0.894, 161.382, 65.226)"/><path class="e" d="M115.453,10.835a36.992,36.992,0,0,0-52.314,0l-.01.01a36.979,36.979,0,1,0-52.3,52.3l-.007.007,52.314,52.314,52.314-52.314A36.991,36.991,0,0,0,115.453,10.835Z" transform="translate(267.76 -14.824) rotate(13)"/><path class="e" d="M535.463,476.865H219.1a6.459,6.459,0,0,1-1.182-.094L367.544,217.6a10.476,10.476,0,0,1,18.236,0L486.2,391.525l4.811,8.322Z" transform="translate(-177.916 -151.614)"/><path class="i" d="M494.254,362.7H386.241l53.024-77.018,3.816-5.548,1.908-2.774,4.81,8.322Z" transform="translate(-136.708 -37.447)"/><path class="j" d="M832.173,518.259H558.547l53.023-77.018,3.816-5.548L684.48,335.323c4.53-6.578,15.427-6.988,20.753-1.241a12.459,12.459,0,0,1,.995,1.241Z" transform="translate(-298.479 -191.913)"/><rect class="k" width="573.698" height="1.448" transform="translate(0 324.27)"/><ellipse class="l" cx="20.895" cy="6.559" rx="20.895" ry="6.559" transform="translate(245.65 303.714) rotate(-21.176)"/><circle class="l" cx="41.789" cy="41.789" r="41.789" transform="translate(183.858 266.21)"/><rect class="l" width="12.696" height="22.746" transform="translate(206.605 340.796)"/><rect class="l" width="12.696" height="22.746" transform="translate(231.996 340.796)"/><ellipse class="l" cx="10.58" cy="3.967" rx="10.58" ry="3.967" transform="translate(206.605 359.839)"/><ellipse class="l" cx="10.58" cy="3.967" rx="10.58" ry="3.967" transform="translate(231.996 359.31)"/><circle class="d" cx="14.282" cy="14.282" r="14.282" transform="translate(212.423 283.137)"/><circle class="l" cx="4.761" cy="4.761" r="4.761" transform="translate(221.945 292.659)"/><path class="m" d="M442.186,515.822c-3.374-15.112,7.412-30.381,24.092-34.106s32.937,5.507,36.311,20.618-7.68,20.685-24.36,24.41S445.56,530.933,442.186,515.822Z" transform="translate(-257.075 -246.685)"/><ellipse class="l" cx="20.895" cy="6.559" rx="20.895" ry="6.559" transform="translate(164.337 323.296) rotate(-45)"/><path class="d" d="M473.5,615.67c0,4.09,10.531,12.167,22.217,12.167s22.643-11.515,22.643-15.6-10.957.793-22.643.793S473.5,611.58,473.5,615.67Z" transform="translate(-268.376 -292.595)"/><ellipse class="l" cx="6.559" cy="20.895" rx="6.559" ry="20.895" transform="translate(280.463 300.855) rotate(-68.824)"/><circle class="l" cx="41.789" cy="41.789" r="41.789" transform="translate(302.384 266.21)"/><rect class="l" width="12.696" height="22.746" transform="translate(363.217 363.542) rotate(180)"/><rect class="l" width="12.696" height="22.746" transform="translate(337.826 363.542) rotate(180)"/><ellipse class="l" cx="10.58" cy="3.967" rx="10.58" ry="3.967" transform="translate(342.058 359.839)"/><ellipse class="l" cx="10.58" cy="3.967" rx="10.58" ry="3.967" transform="translate(316.667 359.31)"/><circle class="d" cx="14.282" cy="14.282" r="14.282" transform="translate(328.833 283.137)"/><circle class="l" cx="4.761" cy="4.761" r="4.761" transform="translate(338.355 292.659)"/><path class="a" d="M718.051,515.822c3.374-15.112-7.412-30.381-24.092-34.106s-32.937,5.507-36.311,20.618,7.68,20.685,24.36,24.41S714.677,530.933,718.051,515.822Z" transform="translate(-333.341 -246.685)"/><ellipse class="l" cx="6.559" cy="20.895" rx="6.559" ry="20.895" transform="translate(366.664 303.022) rotate(-45)"/><path class="d" d="M695.926,615.67c0,4.09-10.531,12.167-22.217,12.167s-22.643-11.515-22.643-15.6,10.957.793,22.643.793S695.926,611.58,695.926,615.67Z" transform="translate(-331.226 -292.595)"/><path class="n" d="M1004.709,493.61c0,27.006-16.055,36.435-35.859,36.435s-35.859-9.43-35.859-36.435,35.859-61.362,35.859-61.362S1004.709,466.6,1004.709,493.61Z" transform="translate(-431.012 -229.469)"/><path class="o" d="M822.578,313.55l.367-22.6,15.284-27.961L823,287.4l.165-10.162L833.7,257.01l-10.49,17.54h0l.3-18.278,11.28-16.106L823.555,253.4l.185-33.515-1.166,44.368.1-1.83L811.2,244.868l11.284,21.067-1.068,20.413-.032-.542-13.22-18.473,13.18,20.387-.134,2.552-.024.039.011.209-2.711,51.79h3.623l.434-26.751,13.149-20.337Z" transform="translate(-286.046 -17.104)"/><path class="m" d="M64.765,6.078a20.751,20.751,0,0,0-29.346,0l-.006.006A20.744,20.744,0,1,0,6.076,35.42l0,0L35.418,64.771,64.765,35.424A20.751,20.751,0,0,0,64.765,6.078Z" transform="matrix(0.998, -0.07, 0.07, 0.998, 345.733, -92.852)"/><path class="n" d="M51.785,4.86a16.592,16.592,0,0,0-23.465,0l0,0A16.587,16.587,0,1,0,4.858,28.322l0,0L28.32,51.79,51.785,28.325A16.592,16.592,0,0,0,51.785,4.86Z" transform="translate(258.651 -142.803) rotate(14)"/></g></g></svg>