<svg xmlns="http://www.w3.org/2000/svg" width="2194.459" height="1723.619" viewBox="0 0 2194.459 1723.619"><defs><style>.a{fill:#f8f9fa;}.b{fill:#0865ab;}.c{fill:#fff;}.d,.g{fill:#252525;}.d,.i{opacity:0.2;}.e{fill:#eeae1d;}.f{fill:#e8eaed;}.h{fill:#ef7015;}.i{isolation:isolate;}.j{fill:#e6e6e6;}.k{fill:#ffb8b8;}.l{fill:#2f2e41;}.m{fill:#ed7015;}.n{fill:#ee991a;}.o{fill:#ff6584;}.p{fill:#fe6483;}</style></defs><g transform="translate(0 1240.706)"><path class="a" d="M1246.69,606.347c19.285,143.525-6.975,287.207-140.546,343.156s-287.207-6.975-343.156-140.546S839.047,595.465,903.534,465.8C1034.487,202.491,1186.8,160.632,1246.69,606.347Z" transform="translate(417.405 -514.53)"/><g transform="translate(1290.022 192.431)"><g transform="translate(-63)"><path class="b" d="M169.223,502.4c.012,25.543-15.168,34.468-33.9,34.477q-.653,0-1.3-.014-1.3-.028-2.577-.117c-16.905-1.189-30.044-10.558-30.056-34.313-.012-24.584,31.392-55.623,33.748-57.918,0,0,0,0,0,0l.135-.131S169.211,476.861,169.223,502.4Z" transform="translate(-99.967 -302.403)"/><path class="c" d="M162.035,532.972l12.4-17.337L162,534.875l-.032,1.99q-1.3-.027-2.577-.117l1.324-25.554-.01-.2.023-.038.126-2.415-12.476-19.276,12.513,17.467.031.512,1-19.307-10.682-19.92,10.811,16.527,1.032-40.029,0-.133v.131l-.159,31.567,10.616-12.52L162.887,478.8l-.273,17.288,9.915-16.6-9.953,19.137-.151,9.613,14.389-23.1L162.37,511.6Z" transform="translate(-127.913 -302.403)"/></g><rect class="d" width="1075.196" height="0.76" transform="translate(-445.538 234.09)"/><circle class="c" cx="7.217" cy="7.217" r="7.217" transform="translate(123.426 0)"/><path class="e" d="M105.53,443.876a4.558,4.558,0,1,1,4.558-4.558,4.558,4.558,0,0,1-4.558,4.558Zm0-8.357a3.8,3.8,0,1,0,3.8,3.8A3.8,3.8,0,0,0,105.53,435.52Z" transform="translate(-99.716 -296.68)"/><path class="b" d="M257.528,400.528h-9.876v-9.876h9.876Zm-9.117-.76h8.357v-8.357h-8.357Z" transform="translate(-186.954 -270.446)"/><ellipse class="f" cx="169.19" cy="3.93" rx="169.19" ry="3.93" transform="translate(0 257.575)"/><ellipse class="f" cx="117.132" cy="2.721" rx="117.132" ry="2.721" transform="translate(52.059 271.783)"/><ellipse class="f" cx="95.55" cy="2.219" rx="95.55" ry="2.219" transform="translate(73.694 284.074)"/><g transform="translate(66 5)"><rect class="g" width="0.76" height="135.857" transform="translate(339.732 93.706)"/><ellipse class="b" cx="14.814" cy="33.807" rx="14.814" ry="33.807" transform="translate(325.444 150.305)"/><path class="g" d="M902.19,239.019l-.728-.218c.046-.154,4.512-15.459-2.821-25.312-4.142-5.565-11.25-8.386-21.126-8.386v-.76c10.131,0,17.444,2.926,21.737,8.7C906.813,223.2,902.238,238.862,902.19,239.019Z" transform="translate(-561.568 -159.638)"/><circle class="b" cx="9.496" cy="9.496" r="9.496" transform="translate(306.451 35.588)"/><path class="e" d="M839.716,619.914h-9.876v-9.876h9.876Zm-9.117-.76h8.357V610.8H830.6Z" transform="translate(-533.213 -400.927)"/><ellipse class="b" cx="14.814" cy="33.807" rx="14.814" ry="33.807" transform="translate(325.444 73.194)"/></g></g><g transform="translate(1317 145.717)"><circle class="h" cx="0.715" cy="0.715" r="0.715" transform="translate(252.938 309.591)"/><path class="i" d="M893.457,725.541a.714.714,0,0,1-.783,1.176.715.715,0,1,0,.783-1.176Z" transform="translate(-639.502 -415.882)"/><ellipse class="g" cx="1.759" cy="0.715" rx="1.759" ry="0.715" transform="translate(270.286 310.366)"/><path class="i" d="M946.665,727.577c-.061,0-.12,0-.179,0,.887.036,1.58.341,1.58.711s-.692.675-1.58.712c.059,0,.118,0,.179,0,.971,0,1.759-.32,1.759-.716S947.636,727.577,946.665,727.577Z" transform="translate(-674.62 -417.211)"/><path class="g" d="M910.265,727.508h-8.823v-.954a.179.179,0,0,0-.179-.179h-4.888a.179.179,0,0,0-.179.179v.954h-5.127v-.6a.179.179,0,0,0-.179-.179h-2.623a.179.179,0,0,0-.179.179v.6h-.715a.179.179,0,0,0-.179.178v11.745a.178.178,0,0,0,.178.179h22.893a.178.178,0,0,0,.179-.178V727.687a.179.179,0,0,0-.178-.179Z" transform="translate(-635.925 -416.427)"/><rect class="h" width="23.25" height="2.265" transform="translate(251.269 315.97)"/><circle class="h" cx="4.531" cy="4.531" r="4.531" transform="translate(258.363 312.572)"/><circle class="g" cx="3.372" cy="3.372" r="3.372" transform="translate(259.522 313.731)"/><path class="c" d="M918.352,742.041a2.6,2.6,0,0,1-.213,1.035,2.547,2.547,0,0,1-.283.5,2.623,2.623,0,1,1-3.662-3.661,2.557,2.557,0,0,1,.5-.283,2.623,2.623,0,0,1,3.659,2.41Z" transform="translate(-652.835 -424.939)"/><path class="j" d="M0,0H.695V505.517H0Z" transform="translate(38.298 -338.872)"/><path class="j" d="M164.3,230.2a.42.42,0,0,0-.419.419v54.815a.42.42,0,0,0,.419.419h76.366a.42.42,0,0,0,.419-.419V230.622a.42.42,0,0,0-.419-.419Z" transform="translate(-163.877 -92.616)"/><path class="c" d="M244.862,241.382v38.954a.98.98,0,0,1-.98.981H177.753a.822.822,0,0,1-.141-.011.98.98,0,0,1-.84-.97V241.382a.98.98,0,0,1,.98-.981h66.128a.98.98,0,0,1,.981.98Z" transform="translate(-172.293 -99.272)"/><path class="j" d="M222.835,292.316H180.626a.862.862,0,0,1-.158-.013l19.963-34.579a1.4,1.4,0,0,1,2.433,0l13.4,23.205.642,1.11Z" transform="translate(-174.704 -110.115)"/><path class="i" d="M111.477,210.39H97.066l7.074-10.276.509-.74.255-.37.642,1.11Z" transform="translate(-63.347 -28.189)"/><path class="j" d="M301.5,311.46H264.989l7.074-10.276.509-.74,9.219-13.391a1.865,1.865,0,0,1,2.769-.165,1.657,1.657,0,0,1,.133.165Z" transform="translate(-229.864 -129.259)"/><circle class="c" cx="1.39" cy="1.39" r="1.39" transform="translate(37.256 137.465)"/><rect class="j" width="0.695" height="505.517" transform="translate(151.197 -338.872)"/><path class="j" d="M489.3,230.2a.42.42,0,0,0-.419.419v54.815a.42.42,0,0,0,.419.419h76.366a.42.42,0,0,0,.419-.419V230.622a.42.42,0,0,0-.419-.419Z" transform="translate(-375.977 -92.616)"/><path class="c" d="M569.862,241.382v38.954a.98.98,0,0,1-.98.981H502.753a.821.821,0,0,1-.141-.011.98.98,0,0,1-.84-.97V241.382a.98.98,0,0,1,.98-.981h66.128a.98.98,0,0,1,.981.98Z" transform="translate(-384.393 -99.272)"/><path class="h" d="M547.835,292.316H505.626a.852.852,0,0,1-.158-.013l19.963-34.579a1.4,1.4,0,0,1,2.433,0l13.4,23.2.642,1.11Z" transform="translate(-386.805 -110.115)"/><path class="i" d="M436.477,210.39H422.066l7.074-10.276.509-.74.255-.37.642,1.11Z" transform="translate(-275.447 -28.189)"/><path class="h" d="M626.5,311.46H589.989l7.074-10.276.509-.74,9.219-13.391a1.865,1.865,0,0,1,2.769-.166,1.628,1.628,0,0,1,.133.166Z" transform="translate(-441.965 -129.259)"/><circle class="c" cx="1.39" cy="1.39" r="1.39" transform="translate(150.155 137.465)"/><rect class="j" width="0.695" height="505.517" transform="translate(264.097 -338.872)"/><path class="j" d="M814.3,230.2a.42.42,0,0,0-.419.419v54.815a.42.42,0,0,0,.419.419h76.366a.42.42,0,0,0,.419-.419V230.622a.42.42,0,0,0-.419-.419Z" transform="translate(-588.077 -92.616)"/><path class="c" d="M894.862,241.382v38.954a.98.98,0,0,1-.98.981H827.753a.82.82,0,0,1-.141-.011.98.98,0,0,1-.841-.97V241.382a.981.981,0,0,1,.98-.981h66.128a.98.98,0,0,1,.981.98Z" transform="translate(-596.493 -99.272)"/><path class="j" d="M872.835,292.316H830.626a.874.874,0,0,1-.158-.013l19.963-34.579a1.4,1.4,0,0,1,2.433,0l13.4,23.2.642,1.111Z" transform="translate(-598.905 -110.115)"/><path class="i" d="M761.477,210.39H747.066l7.074-10.276.509-.74.254-.37.642,1.11Z" transform="translate(-487.547 -28.189)"/><path class="j" d="M951.5,311.46H914.988l7.075-10.276.509-.74,9.218-13.391a1.866,1.866,0,0,1,2.769-.165,1.663,1.663,0,0,1,.133.165Z" transform="translate(-654.065 -129.259)"/><circle class="c" cx="1.39" cy="1.39" r="1.39" transform="translate(263.055 137.465)"/><g transform="translate(-18 -32.877)"><g transform="translate(171.596 159.971)"><path class="k" d="M836.972,469.9l.814,5.564a4.921,4.921,0,0,1-5.549,5.586h0a4.92,4.92,0,0,1-3.91-6.647l2.763-7.15-1.47-48.228,8.528-3.235Z" transform="translate(-753.815 -361.485)"/><circle class="k" cx="11.763" cy="11.763" r="11.763" transform="translate(47.28 4.902)"/><path class="k" d="M797.5,359.118l-21.761-.882c2.416-5.291,3.375-10.409,2.353-15.292H792.5C791.739,347.549,793.83,353.078,797.5,359.118Z" transform="translate(-724.337 -320.397)"/><path class="e" d="M774.446,418.309l-32.054,2.353,1.165-18.113c-3.694-8.786-3.1-15.131,1.243-19.334l.394-6.12a9.387,9.387,0,0,1,6.935-8.464l5.554-1.49c7.192,4.213,12.924,4.155,17.056-.588l6.61,3.386a8.868,8.868,0,0,1,4.771,8.872Z" transform="translate(-704.816 -333.713)"/><path class="k" d="M685.813,444.8l-9.048,4.75a3.9,3.9,0,0,1-4.741-.877h0a3.9,3.9,0,0,1,2.146-6.4l6.349-1.3,19.7-7.646,3.235-22.937,9.116,2.352L710.809,439.8Z" transform="translate(-665.294 -358.442)"/><path class="e" d="M838.934,395.577l-10,5.882-.588-23.526,1.724-.588a8.863,8.863,0,0,1,8.863,8.863Z" transform="translate(-754.012 -339.8)"/><path class="g" d="M750.988,598.027l-8.5-1.33c-1.717-29.048-5.175-56.167-11.348-80.275-14.276,18.917-26.244,46.8-36.465,81.458l-10-2.647,26.172-114.1,31.171-.588C754.767,498,751.035,551.909,750.988,598.027Z" transform="translate(-672.977 -398.008)"/><path class="l" d="M675.125,755.854l-14.773-2.071a2.913,2.913,0,0,1-2.406-3.651h0a2.913,2.913,0,0,1,2.394-2.116l2.625-.379,8.3-5.069,6.866,1.831,2.036,6.008a4.52,4.52,0,0,1-5.042,5.447Z" transform="translate(-657.844 -545.796)"/><path class="l" d="M808,755.854l-14.773-2.071a2.913,2.913,0,0,1-2.406-3.651h0a2.914,2.914,0,0,1,2.394-2.116l2.625-.379,8.3-5.069,6.866,1.831,2.036,6.008A4.52,4.52,0,0,1,808,755.854Z" transform="translate(-732.792 -545.796)"/><path class="e" d="M750.936,397.324c-2.674-5.877-7.291-8.154-15-4.7l1.039-7.663A14.889,14.889,0,0,1,747.7,372.623h0Z" transform="translate(-701.891 -337.137)"/><path class="g" d="M761.337,301.858s-1.85-14.4,13.248-9.679c0,0,10.784-1.979,14.32,11.51l3.581,14.139-1.745-.95-.813,1.778-2.828.716-1.211-2.4-.585,2.917L762.142,322.2s10.374-6.135,10.538-17.13l-1.975,2.088Z" transform="translate(-716.176 -291.228)"/></g><circle class="g" cx="5.824" cy="5.824" r="5.824" transform="translate(236.598 155.238)"/><path class="g" d="M805.578,283.35a5.82,5.82,0,0,1,5.821-5.443c-.12-.015-.239-.034-.362-.042a5.824,5.824,0,1,0-.747,11.624c.123.008.243,0,.364.005A5.82,5.82,0,0,1,805.578,283.35Z" transform="translate(-569.157 -123.714)"/></g><path class="j" d="M257.411,415.085V424.3a.232.232,0,0,1-.232.232H241.534a.193.193,0,0,1-.033,0,.232.232,0,0,1-.2-.229v-9.217a.232.232,0,0,1,.232-.232h15.646a.232.232,0,0,1,.232.232Z" transform="translate(-214.405 -213.122)"/><path class="h" d="M593.411,415.085V424.3a.232.232,0,0,1-.232.232H577.534a.194.194,0,0,1-.033,0,.232.232,0,0,1-.2-.229v-9.217a.232.232,0,0,1,.232-.232h15.646a.232.232,0,0,1,.232.232Z" transform="translate(-433.684 -213.122)"/><path class="j" d="M918.412,415.085V424.3a.232.232,0,0,1-.232.232H902.533a.191.191,0,0,1-.033,0,.232.232,0,0,1-.2-.229v-9.217a.232.232,0,0,1,.232-.232h15.646a.232.232,0,0,1,.232.232Z" transform="translate(-645.785 -213.122)"/></g><g transform="translate(-330.965 -1416.706)"><path class="b" d="M421.007,889.519c-9.186,345.359,451.179,697.908,1025.819,697.908s1489.76-680.859,1055.137-697.908C1664.5,856.669,1377.512,509.836,1461.485,263.971,1611.874-176.352,439.094,209.507,421.007,889.519Z" transform="translate(-89.907 99.678)"/><path class="m" d="M517.142,166.425l-7.006-4.459,4.459-7.006-1.913-1.213-4.456,7.006-7.006-4.459L500,158.2l7.006,4.459-4.459,7.006,1.913,1.217,4.456-7.006,7.006,4.456Z" transform="translate(578.326 715)"/><path class="m" d="M669.142,314.425l-7.006-4.459,4.459-7.006-1.912-1.213-4.456,7.006-7.006-4.459L652,306.2l7.006,4.459-4.459,7.006,1.913,1.217,4.456-7.006,7.006,4.456Z" transform="translate(1202.966 1055.279)"/><path class="e" d="M428.324,300.259l-9.124-5.808,5.808-9.124-2.491-1.58-5.8,9.125-9.125-5.808L406,289.549l9.124,5.808-5.808,9.124,2.491,1.585,5.8-9.125,9.124,5.8Z" transform="translate(351.282 1022.145)"/><path class="m" d="M607.142,392.425l-7.006-4.459,4.459-7.006-1.913-1.213-4.456,7.006-7.006-4.459L590,384.2l7.006,4.459-4.459,7.006,1.912,1.217,4.456-7.006,7.006,4.456Z" transform="translate(829.562 1257.497)"/><path class="e" d="M436.142,355.425l-7.006-4.459,4.459-7.006-1.913-1.213-4.456,7.006-7.006-4.459L419,347.2l7.006,4.459-4.459,7.006,1.913,1.217,4.456-7.006,7.006,4.456Z" transform="translate(313.023 1156.926)"/><path class="m" d="M848.142,306.425l-7.006-4.459,4.459-7.006-1.913-1.213-4.456,7.006-7.006-4.459L831,298.2l7.006,4.459-4.459,7.006,1.913,1.217,4.456-7.006,7.006,4.456Z" transform="translate(1381.881 1054.872)"/><path class="c" d="M394.142,185.425l-7.006-4.459,4.459-7.006-1.913-1.213-4.456,7.006-7.006-4.459L377,177.2l7.006,4.459-4.459,7.006,1.913,1.217,4.456-7.006,7.006,4.456Z" transform="translate(279.723 1178.622)"/><path class="c" d="M570,211.494l-9.81-6.238,6.242-9.81-2.674-1.7-6.242,9.806-9.807-6.242-1.7,2.677,9.81,6.238-6.242,9.81,2.673,1.7,6.242-9.81,9.807,6.242Z" transform="translate(689.998 1140.214)"/><circle class="m" cx="10.283" cy="10.283" r="10.283" transform="translate(896.664 1357.723)"/><circle class="m" cx="10.283" cy="10.283" r="10.283" transform="translate(425.538 1151.455)"/><circle class="m" cx="10.283" cy="10.283" r="10.283" transform="translate(1194.87 755.632)"/><circle class="m" cx="6.586" cy="6.586" r="6.586" transform="translate(1106.29 1279.371)"/><circle class="m" cx="6.855" cy="6.855" r="6.855" transform="translate(1095.468 1170.379)"/><circle class="h" cx="6.855" cy="6.855" r="6.855" transform="translate(1872.083 1549.206)"/><circle class="n" cx="6.855" cy="6.855" r="6.855" transform="translate(1112.207 1473.657)"/><circle class="o" cx="6.855" cy="6.855" r="6.855" transform="translate(1177.732 543.117)"/><circle class="m" cx="6.855" cy="6.855" r="6.855" transform="translate(896.664 861.889)"/><circle class="c" cx="6.855" cy="6.855" r="6.855" transform="translate(982.355 632.236)"/><circle class="m" cx="10.283" cy="10.283" r="10.283" transform="translate(2003.798 1245.787)"/><circle class="o" cx="19.79" cy="19.79" r="19.79" transform="translate(1529.794 1256.026)"/><circle class="c" cx="10.283" cy="10.283" r="10.283" transform="translate(1561.63 1153.24)"/><circle class="p" cx="5.001" cy="5.001" r="5.001" transform="translate(496.592 1353.163)"/><circle class="e" cx="10.553" cy="10.553" r="10.553" transform="translate(861.159 1586.193)"/><circle class="o" cx="10.553" cy="10.553" r="10.553" transform="translate(2074.902 1307.222)"/></g><path class="e" d="M568.82,210.623l-9.328-5.932,5.935-9.328-2.543-1.617-5.935,9.325-9.325-5.935L546,199.681l9.328,5.932-5.935,9.328,2.542,1.62,5.935-9.328,9.325,5.935Z" transform="translate(402.603 -85.155)"/><circle class="c" cx="10.554" cy="10.554" r="10.554" transform="translate(919.356 210.677)"/></g></svg>