<svg xmlns="http://www.w3.org/2000/svg" width="2194.727" height="1704.514" viewBox="0 0 2194.727 1704.514"><defs><style>.a{fill:#eeae1d;}.b{fill:#ed7015;}.c{fill:#fff;}.d{fill:#fe6483;}.e{fill:#0764aa;}.f{fill:#0865ab;}.g{fill:#ff6584;}.h,.p{fill:#3f3d56;}.i{fill:#ee991a;}.j,.q{fill:#252525;}.k{fill:#2f2e41;}.l,.p,.q{opacity:0.2;}.m{fill:#ed8417;}.n{fill:#ffb9b9;}.o{fill:#d0cde1;}.r{fill:#e8eaed;}</style></defs><g transform="translate(0 1240.706)"><g transform="translate(-330.965 -1416.706)"><path class="a" d="M421.007,889.618c-9.187,345.4,451.234,697.993,1025.944,697.993S2936.893,906.669,2502.217,889.618c-837.566-32.854-1124.588-379.73-1040.605-625.624C1612.019-176.383,439.1,209.524,421.007,889.618Z" transform="translate(-89.907 99.678)"/><path class="b" d="M517.144,166.426l-7.007-4.46,4.46-7.007-1.913-1.214-4.456,7.007-7.007-4.46L500,158.2l7.007,4.46-4.46,7.007,1.913,1.217,4.457-7.007,7.007,4.456Z" transform="translate(578.417 715.084)"/><path class="c" d="M669.144,314.426l-7.007-4.46,4.46-7.007-1.913-1.214-4.457,7.007-7.007-4.46L652,306.2l7.007,4.46-4.46,7.007,1.913,1.217,4.456-7.007,7.007,4.457Z" transform="translate(1203.152 1055.423)"/><path class="d" d="M428.327,300.261l-9.126-5.809,5.809-9.126-2.491-1.581-5.8,9.126-9.126-5.808L406,289.55l9.126,5.808-5.808,9.126,2.491,1.585,5.8-9.126,9.125,5.8Z" transform="translate(351.334 1022.283)"/><path class="c" d="M607.144,392.426l-7.007-4.46,4.46-7.007-1.913-1.214-4.457,7.007-7.007-4.46L590,384.2l7.007,4.46-4.46,7.007,1.913,1.217,4.457-7.007,7.007,4.457Z" transform="translate(829.695 1257.676)"/><path class="e" d="M436.144,355.426l-7.007-4.46,4.46-7.007-1.913-1.214-4.456,7.007-7.007-4.46L419,347.2l7.007,4.46-4.46,7.007,1.913,1.217,4.457-7.007,7.007,4.457Z" transform="translate(313.072 1157.088)"/><path class="b" d="M848.144,306.427l-7.007-4.46,4.46-7.007-1.913-1.214-4.457,7.007-7.007-4.46L831,298.2l7.007,4.46-4.46,7.007,1.913,1.217,4.456-7.007,7.007,4.457Z" transform="translate(1226.451 1096.034)"/><path class="c" d="M394.144,185.426l-7.007-4.46,4.46-7.007-1.913-1.214-4.456,7.007-7.007-4.46L377,177.2l7.007,4.46-4.46,7.007,1.913,1.217,4.456-7.007,7.007,4.457Z" transform="translate(321.833 1201.904)"/><path class="f" d="M570,211.5l-9.811-6.239,6.243-9.811-2.674-1.7-6.242,9.808-9.808-6.242-1.7,2.677,9.811,6.239-6.243,9.811,2.674,1.7,6.242-9.811,9.808,6.243Z" transform="translate(690.109 1140.355)"/><circle class="b" cx="10.284" cy="10.284" r="10.284" transform="translate(896.733 1357.867)"/><circle class="b" cx="10.284" cy="10.284" r="10.284" transform="translate(495.647 1132.791)"/><circle class="b" cx="10.284" cy="10.284" r="10.284" transform="translate(1194.976 755.702)"/><circle class="b" cx="6.587" cy="6.587" r="6.587" transform="translate(1106.385 1279.506)"/><circle class="b" cx="6.856" cy="6.856" r="6.856" transform="translate(1095.561 1170.5)"/><circle class="b" cx="6.856" cy="6.856" r="6.856" transform="translate(1879.633 1547.27)"/><circle class="g" cx="6.856" cy="6.856" r="6.856" transform="translate(749.325 1098.51)"/><circle class="g" cx="6.856" cy="6.856" r="6.856" transform="translate(1177.835 543.161)"/><circle class="b" cx="6.856" cy="6.856" r="6.856" transform="translate(896.733 861.973)"/><circle class="c" cx="6.856" cy="6.856" r="6.856" transform="translate(982.435 632.292)"/><circle class="b" cx="10.284" cy="10.284" r="10.284" transform="translate(1843.083 1398.422)"/><circle class="b" cx="13.482" cy="13.482" r="13.482" transform="translate(1509.957 1459.147)"/><circle class="c" cx="10.284" cy="10.284" r="10.284" transform="translate(1561.78 1153.359)"/><circle class="d" cx="5.002" cy="5.002" r="5.002" transform="translate(496.612 1353.307)"/><circle class="f" cx="10.554" cy="10.554" r="10.554" transform="translate(861.223 1586.365)"/><circle class="g" cx="10.554" cy="10.554" r="10.554" transform="translate(2075.114 1307.36)"/><path class="c" d="M436.144,355.426l-7.007-4.46,4.46-7.007-1.913-1.214-4.456,7.007-7.007-4.46L419,347.2l7.007,4.46-4.46,7.007,1.913,1.217,4.457-7.007,7.007,4.457Z" transform="translate(516.06 1099.241)"/><path class="c" d="M436.144,355.426l-7.007-4.46,4.46-7.007-1.913-1.214-4.456,7.007-7.007-4.46L419,347.2l7.007,4.46-4.46,7.007,1.913,1.217,4.457-7.007,7.007,4.457Z" transform="translate(1561.505 1099.241)"/></g><path class="f" d="M568.82,210.623l-9.328-5.932,5.935-9.328-2.543-1.617-5.935,9.325-9.325-5.935L546,199.681l9.328,5.932-5.935,9.328,2.542,1.62,5.935-9.328,9.325,5.935Z" transform="translate(402.603 -85.155)"/><circle class="b" cx="10.554" cy="10.554" r="10.554" transform="translate(919.356 210.677)"/><g transform="translate(1320 208.379)"><path class="h" d="M218.908,394.557c-.732,0-1.472-.012-2.2-.034l.017-.527c1.043.032,2.107.041,3.154.027l.007.528Q219.4,394.557,218.908,394.557Z" transform="translate(-179.022 -289.58)"/><path class="h" d="M235.484,393.758l-.031-.527c1.044-.062,2.1-.148,3.144-.257l.055.525C237.6,393.608,236.536,393.7,235.484,393.758Z" transform="translate(-191.442 -288.903)"/><path class="h" d="M201.091,393.407c-1.053-.081-2.117-.186-3.163-.315l.064-.524c1.038.127,2.094.232,3.139.312Z" transform="translate(-166.576 -288.634)"/><path class="h" d="M254.123,391.241l-.079-.522c1.038-.157,2.083-.34,3.107-.544l.1.518C256.222,390.9,255.168,391.082,254.123,391.241Z" transform="translate(-203.76 -287.049)"/><path class="h" d="M182.477,390.564c-1.04-.176-2.09-.379-3.121-.6l.112-.516c1.023.222,2.065.423,3.1.6Z" transform="translate(-154.27 -286.565)"/><path class="h" d="M272.5,387.03l-.127-.512c1.018-.252,2.043-.53,3.044-.827l.15.506C274.563,386.5,273.531,386.776,272.5,387.03Z" transform="translate(-215.909 -284.077)"/><path class="h" d="M164.2,386.032c-1.02-.271-2.047-.57-3.052-.888l.159-.5c1,.315,2.016.611,3.029.881Z" transform="translate(-142.207 -283.382)"/><path class="h" d="M290.473,381.155l-.173-.5c.988-.344,1.982-.715,2.955-1.1l.2.49C292.471,380.435,291.469,380.809,290.473,381.155Z" transform="translate(-227.785 -280.01)"/><path class="h" d="M146.391,379.827c-.991-.364-1.988-.757-2.964-1.168l.2-.487c.968.408,1.957.8,2.941,1.16Z" transform="translate(-130.463 -279.095)"/><path class="h" d="M307.855,373.682l-.219-.48c.949-.431,1.9-.892,2.836-1.368l.24.47C309.772,372.783,308.811,373.247,307.855,373.682Z" transform="translate(-239.272 -274.894)"/><path class="h" d="M324.513,364.667l-.261-.458c.91-.519,1.819-1.065,2.7-1.623l.282.446C326.346,363.593,325.43,364.144,324.513,364.667Z" transform="translate(-250.282 -268.767)"/><path class="h" d="M340.334,354.185l-.3-.433c.857-.6,1.712-1.226,2.542-1.864l.322.419C342.06,352.95,341.2,353.581,340.334,354.185Z" transform="translate(-260.738 -261.679)"/><path class="h" d="M355.185,342.329l-.34-.4c.8-.674,1.594-1.377,2.363-2.088l.358.388C356.792,340.942,355.99,341.65,355.185,342.329Z" transform="translate(-270.554 -253.693)"/><path class="h" d="M368.943,329.2l-.376-.371c.737-.746,1.465-1.519,2.165-2.3l.392.353C370.419,327.667,369.685,328.445,368.943,329.2Z" transform="translate(-279.646 -244.876)"/><path class="h" d="M381.493,314.9l-.408-.335c.665-.81,1.32-1.645,1.948-2.484l.423.316C382.823,313.24,382.163,314.082,381.493,314.9Z" transform="translate(-287.941 -235.3)"/><path class="h" d="M392.725,299.547l-.437-.3c.589-.867,1.165-1.759,1.714-2.652l.45.276C393.9,297.775,393.318,298.674,392.725,299.547Z" transform="translate(-295.365 -225.042)"/><path class="h" d="M402.546,283.268l-.462-.255c.507-.917,1-1.859,1.464-2.8l.473.234C403.553,281.394,403.057,282.344,402.546,283.268Z" transform="translate(-301.856 -214.184)"/><path class="h" d="M410.86,266.192l-.484-.212c.421-.961.825-1.945,1.2-2.924l.493.189C411.691,264.232,411.284,265.223,410.86,266.192Z" transform="translate(-307.35 -202.816)"/><path class="h" d="M417.592,248.473l-.5-.166c.329-.993.64-2.007.924-3.016l.508.143C418.238,246.45,417.924,247.473,417.592,248.473Z" transform="translate(-311.8 -191.044)"/><path class="h" d="M422.667,230.288l-.514-.12c.236-1.017.452-2.057.642-3.088l.519.1C423.123,228.215,422.9,229.262,422.667,230.288Z" transform="translate(-315.154 -178.978)"/><path class="h" d="M426.059,211.766l-.523-.072c.142-1.034.262-2.088.357-3.134l.526.047C426.323,209.662,426.2,210.724,426.059,211.766Z" transform="translate(-317.395 -166.706)"/><path class="h" d="M427.753,193.063l-.527-.024c.047-1.046.071-2.107.071-3.153h.528C427.824,190.94,427.8,192.009,427.753,193.063Z" transform="translate(-318.515 -154.332)"/><path class="h" d="M425.632,162.192c-.105-1.041-.25-1.548-.4-2.585l.522-.077c.154,1.044.286,1.841.393,2.89Z" transform="translate(-317.192 -134.217)"/><path class="h" d="M422.323,144.248c-.2-1.03-.428-2.066-.675-3.081l.513-.125c.249,1.022.478,2.067.681,3.1Z" transform="translate(-314.819 -121.967)"/><path class="h" d="M417.349,126.141c-.294-1.005-.616-2.016-.956-3.006l.5-.172c.343,1,.667,2.016.964,3.029Z" transform="translate(-311.337 -109.987)"/><path class="h" d="M410.742,108.585c-.385-.972-.8-1.947-1.226-2.9l.482-.217c.432.959.847,1.941,1.235,2.92Z" transform="translate(-306.78 -98.395)"/><path class="h" d="M402.569,91.733c-.472-.932-.973-1.866-1.488-2.776l.459-.26c.519.917,1.023,1.858,1.5,2.8Z" transform="translate(-301.191 -87.281)"/><path class="b" d="M340.529,559.174c7.2,8.286,7.169,20.094,7.169,20.094S336,577.64,328.807,569.353s-7.169-20.094-7.169-20.094S333.333,550.887,340.529,559.174Z" transform="translate(-248.55 -392.462)"/><path class="b" d="M347.928,341.17c3.17,10.507,13.172,16.783,13.172,16.783s4.862-10.76,1.691-21.268S349.619,319.9,349.619,319.9,344.757,330.662,347.928,341.17Z" transform="translate(-265.259 -240.484)"/><path class="i" d="M323.263,360.654c8.082,7.426,9.382,19.161,9.382,19.161s-11.8-.3-19.885-7.729-9.382-19.161-9.382-19.161S315.181,353.229,323.263,360.654Z" transform="translate(-236.45 -262.366)"/><path class="h" d="M415.77,456.372c-8.8,6.563-11.286,18.1-11.286,18.1s11.773.9,20.57-5.661,11.286-18.1,11.286-18.1S424.567,449.81,415.77,456.372Z" transform="translate(-303.446 -327.134)"/><path class="h" d="M394.512,717.1s-.078.1-.233.283h-30.8a28.008,28.008,0,0,1,10.06-4.217C384.326,711.13,394.512,717.1,394.512,717.1Z" transform="translate(-276.276 -500.791)"/><path class="j" d="M370.136,496.525c-.037.186-.078.371-.118.557s-.078.364-.118.547q-.127.587-.263,1.174a88.353,88.353,0,0,1-12.955,29.864H355.46A87.317,87.317,0,0,0,368.648,498.6c.074-.324.148-.648.219-.975.1-.435.189-.87.28-1.306q.248-1.194.466-2.4c3.36-18.512,1.96-39.665-4.261-64.543-.088-.351-.179-.705-.267-1.059-.014-.044-.024-.084-.034-.128l.978-.25c.111.435.223.87.327,1.306l.061.233C372.872,455.436,374.086,477.382,370.136,496.525Z" transform="translate(-270.961 -312.073)"/><circle class="b" cx="9.578" cy="9.578" r="9.578" transform="translate(59.441 65.277)"/><path class="b" d="M811.667,611.626c-6.023,6.619-6.224,16.244-6.224,16.244s9.564-1.106,15.586-7.725,6.224-16.244,6.224-16.244S817.69,605.008,811.667,611.626Z" transform="translate(-569.132 -428.669)"/><path class="b" d="M824.437,433.68c-2.783,8.505-11.054,13.432-11.054,13.432s-3.76-8.863-.977-17.368,11.054-13.432,11.054-13.432S827.219,425.175,824.437,433.68Z" transform="translate(-573.066 -304.367)"/><path class="i" d="M824.473,450.131c-6.728,5.9-8.009,15.442-8.009,15.442s9.627-.024,16.355-5.925,8.009-15.442,8.009-15.442S831.2,444.231,824.473,450.131Z" transform="translate(-576.435 -322.851)"/><path class="i" d="M744.11,525.268c7.047,5.516,8.858,14.971,8.858,14.971s-9.614.513-16.661-5-8.858-14.971-8.858-14.971S737.063,519.753,744.11,525.268Z" transform="translate(-517.451 -373.241)"/><path class="h" d="M809.927,578.92h-.918a73.877,73.877,0,0,1-5.948-17.445c-.1-.469-.192-.938-.28-1.414-.03-.148-.057-.3-.084-.452a88.33,88.33,0,0,1-1.319-11.727C800.767,535.139,802.63,521,807,505.029c.017-.064.034-.128.054-.192.094-.351.192-.7.29-1.056l.793.223c-.01.034-.017.064-.027.1-.081.29-.162.577-.239.864-4.4,16.018-6.279,30.178-5.664,42.917a88.537,88.537,0,0,0,.972,9.605q.157.992.334,1.974.172.936.364,1.869A72.9,72.9,0,0,0,809.927,578.92Z" transform="translate(-566.364 -362.326)"/><circle class="a" cx="7.81" cy="7.81" r="7.81" transform="translate(255.175 100.705)"/><path class="k" d="M552.554,528.706l-.223,6.97-.985,31.038H522.683l-2.911-31.038-1.437-15.337-7.6-25.094,49.429-9.885s3.8,14.45,5.32,25.094S552.554,528.706,552.554,528.706Z" transform="translate(-373.847 -350.121)"/><path class="l" d="M552.554,528.706l-.223,6.97-.985,31.038H522.683l-2.911-31.038-1.437-15.337-7.6-25.094,49.429-9.885s3.8,14.45,5.32,25.094S552.554,528.706,552.554,528.706Z" transform="translate(-373.847 -350.121)"/><path class="a" d="M329.952,224.545H0V12L53.42,46.412h-.452V193.507H281.707v-.04Z" transform="translate(0 -7.952)"/><path class="m" d="M12,0,71.705,38.461H289.659v140.4l52.293,33.686V0Z" transform="translate(-7.952)"/><path class="j" d="M612.143,108.818h0c-15.171,0-27.47,13.649-27.47,30.486v21.391h6.579l3.809-7.926-.952,7.926H636.4l3.463-7.205-.866,7.205h4.761V143.9C643.754,124.524,629.6,108.818,612.143,108.818Z" transform="translate(-422.844 -100.614)"/><path class="n" d="M580.657,396.677l-4.563,17.49,42.584-1.521-.76-14.448S585.98,389.833,580.657,396.677Z" transform="translate(-417.159 -289.573)"/><path class="n" d="M362.9,511.387,376.591,541.8l12.927-15.969-10.646-21.292Z" transform="translate(-240.469 -334.323)"/><circle class="n" cx="17.49" cy="17.49" r="17.49" transform="translate(166.539 20.415)"/><path class="n" d="M649.446,231.613,641.4,238.32l-1.08.9-.76,9.125H609.9s4.045-3.506,7.8-7.133c.076-.084.16-.175.251-.259.509-.494.966-.951,1.376-1.361.22-.228.433-.441.623-.639.312-.327.616-.639.92-.951a.027.027,0,0,0,.008-.015,29.661,29.661,0,0,0,2.19-2.57l.008-.008a8.828,8.828,0,0,0,.51-.753c2.281-3.8-3.042-11.406-3.042-11.406l16.729-8.365c.586,8.243,7.559,13.749,10.676,15.817C648.868,231.3,649.446,231.613,649.446,231.613Z" transform="translate(-439.562 -170.896)"/><path class="n" d="M738.3,391.969C726.9,395.011,726.136,372.2,726.136,372.2l-15.568-31.136a72.006,72.006,0,0,1-6.707-20.888l-3.579-22.5-1.087,1.3v.008l-1.954.973-11.878-19.011-3.331-5.323V269.54l11.406-5.323H698s.1-.015.274-.03c2.1-.221,15.756-1.133,16.456,12.2.275,5.232.252,9.566.109,12.967a100.42,100.42,0,0,0,2.652,27.992,34.416,34.416,0,0,0,2.562,7.708c3.042,5.323,13.688,47.147,13.688,47.147S749.709,388.927,738.3,391.969Z" transform="translate(-487.356 -203.499)"/><path class="n" d="M535.352,224.707l-2.882,5.255-1.7,3.11-8.342,15.209s-2.365,1.931-6.2,4.426c-6.372,4.144-16.821,9.832-27.261,10.783-16.729,1.521-.76-52.47-.76-52.47s5.323-21.292,12.927-19.011,1.521,9.886-3.8,24.334-.76,30.417-.76,30.417,15.969-9.886,24.334-17.49c4.357-3.962,8.1-5.034,10.676-5.148h.008a9.683,9.683,0,0,1,2.547.2A5.751,5.751,0,0,1,535.352,224.707Z" transform="translate(-354.365 -155.625)"/><path class="o" d="M642.819,275.741c-.03.084-.388.76-3.118,3.536A36.7,36.7,0,0,0,642.819,275.741Z" transform="translate(-459.307 -211.222)"/><path class="f" d="M632.706,296.518l-.707.928L620.92,316.67s-14.448-5.323-25.094-6.844a14.913,14.913,0,0,0-15.2,6.821l3.034-12.144-1.635-5.46c-.19-.639-.411-1.346-.646-2.144-2.281-7.6,6.083-15.969,6.083-15.969l9.916-10.471h.008a9.685,9.685,0,0,1,2.547.2c-.411.411-.867.867-1.376,1.361-.091.084-.175.175-.251.259-2.912,2.973-1.4,3.8-.038,4.023a6.7,6.7,0,0,0,1.361.068c3.171.456,10.114-2.327,15.209-4.654,3.468-1.582,6.083-2.951,6.083-2.951l6.638-6.083,1-.913c.912.6,1.49.913,1.49.913h.76s.1-.015.274-.03l-3.462,2.569a12.873,12.873,0,0,0-5.176,11.149h0Z" transform="translate(-420.161 -201.962)"/><path class="j" d="M451.243,414.371l-11.117,4.341s-60.363-23.352-69.488-4.341,31.938,64.637,31.938,64.637l18.25-8.365-7.6-22.813s44.105,37.261,62.355,16.73S481.66,415,481.66,415,470.254,406.007,451.243,414.371Z" transform="translate(-280.142 -298.142)"/><path class="j" d="M504.049,649.8l-6.844,5.323s6.083,24.334,3.8,28.136-6.844,14.448,1.521,13.688,17.49-13.688,18.25-18.25,6.083-18.25,6.083-18.25,9.125-21.292,2.281-22.052-17.744-1.269-17.744-1.269Z" transform="translate(-364.885 -450.682)"/><path class="j" d="M628.878,122.316a14.407,14.407,0,0,0-11.367-5.8h-.539c-10.4,0-18.828,9.409-18.828,21.016h3.484l.563-4.283.825,4.283h20.665l1.731-3.624-.433,3.624h4.065q2.846,14.132-8.177,28.264h6.925l3.463-7.247-.866,7.247h13.2l2.6-16.668C646.188,136.644,638.935,126.059,628.878,122.316Z" transform="translate(-431.77 -105.714)"/><rect class="p" width="176" height="1" transform="translate(63 245.621)"/></g><rect class="q" width="1075.196" height="0.76" transform="translate(844.484 426.52)"/><path class="h" d="M516.594,403.456c-.685-.687-1.366-1.4-2.022-2.11l.712-.656c.648.7,1.319,1.4,2,2.082Z" transform="translate(608.856 16.779)"/><g transform="translate(63.496 10.626)"><rect class="b" width="6.766" height="8.795" transform="translate(1035.606 347.939)"/><path class="b" d="M475.21,169.138c-1.033-1.326-2.022-2.712-2.94-4.117l.689-.45c.906,1.387,1.882,2.753,2.9,4.062Zm-5.529-8.464c-.8-1.478-1.545-3.007-2.219-4.546l.754-.33c.665,1.518,1.4,3.027,2.189,4.485Zm-4.054-9.261c-.543-1.587-1.028-3.218-1.44-4.848l.8-.2c.407,1.609.885,3.219,1.421,4.784Zm-1.67-9.936-.811.137c-.279-1.659-.493-3.347-.636-5.017l.82-.07c.141,1.648.352,3.313.627,4.95Zm-.846-9.935-.823,0c0-1.68.061-3.38.2-5.054l.82.066C463.171,128.208,463.106,129.886,463.111,131.543Zm.8-9.939-.812-.134c.273-1.658.619-3.325,1.029-4.956l.8.2c-.4,1.609-.746,3.253-1.016,4.889ZM574.088,97.79c-.92-1.376-1.91-2.732-2.943-4.03l.644-.512c1.047,1.316,2.051,2.69,2.983,4.085ZM466.342,111.927l-.779-.266c.543-1.589,1.159-3.176,1.831-4.717l.754.329c-.663,1.521-1.271,3.086-1.806,4.654ZM567.879,89.987c-1.135-1.207-2.334-2.382-3.565-3.492l.551-.611c1.247,1.125,2.463,2.316,3.613,3.539Zm-97.548,12.8-.725-.39c.8-1.48,1.663-2.944,2.577-4.353l.69.448C471.972,99.879,471.116,101.324,470.331,102.784Zm90.143-19.477c-1.318-1.006-2.693-1.969-4.088-2.864l.444-.693c1.414.906,2.808,1.883,4.143,2.9ZM475.759,94.416l-.651-.5c1.026-1.329,2.12-2.633,3.252-3.874l.608.554C477.85,91.818,476.771,93.1,475.759,94.416Zm76.318-16.492c-1.464-.777-2.979-1.5-4.5-2.158l.325-.756c1.543.663,3.078,1.4,4.562,2.187Zm-69.6,9.124-.56-.6c1.23-1.145,2.523-2.251,3.841-3.288l.509.647C484.966,84.827,483.691,85.919,482.477,87.048Zm60.435-13.062c-1.574-.528-3.187-1-4.794-1.39l.2-.8c1.629.4,3.264.874,4.859,1.409Zm-52.6,6.9-.454-.686c1.4-.926,2.857-1.8,4.329-2.61l.4.722C493.129,79.1,491.692,79.971,490.31,80.884Zm42.915-9.278c-1.636-.261-3.3-.456-4.958-.58l.062-.82c1.676.126,3.367.323,5.026.587ZM499.052,76.1l-.334-.752c1.533-.681,3.115-1.307,4.7-1.86l.271.777C502.126,74.807,500.565,75.425,499.052,76.1Zm24.226-5.236c-1.654.013-3.331.1-4.984.247l-.074-.82c1.676-.152,3.376-.236,5.052-.25Zm-14.811,1.954-.206-.8c1.623-.42,3.292-.78,4.944-1.067l.141.811C511.715,72.045,510.07,72.4,508.467,72.814Z" transform="translate(631.479 226.92)"/><path class="r" d="M579.991,150.118A40.595,40.595,0,1,0,627.531,182.3,40.595,40.595,0,0,0,579.991,150.118Zm-3.8,64.369a4.937,4.937,0,1,1,3.914-5.782,4.937,4.937,0,0,1-3.914,5.782Zm27.355-36.023L595.569,180l-1.536-7.976,7.976-1.536Z" transform="translate(572.956 172.151)"/><ellipse class="j" cx="26.725" cy="26.725" rx="26.725" ry="26.725" transform="translate(1048.814 381.951)"/><path class="j" d="M156.45,438.494l-7.989-1.446,2.591-16.682,7.989,1.446Z" transform="translate(908.767 6.779)"/><rect class="j" width="8.119" height="14.546" transform="translate(1075.799 430.038) rotate(10.261)"/><ellipse class="j" cx="2.537" cy="6.766" rx="2.537" ry="6.766" transform="matrix(0.646, -0.763, 0.763, 0.646, 1071.792, 444.437)"/><ellipse class="j" cx="2.537" cy="6.766" rx="2.537" ry="6.766" transform="matrix(0.646, -0.763, 0.763, 0.646, 1056.146, 443.973)"/><ellipse class="c" cx="9.134" cy="9.134" rx="9.134" ry="9.134" transform="translate(1068.276 393.005)"/><ellipse class="j" cx="3.045" cy="3.045" rx="3.045" ry="3.045" transform="translate(1078.12 395.82)"/><path class="i" d="M335.33,295.131c-.4-9.894,8.125-18.274,19.046-18.718s20.1,7.217,20.5,17.111-7.189,12.142-18.11,12.586S335.731,305.025,335.33,295.131Z" transform="translate(719.127 84.472)"/><ellipse class="j" cx="13.362" cy="4.195" rx="13.362" ry="4.195" transform="matrix(0.975, -0.223, 0.223, 0.975, 1086.254, 402.704)"/><ellipse class="j" cx="13.362" cy="4.195" rx="13.362" ry="4.195" transform="matrix(0.975, -0.223, 0.223, 0.975, 1033.794, 411.428)"/><path class="c" d="M379.513,457.7a6.089,6.089,0,1,0,11.984,2.169c.6-3.309-1.959-4.48-5.269-5.079S380.112,454.389,379.513,457.7Z" transform="translate(688.686 -38.491)"/></g></g></svg>