<svg xmlns="http://www.w3.org/2000/svg" width="73.266" height="73.266" viewBox="0 0 73.266 73.266"><defs><style>.a{fill:#eeae1d;}</style></defs><path class="a" d="M249.573,99.671a1.073,1.073,0,0,0,1.073-1.073V97.022a1.073,1.073,0,1,0-2.146,0V98.6A1.073,1.073,0,0,0,249.573,99.671Z" transform="translate(-212.94 -82.219)"/><path class="a" d="M351.125,141.113a1.073,1.073,0,0,0-1.518,0l-1.114,1.114a1.073,1.073,0,0,0,1.518,1.518l1.114-1.114A1.074,1.074,0,0,0,351.125,141.113Z" transform="translate(-298.355 -120.651)"/><path class="a" d="M390.3,248.5a1.073,1.073,0,0,0,0,2.146h1.575a1.073,1.073,0,0,0,0-2.146Z" transform="translate(-333.53 -212.941)"/><path class="a" d="M349.433,348.494a1.073,1.073,0,1,0-1.518,1.518l1.114,1.114a1.073,1.073,0,1,0,1.518-1.518Z" transform="translate(-297.86 -298.356)"/><path class="a" d="M247.683,390.3v1.575a1.073,1.073,0,1,0,2.146,0V390.3a1.073,1.073,0,1,0-2.146,0Z" transform="translate(-212.24 -333.531)"/><path class="a" d="M141.648,347.917l-1.114,1.114a1.073,1.073,0,0,0,1.518,1.518l1.114-1.114a1.073,1.073,0,0,0-1.518-1.518Z" transform="translate(-120.155 -297.861)"/><path class="a" d="M97.021,247.684a1.073,1.073,0,0,0,0,2.146H98.6a1.073,1.073,0,0,0,0-2.146Z" transform="translate(-82.218 -212.241)"/><path class="a" d="M143.745,141.65l-1.114-1.114a1.073,1.073,0,0,0-1.518,1.518l1.114,1.114a1.073,1.073,0,0,0,1.518-1.518Z" transform="translate(-120.651 -120.156)"/><path class="a" d="M197.868,164.068,205.513,168a1.073,1.073,0,1,0,.982-1.909l-7.642-3.93a3.937,3.937,0,0,0-2.787-4.566V146.655a1.073,1.073,0,0,0-2.146,0v10.939a3.952,3.952,0,0,0-2.715,2.715h-5.327a1.073,1.073,0,0,0,0,2.146H191.2a3.934,3.934,0,0,0,6.664,1.613Zm-2.876-.894a1.791,1.791,0,1,1,1.791-1.791A1.793,1.793,0,0,1,194.992,163.174Z" transform="translate(-158.359 -124.749)"/><path class="a" d="M111.35,82.565a1.073,1.073,0,0,0,.988-1.152,28.784,28.784,0,1,0,0,4.455,1.073,1.073,0,0,0-2.14-.164,26.635,26.635,0,1,1,0-4.127,1.072,1.072,0,0,0,1.152.988Z" transform="translate(-47.007 -47.007)"/><path class="a" d="M160.642,10.73a36.644,36.644,0,0,0-45.66-4.951,1.073,1.073,0,1,0,1.159,1.807,34.481,34.481,0,1,1,8.584,62.056A1.073,1.073,0,0,0,124.1,71.7,36.637,36.637,0,0,0,160.642,10.73Z" transform="translate(-98.105)"/><path class="a" d="M22.718,116.936a34.494,34.494,0,0,1-8.043-58.155,1.073,1.073,0,0,0-1.368-1.654A36.64,36.64,0,0,0,21.851,118.9a1.073,1.073,0,0,0,.867-1.964Z" transform="translate(0 -48.742)"/></svg>