<svg xmlns="http://www.w3.org/2000/svg" width="61.758" height="61.758" viewBox="0 0 61.758 61.758"><defs><style>.a{fill:#eeae1d;}</style></defs><path class="a" d="M62.912,11.609,54.678,2.346A1.029,1.029,0,0,0,53.908,2H27.146A5.153,5.153,0,0,0,22,7.146V30.82h2.059V7.146a3.088,3.088,0,0,1,3.088-3.088H52.879v6.176a3.088,3.088,0,0,0,3.088,3.088h5.146v35a3.088,3.088,0,0,1-3.088,3.088H48.762v2.059h9.264a5.153,5.153,0,0,0,5.146-5.146V12.293A1.029,1.029,0,0,0,62.912,11.609Zm-7.975-1.375v-4.5l4.913,5.527H55.967A1.029,1.029,0,0,1,54.937,10.234Z" transform="translate(-1.414 -2)"/><path class="a" d="M44.2,32.879H18.469V3.029A1.029,1.029,0,0,0,17.439,2H9.205A1.029,1.029,0,0,0,8.176,3.029v29.85H5.088A3.1,3.1,0,0,0,2,35.967v24.7a3.1,3.1,0,0,0,3.088,3.088H44.2a3.1,3.1,0,0,0,3.088-3.088v-24.7A3.1,3.1,0,0,0,44.2,32.879ZM10.234,4.059H16.41V9.205H12.293v2.059H16.41v2.059H14.352v2.059H16.41v2.059H12.293V19.5H16.41v2.059H14.352v2.059H16.41v2.059H12.293v2.059H16.41v5.146H10.234Zm35,56.611A1.029,1.029,0,0,1,44.2,61.7H5.088A1.029,1.029,0,0,1,4.059,60.67v-24.7a1.029,1.029,0,0,1,1.029-1.029H44.2a1.029,1.029,0,0,1,1.029,1.029Z" transform="translate(-2 -2)"/><path class="a" d="M9.088,44a3.088,3.088,0,1,0,3.088,3.088A3.088,3.088,0,0,0,9.088,44Zm0,4.117a1.029,1.029,0,1,1,1.029-1.029A1.029,1.029,0,0,1,9.088,48.117Z" transform="translate(-1.883 -0.77)"/><path class="a" d="M7,40h4.117v2.059H7Z" transform="translate(-1.854 -0.887)"/><path class="a" d="M7,36h4.117v2.059H7Z" transform="translate(-1.854 -1.004)"/><path class="a" d="M7,52h4.117v2.059H7Z" transform="translate(-1.854 -0.535)"/><path class="a" d="M7,56h4.117v2.059H7Z" transform="translate(-1.854 -0.418)"/><path class="a" d="M49.615,10H29.029A1.029,1.029,0,0,0,28,11.029V27.5a1.029,1.029,0,0,0,1.029,1.029H49.615A1.029,1.029,0,0,0,50.644,27.5V11.029A1.029,1.029,0,0,0,49.615,10ZM35.287,26.469,37.264,24l1.976,2.47Zm6.587,0-1.317-1.647,2.882-3.839,4.117,5.486Zm6.711-2.059-4.323-5.764a1.029,1.029,0,0,0-1.647,0L39.23,23.165l-1.163-1.451a1.055,1.055,0,0,0-1.606,0l-3.808,4.755H30.059V12.059H48.586Z" transform="translate(-1.238 -1.766)"/><ellipse class="a" cx="1.831" cy="2.289" rx="1.831" ry="2.289" transform="translate(32.161 13.257)"/><path class="a" d="M50,32h6.176v2.059H50Z" transform="translate(-0.594 -1.121)"/><path class="a" d="M50,36h6.176v2.059H50Z" transform="translate(-0.594 -1.004)"/><path class="a" d="M50,40h6.176v2.059H50Z" transform="translate(-0.594 -0.887)"/><path class="a" d="M50,44h6.176v2.059H50Z" transform="translate(-0.594 -0.77)"/><path class="a" d="M39.537,38.02a1.029,1.029,0,0,0-1.455,0L24.253,51.847a1.035,1.035,0,0,0-.249.4l-.728,2.183a1.029,1.029,0,0,0,.248,1.053l-1.455,1.462L23.524,58.4l1.459-1.455a1.029,1.029,0,0,0,.728.3,1.01,1.01,0,0,0,.325-.052l2.183-.729a1.029,1.029,0,0,0,.4-.248L42.448,42.386a1.029,1.029,0,0,0,0-1.455Zm-12.2,16.572-1.349.451-.557-.565.451-1.35L35.9,43.109l1.455,1.455ZM38.809,43.114l-1.455-1.455L38.809,40.2l1.455,1.455Z" transform="translate(-1.412 -0.954)"/></svg>