<svg xmlns="http://www.w3.org/2000/svg" width="67.226" height="71.628" viewBox="0 0 67.226 71.628"><defs><style>.a{fill:#eeae1d;}</style></defs><path class="a" d="M75.09,0H72.01a1.05,1.05,0,0,0,0,2.1h3.08a5.764,5.764,0,0,1,5.768,5.747V32.132a5.764,5.764,0,0,1-5.768,5.747H71.6a1.049,1.049,0,0,0-.638.216L64.551,43V38.928A1.049,1.049,0,0,0,63.5,37.879H50.729a5.739,5.739,0,0,1-2.938-.8V25.3a6.4,6.4,0,0,0-2.83-5.309V7.846A5.764,5.764,0,0,1,50.729,2.1h14.7a1.05,1.05,0,0,0,0-2.1h-14.7a7.865,7.865,0,0,0-7.867,7.846v11.22a6.434,6.434,0,0,0-1.5-.177H22.156A6.424,6.424,0,0,0,15.731,25.3v2.266a1.05,1.05,0,0,0,2.1,0V25.3a4.323,4.323,0,0,1,4.327-4.31h19.21a4.323,4.323,0,0,1,4.327,4.31V37.5a1.05,1.05,0,0,0,0,.278v6.676c0,.132-.008.263-.02.394H43.509a4.868,4.868,0,0,0-4.785,3.983,1.052,1.052,0,0,0-.272.152L33.759,52.6V49.809a1.049,1.049,0,0,0-1.049-1.049H22.156a4.323,4.323,0,0,1-4.327-4.31V33.86a1.05,1.05,0,0,0-2.1,0V44.449a6.424,6.424,0,0,0,6.425,6.409h9.5v3.88a1.065,1.065,0,0,0,1.691.831l5.294-4.087V63.287a4.864,4.864,0,0,0,4.865,4.853h6.44v2.449a1.065,1.065,0,0,0,1.691.831l4.247-3.279h1.255a4.864,4.864,0,0,0,4.865-4.853V61.424a1.05,1.05,0,0,0-2.1,0v1.863a2.763,2.763,0,0,1-2.766,2.754H55.529a1.049,1.049,0,0,0-.641.219l-2.84,2.193V67.09A1.049,1.049,0,0,0,51,66.041H43.509a2.763,2.763,0,0,1-2.766-2.754V49.7a2.763,2.763,0,0,1,2.766-2.754H57.142A2.763,2.763,0,0,1,59.908,49.7v5.152a1.05,1.05,0,0,0,2.1,0V49.7a4.864,4.864,0,0,0-4.865-4.853H47.78c.008-.131.012-5.431.012-5.431a7.854,7.854,0,0,0,2.938.565H62.452v5.143a1.065,1.065,0,0,0,1.687.833l7.814-5.977H75.09a7.865,7.865,0,0,0,7.867-7.846V7.846A7.865,7.865,0,0,0,75.09,0Z" transform="translate(-15.731)"/><path class="a" d="M281.316,54.653a2.187,2.187,0,0,0-2.69,2.089,6.165,6.165,0,0,1-1.543,4.081L274.192,64.1a1.048,1.048,0,0,0-.879-.477h-5.644a1.049,1.049,0,0,0-1.049,1.049v12.7a1.049,1.049,0,0,0,1.049,1.049h5.644a1.049,1.049,0,0,0,.954-.614,7.332,7.332,0,0,0,3.814,1.076h9.975a2.746,2.746,0,0,0,2.71-2.843c-.032-.673,0-9.714,0-9.915a2.716,2.716,0,0,0-2.71-2.713l-5.187-.016.215-.509a8.194,8.194,0,0,0-.432-7.211,2.138,2.138,0,0,0-1.339-1.02h0Zm-9.053,21.665h-3.546v-10.6h3.546Zm15.793-10.812a.615.615,0,0,1,.615.615c0,.2,0,.742,0,1.476-.016,4.057-.026,7.9,0,8.537a.614.614,0,0,1-.614.646h-9.975a5.225,5.225,0,0,1-3.277-1.16l-.442-.358v-8.19l4.294-4.859a8.263,8.263,0,0,0,2.068-5.471.059.059,0,0,1,.108-.029,6.083,6.083,0,0,1,.321,5.353l-.828,1.962a1.049,1.049,0,0,0,.964,1.458Z" transform="translate(-231.515 -46.9)"/><path class="a" d="M73.5,202.873a1.049,1.049,0,1,0,0,2.1h3.093l-.578,3.5a1.049,1.049,0,1,0,2.071.342l.634-3.837h2.532l-.578,3.5a1.049,1.049,0,1,0,2.071.342l.634-3.837H87.59a1.049,1.049,0,0,0,0-2.1H83.727l.423-2.56h3.44a1.049,1.049,0,0,0,0-2.1H84.5l.578-3.5A1.049,1.049,0,0,0,83,194.377l-.634,3.837H79.838l.578-3.495a1.049,1.049,0,1,0-2.071-.342l-.634,3.837H73.5a1.049,1.049,0,1,0,0,2.1h3.864l-.423,2.56Zm5.991-2.56h2.532l-.423,2.56H79.068Z" transform="translate(-64.515 -166.425)"/><path class="a" d="M225.9,369.26a3.529,3.529,0,0,0-3.105-.7,3.9,3.9,0,0,0-2.911,3.94,5.152,5.152,0,0,0,1.551,3.688,15.4,15.4,0,0,0,3.988,2.75,1.049,1.049,0,0,0,.983,0c3.324-1.762,5.538-3.532,5.538-6.438a3.879,3.879,0,0,0-3.015-3.919A3.519,3.519,0,0,0,225.9,369.26Zm3.943,3.242c0,1.568-1.04,2.727-3.931,4.319-2.891-1.591-3.931-2.751-3.931-4.319a1.8,1.8,0,0,1,1.308-1.9,1.572,1.572,0,0,1,.37-.044,1.448,1.448,0,0,1,1.321.845,1.049,1.049,0,0,0,1.883-.037,1.364,1.364,0,0,1,1.609-.733A1.775,1.775,0,0,1,229.847,372.5Z" transform="translate(-191.322 -316.903)"/></svg>