<svg xmlns="http://www.w3.org/2000/svg" width="492.272" height="382.108" viewBox="0 0 492.272 382.108"><defs><style>.a{fill:#ffb8b8;}.b{fill:#eeae1d;}.c{fill:#bdc1c6;}.d{fill:#2f2e41;}.e{fill:#0865ab;}.f{fill:#ed7015;}.g{fill:#a0616a;}.h{opacity:0.2;}.i{fill:#e8eaed;}.j{fill:#252525;}</style></defs><g transform="translate(-1163.58 -3030.891)"><g transform="translate(1163.58 3030.891)"><path class="a" d="M805.7,434.806s-25.255-5.115-22.058,5.754,24.3,3.836,24.3,3.836Z" transform="translate(-436.04 -251.61)"/><path class="b" d="M876.253,331.4a2.369,2.369,0,0,1,3.93,1.354l.863,5.013s3.9,20.053.561,32.792-5.712,29.517-14.742,31.3c-7.726,1.53-37.1-.893-45.42-1.623a2.367,2.367,0,0,1-2.159-2.412l.156-7.317a2.371,2.371,0,0,1,2.119-2.307l33.635-3.587a2.366,2.366,0,0,0,2.1-2.025c.8-5.722,3.387-23.463,5.957-32.79C865.325,342.261,872.145,335.145,876.253,331.4Z" transform="translate(-452.112 -205.611)"/><path class="a" d="M850.822,614.608v15.345l8.631,1.918,5.755-2.877-.639-12.147Z" transform="translate(-448.535 -274.951)"/><path class="a" d="M943.086,614.608v15.345l8.632,1.918,5.754-2.877-.639-12.147Z" transform="translate(-489.81 -274.951)"/><path class="c" d="M899.05,493.3s-11.508,23.337-11.189,41.558a249.918,249.918,0,0,1-1.6,32.927l-5.754,54.665,18.541.959,8.631-58.821L924.3,519.191l6.394,54.026,1.6,54.345H948.28s7.353-51.468,3.2-62.977c0,0,9.59-64.575,1.918-67.772S899.05,493.3,899.05,493.3Z" transform="translate(-479.5 -278.315)"/><path class="d" d="M865.749,733.08s-3.2-11.828-7.672-5.754-17.263,16.3-17.263,16.3-19.181,10.23-1.6,12.787,19.5-3.2,19.5-3.2,2.877-1.6,5.435-.639,13.746.639,14.385-3.2-3.516-24.935-4.8-21.1S865.749,733.08,865.749,733.08Z" transform="translate(-457.708 -382.234)"/><path class="d" d="M987.292,735.444s0-3.516-6.074-3.836-7.033,3.836-7.033,3.836-1.6,1.6-1.918,6.393,0,17.263,0,17.263-2.877,9.59,10.23,7.672,8.312-11.828,8.312-11.828Z" transform="translate(-520.429 -384.918)"/><path class="a" d="M953.82,277.532l-1.6,17.9-2.877,6.713,7.672,10.869,18.861-17.582s-3.516-9.59-1.279-15.025Z" transform="translate(-510.295 -181.79)"/><path class="b" d="M979.319,319.866l-.147,1.576-5.607,59.8s-.221,2.781-.63,6.489c-.691,6.272-1.918,15.194-3.526,17.806a7.937,7.937,0,0,0-.64,7.672c-14.705,8.631-58.182-3.836-58.182-3.836l9.91-39.64s-8.951-41.239-7.992-45.075,21.1-17.582,21.1-17.582l.595,1.6c8.583,11.508,17.307,1.6,19.865-.639l5.115-4.476Z" transform="translate(-492.956 -193.435)"/><path class="e" d="M630.585,466.934c-30.478,4.135-59.553,5.648-86.458,3.1a208.6,208.6,0,0,1-28.36-4.87c-17.107-4.049-38.106-4.049-61.177-1.893a175.59,175.59,0,0,0-41.18,8.734c-17.879,6.189-37.465,5.653-58.231.472a106.2,106.2,0,0,1-24.45-9.735c-15.181-8.158-33.148-5.2-52.73,4.19V393.986c18.282-7.962,36.091-9.247,53.335-2.535a112.663,112.663,0,0,0,19.42,5.793,153.078,153.078,0,0,0,72.148-3.258c31.7-10.743,64.868-7.4,98.453,0,37.418,7.9,73.886,8.369,109.227,0Z" transform="translate(-209.962 -230.817)"/><rect class="f" width="20.154" height="20.154" transform="translate(236.81 17.454) rotate(150)"/><rect class="b" width="20.154" height="20.154" transform="translate(172.151 105.323) rotate(150)"/><rect class="e" width="20.154" height="20.154" transform="translate(349.548 82.113) rotate(150)"/><path class="c" d="M161.447,402.619,172,451.479,139.949,523.4l18.762,8.209,35.96-82.475L171.683,376.7,158,380.22Z" transform="translate(-130.519 -168.521)"/><path class="c" d="M193.875,489.34a42.69,42.69,0,0,0,12.508,12.9c8.6,5.863,26.58,44.56,26.58,44.56l-19.544,78.175,26.97,7.427,14.853-91.856L224.754,471.75Z" transform="translate(-172.328 -268.676)"/><path class="d" d="M174,741.488s-3.909,4.3-2.345,7.427S174,760.25,174,760.25h3.518v-9.381l11.335,10.554s26.189,2.345,25.8,0-15.635-7.818-15.635-7.818l-7.427-11.335Z" transform="translate(-162.22 -389.346)"/><path class="d" d="M236.237,743.349s-3.909,4.3-2.345,7.427,2.345,11.335,2.345,11.335h3.518V752.73l11.335,10.554s26.189,2.345,25.8,0-15.635-7.818-15.635-7.818l-7.427-11.335Z" transform="translate(-190.064 -390.178)"/><ellipse class="g" cx="14.853" cy="14.853" rx="14.853" ry="14.853" transform="translate(21.938 83.857)"/><path class="g" d="M186.561,284.319s-1.173,14.853-8.6,20.326-7.427,10.163-7.427,10.163l30.1,13.681L193.6,313.635s-1.954-.782,1.173-4.69,5.863-13.29,5.863-13.29Z" transform="translate(-161.886 -184.827)"/><path class="b" d="M210.243,408.356h0a84.188,84.188,0,0,1-27.753,16.11l-7.094,2.463s-15-18.206-7.426-32.551a22.473,22.473,0,0,1,6.508-7.716l-.156-.684-3.8-16.593-.34-1.485-11.335-2.736s-.035.012-.1.027c-.848.223-6.6,1.278-2.244-12.145,2.9-8.931,5-17.435,6.18-22.633A5.517,5.517,0,0,1,169.5,326.3c3.63,1,8.139,2.885,10.841,6.419,5.081,6.645,6.108-.294,6.108-.294s14.218,15.929,13.436,22.965a27.96,27.96,0,0,0,.172,5.66v.008c.094.836.207,1.708.336,2.6.969,6.582,2.846,14.232,3.534,16.921.051.191.094.36.129.5.082.324.129.5.129.5Z" transform="translate(-154.885 -203.522)"/><path class="h" d="M192.684,416.117l-3.127,10.554s-11.992-3.057-19.016-4.792a22.474,22.474,0,0,1,6.508-7.716l-.156-.684-3.8-16.593-.34-1.485-11.335-2.736s-.035.012-.1.027l-.68-5.109s19.544,1.173,20.716,5.863-1.173,9.381-2.345,10.163,0,0,2.345,1.173-.782,0-2.345,2.345.391.391.782,1.563,0-.391-.391,1.564,1.563.391,1.954.391S192.684,416.117,192.684,416.117Z" transform="translate(-157.456 -231.023)"/><path class="g" d="M211.315,432.486l25.407,6.645s13.681-14.071,21.107-9.772-13.29,14.072-13.29,14.072l-7.427,1.563-26.97-3.127Z" transform="translate(-179.605 -249.346)"/><path class="b" d="M160.633,384.754,162.2,396.48s-1.173,0,0,2.736,0,8.208,0,8.208-2.345.391-.391,1.564,3.909,4.3,3.127,5.472-2.345,2.736,1.173,3.518,23.453,5.863,23.453,5.863l3.127-10.554s-10.945-5.472-11.335-5.472-2.345,1.563-1.954-.391.782-.391.391-1.563-2.345.782-.782-1.564,4.69-1.173,2.345-2.345-3.518-.391-2.345-1.173,3.518-5.472,2.345-10.163S160.633,384.754,160.633,384.754Z" transform="translate(-157.456 -229.757)"/><path class="b" d="M197.115,319.466l1.178-1.873a3.91,3.91,0,0,0-1.228-5.391l-8.974-5.644a3.91,3.91,0,0,0-5.391,1.228l-1.178,1.873a3.9,3.9,0,0,0-3.324,1.825l-2.9,4.608a3.91,3.91,0,0,0,1.228,5.391l12.093,7.606a3.91,3.91,0,0,0,5.391-1.228l2.9-4.608a3.9,3.9,0,0,0,.2-3.786Z" transform="translate(-163.749 -194.507)"/><path class="d" d="M196.22,264.772c.831-1.214.467-2.9,1.061-4.245.934-2.112,3.688-2.546,5.993-2.685a17.669,17.669,0,0,1,4.59.124,4.407,4.407,0,0,1,3.128,2.385c.324.691.29-1.45.138-4.2a13.276,13.276,0,0,0-9.891-12.12l-.1-.025a25.172,25.172,0,0,0-8.526-.993,11.121,11.121,0,0,0-7.575,3.643c-.839,1.011-1.445,2.213-2.377,3.14-1.638,1.628-4.02,2.177-6.214,2.9a18.531,18.531,0,0,0-6.827,3.721,10.045,10.045,0,0,0-3.422,6.822c-.12,3.044,1.741,6.233,4.848,6.909a3.506,3.506,0,0,1,1.481.682c2.924,2.383-.534,4.72-.573,7.322-.033,2.171,2.349,3.645,4.515,3.8a8.74,8.74,0,0,0,8.869-6.7,18.219,18.219,0,0,0-.007-5.413c-.194-2.065,4.358-6.806,1.343-3.323a5.1,5.1,0,0,0-1.177,2.331c-.556,2.827,2,3.845,3.595,5.457a6.752,6.752,0,0,1,1.466,6.988,7.785,7.785,0,0,0,1.652-9.793c-.505-.817-1.164-1.534-1.642-2.368-.745-1.3-.892-4.1,1.28-3.967C193.4,265.248,194.983,266.578,196.22,264.772Z" transform="translate(-159.946 -166.316)"/><ellipse class="a" cx="16.304" cy="16.304" rx="16.304" ry="16.304" transform="translate(438.091 71.766)"/><path class="h" d="M990.954,336.958l-5.607,59.8s-.221,2.781-.63,6.49c-11.9,2.845-44.765,5.019-44.765,5.019l-1.6-11.508,36.444-9.91s-4.475-24.935.639-35.165a79.1,79.1,0,0,0,3.356-7.648A11.1,11.1,0,0,1,990.954,336.958Z" transform="translate(-505.378 -208.312)"/><path class="a" d="M926.635,441.42s-25.255-5.115-22.058,5.754,24.3,3.836,24.3,3.836Z" transform="translate(-490.142 -254.569)"/><path class="b" d="M982.348,330.172l9.91,1.6s7.033,19.181,5.754,32.288-.959,30.05-9.59,33.247-47.313,5.754-47.313,5.754l-1.6-11.509,36.444-9.91s-4.475-24.935.64-35.165S982.348,330.172,982.348,330.172Z" transform="translate(-505.895 -205.339)"/><path class="d" d="M948.366,224.674l-3.134-1.254s6.552-7.213,15.668-6.586l-2.564-2.823s6.268-2.509,11.965,4.077c2.995,3.462,6.46,7.532,8.621,12.116h3.356l-1.4,3.084,4.9,3.084-5.032-.554a17.233,17.233,0,0,1,.137,5.115,6.618,6.618,0,0,1-2.424,4.33h0s-3.886-8.044-3.886-9.3V239.1s-3.134-2.823-3.134-4.7l-1.709,2.2H958.337l1.709-2.823-6.552.941,2.564-3.45-10.145,14.246S940.1,229.378,948.366,224.674Z" transform="translate(-507.872 -153.163)"/><ellipse class="f" cx="59.685" cy="59.685" rx="59.685" ry="59.685" transform="translate(184.645 141.063)"/><path class="i" d="M604.369,487.907c0,3.662-13.448,12.849-29.014,12.849S548,491.57,548,487.907s11.79,1.243,27.356,1.243S604.369,484.245,604.369,487.907Z" transform="translate(-330.749 -275.296)"/><ellipse class="j" cx="6.632" cy="6.632" rx="6.632" ry="6.632" transform="translate(259.252 176.985)"/><ellipse class="j" cx="6.632" cy="6.632" rx="6.632" ry="6.632" transform="translate(216.146 176.985)"/><ellipse class="i" cx="3.316" cy="3.316" rx="3.316" ry="3.316" transform="translate(223.33 176.985)"/><ellipse class="i" cx="3.316" cy="3.316" rx="3.316" ry="3.316" transform="translate(257.041 176.985)"/><ellipse class="f" cx="23.764" cy="23.764" rx="23.764" ry="23.764" transform="translate(221.672 97.405)"/><path class="b" d="M567.627,326.519c8.392,5,8.693,19.968,8.693,19.968s-13.305,6.872-21.7,1.876-8.694-19.968-8.694-19.968S559.234,321.522,567.627,326.519Z" transform="translate(-329.823 -202.891)"/><path class="b" d="M621.154,344.119c-7.584,6.154-21.741,1.272-21.741,1.272s-1.86-14.859,5.724-21.013,21.741-1.272,21.741-1.272S628.738,337.966,621.154,344.119Z" transform="translate(-353.659 -201.357)"/></g></g></svg>