<svg xmlns="http://www.w3.org/2000/svg" width="546.357" height="417.871" viewBox="0 0 546.357 417.871"><defs><style>.a{fill:#eef0f1;}.b{fill:#ed7015;}.c{fill:#eeae1d;}.d{fill:#252525;}.e{fill:#fff;}.f{fill:none;stroke:#252525;stroke-miterlimit:10;stroke-width:2px;}.g{fill:#f1f3f4;}.h{fill:#fbbebe;}.i{opacity:0.1;}.j{fill:#3f3d56;}.k{fill:#2f2e41;}</style></defs><g transform="translate(12)"><path class="a" d="M269.143,64.911l-88.022,47.678a22.392,22.392,0,1,1-39.361,21.32l-30.013,16.257,77.743,143.528,157.4-85.255Z" transform="translate(-110.422 -64.911)"/><circle class="b" cx="17.543" cy="17.543" r="17.543" transform="translate(34.173 39.399)"/><path class="a" d="M748.477,579.54l91.879-29.97a21.618,21.618,0,1,1,41.085-13.4l31.328-10.219L863.9,376.131l-164.293,53.59Z" transform="translate(-378.413 -208.532)"/><circle class="c" cx="17.543" cy="17.543" r="17.543" transform="translate(466.014 316.415)"/><rect class="d" width="424.211" height="192.726" transform="translate(62.966 82.249)"/><rect class="e" width="410.215" height="174.96" transform="translate(69.964 89.248)"/><rect class="c" width="39.837" height="13.458" transform="translate(398.62 255.864)"/><rect class="c" width="29.07" height="3.768" transform="translate(367.397 266.092)"/><path class="f" d="M190.5,274.367H347.157L371.444,286.2l38.7,18.853,25.3-47.374h71.6" transform="translate(-87.159 -118.903)"/><path class="f" d="M304.925,288.678l11.615,27.455h28.532" transform="translate(-139.984 -133.215)"/><path class="f" d="M385.807,270.212l39.672-21.534h27.994" transform="translate(-177.324 -114.748)"/><circle class="b" cx="4.845" cy="4.845" r="4.845" transform="translate(159.867 150.618)"/><circle class="c" cx="4.845" cy="4.845" r="4.845" transform="translate(205.087 150.618)"/><path class="f" d="M526.5,310.678l3.23,47.912h27.994" transform="translate(-242.277 -143.371)"/><path class="f" d="M600.266,272.523,569.5,248.678h29.07" transform="translate(-262.128 -114.748)"/><path class="f" d="M721.051,257.678l29.85,23.687H778.9" transform="translate(-332.093 -118.903)"/><circle class="b" cx="4.845" cy="4.845" r="4.845" transform="translate(279.378 162.462)"/><circle class="b" cx="4.845" cy="4.845" r="4.845" transform="translate(383.816 133.93)"/><circle class="c" cx="4.845" cy="4.845" r="4.845" transform="translate(333.212 152.772)"/><line class="f" x2="27.994" transform="translate(177.094 187.225)"/><path class="f" d="M615.93,322.589Z" transform="translate(-339.782 -183.814)"/><path class="f" d="M727.93,321.589Z" transform="translate(-391.488 -183.352)"/><path class="f" d="M727.93,329.589Z" transform="translate(-391.488 -187.046)"/><path class="f" d="M932.93,374.589Z" transform="translate(-486.128 -207.82)"/><path class="f" d="M913.93,382.589Z" transform="translate(-477.357 -211.514)"/><path class="f" d="M688.93,472.589Z" transform="translate(-373.483 -253.063)"/><circle class="f" cx="7.943" cy="7.943" r="7.943" transform="translate(428.652 32.774)"/><ellipse class="g" cx="94.615" cy="12.409" rx="94.615" ry="12.409" transform="translate(-12 393.052)"/><path class="b" d="M243.87,493.658l-14.6,7.365.945,1.881,14.6-7.365Z" transform="translate(-105.058 -227.846)"/><path class="h" d="M347.133,532.56l-.656,3.935s.984,27.217-6.23,18.691-2.3-20-2.3-20l1.968-3.279Z" transform="translate(-210.694 -280.447)"/><path class="h" d="M276.731,299.221s-1.312,13.772-1.967,14.428,9.837,13.116,9.837,13.116l9.182-8.526s-.656-12.461,1.312-15.084S276.731,299.221,276.731,299.221Z" transform="translate(-182.265 -173.026)"/><path class="i" d="M276.731,299.221s-1.312,13.772-1.967,14.428,9.837,13.116,9.837,13.116l9.182-8.526s-.656-12.461,1.312-15.084S276.731,299.221,276.731,299.221Z" transform="translate(-182.265 -173.026)"/><path class="j" d="M119.378,699.207v11.8l-4.591.656-6.558-1.968,1.967-12.461Z" transform="translate(-49.178 -321.831)"/><path class="d" d="M205.01,772.784s-1.967-5.247-5.247-4.591-3.935,4.591-3.935,4.591-2.623,9.837-6.558,13.117-7.87,11.8,0,13.116,14.428-1.968,14.428-2.624,1.967-4.591,5.247-5.246,5.9-1.312,5.9-3.935a10.348,10.348,0,0,0-1.967-5.247s-.656-12.44-1.967-10.811a13.048,13.048,0,0,0-1.968,4.252Z" transform="translate(-140.712 -389.506)"/><path class="j" d="M179.073,689.368,176.45,699.2l6.558,1.312,3.279-3.279.656-8.526Z" transform="translate(-80.672 -317.894)"/><path class="d" d="M279.473,765.054s2.623-1.967,3.935-1.967h1.967s0-4.591,3.279-4.591,2.623,3.279,2.623,3.279,7.214,11.149,9.182,13.116,12.461,7.87,3.935,10.493-14.428,2.623-18.363-1.968c0,0-3.935-1.967-6.558-1.967s-5.9-1.312-5.9-3.279,1.967-5.9,1.967-5.9,1.312-11.8,1.967-10.493S279.473,765.054,279.473,765.054Z" transform="translate(-181.728 -385.055)"/><path class="d" d="M219.7,474.647v21.642s-7.214,41.973-7.214,55.745-11.149,79.355-5.9,80.666,17.707,3.279,18.363,1.312,5.247-64.271,5.9-64.926,14.428-52.466,14.428-52.466l2.623.656L249.21,576.3s-6.558,53.122-3.279,53.122,17.051-.656,17.051-4.59S270.2,548.1,270.2,548.1s8.526-57.713,5.247-63.615-3.279-9.182-3.279-9.182Z" transform="translate(-150.154 -254.013)"/><circle class="h" cx="13.116" cy="13.116" r="13.116" transform="translate(92.17 110.127)"/><path class="c" d="M254.818,327.614s-8.2-6.886-8.854-9.509c0,0-4.263,4.263-4.263,4.919s-18.363,2.623-22.954,7.87-8.526,16.4-8.526,16.4l11.149,20.986s.656,11.8.656,13.117-3.279,22.3-1.967,22.954,14.428,7.214,25.577,5.9,22.3-3.279,25.577-3.279,5.9,1.312,5.9,0-1.967-3.935-1.967-5.247-.656-4.591-.656-6.558-1.312-5.247-1.312-7.87,14.428-38.038,14.428-38.038-.656-11.149-11.149-16.4-11.8-7.214-11.8-7.214-.2-3.935-.758-3.935-2.521,5.9-7.768,6.558Z" transform="translate(-152.483 -181.744)"/><path class="h" d="M122.847,428.384l4.591,7.214,11.8-2.623-8.526-9.837Z" transform="translate(-55.926 -195.289)"/><path class="c" d="M334.291,366.224l3.935,5.247s7.87,38.038,6.558,51.81-2.623,24.266-2.623,24.266,2.623,9.837.656,9.837-13.772.656-13.772-1.312,1.312-14.428,1.312-14.428l-3.279-28.856-7.214-9.837Z" transform="translate(-203.1 -203.959)"/><path class="k" d="M272.827,265.048c.8-.341,1.733-.064,2.594-.21,1.011-.171,1.916-.92,2.937-.825a5.644,5.644,0,0,1,1.4.454,1.825,1.825,0,0,0,1.432.051.814.814,0,0,0,.311-1.223,4.049,4.049,0,0,0,2.33-1,1.736,1.736,0,0,1,.445-.334,1.451,1.451,0,0,1,1.143.178l1.5.692a1.9,1.9,0,0,1,.858.613c.179.278.214.653.466.866.323.272.8.139,1.226.166A1.568,1.568,0,0,1,290.884,266c-.006.44-.166.981.182,1.25.2.156.489.131.726.227.613.249.616,1.1.525,1.759s-.046,1.521.585,1.723c.444.142.9-.161,1.359-.228a3.351,3.351,0,0,1,1.959.666,1.818,1.818,0,0,0,1.979.1,1.866,1.866,0,0,0,.33-1.836,10.119,10.119,0,0,0-.962-2.631,1.67,1.67,0,0,1-.279-.819,1.483,1.483,0,0,1,.688-1,4.56,4.56,0,0,0,1.878-2.14,9.147,9.147,0,0,0-.007-2.121,12.467,12.467,0,0,0,.2-2.573c-.292-1.539-2-2.279-3.11-3.389-1.519-1.524-2.012-3.963-3.8-5.153-1.434-.953-3.31-.839-4.943-1.384-1.794-.6-3.238-1.974-5.008-2.641a6.978,6.978,0,0,0-5.932.52,5.937,5.937,0,0,1-1.744.891,6.269,6.269,0,0,1-1.587-.018,6.127,6.127,0,0,0-3.027.625,1.692,1.692,0,0,0-.848.744c-.317.7.144,1.8-.551,2.14-.324.157-.706.007-1.066.015a2.04,2.04,0,0,0-1.57,1.239,5.942,5.942,0,0,1-1.1,1.771c-.855.749-2.408.873-2.632,1.987a10.836,10.836,0,0,0,.08,1.412c-.064.988-1.122,1.738-1.066,2.726.064,1.14,1.512,1.7,1.9,2.771a4.024,4.024,0,0,1-.36,2.529,2.191,2.191,0,0,0,.342,2.417c.27.208.618.293.893.493.713.519.7,1.566.625,2.444a1.15,1.15,0,0,0,.259,1.046.969.969,0,0,0,.793.1,3.236,3.236,0,0,0,2.048-1.541c.23-.38.276-.714.693-.916.283-.137.627-.015.915-.192C271.616,268.17,271.144,265.761,272.827,265.048Z" transform="translate(-176.449 -148.172)"/><path class="c" d="M204.752,368.661l-1.967,1.967s-11.8,35.414-7.87,43.284,11.8,27.545,14.428,26.889,11.8-6.558,11.8-7.214S210,414.569,210,414.569s-1.312-3.935-.656-4.591.656,0,0-1.312-.656,0,.656-1.312,1.312-1.312,1.312-1.967,3.935-17.051,3.935-17.051Z" transform="translate(-145.045 -205.084)"/><path class="k" d="M128.329,442.955l14.429-4.591,1.967,4.591-15.739,3.279Z" transform="translate(-58.457 -202.319)"/><path class="i" d="M128.329,442.955l14.429-4.591,1.967,4.591-15.739,3.279Z" transform="translate(-58.457 -202.319)"/><path class="i" d="M164.876,262.939l11.149,9.181,1.312-1.968Z" transform="translate(-75.329 -121.332)"/><path class="i" d="M199.547,267.812l-7.869,4.59.656,1.968Z" transform="translate(-87.703 -123.582)"/></g></svg>