<svg xmlns="http://www.w3.org/2000/svg" xmlns:xlink="http://www.w3.org/1999/xlink" width="896" height="456.878" viewBox="0 0 896 456.878"><defs><style>.a{fill:none;stroke:#000;}.a,.s{opacity:0.1;}.b{fill:#dadce0;}.am,.aq,.b{isolation:isolate;}.c{fill:#f2f2f2;}.d{fill:#252525;}.am,.e{fill:#fff;}.aq,.f{fill:#ed7015;}.g{opacity:0.989;}.h{opacity:0.7;}.i{fill:url(#a);}.j{fill:url(#b);}.k{fill:url(#c);}.l{fill:url(#d);}.m{fill:url(#e);}.n{fill:url(#f);}.o{fill:url(#g);}.p{fill:url(#h);}.q{fill:url(#i);}.r{fill:url(#j);}.t{fill:#e0e0e0;}.u{fill:#eeae1d;}.v{fill:url(#k);}.w{fill:#eee;}.x{fill:url(#m);}.y{fill:url(#n);}.z{fill:url(#o);}.aa{fill:url(#q);}.ab{fill:url(#r);}.ac{fill:url(#s);}.ad{fill:url(#t);}.ae{fill:url(#u);}.af{fill:url(#v);}.ag{fill:url(#w);}.ah{fill:url(#x);}.ai{fill:url(#y);}.aj{fill:url(#z);}.ak{fill:url(#aa);}.al{fill:url(#ab);}.am{opacity:0.25;}.an{fill:url(#ac);}.ao{opacity:0.841;}.ap{fill:#f2c45c;opacity:0.789;}.aq{opacity:0.198;}</style><linearGradient id="a" x1="1.518" y1="-10.878" x2="1.518" y2="-9.878" gradientUnits="objectBoundingBox"><stop offset="0" stop-color="gray" stop-opacity="0.251"/><stop offset="0.54" stop-color="gray" stop-opacity="0.122"/><stop offset="1" stop-color="gray" stop-opacity="0.102"/></linearGradient><linearGradient id="b" x1="0.508" y1="-12.029" x2="0.508" y2="-13.029" gradientUnits="objectBoundingBox"><stop offset="0" stop-color="#f2f2f2"/><stop offset="0.31" stop-color="#e6e6e6"/><stop offset="0.77" stop-color="#ccc"/></linearGradient><linearGradient id="c" x1="0.503" y1="-10.898" x2="0.503" y2="-11.898" xlink:href="#b"/><linearGradient id="d" x1="4.567" y1="-10.898" x2="4.567" y2="-11.898" xlink:href="#b"/><linearGradient id="e" x1="4.898" y1="-12.029" x2="4.898" y2="-13.029" xlink:href="#b"/><linearGradient id="f" x1="4.499" y1="-14.309" x2="4.499" y2="-15.309" xlink:href="#b"/><linearGradient id="g" x1="5.741" y1="-24.444" x2="5.741" y2="-25.444" xlink:href="#b"/><linearGradient id="h" x1="7.633" y1="-20.498" x2="7.633" y2="-21.498" xlink:href="#b"/><linearGradient id="i" x1="1.518" y1="-20.485" x2="1.518" y2="-21.485" xlink:href="#b"/><linearGradient id="j" x1="1.392" y1="1.04" x2="1.392" y2="2.04" xlink:href="#a"/><linearGradient id="k" x1="0.5" y1="4.77" x2="0.5" y2="3.77" gradientUnits="objectBoundingBox"><stop offset="0" stop-color="#e0e0e0"/><stop offset="0.31" stop-color="#fccc63"/><stop offset="0.77" stop-color="#f55f44"/></linearGradient><linearGradient id="m" x1="0.911" y1="0.325" x2="0.911" y2="1.325" xlink:href="#a"/><linearGradient id="n" x1="0.5" y1="2.472" x2="0.5" y2="1.472" xlink:href="#b"/><linearGradient id="o" x1="0.5" y1="2.002" x2="0.5" y2="1.002" xlink:href="#b"/><linearGradient id="q" x1="0.5" y1="2.002" x2="0.5" y2="1.002" xlink:href="#b"/><linearGradient id="r" x1="2.232" y1="1.097" x2="2.232" y2="0.097" xlink:href="#b"/><linearGradient id="s" x1="2.233" y1="0.733" x2="2.233" y2="-0.267" xlink:href="#b"/><linearGradient id="t" x1="2.233" y1="0.499" x2="2.233" y2="-0.501" xlink:href="#b"/><linearGradient id="u" x1="2.234" y1="0.732" x2="2.234" y2="-0.268" xlink:href="#b"/><linearGradient id="v" x1="2.233" y1="0.733" x2="2.233" y2="-0.267" xlink:href="#b"/><linearGradient id="w" x1="0.5" y1="12.221" x2="0.5" y2="13.221" xlink:href="#a"/><linearGradient id="x" x1="0.5" y1="14.188" x2="0.5" y2="13.188" xlink:href="#b"/><linearGradient id="y" x1="0.5" y1="2.358" x2="0.5" y2="3.358" xlink:href="#a"/><linearGradient id="z" x1="0.5" y1="3.482" x2="0.5" y2="2.482" gradientUnits="objectBoundingBox"><stop offset="0" stop-color="#f2f2f2"/><stop offset="0.31" stop-color="#e0e0e0"/><stop offset="0.77" stop-color="#b3b3b3"/></linearGradient><linearGradient id="aa" x1="0.5" y1="7.332" x2="0.5" y2="8.332" xlink:href="#a"/><linearGradient id="ab" x1="0.5" y1="8.677" x2="0.5" y2="7.677" xlink:href="#b"/><linearGradient id="ac" x1="0.5" y1="3.482" x2="0.5" y2="2.482" xlink:href="#b"/></defs><g transform="translate(-1024.5 -2976.535)"><line class="a" x2="896" transform="translate(1024.5 3356.5)"/><g transform="translate(54.605 -83.101)"><circle class="b" cx="3.029" cy="3.029" r="3.029" transform="translate(1421.581 3192.488)"/><circle class="b" cx="3.029" cy="3.029" r="3.029" transform="translate(1017.756 3272.064)"/><circle class="b" cx="3.029" cy="3.029" r="3.029" transform="translate(1538.571 3289.287)"/><circle class="b" cx="3.029" cy="3.029" r="3.029" transform="translate(1163.798 3145.775)"/><circle class="b" cx="3.029" cy="3.029" r="3.029" transform="translate(1153.85 3076.137)"/><circle class="b" cx="3.029" cy="3.029" r="3.029" transform="translate(1068.21 3214.11)"/><path class="b" d="M701.655-205.286h-2.7v-2.69h-1.1v2.69h-2.7v1.1h2.7v2.69h1.1v-2.69h2.7Z" transform="translate(798 3425.981)"/><path class="b" d="M743.021-290.738h-2.7v-2.69h-1.1v2.69h-2.7v1.1h2.7v2.69h1.1v-2.69h2.7Z" transform="translate(801.768 3418.198)"/><path class="b" d="M566.874-338.477h-2.7v-2.7h-1.1v2.7h-2.7v1.1h2.7v2.7h1.1v-2.7h2.7Z" transform="translate(785.723 3413.85)"/><path class="b" d="M674.7-219.16H672v-2.69h-1.1v2.69h-2.69v1.1h2.69v2.69H672v-2.69h2.7Z" transform="translate(795.546 3424.718)"/><path class="b" d="M584.313-137.1h-2.69v-2.69h-1.1v2.69h-2.7v1.1h2.7v2.69h1.1V-136h2.69Z" transform="translate(787.313 3432.191)"/><path class="b" d="M331.406-306.37h-2.7v-2.69h-1.1v2.69h-2.7v1.1h2.7v2.7h1.1v-2.7h2.7Z" transform="translate(764.276 3416.775)"/><path class="b" d="M245.409-274.257h-2.7v-2.69h-1.1v2.69h-2.7v1.1h2.7v2.7h1.1v-2.7h2.7Z" transform="translate(756.443 3419.7)"/><path class="b" d="M365.494-173.172h-2.7v-2.7h-1.1v2.7h-2.69v1.1h2.69v2.7h1.1v-2.7h2.7Z" transform="translate(767.381 3428.905)"/></g><g transform="translate(-6338 -18560.793)"><g transform="translate(7876.948 21869.166)"><g transform="translate(0 0)"><g transform="translate(0 0)"><ellipse class="c" cx="42.5" cy="8.5" rx="42.5" ry="8.5" transform="translate(0.052 71.627)"/><ellipse class="d" cx="25" cy="25.5" rx="25" ry="25.5" transform="translate(17.052 19.627)"/><rect class="d" width="8" height="13" transform="translate(47.052 65.627)"/><rect class="d" width="8" height="13" transform="translate(32.052 65.627)"/><ellipse class="d" cx="6.5" cy="1.5" rx="6.5" ry="1.5" transform="translate(42.052 77.627)"/><ellipse class="d" cx="6" cy="2" rx="6" ry="2" transform="translate(28.052 76.627)"/><circle class="e" cx="8.5" cy="8.5" r="8.5" transform="translate(34.052 30.627)"/><circle class="d" cx="2.5" cy="2.5" r="2.5" transform="translate(40.052 35.627)"/><path class="f" d="M931.136,489.691c2.043-9.169-4.487-18.434-14.586-20.693s-19.941,3.341-21.984,12.51,4.65,12.551,14.748,14.81S929.093,498.86,931.136,489.691Z" transform="translate(-863.316 -468.497)"/></g><circle class="e" cx="4.5" cy="4.5" r="4.5" transform="translate(35.052 53.627)"/></g></g><g transform="translate(7419.361 21537.328)"><g class="g" transform="translate(78.801 360.794)"><g class="h" transform="translate(0.709 0)"><path class="i" d="M348.43,31.266h0c3.961,23.405,26.527,39.232,50.4,35.35,21.244-3.453,36.779-21.524,36.652-42.632v-.632h0a41.112,41.112,0,0,0,4.8-1.009c5.386,21.025,27.141,33.79,48.59,28.511a39.853,39.853,0,0,0,26.7-21.83A40.275,40.275,0,0,0,526.63,31.5h0a42.057,42.057,0,0,0,3.015,9.756c1.442,21.62,20.491,38,42.548,36.589,19.646-1.258,35.44-16.336,37.243-35.554a42,42,0,0,0,3.918-13.648h0C632.34,20.9,632.631,1.284,626.685-18.012l-302.993-.143c-6.389,20.76-2.577,41.846,18.6,48.11A40.827,40.827,0,0,0,348.43,31.266Z" transform="translate(-320.881 18.155)"/></g><ellipse class="j" cx="38.454" cy="37.694" rx="38.454" ry="37.694" transform="translate(207.277 18.78)"/><ellipse class="k" cx="42.108" cy="41.276" rx="42.108" ry="41.276" transform="translate(203.813 1.064)"/><ellipse class="l" cx="42.108" cy="41.276" rx="42.108" ry="41.276" transform="translate(32.689 1.064)"/><ellipse class="m" cx="38.454" cy="37.694" rx="38.454" ry="37.694" transform="translate(38.46 1.064)"/><path class="n" d="M444.231,13.473a37.4,37.4,0,0,1,15.9-30.536h45.107a37.23,37.23,0,0,1,8.644,52.652,38.973,38.973,0,0,1-53.713,8.473,37.479,37.479,0,0,1-15.935-30.588Z" transform="translate(-323.863 18.122)"/><path class="o" d="M395.071-13.668q0-1.692.153-3.349a.1.1,0,0,1,0-.047h76.6c.106,1.118.158,2.252.158,3.389C472,4.968,458.1,20.814,439.291,23.591a39.664,39.664,0,0,1-5.745.425c-.982,0-1.959-.036-2.925-.1A38.463,38.463,0,0,1,398.466,1.791c-.158-.341-.311-.688-.454-1.035A36.874,36.874,0,0,1,395.071-13.668Z" transform="translate(-322.392 18.122)"/><path class="p" d="M320.15-6.127c0-3.7,15.728-4.369,16.824-7.913L395.4-17.058h0A37.222,37.222,0,0,1,396.388.819c-.064.326-.127.658-.2.979a38.3,38.3,0,0,1-37.6,29.765c-1.21,0-2.4-.052-3.575-.166-.528-.042-1.056-.1-1.584-.171C334.365,28.684,320.152,12.728,320.15-6.127Z" transform="translate(-320.15 18.122)"/><path class="q" d="M563.607-17.063c-.127.393-.238.787-.349,1.184-5.489,20.126,6.7,40.8,27.236,46.183a39.216,39.216,0,0,0,20.174-.079,37.246,37.246,0,0,0,4.494-1.521c18.243-7.44,28.344-27.2,22.626-45.737l-74.18-.016Z" transform="translate(-327.385 18.122)"/></g><g transform="translate(0 0)"><g class="h" transform="translate(159.286 0)"><path class="r" d="M552.494-232.411a79.49,79.49,0,0,0-8.976-36.96,45.572,45.572,0,0,0-7.392-10.735,5.279,5.279,0,0,0-6.019-1.187,5.426,5.426,0,0,0-2.112,1.362,47.884,47.884,0,0,0-7.207,10.338,79.814,79.814,0,0,0-9.436,37.974v7.952h-5.1v-92.4a124.122,124.122,0,0,0-12.825-55.44c-4.023-8.03-7.693-13.02-10.518-16.088a7.293,7.293,0,0,0-10.291-.671,7.426,7.426,0,0,0-.67.671,71.981,71.981,0,0,0-10.286,15.486,124.365,124.365,0,0,0-13.464,56.9v91.539H443.79V-232a79.814,79.814,0,0,0-9.435-37.974,48.128,48.128,0,0,0-7.208-10.338,5.281,5.281,0,0,0-6.125-1.119l.185.1a5.438,5.438,0,0,0-1.722,1.2,46.87,46.87,0,0,0-7.391,10.734,79.491,79.491,0,0,0-8.976,36.96V-94.288h15.734L417.136-82.93v33.956H430V-82.93l-1.716-11.358H443.79V-220.093H448.2V-94.852h12.566l-1.806,11.917v33.96h12.867V-82.93L470.02-94.847h16.933L485.148-82.93v33.956h12.867V-82.93l-1.806-11.917h10.033V-220.093h5.1v126h4.134v-.19h13.67L527.43-82.93v33.956H540.3V-82.93l-1.716-11.358h13.913Z" transform="translate(-403.118 390.078)"/></g><path class="d" d="M433.091-80.738H420.91l2.175-14.789h7.83Z" transform="translate(-244.364 381.264)"/><g class="s" transform="translate(178.115 287.474)"><path d="M422.527-89.6h9.045l-.607-4.134h-7.83Z" transform="translate(-422.527 93.736)"/></g><path class="d" d="M540.729-80.738H528.548l2.175-14.789h7.83Z" transform="translate(-247.584 381.264)"/><g class="s" transform="translate(282.532 287.474)"><path d="M530.165-89.6h9.045l-.607-4.134h-7.83Z" transform="translate(-530.165 93.736)"/></g><path class="d" d="M473.907-80.738H461.721L463.9-95.527h7.835Z" transform="translate(-245.585 381.264)"/><g class="s" transform="translate(217.704 287.474)"><path d="M463.337-89.6h9.05l-.607-4.134h-7.836Z" transform="translate(-463.337 93.736)"/></g><path class="d" d="M499.467-80.738H487.286l2.175-14.789h7.83Z" transform="translate(-246.35 381.264)"/><g class="s" transform="translate(242.504 287.474)"><path d="M488.9-89.6h9.05l-.612-4.134h-7.83Z" transform="translate(-488.902 93.736)"/></g><rect class="d" width="87.014" height="3.48" transform="translate(188.728 163.479)"/><path class="t" d="M536.323-278.282a4.9,4.9,0,0,0-6.928-.342c-.119.109-.234.223-.342.342a46.717,46.717,0,0,0-6.822,10.064,79.505,79.505,0,0,0-8.928,36.96V-97.311h38.506v-134.5a79.2,79.2,0,0,0-8.506-36.014A45.248,45.248,0,0,0,536.323-278.282Z" transform="translate(-247.128 386.781)"/><path class="t" d="M422.729-278.282a4.9,4.9,0,0,1,6.928-.342c.12.109.234.223.342.342a46.712,46.712,0,0,1,6.822,10.064,79.506,79.506,0,0,1,8.929,36.96V-97.311H407.232v-134.5a79.2,79.2,0,0,1,8.507-36.014A44.589,44.589,0,0,1,422.729-278.282Z" transform="translate(-243.954 386.781)"/><path class="d" d="M407.456-227.385l9.134.042v11.267h-9.134Z" transform="translate(-243.961 385.21)"/><path class="d" d="M437.506-227.385l9.134.042v11.267h-9.134Z" transform="translate(-244.86 385.21)"/><path class="d" d="M513.3-227.385l9.14.042v11.267H513.3Z" transform="translate(-247.128 385.21)"/><path class="d" d="M543.347-227.385l9.14.042v11.267h-9.14Z" transform="translate(-248.027 385.21)"/><g class="s" transform="translate(180.222 106.717)"><path d="M437.328-268.4a46.593,46.593,0,0,0-6.822-10.064,4.889,4.889,0,0,0-5.808-1.092,5.2,5.2,0,0,1,1.468,1.092,46.77,46.77,0,0,1,6.822,10.064,79.521,79.521,0,0,1,8.929,36.96V-97.5h4.351V-231.422A79.517,79.517,0,0,0,437.328-268.4Z" transform="translate(-424.699 280.069)"/></g><g class="s" transform="translate(265.725 107.079)"><path d="M525.681-268.017a46.56,46.56,0,0,1,6.822-10.064,5.188,5.188,0,0,1,1.684-1.2,4.9,4.9,0,0,0-5.6,1.2,46.738,46.738,0,0,0-6.822,10.064,79.509,79.509,0,0,0-8.929,36.96V-97.12h3.918V-231.036A79.507,79.507,0,0,1,525.681-268.017Z" transform="translate(-512.839 279.696)"/></g><rect class="u" width="12.181" height="33.063" transform="translate(176.547 300.527)"/><rect class="v" width="12.181" height="33.063" transform="translate(216.136 300.527)"/><rect class="v" width="12.181" height="33.063" transform="translate(240.936 300.527)"/><rect class="u" width="12.181" height="33.063" transform="translate(280.964 300.527)"/><path class="w" d="M484.079-386.564a6.78,6.78,0,0,0-9.552-.824,6.8,6.8,0,0,0-.823.824,70.892,70.892,0,0,0-9.736,15.085,124.057,124.057,0,0,0-12.746,55.414v214.942h54.959V-316.932A123.454,123.454,0,0,0,494.037-370.9C490.23-378.719,486.756-383.577,484.079-386.564Z" transform="translate(-245.271 390.045)"/><rect class="u" width="28.676" height="13.142" rx="5.987" transform="translate(218.713 27.356)"/><g class="h" transform="translate(71.858 282.375)"><path class="x" d="M602.6-51.389h0a43.824,43.824,0,0,0-50.4-36.063A43.823,43.823,0,0,0,515.54-43.961v.644h0a40.4,40.4,0,0,0-4.8,1.029,40.043,40.043,0,0,0-48.59-29.085,40.039,40.039,0,0,0-26.7,22.269A39.586,39.586,0,0,0,424.4-51.627h0a43.527,43.527,0,0,0-3.015-9.953,40.022,40.022,0,0,0-42.548-37.327,40.021,40.021,0,0,0-37.243,36.271,43.494,43.494,0,0,0-3.918,13.923h0A40.065,40.065,0,0,0,314.711-.136h320.8a40.054,40.054,0,0,0-26.778-49.916A40.077,40.077,0,0,0,602.6-51.389Z" transform="translate(-312.992 98.993)"/></g><circle class="y" cx="38.454" cy="38.454" r="38.454" transform="translate(102.907 358.413) rotate(-85.935)"/><circle class="z" cx="42.108" cy="42.108" r="42.108" transform="translate(101.692 295.094)"/><circle class="z" cx="42.108" cy="42.108" r="42.108" transform="translate(272.817 295.094)"/><circle class="aa" cx="38.454" cy="38.454" r="38.454" transform="translate(274.353 302.401)"/><path class="ab" d="M514.205-32.364A38.383,38.383,0,0,1,498.3-1.211H453.2a38.47,38.47,0,0,1-8.643-53.714,38.47,38.47,0,0,1,53.713-8.643A38.47,38.47,0,0,1,514.2-32.364Z" transform="translate(-244.853 380.526)"/><path class="ac" d="M463.865-11.75A38.259,38.259,0,0,1,462.218-.6H388.6m0-.026a38.454,38.454,0,0,1,25.684-47.935,38.467,38.467,0,0,1,10.9-1.643h.238q1.615,0,3.2.132a38.07,38.07,0,0,1,10.608,2.423,38.464,38.464,0,0,1,24.636,35.9Z" transform="translate(-243.347 379.908)"/><path class="ad" d="M563.367-3.82q0,1.727-.153,3.417a.1.1,0,0,1,0,.048h-76.6c-.106-1.141-.158-2.3-.158-3.458A38.418,38.418,0,0,1,519.147-41.83a38.869,38.869,0,0,1,5.745-.433c.982,0,1.959.037,2.925.106a38.486,38.486,0,0,1,32.155,22.566c.158.349.311.7.454,1.056A38.272,38.272,0,0,1,563.367-3.82Z" transform="translate(-246.325 379.67)"/><path class="ae" d="M638.288-11.75A38.292,38.292,0,0,1,636.641-.6h-73.6a38.707,38.707,0,0,1-.987-18.236c.064-.333.127-.671.2-1a38.47,38.47,0,0,1,37.6-30.365c1.21,0,2.4.053,3.575.169.528.043,1.056.106,1.584.175A38.46,38.46,0,0,1,638.288-11.75Z" transform="translate(-248.567 379.908)"/><path class="af" d="M394.83-.594c.127-.4.238-.8.349-1.21a38.481,38.481,0,0,0-27.236-47.114,38.479,38.479,0,0,0-20.174.081,36.584,36.584,0,0,0-4.493,1.552A38.491,38.491,0,0,0,321.217-.61H394.83Z" transform="translate(-241.331 379.909)"/><g class="h" transform="translate(368.052 286.118)"><circle class="ag" cx="7.054" cy="7.054" r="7.054" transform="translate(0 0)"/></g><circle class="ah" cx="6.537" cy="6.537" r="6.537" transform="translate(368.569 286.635)"/><g class="h" transform="translate(399.716 353.543)"><circle class="ai" cx="7.693" cy="7.693" r="7.693" transform="translate(0 0)"/></g><circle class="aj" cx="7.308" cy="7.308" r="7.308" transform="translate(400.101 353.928)"/><g class="h" transform="translate(69.78 308.943)"><circle class="ak" cx="8.453" cy="8.453" r="8.453" transform="translate(0 0)"/></g><circle class="al" cx="8.073" cy="8.073" r="8.073" transform="translate(70.16 309.323)"/><circle class="am" cx="2.693" cy="2.693" r="2.693" transform="translate(378.949 153.965)"/><circle class="am" cx="2.693" cy="2.693" r="2.693" transform="translate(19.911 224.717)"/><circle class="am" cx="2.693" cy="2.693" r="2.693" transform="translate(482.965 240.029)"/><circle class="am" cx="2.693" cy="2.693" r="2.693" transform="translate(149.756 112.433)"/><circle class="am" cx="2.693" cy="2.693" r="2.693" transform="translate(140.912 50.52)"/><circle class="am" cx="2.693" cy="2.693" r="2.693" transform="translate(64.77 173.189)"/><path class="am" d="M700.935-205.584h-2.4v-2.392h-.977v2.392h-2.4v.982h2.4v2.392h.977V-204.6h2.4Z" transform="translate(-252.57 384.629)"/><path class="am" d="M566.154-338.776h-2.4v-2.4h-.977v2.4h-2.4v.977h2.4v2.4h.977v-2.4h2.4Z" transform="translate(-248.537 388.615)"/><path class="am" d="M673.977-219.458h-2.4v-2.392H670.6v2.392h-2.392v.982H670.6v2.392h.977v-2.392h2.4Z" transform="translate(-251.763 385.044)"/><path class="am" d="M583.593-137.4H581.2v-2.392h-.977v2.392h-2.4v.982h2.4v2.392h.977v-2.392h2.392Z" transform="translate(-249.059 382.589)"/><path class="am" d="M330.686-306.669h-2.4v-2.392h-.977v2.392h-2.4v.977h2.4v2.4h.977v-2.4h2.4Z" transform="translate(-241.491 387.654)"/><path class="am" d="M244.689-274.556h-2.4v-2.392h-.977v2.392h-2.4v.977h2.4v2.4h.977v-2.4h2.4Z" transform="translate(-238.918 386.693)"/><path class="am" d="M364.775-173.471h-2.4v-2.4H361.4v2.4h-2.392v.977H361.4v2.4h.977v-2.4h2.4Z" transform="translate(-242.511 383.668)"/><circle class="an" cx="7.308" cy="7.308" r="7.308" transform="translate(400.101 353.928)"/><g class="s" transform="translate(206.231 81.328)"><rect width="54.384" height="2.112"/></g></g></g></g><g class="ao" transform="translate(525.813 2893.896)"><path class="ap" d="M651.36,147.691a22.593,22.593,0,0,1-21.161,22.55c-.474.033-.953.049-1.432.049a22.593,22.593,0,1,1,11.3-42.166h0a22.789,22.789,0,0,1,6.733,5.96h0A22.477,22.477,0,0,1,651.36,147.691Z"/><path class="aq" d="M623.2,133.36a24.653,24.653,0,0,0-3.369,1.775,5.33,5.33,0,0,0-1.8,1.633,2.122,2.122,0,0,0-.044,2.3,3.252,3.252,0,0,0,2.542.92,4.824,4.824,0,0,0,4.616-1.524l1.943-1.764c.675-.609,1.415-1.453,1.121-2.313a1.953,1.953,0,0,0-1.633-1.089,6.852,6.852,0,0,0-4.86.855"/><circle class="aq" cx="1.187" cy="1.187" r="1.187" transform="translate(613.903 155.426)"/><circle class="aq" cx="4.36" cy="4.36" r="4.36" transform="translate(634.912 144.72)"/><path class="aq" d="M646.8,134.079h0a5.949,5.949,0,1,1-6.733-5.987h0A22.8,22.8,0,0,1,646.8,134.079Z"/><path class="aq" d="M647.24,160.705a22.539,22.539,0,0,1-17.041,9.536c-.028-.31-.044-.626-.044-.942a10.706,10.706,0,0,1,17.085-8.594Z"/></g></g></svg>