<svg xmlns="http://www.w3.org/2000/svg" width="896" height="508.866" viewBox="0 0 896 508.866"><defs><style>.a{fill:none;stroke:#000;opacity:0.1;}.b{fill:#0865ab;}.c{fill:#ed7015;}.d{fill:#eeae1d;}.e{fill:#fff;}.f{fill:#ef7015;}.g{fill:#ee991a;}.h{fill:#ff6584;}.i{fill:#fe6483;}.j{fill:#f2f2f2;}.k{opacity:0.2;}.l{fill:#252525;}</style></defs><g transform="translate(-1024.5 -2910.572)"><path class="a" d="M0,0H896" transform="translate(1024.5 3338.5)"/><g transform="translate(1510.182 2103.504) rotate(169)"><g transform="translate(-13.469 -1229.062)"><path class="b" d="M.036,217.558c-2.457,92.4,120.705,186.714,274.441,186.714S673.038,222.119,556.762,217.558C332.712,208.769,255.933,115.98,278.4,50.2,318.633-67.6,4.875,35.632.036,217.558Z" transform="translate(0 0)"/><path class="c" d="M4.585,3.392,2.711,2.2,3.9.325,3.392,0,2.2,1.874.326.681,0,1.192,1.874,2.385.681,4.26l.512.326L2.385,2.711,4.259,3.9Z" transform="translate(199.945 185.333)"/><path class="c" d="M4.585,3.392,2.711,2.2,3.9.325,3.392,0,2.2,1.874.325.681,0,1.192,1.874,2.385.681,4.26l.512.326L2.385,2.711,4.259,3.9Z" transform="translate(407.723 315.964)"/><path class="d" d="M5.971,4.418,3.53,2.864,5.084.423,4.418,0,2.865,2.441.424.887,0,1.553,2.441,3.106.887,5.547l.666.424L3.106,3.53,5.547,5.083Z" transform="translate(114.055 302.284)"/><path class="c" d="M4.585,3.392,2.711,2.2,3.9.325,3.392,0,2.2,1.874.326.681,0,1.192,1.874,2.385.681,4.26l.512.326L2.385,2.711,4.259,3.9Z" transform="translate(291.237 390.932)"/><path class="d" d="M4.585,3.392,2.711,2.2,3.9.325,3.392,0,2.2,1.874.326.681,0,1.192,1.874,2.385.681,4.26l.512.326L2.385,2.711,4.26,3.9Z" transform="translate(107.298 354.127)"/><path class="c" d="M4.585,3.392,2.711,2.2,3.9.325,3.392,0,2.2,1.874.326.681,0,1.192,1.874,2.385.681,4.26l.512.326L2.385,2.711,4.259,3.9Z" transform="translate(503.477 313.715)"/><path class="e" d="M4.585,3.392,2.711,2.2,3.9.325,3.392,0,2.2,1.874.326.681,0,1.192,1.874,2.385.681,4.26l.512.326L2.385,2.711,4.26,3.9Z" transform="translate(87.152 314.45)"/><path class="e" d="M6.419,4.748,3.795,3.079,5.465.455,4.749,0,3.079,2.624.456.954,0,1.67,2.624,3.339.955,5.963l.715.456L3.34,3.795l2.624,1.67Z" transform="translate(242.128 309.793)"/><circle class="c" cx="2.751" cy="2.751" r="2.751" transform="translate(151.343 316.151)"/><circle class="c" cx="2.751" cy="2.751" r="2.751" transform="translate(25.301 260.967)"/><circle class="c" cx="2.751" cy="2.751" r="2.751" transform="translate(231.124 155.071)"/><circle class="c" cx="1.762" cy="1.762" r="1.762" transform="translate(207.426 295.189)"/><circle class="c" cx="1.834" cy="1.834" r="1.834" transform="translate(204.53 266.03)"/><circle class="f" cx="1.834" cy="1.834" r="1.834" transform="translate(412.301 367.379)"/><circle class="g" cx="1.834" cy="1.834" r="1.834" transform="translate(209.009 347.167)"/><circle class="h" cx="1.834" cy="1.834" r="1.834" transform="translate(226.539 98.216)"/><circle class="c" cx="1.834" cy="1.834" r="1.834" transform="translate(151.343 183.498)"/><circle class="e" cx="1.834" cy="1.834" r="1.834" transform="translate(174.269 122.058)"/><circle class="c" cx="2.751" cy="2.751" r="2.751" transform="translate(447.539 286.204)"/><circle class="h" cx="5.295" cy="5.295" r="5.295" transform="translate(320.727 288.943)"/><circle class="e" cx="2.751" cy="2.751" r="2.751" transform="translate(329.244 261.445)"/><circle class="i" cx="1.338" cy="1.338" r="1.338" transform="translate(44.311 314.931)"/><circle class="d" cx="2.823" cy="2.823" r="2.823" transform="translate(141.845 377.274)"/><circle class="h" cx="2.823" cy="2.823" r="2.823" transform="translate(466.562 302.64)"/></g><path class="d" d="M552.108,198.261l-2.5-1.587,1.588-2.5-.68-.432-1.588,2.495-2.495-1.588-.433.681,2.5,1.587-1.588,2.5.68.433,1.588-2.5,2.495,1.588Z" transform="translate(-292.22 -1073.47)"/><g transform="translate(245.959 -852.412)"><circle class="e" cx="2.824" cy="2.824" r="2.824" transform="translate(0 0)"/></g></g><g transform="translate(-4610.216 -4523.369)"><g transform="translate(5988.222 7546.38)"><path class="b" d="M0,0H265.462C265.462,121.458,167,219.92,45.542,219.92H0Z" transform="translate(243.335 0) rotate(90)"/><circle class="j" cx="21.537" cy="21.537" r="21.537" transform="translate(165.792 30.896)"/><circle class="h" cx="1.846" cy="1.846" r="1.846" transform="translate(119.332 6.897)"/><circle class="h" cx="1.846" cy="1.846" r="1.846" transform="translate(179.329 130.584)"/><circle class="j" cx="1.846" cy="1.846" r="1.846" transform="translate(185.483 6.897)"/><circle class="j" cx="1.846" cy="1.846" r="1.846" transform="translate(211.328 95.816)"/><circle class="j" cx="1.846" cy="1.846" r="1.846" transform="translate(137.793 56.741)"/><circle class="j" cx="1.846" cy="1.846" r="1.846" transform="translate(40.259 44.434)"/><circle class="c" cx="62.766" cy="62.766" r="62.766" transform="translate(14.106 60.125)"/><circle class="k" cx="9.23" cy="9.23" r="9.23" transform="translate(64.873 88.124)"/><circle class="k" cx="15.999" cy="15.999" r="15.999" transform="translate(58.104 143.198)"/><circle class="k" cx="4" cy="4" r="4" transform="translate(23.644 130.891)"/><circle class="k" cx="2.126" cy="2.126" r="2.126" transform="translate(183.329 39.198)"/><circle class="k" cx="2.126" cy="2.126" r="2.126" transform="translate(93.18 81.35)"/><circle class="k" cx="2.769" cy="2.769" r="2.769" transform="translate(68.565 122.892)"/><circle class="k" cx="2.126" cy="2.126" r="2.126" transform="translate(178.154 56.186)"/><circle class="k" cx="2.126" cy="2.126" r="2.126" transform="translate(120.926 108.491)"/><circle class="k" cx="3.071" cy="3.071" r="3.071" transform="translate(196.263 53.236)"/><circle class="k" cx="3.071" cy="3.071" r="3.071" transform="translate(102.421 129.232)"/><circle class="k" cx="4" cy="4" r="4" transform="translate(34.105 93.355)"/><path class="d" d="M274.6,455.466a175.587,175.587,0,0,1-19.754-1.141c-19.724-2.24-37.915-7.533-51.222-14.9-13.47-7.461-20.362-16.2-19.408-24.6.661-5.821,6.288-11.032,17.2-15.928a.616.616,0,0,1,.5,1.123c-10.483,4.7-15.874,9.591-16.482,14.944-.894,7.876,5.776,16.18,18.782,23.384,13.169,7.294,31.2,12.535,50.765,14.757s38.312,1.157,52.781-3c14.29-4.1,22.653-10.7,23.547-18.577.605-5.328-2.33-10.977-8.487-16.337a.615.615,0,0,1,.808-.928c6.476,5.638,9.554,11.656,8.9,17.4-.954,8.4-9.63,15.371-24.43,19.621C298.475,454.054,286.973,455.466,274.6,455.466Z" transform="translate(-184.133 -296.395)"/><circle class="h" cx="1.846" cy="1.846" r="1.846" transform="matrix(-0.454, 0.891, -0.891, -0.454, 143.083, 184.07)"/><circle class="j" cx="1.846" cy="1.846" r="1.846" transform="matrix(-0.454, 0.891, -0.891, -0.454, 159.535, 228.365)"/><circle class="j" cx="1.846" cy="1.846" r="1.846" transform="matrix(-0.454, 0.891, -0.891, -0.454, 227.735, 180.584)"/></g><g transform="translate(5807.587 7806.091)"><g transform="translate(0 0)"><ellipse class="j" cx="54.5" cy="3.5" rx="54.5" ry="3.5" transform="translate(-0.371 98.278)"/><ellipse class="l" cx="31.5" cy="32" rx="31.5" ry="32" transform="translate(25.629 25.278)"/><rect class="l" width="11" height="19" transform="translate(40.629 81.278)"/><rect class="l" width="8" height="19" transform="translate(61.629 81.278)"/><ellipse class="l" cx="8.5" cy="2.5" rx="8.5" ry="2.5" transform="translate(40.629 98.278)"/><ellipse class="l" cx="7.5" cy="3.5" rx="7.5" ry="3.5" transform="translate(61.629 96.278)"/><ellipse class="e" cx="11.5" cy="12" rx="11.5" ry="12" transform="translate(44.629 36.278)"/><ellipse class="l" cx="4" cy="3.5" rx="4" ry="3.5" transform="translate(53.629 44.278)"/><path class="c" d="M894.673,495.3c-2.589-11.595,5.687-23.31,18.485-26.168s25.271,4.225,27.86,15.819-5.893,15.871-18.69,18.728S897.262,506.893,894.673,495.3Z" transform="translate(-870.252 -468.497)"/></g></g></g></g></svg>