<svg xmlns="http://www.w3.org/2000/svg" width="587.773" height="361.616" viewBox="0 0 587.773 361.616"><defs><style>.a,.k{fill:#252525;}.b,.n,.o{fill:#ed7015;}.c{fill:#eeae1d;}.d{fill:#a8a8a8;}.e{opacity:0.2;}.f{fill:#f1f3f4;}.g{fill:none;stroke:#2f2e41;stroke-miterlimit:10;stroke-width:2px;}.h,.k{opacity:0.1;}.i{fill:#3c4043;}.j{fill:#f2f2f2;}.l{fill:#bdc1c6;}.m{fill:#5f6368;}.n{opacity:0.4;}.o{opacity:0.8;}.p{fill:#ee991a;}.q{fill:#fff;}</style></defs><g transform="translate(-28.984 -4.75)"><path class="a" d="M31.391,151.642c0,40.685,25.524,73.607,57.066,73.607" transform="translate(-2.407 -125.389)"/><path class="b" d="M140.092,224.5c0-41.142,28.483-74.434,63.682-74.434" transform="translate(-54.042 -124.641)"/><path class="c" d="M70.775,158.668c0,38.646,16.276,69.918,36.39,69.918" transform="translate(-21.115 -128.726)"/><path class="a" d="M140.092,205.792c0-52.57,32.922-95.11,73.607-95.11" transform="translate(-54.042 -105.932)"/><path class="d" d="M117.224,288.882s8.093-.249,10.532-1.986,12.449-3.811,13.054-1.025,12.162,13.853,3.025,13.927-21.23-1.423-23.664-2.906S117.224,288.882,117.224,288.882Z" transform="translate(-43.179 -188.503)"/><path class="e" d="M144,302.776c-9.137.074-21.23-1.423-23.664-2.906-1.854-1.129-2.593-5.181-2.84-7.051l-.27.01s.513,6.527,2.947,8.01,14.527,2.98,23.664,2.906c2.637-.021,3.548-.96,3.5-2.349C146.967,302.236,145.961,302.76,144,302.776Z" transform="translate(-43.179 -192.451)"/><ellipse class="f" cx="98.171" cy="14.855" rx="98.171" ry="14.855" transform="translate(35.079 204.903)"/><path class="f" d="M148.569,0c82.053,0,148.569,9.049,148.569,20.212S230.622,40.423,148.569,40.423,0,31.374,0,20.212,66.517,0,148.569,0Z" transform="translate(319.618 325.942)"/><ellipse class="f" cx="66.963" cy="11.066" rx="66.963" ry="11.066" transform="translate(130.539 332.824)"/><path class="g" d="M494,683.748C541.248,695.823,632.07,668,642.044,636.5" transform="translate(-222.155 -355.706)"/><path class="g" d="M341,356.992s68.247-18.9,72.447,42-56.173,78.222-8.925,90.3" transform="translate(-149.477 -221.617)"/><path class="g" d="M215.4,637.03s20.512-5.68,21.775,12.623-16.883,23.51-2.682,27.139" transform="translate(-89.816 -355.562)"/><path class="a" d="M796.269,662.3l-4.136,26.4s-20.36,10.816-6.044,11.134,81.757,0,81.757,0,13.043,0-7.635-11.452l-4.136-27.676Z" transform="translate(-358.48 -367.206)"/><path class="h" d="M783.213,699.552a56.319,56.319,0,0,1,8.924-5.907l4.136-26.4,59.807.056,4.135,26.029a54.294,54.294,0,0,1,9.556,6.288c2.656-.606,5.558-2.858-9.556-11.229L856.08,660.71,796.273,662.3l-4.136,26.4S775.029,697.795,783.213,699.552Z" transform="translate(-358.484 -367.206)"/><rect class="a" width="269.448" height="187.691" rx="18.046" transform="translate(332.65 111.062)"/><rect class="i" width="251.315" height="140.609" transform="translate(341.716 121.083)"/><circle class="j" cx="1.591" cy="1.591" r="1.591" transform="translate(465.783 115.038)"/><path class="a" d="M879.272,621.322v16.453a9.473,9.473,0,0,1-9.475,9.474H619.3a9.473,9.473,0,0,1-9.474-9.475V621.322Z" transform="translate(-277.174 -348.496)"/><path class="a" d="M814.117,657.1v3.181H642.968V657.74l.236-.636,4.218-11.453h163.2Z" transform="translate(-276.438 -307.292)"/><path class="a" d="M1082.352,752.122c-.312,1.333-1.489,2.739-4.148,4.069-9.543,4.772-28.949-1.272-28.949-1.272s-14.952-2.545-14.952-9.226a11.922,11.922,0,0,1,1.311-.779c4.013-2.123,17.317-7.361,40.905.222a9.835,9.835,0,0,1,4.484,2.938A4.691,4.691,0,0,1,1082.352,752.122Z" transform="translate(-478.81 -405.426)"/><path class="k" d="M1083.538,752.122c-11.681,4.476-22.094,4.81-32.779-2.612a23.464,23.464,0,0,0-13.959-4.6c4.012-2.123,17.316-7.361,40.905.222a9.834,9.834,0,0,1,4.484,2.938A4.691,4.691,0,0,1,1083.538,752.122Z" transform="translate(-479.996 -405.425)"/><ellipse class="j" cx="4.136" cy="1.272" rx="4.136" ry="1.272" transform="translate(584.76 341.54)"/><circle class="c" cx="6.044" cy="6.044" r="6.044" transform="translate(461.33 279.825)"/><path class="h" d="M814.117,667.466v3.181H642.968V668.1l.236-.636Z" transform="translate(-276.438 -317.655)"/><rect class="l" width="109.196" height="127.045" transform="translate(86.002 82.877)"/><rect class="a" width="131.245" height="45.148" transform="translate(74.977 70.277)"/><rect class="i" width="131.245" height="45.148" transform="translate(74.977 123.825)"/><rect class="m" width="131.245" height="45.148" transform="translate(74.977 177.373)"/><rect class="n" width="8.4" height="8.4" transform="translate(171.573 78.152)"/><rect class="o" width="8.4" height="8.4" transform="translate(183.648 78.152)"/><rect class="p" width="8.4" height="8.4" transform="translate(195.723 78.152)"/><rect class="n" width="8.4" height="8.4" transform="translate(171.573 131.175)"/><rect class="o" width="8.4" height="8.4" transform="translate(183.648 131.175)"/><rect class="p" width="8.4" height="8.4" transform="translate(195.723 131.175)"/><rect class="n" width="8.4" height="8.4" transform="translate(171.573 184.198)"/><rect class="o" width="8.4" height="8.4" transform="translate(183.648 184.198)"/><rect class="c" width="8.4" height="8.4" transform="translate(195.723 184.198)"/><circle class="a" cx="41.473" cy="41.473" r="41.473" transform="translate(153.724 240.371)"/><rect class="a" width="12.6" height="22.574" transform="translate(176.298 314.393)"/><rect class="a" width="12.6" height="22.574" transform="translate(201.497 314.393)"/><ellipse class="a" cx="10.5" cy="3.937" rx="10.5" ry="3.937" transform="translate(176.298 333.292)"/><ellipse class="a" cx="10.5" cy="3.937" rx="10.5" ry="3.937" transform="translate(201.497 332.767)"/><circle class="q" cx="14.174" cy="14.174" r="14.174" transform="translate(182.073 257.17)"/><circle class="a" cx="4.725" cy="4.725" r="4.725" transform="translate(191.523 266.62)"/><path class="b" d="M270.813,533.664c-3.349-15,7.356-30.152,23.91-33.848s32.688,5.465,36.037,20.463-7.622,20.529-24.176,24.225S274.161,548.662,270.813,533.664Z" transform="translate(-115.846 -290.389)"/><ellipse class="a" cx="20.737" cy="6.51" rx="20.737" ry="6.51" transform="translate(209.908 269.761) rotate(-23.171)"/><ellipse class="a" cx="20.737" cy="6.51" rx="20.737" ry="6.51" transform="translate(132.211 297.585) rotate(-23.171)"/><path class="q" d="M353.623,658.9c0,4.059-10.452,12.075-22.049,12.075S309,663.487,309,659.427s10.977-3.15,22.574-3.15S353.623,654.843,353.623,658.9Z" transform="translate(-134.277 -364.984)"/></g></svg>