<svg xmlns="http://www.w3.org/2000/svg" width="516.914" height="386.948" viewBox="0 0 516.914 386.948"><defs><style>.a{fill:#252525;}.b{fill:#fff;}.c{fill:#ed7015;}.d{fill:#2f2e41;}.e{fill:#3f3d56;}.f{fill:#a0616a;}.g{fill:#ffb9b9;}.h{fill:#80868b;}.i{opacity:0.1;}.j{fill:#0865ab;}.k{fill:#e8eaed;}</style></defs><circle class="a" cx="46.821" cy="46.821" r="46.821" transform="translate(402.509 261.719)"/><path class="a" d="M755.743,647.011,742.8,641.1l11.615-27.2,12.938,5.911Z" transform="translate(-339.766 -280.804)"/><rect class="a" width="14.224" height="25.485" transform="translate(440.53 344.921) rotate(24.554)"/><ellipse class="a" cx="4.445" cy="11.854" rx="4.445" ry="11.854" transform="matrix(0.815, -0.58, 0.58, 0.815, 427.502, 367.635)"/><ellipse class="a" cx="4.445" cy="11.854" rx="4.445" ry="11.854" transform="matrix(0.815, -0.58, 0.58, 0.815, 401.141, 360.079)"/><circle class="b" cx="16.002" cy="16.002" r="16.002" transform="translate(439.333 282.249)"/><circle class="a" cx="5.334" cy="5.334" r="5.334" transform="translate(444.225 285.727)"/><path class="c" d="M908.739,535.315c3.6-16.971,21.7-27.51,40.431-23.54s31,20.947,27.4,37.918-17.458,17.5-36.19,13.534S905.142,552.287,908.739,535.315Z" transform="translate(-482.625 -285.254)"/><ellipse class="a" cx="7.349" cy="23.411" rx="7.349" ry="23.411" transform="translate(469.752 317.729) rotate(-88.617)"/><ellipse class="d" cx="7.349" cy="23.411" rx="7.349" ry="23.411" transform="translate(376.914 309.85) rotate(-88.617)"/><path class="b" d="M919.768,687.405a10.668,10.668,0,0,0,19.407,8.867c2.448-5.359-1.389-8.454-6.748-10.9S922.217,682.046,919.768,687.405Z" transform="translate(-487.454 -364.159)"/><path class="c" d="M347.459,425.09c-13.5-3.455-22.445-14.031-22.445-14.031s12.931-4.974,26.426-1.519,22.445,14.031,22.445,14.031S360.955,428.545,347.459,425.09Z" transform="translate(-215.851 -238.315)"/><path class="e" d="M321.811,404.44l.843-.324c.131-.05,13.279-5.008,26.816-1.542s22.686,14.13,22.777,14.238l.583.69-.843.324c-.131.05-13.278,5.008-26.816,1.542h0c-13.538-3.466-22.686-14.131-22.777-14.238Zm48.815,12.5c-2.264-2.4-10.35-10.271-21.474-13.12s-22,.168-25.136,1.187c2.264,2.4,10.349,10.271,21.474,13.119S367.488,417.956,370.626,416.937Z" transform="translate(-214.386 -235.125)"/><path class="f" d="M182.1,201.815l-4.424,18.436,26.547,5.9s-2.212-20.648,0-22.86Z" transform="translate(-148.457 -143.858)"/><circle class="g" cx="18.436" cy="18.436" r="18.436" transform="translate(25.9 33.253)"/><path class="h" d="M205.694,167.45s1.938-20.929-19.662-13.322c0,0-15.7-2.309-20.126,17.385l5.044,19.06,1,4.19,33.625,2.152s-15.322-8.343-16.124-24.241l2.966,2.919Z" transform="translate(-143.073 -121.284)"/><path class="a" d="M179.714,445.1s16.223,22.86,27.285,28.759l36.871,50.145-9.586,92.178s23.6,15.486,55.307-6.637L280,509.259l-42.033-73Z" transform="translate(-149.389 -251.093)"/><path class="a" d="M293.944,763.338s-11.1,18.269,5.225,19.376,26.776-2.768,32,0,24.817-.554,22.858-9.411S326.6,758.355,326.6,758.355Z" transform="translate(-199.952 -398.425)"/><path class="a" d="M145.375,397.473s5.823,27.42,13.636,37.224l13.951,60.657-45.37,80.81s15.517,23.577,53.4,15.85l30.988-95.862-9.62-83.689Z" transform="translate(-125.549 -233.354)"/><path class="a" d="M136.181,728.018s-16.9,12.185-2.383,20.66,25.508,9.573,29.263,14.562,22.9,10.771,24.38,1.522-19.559-26.585-19.559-26.585Z" transform="translate(-125.693 -384.548)"/><path class="a" d="M223.836,337.732c0,3.687-42.77,14.011-68.58,10.324-12.145-1.733-16.939-16.046-18.62-30.706a136.046,136.046,0,0,1-.789-15.729c.015-3.392.125-6.511.273-9.159.287-5.191.7-8.561.7-8.561l-1.313-7.2-1.585-8.716-2.773-15.265-.229-1.261c-14.011-6.637-2.95-38.346-2.95-41.3s18.436,2.212,18.436,2.212l3.687-5.162,11.8,3.687,12.853-6.961,12.219,16.548s4.343,6.718,9.564,16.776c2.2,4.255,4.565,9.107,6.821,14.3,1.165,2.684,2.3,5.464,3.37,8.3,1.423,3.761,2.736,7.625,3.842,11.5.31,1.077.612,2.168.914,3.274.752,2.773,1.49,5.649,2.2,8.576,1.217,4.97,2.36,10.088,3.422,15.11C221.13,317.52,223.836,335.232,223.836,337.732Z" transform="translate(-123.825 -144.828)"/><path class="a" d="M167.863,172.438s17.7-25.81,36.871-17.7c0,0-1.475-16.961-13.274-18.436s-18.436-5.162-18.436-5.162L162.7,136.3v14.011S161.963,169.489,167.863,172.438Z" transform="translate(-141.594 -111.532)"/><circle class="c" cx="10.324" cy="10.324" r="10.324" transform="translate(10.414 5.968)"/><path class="h" d="M209.525,279.65,140.1,296.072l-2.773-15.265,65.38-15.456C204.909,269.606,207.269,274.458,209.525,279.65Z" transform="translate(-130 -172.92)"/><path class="h" d="M145.969,339.608c.288-5.191.7-8.561.7-8.561l-1.313-7.2,71.213-16.835c1.423,3.761,2.736,7.625,3.842,11.5.31,1.077.612,2.168.914,3.274Z" transform="translate(-133.674 -191.974)"/><path class="h" d="M227.227,365.159l-80.46,19.025a136.06,136.06,0,0,1-.789-15.729l77.827-18.406C225.022,355.019,226.165,360.137,227.227,365.159Z" transform="translate(-133.956 -211.662)"/><path class="g" d="M306.744,392.035s15.486-1.475,12.536,10.324-20.648,4.425-20.648,4.425Z" transform="translate(-203.784 -230.84)"/><path class="a" d="M242.639,319.934l-9.586,21.385s-3.591-1.342-9.033-3.4c-1.681-.634-3.54-1.335-5.523-2.087-1.018-.391-2.072-.789-3.149-1.2-1.777-.671-3.628-1.379-5.516-2.1l-3.141-1.209c-1.821-.708-3.665-1.416-5.5-2.131-13.443-5.214-26.628-10.508-29.342-12.2-4.041-2.529-16.393-24.431-23.767-37.985a32.813,32.813,0,0,1-1.195-29.4c4.189-9.056,10.191-10.98,15.619-10.287a16.958,16.958,0,0,1,14.365,14.166l6.039,36.222L213.135,305l5.243,2.655,2.994,1.512,5.243,2.655,2.987,1.512,5.243,2.655Z" transform="translate(-133.042 -160.951)"/><path class="i" d="M140.98,255.406s8.112-30.234,27.285-24.335C168.265,231.071,149.092,231.808,140.98,255.406Z" transform="translate(-131.672 -156.891)"/><path class="h" d="M266.61,363.141,254.922,386.8c-1.821-.708-3.665-1.416-5.5-2.131l11.946-24.187Z" transform="translate(-181.274 -216.436)"/><path class="h" d="M282.133,370.82l-11.268,22.808c-1.777-.671-3.628-1.379-5.516-2.1l11.541-23.362Z" transform="translate(-188.559 -219.948)"/><path class="h" d="M297.667,378.5,286.841,400.43c-1.681-.634-3.54-1.335-5.523-2.087l11.106-22.5Z" transform="translate(-195.864 -223.461)"/><path class="j" d="M735.331,417.518c.043,87.717-52.09,118.366-116.41,118.4q-2.241,0-4.461-.048-4.471-.094-8.85-.4c-58.054-4.082-103.175-36.256-103.215-117.833-.041-84.422,107.8-191.013,115.892-198.894.007,0,.007,0,.014-.007.307-.3.465-.451.465-.451S735.288,329.808,735.331,417.518Z" transform="translate(-296.987 -151.389)"/><path class="b" d="M669.8,522.5l42.568-59.538L669.7,529.034l-.111,6.834q-4.472-.094-8.85-.4l4.547-87.755-.036-.679.078-.129.432-8.292-42.843-66.194L665.883,432.4l.108,1.758,3.435-66.3-36.683-68.406L669.871,356.2l3.543-137.464.014-.458v.45l-.548,108.4,36.457-42.993-36.61,52.329-.936,59.367,34.048-56.989-34.18,65.717-.52,33.011,49.414-79.328-49.6,90.844Z" transform="translate(-352.113 -151.389)"/><g transform="translate(145.777)"><circle class="k" cx="2.713" cy="2.713" r="2.713" transform="translate(0 10.852)"/><circle class="k" cx="2.713" cy="2.713" r="2.713" transform="translate(23.331 89.527)"/><circle class="k" cx="2.713" cy="2.713" r="2.713" transform="translate(190.449 107.976)"/><circle class="k" cx="2.713" cy="2.713" r="2.713" transform="translate(304.936 194.79)"/><circle class="k" cx="2.713" cy="2.713" r="2.713" transform="translate(233.857 256.645)"/><circle class="k" cx="2.713" cy="2.713" r="2.713" transform="translate(79.761 276.721)"/><circle class="k" cx="5.968" cy="5.968" r="5.968" transform="translate(153.553)"/><circle class="k" cx="5.968" cy="5.968" r="5.968" transform="translate(131.307 309.819)"/><circle class="k" cx="5.968" cy="5.968" r="5.968" transform="translate(268.04 98.209)"/><circle class="k" cx="5.968" cy="5.968" r="5.968" transform="translate(99.837 185.566)"/></g></svg>