<svg xmlns="http://www.w3.org/2000/svg" width="2194.459" height="1511.105" viewBox="0 0 2194.459 1511.105"><defs><style>.a{fill:#0865ab;}.b{fill:#ed7015;}.c{fill:#eeae1d;}.d{fill:#fff;}.e{fill:#ef7015;}.f{fill:#ee991a;}.g{fill:#ff6584;}.h{fill:#fe6483;}</style></defs><g transform="translate(0 1240.706)"><g transform="translate(-330.965 -1416.706)"><path class="a" d="M421.007,889.519c-9.186,345.359,451.179,697.908,1025.819,697.908s1489.76-680.859,1055.137-697.908C1664.5,856.669,1377.512,509.836,1461.485,263.971,1611.874-176.352,439.094,209.507,421.007,889.519Z" transform="translate(-89.907 99.678)"/><path class="b" d="M517.142,166.425l-7.006-4.459,4.459-7.006-1.913-1.213-4.456,7.006-7.006-4.459L500,158.2l7.006,4.459-4.459,7.006,1.913,1.217,4.456-7.006,7.006,4.456Z" transform="translate(578.326 715)"/><path class="b" d="M669.142,314.425l-7.006-4.459,4.459-7.006-1.912-1.213-4.456,7.006-7.006-4.459L652,306.2l7.006,4.459-4.459,7.006,1.913,1.217,4.456-7.006,7.006,4.456Z" transform="translate(1202.966 1055.279)"/><path class="c" d="M428.324,300.259l-9.124-5.808,5.808-9.124-2.491-1.58-5.8,9.125-9.125-5.808L406,289.549l9.124,5.808-5.808,9.124,2.491,1.585,5.8-9.125,9.124,5.8Z" transform="translate(351.282 1022.145)"/><path class="b" d="M607.142,392.425l-7.006-4.459,4.459-7.006-1.913-1.213-4.456,7.006-7.006-4.459L590,384.2l7.006,4.459-4.459,7.006,1.912,1.217,4.456-7.006,7.006,4.456Z" transform="translate(829.562 1257.497)"/><path class="c" d="M436.142,355.425l-7.006-4.459,4.459-7.006-1.913-1.213-4.456,7.006-7.006-4.459L419,347.2l7.006,4.459-4.459,7.006,1.913,1.217,4.456-7.006,7.006,4.456Z" transform="translate(313.023 1156.926)"/><path class="b" d="M848.142,306.425l-7.006-4.459,4.459-7.006-1.913-1.213-4.456,7.006-7.006-4.459L831,298.2l7.006,4.459-4.459,7.006,1.913,1.217,4.456-7.006,7.006,4.456Z" transform="translate(1381.881 1054.872)"/><path class="d" d="M394.142,185.425l-7.006-4.459,4.459-7.006-1.913-1.213-4.456,7.006-7.006-4.459L377,177.2l7.006,4.459-4.459,7.006,1.913,1.217,4.456-7.006,7.006,4.456Z" transform="translate(279.723 1178.622)"/><path class="d" d="M570,211.494l-9.81-6.238,6.242-9.81-2.674-1.7-6.242,9.806-9.807-6.242-1.7,2.677,9.81,6.238-6.242,9.81,2.673,1.7,6.242-9.81,9.807,6.242Z" transform="translate(689.998 1140.214)"/><circle class="b" cx="10.283" cy="10.283" r="10.283" transform="translate(896.664 1357.723)"/><circle class="b" cx="10.283" cy="10.283" r="10.283" transform="translate(425.538 1151.455)"/><circle class="b" cx="10.283" cy="10.283" r="10.283" transform="translate(1194.87 755.632)"/><circle class="b" cx="6.586" cy="6.586" r="6.586" transform="translate(1106.29 1279.371)"/><circle class="b" cx="6.855" cy="6.855" r="6.855" transform="translate(1095.468 1170.379)"/><circle class="e" cx="6.855" cy="6.855" r="6.855" transform="translate(1872.083 1549.206)"/><circle class="f" cx="6.855" cy="6.855" r="6.855" transform="translate(1112.207 1473.657)"/><circle class="g" cx="6.855" cy="6.855" r="6.855" transform="translate(1177.732 543.117)"/><circle class="b" cx="6.855" cy="6.855" r="6.855" transform="translate(896.664 861.889)"/><circle class="d" cx="6.855" cy="6.855" r="6.855" transform="translate(982.355 632.236)"/><circle class="b" cx="10.283" cy="10.283" r="10.283" transform="translate(2003.798 1245.787)"/><circle class="g" cx="19.79" cy="19.79" r="19.79" transform="translate(1529.794 1256.026)"/><circle class="d" cx="10.283" cy="10.283" r="10.283" transform="translate(1561.63 1153.24)"/><circle class="h" cx="5.001" cy="5.001" r="5.001" transform="translate(496.592 1353.163)"/><circle class="c" cx="10.553" cy="10.553" r="10.553" transform="translate(861.159 1586.193)"/><circle class="g" cx="10.553" cy="10.553" r="10.553" transform="translate(2074.902 1307.222)"/></g><path class="c" d="M568.82,210.623l-9.328-5.932,5.935-9.328-2.543-1.617-5.935,9.325-9.325-5.935L546,199.681l9.328,5.932-5.935,9.328,2.542,1.62,5.935-9.328,9.325,5.935Z" transform="translate(402.603 -85.155)"/><circle class="d" cx="10.554" cy="10.554" r="10.554" transform="translate(919.356 210.677)"/></g></svg>