<svg xmlns="http://www.w3.org/2000/svg" width="73.269" height="73.266" viewBox="0 0 73.269 73.266"><defs><style>.a{fill:#eeae1d;}</style></defs><path class="a" d="M67.437,31.352a9.107,9.107,0,1,0-9.107,9.108,9.107,9.107,0,0,0,9.107-9.108Zm-16.057,0A6.95,6.95,0,1,1,58.33,38.3a6.95,6.95,0,0,1-6.95-6.951Z" transform="translate(-21.695 -11.346)"/><path class="a" d="M77.754,76.363,68.962,53.314a1.079,1.079,0,0,0-1.008-.694H51.314c.1-.166.2-.327.3-.493,6.4-10.6,9.625-19.873,9.578-27.557a20.007,20.007,0,1,0-40.014,0c-.046,7.687,3.176,16.961,9.578,27.56.1.168.2.329.3.493H14.426a1.079,1.079,0,0,0-1.008.694L4.628,76.363a1.077,1.077,0,0,0,1.008,1.463H76.746a1.077,1.077,0,0,0,1.008-1.463ZM23.34,24.565a17.85,17.85,0,0,1,35.7,0c.092,15.323-14.23,34.217-17.85,38.748C37.571,58.787,23.247,39.9,23.34,24.565ZM40.369,65.72a1.079,1.079,0,0,0,1.643,0,114.453,114.453,0,0,0,7.95-10.945H67.21l1.38,3.621L34.885,70.383,22.871,54.774h9.546A114.456,114.456,0,0,0,40.369,65.72Zm-5.521,6.964h.006l20.108-7.149,7.8,10.134h-36.3ZM15.17,54.774h4.98l12.6,16.37L20.025,75.668H7.2Zm50.316,20.9L57.1,64.772,69.362,60.41l5.82,15.259Z" transform="translate(-4.556 -4.559)"/></svg>