<svg xmlns="http://www.w3.org/2000/svg" width="77.589" height="73.957" viewBox="0 0 77.589 73.957"><defs><style>.a{fill:#eeae1d;}</style></defs><path class="a" d="M75.754,32.53l-.02-.021-.022-.022c-.008-.007-.021-.012-.031-.02a1.072,1.072,0,0,0-.133-.106L64.1,25.252V6.483A3.49,3.49,0,0,0,60.618,3H16.973a3.49,3.49,0,0,0-3.486,3.486V25.252L2.043,32.361c-.022.012-.068.053-.188.15l-.016.016A5.928,5.928,0,0,0,0,36.8V71.047a5.917,5.917,0,0,0,5.91,5.91H71.681a5.862,5.862,0,0,0,4.228-1.785h0a5.873,5.873,0,0,0,1.68-4.122V36.8a5.926,5.926,0,0,0-1.834-4.272ZM75.47,36.8V71.047a3.758,3.758,0,0,1-.417,1.727L55.111,51.543,74.869,34.756a3.738,3.738,0,0,1,.6,2.045ZM73.193,33.4,64.1,41.118V27.75ZM15.609,6.483a1.365,1.365,0,0,1,1.364-1.361H60.618a1.366,1.366,0,0,1,1.364,1.364V42.923l-8.326,7.071L42.22,37.82A4.713,4.713,0,0,0,38.8,36.34h0a4.713,4.713,0,0,0-3.424,1.481L23.936,49.994,15.609,42.92ZM13.862,44.22,19.482,49l3,2.546L2.538,72.772a3.766,3.766,0,0,1-.416-1.727V36.8a3.74,3.74,0,0,1,.6-2.045l4.462,3.79Zm-.374-3.1L4.4,33.4l9.093-5.645ZM5.91,74.836A3.746,3.746,0,0,1,4,74.318l7.726-8.225L36.917,39.273a2.915,2.915,0,0,1,1.879-.811,2.553,2.553,0,0,1,1.879.812L70.769,71.312l2.825,3.007a3.746,3.746,0,0,1-1.911.518Z" transform="translate(0 -3)"/><path class="a" d="M54.911,34.932,56.1,35.9a1.063,1.063,0,0,0,1.338,0l1.188-.964a33.206,33.206,0,0,0,8.591-10.554,6.082,6.082,0,0,0-10.45-6.19,6.082,6.082,0,0,0-10.45,6.19,33.209,33.209,0,0,0,8.594,10.554ZM48.065,20.044a3.952,3.952,0,0,1,2.493-2.253,3.91,3.91,0,0,1,1.144-.172,3.989,3.989,0,0,1,3.6,2.269l.507,1.076a1.061,1.061,0,0,0,1.919,0l.508-1.076a3.961,3.961,0,1,1,7.1,3.516,31.109,31.109,0,0,1-8.049,9.881l-.518.421-.518-.421A31.1,31.1,0,0,1,48.2,23.4,3.955,3.955,0,0,1,48.065,20.044Z" transform="translate(-17.971 -7.921)"/></svg>