<svg xmlns="http://www.w3.org/2000/svg" width="60.032" height="60.005" viewBox="0 0 60.032 60.005"><defs><style>.a{fill:#eeae1d;}</style></defs><path class="a" d="M45.338,44.75a1,1,0,0,0,1.412-.089l15-17a1,1,0,1,0-1.5-1.322l-15,17A1,1,0,0,0,45.338,44.75Z" transform="translate(-1.984 -2)"/><path class="a" d="M17.25,44.661a1,1,0,1,0,1.5-1.322l-15-17a1,1,0,1,0-1.5,1.322Z" transform="translate(-1.984 -2)"/><path class="a" d="M55.293,39.293l-5,5a1,1,0,1,0,1.414,1.414l5-5a1,1,0,1,0-1.414-1.414Z" transform="translate(-1.984 -2)"/><path class="a" d="M7.293,39.293a1,1,0,0,0,0,1.414l5,5a1,1,0,1,0,1.414-1.414l-5-5a1,1,0,0,0-1.414,0Z" transform="translate(-1.984 -2)"/><path class="a" d="M17,28a7.008,7.008,0,0,0,7-7V19a1,1,0,0,0-1-1h-.445l-3.75-6H29V31H27a3,3,0,0,0-3,3v1a3,3,0,0,0-3,3v4a1,1,0,0,0,1,1h4a1,1,0,0,0,0-2H23V38a1,1,0,0,1,1-1H39a2,2,0,0,1,2,2v2H30a1,1,0,0,0,0,2H42a1,1,0,0,0,1-1V39a4,4,0,0,0-3-3.858V34a3,3,0,0,0-3-3H35V8H48a1,1,0,0,1,0,2H38a1,1,0,0,0,0,2h7.2l-3.75,6H41a1,1,0,0,0-1,1v2a7,7,0,1,0,14,0V19a1,1,0,0,0-1-1h-.445L48.74,11.9A2.994,2.994,0,0,0,48,6H35V5a3,3,0,1,0-6,0V6H16a2.994,2.994,0,0,0-.74,5.9L11.445,18H11a1,1,0,0,0-1,1v2a7.008,7.008,0,0,0,7,7Zm35-7a5,5,0,1,1-10,0V20H52Zm-8.2-3L47,12.887,50.2,18ZM38,34v1H26V34a1,1,0,0,1,1-1H37A1,1,0,0,1,38,34ZM31,5a1,1,0,0,1,2,0V31H31ZM16,8H29v2H16a1,1,0,0,1,0-2Zm1,4.887L20.2,18H13.8ZM12,20H22v1a5,5,0,1,1-10,0Z" transform="translate(-1.984 -2)"/><path class="a" d="M46,38a1,1,0,0,0,.858-.485l3-5a1,1,0,1,0-1.714-1.03l-3,5A1,1,0,0,0,46,38Z" transform="translate(-1.984 -2)"/><path class="a" d="M14.485,31.143a1,1,0,0,0-.342,1.372l3,5a1,1,0,1,0,1.714-1.03l-3-5a1,1,0,0,0-1.372-.342Z" transform="translate(-1.984 -2)"/><path class="a" d="M61.2,56.021,33,50.186a3,3,0,0,1,3.776-2.864l18.74,5.046a.973.973,0,0,0,.26.034,1,1,0,0,0,.26-1.965L37.3,45.391a4.967,4.967,0,0,0-4.342.86,5.027,5.027,0,0,0-.958.976,5.027,5.027,0,0,0-.958-.976,4.967,4.967,0,0,0-4.342-.86L7.96,50.437A4,4,0,0,0,5,54.3v1.266l-2.2.456A1,1,0,0,0,2,57v4a1,1,0,0,0,1.1,1l13.07-1.356a1,1,0,0,0-.206-1.991L4,59.892V57.814l27-5.586V56a1,1,0,0,0,2,0V52.228l27,5.586v2.078L36.1,57.419a1.016,1.016,0,0,0-.773.253,1,1,0,0,0-.33.742V59a1,1,0,0,1-1,1H30a1,1,0,0,1-1-1v-.586a1,1,0,0,0-.33-.742,1.013,1.013,0,0,0-.773-.253l-7.953.822a1,1,0,0,0,.206,1.99l6.9-.712A3,3,0,0,0,30,62h4a3,3,0,0,0,2.955-2.481L60.9,62c.035,0,.069.005.1.005a1,1,0,0,0,1-1V57a1,1,0,0,0-.8-.979ZM7,54.3a2,2,0,0,1,1.48-1.931l18.74-5.046A3,3,0,0,1,31,50.186L7,55.151Z" transform="translate(-1.984 -2)"/></svg>