<svg xmlns="http://www.w3.org/2000/svg" xmlns:xlink="http://www.w3.org/1999/xlink" width="1266.937" height="410.02" viewBox="0 0 1266.937 410.02"><defs><style>.a{fill:#afbbc2;}.b{fill:#efefef;}.c{fill:#bdc6c6;}.d{fill:#fff;}.e{opacity:0.45;fill:url(#a);}.e,.f,.p{mix-blend-mode:multiply;isolation:isolate;}.f,.p{opacity:0.6;}.f{fill:url(#b);}.g{fill:#ed8945;}.h{fill:#d86619;}.i{fill:#ef7015;}.j,.n,.o,.t{fill:none;stroke-miterlimit:10;stroke-width:1.029px;}.j{stroke:#ef7015;}.k{fill:#f2c772;}.l{fill:#dd9c19;}.m{fill:#f0b01c;}.n{stroke:#f0b01c;}.o{stroke:#dd9c19;}.p{fill:url(#e);}.q{fill:#4695c6;}.r{fill:#0865ab;}.s{fill:#065687;}.t{stroke:#0865ab;}.u{fill:#f49635;}.v{fill:#c46b0f;}.w{fill:#ed8417;}</style><linearGradient id="a" x1="0.423" y1="0.697" x2="0.577" y2="0.303" gradientUnits="objectBoundingBox"><stop offset="0" stop-color="#696f72" stop-opacity="0.749"/><stop offset="0.95" stop-color="#696f72" stop-opacity="0"/></linearGradient><linearGradient id="b" x1="-11.385" y1="0.697" x2="-11.231" y2="0.303" gradientUnits="objectBoundingBox"><stop offset="0" stop-color="#696f72" stop-opacity="0.6"/><stop offset="0.95" stop-color="#696f72" stop-opacity="0"/></linearGradient><linearGradient id="e" x1="-23.123" y1="0.697" x2="-22.969" y2="0.303" xlink:href="#b"/></defs><g transform="translate(-317.001 -1163.233)"><path class="a" d="M622.013,424.928,889.368,304.244l184.4,83.237,77.559,39.46-77.557,35.435-184.4-83.238L704.972,462.376Z" transform="translate(432.615 1110.878)"/><path class="a" d="M622.013,424.928,889.368,304.244l184.4,83.237,184.4-83.237,267.354,120.684-82.957,37.448-184.4-83.237h0l-184.4,83.238-184.4-83.238L704.972,462.376Z" transform="translate(-305.012 1110.878)"/><g transform="translate(706.01 1163.233)"><g transform="translate(0 128.711)"><path class="b" d="M385.241,267.86h62.838V520.8l-62.924-28.441Z" transform="translate(-385.241 -239.495)"/><path class="c" d="M427.824,267.86h62.838l-.236,224.429-62.6,28.515Z" transform="translate(-364.986 -239.495)"/><path class="d" d="M448.079,248.638,385.241,277l62.838,28.365L510.917,277Z" transform="translate(-385.241 -248.638)"/><path class="e" d="M385.241,375.751l62.838,28.365v24.246l-14.168-6.389-48.67-21.947Z" transform="translate(-385.241 -147.053)"/><path class="f" d="M490.662,375.751l-62.838,28.365v24.246L490.662,400Z" transform="translate(-364.986 -147.053)"/></g><g transform="translate(10.06 0)"><path class="g" d="M392.058,157.372l52.778-23.824,52.778,23.824L444.836,181.2Z" transform="translate(-392.058 -133.548)"/><path class="h" d="M427.824,168.129l.073,138.027,52.481-23.305.224-133.158Z" transform="translate(-375.046 -125.869)"/><path class="i" d="M392.058,149.693l52.778,18.436.06,138.045-52.715-23.985Z" transform="translate(-392.058 -125.869)"/><path class="j" d="M392.47,149.878l52.171,23.55,52.17-23.55" transform="translate(-391.863 -125.781)"/><line class="j" y2="132.406" transform="translate(52.778 47.648)"/></g></g><g transform="translate(337.217 1163.233)"><g transform="translate(0 53.584)"><path class="b" d="M135.324,189.082h62.838V517.153l-62.838-28.365Z" transform="translate(-135.324 -160.717)"/><path class="e" d="M135.324,375.751l62.838,28.365v24.246L135.324,400Z" transform="translate(-135.324 -71.926)"/><path class="c" d="M177.906,189.082h62.838V488.788l-62.838,28.365Z" transform="translate(-115.069 -160.717)"/><path class="d" d="M198.161,169.86l-62.838,28.365,62.838,28.365L261,198.225Z" transform="translate(-135.324 -169.86)"/></g><g transform="translate(10.06 0)"><path class="k" d="M142.141,157.372l52.778-23.824L247.7,157.372,194.918,181.2Z" transform="translate(-142.141 -133.548)"/><path class="l" d="M230.684,149.693l-52.778,23.824v58.125l52.778-23.824Z" transform="translate(-125.129 -125.869)"/><path class="m" d="M142.141,207.817l52.778,23.824V173.517l-52.778-23.824Z" transform="translate(-142.141 -125.869)"/><path class="n" d="M142.552,149.878l52.17,23.55,52.17-23.55" transform="translate(-141.945 -125.781)"/><line class="o" y2="56.745" transform="translate(52.778 47.648)"/></g></g><g transform="translate(1443.229 1163.233)"><g transform="translate(0 286.082)"><path class="b" d="M635.159,346.638H698V442.21l-62.838-28.365Z" transform="translate(-635.159 -318.273)"/><path class="e" d="M635.159,375.751,698,404.116v24.246L635.159,400Z" transform="translate(-635.159 -304.425)"/><path class="c" d="M677.741,346.638h62.838v67.207L677.741,442.21Z" transform="translate(-614.903 -318.273)"/><path class="p" d="M740.579,375.751l-62.838,28.365v24.246L740.579,400Z" transform="translate(-614.904 -304.425)"/><path class="d" d="M698,327.416l-62.838,28.365L698,384.146l62.838-28.365Z" transform="translate(-635.158 -327.416)"/></g><g transform="translate(10.06 0)"><path class="q" d="M641.976,157.372l52.778-23.824,52.778,23.824L694.754,181.2Z" transform="translate(-641.976 -133.548)"/><path class="r" d="M641.976,440.316l52.778,23.824V173.517l-52.778-23.824Z" transform="translate(-641.976 -125.869)"/><path class="s" d="M730.519,440.316,677.741,464.14V173.517l52.778-23.824Z" transform="translate(-624.964 -125.869)"/><path class="t" d="M642.388,149.878l52.17,23.55,52.17-23.55" transform="translate(-641.78 -125.781)"/><line class="t" y2="289.244" transform="translate(52.778 47.648)"/></g></g><g transform="translate(1074.436 1163.233)"><g transform="translate(0 169.833)"><path class="b" d="M385.241,267.86h62.838V479.682l-62.838-28.365Z" transform="translate(-385.241 -239.495)"/><path class="c" d="M427.824,267.86h62.838V451.317l-62.838,28.365Z" transform="translate(-364.986 -239.495)"/><path class="d" d="M448.079,248.638,385.241,277l62.838,28.365L510.917,277Z" transform="translate(-385.241 -248.638)"/><path class="e" d="M385.241,375.751l62.838,28.365v24.246L385.241,400Z" transform="translate(-385.241 -188.176)"/><path class="f" d="M490.662,375.751l-62.838,28.365v24.246L490.662,400Z" transform="translate(-364.986 -188.176)"/></g><g transform="translate(10.06 0)"><path class="u" d="M392.058,157.372l52.778-23.824,52.778,23.824L444.836,181.2Z" transform="translate(-392.058 -133.548)"/><path class="v" d="M427.824,173.517V347.891L480.6,324.067V149.693Z" transform="translate(-375.046 -125.869)"/><path class="w" d="M392.058,149.693l52.778,23.824V347.891l-52.778-23.824Z" transform="translate(-392.058 -125.869)"/><path class="j" d="M392.47,149.878l52.171,23.55,52.17-23.55" transform="translate(-391.863 -125.781)"/><line class="j" y2="172.995" transform="translate(52.778 47.648)"/></g></g></g></svg>