<svg xmlns="http://www.w3.org/2000/svg" width="62.602" height="56.949" viewBox="0 0 62.602 56.949"><defs><style>.a{fill:#eeae1d;}</style></defs><path class="a" d="M61.487,1.015c-2.532-2.3-8.258-.568-13.321,4.036a23.77,23.77,0,0,0-2.93,3.18l-11.548.808a1.1,1.1,0,0,0-.663.277L.308,39.081a.9.9,0,0,0,0,1.353L18.153,56.669a1.127,1.127,0,0,0,1.487,0L52.36,26.905a.921.921,0,0,0,.3-.6l.89-10.547A.934.934,0,0,0,53.7,15.7a24.624,24.624,0,0,0,3.344-2.564C62.111,8.527,64.019,3.317,61.487,1.015Zm-16.27,14.8a1.525,1.525,0,0,1-.444-.883,2.13,2.13,0,0,1,.894.474,1.794,1.794,0,0,1,0,2.706,2.253,2.253,0,0,1-2.974,0,1.794,1.794,0,0,1,0-2.706h0c.011-.01.022-.015.033-.024a3.317,3.317,0,0,0,1,1.786,1.127,1.127,0,0,0,1.487-.023A.9.9,0,0,0,45.216,15.815ZM50.6,25.8,18.9,54.64,2.538,39.758l31.7-28.836,9.667-.677a10.471,10.471,0,0,0-1.141,2.924,4.248,4.248,0,0,0-1.558.885,3.587,3.587,0,0,0,0,5.412,4.507,4.507,0,0,0,5.949,0,3.587,3.587,0,0,0,0-5.412h0A4.311,4.311,0,0,0,44.982,13a11.6,11.6,0,0,1,1.472-2.938l5.51-.383Zm4.966-14.024a22.981,22.981,0,0,1-1.8,1.461l.383-4.525a.99.99,0,0,0-.968-1.027,1.142,1.142,0,0,0-.162,0l-4.984.349A22.357,22.357,0,0,1,49.653,6.4C53.884,2.555,58.6,1.1,60,2.367S59.793,7.93,55.563,11.779Z" transform="translate(0 0)"/></svg>