<svg xmlns="http://www.w3.org/2000/svg" width="81.629" height="73.338" viewBox="0 0 81.629 73.338"><defs><style>.a{fill:#eeae1d;}</style></defs><path class="a" d="M247.594,100a1.594,1.594,0,1,0,1.594,1.594A1.595,1.595,0,0,0,247.594,100Zm0,0" transform="translate(-206.78 -84.057)"/><path class="a" d="M81.594,263.189A1.594,1.594,0,1,0,80,261.594,1.595,1.595,0,0,0,81.594,263.189Zm0,0" transform="translate(-67.246 -218.548)"/><path class="a" d="M53.569,0C39.216,0,27.435,9.9,26.524,22.361,12.855,23.046,0,32.9,0,46.235A22.278,22.278,0,0,0,6.218,61.482a9.7,9.7,0,0,1-2.562,9.135,1.594,1.594,0,0,0,1.127,2.722,17.586,17.586,0,0,0,12.185-4.925A36.331,36.331,0,0,0,28.06,70.149c14.351,0,26.13-9.893,27.044-22.356a35.851,35.851,0,0,0,9.557-1.7,17.586,17.586,0,0,0,12.185,4.925A1.594,1.594,0,0,0,77.973,48.3a9.7,9.7,0,0,1-2.562-9.135,22.278,22.278,0,0,0,6.218-15.247C81.629,10.062,67.784,0,53.569,0ZM28.06,66.961a32.23,32.23,0,0,1-10.923-1.881,1.594,1.594,0,0,0-1.766.4A14.386,14.386,0,0,1,8.216,69.73a12.894,12.894,0,0,0,.972-9.489,1.591,1.591,0,0,0-.39-.674A19.159,19.159,0,0,1,3.189,46.235C3.189,35,14.578,25.509,28.06,25.509c12.731,0,23.915,8.853,23.915,20.726C51.974,57.663,41.246,66.961,28.06,66.961ZM72.831,37.247a1.6,1.6,0,0,0-.39.674,12.894,12.894,0,0,0,.972,9.489,14.381,14.381,0,0,1-7.155-4.246,1.6,1.6,0,0,0-1.766-.4A31.407,31.407,0,0,1,55.1,44.6a22.821,22.821,0,0,0-8.615-15.9h20.8a1.594,1.594,0,0,0,0-3.189H41.586a29.735,29.735,0,0,0-11.865-3.142C30.637,11.659,40.983,3.189,53.569,3.189c13.482,0,24.871,9.491,24.871,20.726A19.159,19.159,0,0,1,72.831,37.247Zm0,0"/><path class="a" d="M141.683,260H121.594a1.594,1.594,0,1,0,0,3.189h20.088a1.594,1.594,0,1,0,0-3.189Zm0,0" transform="translate(-100.868 -218.548)"/><path class="a" d="M108.06,320H81.594a1.594,1.594,0,0,0,0,3.189H108.06a1.594,1.594,0,1,0,0-3.189Zm0,0" transform="translate(-67.246 -268.982)"/><path class="a" d="M307.683,100H287.594a1.594,1.594,0,0,0,0,3.189h20.088a1.594,1.594,0,0,0,0-3.189Zm0,0" transform="translate(-240.403 -84.057)"/></svg>