<svg xmlns="http://www.w3.org/2000/svg" width="57.09" height="57.09" viewBox="0 0 57.09 57.09"><defs><style>.a{fill:#eeae1d;}</style></defs><g transform="translate(0 21.451)"><path class="a" d="M56.252,226.339H50.833V193.214a.838.838,0,0,0-.838-.838H41.058a.838.838,0,0,0-.838.838v33.125H33.852V203.045a.838.838,0,0,0-.838-.838H24.076a.838.838,0,0,0-.838.838v23.294H16.87V207.514a.838.838,0,0,0-.838-.838H7.094a.838.838,0,0,0-.838.838v18.825H.838a.838.838,0,1,0,0,1.676H56.252a.838.838,0,1,0,0-1.676Zm-41.058,0H7.932V208.352h7.262v17.987Zm16.982,0H24.914V203.883h7.262Zm16.982,0H41.9V194.052h7.262v32.287Z" transform="translate(0 -192.376)"/></g><g transform="translate(0.894)"><path class="a" d="M61.538.657A2.624,2.624,0,0,0,59.474.02l-7.15.894a2.625,2.625,0,0,0,.651,5.21l.583-.073A63.373,63.373,0,0,1,26.977,24.128a60.611,60.611,0,0,1-16.417,3.58,2.625,2.625,0,0,0,.081,5.25h.081a64.22,64.22,0,0,0,17.9-3.838,70.416,70.416,0,0,0,15.71-7.9.838.838,0,0,0-.937-1.39A68.726,68.726,0,0,1,28.055,27.54a62.379,62.379,0,0,1-17.383,3.741h-.03a.95.95,0,0,1-.028-1.9,61.93,61.93,0,0,0,16.93-3.677A64.83,64.83,0,0,0,56.213,5.481a.845.845,0,0,0-.757-1.356l-2.689.336a.95.95,0,1,1-.236-1.885l7.15-.894a.959.959,0,0,1,1.067.942v7.15a.95.95,0,1,1-1.9,0V7.607a.838.838,0,0,0-1.487-.53A64.785,64.785,0,0,1,46.772,17.391.838.838,0,0,0,47.8,18.718a66.41,66.41,0,0,0,9.382-8.824,2.626,2.626,0,0,0,5.248-.118V2.625A2.627,2.627,0,0,0,61.538.657Z" transform="translate(-8.017 0)"/></g></svg>