<svg xmlns="http://www.w3.org/2000/svg" width="61.012" height="61.012" viewBox="0 0 61.012 61.012"><defs><style>.a{fill:#eeae1d;stroke:#fff;}</style></defs><g transform="translate(0.5 0.5)"><g transform="translate(35.28 28.131)"><path class="a" d="M311.034,247.547l-2.273-2.273L311.034,243a1.758,1.758,0,1,0-2.486-2.487l-2.273,2.273L304,240.514A1.758,1.758,0,0,0,301.514,243l2.273,2.273-2.273,2.273A1.758,1.758,0,1,0,304,250.034l2.273-2.273,2.273,2.273a1.758,1.758,0,0,0,2.486-2.486Z" transform="translate(-301 -240)"/></g><g transform="translate(14.182 14.065)"><path class="a" d="M131.034,127.547l-2.273-2.273L131.034,123a1.758,1.758,0,0,0-2.486-2.486l-2.273,2.273L124,120.514A1.758,1.758,0,0,0,121.514,123l2.273,2.273-2.273,2.273A1.758,1.758,0,0,0,124,130.034l2.273-2.273,2.273,2.273a1.758,1.758,0,0,0,2.486-2.486Z" transform="translate(-121 -120)"/></g><g transform="translate(14.183 10.551)"><path class="a" d="M155.648,94.044l-3.516-3.516-.01-.009a1.761,1.761,0,0,0-2.476.009l-3.516,3.516a1.758,1.758,0,0,0,2.486,2.486l.515-.515v4.546H136.823a1.758,1.758,0,0,0-1.758,1.758v8.791h-3.819a5.274,5.274,0,1,0,0,3.516h5.577a1.758,1.758,0,0,0,1.758-1.758v-8.791h12.307a1.758,1.758,0,0,0,1.758-1.758v-6.3l.515.515a1.758,1.758,0,1,0,2.486-2.486Zm-29.374,20.583a1.758,1.758,0,1,1,1.758-1.758A1.76,1.76,0,0,1,126.274,114.627Z" transform="translate(-121 -90.014)"/></g><path class="a" d="M54.737,0H5.274A5.274,5.274,0,0,0,3.516,10.247V40.438a5.28,5.28,0,0,0,5.274,5.274H28.248v4.053a5.274,5.274,0,1,0,3.516,0V45.712H51.221A5.28,5.28,0,0,0,56.5,40.438V10.247A5.274,5.274,0,0,0,54.737,0ZM30.006,56.5a1.758,1.758,0,1,1,1.758-1.758A1.76,1.76,0,0,1,30.006,56.5ZM52.979,40.438A1.76,1.76,0,0,1,51.221,42.2H8.791a1.76,1.76,0,0,1-1.758-1.758V10.549H52.979ZM54.737,7.033H5.274a1.758,1.758,0,0,1,0-3.516H54.737a1.758,1.758,0,1,1,0,3.516Z"/></g></svg>