<svg xmlns="http://www.w3.org/2000/svg" width="242.358" height="221.937" viewBox="0 0 242.358 221.937"><defs><style>.a{fill:#e6e6e6;}.b{fill:#fff;}.c{fill:#1c1c1c;}.d{fill:#3f3d56;}.e{fill:#ed7015;}.f{fill:#f2f2f2;}</style></defs><g transform="translate(2.678)"><path class="a" d="M464.347,122.644h-1.174V90.494a18.607,18.607,0,0,0-18.607-18.607H376.453a18.607,18.607,0,0,0-18.607,18.607V266.868a18.607,18.607,0,0,0,18.607,18.607h68.113a18.607,18.607,0,0,0,18.607-18.607V145.528h1.174Z" transform="translate(-310.02 -71.887)"/><path class="b" d="M457.677,88.382h-8.891a6.6,6.6,0,0,1-6.112,9.1H403.653a6.6,6.6,0,0,1-6.112-9.1h-8.3a13.9,13.9,0,0,0-13.9,13.9V278.393a13.9,13.9,0,0,0,13.9,13.9h68.441a13.9,13.9,0,0,0,13.9-13.9h0V102.278A13.9,13.9,0,0,0,457.677,88.382Z" transform="translate(-322.38 -83.541)"/><path class="c" d="M304.007,468.549h-.88l1.761-117.685h.88Z" transform="translate(-216.058 -247.892)"/><path class="c" d="M381.768,468.549h-.88l-1.761-117.685h.88Z" transform="translate(-269.753 -247.892)"/><rect class="c" width="20.544" height="0.88" transform="translate(89.124 105.32)"/><rect class="c" width="20.544" height="0.88" transform="translate(89.124 120.581)"/><rect class="c" width="21.424" height="0.88" transform="translate(88.83 135.841)"/><rect class="d" width="21.718" height="0.88" transform="translate(88.83 151.102)"/><rect class="c" width="22.304" height="0.88" transform="translate(88.537 166.363)"/><rect class="c" width="22.598" height="0.88" transform="translate(88.243 181.624)"/><rect class="c" width="23.185" height="0.88" transform="translate(87.95 196.885)"/><rect class="c" width="24.065" height="0.88" transform="translate(87.363 212.146)"/><circle class="c" cx="12.33" cy="12.33" r="12.33" transform="translate(86.088 135.648)"/><rect class="c" width="3.746" height="6.711" transform="translate(101.984 157.167) rotate(-10.261)"/><rect class="c" width="3.746" height="6.711" transform="translate(94.612 158.502) rotate(-10.261)"/><ellipse class="c" cx="3.121" cy="1.171" rx="3.121" ry="1.171" transform="matrix(0.763, -0.646, 0.646, 0.763, 93.87, 166.725)"/><ellipse class="c" cx="3.121" cy="1.171" rx="3.121" ry="1.171" transform="matrix(0.763, -0.646, 0.646, 0.763, 101.088, 165.419)"/><circle class="b" cx="4.214" cy="4.214" r="4.214" transform="translate(93.34 140.748)"/><circle class="c" cx="1.405" cy="1.405" r="1.405" transform="translate(94.418 142.047)"/><path class="e" d="M519.432,509.59c.185-4.565-3.749-8.431-8.787-8.636s-9.273,3.33-9.458,7.894,3.317,5.6,8.355,5.806S519.246,514.155,519.432,509.59Z" transform="translate(-411.288 -375.026)"/><ellipse class="c" cx="1.935" cy="6.165" rx="1.935" ry="6.165" transform="matrix(0.223, -0.975, 0.975, 0.223, 80.591, 146.24)"/><ellipse class="c" cx="1.935" cy="6.165" rx="1.935" ry="6.165" transform="matrix(0.223, -0.975, 0.975, 0.223, 104.794, 150.265)"/><path class="b" d="M528.362,589.135a2.809,2.809,0,0,1-5.528,1.006v-.005c-.276-1.527.9-2.067,2.431-2.343S528.086,587.608,528.362,589.135Z" transform="translate(-426.558 -436.298)"/><path class="a" d="M477.02,272.946,398.1,280.019a1.469,1.469,0,0,1-1.593-1.331l-1.755-19.578a1.469,1.469,0,0,1,1.331-1.592L475,250.445a1.469,1.469,0,0,1,1.593,1.331l1.755,19.578A1.469,1.469,0,0,1,477.02,272.946ZM396.133,258.1a.881.881,0,0,0-.8.955l1.755,19.577a.881.881,0,0,0,.956.8l78.923-7.073a.881.881,0,0,0,.8-.956l-1.755-19.578a.881.881,0,0,0-.956-.8Z" transform="translate(-336.089 -198.038)"/><circle class="e" cx="6.163" cy="6.163" r="6.163" transform="translate(65.067 63.651)"/><path class="a" d="M482.4,281.081a1.027,1.027,0,0,0,.183,2.046l48.231-4.323a1.027,1.027,0,0,0-.183-2.046Z" transform="translate(-397.357 -216.63)"/><path class="a" d="M484.272,302a1.027,1.027,0,0,0,.183,2.046l48.231-4.323a1.027,1.027,0,0,0-.183-2.046Z" transform="translate(-398.682 -231.408)"/><ellipse class="c" cx="6.32" cy="1.984" rx="6.32" ry="1.984" transform="matrix(0.357, -0.934, 0.934, 0.357, 106.162, 83.993)"/><circle class="c" cx="12.639" cy="12.639" r="12.639" transform="translate(84.088 98.793) rotate(-80.783)"/><rect class="c" width="3.84" height="6.88" transform="translate(92.829 98.262)"/><rect class="c" width="3.84" height="6.88" transform="translate(100.509 98.262)"/><ellipse class="c" cx="3.2" cy="1.2" rx="3.2" ry="1.2" transform="translate(92.829 104.021)"/><ellipse class="c" cx="3.2" cy="1.2" rx="3.2" ry="1.2" transform="translate(100.509 103.861)"/><path class="e" d="M488.589,307.417c-1.021-4.571,2.242-9.189,7.287-10.315s9.962,1.666,10.983,6.236-2.323,6.256-7.368,7.383S489.609,311.987,488.589,307.417Z" transform="translate(-402.26 -230.829)"/><ellipse class="c" cx="1.984" cy="6.32" rx="1.984" ry="6.32" transform="translate(77.793 81.561) rotate(-64.626)"/><circle class="c" cx="12.639" cy="12.639" r="12.639" transform="translate(9.798 191.219)"/><rect class="c" width="3.84" height="6.88" transform="translate(16.678 213.778)"/><rect class="c" width="3.84" height="6.88" transform="translate(24.357 213.778)"/><ellipse class="c" cx="3.2" cy="1.2" rx="3.2" ry="1.2" transform="translate(16.678 219.537)"/><ellipse class="c" cx="3.2" cy="1.2" rx="3.2" ry="1.2" transform="translate(24.357 219.377)"/><circle class="b" cx="4.32" cy="4.32" r="4.32" transform="translate(18.438 196.338)"/><circle class="c" cx="1.44" cy="1.44" r="1.44" transform="translate(21.317 199.218)"/><path class="a" d="M229.11,701.024c-1.021-4.571,2.242-9.189,7.287-10.315s9.962,1.665,10.983,6.236-2.323,6.256-7.368,7.383S230.131,705.6,229.11,701.024Z" transform="translate(-218.934 -508.921)"/><ellipse class="c" cx="6.32" cy="1.984" rx="6.32" ry="1.984" transform="matrix(0.357, -0.934, 0.934, 0.357, 25.69, 163.191)"/><circle class="c" cx="12.639" cy="12.639" r="12.639" transform="translate(3.617 177.991) rotate(-80.783)"/><rect class="c" width="3.84" height="6.88" transform="translate(12.358 177.459)"/><rect class="c" width="3.84" height="6.88" transform="translate(20.038 177.459)"/><ellipse class="c" cx="3.2" cy="1.2" rx="3.2" ry="1.2" transform="translate(12.358 183.219)"/><ellipse class="c" cx="3.2" cy="1.2" rx="3.2" ry="1.2" transform="translate(20.038 183.059)"/><circle class="b" cx="4.32" cy="4.32" r="4.32" transform="translate(14.118 160.02)"/><circle class="c" cx="1.44" cy="1.44" r="1.44" transform="translate(16.998 162.9)"/><path class="e" d="M214.391,577.274c-1.021-4.57,2.242-9.189,7.287-10.315s9.962,1.665,10.982,6.236-2.323,6.256-7.368,7.383S215.412,581.845,214.391,577.274Z" transform="translate(-208.534 -421.489)"/><ellipse class="c" cx="1.984" cy="6.32" rx="1.984" ry="6.32" transform="translate(-2.678 160.759) rotate(-64.626)"/><path class="b" d="M235.463,654.6c0,1.237,3.185,3.68,6.72,3.68s6.848-3.483,6.848-4.72-3.314.24-6.848.24S235.463,653.367,235.463,654.6Z" transform="translate(-223.554 -482.505)"/><ellipse class="c" cx="6.32" cy="1.984" rx="6.32" ry="1.984" transform="matrix(0.357, -0.934, 0.934, 0.357, 66.498, 172.324)"/><circle class="c" cx="12.639" cy="12.639" r="12.639" transform="translate(47.066 189.765) rotate(-80.783)"/><path class="c" d="M196.6,644.792h3.84l-.751,8.239-3.088-1.359Z" transform="translate(-140.797 -455.558)"/><ellipse class="c" cx="1.2" cy="3.2" rx="1.2" ry="3.2" transform="translate(54.969 194.822) rotate(-28.232)"/><path class="c" d="M225.127,644.864h3.84l-.751,8.239-3.089-1.359Z" transform="translate(-160.949 -455.609)"/><ellipse class="c" cx="1.2" cy="3.2" rx="1.2" ry="3.2" transform="translate(63.341 194.844) rotate(-28.232)"/><circle class="b" cx="4.32" cy="4.32" r="4.32" transform="translate(57.567 171.794)"/><circle class="c" cx="1.44" cy="1.44" r="1.44" transform="translate(60.447 174.674)"/><path class="f" d="M362.439,617.393c-1.021-4.571,2.242-9.189,7.287-10.315s9.962,1.665,10.983,6.236-2.323,6.256-7.368,7.383S363.46,621.964,362.439,617.393Z" transform="translate(-313.133 -449.834)"/><ellipse class="c" cx="1.984" cy="6.32" rx="1.984" ry="6.32" transform="translate(42.859 166.609) rotate(-36.45)"/><path class="b" d="M398.758,697.785c0-1.02-2.625-3.033-5.538-3.033s-5.644,2.87-5.644,3.89,2.731-.2,5.644-.2S398.758,698.8,398.758,697.785Z" transform="translate(-331.024 -511.953)"/><path class="c" d="M313.444,512.584a27.869,27.869,0,0,1-27.881-27.88c0-.058,0-.12,0-.178a27.88,27.88,0,1,1,40.258,25.166A27.617,27.617,0,0,1,313.444,512.584Zm0-55.174a27.352,27.352,0,0,0-27.291,27.134c0,.062,0,.112,0,.16a27.3,27.3,0,1,0,27.294-27.294Z" transform="translate(-258.951 -343.852)"/><path class="e" d="M375.527,529.709l-19.083-11.017a.587.587,0,0,0-.88.508v22.035a.587.587,0,0,0,.88.508l19.083-11.017a.587.587,0,0,0,0-1.017l-19.083-11.017a.587.587,0,0,0-.88.508v22.035a.587.587,0,0,0,.88.508l19.083-11.017a.587.587,0,0,0,0-1.017Z" transform="translate(-308.407 -387.508)"/><ellipse class="a" cx="15.554" cy="0.587" rx="15.554" ry="0.587" transform="translate(49.211 218.896)"/><ellipse class="a" cx="15.554" cy="0.587" rx="15.554" ry="0.587" transform="translate(208.57 213.32)"/><path class="a" d="M788.539,660.252l-69.75-37.6a1.469,1.469,0,0,1-.6-1.988l9.327-17.3a1.469,1.469,0,0,1,1.988-.6l69.75,37.6a1.469,1.469,0,0,1,.6,1.988l-9.327,17.3A1.469,1.469,0,0,1,788.539,660.252Zm-59.309-56.97a.881.881,0,0,0-1.193.357l-9.327,17.3a.881.881,0,0,0,.357,1.193l69.75,37.6a.882.882,0,0,0,1.193-.357l9.327-17.3a.881.881,0,0,0-.357-1.193Z" transform="translate(-564.489 -446.839)"/><circle class="e" cx="6.163" cy="6.163" r="6.163" transform="translate(162.539 164.58)"/><path class="a" d="M815.4,664.069a1.027,1.027,0,1,0-.975,1.808l42.625,22.979a1.027,1.027,0,0,0,.975-1.808Z" transform="translate(-632.224 -490.188)"/><path class="a" d="M805.44,682.554a1.027,1.027,0,1,0-.975,1.808l42.625,22.979a1.027,1.027,0,0,0,.975-1.808Z" transform="translate(-625.184 -503.248)"/></g></svg>