<svg xmlns="http://www.w3.org/2000/svg" width="276.444" height="231.079" viewBox="0 0 276.444 231.079"><defs><style>.a{fill:#e8eaed;}.b,.e{fill:#252525;}.c{fill:#f2f2f2;}.d{fill:#383838;}.e,.g{opacity:0.1;}.f{fill:#ef7015;}.h{fill:#2f2e41;}.i{fill:#fbbebe;}.j{fill:#ffb9b9;}.k{fill:#3f3d56;}</style></defs><path class="a" d="M294.152,225.641,108,56.681,137.109,0,341.783,224.253Z" transform="translate(-71.141)"/><circle class="a" cx="11.263" cy="11.263" r="11.263" transform="translate(126.959 25.282)"/><circle class="b" cx="3.754" cy="3.754" r="3.754" transform="translate(183.954 55.998)"/><circle class="b" cx="3.754" cy="3.754" r="3.754" transform="translate(183.954 85.69)"/><circle class="b" cx="3.754" cy="3.754" r="3.754" transform="translate(221.496 93.199)"/><ellipse class="c" cx="138.222" cy="6.826" rx="138.222" ry="6.826" transform="translate(0 217.428)"/><path class="d" d="M531.329,340.175c-1.568-2.586-7.044-2.519-7.044-2.519-4.986,7.408-16.971-.461-16.971-.461-8.9,3.982-14.333-8.709-14.333-8.709-11.978-1.791-10.127-14.37-10.127-14.37-5.959-1.2-4.287-11.97-4.287-11.97s3.307-2.712,1.679-4.7c-1.035-1.261-1.1-4.881-1.008-7.352a82.2,82.2,0,1,0,53.037,49.794C531.853,340.368,531.526,340.5,531.329,340.175Z" transform="translate(-312.251 -226.787)"/><path class="e" d="M531.329,340.175c-1.568-2.586-7.044-2.519-7.044-2.519-4.986,7.408-16.971-.461-16.971-.461-8.9,3.982-14.333-8.709-14.333-8.709-11.978-1.791-10.127-14.37-10.127-14.37-5.959-1.2-4.287-11.97-4.287-11.97s3.307-2.712,1.679-4.7c-1.035-1.261-1.1-4.881-1.008-7.352a82.2,82.2,0,1,0,53.037,49.794C531.853,340.368,531.526,340.5,531.329,340.175Z" transform="translate(-312.251 -226.787)"/><path class="b" d="M532.005,344.291c-1.491-2.459-6.7-2.4-6.7-2.4-4.742,7.045-16.14-.439-16.14-.439-8.466,3.787-13.631-8.282-13.631-8.282-11.391-1.7-9.631-13.667-9.631-13.667-5.667-1.138-4.077-11.384-4.077-11.384s3.145-2.579,1.6-4.466c-.984-1.2-1.045-4.642-.959-6.992a78.174,78.174,0,1,0,50.441,47.357C532.5,344.474,532.192,344.6,532.005,344.291Z" transform="translate(-317.801 -231.228)"/><path class="f" d="M516.064,415.9s-13.489-8.584-26.366,0a18.623,18.623,0,0,0-7.785,11.582,25.727,25.727,0,0,0,5.051,21.85l29.13,36.8a8.659,8.659,0,0,0,8.634,3.146l.19-.044a8.683,8.683,0,0,0,5.49-4.168l20.258-35.576a34.455,34.455,0,0,0,4.377-21.431c-.95-7.316-4.464-15.029-14.453-17.673C540.59,410.382,528.94,405.477,516.064,415.9Z" transform="translate(-383.555 -307.604)"/><path class="g" d="M516.064,415.9s-13.489-8.584-26.366,0a18.623,18.623,0,0,0-7.785,11.582,25.727,25.727,0,0,0,5.051,21.85l29.13,36.8a8.659,8.659,0,0,0,8.634,3.146l.19-.044a8.683,8.683,0,0,0,5.49-4.168l20.258-35.576a34.455,34.455,0,0,0,4.377-21.431c-.95-7.316-4.464-15.029-14.453-17.673C540.59,410.382,528.94,405.477,516.064,415.9Z" transform="translate(-383.555 -307.604)"/><path class="f" d="M520.628,422.768s-12.654-8.053-24.733,0a17.47,17.47,0,0,0-7.3,10.865,24.134,24.134,0,0,0,4.738,20.5l27.326,34.516a8.123,8.123,0,0,0,8.1,2.952l.179-.041a8.145,8.145,0,0,0,5.15-3.91l19-33.373a32.321,32.321,0,0,0,4.105-20.1c-.891-6.863-4.187-14.1-13.558-16.578C543.635,417.592,532.707,412.99,520.628,422.768Z" transform="translate(-387.981 -312.4)"/><path class="g" d="M554.459,469.427s-6.156-3.918-12.033,0a8.5,8.5,0,0,0-3.553,5.286,11.741,11.741,0,0,0,2.305,9.972s15.762,18.559,17.235,18.229l.087-.02c1.062-.255,11.751-18.139,11.751-18.139a15.724,15.724,0,0,0,2-9.781c-.434-3.339-2.037-6.859-6.6-8.066C565.653,466.909,560.336,464.67,554.459,469.427Z" transform="translate(-421.32 -345.252)"/><path class="g" d="M277.434,449.785l1.726,2.876,3.451,5.752,1.15,4.026-2.3,3.451,2.876,6.9,1.15,4.026-2.3,2.3,4.6,3.451" transform="translate(-182.749 -296.279)"/><path class="g" d="M516.294,375.631v4.6l-2.876,7.477-1.726,4.026,2.876,5.177,1.15,3.451,4.6,1.726,1.725,2.876v6.9" transform="translate(-337.057 -247.432)"/><path class="g" d="M792.8,500.574l-4.6,2.876s-2.3,1.15-2.3,1.726v4.6" transform="translate(-584.234 -367.774)"/><path class="g" d="M550.455,341.925l1.15,5.752-1.15,4.027" transform="translate(-362.591 -225.23)"/><path class="g" d="M549.505,493.6l-3.451,5.176-4.026,3.451v2.3l2.3,2.876v3.451L542.6,514.31" transform="translate(-357.04 -325.143)"/><path class="g" d="M407.927,207.1h-5.752l-4.6,4.026-7.477,4.026-3.451,2.876v1.151l-7.477,4.026-2.3,4.026" transform="translate(-248.247 -136.419)"/><path class="g" d="M444.226,347.211l-5.177,10.353-1.726,4.026-4.026,5.177s-2.876,5.177-3.451,5.752-4.6,1.726-4.6,1.726L431,380" transform="translate(-346.665 -266.752)"/><path class="g" d="M211.787,352.037l-1.15,7.477,1.15,4.6v8.052l-3.451,14.954,3.451,4.026,4.026,5.177" transform="translate(-137.233 -231.891)"/><path class="g" d="M243.727,362.149l3.451,1.726,2.3,7.477,4.6-1.151,2.3,4.027" transform="translate(-160.546 -238.552)"/><path class="g" d="M429.112,571.249l9.2-1.151,4.026-4.026h5.752" transform="translate(-282.661 -372.878)"/><path class="g" d="M265.636,545.848l3.451,4.026,5.752,1.726,4.027,1.15,1.15,6.327" transform="translate(-174.978 -359.556)"/><path class="g" d="M464.5,461.9l4.027-2.876,1.726-4.6,3.451-.575,1.725-5.752" transform="translate(-305.974 -295.169)"/><path class="h" d="M139.71,65.079h9.631A11.465,11.465,0,0,1,160.8,76.544v21.1h-32.56v-21.1A11.465,11.465,0,0,1,139.71,65.079Z" transform="translate(-84.477 -42.868)"/><path class="i" d="M380.179,706.621s-1.024,6.485-2.73,7.508,8.874,3.413,8.874,3.413l1.706-10.239Z" transform="translate(-315.058 -503.5)"/><path class="h" d="M388.555,489.621l3.754,4.437L390.6,509.416l-1.365,30.375s2.73,26.279,0,26.962-15.017.341-14.675-1.365.683-3.071,1.365-5.461-.683-10.921-.683-10.921l1.706-9.556-6.143-41.3Z" transform="translate(-310.807 -360.559)"/><path class="h" d="M355.6,725.036s-3.754-.683-4.1,0-6.826,7.85-7.85,7.85-8.532,6.826-.683,7.167,20.819-5.8,20.819-5.8-1.909-8.685-1.808-8.267S355.6,726.742,355.6,725.036Z" transform="translate(-290.142 -515.43)"/><path class="i" d="M374.808,669.081s9.556,10.58,9.9,11.6,5.461,0,5.461,0l2.048-6.826-1.706-2.389-9.556-7.85Z" transform="translate(-313.442 -475.175)"/><path class="h" d="M405.257,688.66l-4.949,4.658s6.314,9.676,6.314,10.7.341,9.556,3.754,8.191,3.754-15.017,3.754-15.017-.341-13.993-2.389-15.017-6.536-.7-6.536-.7S407.987,688.319,405.257,688.66Z" transform="translate(-330.239 -486.904)"/><path class="h" d="M307.744,397.9s-1.707,5.461-2.048,6.826-2.389,5.119-2.389,10.921.683,12.628,0,13.31-11.6,38.907-6.826,43,20.477,17.747,21.5,19.453,1.365,5.8,3.413,5.119,9.9-7.508,10.239-8.873S327.2,483.9,327.2,483.9s-9.556-13.993-11.945-13.652-2.048-1.706-1.706-2.73,1.024-1.707,0-1.707-.341-2.73,0-4.1,8.191-19.795,8.191-19.795l20.819-9.215s-1.024-24.914-8.532-31.74l-1.706-4.1S313.2,395.506,307.744,397.9Z" transform="translate(-261.053 -299.208)"/><path class="i" d="M337.705,242.621s1.706,11.945-2.389,12.628-7.508.341-7.508.683,10.239,10.921,10.239,10.921l9.556-.683,8.532-9.215s-7.85-1.365-7.85-6.143-.341-8.191-.341-8.191Z" transform="translate(-282.482 -197.857)"/><path class="g" d="M337.705,242.621s1.706,11.945-2.389,12.628-7.508.341-7.508.683,10.239,10.921,10.239,10.921l9.556-.683,8.532-9.215s-7.85-1.365-7.85-6.143-.341-8.191-.341-8.191Z" transform="translate(-282.482 -197.857)"/><circle class="i" cx="10.58" cy="10.58" r="10.58" transform="translate(49.933 28.552)"/><path class="f" d="M316.965,276.621s-13.31,1.706-14.334,6.143,6.826,32.081,7.85,34.47a7.549,7.549,0,0,1,.683,4.1,13.5,13.5,0,0,1,10.921-2.389c6.484,1.365,15.7.683,15.7.683s3.072-12.628,3.754-13.993,3.413-8.874,3.413-10.921,4.1-10.58,4.1-10.58-2.048-6.143-9.556-5.8c0,0-3.275-1.466-4.2-.392s-6.042,5.852-12.526,3.8S316.965,276.621,316.965,276.621Z" transform="translate(-265.837 -220.254)"/><path class="f" d="M302.61,293.621h-3.754l-2.048,26.962s7.508,2.048,8.532.683S302.61,293.621,302.61,293.621Z" transform="translate(-262.062 -231.452)"/><path class="f" d="M419.808,293.621l6.484,1.706s4.778,17.406,5.119,17.747a8.683,8.683,0,0,1,.683,2.389s0,.341.683,1.365,1.706.341,1.024,1.706-1.706.683-1.024,2.048.341,5.119.341,5.119-1.706-6.484-7.85-4.778l-4.1-18.43Z" transform="translate(-343.084 -231.452)"/><path class="h" d="M162.6,90.611H146.16l-3.722-8.554H165.39Z" transform="translate(-93.826 -54.052)"/><ellipse class="j" cx="0.828" cy="2.207" rx="0.828" ry="2.207" transform="translate(48.154 38.809) rotate(-16.16)"/><ellipse class="j" cx="2.207" cy="0.828" rx="2.207" ry="0.828" transform="translate(70.213 42.587) rotate(-73.84)"/><circle class="k" cx="6.143" cy="6.143" r="6.143" transform="translate(63.48 73.745)"/><circle class="g" cx="6.143" cy="6.143" r="6.143" transform="translate(63.48 73.745)"/><circle class="b" cx="5.534" cy="5.534" r="5.534" transform="translate(64.089 74.354)"/><path class="g" d="M391.266,335.027a2.66,2.66,0,0,0-2.756,0,1.947,1.947,0,0,0-.814,1.211,2.689,2.689,0,0,0,.528,2.284l3.045,3.846a.9.9,0,0,0,.9.329l.02,0a.908.908,0,0,0,.574-.436l2.117-3.719a3.6,3.6,0,0,0,.458-2.24,2.012,2.012,0,0,0-1.511-1.847A2.619,2.619,0,0,0,391.266,335.027Z" transform="translate(-321.887 -258.267)"/><path class="f" d="M391.742,335.745a2.5,2.5,0,0,0-2.585,0,1.826,1.826,0,0,0-.763,1.136,2.523,2.523,0,0,0,.5,2.142l2.856,3.608a.849.849,0,0,0,.847.308l.019,0a.851.851,0,0,0,.538-.409l1.986-3.488a3.378,3.378,0,0,0,.429-2.1,1.888,1.888,0,0,0-1.417-1.733A2.457,2.457,0,0,0,391.742,335.745Z" transform="translate(-322.349 -258.769)"/><path class="g" d="M395.274,340.622a1.214,1.214,0,0,0-1.258,0,.888.888,0,0,0-.371.552,1.227,1.227,0,0,0,.241,1.042,16.911,16.911,0,0,0,1.8,1.905l.009,0a21.634,21.634,0,0,0,1.228-1.9,1.644,1.644,0,0,0,.209-1.022.918.918,0,0,0-.69-.843A1.2,1.2,0,0,0,395.274,340.622Z" transform="translate(-325.83 -262.203)"/><circle class="k" cx="6.143" cy="6.143" r="6.143" transform="translate(58.019 77.158)"/><circle class="g" cx="6.143" cy="6.143" r="6.143" transform="translate(58.019 77.158)"/><circle class="b" cx="5.534" cy="5.534" r="5.534" transform="translate(58.628 77.767)"/><path class="g" d="M375.266,345.027a2.66,2.66,0,0,0-2.756,0,1.947,1.947,0,0,0-.814,1.211,2.689,2.689,0,0,0,.528,2.284l3.045,3.846a.905.905,0,0,0,.9.329l.02,0a.908.908,0,0,0,.574-.436l2.118-3.719a3.6,3.6,0,0,0,.457-2.24,2.012,2.012,0,0,0-1.511-1.847A2.62,2.62,0,0,0,375.266,345.027Z" transform="translate(-311.348 -264.854)"/><path class="f" d="M375.743,345.745a2.5,2.5,0,0,0-2.585,0,1.826,1.826,0,0,0-.763,1.136,2.522,2.522,0,0,0,.5,2.142l2.856,3.608a.849.849,0,0,0,.847.309l.019,0a.851.851,0,0,0,.538-.409l1.986-3.488a3.379,3.379,0,0,0,.429-2.1,1.888,1.888,0,0,0-1.417-1.733A2.457,2.457,0,0,0,375.743,345.745Z" transform="translate(-311.81 -265.356)"/><path class="g" d="M379.274,350.623a1.214,1.214,0,0,0-1.258,0,.889.889,0,0,0-.371.552,1.227,1.227,0,0,0,.241,1.042,16.918,16.918,0,0,0,1.8,1.905l.009,0a21.625,21.625,0,0,0,1.228-1.9,1.644,1.644,0,0,0,.209-1.022.918.918,0,0,0-.689-.843A1.2,1.2,0,0,0,379.274,350.623Z" transform="translate(-315.29 -268.79)"/><path class="k" d="M340.13,300.656c-.15-.247-.672-.24-.672-.24-.476.707-1.62-.044-1.62-.044-.85.38-1.368-.831-1.368-.831a1.175,1.175,0,0,1-.966-1.371c-.569-.114-.409-1.142-.409-1.142s.316-.259.16-.448a1.378,1.378,0,0,1-.1-.7,7.844,7.844,0,1,0,5.062,4.752C340.18,300.674,340.148,300.687,340.13,300.656Z" transform="translate(-280.652 -232.713)"/><path class="g" d="M340.13,300.656c-.15-.247-.672-.24-.672-.24-.476.707-1.62-.044-1.62-.044-.85.38-1.368-.831-1.368-.831a1.175,1.175,0,0,1-.966-1.371c-.569-.114-.409-1.142-.409-1.142s.316-.259.16-.448a1.378,1.378,0,0,1-.1-.7,7.844,7.844,0,1,0,5.062,4.752C340.18,300.674,340.148,300.687,340.13,300.656Z" transform="translate(-280.652 -232.713)"/><path class="b" d="M340.193,301.049c-.142-.235-.639-.229-.639-.229-.453.672-1.54-.042-1.54-.042-.808.361-1.3-.79-1.3-.79a1.118,1.118,0,0,1-.919-1.3c-.541-.109-.389-1.086-.389-1.086s.3-.246.152-.426a1.31,1.31,0,0,1-.092-.667,7.461,7.461,0,1,0,4.814,4.52C340.241,301.066,340.211,301.078,340.193,301.049Z" transform="translate(-281.181 -233.137)"/><path class="f" d="M338.658,307.885a2.428,2.428,0,0,0-2.516,0,1.777,1.777,0,0,0-.743,1.105,2.455,2.455,0,0,0,.482,2.085l2.78,3.512a.826.826,0,0,0,.824.3l.018,0a.829.829,0,0,0,.524-.4l1.933-3.4a3.288,3.288,0,0,0,.418-2.045A1.837,1.837,0,0,0,341,307.359,2.392,2.392,0,0,0,338.658,307.885Z" transform="translate(-287.442 -240.428)"/><path class="g" d="M338.658,307.885a2.428,2.428,0,0,0-2.516,0,1.777,1.777,0,0,0-.743,1.105,2.455,2.455,0,0,0,.482,2.085l2.78,3.512a.826.826,0,0,0,.824.3l.018,0a.829.829,0,0,0,.524-.4l1.933-3.4a3.288,3.288,0,0,0,.418-2.045A1.837,1.837,0,0,0,341,307.359,2.392,2.392,0,0,0,338.658,307.885Z" transform="translate(-287.442 -240.428)"/><path class="f" d="M339.093,308.541a2.277,2.277,0,0,0-2.36,0,1.667,1.667,0,0,0-.7,1.037,2.3,2.3,0,0,0,.452,1.956l2.608,3.294a.775.775,0,0,0,.773.282l.017,0a.777.777,0,0,0,.491-.373l1.814-3.185a3.084,3.084,0,0,0,.392-1.919,1.723,1.723,0,0,0-1.294-1.582A2.243,2.243,0,0,0,339.093,308.541Z" transform="translate(-287.864 -240.886)"/><path class="g" d="M342.318,312.994a1.108,1.108,0,0,0-1.148,0,.811.811,0,0,0-.339.5,1.121,1.121,0,0,0,.22.952,15.446,15.446,0,0,0,1.645,1.74l.008,0a19.719,19.719,0,0,0,1.122-1.731,1.5,1.5,0,0,0,.191-.933.838.838,0,0,0-.629-.77A1.091,1.091,0,0,0,342.318,312.994Z" transform="translate(-291.042 -244.022)"/><path class="g" d="M139.49,210.3l.165.274.329.549.11.384-.22.329.275.659.11.384-.219.22.439.329" transform="translate(-91.884 -138.524)"/><path class="g" d="M162.285,203.219v.439l-.274.714-.165.384.274.494.11.329.439.165.165.275v.659" transform="translate(-106.61 -133.863)"/><path class="g" d="M365.064,315.966l-.439.274s-.22.11-.22.165v.439" transform="translate(-306.589 -246.171)"/><path class="g" d="M165.545,200l.11.549-.11.384" transform="translate(-109.046 -131.744)"/><path class="g" d="M165.455,214.478l-.329.494-.384.329v.22l.22.274v.329l-.165.329" transform="translate(-108.517 -141.279)"/><path class="g" d="M151.943,187.135h-.549l-.439.384-.714.384-.329.274v.11l-.714.384-.219.384" transform="translate(-98.134 -123.268)"/><path class="g" d="M331.8,301.33l-.494.988-.165.384-.384.494s-.274.494-.329.549a2.257,2.257,0,0,1-.439.165l.549.549" transform="translate(-283.917 -236.53)"/><path class="g" d="M133.224,200.967l-.11.714.11.439v.769l-.329,1.427.329.384.384.494" transform="translate(-87.539 -132.379)"/><path class="g" d="M136.273,201.932l.329.165.219.714.439-.11.219.384" transform="translate(-89.765 -133.015)"/><path class="g" d="M153.965,221.888l.878-.11.384-.384h.549" transform="translate(-101.419 -145.835)"/><path class="g" d="M138.364,219.464l.329.384.549.165.384.11.11.6" transform="translate(-91.142 -144.564)"/><path class="g" d="M157.343,211.452l.384-.274.164-.439.329-.055.165-.549" transform="translate(-103.644 -138.418)"/><path class="f" d="M297.749,364.524l-1.024,2.73s-.683,8.874,3.413,8.532,6.484-5.461,6.484-5.461-2.389-6.484-5.119-5.8S297.749,364.524,297.749,364.524Z" transform="translate(-261.98 -278.123)"/><path class="i" d="M308.231,341.832s-2.048,6.143.341,6.143,6.826-3.754,7.167-6.826,6.484-14.675,2.048-13.652-6.484,9.556-6.484,9.556Z" transform="translate(-269.049 -253.725)"/><path class="i" d="M397.852,359.716l2.132,3.563s.94,6.676-3.839,6.676-11.6-6.484-11.6-6.484-3.413-1.365-5.461-1.024-13.31,0-8.532-5.8,12.969,0,12.969,0l8.532,4.1,4.437-2.389Z" transform="translate(-309.865 -271.267)"/><path class="f" d="M437.721,355.8l-3.413,5.461s7.85,1.024,8.532,2.73-3.072-8.873-3.072-8.873Z" transform="translate(-352.635 -271.963)"/></svg>