<svg xmlns="http://www.w3.org/2000/svg" width="359.002" height="268.32" viewBox="0 0 359.002 268.32"><defs><style>.a{fill:#f2f2f2;}.b{fill:#ff6584;}.c{fill:#e8eaed;}.d{fill:#eeae1d;}.e{fill:#252525;}.f{fill:#fff;}.g{fill:#ee991a;}.h,.i{fill:none;stroke-miterlimit:10;stroke-width:2px;}.h{stroke:#252525;}.i{stroke:#3f3d56;}.j{fill:#ed7015;}.k{fill:#0865ab;}</style></defs><path class="a" d="M217.843,307.333c-10.417,38.674-32.469,72.522-72.522,72.522A72.522,72.522,0,0,1,72.8,307.333c0-40.053,42.216-46.335,72.522-72.522C206.864,181.632,250.192,187.23,217.843,307.333Z" transform="translate(-72.799 -152.244)"/><circle class="b" cx="23.153" cy="23.153" r="23.153" transform="translate(143.138 13.257)"/><rect class="b" width="12.257" height="12.257" transform="translate(195.912 4.064)"/><path class="c" d="M57.881,0c31.967,0,57.881,3.525,57.881,7.874s-25.914,7.874-57.881,7.874S0,12.223,0,7.874,25.914,0,57.881,0Z" transform="translate(15.525 219.885)"/><path class="d" d="M0,0H78.31V39.836H0Z" transform="translate(89.683 44.581)"/><circle class="e" cx="26.898" cy="26.898" r="26.898" transform="translate(43.378 162.387)"/><rect class="e" width="8.171" height="14.641" transform="translate(58.018 210.395)"/><rect class="e" width="8.171" height="14.641" transform="translate(74.361 210.395)"/><ellipse class="e" cx="6.81" cy="2.554" rx="6.81" ry="2.554" transform="translate(58.018 222.652)"/><ellipse class="e" cx="6.81" cy="2.554" rx="6.81" ry="2.554" transform="translate(74.361 222.311)"/><circle class="f" cx="9.193" cy="9.193" r="9.193" transform="translate(61.764 173.282)"/><circle class="e" cx="3.064" cy="3.064" r="3.064" transform="translate(67.892 179.411)"/><path class="g" d="M201.8,493.417c-2.172-9.727,4.771-19.555,15.507-21.952s21.2,3.544,23.372,13.271S235.733,498.05,225,500.447,203.97,503.144,201.8,493.417Z" transform="translate(-157.614 -329.146)"/><circle class="e" cx="26.898" cy="26.898" r="26.898" transform="translate(34.185 85.098)"/><rect class="e" width="8.171" height="14.641" transform="translate(48.825 133.106)"/><rect class="e" width="8.171" height="14.641" transform="translate(65.168 133.106)"/><ellipse class="e" cx="6.81" cy="2.554" rx="6.81" ry="2.554" transform="translate(48.825 145.363)"/><ellipse class="e" cx="6.81" cy="2.554" rx="6.81" ry="2.554" transform="translate(65.168 145.023)"/><circle class="f" cx="9.193" cy="9.193" r="9.193" transform="translate(52.571 95.994)"/><circle class="e" cx="3.064" cy="3.064" r="3.064" transform="translate(58.699 102.122)"/><path class="d" d="M174.8,266.417c-2.172-9.727,4.771-19.555,15.507-21.952s21.2,3.544,23.372,13.271S208.733,271.05,198,273.447,176.97,276.144,174.8,266.417Z" transform="translate(-139.807 -179.435)"/><ellipse class="e" cx="13.449" cy="4.222" rx="13.449" ry="4.222" transform="matrix(0.357, -0.934, 0.934, 0.357, 77.199, 102.74)"/><ellipse class="e" cx="4.222" cy="13.449" rx="4.222" ry="13.449" transform="translate(16.826 97.567) rotate(-64.626)"/><path class="f" d="M213.4,405.614c0,2.633,6.778,7.831,14.3,7.831s14.574-7.412,14.574-10.044-7.052.511-14.574.511S213.4,402.981,213.4,405.614Z" transform="translate(-165.526 -283.914)"/><rect class="h" width="78.31" height="39.836" transform="translate(97.174 38.793)"/><rect class="i" width="12.257" height="12.257" transform="translate(199.998 1)"/><g transform="translate(285.014 121.316)"><path class="a" d="M983.885,474.112c0,27.86-16.563,37.588-36.994,37.588S909.9,501.973,909.9,474.112s36.994-63.3,36.994-63.3S983.885,446.251,983.885,474.112Z" transform="translate(-909.897 -410.808)"/><path class="e" d="M912.991,451l.379-23.317,15.768-28.846-15.708,25.189.171-10.484,10.866-20.87-10.822,18.1h0l.306-18.856L925.588,375.3,914,388.948l.192-34.576-1.2,45.772.1-1.888-11.831-18.109L912.9,401.88l-1.1,21.059-.033-.559-13.639-19.057,13.6,21.032-.138,2.634-.025.039.011.216-2.8,53.429h3.737l.448-27.6L926.522,432.1Z" transform="translate(-877.345 -354.372)"/><ellipse class="e" cx="12.863" cy="3.811" rx="12.863" ry="3.811" transform="translate(20.154 122.489)"/></g><path class="c" d="M57.881,0c31.967,0,57.881,3.525,57.881,7.874s-25.914,7.874-57.881,7.874S0,12.223,0,7.874,25.914,0,57.881,0Z" transform="translate(202.448 252.571)"/><circle class="e" cx="26.898" cy="26.898" r="26.898" transform="translate(234.113 193.2)"/><rect class="e" width="8.171" height="14.641" transform="translate(273.268 255.849) rotate(180)"/><rect class="e" width="8.171" height="14.641" transform="translate(256.925 255.849) rotate(180)"/><ellipse class="e" cx="6.81" cy="2.554" rx="6.81" ry="2.554" transform="translate(243.964 258.575) rotate(-30)"/><ellipse class="e" cx="6.81" cy="2.554" rx="6.81" ry="2.554" transform="translate(259.966 258.575) rotate(-30)"/><circle class="f" cx="9.193" cy="9.193" r="9.193" transform="translate(251.137 204.096)"/><circle class="e" cx="3.064" cy="3.064" r="3.064" transform="translate(254.134 206.309)"/><path class="j" d="M839.963,583.917c2.172-9.727-4.771-19.555-15.507-21.952s-21.2,3.544-23.372,13.271,4.943,13.314,15.679,15.711S837.792,593.644,839.963,583.917Z" transform="translate(-552.861 -388.833)"/><ellipse class="e" cx="4.222" cy="13.449" rx="4.222" ry="13.449" transform="translate(223.418 209.443) rotate(-66.829)"/><ellipse class="e" cx="4.222" cy="13.449" rx="4.222" ry="13.449" transform="translate(273.809 227.488) rotate(-66.829)"/><path class="k" d="M0,0H28.177V30.136H0Z" transform="translate(199.741 176.854)"/><path class="f" d="M831.458,727.522a6.129,6.129,0,0,1-12.257,0c0-3.385,2.744-4.086,6.129-4.086S831.458,724.137,831.458,727.522Z" transform="translate(-565.067 -495.677)"/></svg>