<svg xmlns="http://www.w3.org/2000/svg" xmlns:xlink="http://www.w3.org/1999/xlink" width="271.842" height="270.529" viewBox="0 0 271.842 270.529"><defs><style>.a{fill:#202124;}.b{opacity:0.8;fill:url(#a);}.c{fill:#ef7015;}.d{fill:#2f2e41;}.e{opacity:0.4;}.f{fill:#e6e6e6;}.g{fill:#cbcbcb;}</style><linearGradient id="a" y1="0.5" x2="1" y2="0.5" gradientUnits="objectBoundingBox"><stop offset="0" stop-color="#fff"/><stop offset="1" stop-color="#fff" stop-opacity="0.302"/></linearGradient></defs><path class="a" d="M494.842,210.741A135.794,135.794,0,0,1,378.9,345.2H342.084c-.058.05-2.1.148-2.1.148-.342-.047-.689-.1-1.031-.148q-3.932-.579-7.791-1.381a134.354,134.354,0,0,1-29.214-9.644c-.1-.043-.191-.09-.288-.133a133.753,133.753,0,0,1-15.1-8.224c-.123-.076-.242-.151-.361-.227-.205-.13-.407-.256-.609-.389-.065-.04-.13-.079-.195-.123a135.574,135.574,0,0,1-12.5-9.1c-.195-.155-.389-.317-.584-.476q-1.174-.973-2.325-1.969c-.007,0-.011-.011-.018-.014a137.245,137.245,0,0,1-11.166-10.845c-.011-.014-.025-.025-.036-.04a135.646,135.646,0,0,1-31.846-59.344c-.043-.159-.079-.314-.119-.472a135.935,135.935,0,1,1,268.034-32.08Z" transform="translate(-223 -74.82)"/><path class="b" d="M633.624,442.687l11.887-13.916L657.4,414.855l6.71-7.856c.371-.435-.2-1.113-.573-.678l-11.887,13.916-11.887,13.916-6.71,7.856c-.371.435.2,1.113.573.678Z" transform="translate(-485.137 -286.714)"/><rect width="12.294" height="149.095" transform="translate(139.458 121.287)"/><path class="c" d="M407.622,488.224l-.025,4.463-.3,54.174-.036,6.457-.079,14.551-.079,14.713h-.793l.079-14.713.076-13.592.04-7.549.3-54.029.025-4.478Z" transform="translate(-259.822 -312.201)"/><path d="M620.393,397.033H603.735a12.981,12.981,0,0,1,1.909-7.887l.471-3.218h11.5l.543,3.178A12.857,12.857,0,0,1,620.393,397.033Z" transform="translate(-466.435 -273.763)"/><path d="M620.859,369.44H608.989a.793.793,0,0,1-.771-.978l2-8.329a.793.793,0,0,1,.771-.608h7.871a.793.793,0,0,1,.771.608l2,8.329a.793.793,0,0,1-.771.978Z" transform="translate(-469.32 -256.879)"/><path d="M619.474,347.97a4.169,4.169,0,0,0-4.164,4.168V356.3h8.328v-4.164A4.169,4.169,0,0,0,619.474,347.97Z" transform="translate(-473.869 -249.491)"/><path class="d" d="M340.99,622.109l-28.225,36.632,3.9.9,21.919-28.225h2.4Z" transform="translate(-200.003 -397.818)"/><path class="d" d="M419.831,622.109l28.225,36.632-3.9.9-21.919-28.225h-2.4Z" transform="translate(-268.468 -397.818)"/><path d="M819.656,320.07V461.543a136.544,136.544,0,0,1-29.726,23.463V320.07Z" transform="translate(-585.533 -231.649)"/><rect width="19.517" height="19.517" transform="translate(228.717 106.438)"/><rect width="4.504" height="51.045" transform="translate(217.007 41.281)"/><g class="e" transform="translate(204.397 41.281)"><path class="f" d="M792.454,320.07H789.93V485.007q1.272-.743,2.524-1.516Z" transform="translate(-789.93 -272.93)"/><rect class="f" width="2.524" height="47.14" transform="translate(12.61)"/></g><rect class="c" width="16.214" height="9.008" transform="translate(210.251 111.692)"/><g transform="translate(21.369 41.124)"><circle class="f" cx="20.228" cy="20.228" r="20.228"/><circle class="g" cx="2.321" cy="2.321" r="2.321" transform="translate(15.917 3.979)"/><circle class="g" cx="2.321" cy="2.321" r="2.321" transform="translate(19.896 27.191)"/><circle class="g" cx="1.658" cy="1.658" r="1.658" transform="translate(29.513 14.922)"/><circle class="g" cx="5.306" cy="5.306" r="5.306" transform="translate(6.964 16.58)"/></g><circle class="c" cx="1.289" cy="1.289" r="1.289" transform="translate(89.57 124.613)"/><path class="f" d="M279.968,401.085l-.644.639-.639-.644-.429.426.639.644-.644.639.426.429.644-.639.639.644.429-.426-.639-.644.644-.639Z" transform="translate(-177.933 -256.478)"/><path class="f" d="M294.274,297.367l-.644.639-.639-.644-.429.426.639.644-.644.639.426.429.644-.639.639.644.429-.426-.639-.644.644-.639Z" transform="translate(-187.081 -190.154)"/><path class="f" d="M561.757,171.137a1.29,1.29,0,0,1-1.4-2.167A1.29,1.29,0,0,1,561.757,171.137Z" transform="translate(-438.354 -134.883)"/><path class="f" d="M114.137,364.582l-.886-.194.194-.886-.591-.129-.194.886-.886-.194-.129.591.886.194-.194.886.591.129.194-.886.886.194Z" transform="translate(-71.393 -232.365)"/><path class="f" d="M490.137,69.582l-.886-.194.194-.886-.591-.129-.194.886-.886-.194-.129.591.886.194-.194.886.591.129.194-.886.886.194Z" transform="translate(-311.833 -43.722)"/><path class="f" d="M682.137,228.582l-.886-.194.194-.886-.591-.129-.194.886-.886-.194-.129.591.886.194-.194.886.591.129.194-.886.886.194Z" transform="translate(-434.611 -145.397)"/><path class="f" d="M218.039,108.361l-.886-.194.194-.886-.591-.129-.194.886-.886-.194-.129.591.886.194-.194.886.591.129.194-.886.886.194Z" transform="translate(-137.835 -68.52)"/><circle class="c" cx="1.289" cy="1.289" r="1.289" transform="translate(162.875 66.689)"/><path class="f" d="M424.137,240.582l-.886-.194.194-.886-.591-.129-.194.886-.886-.194-.129.591.886.194-.194.886.591.129.194-.886.886.194Z" transform="translate(-269.628 -153.071)"/><path class="f" d="M519.039,196.361l-.886-.194.194-.886-.591-.129-.194.886-.886-.194-.13.591.886.194-.194.886.591.129.194-.886.886.194Z" transform="translate(-330.315 -124.793)"/><path class="b" d="M579.624,228.687l11.887-13.916L603.4,200.855l6.71-7.856c.371-.435-.2-1.113-.573-.678l-11.887,13.916-11.887,13.916-6.71,7.856C578.68,228.443,579.253,229.121,579.624,228.687Z" transform="translate(-450.606 -149.868)"/><rect class="f" width="2.163" height="36.783" transform="translate(138.983 233.254)"/><path class="f" d="M565.815,347.158a4.172,4.172,0,0,0-3.083,4.02v.036a.8.8,0,0,0-.544.57l-2,8.332a.788.788,0,0,0,.725.97l-.014.1-.054.361-.815,2.524a12.091,12.091,0,0,0-1.438,7.733h2.156V472.933l-28.136,36.522,2.069.476-.328.425-3.9-.9,28.136-36.522V371.8l-1.8-.162a11.967,11.967,0,0,1,1.8-7.571l.094-2.524.054-.361.015-.1a.788.788,0,0,1-.725-.97l2-8.332a.8.8,0,0,1,.544-.57v-.036a4.169,4.169,0,0,1,4.164-4.168,4.12,4.12,0,0,1,1.082.148Z" transform="translate(-419.604 -248.877)"/><path class="f" d="M427.607,646.969h-2.013v.194l21.769,28.031,1.834-.423Z" transform="translate(-272.153 -413.716)"/><path d="M600.478,783.96v6.8a135.019,135.019,0,0,1-29.733,7.917H526.4c-1.136-.205-2.268-.425-3.389-.66V783.96Z" transform="translate(-414.847 -528.292)"/><path d="M377.229,573.049l-.793-.133c-1.612-.26-3.555-.555-5.783-.862l-.465-.065c-1.839-.249-3.861-.5-6.043-.75a236.674,236.674,0,0,0-45.708-.941c.422-1.695.811-3.389,1.179-5.076l-16.325,2.527,17.616-8.959a249.736,249.736,0,0,0,3.418-27.826l-8.819,1.363,9.017-4.586c.645-11.548.343-19.234.343-19.234s-29.5,15.333-53.081,38.768c-.865-3.05-1.813-6.06-2.823-9.017l-12.669,10.6,10.445-16.772A248.486,248.486,0,0,0,255.278,506.5l-6.843,5.725,5.35-8.588c-5.415-10.221-9.648-16.646-9.648-16.646s-4.828,7.91-10.578,20.121a136.17,136.17,0,0,0,43.185,70.715q1.152.995,2.325,1.968a136.094,136.094,0,0,0,13.084,9.576c.267.173.534.342.8.512a135.242,135.242,0,0,0,44.958,18.229c1.121.234,2.253.454,3.389.66.278.051.555.1.833.148h4.6s2.041-.1,2.1-.148c5.714-5,10.9-10.055,15.362-14.713,1.017-1.056,1.994-2.095,2.935-3.1l-7.708-4.5,9.893,2.12c.454-.5.9-1,1.334-1.478,2.221-2.48,4.146-4.726,5.743-6.634.274-.332.541-.649.8-.959,2.909-3.511,4.51-5.653,4.51-5.653S380.095,573.525,377.229,573.049Z" transform="translate(-229.753 -338.389)"/><path class="c" d="M604.574,396.938h-2.156a12.985,12.985,0,0,1,1.907-7.885l.346-2.372.054-.361h2.163l-.054.361-.346,2.372a12.986,12.986,0,0,0-1.907,7.885h2.156" transform="translate(-465.593 -274.014)"/><rect class="c" width="2.163" height="26.319" transform="translate(138.982 154.128)"/><circle class="c" cx="3.966" cy="3.966" r="3.966" transform="translate(214.697 37.315)"/></svg>