<svg xmlns="http://www.w3.org/2000/svg" width="58.444" height="46.908" viewBox="0 0 58.444 46.908"><defs><style>.a{fill:#eeae1d;}</style></defs><path class="a" d="M122.208,192.418a1.02,1.02,0,0,1-.625-.21l-6.244-4.836a.828.828,0,0,1,0-1.337l6.244-4.836a1.032,1.032,0,0,1,1.36.1.824.824,0,0,1-.109,1.237l-5.381,4.168,5.381,4.168a.824.824,0,0,1,.109,1.237A1.006,1.006,0,0,1,122.208,192.418Zm0,0" transform="translate(-99.148 -158.294)"/><path class="a" d="M250.673,192.418a1,1,0,0,1-.735-.309.824.824,0,0,1,.109-1.237l5.381-4.168-5.381-4.168a.824.824,0,0,1-.109-1.237,1.032,1.032,0,0,1,1.36-.1l6.244,4.836a.828.828,0,0,1,0,1.337l-6.244,4.836A1.02,1.02,0,0,1,250.673,192.418Zm0,0" transform="translate(-215.288 -158.294)"/><path class="a" d="M189.92,171.587a1.075,1.075,0,0,1-.2-.019.883.883,0,0,1-.745-1.04l3.891-16.807a.968.968,0,0,1,1.143-.678.882.882,0,0,1,.745,1.04l-3.891,16.807A.948.948,0,0,1,189.92,171.587Zm0,0" transform="translate(-162.908 -133.836)"/><path class="a" d="M51.966,46.908H6.479C2.906,46.908,0,44.264,0,41.015V5.894C0,2.644,2.906,0,6.479,0H51.966c3.572,0,6.479,2.644,6.479,5.894V41.015C58.444,44.264,55.538,46.908,51.966,46.908ZM6.479,1.756A4.363,4.363,0,0,0,1.93,5.894V41.015a4.363,4.363,0,0,0,4.549,4.138H51.966a4.363,4.363,0,0,0,4.549-4.138V5.894a4.363,4.363,0,0,0-4.549-4.138Zm0,0"/><path class="a" d="M57.48,99.845H.965a.882.882,0,1,1,0-1.756H57.48a.882.882,0,1,1,0,1.756Zm0,0" transform="translate(0 -85.79)"/><path class="a" d="M100.5,39.845a2.79,2.79,0,1,1,3.053-2.778A2.929,2.929,0,0,1,100.5,39.845Zm0-3.8a1.027,1.027,0,1,0,1.124,1.022A1.078,1.078,0,0,0,100.5,36.045Zm0,0" transform="translate(-84.017 -29.989)"/><path class="a" d="M32.44,39.63a2.79,2.79,0,1,1,3.053-2.778A2.929,2.929,0,0,1,32.44,39.63Zm0-3.8a1.027,1.027,0,1,0,1.124,1.022A1.078,1.078,0,0,0,32.44,35.83Zm0,0" transform="translate(-25.336 -29.802)"/><path class="a" d="M168.569,40.059a2.79,2.79,0,1,1,3.053-2.778A2.929,2.929,0,0,1,168.569,40.059Zm0-3.8a1.027,1.027,0,1,0,1.124,1.022A1.078,1.078,0,0,0,168.569,36.259Zm0,0" transform="translate(-142.701 -30.177)"/></svg>