<svg xmlns="http://www.w3.org/2000/svg" width="601.396" height="703.413" viewBox="0 0 601.396 703.413"><defs><style>.a{fill:#80868b;}.b{fill:#ee991a;}.c{fill:#dadce0;}.d,.f{fill:gray;}.d,.e{opacity:0.4;}.g{fill:#666;}.h{fill:#cbcbcb;}.i{fill:#fff;}.j{fill:#a5b4c2;}.k{fill:#eac9b8;}.l{fill:#c4ccd7;}.m{fill:#ed7015;}.n{fill:#fad1b1;}.o{fill:#647889;}.p{fill:#f8fbfc;}.q{fill:#d4d2d1;}.r{fill:#fdf5ea;}.s{fill:#eeae1d;}.t{fill:#ed8417;}.u{fill:#0865ab;}.v{fill:#252525;}.w{fill:#9aa0a6;}.x{fill:#e28166;}.y{fill:#93603d;}.z{fill:#a4704c;}.aa{opacity:0.5;}.ab{fill:#f16a44;}.ac{fill:#f9e1df;}</style></defs><g transform="translate(-790.013 -77.873)"><path class="a" d="M1098.976,607.263a11.646,11.646,0,0,1-.749-23.267c.334-.025,14.221-1.1,32.568-8.6a140.493,140.493,0,0,0,60.96-47.957,11.646,11.646,0,1,1,18.8,13.754c-44.824,61.262-108.166,65.878-110.841,66.045C1099.464,607.257,1099.219,607.263,1098.976,607.263Z" transform="translate(149.27 174.023)"/><path class="a" d="M766.951,434.625a11.646,11.646,0,0,1,23.267-.747c.025.332,1.1,14.22,8.6,32.568A140.508,140.508,0,0,0,846.773,527.4a11.646,11.646,0,0,1-13.754,18.8c-61.262-44.824-65.879-108.167-66.046-110.843C766.958,435.113,766.951,434.868,766.951,434.625Z" transform="translate(29.431 136.738)"/><path class="a" d="M1056.463,105.181a11.646,11.646,0,0,1-15.016,17.788c-.264-.2-11.3-8.7-29.953-15.406A140.5,140.5,0,0,0,934.1,102.4a11.646,11.646,0,0,1-4.764-22.8c74.306-15.523,124.462,23.438,126.562,25.105C1056.094,104.859,1056.283,105.019,1056.463,105.181Z" transform="translate(86.705 6.933)"/><path class="b" d="M810.226,433.96l67.083-35.186,25.265,66.476L836.1,488.7Z" transform="translate(45.617 127.68)"/><path class="b" d="M825.941,433.435s21.107-4.35,30.083,0,16.649,31.038,16.649,31.038l44.247,3.155-40.031-75.211L835.4,412.069Z" transform="translate(51.495 125.302)"/><path class="c" d="M847.553,300.741a67.248,67.248,0,0,0-34.534,88.612L926.893,648.666a67.249,67.249,0,0,0,88.614,34.534l331.369-145.516V81.47Z" transform="translate(44.533 8.995)"/><circle class="d" cx="22.628" cy="22.628" r="22.628" transform="translate(1311.607 531.336) rotate(-76.769)"/><circle class="d" cx="22.628" cy="22.628" r="22.628" transform="matrix(0.229, -0.973, 0.973, 0.229, 1222.351, 233.229)"/><circle class="d" cx="22.628" cy="22.628" r="22.628" transform="translate(901.302 403.164) rotate(-76.666)"/><g class="e" transform="translate(889.991 464.791)"><path class="f" d="M1011.121,401.6l-21.592,22.078-90.582,78.606-14.161-3.269,13.134,29.91a67.835,67.835,0,0,0,4.158,7.949c10.742-2.9,24.143-7.192,29.951-11.785,10.432-8.248,57.984-74.966,57.984-74.966s14.072-8.735,15.954-13.455,5.4-25.363,6.851-28.76S1011.121,401.6,1011.121,401.6Z" transform="translate(-816.485 -336.054)"/><path class="f" d="M947.711,407.316c4.853-.481,8.47-7.284,8.47-7.284l7.543-3.4.97-7.52-12.616-5.329L881.3,363.478,837.322,353.9l-2.244,7.425L847.933,390.6l73.818,14.57S942.859,407.8,947.711,407.316Z" transform="translate(-835.078 -353.897)"/></g><path class="d" d="M1113.052,359.142l4.93,45.773,26.066,42.194,39.754,40.4-164.458,71.913-9.7-79.255-9.382-42.217-26.11-44.718,136.515-59.407a7.433,7.433,0,0,1,1.035,2.958C1111.754,338.151,1113.052,359.142,1113.052,359.142Z" transform="translate(106.931 103.385)"/><g transform="translate(1081.08 436.153)"><rect class="c" width="136.589" height="93.268" rx="3.375" transform="translate(15.817 81.347) rotate(-23.364)"/><rect class="g" width="108.355" height="57.994" rx="2.736" transform="translate(30.172 78.982) rotate(-23.364)"/><rect class="h" width="24.873" height="21.922" rx="2.838" transform="matrix(0.918, -0.397, 0.397, 0.918, 93.078, 119.344)"/><path class="i" d="M1106.839,333.339l-65.31,28.213-65.311,28.213a3.427,3.427,0,0,0-1.141,5.492l15.877,16.916a2.5,2.5,0,0,0,2.817.584l58.887-25.439,58.889-25.439a2.5,2.5,0,0,0,1.5-2.451l-1.433-23.154A3.427,3.427,0,0,0,1106.839,333.339Z" transform="translate(-974.148 -333.055)"/><path class="f" d="M1112.779,358.751l-1.426-23.044a3.431,3.431,0,0,0-3.7-.53l-65.311,28.215L977.032,391.6a3.434,3.434,0,0,0-2.152,3.057l15.8,16.836a2.5,2.5,0,0,0,2.817.584l58.887-25.439,58.889-25.439A2.5,2.5,0,0,0,1112.779,358.751Z" transform="translate(-973.875 -332.378)"/><path class="j" d="M1104.993,358.659l-.44-19.008a3.182,3.182,0,0,0-3.3-.3l-59.512,25.71-59.512,25.708a3.182,3.182,0,0,0-2.038,2.607l13.54,13.349a2.282,2.282,0,0,0,2.5.382l53.659-23.181,53.661-23.18A2.284,2.284,0,0,0,1104.993,358.659Z" transform="translate(-971.886 -330.819)"/></g><path class="k" d="M1040.1,477.441l-5.3-25.451s4.992-16.16,4.613-19.239-5.842-22.379-5.842-22.379-3.678-.393-4.464,1.57,0,11.409,0,11.409a25.735,25.735,0,0,1-3.533-4.735c-.595-1.337-1.864-14.6-2.445-20.965a3.717,3.717,0,0,0-3.7-3.377h0a3.719,3.719,0,0,0-3.689,3.247l-.959,7.472-6.281,1.256-2.946,6.872-6.608,14.135,4.159,15.953,9.32,12.317,1.964,21.917Z" transform="translate(116.204 125.997)"/><path class="k" d="M1108.937,445.446l-17.522-19.2s-16.021-5.419-18.3-7.53-14.716-17.846-14.716-17.846,1.837-3.211,3.887-2.7,9.247,6.683,9.247,6.683a25.789,25.789,0,0,0-1.767-5.638c-.737-1.266-10.741-10.062-15.561-14.263a3.716,3.716,0,0,1-.566-4.981h0a3.719,3.719,0,0,1,4.793-1.088l6.616,3.6,4.7-4.356,7.293,1.638,15.326,2.925,10.5,12.715,4.522,14.768L1124,424.6Z" transform="translate(136.402 119.958)"/><rect class="i" width="114.19" height="81.841" transform="translate(949.221 504.534) rotate(-19.604)"/><rect class="l" width="111.279" height="75.776" transform="translate(949.221 504.534) rotate(-19.604)"/><rect class="m" width="114.19" height="81.841" transform="translate(943.579 498.817) rotate(-19.604)"/><path class="n" d="M889.9,360.87l13.446,5.66s15.369-3.233,20.446-1.293S944.052,376.85,945.653,378s4.071,6.481,4.071,7.614-3.255,5.983-6.773,6.305-19.711.808-19.711.808a60.632,60.632,0,0,1,4.8,4.529c.685.97.823,3.718.273,4.2s-13.036-4.85-16.6-5.983-8.919-5.82-9.879-6.79-4.254-4.69-4.254-4.69l-14.819-6Z" transform="translate(72.749 113.503)"/><path class="n" d="M953.522,456.606l9.36-11.191s15.142-4.166,18.765-8.217,2.471-10.459,3.369-12.211-.424-13.074.35-13.9c2.795-2.975,6.73-5.878,9.04-8.422,4.076-4.488,1.16-6.513-.9-5.68-3.276,1.323-24.942,16.031-24.942,16.031a60.6,60.6,0,0,0,2.194-6.224c.166-1.176-.971-3.684-1.682-3.862s-9.364,10.283-12.017,12.924-5.261,9.26-5.669,10.562-1.634,6.117-1.634,6.117l-10.425,12.119Z" transform="translate(93.909 126.943)"/><g transform="translate(1032.168 304.653)"><rect class="o" width="109.162" height="73.212" rx="7.06" transform="translate(0 34.48) rotate(-18.413)"/><path class="p" d="M1056.806,312.21l-85.166,28.352a12.2,12.2,0,0,1-15.406-7.71l-17-51.057a12.194,12.194,0,0,1,7.71-15.4l85.166-28.353a12.2,12.2,0,0,1,15.406,7.71l17,51.057A12.2,12.2,0,0,1,1056.806,312.21Zm-104.5-42.374a7.228,7.228,0,0,0-4.57,9.13l17,51.055a7.226,7.226,0,0,0,9.129,4.57l81.374-27.091a7.227,7.227,0,0,0,4.57-9.129l-17-51.057a7.228,7.228,0,0,0-9.131-4.57Z" transform="translate(-938.528 -237.328)"/><path class="q" d="M952.461,286.991a3.024,3.024,0,1,1-3.824-1.914A3.023,3.023,0,0,1,952.461,286.991Z" transform="translate(-935.553 -219.558)"/></g><path class="d" d="M893.849,236.5l80.327,115.4,36.225-9.143-10.213-24.264-20.919-5.9-24.59-44.261,126.08-45.991,1.941-20.007-16.6-41.478Z" transform="translate(76.896 38.691)"/><path class="r" d="M980.744,285.974l-16.642-7.64a1.959,1.959,0,0,0-2.384.6l-.168.221a1.962,1.962,0,0,0,.775,2.976l16.809,7.417a1.961,1.961,0,0,0,1.61-3.577Z" transform="translate(102.071 82.564)"/><path class="k" d="M961.162,205.607a42.807,42.807,0,0,1-9.482,2.645c-4.589.591-10.411-1.94-14.293-1.322s-13.587,7.412-13.587,7.412l-3.721,9.058-2.264,14.879,16.66,6.793s4.284,1.92,11.24-1.8,19.5-14.535,19.5-14.535l8.4-4.367Z" transform="translate(85.86 55.428)"/><path class="k" d="M966.171,269.421l11.351,3.953s5.955,6.37,7.053,8.127,0,7.03,0,7.03,3.954,3.953,3.735,7.688-6.158,8.787-13.624,9.005-15.373,1.1-17.13,0-10.1-17.9-10.1-17.9L935.59,270.958l23.065-11.2Z" transform="translate(92.509 75.681)"/><path class="s" d="M783.046,479.549s-3.7-38.861,5.124-50.989,56.517-95.964,60.551-99.308,88.568,43.256,88.568,43.256-9.491,22.248-10.479,22.683-63.666-22.354-63.666-22.354L852.22,407.859l16.223-6.249,14.55,33.131s-17.247,10.849-46.546,25.288S783.046,479.549,783.046,479.549Z" transform="translate(35.163 101.612)"/><path class="s" d="M806.568,507.263c-.392,1.007,42.062,32.235,58.459,26.607s80.195-21.46,88.881-27.633,56.538-62.981,56.538-62.981l-15.192-18.484-50.431,45.651L910.027,481.2l-16.443-37.445S823.016,465.057,806.568,507.263Z" transform="translate(44.248 137.405)"/><path class="t" d="M1004.845,464.291l37.636-5,14.194,51.417,96.219-42.254-33.374-33.035,22.877-27.866,73.952,60.718s21.672,63.949,21.105,71.01-26.24,60.786-65.176,78.933-91.7-5.327-98.7-6.966-48.6-54.442-49.375-56.2S1004.845,464.291,1004.845,464.291Z" transform="translate(118.413 130.965)"/><g transform="translate(956.843 108.391)"><path class="u" d="M1088.732,222.313c-4.779-25.513-6.966-82.732-11.736-90.857-6.238-10.624-20.642-25.524-43.4-34.4,0,0-97.237-8.4-119.516,5.316S883.684,236.519,883.732,242s74.9,100.75,74.9,100.75l23.753-18.62L934.343,245.2l106.764-46.885,1.914,13.31L968.48,246.018l14.782,26.438,95.457-33.059A15.1,15.1,0,0,0,1088.732,222.313Z" transform="translate(-883.732 -94.516)"/><path class="u" d="M969.889,293.229l-9,1.914-76.728-92.161,74.31,99.2Z" transform="translate(-883.571 -53.945)"/><path class="u" d="M1063.184,191.047c-.187.262-4.684,6.477-11.571,9.089-7.036,2.668-89.538,27.9-89.538,27.9l-9.767-1.171,5.3,9.484,95.457-33.059A15.091,15.091,0,0,0,1063.184,191.047Z" transform="translate(-858.081 -58.409)"/><path class="u" d="M920.566,235.5l15.305-113.036s43.994-4.529,56.286,0,30.663,12.74,30.663,12.74l4.51,53.412Z" transform="translate(-869.954 -84.816)"/><path class="u" d="M910.988,106.14s23.253,28.478,23.757,56.454,9.562,16.33,9.562,16.33l-4.853-51.11S927.486,111.316,910.988,106.14Z" transform="translate(-873.537 -90.168)"/><path class="u" d="M999.921,151.906s-5.134-30.031,9.423-44.589c0,0-18.438,8.088-23.937,29.115S999.921,151.906,999.921,151.906Z" transform="translate(-846.058 -89.727)"/></g><g transform="translate(1018.288 77.873)"><path class="k" d="M999.409,128.8c.765-.28-.592,20.487-.592,20.487l-6.808,10.606S976.165,171.21,973.2,172.59s-20.249,1.638-20.249,1.638-5.172,2.476-7.615,1.345-5.021-9.741-5.021-9.741-9.58-5.172-9.245-24.987S956.6,112.364,956.6,112.364Z" transform="translate(-927.474 -57.322)"/><path class="k" d="M938.735,97.708s-5.878-2.4-9.227,2.082,2.319,12.832,2.319,12.832Z" transform="translate(-928.45 -63.045)"/><path class="k" d="M995.86,125.032s4.36,1.224,4.405,4.9-8.419,12.644-14.3,11.978S995.86,125.032,995.86,125.032Z" transform="translate(-907.426 -52.584)"/><path class="v" d="M929.156,149.611s-3.309-35.853,8.4-52.888,24.516-20,24.516-20a33.092,33.092,0,0,1,27.446-2.542c15.3,5.392,28.624,19.614,33.545,34.6s-2.17,36.7-10.455,47.273-19.722,18.819-19.722,18.819,4.732-13.9-.8-14.764c0,0-22.2,16.833-37.023,15.9S937.4,172.07,937.4,172.07s18.1-4.325,25.657-10.572c0,0-21.141,6.308-30.78,6.081l7.127-8.986-4.916,2.383A17.718,17.718,0,0,1,929.156,149.611Z" transform="translate(-928.347 -72.306)"/></g><path class="v" d="M873.237,472.293s1.976,8-1.582,13.622-10.352,6.756-14.881,13.064-13.393,18.706-25.864,18.977-21.85-12.831-29.128-15.58-25.879,2.427-31.7-9.22,7.925-31.215-1.132-41.243-7.737-22.059-2.587-27.82c8.372-9.366,19.408-10.271,32.186-2.993s20.057,1.861,25.88-.08,15.689-2.662,19.408-1.007,6.241,8.187,6.241,8.187Z" transform="translate(27.697 134.224)"/><path class="w" d="M852.111,381.866l-16.223,6.249-9.947,25.232s15.769-2.183,19.408,0c1.7,1.018,4.816,5.333,7.664,9.647,8.841-4.974,13.647-8,13.647-8Z" transform="translate(51.495 121.356)"/><path class="w" d="M875.252,438.588s-4.343,1.311-11.123,3.926c2.94,6.773,7.263,18.22,6.285,25.069-1.457,10.19-14.838,17.953-14.838,17.953l36.12-9.5Z" transform="translate(62.58 142.572)"/><path class="n" d="M1076.744,526.038s-6.442-17.494.129-27.776c7.658-11.98,28.608-19.815,41.9-14.7,19.473,7.5,18.11,13.8,18.11,13.8Z" transform="translate(144.25 158.799)"/><path class="v" d="M1147.336,497.707s-14.072-15.187-35-11.844-25.581,7.744-25.581,7.744l5.44-.15-9.719,7.429s-11.507,18.818-11.2,32.188A41.133,41.133,0,0,0,1077.914,555s2.468,13.091,8.652,18.7,21.081,11.571,32.324,10.411,21.034-7.116,21.034-7.116a26.009,26.009,0,0,0,16.674-9.162,27.49,27.49,0,0,0,6.606-17.709s6.8-8.416,7.167-13.389-3.438-17.533-3.438-17.533S1162.149,498.459,1147.336,497.707Z" transform="translate(143.259 160.075)"/><path class="m" d="M1042.566,494.132l5.856,24.039,16.013,19.124s4.367-26.8,25.232-44.068,57.256-12.9,62.595-12.66,25.716,24.076,25.716,24.076l-11.16-29.726-28.033-23.039Z" transform="translate(132.522 147.543)"/><path class="x" d="M1211.74,514.9s-39.412,50.7-75.777,60.731c-31.87,8.8-70.571-1.3-79.66-3.937,11.951,3.968,60.364,23.319,96.727,6.371C1180.746,565.148,1201.737,534.208,1211.74,514.9Z" transform="translate(137.66 171.116)"/><path class="r" d="M974.74,283.086l-18.507-8.5a2.183,2.183,0,0,0-2.652.669l-.186.246a2.183,2.183,0,0,0,.86,3.31l18.692,8.248a2.181,2.181,0,0,0,1.792-3.978Z" transform="translate(99.004 81.156)"/><rect class="i" width="114.19" height="81.841" transform="translate(1201.971 340.774)"/><rect class="l" width="111.279" height="75.776" transform="translate(1201.971 340.774)"/><rect class="u" width="114.19" height="81.842" transform="translate(1198.574 333.496)"/><rect class="i" width="114.19" height="81.841" transform="translate(1210.926 266.671) rotate(-8.769)"/><rect class="l" width="111.279" height="75.776" transform="translate(1210.926 266.671) rotate(-8.769)"/><rect class="s" width="114.19" height="81.842" transform="translate(1206.459 259.995) rotate(-8.769)"/><g transform="translate(900.052 349.073)"><path class="m" d="M844.2,307.021a3.419,3.419,0,0,0,4.71,1.1l11.826-7.344-3.61-5.811L845.3,302.311A3.421,3.421,0,0,0,844.2,307.021Z" transform="translate(-841.919 -260.221)"/><circle class="m" cx="21.047" cy="21.047" r="21.047" transform="translate(0 29.765) rotate(-45)"/><path class="p" d="M849.938,293.372a19.243,19.243,0,0,1,1.7-5.734,19.464,19.464,0,0,1,3.426-4.974,19.907,19.907,0,0,1,10.575-5.726c.5-.08,1.011-.137,1.516-.206.5-.084,1.018-.06,1.527-.095.254-.007.508-.028.762-.023l.764.029c.51.005,1.017.073,1.522.128a19.407,19.407,0,0,1,10.827,5.1,19.4,19.4,0,0,1,3.643,4.745,20.811,20.811,0,0,0-8.982-7.37,19.844,19.844,0,0,0-21.556,4.014A21.039,21.039,0,0,0,849.938,293.372Z" transform="translate(-839.581 -267.086)"/><circle class="y" cx="17.008" cy="17.008" r="17.008" transform="translate(12.757 12.757)"/><path class="z" d="M852.194,298.861a17.006,17.006,0,0,0,33.157-2.534,17.006,17.006,0,0,0-33.157,2.534Z" transform="translate(-838.737 -264.267)"/><g class="aa" transform="translate(15.732 18.337)"><path class="p" d="M876.587,285.911a.27.27,0,1,0-.456.29,13.494,13.494,0,0,1-11.4,20.71,13.738,13.738,0,0,1-2.142-.169.271.271,0,1,0-.085.535,14.043,14.043,0,0,0,16.259-13.857A13.986,13.986,0,0,0,876.587,285.911Z" transform="translate(-850.698 -281.992)"/><path class="p" d="M859.984,283.514a.271.271,0,0,0-.317-.438,14.033,14.033,0,0,0-2.21,20.769.271.271,0,0,0,.4-.363,13.493,13.493,0,0,1,2.126-19.968Z" transform="translate(-853.85 -283.024)"/><path class="p" d="M866.582,285.148a8.812,8.812,0,0,1,1.294.1.271.271,0,1,0,.08-.536A9.261,9.261,0,0,0,857.425,295.2a.27.27,0,0,0,.267.232l.04,0a.271.271,0,0,0,.228-.306,8.993,8.993,0,0,1-.091-1.263A8.723,8.723,0,0,1,866.582,285.148Z" transform="translate(-852.549 -282.432)"/><path class="p" d="M872.705,296.071a.27.27,0,1,0-.4-.368,8.711,8.711,0,0,1-12.791-.051.271.271,0,1,0-.4.367,9.254,9.254,0,0,0,13.585.052Z" transform="translate(-851.905 -278.334)"/><path class="p" d="M866.973,285.826a8.68,8.68,0,0,1,4.768,7.769c0,.225-.008.447-.025.668a.27.27,0,0,0,.249.29h.021a.27.27,0,0,0,.269-.25c.018-.234.028-.468.028-.708a9.217,9.217,0,0,0-5.063-8.251.271.271,0,0,0-.246.482Z" transform="translate(-848.996 -282.168)"/><path class="p" d="M864.137,297.625a7.133,7.133,0,0,0,6.152-3.476.271.271,0,0,0-.464-.279,6.593,6.593,0,0,1-5.687,3.214.271.271,0,0,0,0,.541Z" transform="translate(-850.104 -279.017)"/><path class="p" d="M870.456,288.6a.271.271,0,0,0,.382-.383,7.134,7.134,0,0,0-5.076-2.1,7.209,7.209,0,0,0-6.2,3.564.27.27,0,0,0,.1.37.278.278,0,0,0,.136.037.272.272,0,0,0,.235-.135,6.667,6.667,0,0,1,5.737-3.295A6.6,6.6,0,0,1,870.456,288.6Z" transform="translate(-851.729 -281.868)"/></g></g><g transform="translate(1222.62 185.245)"><path class="ab" d="M1116.663,151.972a3.419,3.419,0,0,0-4.838,0l-9.844,9.844,4.837,4.837,9.845-9.844A3.42,3.42,0,0,0,1116.663,151.972Z" transform="translate(-1067.874 -150.255)"/><circle class="ab" cx="21.047" cy="21.047" r="21.047" transform="translate(0 40.959) rotate(-76.669)"/><path class="p" d="M1081.471,170.916a19.172,19.172,0,0,1,1.7-5.732,19.394,19.394,0,0,1,3.425-4.975,19.908,19.908,0,0,1,10.573-5.726c.5-.08,1.011-.137,1.517-.206s1.017-.06,1.525-.095c.254-.007.508-.027.764-.023l.764.029c.51.006,1.015.073,1.521.128a19.4,19.4,0,0,1,10.828,5.1,19.4,19.4,0,0,1,3.642,4.745,20.816,20.816,0,0,0-8.981-7.37,19.846,19.846,0,0,0-21.557,4.014A21.024,21.024,0,0,0,1081.471,170.916Z" transform="translate(-1075.546 -149.062)"/><circle class="y" cx="17.008" cy="17.008" r="17.008" transform="translate(8.324 8.324)"/><path class="z" d="M1083.726,176.405a17.007,17.007,0,0,0,33.158-2.534,17.007,17.007,0,0,0-33.158,2.534Z" transform="translate(-1074.702 -146.244)"/><g class="aa" transform="translate(11.301 13.904)"><path class="p" d="M1108.12,163.455a.271.271,0,0,0-.458.29,13.492,13.492,0,0,1-11.4,20.71,13.593,13.593,0,0,1-2.142-.169.271.271,0,0,0-.085.535,14.043,14.043,0,0,0,16.259-13.856A13.985,13.985,0,0,0,1108.12,163.455Z" transform="translate(-1082.231 -159.536)"/><path class="p" d="M1091.515,161.058a.271.271,0,1,0-.317-.438,14.036,14.036,0,0,0-2.21,20.769.273.273,0,0,0,.2.089.266.266,0,0,0,.18-.07.272.272,0,0,0,.021-.382,13.494,13.494,0,0,1,2.124-19.968Z" transform="translate(-1085.383 -160.568)"/><path class="p" d="M1098.114,162.692a8.819,8.819,0,0,1,1.294.1.271.271,0,1,0,.08-.536,9.259,9.259,0,0,0-10.627,9.152,9.45,9.45,0,0,0,.1,1.338.273.273,0,0,0,.268.232l.039,0a.271.271,0,0,0,.229-.306,8.718,8.718,0,0,1,8.621-9.974Z" transform="translate(-1084.082 -159.977)"/><path class="p" d="M1104.238,173.615a.27.27,0,1,0-.4-.368,8.711,8.711,0,0,1-12.791-.051.271.271,0,1,0-.4.367,9.254,9.254,0,0,0,13.585.052Z" transform="translate(-1083.438 -155.878)"/><path class="p" d="M1098.506,163.37a8.679,8.679,0,0,1,4.767,7.77c0,.224-.008.445-.025.666a.272.272,0,0,0,.25.29h.021a.271.271,0,0,0,.269-.25c.017-.234.026-.469.026-.706a9.217,9.217,0,0,0-5.063-8.252.27.27,0,1,0-.245.482Z" transform="translate(-1080.53 -159.712)"/><path class="p" d="M1095.669,175.169a7.131,7.131,0,0,0,6.152-3.476.27.27,0,1,0-.463-.279,6.593,6.593,0,0,1-5.689,3.214.271.271,0,0,0,0,.541Z" transform="translate(-1081.637 -156.561)"/><path class="p" d="M1101.987,166.146a.271.271,0,1,0,.384-.382,7.134,7.134,0,0,0-5.077-2.1,7.209,7.209,0,0,0-6.2,3.564.27.27,0,1,0,.467.272,6.668,6.668,0,0,1,5.736-3.295A6.594,6.594,0,0,1,1101.987,166.146Z" transform="translate(-1083.262 -159.412)"/></g></g><g transform="translate(1311.876 479.675)"><path class="ab" d="M1176.488,408.767a3.42,3.42,0,0,0,1.055-4.721l-7.462-11.752-5.775,3.666,7.463,11.754A3.419,3.419,0,0,0,1176.488,408.767Z" transform="translate(-1133.817 -354.418)"/><circle class="ab" cx="21.047" cy="21.047" r="21.047" transform="translate(0 40.959) rotate(-76.669)"/><path class="p" d="M1146.429,385.2a19.185,19.185,0,0,1,1.7-5.734,19.43,19.43,0,0,1,3.425-4.974,19.907,19.907,0,0,1,10.575-5.726c.5-.08,1.011-.137,1.516-.206.5-.084,1.018-.06,1.525-.095.255-.007.51-.027.764-.023l.764.029c.51.005,1.017.073,1.522.128a19.394,19.394,0,0,1,10.828,5.1,19.44,19.44,0,0,1,3.641,4.745,20.809,20.809,0,0,0-8.981-7.37,19.851,19.851,0,0,0-21.557,4.015A21.039,21.039,0,0,0,1146.429,385.2Z" transform="translate(-1140.504 -363.342)"/><circle class="y" cx="17.008" cy="17.008" r="17.008" transform="translate(8.324 8.324)"/><path class="z" d="M1148.685,390.684a17.006,17.006,0,0,0,33.157-2.532,17.006,17.006,0,0,0-33.157,2.532Z" transform="translate(-1139.661 -360.523)"/><g class="aa" transform="translate(11.3 13.905)"><path class="p" d="M1173.078,377.734a.271.271,0,0,0-.456.291,13.494,13.494,0,0,1-11.4,20.71,13.74,13.74,0,0,1-2.142-.169.271.271,0,1,0-.085.535,14.32,14.32,0,0,0,2.227.175,14.034,14.034,0,0,0,11.855-21.541Z" transform="translate(-1147.189 -373.816)"/><path class="p" d="M1156.475,375.338a.271.271,0,0,0-.318-.438,14.031,14.031,0,0,0-2.209,20.767.27.27,0,1,0,.4-.361,13.492,13.492,0,0,1,2.126-19.968Z" transform="translate(-1150.341 -374.848)"/><path class="p" d="M1163.073,376.972a8.816,8.816,0,0,1,1.294.1.271.271,0,1,0,.08-.536,9.259,9.259,0,0,0-10.531,10.491.269.269,0,0,0,.267.231.2.2,0,0,0,.04,0,.269.269,0,0,0,.228-.306,8.929,8.929,0,0,1-.091-1.261A8.722,8.722,0,0,1,1163.073,376.972Z" transform="translate(-1149.039 -374.257)"/><path class="p" d="M1169.2,387.895a.27.27,0,1,0-.4-.368,8.714,8.714,0,0,1-12.791-.051.27.27,0,0,0-.4.366,9.253,9.253,0,0,0,13.585.054Z" transform="translate(-1148.396 -370.158)"/><path class="p" d="M1163.464,377.65a8.678,8.678,0,0,1,4.768,7.769c0,.224-.008.447-.026.666a.272.272,0,0,0,.25.291h.021a.271.271,0,0,0,.269-.25c.018-.234.026-.47.026-.708a9.216,9.216,0,0,0-5.062-8.251.271.271,0,0,0-.246.482Z" transform="translate(-1145.487 -373.992)"/><path class="p" d="M1160.627,389.449a7.129,7.129,0,0,0,6.15-3.476.271.271,0,0,0-.463-.28,6.592,6.592,0,0,1-5.687,3.215.271.271,0,0,0,0,.541Z" transform="translate(-1146.594 -370.841)"/><path class="p" d="M1166.947,380.426a.271.271,0,0,0,.382-.383,7.137,7.137,0,0,0-5.076-2.1,7.213,7.213,0,0,0-6.205,3.564.271.271,0,0,0,.1.37.275.275,0,0,0,.136.037.272.272,0,0,0,.235-.135,6.667,6.667,0,0,1,5.737-3.295A6.593,6.593,0,0,1,1166.947,380.426Z" transform="translate(-1148.22 -373.692)"/></g></g><path class="n" d="M862.583,444.533c-.477-1.135-3.3-1.593-6.047-1.764-10.461-19.4-36.945-20.075-36.945-20.075s-2.116,8.309,9.173,22.084,11.215,41.054,11.215,41.054a49.983,49.983,0,0,0,11.949-9.789c5.017-5.522,9.962-13.64,7.858-24.344C861.454,448.942,863.094,445.748,862.583,444.533Z" transform="translate(49.061 136.627)"/><path class="ac" d="M1048.948,455.278l-2.648-9.536a5.038,5.038,0,0,0-5.492-3.649l-33.046,4.217a5.04,5.04,0,0,0-4.262,6.172l2.466,10.285a5.038,5.038,0,0,0,5.645,3.807l33.227-4.966A5.039,5.039,0,0,0,1048.948,455.278Z" transform="translate(117.858 143.868)"/><path class="ac" d="M1080.719,432.924l7.726,6.183a5.039,5.039,0,0,0,6.59-.256l24.327-22.76a5.038,5.038,0,0,0-.157-7.5l-8.019-6.9a5.038,5.038,0,0,0-6.805.216l-24.035,23.473A5.038,5.038,0,0,0,1080.719,432.924Z" transform="translate(146.086 128.318)"/></g></svg>