<svg xmlns="http://www.w3.org/2000/svg" width="455.062" height="361.806" viewBox="0 0 455.062 361.806"><defs><style>.a{fill:#eeae1d;}.b{fill:#ed8417;}.c{isolation:isolate;}.d{fill:#fbfbff;}.e{fill:#ee991a;}.f{fill:#ed7015;}.g{fill:#f1f3f4;}.h{fill:#dadce0;}.i{fill:#e8eaed;}.j{fill:#2b2b2b;}.k{fill:#ffbda1;}.l{fill:#252525;}.m{fill:#141417;opacity:0.2;}.n{fill:#0865ab;}</style></defs><g transform="translate(-527.266 -60.968)"><g transform="translate(741.688 364.75)"><g transform="translate(0)"><path class="a" d="M886.227,511.362a11.942,11.942,0,0,1,10.842,0l40.207,23.331c3,1.736,2.993,4.549-.007,6.281l-39.9,23.055a11.943,11.943,0,0,1-10.839-.018l-40.036-23.317c-2.993-1.742-2.982-4.562.01-6.3Z" transform="translate(-844.254 -510.06)"/><path class="b" d="M939.517,551.1a3.877,3.877,0,0,1-2.245,3.02l-39.9,23.055a11.049,11.049,0,0,1-5.423,1.291h-.06a11.034,11.034,0,0,1-5.357-1.309L846.5,553.842a3.819,3.819,0,0,1-2.235-3.15v2.724l.073.826a3.864,3.864,0,0,0,1.966,2.231l40.427,23.5a11.549,11.549,0,0,0,10.447.017l40.348-23.281a3.411,3.411,0,0,0,1.99-3.321l.007-2.342S939.524,550.959,939.517,551.1Z" transform="translate(-844.256 -523.207)"/><g transform="translate(36.871 21.319)"><g class="c"><path class="d" d="M920.287,544.271l-12.06,7.113,2.012,1.145L907.4,554.2l-8.642-4.916,2.835-1.672,2.156,1.226,7.906-4.663-3.16-.634,1.367-1.964c.448.091.883.174,1.318.25s.89.149,1.374.2,1.044.094,1.665.112,1.359,0,2.221-.057Z" transform="translate(-898.762 -541.577)"/></g></g></g></g><g transform="translate(867.894 185.669)"><g transform="translate(0 0)"><path class="e" d="M1072.8,246.619a11.938,11.938,0,0,1,10.842,0l40.208,23.33c3,1.737,2.992,4.55-.007,6.282l-39.9,23.054a11.937,11.937,0,0,1-10.839-.018l-40.037-23.316c-2.993-1.742-2.982-4.563.01-6.3Z" transform="translate(-1030.828 -245.318)"/><path class="b" d="M1126.092,286.358a3.879,3.879,0,0,1-2.245,3.021l-39.9,23.054a11.05,11.05,0,0,1-5.423,1.292h-.059a11.033,11.033,0,0,1-5.356-1.31L1033.07,289.1a3.82,3.82,0,0,1-2.235-3.15v2.725l.074.826a3.862,3.862,0,0,0,1.966,2.231l40.428,23.5a11.552,11.552,0,0,0,10.448.017l40.347-23.281a3.409,3.409,0,0,0,1.99-3.321l.007-2.342S1126.1,286.216,1126.092,286.358Z" transform="translate(-1030.831 -258.464)"/><g transform="translate(36.939 22.517)"><g class="c"><path class="d" d="M1094.742,288.274l1.168.665-2.816,1.661-7-3.982,2.816-1.661,1.363.775,1.387-.817-6.224-3.54,3.044-1.8,13.878-.974,4.468,2.542-8.4,4.954,1.149.654-2.3,1.356-1.149-.654Zm-.783-4.715,3.944-2.326-7.144.506,3.2,1.82" transform="translate(-1085.436 -278.605)"/></g></g></g></g><g transform="translate(869.105 263.109)"><path class="e" d="M1074.591,361.1a11.939,11.939,0,0,1,10.842,0l40.207,23.33c3,1.737,2.993,4.55-.006,6.282l-39.9,23.054a11.937,11.937,0,0,1-10.838-.018l-40.036-23.316c-2.993-1.742-2.983-4.562.01-6.3Z" transform="translate(-1032.618 -359.801)"/><path class="b" d="M1127.881,400.841a3.876,3.876,0,0,1-2.245,3.02l-39.9,23.054a11.051,11.051,0,0,1-5.423,1.292h-.059a11.037,11.037,0,0,1-5.357-1.31l-40.036-23.316a3.819,3.819,0,0,1-2.235-3.15v2.725l.073.826a3.864,3.864,0,0,0,1.966,2.232l40.428,23.5a11.554,11.554,0,0,0,10.447.018l40.348-23.282a3.41,3.41,0,0,0,1.99-3.321l.008-2.342S1127.888,400.7,1127.881,400.841Z" transform="translate(-1032.62 -372.947)"/><g transform="translate(37.109 21.539)"><g class="c"><path class="d" d="M1105.666,393.088a8.168,8.168,0,0,1,2.023,1.522,2.9,2.9,0,0,1,.818,1.523,2.049,2.049,0,0,1-.36,1.451,4.477,4.477,0,0,1-1.487,1.3,4.285,4.285,0,0,1-1.155.478,7.69,7.69,0,0,1-1.177.209,9.635,9.635,0,0,1-1.092.043c-.348,0-.64-.021-.882-.045a5.793,5.793,0,0,1,.113.636,2,2,0,0,1-.065.8,2.47,2.47,0,0,1-.461.888,3.694,3.694,0,0,1-1.069.884,7.269,7.269,0,0,1-2.6.919,11.816,11.816,0,0,1-2.836.079,13.334,13.334,0,0,1-2.787-.572,13.1,13.1,0,0,1-2.452-1.066,6.29,6.29,0,0,1-1.334-.994,5.543,5.543,0,0,1-.908-1.13,3.2,3.2,0,0,1-.442-1.144,2.115,2.115,0,0,1,.056-1.017l4.461-.076a3.41,3.41,0,0,0,.271,1.3,2.687,2.687,0,0,0,1.192,1.135,4.132,4.132,0,0,0,1.844.563,3.011,3.011,0,0,0,1.745-.428c.579-.342.823-.674.733-.99a1.92,1.92,0,0,0-.973-.946l-1.618-.921,2.539-1.5,1.575.9a4.167,4.167,0,0,0,1.682.528,2.658,2.658,0,0,0,1.622-.348,1.465,1.465,0,0,0,.577-.536.793.793,0,0,0,.08-.561,1.188,1.188,0,0,0-.3-.526,2.2,2.2,0,0,0-.577-.449,5.1,5.1,0,0,0-1.632-.536,10.808,10.808,0,0,0-2.174-.151l.4-2.663a12.427,12.427,0,0,1,1.44.041,16.189,16.189,0,0,1,1.746.244,17.168,17.168,0,0,1,1.818.455A8.216,8.216,0,0,1,1105.666,393.088Z" transform="translate(-1087.478 -391.642)"/></g></g></g><g transform="translate(575.374 273.297)"><path class="a" d="M640.358,376.164a11.939,11.939,0,0,1,10.842,0l40.208,23.33c3,1.737,2.992,4.55-.007,6.281l-39.9,23.055a11.94,11.94,0,0,1-10.839-.018L600.625,405.5c-2.993-1.742-2.982-4.562.01-6.3Z" transform="translate(-598.386 -374.863)"/><path class="b" d="M693.648,415.9a3.876,3.876,0,0,1-2.245,3.02l-39.9,23.055a11.051,11.051,0,0,1-5.423,1.292h-.06a11.045,11.045,0,0,1-5.357-1.31l-40.036-23.317a3.817,3.817,0,0,1-2.235-3.15v2.724l.073.827a3.867,3.867,0,0,0,1.966,2.231l40.428,23.5a11.549,11.549,0,0,0,10.448.018l40.347-23.282a3.41,3.41,0,0,0,1.99-3.321l.008-2.342S693.655,415.761,693.648,415.9Z" transform="translate(-598.388 -388.009)"/><g transform="translate(35.96 20.665)"><g class="c"><path class="d" d="M672.469,407.076a6.3,6.3,0,0,1,1.7,1.341,2.71,2.71,0,0,1,.706,1.473,2.228,2.228,0,0,1-.385,1.487,4.423,4.423,0,0,1-1.548,1.376,8.3,8.3,0,0,1-1.791.81,7.948,7.948,0,0,1-1.833.328,14.145,14.145,0,0,1-2.073-.03c-.746-.06-1.59-.148-2.535-.257-.429-.044-.919-.095-1.479-.142s-1.13-.078-1.7-.1-1.124-.025-1.633-.015a11.531,11.531,0,0,0-1.289.095l3.805,2.165,1.7-1,3.631,2.066-4.536,2.675L651.547,412.7l3.088-1.82c.793-.113,1.462-.2,2.026-.269s1.1-.108,1.6-.125,1-.024,1.49-.017,1.049.033,1.664.068c.739.021,1.459.074,2.193.162s1.429.156,2.087.21a13.724,13.724,0,0,0,1.8.039,2.865,2.865,0,0,0,1.3-.336q.8-.475.585-.953a2.348,2.348,0,0,0-.992-.906,3.611,3.611,0,0,0-.972-.368,9.135,9.135,0,0,0-1.107-.173,9.974,9.974,0,0,0-1.136-.039c-.379.006-.732.011-1.061.025l.091-2.762a18.5,18.5,0,0,1,4.546.3A12.2,12.2,0,0,1,672.469,407.076Z" transform="translate(-651.547 -405.412)"/></g></g></g><path class="f" d="M1117.682,166.683c.005,1.991-1.308,3.986-3.939,5.5-5.235,3.022-13.688,3.022-18.882,0l-83.343-48.253c-14.925-8.673-39.279-8.674-54.3,0-7.473,4.315-11.247,9.977-11.231,15.693l.129,45.344c-.016-5.716,3.758-11.378,11.231-15.693,15.023-8.673,39.377-8.673,54.3,0l83.342,48.253c5.194,3.018,13.647,3.018,18.882,0,2.631-1.519,3.944-3.513,3.939-5.5Z" transform="translate(-135.482 -18.271)"/><g transform="translate(938.569 161.621)"><path class="g" d="M1152.523,222.747l-17.213-9.933,5.486-3.048,17.213,9.933Z" transform="translate(-1135.31 -209.767)"/></g><g transform="translate(938.511 164.669)"><path class="h" d="M1152.5,224.205l-.058,4.223-17.213-9.933.058-4.223Z" transform="translate(-1135.225 -214.273)"/></g><g transform="translate(955.724 171.553)"><path class="i" d="M1166.215,224.451l-.057,4.223-5.486,3.048.058-4.223Z" transform="translate(-1160.672 -224.451)"/></g><g transform="translate(933.026 168.888)"><path class="g" d="M1144.328,233.49l-17.213-9.932,5.486-3.048,17.213,9.933Z" transform="translate(-1127.115 -220.51)"/></g><g transform="translate(932.968 171.936)"><path class="h" d="M1144.3,234.948l-.058,4.223-17.213-9.933.058-4.223Z" transform="translate(-1127.03 -225.016)"/></g><g transform="translate(950.181 178.821)"><path class="i" d="M1158.02,235.194l-.057,4.223-5.486,3.048.058-4.223Z" transform="translate(-1152.477 -235.194)"/></g><g transform="translate(927.482 176.152)"><path class="g" d="M1136.133,244.229,1118.92,234.3l5.486-3.048,17.213,9.933Z" transform="translate(-1118.92 -231.249)"/></g><g transform="translate(927.425 179.2)"><path class="h" d="M1136.106,245.687l-.058,4.223-17.213-9.933.058-4.223Z" transform="translate(-1118.835 -235.754)"/></g><g transform="translate(944.638 186.084)"><path class="i" d="M1149.825,245.932l-.057,4.223-5.486,3.048.058-4.223Z" transform="translate(-1144.282 -245.932)"/></g><g transform="translate(921.939 183.419)"><path class="g" d="M1127.938,254.972l-17.213-9.933,5.486-3.048,17.213,9.932Z" transform="translate(-1110.725 -241.992)"/></g><g transform="translate(921.881 186.466)"><path class="h" d="M1127.911,256.43l-.058,4.223-17.213-9.933.058-4.223Z" transform="translate(-1110.64 -246.497)"/></g><g transform="translate(939.094 193.351)"><path class="i" d="M1141.63,256.675l-.058,4.223-5.486,3.048.058-4.223Z" transform="translate(-1136.087 -256.675)"/></g><g transform="translate(916.394 190.686)"><path class="g" d="M1119.741,265.716l-17.213-9.933,5.486-3.048,17.213,9.932Z" transform="translate(-1102.528 -252.736)"/></g><g transform="translate(916.336 193.734)"><path class="h" d="M1119.714,267.174l-.058,4.223-17.213-9.932.057-4.223Z" transform="translate(-1102.443 -257.241)"/></g><g transform="translate(933.549 200.619)"><path class="i" d="M1133.433,267.419l-.058,4.223-5.486,3.048.058-4.223Z" transform="translate(-1127.889 -267.419)"/></g><path class="f" d="M995.6,227.1c-.016-5.692-3.773-11.393-11.3-15.768l-59-34.288c-12.568-7.3-18.859-16.885-18.887-26.478l.129,45.343c.027,9.595,6.319,19.175,18.887,26.479l59,34.288c7.53,4.376,11.287,10.077,11.3,15.768Z" transform="translate(-122.678 -28.991)"/><path class="f" d="M964.992,256.875c.028,9.719-6.374,19.454-19.189,26.853-25.436,14.685-66.669,14.7-92.024.024l-58.995-34.284c-14.925-8.673-39.279-8.673-54.3,0-7.476,4.316-11.251,9.982-11.235,15.7l.129,45.344c-.016-5.719,3.759-11.384,11.236-15.7,15.022-8.673,39.377-8.673,54.3,0L853.907,329.1c25.355,14.677,66.588,14.661,92.023-.024,12.816-7.4,19.217-17.134,19.19-26.853Z" transform="translate(-65.354 -58.887)"/><path class="f" d="M778.865,352.627c-.016-5.691-3.774-11.391-11.306-15.768l-58.995-34.283c-12.569-7.3-18.862-16.885-18.889-26.48l.128,45.343c.028,9.595,6.321,19.175,18.89,26.48L767.688,382.2c7.532,4.377,11.29,10.078,11.306,15.768Z" transform="translate(-52.55 -69.608)"/><g transform="translate(637.9 282.909)"><path class="f" d="M690.82,410.487l.129,45.343c.006,1.966,1.3,3.929,3.877,5.428,25.3,14.7,66.6,14.7,92.066,0,12.812-7.4,19.21-17.128,19.182-26.844l-.129-45.344c.028,9.716-6.371,19.448-19.182,26.844-25.465,14.7-66.768,14.7-92.067,0C692.117,414.416,690.825,412.453,690.82,410.487Z" transform="translate(-690.82 -389.071)"/></g><path class="a" d="M855.464,105.63c-25.457,14.7-25.592,38.622-.294,53.324l59,34.287c15.109,8.78,15.029,22.9.013,31.565s-39.384,8.669-54.3,0l-58.31-33.886c-25.947-15.079-67.251-15.079-92.715-.377s-25.592,38.622-.293,53.324l58.994,34.283c15.116,8.784,15.029,22.9.013,31.565s-39.377,8.673-54.3,0c-5.194-3.018-13.647-3.018-18.882,0s-5.255,7.915-.062,10.933c25.3,14.7,66.6,14.7,92.066,0s25.591-38.622.293-53.323l-58.535-34.017c-15.574-9.051-15.488-23.162-.472-31.831s39.377-8.673,54.3,0l58.995,34.284c25.355,14.677,66.588,14.661,92.024-.024,25.464-14.7,25.605-38.622.307-53.323L874.77,148.4c-15.581-9.055-15.5-23.162-.486-31.831s39.377-8.673,54.3,0l83.343,48.253c5.194,3.018,13.647,3.018,18.882,0s5.255-7.915.062-10.933l-82.686-47.871C922.231,90.929,880.927,90.929,855.464,105.63Z" transform="translate(-52.55 -10.899)"/><g transform="translate(642.12 257.479)"><path class="g" d="M714.271,364.458l-17.213-9.933,5.486-3.048,17.213,9.933Z" transform="translate(-697.058 -351.477)"/></g><g transform="translate(642.062 260.527)"><path class="h" d="M714.243,365.916l-.058,4.223-17.213-9.933.058-4.223Z" transform="translate(-696.973 -355.983)"/></g><g transform="translate(659.275 267.412)"><path class="i" d="M727.963,366.161l-.058,4.223-5.486,3.048.058-4.223Z" transform="translate(-722.419 -366.161)"/></g><g transform="translate(636.576 264.746)"><path class="g" d="M706.076,375.2l-17.213-9.933,5.486-3.048,17.213,9.933Z" transform="translate(-688.863 -362.221)"/></g><g transform="translate(636.518 267.794)"><path class="h" d="M706.049,376.659l-.058,4.223-17.213-9.933.058-4.223Z" transform="translate(-688.778 -366.726)"/></g><g transform="translate(653.732 274.679)"><path class="i" d="M719.768,376.9l-.058,4.223-5.486,3.048.058-4.223Z" transform="translate(-714.225 -376.905)"/></g><g transform="translate(631.033 272.01)"><path class="g" d="M697.881,385.939l-17.213-9.932,5.486-3.048,17.213,9.933Z" transform="translate(-680.668 -372.959)"/></g><g transform="translate(630.975 275.058)"><path class="h" d="M697.854,387.4l-.058,4.223-17.213-9.933.058-4.223Z" transform="translate(-680.583 -377.465)"/></g><g transform="translate(648.188 281.943)"><path class="i" d="M711.573,387.643l-.058,4.223-5.486,3.048.058-4.223Z" transform="translate(-706.03 -387.643)"/></g><g transform="translate(625.489 279.277)"><path class="g" d="M689.686,396.683l-17.213-9.933,5.486-3.048,17.213,9.932Z" transform="translate(-672.473 -383.702)"/></g><g transform="translate(625.432 282.325)"><path class="h" d="M689.659,398.14l-.058,4.223-17.213-9.932.058-4.223Z" transform="translate(-672.388 -388.208)"/></g><g transform="translate(642.645 289.209)"><path class="i" d="M703.378,398.386l-.058,4.223-5.486,3.048.058-4.223Z" transform="translate(-697.835 -398.386)"/></g><path class="g" d="M1043.857,350.878l17.213-9.933-5.486-3.048-17.213,9.933Z" transform="translate(-165.375 -89.605)"/><g transform="translate(878.482 251.341)"><path class="h" d="M1046.481,352.336l.058,4.223,17.213-9.933-.057-4.223Z" transform="translate(-1046.481 -342.404)"/></g><g transform="translate(872.996 258.226)"><path class="i" d="M1038.371,352.582l.058,4.223,5.486,3.048-.058-4.223Z" transform="translate(-1038.371 -352.582)"/></g><path class="g" d="M1052.052,361.621l17.213-9.933-5.486-3.048-17.213,9.933Z" transform="translate(-168.027 -93.081)"/><g transform="translate(884.025 258.608)"><path class="h" d="M1054.676,363.079l.058,4.223,17.213-9.933-.058-4.223Z" transform="translate(-1054.676 -353.147)"/></g><g transform="translate(878.539 265.493)"><path class="i" d="M1046.566,363.325l.058,4.223,5.486,3.048-.058-4.223Z" transform="translate(-1046.566 -363.325)"/></g><path class="g" d="M1060.247,372.36l17.213-9.932-5.486-3.048-17.213,9.933Z" transform="translate(-170.678 -96.555)"/><g transform="translate(889.568 265.872)"><path class="h" d="M1062.871,373.818l.058,4.223,17.213-9.933-.057-4.223Z" transform="translate(-1062.871 -363.885)"/></g><g transform="translate(884.083 272.757)"><path class="i" d="M1054.761,374.063l.058,4.223,5.486,3.048-.058-4.223Z" transform="translate(-1054.761 -374.063)"/></g><g transform="translate(889.626 270.091)"><path class="g" d="M1068.442,383.1l17.213-9.933-5.486-3.048-17.213,9.932Z" transform="translate(-1062.956 -370.123)"/></g><g transform="translate(895.112 273.139)"><path class="h" d="M1071.066,384.561l.058,4.223,17.213-9.932-.057-4.223Z" transform="translate(-1071.066 -374.628)"/></g><g transform="translate(889.626 280.024)"><path class="i" d="M1062.956,384.806l.057,4.223,5.486,3.048-.058-4.223Z" transform="translate(-1062.956 -384.806)"/></g><g transform="translate(651.612 171.53)"><g transform="translate(10.778 42.067)"><g transform="translate(0 2.193)"><path class="g" d="M727.024,289.846l1.651,4.315,1.651,4.316,1.668-2.376,1.669-2.373-3.319-1.94Z" transform="translate(-727.024 -289.846)"/></g><path class="h" d="M733.573,296.908l1.669-2.374,3.76-2.193-3.337,4.75-3.76,2.193Z" transform="translate(-728.604 -288.461)"/><path class="h" d="M730.785,286.6l6.639,3.881-3.76,2.193-3.319-1.94-3.32-1.941Z" transform="translate(-727.024 -286.604)"/></g><g transform="translate(0 0)"><path class="h" d="M715.271,224.416l30.392,17.764a.958.958,0,0,1,.429.752l-.1,35.161a.3.3,0,0,1-.123.271l-3.663,2.171a.3.3,0,0,0,.124-.271l.1-35.161a.957.957,0,0,0-.429-.752l-30.392-17.763Z" transform="translate(-711.258 -224.416)"/><path class="g" d="M711.091,263.157a.954.954,0,0,0,.421.739l30.22,17.667c.238.139.43.028.432-.24l.1-35.161a.956.956,0,0,0-.429-.752l-30.22-17.666c-.231-.135-.423-.024-.423.254Zm30.221,17.167" transform="translate(-711.091 -225.474)"/></g><path class="i" d="M742,244.351l-30.393-17.764,3.663-2.171,30.393,17.764" transform="translate(-711.258 -224.416)"/><g transform="translate(7.303 18.495)"><path class="b" d="M730.2,252.914a8.434,8.434,0,0,0-2.762-1.069c-3.226-.569-5.535,1.634-5.547,5.772s2.278,9,5.5,12.189a14.043,14.043,0,0,0,2.759,2.154,8.524,8.524,0,0,0,2.763,1.074c3.226.581,5.534-1.594,5.546-5.733s-2.277-9.029-5.5-12.227A13.932,13.932,0,0,0,730.2,252.914Z" transform="translate(-721.888 -251.757)"/><g transform="translate(4.43 5.716)"><path class="a" d="M732.3,260.745a3.926,3.926,0,0,0-1.284-.5c-1.5-.265-2.575.76-2.58,2.684a8.6,8.6,0,0,0,2.556,5.669,6.542,6.542,0,0,0,1.283,1,3.959,3.959,0,0,0,1.285.5c1.5.271,2.574-.741,2.579-2.667a8.645,8.645,0,0,0-2.556-5.687A6.488,6.488,0,0,0,732.3,260.745Z" transform="translate(-728.437 -260.207)"/></g></g></g><g transform="translate(853.033 164.563)"><g class="c" transform="translate(13.657 42.066)"><g transform="translate(3.76 2.193)"><path class="g" d="M1041.246,279.547l-1.651,4.315-1.651,4.316-1.668-2.376-1.67-2.373,3.319-1.94Z" transform="translate(-1034.607 -279.547)"/></g><path class="h" d="M1034.478,286.609l-1.67-2.374-3.76-2.193,3.338,4.75,3.76,2.193Z" transform="translate(-1029.048 -278.162)"/><path class="j" d="M1035.688,276.305l-6.639,3.881,3.76,2.193,3.319-1.94,3.32-1.941Z" transform="translate(-1029.048 -276.305)"/></g><path class="h" d="M1039.681,214.117l-30.393,17.764a.957.957,0,0,0-.429.751l.1,35.162a.3.3,0,0,0,.123.271l3.663,2.171a.3.3,0,0,1-.124-.271l-.1-35.162a.957.957,0,0,1,.428-.751l30.393-17.764Z" transform="translate(-1008.859 -214.117)"/><path class="g" d="M1045.346,217.7c0-.277-.193-.388-.423-.253l-30.22,17.666a.957.957,0,0,0-.428.752l.1,35.162c0,.268.193.379.432.24l30.221-17.667a.951.951,0,0,0,.421-.738Zm-30.122,52.328" transform="translate(-1010.611 -215.174)"/><path class="i" d="M1013.156,234.052l30.393-17.764-3.662-2.171-30.393,17.764" transform="translate(-1009.064 -214.117)"/><g transform="translate(8.817 16.695)"><path class="b" d="M1032.3,238.888c.233-.135.468-.13.589.081l2.734,4.751a.363.363,0,0,0,.493.129l6.076-2.495c.538-.22.755.416.368,1.078l-4.381,7.458a1.221,1.221,0,0,0-.184.773l1.053,6.353a1.4,1.4,0,0,1-.644,1.255.59.59,0,0,1-.3.088l-5.438-.144a.567.567,0,0,0-.306.087,1.169,1.169,0,0,0-.306.266l-5.419,6.412a1.184,1.184,0,0,1-.305.265c-.384.221-.722.02-.648-.509l1.014-7.547a.522.522,0,0,0-.188-.557l-4.408-2.384c-.39-.213-.177-1.1.36-1.5l6.066-4.516a1.488,1.488,0,0,0,.5-.7l2.7-7.887A1.417,1.417,0,0,1,1032.3,238.888Z" transform="translate(-1021.894 -238.797)"/></g></g><g transform="translate(706.957 248.297)"><g class="c" transform="translate(13.657 42.066)"><g transform="translate(3.76 2.193)"><path class="g" d="M825.3,403.334l-1.651,4.315-1.651,4.316-1.668-2.376-1.67-2.374,3.319-1.94Z" transform="translate(-818.657 -403.334)"/></g><path class="h" d="M818.528,410.4l-1.67-2.374-3.76-2.193,3.338,4.75,3.76,2.193Z" transform="translate(-813.099 -401.949)"/><path class="j" d="M819.737,400.092l-6.639,3.881,3.76,2.193,3.319-1.94,3.32-1.941Z" transform="translate(-813.099 -400.092)"/></g><path class="h" d="M823.731,337.9l-30.393,17.764a.96.96,0,0,0-.429.752l.1,35.161a.3.3,0,0,0,.123.271l3.663,2.171a.3.3,0,0,1-.123-.271l-.1-35.161a.958.958,0,0,1,.429-.752l30.392-17.763Z" transform="translate(-792.909 -337.904)"/><path class="g" d="M829.4,341.483c0-.277-.193-.388-.424-.254L798.753,358.9a.958.958,0,0,0-.429.752l.1,35.161c0,.269.193.38.431.24l30.22-17.667a.951.951,0,0,0,.421-.739Zm-30.123,52.328" transform="translate(-794.661 -338.962)"/><path class="i" d="M797.206,357.839,827.6,340.075l-3.663-2.171-30.393,17.764" transform="translate(-793.114 -337.904)"/><g transform="translate(7.924 15.385)"><g class="c"><g transform="translate(11.189 9.318)"><path class="a" d="M831.682,380.9l.109.006.834.437-.8,2.173-1.1.294-.113-.009a11.228,11.228,0,0,1-2.509,3.235l0,.146-.252,1.458-1.657.992-.3-1.129,0-.146a2.92,2.92,0,0,1-2.572-.2l-.111.143-1.09,1.019-.857-1.184.8-1.414.106-.135A5.214,5.214,0,0,1,821.92,385a8.117,8.117,0,0,1,.188-1.847l-.109-.006-.834-.437.8-2.173,1.1-.294.114.009a11.3,11.3,0,0,1,2.508-3.235l0-.146.252-1.458,1.657-.992.3,1.129,0,.146a2.938,2.938,0,0,1,2.572.2l.11-.143,1.086-1.021.862,1.186-.8,1.414-.106.135a5.236,5.236,0,0,1,.251,1.585A8.117,8.117,0,0,1,831.682,380.9Zm-4.73,4.362a6.158,6.158,0,0,0,2.71-4.888c-.032-1.781-1.3-2.489-2.828-1.575a6.157,6.157,0,0,0-2.7,4.885c.033,1.786,1.3,2.491,2.823,1.578" transform="translate(-821.165 -374.423)"/></g><g transform="translate(0 13.682)"><path class="b" d="M814.157,386.661l.123.013.834.437-.8,2.173-1.1.288-.123-.009a9.982,9.982,0,0,1-2.025,2.607l0,.168-.252,1.453-1.658.992-.3-1.121,0-.168a2.6,2.6,0,0,1-2.074-.154l-.116.151-1.091,1.025-.862-1.181.8-1.417.12-.16a4.829,4.829,0,0,1-.189-1.283,7.3,7.3,0,0,1,.138-1.478l-.122-.014-.839-.434.8-2.175,1.1-.288.122.009a10.018,10.018,0,0,1,2.02-2.6l0-.173.256-1.456,1.658-.991.3,1.124,0,.173a2.622,2.622,0,0,1,2.075.149l.12-.154,1.091-1.024.862,1.181-.8,1.417-.124.162a4.658,4.658,0,0,1,.193,1.28A7.219,7.219,0,0,1,814.157,386.661Zm-4.241,3.757a4.928,4.928,0,0,0,2.166-3.911c-.026-1.424-1.038-1.99-2.261-1.259a4.921,4.921,0,0,0-2.161,3.9c.026,1.429,1.037,2,2.256,1.266" transform="translate(-804.624 -380.875)"/></g><g transform="translate(7.575)"><path class="e" d="M825.357,366.439l.122.009.839.434-.8,2.175-1.1.294-.123-.008a9.936,9.936,0,0,1-2.024,2.606l0,.162-.252,1.459-1.658.991-.3-1.129,0-.162a2.6,2.6,0,0,1-2.08-.152l-.115.152-1.091,1.019-.862-1.181.8-1.417.12-.154a4.892,4.892,0,0,1-.189-1.283,7.306,7.306,0,0,1,.139-1.484l-.123-.008-.839-.434.8-2.175,1.1-.288.123.008a10.047,10.047,0,0,1,2.025-2.606l0-.168.252-1.458,1.658-.992.3,1.129,0,.168a2.6,2.6,0,0,1,2.075.154l.12-.154,1.091-1.025.862,1.181-.8,1.417-.12.154a4.933,4.933,0,0,1,.189,1.288A7.343,7.343,0,0,1,825.357,366.439Zm-4.241,3.757a4.922,4.922,0,0,0,2.166-3.911c-.026-1.429-1.037-1.99-2.261-1.258a4.916,4.916,0,0,0-2.161,3.9c.026,1.429,1.038,2,2.256,1.266" transform="translate(-815.823 -360.648)"/></g></g></g></g><g transform="translate(940.901 90.567)"><g class="c" transform="translate(11.151 41.898)"><g transform="translate(0 2.234)"><path class="g" d="M1155.242,169.968l1.7,4.291,1.7,4.292,1.639-2.393,1.64-2.39-3.337-1.9Z" transform="translate(-1155.242 -169.968)"/></g><path class="h" d="M1161.9,176.907l1.64-2.39,3.731-2.234L1164,177.066l-3.731,2.234Z" transform="translate(-1156.867 -168.483)"/><path class="j" d="M1158.973,166.665l6.677,3.8-3.731,2.234-3.337-1.9-3.339-1.9Z" transform="translate(-1155.242 -166.665)"/></g><g transform="translate(0 0)"><path class="h" d="M1142.755,104.726l30.565,17.392a.956.956,0,0,1,.437.746l.309,35.124a.3.3,0,0,1-.12.272l-3.633,2.211a.3.3,0,0,0,.12-.272l-.309-35.124a.958.958,0,0,0-.437-.746l-30.565-17.393Z" transform="translate(-1138.875 -104.726)"/><path class="g" d="M1139.066,143.49a.952.952,0,0,0,.43.733l30.391,17.3c.24.136.431.023.429-.245l-.309-35.124a.957.957,0,0,0-.437-.746l-30.392-17.3c-.232-.132-.422-.019-.42.258Zm30.387,16.8" transform="translate(-1138.757 -105.803)"/></g><path class="i" d="M1169.687,124.329l-30.565-17.392,3.633-2.211,30.565,17.392" transform="translate(-1138.875 -104.726)"/><g transform="translate(6.151 16.783)"><path class="e" d="M1149.668,129.958c2.416-1.41,6.331.839,8.747,5.026a12.61,12.61,0,0,1,1.8,6.1,5.373,5.373,0,0,1-.887,3.2l1.408,2.443.423-.252,3.542,6.12a4.249,4.249,0,0,1,.609,2.062,1.494,1.494,0,0,1-.612,1.361c-.814.476-2.136-.285-2.953-1.7l-3.538-6.118.422-.252-1.407-2.438c-2.381.292-5.508-1.853-7.563-5.42a12.6,12.6,0,0,1-1.81-6.109C1147.851,132.152,1148.457,130.665,1149.668,129.958Zm8.821,10.147a9.81,9.81,0,0,0-4.446-7.713c-2.457-1.412-4.447-.246-4.45,2.6a9.8,9.8,0,0,0,4.442,7.707c2.457,1.412,4.452.248,4.454-2.6" transform="translate(-1147.85 -129.537)"/></g></g><g transform="translate(733.273 148.261)"><g class="c" transform="translate(7.875 30.694)"><g transform="translate(0 1.605)"><path class="g" d="M843.455,237.765l1.21,3.147,1.21,3.149,1.215-1.736,1.216-1.734-2.425-1.412Z" transform="translate(-843.455 -237.765)"/></g><path class="h" d="M848.247,242.909l1.216-1.734,2.742-1.6-2.431,3.471-2.742,1.6Z" transform="translate(-844.613 -236.744)"/><path class="j" d="M846.2,235.392l4.85,2.825-2.742,1.6-2.425-1.412L843.455,237Z" transform="translate(-843.455 -235.392)"/></g><g transform="translate(0 0)"><path class="h" d="M834.8,190.017l22.2,12.931a.7.7,0,0,1,.314.549l-.032,25.665a.216.216,0,0,1-.089.2l-2.671,1.589a.219.219,0,0,0,.09-.2l.032-25.665a.7.7,0,0,0-.314-.549l-22.205-12.931Z" transform="translate(-831.917 -190.017)"/><path class="g" d="M831.814,218.3a.7.7,0,0,0,.308.538L854.2,231.7c.174.1.314.02.315-.176l.032-25.665a.7.7,0,0,0-.314-.549L832.155,192.45c-.169-.1-.309-.017-.309.185Zm22.079,12.5" transform="translate(-831.814 -190.791)"/></g><path class="i" d="M854.336,204.537l-22.2-12.932,2.671-1.589,22.2,12.932" transform="translate(-831.917 -190.017)"/><g transform="translate(5.272 14.888)"><path class="b" d="M852.553,222.913a.518.518,0,0,0,.233-.756s-5.491-8.51-5.614-8.722-.471-.154-.47.037l.007,1.979a.117.117,0,0,1-.173.1l-6.156-3.459a.518.518,0,0,0-.772.453l.021,5.579a.519.519,0,0,0,.262.448l6.582,3.7a.52.52,0,0,1,.263.449l.007,1.872a.517.517,0,0,0,.719.474Z" transform="translate(-839.608 -212.026)"/></g></g><g transform="translate(800.039 60.968)"><g class="c" transform="translate(9.937 30.694)"><g transform="translate(2.742 1.605)"><path class="g" d="M954.111,108.716l-1.21,3.147-1.21,3.149-1.215-1.736-1.216-1.734,2.425-1.412Z" transform="translate(-949.26 -108.716)"/></g><path class="h" d="M949.165,113.859l-1.216-1.734-2.742-1.6,2.431,3.471,2.742,1.6Z" transform="translate(-945.207 -107.695)"/><path class="j" d="M950.057,106.343l-4.85,2.825,2.742,1.6,2.425-1.412,2.426-1.413Z" transform="translate(-945.207 -106.343)"/></g><g transform="translate(0 0)"><path class="h" d="M953.035,60.968,930.83,73.9a.7.7,0,0,0-.314.549l.032,25.665a.217.217,0,0,0,.09.2l2.67,1.588a.215.215,0,0,1-.089-.2l-.032-25.666a.7.7,0,0,1,.314-.548l22.2-12.932Z" transform="translate(-930.516 -60.968)"/><path class="g" d="M957.166,63.586c0-.2-.14-.283-.308-.185L934.779,76.262a.7.7,0,0,0-.314.548l.032,25.666c0,.2.14.277.314.176L956.89,89.791a.694.694,0,0,0,.308-.538Zm-22.047,38.162" transform="translate(-931.794 -61.742)"/></g><path class="i" d="M933.651,75.488l22.2-12.932-2.671-1.589L930.98,73.9" transform="translate(-930.666 -60.968)"/><g transform="translate(7.952 14.624)"><path class="b" d="M955.056,84.724a.519.519,0,0,1,.244.753s-5.327,8.552-5.447,8.766-.466.158-.469-.032l-.024-1.976a.116.116,0,0,0-.174-.1l-6.07,3.517a.518.518,0,0,1-.776-.443l-.068-5.57a.512.512,0,0,1,.254-.45l6.491-3.762a.512.512,0,0,0,.254-.45l-.023-1.869a.512.512,0,0,1,.708-.481Z" transform="translate(-942.272 -82.587)"/></g></g><g transform="translate(723.8 320.557)"><path class="g" d="M823.3,457.709l17.213-9.933-5.486-3.048-17.213,9.933Z" transform="translate(-817.81 -444.729)"/></g><g transform="translate(729.286 323.605)"><path class="h" d="M825.92,459.167l.058,4.223,17.213-9.933-.058-4.223Z" transform="translate(-825.92 -449.234)"/></g><g transform="translate(723.8 330.49)"><path class="i" d="M817.81,459.412l.058,4.223,5.486,3.048-.057-4.223Z" transform="translate(-817.81 -459.412)"/></g><g transform="translate(729.344 327.824)"><path class="g" d="M831.491,468.452,848.7,458.52l-5.486-3.048L826,465.4Z" transform="translate(-826.005 -455.472)"/></g><g transform="translate(734.829 330.872)"><path class="h" d="M834.115,469.91l.058,4.223,17.213-9.933-.057-4.223Z" transform="translate(-834.115 -459.977)"/></g><g transform="translate(729.344 337.757)"><path class="i" d="M826,470.156l.057,4.223,5.486,3.048-.058-4.223Z" transform="translate(-826.005 -470.156)"/></g><g transform="translate(734.887 335.088)"><path class="g" d="M839.686,479.19l17.213-9.932-5.486-3.048L834.2,476.143Z" transform="translate(-834.2 -466.21)"/></g><g transform="translate(740.373 338.136)"><path class="h" d="M842.31,480.648l.058,4.223,17.213-9.933-.058-4.223Z" transform="translate(-842.31 -470.716)"/></g><g transform="translate(734.887 345.021)"><path class="i" d="M834.2,480.894l.058,4.223,5.486,3.048-.058-4.223Z" transform="translate(-834.2 -480.894)"/></g><g transform="translate(740.431 342.355)"><path class="g" d="M847.881,489.934,865.093,480l-5.486-3.048-17.213,9.932Z" transform="translate(-842.395 -476.953)"/></g><g transform="translate(745.916 345.403)"><path class="h" d="M850.5,491.391l.058,4.223,17.213-9.932-.058-4.223Z" transform="translate(-850.505 -481.459)"/></g><g transform="translate(740.431 352.288)"><path class="i" d="M842.395,491.637l.058,4.223,5.486,3.048-.058-4.223Z" transform="translate(-842.395 -491.637)"/></g><g transform="translate(745.975 349.623)"><path class="g" d="M856.078,500.677l17.213-9.933-5.486-3.048-17.213,9.933Z" transform="translate(-850.592 -487.697)"/></g><g transform="translate(751.461 352.671)"><path class="h" d="M858.7,502.135l.057,4.223,17.213-9.932-.058-4.223Z" transform="translate(-858.702 -492.203)"/></g><g transform="translate(745.975 359.555)"><path class="i" d="M850.592,502.381l.058,4.223,5.486,3.048-.058-4.223Z" transform="translate(-850.592 -502.381)"/></g><g transform="translate(751.519 356.89)"><path class="g" d="M864.273,511.421l17.213-9.932L876,498.44l-17.213,9.933Z" transform="translate(-858.787 -498.44)"/></g><g transform="translate(757.005 359.938)"><path class="h" d="M866.9,512.878l.057,4.223,17.213-9.933-.058-4.223Z" transform="translate(-866.897 -502.946)"/></g><g transform="translate(751.519 366.822)"><path class="i" d="M858.787,513.124l.058,4.223,5.486,3.048-.057-4.223Z" transform="translate(-858.787 -513.124)"/></g><g transform="translate(757.061 364.157)"><path class="g" d="M872.466,522.163l17.213-9.933-5.486-3.048-17.213,9.933Z" transform="translate(-866.98 -509.183)"/></g><g transform="translate(762.547 367.204)"><path class="h" d="M875.09,523.621l.058,4.223,17.213-9.932-.058-4.223Z" transform="translate(-875.09 -513.689)"/></g><g transform="translate(757.061 374.089)"><path class="i" d="M866.98,523.867l.058,4.223,5.486,3.048-.058-4.223Z" transform="translate(-866.98 -523.867)"/></g><g transform="translate(762.605 371.424)"><path class="g" d="M880.661,532.906l17.213-9.933-5.486-3.048-17.213,9.933Z" transform="translate(-875.176 -519.926)"/></g><g transform="translate(768.09 374.472)"><path class="h" d="M883.285,534.364l.058,4.223,17.213-9.933-.058-4.223Z" transform="translate(-883.285 -524.432)"/></g><g transform="translate(762.605 381.356)"><path class="i" d="M875.176,534.61l.058,4.223,5.486,3.048-.058-4.223Z" transform="translate(-875.176 -534.61)"/></g><g transform="translate(527.266 293.382)"><g transform="translate(0 57.941)"><path class="g" d="M551.05,490.947a6.764,6.764,0,0,1,6.143,0l22.784,13.22c1.7.984,1.7,2.578,0,3.559l-22.611,13.065a6.766,6.766,0,0,1-6.142-.01l-22.687-13.213c-1.7-.987-1.69-2.585.005-3.568Z" transform="translate(-527.266 -490.21)"/><path class="h" d="M581.248,513.465a2.2,2.2,0,0,1-1.272,1.712l-22.611,13.065a6.261,6.261,0,0,1-3.073.732h-.033a6.259,6.259,0,0,1-3.036-.742l-22.687-13.213a2.163,2.163,0,0,1-1.266-1.784v1.544l.041.468a2.188,2.188,0,0,0,1.114,1.264l22.909,13.316a6.547,6.547,0,0,0,5.92.01l22.864-13.193a1.93,1.93,0,0,0,1.128-1.881l0-1.327S581.252,513.385,581.248,513.465Z" transform="translate(-527.267 -497.659)"/></g><g transform="translate(16.602)"><g transform="translate(4.62 49.391)"><g transform="translate(0.365)"><path class="k" d="M559.184,489.823c.027,1.824.112,8.121.007,9.266s.551,1.936,1.6,1.751,5.022-1.5,5.2-2.043c.416-1.278-4.026-1.344-4.026-1.344s.615-4.7,1.006-5.934,2.9-13.084,2.9-13.084l-5.132-.865S559.184,485.755,559.184,489.823Z" transform="translate(-559.18 -477.571)"/></g><g transform="translate(0 19.613)"><path class="l" d="M563.528,507a9.288,9.288,0,0,0-1.173-.146c-.239,0-.574-.02-.574-.02s.011-.072.015-.114c.514.009,2.461.051,3.112-.04.81-.114,1.888-.266,2.165.213s.3,1.042-.821,1.735a6.836,6.836,0,0,1-3.8,1.325c-1.027-.07-1.09.517-1.09.517s-.231.219-1.407.146a2.017,2.017,0,0,1-1.226-.645.365.365,0,0,1-.078-.214,11.958,11.958,0,0,1,.07-2.064,1.574,1.574,0,0,1,.339-.665h0c-.115.489.35.852.825.969a4.832,4.832,0,0,0,3.429-.18C564.034,507.417,563.909,507.083,563.528,507Z" transform="translate(-558.64 -506.565)"/><path class="m" d="M563.664,510.291a1.255,1.255,0,0,1,.415-.011,6.26,6.26,0,0,0,3.669-1.168c.86-.531,1.176-1.143,1.092-1.542,0,0-.014.394-.628.927a8.437,8.437,0,0,1-2.288,1.295,7.68,7.68,0,0,1-2.013.479l-.247.02" transform="translate(-560.266 -506.891)"/><path class="m" d="M558.657,511.1a.57.57,0,0,0,.078.342,2.051,2.051,0,0,0,1.226.645,2.688,2.688,0,0,0,1.393-.12.032.032,0,0,0,.017-.02.666.666,0,0,1,.179-.311A2.94,2.94,0,0,1,558.657,511.1Z" transform="translate(-558.645 -508.032)"/></g></g><g transform="translate(10.043 51.336)"><g transform="translate(0.418)"><path class="k" d="M567.91,492.568c-.093,1.822-.424,8.111-.6,9.248s.422,1.967,1.475,1.852,5.111-1.162,5.32-1.7c.5-1.248-4.079-1.654-4.079-1.654s1.4-5.033,1.875-6.238,3.424-12.434,3.424-12.434l-5.064-1.2S568.178,488.509,567.91,492.568Z" transform="translate(-567.274 -480.445)"/></g><g transform="translate(0 19.609)"><path class="l" d="M571.7,510.026c-.334-.1-1.508-.275-1.883-.327a.656.656,0,0,0,.074-.265,29.069,29.069,0,0,0,2.991.261c.816-.06,2.117-.037,2.361.46s.232,1.059-.933,1.677a6.834,6.834,0,0,1-3.878,1.072c-1.021-.138-1.122.444-1.122.444s-.244.2-1.413.053a2.011,2.011,0,0,1-1.181-.724.366.366,0,0,1-.065-.219,11.994,11.994,0,0,1,.206-2.054,1.576,1.576,0,0,1,.383-.642h0c-.148.481.292.874.758,1.022a4.829,4.829,0,0,0,3.433.047C572.182,510.475,572.078,510.133,571.7,510.026Z" transform="translate(-566.656 -509.433)"/><path class="m" d="M571.632,513.4a1.289,1.289,0,0,1,.415.017,6.264,6.264,0,0,0,3.739-.923c.893-.474,1.249-1.063,1.191-1.466,0,0-.04.392-.689.883a8.432,8.432,0,0,1-2.368,1.141,7.74,7.74,0,0,1-2.04.346l-.248,0" transform="translate(-568.266 -509.95)"/><path class="m" d="M566.667,513.714a.566.566,0,0,0,.056.347,2.047,2.047,0,0,0,1.181.724,2.677,2.677,0,0,0,1.4-.028.028.028,0,0,0,.018-.019.68.68,0,0,1,.2-.3A2.939,2.939,0,0,1,566.667,513.714Z" transform="translate(-566.658 -510.818)"/></g></g><g transform="translate(3.554 34.132)"><path class="n" d="M559.518,455.012c.055.787-.787,3.078-1.39,6.135s-.919,13.274-1.061,14.161c-.087.488.969,1.341,2.516,1.554,7.551,1.046,9.828.329,11.461-.15,1.674-.49,1.819-.8,1.819-3.391,0-5.778-1.862-15.724-1.533-17.979Z" transform="translate(-557.063 -455.012)"/></g><path class="m" d="M572.308,464.329h0s-5.738,1.73-13.67-.781c0,0,.051-.982.222-1.048l.169-.065s12.551,1.262,13.111.752Z" transform="translate(-554.019 -423.282)"/><g transform="translate(3.469 15.329)"><path class="n" d="M559.122,447.236c.61-3.057-.5-11.237-1.355-12.246s-1.081-1.64-.528-3.906a7.025,7.025,0,0,1,2.287-3.587s9.63-.864,12.774.433c2.957,1.22,2.952,6.944,2.035,7s-1.918.03-2.337.844.2-.638.008,2.792-.2,4.9-.533,7.152c-.3,2.05.145,1.385.677,5.562a1.309,1.309,0,0,1-1.245,1.409c-3.615.484-9.161.287-12.526-1a.854.854,0,0,1-.541-1Z" transform="translate(-556.937 -427.215)"/></g><g transform="translate(4.35)"><path class="l" d="M566.328,404.554a5.9,5.9,0,0,0-6.007,4.575c-.666,2.161-.948,7.787-1.479,8.9-1.412,2.972.051,3.329.467,3.7s3.421,2.185,5.581,1.516c2.428-.754,3.082-1.4,5.159-2.434a3.258,3.258,0,0,1,4.079.934s-.345-2.613-.719-4.561.29-6.195.292-7.119C573.708,405.723,569.121,404.54,566.328,404.554Z" transform="translate(-558.241 -404.554)"/></g><path class="n" d="M581.392,432.192l4.51,10.363a1.673,1.673,0,0,1-.191,1.582l-6.292,5.99a4.965,4.965,0,0,1-1.029-1.678c-.049-.471,1.836-3.465,2.543-5.224a1.666,1.666,0,0,0-.027-1.308l-2.516-3.739Z" transform="translate(-560.409 -413.497)"/><path class="k" d="M577.659,456.322a11.152,11.152,0,0,0-1.464.469c-.24.151,0,.289.157.38s.776.041.9.222.319.458.565.8c.18.248.7-.024.863-.258.19-.264-1.017-1.613-1.017-1.613Z" transform="translate(-559.667 -421.304)"/><path class="n" d="M555.894,431.542l-3.985,8.988a1.165,1.165,0,0,0,.125,1.159l5.785,7.923,1.106-2.12-2.649-6.26a1.164,1.164,0,0,1,.073-1.312l1.47-2.55Z" transform="translate(-551.809 -413.286)"/><path class="m" d="M558.477,437.783s.425,2.785.459,3.073l-.772-2.446Z" transform="translate(-553.865 -415.306)"/><path class="m" d="M560.12,451.595s-.1,2.928-.265,3.631l-.322-.425.166-3.905Z" transform="translate(-554.308 -419.549)"/></g></g></g></svg>