<svg xmlns="http://www.w3.org/2000/svg" width="2248.664" height="1612.804" viewBox="0 0 2248.664 1612.804"><defs><style>.a{fill:#0865ab;}.b{opacity:0.3;}.c{fill:#dadce0;isolation:isolate;}.d{fill:#ed7015;}.e{fill:#ef7015;}.f{fill:#eeae1d;}.g{fill:#fff;}.h{fill:#ee991a;}.i{fill:#e8a97b;}</style></defs><g transform="translate(74.722 688.33)"><rect class="a" width="1920" height="771"/><g class="b" transform="translate(818.011 91.338)"><circle class="c" cx="5.628" cy="5.628" r="5.628" transform="translate(792.076 222.655)"/><circle class="c" cx="5.628" cy="5.628" r="5.628" transform="translate(41.617 370.536)"/><circle class="c" cx="5.628" cy="5.628" r="5.628" transform="translate(1009.487 402.543)"/><circle class="c" cx="5.628" cy="5.628" r="5.628" transform="translate(313.018 135.844)"/><circle class="c" cx="5.628" cy="5.628" r="5.628" transform="translate(294.531 6.431)"/><circle class="c" cx="5.628" cy="5.628" r="5.628" transform="translate(135.38 262.837)"/><path class="c" d="M707.227-202.977h-5.01v-5h-2.042v5h-5.01v2.053h5.01v5h2.042v-5h5.01Z" transform="translate(229.941 478.051)"/><path class="c" d="M748.592-288.429h-5.01v-5H741.54v5h-5.01v2.053h5.01v5h2.042v-5h5.01Z" transform="translate(272.45 390.237)"/><path class="c" d="M572.446-336.163h-5.01v-5.01h-2.041v5.01h-5.011v2.042h5.011v5.01h2.041v-5.01h5.01Z" transform="translate(91.433 341.173)"/><path class="c" d="M680.263-216.85h-5.01v-5h-2.042v5h-5v2.053h5v5h2.042v-5h5.01Z" transform="translate(202.243 463.794)"/><path class="c" d="M589.879-134.794h-5v-5h-2.041v5h-5.01v2.052h5.01v5h2.041v-5h5Z" transform="translate(109.36 548.118)"/><path class="c" d="M336.978-304.061h-5.01v-5h-2.042v5h-5.01v2.042h5.01v5.01h2.042v-5.01h5.01Z" transform="translate(-150.545 374.174)"/><path class="c" d="M250.981-271.948h-5.01v-5h-2.042v5h-5.01v2.042h5.01v5.01h2.042v-5.01h5.01Z" transform="translate(-238.918 407.175)"/><path class="c" d="M371.06-170.858h-5.01v-5.01h-2.042v5.01h-5v2.042h5v5.01h2.042v-5.01h5.01Z" transform="translate(-115.508 511.045)"/></g><g transform="translate(519.689 -688.33)"><path class="d" d="M15.711,11.623,9.289,7.535l4.088-6.423L11.623,0,7.538,6.423,1.116,2.335,0,4.085,6.423,8.173,2.335,14.6l1.753,1.116L8.173,9.289,14.6,13.374Z" transform="translate(598.443 298.519)"/><path class="e" d="M15.711,11.623,9.289,7.535l4.088-6.423L11.623,0,7.538,6.423,1.115,2.335,0,4.085,6.423,8.173,2.335,14.6l1.753,1.116L8.173,9.289,14.6,13.374Z" transform="translate(1345.424 772.146)"/><path class="f" d="M20.462,15.138,12.1,9.814l5.324-8.365L15.138,0,9.818,8.365,1.453,3.041,0,5.32l8.365,5.324L3.041,19.009l2.283,1.453,5.32-8.365,8.365,5.32Z" transform="translate(319.128 661.269)"/><path class="d" d="M15.711,11.623,9.289,7.535l4.088-6.423L11.623,0,7.538,6.423,1.115,2.335,0,4.085,6.423,8.173,2.335,14.6l1.753,1.116L8.173,9.289,14.6,13.374Z" transform="translate(911.27 1003.034)"/><path class="f" d="M15.711,11.623,9.289,7.535l4.088-6.423L11.623,0,7.538,6.423,1.116,2.335,0,4.085,6.423,8.173,2.335,14.6l1.753,1.116L8.173,9.289,14.6,13.374Z" transform="translate(280.972 876.917)"/><path class="d" d="M15.711,11.623,9.289,7.535l4.088-6.423L11.623,0,7.538,6.423,1.115,2.335,0,4.085,6.423,8.173,2.335,14.6l1.753,1.116L8.173,9.289,14.6,13.374Z" transform="translate(1638.541 738.439)"/><path class="g" d="M15.711,11.623,9.289,7.535l4.088-6.423L11.623,0,7.538,6.423,1.116,2.335,0,4.085,6.423,8.173,2.335,14.6l1.753,1.115L8.173,9.289,14.6,13.374Z" transform="translate(211.942 740.959)"/><path class="g" d="M22,16.271,13,10.552l5.722-8.993L16.274,0,10.552,8.99,1.562,3.268,0,5.722l8.993,5.719L3.271,20.434,5.722,22,11.444,13l8.99,5.722Z" transform="translate(750.989 650.001)"/><circle class="d" cx="9.427" cy="9.427" r="9.427" transform="translate(0 557.691)"/><circle class="d" cx="9.427" cy="9.427" r="9.427" transform="translate(705.281 194.822)"/><circle class="d" cx="6.037" cy="6.037" r="6.037" transform="translate(594.076 654.957)"/><circle class="d" cx="6.285" cy="6.285" r="6.285" transform="translate(614.155 575.039)"/><circle class="e" cx="6.285" cy="6.285" r="6.285" transform="translate(1326.112 922.327)"/><circle class="h" cx="6.285" cy="6.285" r="6.285" transform="translate(629.501 853.067)"/><circle class="i" cx="6.285" cy="6.285" r="6.285" transform="translate(689.57)"/><circle class="d" cx="6.285" cy="6.285" r="6.285" transform="translate(431.902 292.233)"/><circle class="g" cx="6.285" cy="6.285" r="6.285" transform="translate(510.46 81.7)"/><circle class="d" cx="9.427" cy="9.427" r="9.427" transform="translate(1446.861 644.169)"/><circle class="i" cx="18.142" cy="18.142" r="18.142" transform="translate(1014.321 643.556)"/><circle class="g" cx="9.427" cy="9.427" r="9.427" transform="translate(1041.506 559.327)"/><circle class="f" cx="4.585" cy="4.585" r="4.585" transform="translate(65.139 742.605)"/><circle class="f" cx="9.674" cy="9.674" r="9.674" transform="translate(399.353 956.234)"/><path class="e" d="M9.674,0A9.674,9.674,0,1,1,0,9.674,9.674,9.674,0,0,1,9.674,0Z" transform="translate(1512.045 700.49)"/></g><g class="b" transform="translate(-74.722 650.863)"><circle class="c" cx="3.663" cy="3.663" r="3.663" transform="translate(515.541 144.92)"/><circle class="c" cx="3.663" cy="3.663" r="3.663" transform="translate(27.087 241.172)"/><circle class="c" cx="3.663" cy="3.663" r="3.663" transform="translate(657.048 262.005)"/><circle class="c" cx="3.663" cy="3.663" r="3.663" transform="translate(203.735 88.417)"/><circle class="c" cx="3.663" cy="3.663" r="3.663" transform="translate(191.703 4.186)"/><circle class="c" cx="3.663" cy="3.663" r="3.663" transform="translate(88.115 171.074)"/><path class="c" d="M703.016-204.722h-3.261v-3.254h-1.329v3.254h-3.261v1.336h3.261v3.254h1.329v-3.254h3.261Z" transform="translate(-93.038 383.76)"/><path class="c" d="M744.381-290.175H741.12v-3.254h-1.329v3.254H736.53v1.336h3.261v3.254h1.329v-3.254h3.261Z" transform="translate(-79.812 356.438)"/><path class="c" d="M568.234-337.912h-3.261v-3.261h-1.329v3.261h-3.261v1.329h3.261v3.261h1.329v-3.261h3.261Z" transform="translate(-136.134 341.173)"/><path class="c" d="M676.055-218.6h-3.261v-3.254h-1.329v3.254h-3.254v1.336h3.254v3.254h1.329v-3.254h3.261Z" transform="translate(-101.656 379.325)"/><path class="c" d="M585.672-136.539h-3.254v-3.254h-1.329v3.254h-3.261v1.336h3.261v3.254h1.329V-135.2h3.254Z" transform="translate(-130.556 405.561)"/><path class="c" d="M332.766-305.806H329.5v-3.254h-1.329v3.254h-3.261v1.329h3.261v3.261H329.5v-3.261h3.261Z" transform="translate(-211.422 351.441)"/><path class="c" d="M246.769-273.694h-3.261v-3.254h-1.329v3.254h-3.261v1.329h3.261v3.261h1.329v-3.261h3.261Z" transform="translate(-238.918 361.709)"/><path class="c" d="M366.853-172.607h-3.261v-3.261h-1.329v3.261h-3.254v1.329h3.254v3.261h1.329v-3.261h3.261Z" transform="translate(-200.521 394.026)"/></g></g></svg>