<svg xmlns="http://www.w3.org/2000/svg" width="199.294" height="187.137" viewBox="0 0 199.294 187.137"><defs><style>.a{fill:#f2f2f2;}.b{fill:#252525;}.c{fill:#e8eaed;}.d{fill:#fff;}.e{fill:#efaf1f;}</style></defs><g transform="translate(-1693.091 -1214.955)"><g transform="translate(1798.199 1214.955)"><path class="a" d="M1004.084,491.395c0,35.466-21.084,47.85-47.093,47.85S909.9,526.861,909.9,491.395s47.093-80.586,47.093-80.586S1004.084,455.928,1004.084,491.395Z" transform="translate(-909.897 -410.808)"/><path class="b" d="M917.051,477.383l.482-29.683,20.072-36.721-20,32.065.217-13.347,13.833-26.568-13.776,23.036h0l.39-24,14.813-21.151-14.752,17.376.244-44.015-1.531,58.268.126-2.4-15.061-23.053,14.819,27.668-1.4,26.809-.041-.712-17.363-24.26,17.31,26.774-.176,3.353-.031.05.015.275-3.56,68.015h4.757l.57-35.131,17.268-26.708Z" transform="translate(-871.673 -354.372)"/><ellipse class="b" cx="16.375" cy="4.852" rx="16.375" ry="4.852" transform="translate(25.656 155.93)"/></g><path class="c" d="M73.683,0c40.694,0,73.683,4.488,73.683,10.024S114.378,20.048,73.683,20.048,0,15.56,0,10.024,32.989,0,73.683,0Z" transform="translate(1693.091 1382.044)"/><ellipse class="b" cx="34.241" cy="34.241" rx="34.241" ry="34.241" transform="translate(1733.4 1306.465)"/><rect class="b" width="10.402" height="18.638" transform="translate(1783.245 1386.217) rotate(180)"/><rect class="b" width="10.402" height="18.638" transform="translate(1762.44 1386.217) rotate(180)"/><ellipse class="b" cx="8.669" cy="3.251" rx="8.669" ry="3.251" transform="translate(1745.941 1389.688) rotate(-30)"/><ellipse class="b" cx="8.669" cy="3.251" rx="8.669" ry="3.251" transform="translate(1766.312 1389.688) rotate(-30)"/><ellipse class="d" cx="11.703" cy="11.703" rx="11.703" ry="11.703" transform="translate(1755.072 1320.335)"/><ellipse class="b" cx="3.901" cy="3.901" rx="3.901" ry="3.901" transform="translate(1758.888 1323.152)"/><path class="e" d="M850.684,590.055c2.765-12.382-6.073-24.894-19.74-27.946S803.956,566.622,801.191,579s6.293,16.949,19.96,20S847.919,602.438,850.684,590.055Z" transform="translate(950.172 718.808)"/><ellipse class="b" cx="5.375" cy="17.121" rx="5.375" ry="17.121" transform="translate(1719.786 1327.142) rotate(-66.829)"/><ellipse class="b" cx="5.375" cy="17.121" rx="5.375" ry="17.121" transform="translate(1783.934 1350.114) rotate(-66.829)"/><path class="d" d="M834.8,728.638a7.8,7.8,0,0,1-15.6,0c0-4.309,3.493-5.2,7.8-5.2S834.8,724.329,834.8,728.638Z" transform="translate(939.687 627.023)"/></g></svg>