<svg xmlns="http://www.w3.org/2000/svg" xmlns:xlink="http://www.w3.org/1999/xlink" width="756.343" height="805.973" viewBox="0 0 756.343 805.973"><defs><style>.a{opacity:0.989;}.b{opacity:0.7;}.c{fill:url(#a);}.d{fill:url(#b);}.e{fill:url(#c);}.f{fill:url(#d);}.g{fill:url(#e);}.h{fill:url(#f);}.i{fill:url(#g);}.j{fill:url(#h);}.k{fill:url(#i);}.l{fill:url(#j);}.m{fill:#252525;}.n{opacity:0.1;}.o{fill:#e0e0e0;}.p{fill:#eeae1d;}.q{fill:url(#k);}.r{fill:#eee;}.s{fill:url(#m);}.t{fill:url(#n);}.u{fill:url(#o);}.v{fill:url(#q);}.w{fill:url(#r);}.x{fill:url(#s);}.y{fill:url(#t);}.z{fill:url(#u);}.aa{fill:url(#v);}.ab{fill:url(#w);}.ac{fill:url(#x);}.ad{fill:url(#y);}.ae{fill:url(#z);}.af{fill:#f55f44;}.ag{fill:#fff;opacity:0.25;}.ag,.ak{isolation:isolate;}.ah{fill:url(#aa);}.ai{opacity:0.995;}.aj{fill:#f2c45c;}.ak{fill:#ed7015;opacity:0.198;}</style><linearGradient id="a" x1="1.518" y1="-10.878" x2="1.518" y2="-9.878" gradientUnits="objectBoundingBox"><stop offset="0" stop-color="gray" stop-opacity="0.251"/><stop offset="0.54" stop-color="gray" stop-opacity="0.122"/><stop offset="1" stop-color="gray" stop-opacity="0.102"/></linearGradient><linearGradient id="b" x1="0.508" y1="-12.029" x2="0.508" y2="-13.029" gradientUnits="objectBoundingBox"><stop offset="0" stop-color="#f2f2f2"/><stop offset="0.31" stop-color="#e6e6e6"/><stop offset="0.77" stop-color="#ccc"/></linearGradient><linearGradient id="c" x1="0.503" y1="-10.898" x2="0.503" y2="-11.898" xlink:href="#b"/><linearGradient id="d" x1="4.567" y1="-10.898" x2="4.567" y2="-11.898" xlink:href="#b"/><linearGradient id="e" x1="4.898" y1="-12.029" x2="4.898" y2="-13.029" xlink:href="#b"/><linearGradient id="f" x1="4.499" y1="-14.309" x2="4.499" y2="-15.309" xlink:href="#b"/><linearGradient id="g" x1="5.741" y1="-24.444" x2="5.741" y2="-25.444" xlink:href="#b"/><linearGradient id="h" x1="7.633" y1="-20.498" x2="7.633" y2="-21.498" xlink:href="#b"/><linearGradient id="i" x1="1.518" y1="-20.485" x2="1.518" y2="-21.485" xlink:href="#b"/><linearGradient id="j" x1="1.392" y1="1.04" x2="1.392" y2="2.04" xlink:href="#a"/><linearGradient id="k" x1="0.5" y1="4.77" x2="0.5" y2="3.77" gradientUnits="objectBoundingBox"><stop offset="0" stop-color="#e0e0e0"/><stop offset="0.31" stop-color="#fccc63"/><stop offset="0.77" stop-color="#f55f44"/></linearGradient><linearGradient id="m" x1="0.911" y1="0.325" x2="0.911" y2="1.325" xlink:href="#a"/><linearGradient id="n" x1="0.5" y1="2.472" x2="0.5" y2="1.472" xlink:href="#b"/><linearGradient id="o" x1="0.5" y1="2.002" x2="0.5" y2="1.002" xlink:href="#b"/><linearGradient id="q" x1="0.5" y1="2.002" x2="0.5" y2="1.002" xlink:href="#b"/><linearGradient id="r" x1="2.232" y1="1.097" x2="2.232" y2="0.097" xlink:href="#b"/><linearGradient id="s" x1="2.233" y1="0.733" x2="2.233" y2="-0.267" xlink:href="#b"/><linearGradient id="t" x1="2.233" y1="0.499" x2="2.233" y2="-0.501" xlink:href="#b"/><linearGradient id="u" x1="2.234" y1="0.732" x2="2.234" y2="-0.268" xlink:href="#b"/><linearGradient id="v" x1="2.233" y1="0.733" x2="2.233" y2="-0.267" xlink:href="#b"/><linearGradient id="w" x1="0.5" y1="12.221" x2="0.5" y2="13.221" xlink:href="#a"/><linearGradient id="x" x1="0.5" y1="2.358" x2="0.5" y2="3.358" xlink:href="#a"/><linearGradient id="y" x1="0.5" y1="3.482" x2="0.5" y2="2.482" gradientUnits="objectBoundingBox"><stop offset="0" stop-color="#f2f2f2"/><stop offset="0.31" stop-color="#e0e0e0"/><stop offset="0.77" stop-color="#b3b3b3"/></linearGradient><linearGradient id="z" x1="0.5" y1="7.332" x2="0.5" y2="8.332" xlink:href="#a"/><linearGradient id="aa" x1="0.5" y1="3.482" x2="0.5" y2="2.482" xlink:href="#b"/></defs><g transform="translate(0 44.739)"><g transform="translate(0 53.634)"><g class="a" transform="translate(122.045 515.908)"><g class="b" transform="translate(1.099 42.88)"><path class="c" d="M363.548,58.386h0c6.134,36.249,41.084,60.761,78.065,54.748,32.9-5.349,56.963-33.336,56.766-66.027v-.978h0a63.678,63.678,0,0,0,7.441-1.563c8.341,32.564,42.035,52.333,75.255,44.156a61.723,61.723,0,0,0,41.356-33.809,62.374,62.374,0,0,0,17.106,3.833h0a65.129,65.129,0,0,0,4.67,15.11c2.233,33.485,31.736,58.856,65.9,56.669,30.427-1.949,54.888-25.3,57.682-55.065a65.059,65.059,0,0,0,6.068-21.138h0C803.26,42.33,803.71,11.952,794.5-17.934l-469.267-.221C315.34,14,321.243,46.655,354.044,56.356A63.227,63.227,0,0,0,363.548,58.386Z" transform="translate(-320.881 18.155)"/></g><ellipse class="d" cx="59.557" cy="58.38" rx="59.557" ry="58.38" transform="translate(249.057 0)"/><ellipse class="e" cx="65.215" cy="63.927" rx="65.215" ry="63.927" transform="translate(315.659 44.528)"/><ellipse class="f" cx="65.215" cy="63.927" rx="65.215" ry="63.927" transform="translate(50.627 44.528)"/><ellipse class="g" cx="59.557" cy="58.38" rx="59.557" ry="58.38" transform="translate(59.565 44.528)"/><path class="h" d="M444.231,30.23a57.919,57.919,0,0,1,24.631-47.293h69.86a57.661,57.661,0,0,1,13.387,81.546c-19.275,26.142-56.522,32.017-83.19,13.122a58.046,58.046,0,0,1-24.68-47.375Z" transform="translate(-257.808 61.584)"/><path class="i" d="M395.071-11.8q0-2.621.237-5.186a.152.152,0,0,1,0-.072H513.948c.164,1.731.245,3.487.245,5.249.021,28.872-21.51,53.413-50.635,57.714a61.432,61.432,0,0,1-8.9.658c-1.52,0-3.033-.056-4.53-.161a59.571,59.571,0,0,1-49.8-34.26c-.245-.529-.482-1.065-.7-1.6A57.1,57.1,0,0,1,395.071-11.8Z" transform="translate(-282.508 61.584)"/><path class="j" d="M320.15-.129c-.006-5.735,24.359-6.767,26.057-12.255l90.49-4.674h0a57.651,57.651,0,0,1,1.529,27.687c-.1.5-.2,1.019-.311,1.516-5.913,26.893-30.173,46.1-58.24,46.1-1.873,0-3.712-.081-5.536-.257-.817-.065-1.636-.161-2.453-.264C342.165,53.786,320.153,29.074,320.15-.129Z" transform="translate(-320.15 61.586)"/><path class="k" d="M564.52-17.063c-.2.608-.368,1.218-.541,1.834-8.5,31.171,10.383,63.194,42.182,71.528a60.737,60.737,0,0,0,31.244-.122,57.68,57.68,0,0,0,6.959-2.356C672.62,42.3,688.263,11.7,679.407-17.015L564.52-17.039Z" transform="translate(-198.667 61.584)"/></g><g class="b" transform="translate(246.698)"><path class="l" d="M634.467-145.888a123.11,123.11,0,0,0-13.9-57.242c-4.366-8.3-8.349-13.46-11.449-16.626a8.177,8.177,0,0,0-9.323-1.839,8.4,8.4,0,0,0-3.27,2.109,74.155,74.155,0,0,0-11.162,16.012,123.617,123.617,0,0,0-14.614,58.812v12.315h-7.9V-275.453a192.237,192.237,0,0,0-19.864-85.864c-6.23-12.437-11.914-20.166-16.289-24.916a11.294,11.294,0,0,0-15.938-1.04,11.455,11.455,0,0,0-1.038,1.04c-5.921,6.436-11.261,14.94-15.93,23.985-13.828,26.814-20.852,57.242-20.852,88.128v141.774h-6.829v-12.9A123.609,123.609,0,0,0,451.5-204.064a74.541,74.541,0,0,0-11.163-16.011,8.18,8.18,0,0,0-9.486-1.734l.287.156a8.421,8.421,0,0,0-2.667,1.864c-3.066,3.164-7.048,8.323-11.447,16.624a123.112,123.112,0,0,0-13.9,57.242V68.033h24.368l-2.658,17.59v52.589h19.921V85.624l-2.658-17.59h24.018V-126.811h6.829V67.159H492.4l-2.8,18.457v52.6h19.928V85.624l-2.8-18.457H532.96l-2.8,18.457v52.589h19.928V85.624l-2.8-18.457h15.538V-126.811h7.9V68.328h6.4v-.294h21.172l-2.657,17.59v52.589h19.928V85.624l-2.657-17.59h21.548Z" transform="translate(-403.118 390.078)"/></g><path class="m" d="M439.776-72.622H420.91l3.369-22.905h12.127Z" transform="translate(-147.48 538.069)"/><g class="n" transform="translate(275.859 445.232)"><path d="M422.527-87.333h14.008l-.94-6.4H423.467Z" transform="translate(-422.527 93.736)"/></g><path class="m" d="M547.414-72.622H528.548l3.369-22.905h12.128Z" transform="translate(-93.4 538.069)"/><g class="n" transform="translate(437.577 445.232)"><path d="M530.165-87.333h14.008l-.94-6.4H531.105Z" transform="translate(-530.165 93.736)"/></g><path class="m" d="M480.595-72.622H461.721l3.369-22.905h12.135Z" transform="translate(-126.976 538.069)"/><g class="n" transform="translate(337.174 445.232)"><path d="M463.337-87.333h14.016l-.941-6.4H464.278Z" transform="translate(-463.337 93.736)"/></g><path class="m" d="M506.151-72.622H487.286l3.369-22.905h12.127Z" transform="translate(-114.131 538.069)"/><g class="n" transform="translate(375.583 445.232)"><path d="M488.9-87.333h14.016l-.948-6.4H489.843Z" transform="translate(-488.902 93.736)"/></g><rect class="m" width="134.765" height="5.389" transform="translate(292.296 253.192)"/><path class="o" d="M548.956-277.4a7.6,7.6,0,0,0-10.731-.53c-.185.168-.362.346-.529.53a72.32,72.32,0,0,0-10.566,15.586A123.137,123.137,0,0,0,513.3-204.568V2.886h59.637V-205.428a122.657,122.657,0,0,0-13.173-55.777C555.63-269.285,551.86-274.314,548.956-277.4Z" transform="translate(-101.059 445.437)"/><path class="o" d="M431.233-277.4a7.6,7.6,0,0,1,10.73-.53c.187.168.362.346.531.53a72.345,72.345,0,0,1,10.565,15.586,123.139,123.139,0,0,1,13.828,57.242V2.886H407.232V-205.428a122.663,122.663,0,0,1,13.175-55.777C424.537-269.285,428.307-274.314,431.233-277.4Z" transform="translate(-154.352 445.437)"/><path class="m" d="M407.456-227.385l14.147.065v17.451H407.456Z" transform="translate(-154.24 471.819)"/><path class="m" d="M437.506-227.385l14.147.065v17.451H437.506Z" transform="translate(-139.142 471.819)"/><path class="m" d="M513.3-227.385l14.155.065v17.451H513.3Z" transform="translate(-101.062 471.819)"/><path class="m" d="M543.347-227.385l14.156.065v17.451H543.347Z" transform="translate(-85.964 471.819)"/><g class="n" transform="translate(279.123 165.28)"><path d="M444.259-261.993a72.172,72.172,0,0,0-10.565-15.586,7.573,7.573,0,0,0-8.995-1.692,8.052,8.052,0,0,1,2.273,1.692,72.44,72.44,0,0,1,10.565,15.586,123.157,123.157,0,0,1,13.828,57.242V2.688H458.1V-204.725A123.152,123.152,0,0,0,444.259-261.993Z" transform="translate(-424.699 280.069)"/></g><g class="n" transform="translate(411.547 165.841)"><path d="M532.728-261.608a72.1,72.1,0,0,1,10.565-15.586,8.032,8.032,0,0,1,2.608-1.865,7.581,7.581,0,0,0-8.667,1.865,72.386,72.386,0,0,0-10.565,15.586,123.14,123.14,0,0,0-13.828,57.243V3.073h6.068V-204.333A123.143,123.143,0,0,1,532.728-261.608Z" transform="translate(-512.839 279.696)"/></g><rect class="p" width="18.865" height="51.207" transform="translate(273.43 465.447)"/><rect class="q" width="18.865" height="51.207" transform="translate(334.745 465.447)"/><rect class="q" width="18.865" height="51.207" transform="translate(373.155 465.447)"/><rect class="p" width="18.865" height="51.207" transform="translate(435.148 465.447)"/><path class="r" d="M502.109-385.239a10.5,10.5,0,0,0-14.794-1.276,10.579,10.579,0,0,0-1.274,1.276c-5.6,6.264-10.631,14.548-15.078,23.363-13.084,26.118-19.74,55.763-19.74,85.823v332.9h85.119V-277.395c0-29.21-6.354-58.06-18.807-83.582C511.636-373.088,506.256-380.612,502.109-385.239Z" transform="translate(-132.251 390.63)"/><rect class="p" width="44.412" height="20.354" rx="5.987" transform="translate(338.736 42.369)"/><g class="b" transform="translate(111.291 437.334)"><path class="s" d="M761.524-25.266h0a67.873,67.873,0,0,0-78.065-55.853A67.871,67.871,0,0,0,626.693-13.76v1h0a62.569,62.569,0,0,0-7.442,1.594A62.018,62.018,0,0,0,502.64-21.724a61.309,61.309,0,0,0-17.106-3.909h0a67.416,67.416,0,0,0-4.67-15.415,61.986,61.986,0,0,0-65.9-57.81,61.984,61.984,0,0,0-57.681,56.176,67.36,67.36,0,0,0-6.068,21.563h0a62.052,62.052,0,0,0-35.564,75.234H812.5a62.033,62.033,0,0,0-50.977-79.379Z" transform="translate(-312.992 98.993)"/></g><circle class="t" cx="59.557" cy="59.557" r="59.557" transform="translate(159.379 555.1) rotate(-85.935)"/><circle class="u" cx="65.215" cy="65.215" r="65.215" transform="translate(157.498 457.032)"/><circle class="u" cx="65.215" cy="65.215" r="65.215" transform="translate(422.531 457.032)"/><circle class="v" cx="59.557" cy="59.557" r="59.557" transform="translate(424.91 468.35)"/><path class="w" d="M556.432-11.236A59.447,59.447,0,0,1,531.8,37.011h-69.86A59.581,59.581,0,0,1,448.555-46.18a59.58,59.58,0,0,1,83.189-13.387,59.581,59.581,0,0,1,24.68,48.33Z" transform="translate(-139.267 550.46)"/><path class="x" d="M506.077,9.352a59.263,59.263,0,0,1-2.551,17.27H389.508m0-.041A59.554,59.554,0,0,1,446.162-50.2h.368q2.5,0,4.962.2a58.961,58.961,0,0,1,16.429,3.753,59.572,59.572,0,0,1,38.156,55.6Z" transform="translate(-164.545 560.84)"/><path class="y" d="M605.575,17.277q0,2.675-.237,5.292a.155.155,0,0,1,0,.074H486.7c-.164-1.767-.245-3.558-.245-5.356a59.5,59.5,0,0,1,50.635-58.879,60.2,60.2,0,0,1,8.9-.67c1.52,0,3.034.057,4.53.164a59.606,59.606,0,0,1,49.8,34.949c.245.541.482,1.088.7,1.636A59.281,59.281,0,0,1,605.575,17.277Z" transform="translate(-114.549 564.83)"/><path class="z" d="M680.484,9.35a59.292,59.292,0,0,1-2.551,17.27h-114a59.948,59.948,0,0,1-1.529-28.244c.1-.515.2-1.04.311-1.546A59.581,59.581,0,0,1,620.959-50.2c1.874,0,3.713.083,5.537.261.818.066,1.636.164,2.454.27A59.565,59.565,0,0,1,680.484,9.35Z" transform="translate(-76.896 560.843)"/><path class="aa" d="M436.135,26.641c.2-.622.368-1.244.541-1.874a59.6,59.6,0,0,0-73.427-72.844,56.659,56.659,0,0,0-6.959,2.4,59.614,59.614,0,0,0-34.165,72.288h114.01Z" transform="translate(-198.399 560.831)"/><g class="b" transform="translate(570.028 443.131)"><circle class="ab" cx="10.925" cy="10.925" r="10.925" transform="translate(0 0)"/></g><circle class="p" cx="10.124" cy="10.124" r="10.124" transform="translate(570.829 443.932)"/><g class="b" transform="translate(619.068 547.557)"><circle class="ac" cx="11.915" cy="11.915" r="11.915" transform="translate(0 0)"/></g><circle class="ad" cx="11.318" cy="11.318" r="11.318" transform="translate(619.665 548.154)"/><g class="b" transform="translate(108.074 478.482)"><circle class="ae" cx="13.092" cy="13.092" r="13.092" transform="translate(0 0)"/></g><circle class="af" cx="12.503" cy="12.503" r="12.503" transform="translate(108.662 479.071)"/><circle class="ag" cx="4.171" cy="4.171" r="4.171" transform="translate(586.906 238.457)"/><circle class="ag" cx="4.171" cy="4.171" r="4.171" transform="translate(30.837 348.035)"/><circle class="ag" cx="4.171" cy="4.171" r="4.171" transform="translate(748.002 371.75)"/><circle class="ag" cx="4.171" cy="4.171" r="4.171" transform="translate(231.938 174.132)"/><circle class="ag" cx="4.171" cy="4.171" r="4.171" transform="translate(218.241 78.243)"/><circle class="ag" cx="4.171" cy="4.171" r="4.171" transform="translate(100.313 268.231)"/><path class="ag" d="M704.1-204.272H700.39v-3.7h-1.513v3.7h-3.713v1.521h3.713v3.7h1.513v-3.7H704.1Z" transform="translate(-9.687 481.571)"/><path class="ag" d="M569.321-337.461h-3.713v-3.712H564.1v3.712h-3.713v1.513H564.1v3.712h1.513v-3.712h3.713Z" transform="translate(-77.405 414.649)"/><path class="ag" d="M677.141-218.145h-3.713v-3.7h-1.513v3.7h-3.7v1.521h3.7v3.7h1.513v-3.7h3.713Z" transform="translate(-23.229 474.6)"/><path class="ag" d="M586.758-136.089h-3.7v-3.7H581.54v3.7h-3.713v1.521h3.713v3.7h1.513v-3.7h3.7Z" transform="translate(-68.64 515.828)"/><path class="ag" d="M333.853-305.356H330.14v-3.7h-1.513v3.7h-3.712v1.513h3.712v3.712h1.513v-3.712h3.713Z" transform="translate(-195.711 430.783)"/><path class="ag" d="M247.856-273.243h-3.713v-3.7h-1.513v3.7h-3.713v1.513h3.713v3.713h1.513v-3.713h3.713Z" transform="translate(-238.918 446.918)"/><path class="ag" d="M367.939-172.156h-3.713v-3.713h-1.513v3.713h-3.7v1.513h3.7v3.713h1.513v-3.713h3.713Z" transform="translate(-178.581 497.703)"/><path class="ah" d="M11.318,0A11.318,11.318,0,1,1,0,11.318,11.318,11.318,0,0,1,11.318,0Z" transform="translate(619.665 548.154)"/><g class="n" transform="translate(319.404 125.959)"><rect width="84.228" height="3.271"/></g></g><g class="ai" transform="translate(63.853 -44.739)"><path class="aj" d="M665.1,154.562a29.466,29.466,0,0,1-27.6,29.41c-.618.043-1.243.064-1.868.064a29.466,29.466,0,1,1,14.736-54.994h0a29.724,29.724,0,0,1,8.781,7.773h0A29.315,29.315,0,0,1,665.1,154.562Z" transform="translate(-606.187 -125.104)"/><path class="ak" d="M624.887,133.417a32.161,32.161,0,0,0-4.394,2.315,6.951,6.951,0,0,0-2.349,2.13,2.767,2.767,0,0,0-.057,3c.711.979,2.13,1.136,3.315,1.2a6.291,6.291,0,0,0,6.02-1.988l2.534-2.3c.88-.794,1.845-1.9,1.462-3.017a2.547,2.547,0,0,0-2.13-1.42,8.937,8.937,0,0,0-6.338,1.115" transform="translate(-602.693 -122.65)"/><circle class="ak" cx="1.548" cy="1.548" r="1.548" transform="translate(10.063 39.546)"/><circle class="ak" cx="5.686" cy="5.686" r="5.686" transform="translate(37.464 25.583)"/><path class="ak" d="M650.424,135.9h0a7.759,7.759,0,1,1-8.781-7.808h0A29.734,29.734,0,0,1,650.424,135.9Z" transform="translate(-597.45 -124.195)"/><path class="ak" d="M652.438,161.346a29.4,29.4,0,0,1-22.225,12.437c-.037-.4-.058-.816-.058-1.229a13.963,13.963,0,0,1,22.283-11.208Z" transform="translate(-598.895 -114.915)"/></g></g></svg>