<svg xmlns="http://www.w3.org/2000/svg" xmlns:xlink="http://www.w3.org/1999/xlink" width="2173.942" height="1329.885" viewBox="0 0 2173.942 1329.885"><defs><style>.a{fill:#0865ab;}.b{opacity:0.3;}.c,.q{fill:#dadce0;}.c{isolation:isolate;}.d{opacity:0.7;}.e{fill:#ed7015;}.ab,.f,.z{fill:#eeae1d;}.g{fill:#fff;}.h{fill:#ef7015;}.i{fill:#ee991a;}.j{fill:#ff6584;}.k{fill:#fe6483;}.l{fill:#f8f9fa;}.l,.n,.r,.v,.z{opacity:0.1;}.m{fill:#e8eaed;}.o{fill:#f1f3f4;}.p{fill:#252525;}.r{fill:#80868b;}.s,.w{fill:#444053;}.t,.y{fill:#3f3d56;}.t{opacity:0.2;}.u{fill:#ee8e9e;}.w{opacity:0.6;}.x{fill:#2175b4;}.aa{fill:url(#a);}.ab{opacity:0.828;}.ac{fill:#a26565;}.ad{fill:#efb7b9;}</style><linearGradient id="a" x1="0.5" y1="1" x2="0.5" gradientUnits="objectBoundingBox"><stop offset="0" stop-color="gray" stop-opacity="0.251"/><stop offset="0.54" stop-color="gray" stop-opacity="0.122"/><stop offset="1" stop-color="gray" stop-opacity="0.102"/></linearGradient></defs><g transform="translate(0 688.33)"><rect class="a" width="1920" height="719" transform="translate(0 -107)"/><g class="b" transform="translate(818.011 91.338)"><circle class="c" cx="5.628" cy="5.628" r="5.628" transform="translate(792.076 222.655)"/><circle class="c" cx="5.628" cy="5.628" r="5.628" transform="translate(41.617 370.536)"/><circle class="c" cx="5.628" cy="5.628" r="5.628" transform="translate(1009.487 402.543)"/><circle class="c" cx="5.628" cy="5.628" r="5.628" transform="translate(313.018 135.844)"/><circle class="c" cx="5.628" cy="5.628" r="5.628" transform="translate(294.531 6.431)"/><circle class="c" cx="5.628" cy="5.628" r="5.628" transform="translate(135.38 262.837)"/><path class="c" d="M707.227-202.977h-5.01v-5h-2.042v5h-5.01v2.053h5.01v5h2.042v-5h5.01Z" transform="translate(229.941 478.051)"/><path class="c" d="M748.592-288.429h-5.01v-5H741.54v5h-5.01v2.053h5.01v5h2.042v-5h5.01Z" transform="translate(272.45 390.237)"/><path class="c" d="M572.446-336.163h-5.01v-5.01h-2.041v5.01h-5.011v2.042h5.011v5.01h2.041v-5.01h5.01Z" transform="translate(91.433 341.173)"/><path class="c" d="M680.263-216.85h-5.01v-5h-2.042v5h-5v2.053h5v5h2.042v-5h5.01Z" transform="translate(202.243 463.794)"/><path class="c" d="M589.879-134.794h-5v-5h-2.041v5h-5.01v2.052h5.01v5h2.041v-5h5Z" transform="translate(109.36 548.118)"/><path class="c" d="M336.978-304.061h-5.01v-5h-2.042v5h-5.01v2.042h5.01v5.01h2.042v-5.01h5.01Z" transform="translate(-150.545 374.174)"/><path class="c" d="M250.981-271.948h-5.01v-5h-2.042v5h-5.01v2.042h5.01v5.01h2.042v-5.01h5.01Z" transform="translate(-238.918 407.175)"/><path class="c" d="M371.06-170.858h-5.01v-5.01h-2.042v5.01h-5v2.042h5v5.01h2.042v-5.01h5.01Z" transform="translate(-115.508 511.045)"/></g><g class="d" transform="translate(425.117 185.259)"><g transform="translate(94.573 -873.59)"><path class="e" d="M15.711,11.623,9.289,7.535l4.088-6.423L11.623,0,7.538,6.423,1.116,2.335,0,4.085,6.423,8.173,2.335,14.6l1.753,1.116L8.173,9.289,14.6,13.374Z" transform="translate(598.443 298.519)"/><path class="e" d="M15.711,11.623,9.289,7.535l4.088-6.423L11.623,0,7.538,6.423,1.115,2.335,0,4.085,6.423,8.173,2.335,14.6l1.753,1.116L8.173,9.289,14.6,13.374Z" transform="translate(1345.424 772.146)"/><path class="f" d="M20.462,15.138,12.1,9.814l5.324-8.365L15.138,0,9.818,8.365,1.453,3.041,0,5.32l8.365,5.324L3.041,19.009l2.283,1.453,5.32-8.365,8.365,5.32Z" transform="translate(319.128 661.269)"/><path class="e" d="M15.711,11.623,9.289,7.535l4.088-6.423L11.623,0,7.538,6.423,1.115,2.335,0,4.085,6.423,8.173,2.335,14.6l1.753,1.116L8.173,9.289,14.6,13.374Z" transform="translate(911.27 1003.034)"/><path class="f" d="M15.711,11.623,9.289,7.535l4.088-6.423L11.623,0,7.538,6.423,1.116,2.335,0,4.085,6.423,8.173,2.335,14.6l1.753,1.116L8.173,9.289,14.6,13.374Z" transform="translate(280.972 876.917)"/><path class="e" d="M15.711,11.623,9.289,7.535l4.088-6.423L11.623,0,7.538,6.423,1.115,2.335,0,4.085,6.423,8.173,2.335,14.6l1.753,1.116L8.173,9.289,14.6,13.374Z" transform="translate(1638.541 738.439)"/><path class="g" d="M15.711,11.623,9.289,7.535l4.088-6.423L11.623,0,7.538,6.423,1.116,2.335,0,4.085,6.423,8.173,2.335,14.6l1.753,1.115L8.173,9.289,14.6,13.374Z" transform="translate(211.942 740.959)"/><path class="g" d="M22,16.271,13,10.552l5.722-8.993L16.274,0,10.552,8.99,1.562,3.268,0,5.722l8.993,5.719L3.271,20.434,5.722,22,11.444,13l8.99,5.722Z" transform="translate(750.989 650.001)"/><circle class="e" cx="9.427" cy="9.427" r="9.427" transform="translate(0 557.691)"/><circle class="e" cx="9.427" cy="9.427" r="9.427" transform="translate(705.281 194.822)"/><circle class="e" cx="6.037" cy="6.037" r="6.037" transform="translate(594.076 654.957)"/><circle class="e" cx="6.285" cy="6.285" r="6.285" transform="translate(614.155 575.039)"/><circle class="h" cx="6.285" cy="6.285" r="6.285" transform="translate(1326.112 922.327)"/><circle class="i" cx="6.285" cy="6.285" r="6.285" transform="translate(629.501 853.067)"/><circle class="j" cx="6.285" cy="6.285" r="6.285" transform="translate(689.57)"/><circle class="e" cx="6.285" cy="6.285" r="6.285" transform="translate(431.902 292.233)"/><circle class="g" cx="6.285" cy="6.285" r="6.285" transform="translate(510.46 81.7)"/><circle class="e" cx="9.427" cy="9.427" r="9.427" transform="translate(1446.861 644.169)"/><circle class="j" cx="18.142" cy="18.142" r="18.142" transform="translate(1014.321 643.556)"/><circle class="g" cx="9.427" cy="9.427" r="9.427" transform="translate(1041.506 559.327)"/><circle class="k" cx="4.585" cy="4.585" r="4.585" transform="translate(65.139 742.605)"/><circle class="f" cx="9.674" cy="9.674" r="9.674" transform="translate(399.353 956.234)"/><circle class="j" cx="9.674" cy="9.674" r="9.674" transform="translate(1512.045 700.49)"/></g><g transform="translate(850.689 120.406)"><circle class="g" cx="9.675" cy="9.675" r="9.675"/></g></g><path class="l" d="M1246.69,606.347c19.285,143.525-6.975,287.207-140.546,343.156s-287.207-6.975-343.156-140.546S839.047,595.465,903.534,465.8C1034.487,202.491,1186.8,160.632,1246.69,606.347Z" transform="translate(381.405 -328.53)"/><g transform="translate(1103.908 206.725)"><path class="m" d="M570.41,712.612l-101.23-1.3.3-2.6,4.9-42.828h88.9l6.541,42.828.5,3.245Z" transform="translate(-221.795 -317.064)"/><path class="n" d="M570.312,751.635H519.8l-50.615-.649.3-2.6H569.813Z" transform="translate(-221.795 -356.736)"/><rect class="o" width="134.325" height="3.245" transform="translate(230.513 392.303)"/><path class="p" d="M614.243,196.728a8.446,8.446,0,0,0-8.4-8.488H230.71a8.446,8.446,0,0,0-8.41,8.488V424.106H614.243Z" transform="translate(-121.247 -105.141)"/><path class="o" d="M222.3,638.24v26.631a8.41,8.41,0,0,0,8.41,8.41H605.838a8.41,8.41,0,0,0,8.4-8.41V638.24Z" transform="translate(-121.248 -321.533)"/><path class="q" d="M0,0H361.444V204.407H0Z" transform="translate(117.275 97.375)"/><path class="f" d="M595.455,670.082a8.768,8.768,0,0,0,6.894-3.343h0a8.936,8.936,0,0,0,.68-1l-4.807-.789,5.191.042a8.747,8.747,0,0,0,.166-6.946l-6.972,3.634,6.432-4.724a8.758,8.758,0,1,0-14.468,9.8h0A8.758,8.758,0,0,0,595.455,670.082Z" transform="translate(-296.484 -328.441)"/><path class="r" d="M585.43,671.52l40.383,40.554L619.62,671.52Z" transform="translate(-277.697 -319.771)"/><rect class="g" width="237.242" height="142.241" rx="2.6" transform="translate(127.891 134.254)"/><rect class="g" width="361.314" height="11.94" transform="translate(117.509 97.396)"/><rect class="e" width="10.383" height="7.268" rx="0.78" transform="translate(119.066 99.473)"/><rect class="m" width="109.017" height="7.268" rx="0.58" transform="translate(242.619 99.473)"/><path class="s" d="M694.933,224.859h-.265l-.1-.083a2.206,2.206,0,0,0,.519-1.412,2.149,2.149,0,1,0-2.144,2.165,2.217,2.217,0,0,0,1.412-.519l.1.083v.27l1.661,1.661.519-.519Zm-1.994,0a1.5,1.5,0,1,1,1.5-1.5,1.485,1.485,0,0,1-1.5,1.5Z" transform="translate(-346.531 -121.005)"/><circle class="e" cx="3.634" cy="3.634" r="3.634" transform="translate(469.998 99.473)"/><rect class="g" width="33.743" height="22.842" rx="2.43" transform="translate(382.265 122.314)"/><rect class="g" width="43.607" height="3.634" rx="0.61" transform="translate(424.833 122.314)"/><rect class="g" width="43.607" height="3.634" rx="0.61" transform="translate(424.833 130.101)"/><rect class="g" width="43.607" height="3.634" rx="0.61" transform="translate(424.833 137.888)"/><rect class="g" width="33.743" height="22.842" rx="2.43" transform="translate(382.265 158.134)"/><rect class="g" width="43.607" height="3.634" rx="0.61" transform="translate(424.833 158.134)"/><rect class="g" width="43.607" height="3.634" rx="0.61" transform="translate(424.833 165.921)"/><rect class="g" width="43.607" height="3.634" rx="0.66" transform="translate(424.833 173.708)"/><rect class="g" width="33.743" height="22.842" rx="2.43" transform="translate(382.265 193.954)"/><rect class="g" width="43.607" height="3.634" rx="0.66" transform="translate(424.833 193.954)"/><rect class="g" width="43.607" height="3.634" rx="0.66" transform="translate(424.833 201.741)"/><rect class="g" width="43.607" height="3.634" rx="0.66" transform="translate(424.833 209.528)"/><rect class="g" width="33.743" height="22.842" rx="2.43" transform="translate(382.265 229.774)"/><rect class="g" width="43.607" height="3.634" rx="0.66" transform="translate(424.833 229.774)"/><rect class="g" width="43.607" height="3.634" rx="0.66" transform="translate(424.833 237.561)"/><rect class="g" width="43.607" height="3.634" rx="0.66" transform="translate(424.833 245.348)"/><rect class="g" width="33.743" height="22.842" rx="2.43" transform="translate(382.265 265.594)"/><rect class="g" width="43.607" height="3.634" rx="0.66" transform="translate(424.833 265.594)"/><rect class="g" width="43.607" height="3.634" rx="0.66" transform="translate(424.833 273.381)"/><rect class="g" width="43.607" height="3.634" rx="0.66" transform="translate(424.833 281.168)"/><g transform="translate(279.15 164.436)"><rect class="m" width="53.382" height="2.767" transform="translate(0 14.629)"/><g transform="translate(4.745 0)"><rect class="o" width="5.139" height="14.629"/><rect class="m" width="5.139" height="1.583" transform="translate(0 2.767)"/><rect class="m" width="5.139" height="1.583" transform="translate(0 9.884)"/><g transform="translate(7.512)"><rect class="o" width="5.139" height="14.629"/><rect class="m" width="5.139" height="1.583" transform="translate(0 2.767)"/><rect class="m" width="5.139" height="1.583" transform="translate(0 9.884)"/></g><g transform="translate(15.024)"><rect class="o" width="5.139" height="14.629"/><rect class="m" width="5.139" height="1.583" transform="translate(0 2.767)"/><rect class="m" width="5.139" height="1.583" transform="translate(0 9.884)"/></g><g transform="translate(22.541)"><rect class="o" width="5.139" height="14.629"/><rect class="m" width="5.139" height="1.583" transform="translate(0 2.767)"/><rect class="m" width="5.139" height="1.583" transform="translate(0 9.884)"/></g><g transform="translate(30.052)"><rect class="o" width="5.139" height="14.629"/><rect class="m" width="5.139" height="1.583" transform="translate(0 2.767)"/><rect class="m" width="5.139" height="1.583" transform="translate(0 9.884)"/></g><g transform="translate(37.564)"><rect class="o" width="5.139" height="14.629"/><rect class="m" width="5.139" height="1.583" transform="translate(0 2.767)"/><rect class="m" width="5.139" height="1.583" transform="translate(0 9.884)"/></g></g></g><path class="m" d="M400.211,398.574a14.769,14.769,0,0,1-1.09-1.6l7.688-1.261-8.306.062a14.048,14.048,0,0,1-.27-11.1l11.135,5.773-10.284-7.559a14.016,14.016,0,1,1,23.138,15.678,13.625,13.625,0,0,1,1.6,2.554l-9.978,5.191,10.637-3.566a14.016,14.016,0,0,1-2.258,13.139,14.016,14.016,0,1,1-22.011,0,14.016,14.016,0,0,1,0-17.323Z" transform="translate(-205.352 -195.338)"/><path class="m" d="M425.221,436.149a13.961,13.961,0,0,1-3,8.65,14.016,14.016,0,1,1-22.01,0C398.325,442.425,425.221,434.576,425.221,436.149Z" transform="translate(-205.351 -224.253)"/><path class="t" d="M423.673,500.182a1.307,1.307,0,0,1,.068.114h-4.755c.026-.036.042-.078.068-.114a4.6,4.6,0,0,1-.613-2.341,4.806,4.806,0,0,1,.285-1.651h0c.265.042.592.088.971.13a16.661,16.661,0,0,0,3.317,0q.478-.047.981-.125a.048.048,0,0,0,0,.026,4.672,4.672,0,0,1,.28,1.625A4.6,4.6,0,0,1,423.673,500.182Z" transform="translate(-215.565 -253.225)"/><path class="m" d="M360.879,456.087H334.4c-.057-.151-.109-.311-.156-.467a13.938,13.938,0,0,1,.306-9.157,14.017,14.017,0,0,1-5.113-16.555,13.408,13.408,0,0,1-1.511-1.21l6.967-3.473-7.922,2.513a14.016,14.016,0,0,1-3.53-10.523l12.36,2.232-12.054-4.189a14.016,14.016,0,1,1,26.73,8.15,14.2,14.2,0,0,1,2.3,2l-8.005,7.9,9.111-6.551a14.017,14.017,0,0,1,1.724,13.238A14.017,14.017,0,0,1,360.879,456.087Z" transform="translate(-169.862 -209.015)"/><path class="m" d="M370.349,480.581H343.873c-.057-.151-.109-.311-.156-.467a13.939,13.939,0,0,1,.306-9.157c-2.492-1.724,20.885-17.168,21.347-15.662a13.954,13.954,0,0,1-.306,9.163,14.016,14.016,0,0,1,5.285,16.124Z" transform="translate(-179.331 -233.51)"/><path class="m" d="M586.082,447.933a13.965,13.965,0,0,1-7.014,5.9,14.221,14.221,0,0,1,.057,3.011l-11.218-.675,10.959,2.378a14.016,14.016,0,0,1-1.672,4.236,13.793,13.793,0,0,1-3.738,4.1H558.184v.4H542.61c.031-.135.062-.265.1-.4a14.016,14.016,0,0,1,8.54-9.505,14.016,14.016,0,0,1,8.893-14.868,14.2,14.2,0,0,1-.114-1.936l7.242,2.86-7.164-4.21a14.016,14.016,0,0,1,5.5-9.645l6.6,10.684L567.253,428.5a14.017,14.017,0,0,1,18.829,19.436Z" transform="translate(-275.275 -219.83)"/><path class="m" d="M577.194,490.5a13.793,13.793,0,0,1-3.738,4.1H558.184v.4H542.61c.031-.135.062-.265.1-.4a14.016,14.016,0,0,1,8.54-9.505c-.13-1.038,2.886-.883,6.91-.208C566.043,486.215,577.729,489.61,577.194,490.5Z" transform="translate(-275.275 -247.532)"/><path class="u" d="M478.433,423.459s1.921,10.383-2.367,13.772,3.634,23.709,16.706,21.336,18.4-19.415,18.4-19.415-13.092-2.71-8.239-16.482Z" transform="translate(-242.713 -217.871)"/><path class="n" d="M478.433,423.459s1.921,10.383-2.367,13.772,3.634,23.709,16.706,21.336,18.4-19.415,18.4-19.415-13.092-2.71-8.239-16.482Z" transform="translate(-242.713 -217.871)"/><circle class="u" cx="21.674" cy="21.674" r="21.674" transform="translate(225.618 169.861)"/><path class="f" d="M506.317,462.136v14.733H434.75V462.805a9.075,9.075,0,0,1,5.54-8.358l2.05-.872c5.191-2.211,11.5-4.958,13.56-6.1a3.393,3.393,0,0,0,.633-.41c1.126-1.127.9.337.9.337s-.031.28-.052.763c-.125,3.317.353,16.353,15.631,15.268,14.9-1.038,15.574-11.12,15.423-14.084a8.019,8.019,0,0,0-.067-.82,19.256,19.256,0,0,1,3.016.986c3.115,1.152,7.714,3,8.945,3.873.384.27.851.55,1.36.836a8.946,8.946,0,0,1,1.609,1.147A9.09,9.09,0,0,1,506.317,462.136Z" transform="translate(-223.408 -229.397)"/><path class="n" d="M510.967,449.516c-1.261,5.845-5.222,16.794-19.5,17.079-15.21.3-16.093-14.826-15.994-19.12a3.068,3.068,0,0,0,.639-.41c1.132-1.126.9.337.9.337s-1.916,17.271,15.574,16.031,15.34-14.9,15.34-14.9A21.327,21.327,0,0,1,510.967,449.516Z" transform="translate(-242.989 -229.397)"/><path class="p" d="M453.222,366.421a3.712,3.712,0,0,1,3.909,1.428,7.084,7.084,0,0,1,1.007,3.717c.94.2,1.469-.867,1.557-1.672.348-3.276.374-6.614,1.474-9.78a11.675,11.675,0,0,1,7.2-7.439,8.348,8.348,0,0,1,3.93-.374c.784.13,1.521.4,2.3.519,2.7.446,5.633-.831,8.161.057a6.507,6.507,0,0,1,3.338,3.146,6.792,6.792,0,0,0,1.3,1.884c1.075.966,2.757,1.215,4.3,1.516s3.224.825,3.883,2.014c.592,1.075.156,2.315-.042,3.478a8.524,8.524,0,0,0,.877,5.383c.285.519.867,1.147,1.557.976a1.365,1.365,0,0,0,.737-.6c1.77-2.481,1.723-5.71,3.945-7.948.742-.748,1.7-1.329,2.424-2.077a4.714,4.714,0,0,0,1.256-4.278c-.4-1.713-1.77-3.115-2.876-4.62a18.168,18.168,0,0,1-3.078-6.391,1.158,1.158,0,0,1,0-.836,2.226,2.226,0,0,1,.789-.644,2.98,2.98,0,0,0,1.007-3.805,6.344,6.344,0,0,0-3.566-2.84,23.26,23.26,0,0,0-4.864-1.038,2.645,2.645,0,0,1-2.7-1.334c-.151-.389-.151-.81-.3-1.2a2.751,2.751,0,0,0-2.077-1.454,6.073,6.073,0,0,0-2.777.2c-1.038.291-2.217.727-3.115.218-.472-.265-.732-.748-1.241-.966-1.038-.436-2.108.446-2.85,1.173a6.936,6.936,0,0,1-2.57,1.729,3.826,3.826,0,0,1-3.187-.213,10.062,10.062,0,0,1-1.635-1.755,6.157,6.157,0,0,0-3.868-1.557,13.615,13.615,0,0,0-4.366.478,26.361,26.361,0,0,0-7.668,3.219,8.239,8.239,0,0,0-2.943,2.736,6.23,6.23,0,0,0-.659,2.819,10.173,10.173,0,0,0,3.556,8.446c-1.62.675-2.165,2.331-2.544,3.8a20.8,20.8,0,0,0-.986,7.117,15.632,15.632,0,0,1,.27,3.7,7.973,7.973,0,0,0-.239,1.77A1.7,1.7,0,0,0,453.222,366.421Z" transform="translate(-231.586 -173.801)"/><g class="v" transform="translate(220.203 165.039)"><path d="M546.42,378a5.067,5.067,0,0,1-.934,1.381c-.722.758-1.682,1.345-2.424,2.077-2.222,2.222-2.175,5.472-3.945,7.953a1.334,1.334,0,0,1-.737.592c-.675.177-1.256-.436-1.557-.976a8.932,8.932,0,0,1-.773-2.076l-.1.519a8.524,8.524,0,0,0,.877,5.383c.286.519.867,1.147,1.557.976a1.365,1.365,0,0,0,.737-.6c1.77-2.481,1.724-5.71,3.945-7.948.742-.748,1.7-1.329,2.424-2.077a4.714,4.714,0,0,0,1.256-4.278A5.578,5.578,0,0,0,546.42,378Z" transform="translate(-492.217 -361.429)"/><path d="M546.107,347.871a2.175,2.175,0,0,0-.789.644,1.147,1.147,0,0,0,0,.831,17.555,17.555,0,0,0,.784,2.367h0a2.98,2.98,0,0,0,1.007-3.805,3.626,3.626,0,0,0-.363-.607A2.988,2.988,0,0,1,546.107,347.871Z" transform="translate(-496.743 -346.667)"/><path d="M455.4,352.1a9.625,9.625,0,0,1-3.4-6.017,8.109,8.109,0,0,0-.156,1.412,10.808,10.808,0,0,0,1.708,6.422A3.634,3.634,0,0,1,455.4,352.1Z" transform="translate(-451.825 -346.08)"/><path d="M495.653,377.174c.2-1.168.633-2.409.042-3.478-.659-1.194-2.341-1.713-3.883-2.014s-3.224-.555-4.3-1.516a6.79,6.79,0,0,1-1.3-1.884,6.428,6.428,0,0,0-3.338-3.146c-2.528-.888-5.461.384-8.161-.057-.779-.13-1.516-.4-2.3-.519a8.306,8.306,0,0,0-3.93.374,11.7,11.7,0,0,0-7.2,7.439c-1.1,3.161-1.127,6.5-1.474,9.78-.088.8-.618,1.869-1.557,1.672a7.141,7.141,0,0,0-1.007-3.722,3.712,3.712,0,0,0-3.909-1.422,1.9,1.9,0,0,1-1.1-.7,6.017,6.017,0,0,1,0,1.433,7.973,7.973,0,0,0-.239,1.77,1.7,1.7,0,0,0,1.355,1.334,3.712,3.712,0,0,1,3.909,1.428,7.084,7.084,0,0,1,1.007,3.717c.94.2,1.469-.867,1.557-1.672.348-3.276.374-6.614,1.474-9.78a11.675,11.675,0,0,1,7.2-7.439,8.347,8.347,0,0,1,3.93-.374c.784.13,1.521.4,2.3.519,2.7.446,5.633-.831,8.161.057a6.508,6.508,0,0,1,3.338,3.146,6.791,6.791,0,0,0,1.3,1.884c1.075.966,2.757,1.215,4.3,1.516s3.115.789,3.805,1.89A.448.448,0,0,1,495.653,377.174Z" transform="translate(-451.911 -354.924)"/><path d="M452.136,383.152a9.862,9.862,0,0,0-.171-2.892,12.881,12.881,0,0,0-.1,3.032,5.519,5.519,0,0,0,.093.774C452.017,383.759,452.095,383.458,452.136,383.152Z" transform="translate(-451.819 -362.516)"/></g><path class="p" d="M403.49,536.292v-9.37a.265.265,0,0,1,.265-.265h1.064a.265.265,0,0,1,.265.265v3.9l4.319-4a.706.706,0,0,1,1.158.519v8.488a.706.706,0,0,1-1.158.519l-4.319-3.977v3.878a.265.265,0,0,1-.265.265h-1.064A.265.265,0,0,1,403.49,536.292Z" transform="translate(-208.376 -267.874)"/><path class="p" d="M597.985,526.938v9.37a.265.265,0,0,1-.27.265h-1.038a.265.265,0,0,1-.265-.265v-3.9l-4.319,4a.711.711,0,0,1-1.163-.519v-8.519a.711.711,0,0,1,1.163-.519l4.319,3.977v-3.873a.265.265,0,0,1,.265-.265h1.038a.265.265,0,0,1,.27.249Z" transform="translate(-298.511 -267.89)"/><path class="f" d="M497.691,536.892h-2.113a1.038,1.038,0,0,1-1.038-1.038V528.1a1.038,1.038,0,0,1,1.038-1.038h2.113a1.038,1.038,0,0,1,1.038,1.038v7.756A1.038,1.038,0,0,1,497.691,536.892Zm6.7-1.038V528.1a1.038,1.038,0,0,0-1.038-1.038h-2.134a1.038,1.038,0,0,0-1.038,1.038v7.756a1.038,1.038,0,0,0,1.038,1.038h2.113a1.038,1.038,0,0,0,1.059-1.038Z" transform="translate(-252.16 -268.069)"/><rect class="w" width="124.591" height="1.386" transform="translate(184.996 246.417)"/><rect class="p" width="38.473" height="1.386" transform="translate(184.996 246.417)"/><ellipse class="x" cx="30.873" cy="5.939" rx="30.873" ry="5.939" transform="translate(469.795 390.984)"/><ellipse class="p" cx="3.592" cy="4.703" rx="3.592" ry="4.703" transform="translate(496.562 389.697)"/><ellipse class="p" cx="3.592" cy="4.703" rx="3.592" ry="4.703" transform="translate(496.562 383.945)"/><ellipse class="p" cx="3.592" cy="4.703" rx="3.592" ry="4.703" transform="translate(496.562 378.198)"/><ellipse class="p" cx="3.592" cy="4.703" rx="3.592" ry="4.703" transform="translate(496.562 372.446)"/><ellipse class="p" cx="3.592" cy="4.703" rx="3.592" ry="4.703" transform="translate(496.562 366.694)"/><ellipse class="y" cx="3.592" cy="4.703" rx="3.592" ry="4.703" transform="translate(496.562 360.942)"/><ellipse class="y" cx="3.592" cy="4.703" rx="3.592" ry="4.703" transform="translate(496.562 355.19)"/><path class="f" d="M988.516,619.816a17.784,17.784,0,0,0,1.339-1.973l-9.448-1.557,10.216.078a17.271,17.271,0,0,0,.327-13.643l-13.695,7.112,12.636-9.287a17.22,17.22,0,1,0-28.438,19.27,17.574,17.574,0,0,0-1.962,3.115l12.262,6.37-13.072-4.387a17.23,17.23,0,0,0,2.772,16.166,17.214,17.214,0,1,0,27.068,0,17.225,17.225,0,0,0,0-21.284Z" transform="translate(-474.912 -299.272)"/><path class="z" d="M957.78,665.9a17.132,17.132,0,0,0,3.681,10.642,17.214,17.214,0,1,0,27.067,0C990.833,673.615,957.78,663.964,957.78,665.9Z" transform="translate(-474.918 -334.709)"/><ellipse class="o" cx="51.394" cy="10.902" rx="51.394" ry="10.902" transform="translate(102.973 413.027)"/><path class="aa" d="M319.411,652.318a13.525,13.525,0,0,0-3.234-.436A10.009,10.009,0,0,1,310.228,649a10.9,10.9,0,0,1-2.378-3.634c.343.125.685.254,1.038.395-1.038-2.424.052-5.145,1.007-7.595q2.429-6.23,4.594-12.527c3.634-10.637,6.749-21.7,6.681-33.017,0-4.091-.753-7.958-.9-12.044-.109-3.032.358-6.058.337-9.1,0-.426,0-.846-.031-1.272a8.062,8.062,0,0,0,2.736-6.572,15.828,15.828,0,0,0-.275-1.91,30.986,30.986,0,0,0-.727-3.25c-.343-1.127-.81-2.206-1.21-3.307-.773-2.134-1.3-4.355-1.957-6.525a2.249,2.249,0,0,1,.706.192,1.521,1.521,0,0,1-.332-.68,16.824,16.824,0,0,1-.623-4.241l.441-.2a11.042,11.042,0,0,0-.213-4.2c.249-2.227.639-4.47.877-6.686.088-.831.052-1.874-.711-2.077-.156-1.189-.218-2.393-.28-3.592q-.327-6.276-.649-12.547c-.218-4.2-.436-8.394-.519-12.6a36.78,36.78,0,0,0-.722-7.984,9.656,9.656,0,0,0-.369-3.634c-.966-3.058-3.966-5.482-7.008-5.311a13.944,13.944,0,0,0-3.317-3.354c.607-1.36,1.334-2.762,1.931-3.862a12.586,12.586,0,0,0,8.431-12.1,13.2,13.2,0,0,0-1.428-6.017,6.5,6.5,0,0,0,.228-.7,5.758,5.758,0,0,0-.234-3.369,9.856,9.856,0,0,0-.519-1.2c-.135-.26-.28-.519-.431-.768l-.265-.4a7.466,7.466,0,0,0-.519-.706,17.2,17.2,0,0,0-1.184-1.422,11.716,11.716,0,0,0-1.7-1.516,7.507,7.507,0,0,0-2.8-1.293,8.546,8.546,0,0,0-1.781-.161c-.358,0-.722,0-1.08.031-.727.042-1.448.093-2.17.088a4.8,4.8,0,0,1-.722-.036,26.287,26.287,0,0,1-3.759-.784l-.623-.13c-.213-.042-.421-.078-.633-.1a11.885,11.885,0,0,0-1.718-.1h-.576a15.919,15.919,0,0,0-1.718.176l-.571.088a16.4,16.4,0,0,0-4.179,1.241c-.171.078-.348.166-.519.26l-.1.057c-.14.073-.28.151-.415.234l-.078.047-.441.28-.036.026c-4.122,2.772-6.557,8.026-7.174,13.238-.69,5.851.519,11.748,1.729,17.505l1.09,5.191c.047.234.1.462.145.7a11.421,11.421,0,0,0-3.421,4.745,20.253,20.253,0,0,0-.981,8.218c0,.571.031,1.142.088,1.713-.13,1.08-.244,2.165-.317,3.255-.327,5.036.285,10.1.125,15.143-.125,3.888-.711,7.787-.426,11.649A52.593,52.593,0,0,0,279.745,541l1.308,4.714a1.251,1.251,0,0,0,.327.649.987.987,0,0,0,.732.151,44.186,44.186,0,0,0-2.128,5.96,18.428,18.428,0,0,0-.768,3.831,23.407,23.407,0,0,0,.929,7.05q1.246,5.191,2.481,10.424.872,3.66,1.739,7.315a77.947,77.947,0,0,1,2.5,14.593,31.693,31.693,0,0,1-.519,7.418,64.642,64.642,0,0,0-.644,22.234,109.016,109.016,0,0,0,4.2,18.382c.42-.223.846-.431,1.282-.623l-.182.337q-.9,1.557-1.661,3.193a18.159,18.159,0,0,0-.888,2.186,24.6,24.6,0,0,0-.862,6.474,3.167,3.167,0,0,0,.109,1.251,2.6,2.6,0,0,0,1.869,1.4,17.069,17.069,0,0,0,6.9.109.839.839,0,0,0,.047.151,2.589,2.589,0,0,0,1.869,1.4c3.208.914,6.593.052,9.9-.26s6.557-.083,9.739-.846a4.635,4.635,0,0,0,1.35-.519,4.418,4.418,0,0,0,1.7-2.362,3.027,3.027,0,0,0,.2-.773A2.631,2.631,0,0,0,319.411,652.318Zm-10.98-48.077a13.083,13.083,0,0,1-1.038,3.52,67.173,67.173,0,0,0-5.326,16.7,77.433,77.433,0,0,0-1.178,11.551c-.052,2.855.057,5.845-1.132,8.41l.431-.068c-.135.249-.265.519-.389.716l-.062.114a11.254,11.254,0,0,1-1.417-3.977c0-.047-.234-.083-.592-.1a107.422,107.422,0,0,1-1.516-24.861,11.51,11.51,0,0,1,.415-2.985c.265-.836.711-1.6,1.038-2.409a17.7,17.7,0,0,0,1.038-4.226,60.029,60.029,0,0,0,.654-11.172c-.125-3.525.69-7.029,1.386-10.538.332-1.666.639-3.338.8-5.01l.031-.337a50.287,50.287,0,0,1,6.375,16.55,23.672,23.672,0,0,1,.478,8.124Zm-22.219-75.025.166.145a11.417,11.417,0,0,1,1.381,1.448,1.915,1.915,0,0,1,.436.8c.156.758-.472,1.4-.986,1.957a8.825,8.825,0,0,0-.628.758q-.166-2.554-.353-5.108Z" transform="translate(-147.835 -229.657)"/><path class="e" d="M279.007,542.53l-.571,4.407c-.192,1.5-.384,2.985-.488,4.485-.348,4.994.3,10.009.13,15.013-.135,3.852-.748,7.7-.452,11.545a48.958,48.958,0,0,0,2.2,9.967l1.371,4.672a1.236,1.236,0,0,0,.343.644,1.21,1.21,0,0,0,.877.14l6.084-.55c-.389-1.786-.82-3.634-1.038-5.466-.166-1.433-.265-2.876-.369-4.319-.322-4.5-.69-8.991-1.038-13.5l-.649-7.891a59.521,59.521,0,0,0-1.422-10.2A20.293,20.293,0,0,0,279.007,542.53Z" transform="translate(-147.814 -275.508)"/><path class="ab" d="M279.007,542.53l-.571,4.407c-.192,1.5-.384,2.985-.488,4.485-.348,4.994.3,10.009.13,15.013-.135,3.852-.748,7.7-.452,11.545a48.958,48.958,0,0,0,2.2,9.967l1.371,4.672a1.236,1.236,0,0,0,.343.644,1.21,1.21,0,0,0,.877.14l6.084-.55c-.389-1.786-.82-3.634-1.038-5.466-.166-1.433-.265-2.876-.369-4.319-.322-4.5-.69-8.991-1.038-13.5l-.649-7.891a59.521,59.521,0,0,0-1.422-10.2A20.293,20.293,0,0,0,279.007,542.53Z" transform="translate(-147.814 -275.508)"/><path class="ac" d="M299.52,826.486a18.6,18.6,0,0,0-.934,2.17,23.363,23.363,0,0,0-.9,6.416,3.115,3.115,0,0,0,.114,1.241,2.7,2.7,0,0,0,1.967,1.386c3.369.909,6.92.057,10.383-.254s6.884-.083,10.227-.836a5.219,5.219,0,0,0,1.417-.493,4.418,4.418,0,0,0,1.791-2.336,3.054,3.054,0,0,0,.2-.768,2.654,2.654,0,0,0-1.962-2.5,14.8,14.8,0,0,0-3.4-.431,10.694,10.694,0,0,1-9.469-8.934c-.042-.249-5.627-.1-6.23.223a5.209,5.209,0,0,0-1.49,1.957Q300.32,824.867,299.52,826.486Z" transform="translate(-157.488 -409.426)"/><path class="p" d="M299.52,826.486a18.6,18.6,0,0,0-.934,2.17,23.363,23.363,0,0,0-.9,6.416,3.115,3.115,0,0,0,.114,1.241,2.7,2.7,0,0,0,1.967,1.386c3.369.909,6.92.057,10.383-.254s6.884-.083,10.227-.836a5.219,5.219,0,0,0,1.417-.493,4.418,4.418,0,0,0,1.791-2.336,3.054,3.054,0,0,0,.2-.768,2.654,2.654,0,0,0-1.962-2.5,14.8,14.8,0,0,0-3.4-.431,10.694,10.694,0,0,1-9.469-8.934c-.042-.249-5.627-.1-6.23.223a5.209,5.209,0,0,0-1.49,1.957Q300.32,824.867,299.52,826.486Z" transform="translate(-157.488 -409.426)"/><path class="p" d="M317.369,829.641a17.658,17.658,0,0,0-.934,2.165,23.111,23.111,0,0,0-.9,6.416,3.026,3.026,0,0,0,.114,1.241,2.705,2.705,0,0,0,1.962,1.391c3.369.9,6.925.052,10.383-.26s6.889-.083,10.227-.836a4.994,4.994,0,0,0,1.417-.519,4.4,4.4,0,0,0,1.791-2.336,3.054,3.054,0,0,0,.2-.768,2.659,2.659,0,0,0-1.962-2.5,15.093,15.093,0,0,0-3.4-.431,10.7,10.7,0,0,1-9.469-8.929c-.042-.249-5.627-.1-6.23.218a5.169,5.169,0,0,0-1.5,1.957C318.485,827.5,317.9,828.561,317.369,829.641Z" transform="translate(-166.07 -410.93)"/><path class="p" d="M324.777,679.608c.073,11.218-3.187,22.182-7.013,32.705q-2.274,6.261-4.823,12.412c-1.007,2.429-2.144,5.129-1.064,7.527a18.221,18.221,0,0,0-9.557-1.334c1.246-2.544,1.127-5.5,1.184-8.306a72.839,72.839,0,0,1,1.225-11.447,63.854,63.854,0,0,1,5.6-16.555,12.616,12.616,0,0,0,1.085-3.489,22.283,22.283,0,0,0-.462-8.052,48.006,48.006,0,0,0-6.7-16.4l-.031.332a48.4,48.4,0,0,1-.841,4.968c-.732,3.473-1.589,6.951-1.459,10.445a56.5,56.5,0,0,1-.685,11.073,16.837,16.837,0,0,1-1.116,4.184c-.358.8-.825,1.557-1.106,2.393a10.9,10.9,0,0,0-.436,2.959,100.346,100.346,0,0,0,1.724,25.3,16.071,16.071,0,0,0-8.368,1.905,103.061,103.061,0,0,1-4.413-18.221,60.541,60.541,0,0,1,.675-22.042,29.29,29.29,0,0,0,.545-7.346,73.336,73.336,0,0,0-2.627-14.468l-1.827-7.268q-1.3-5.191-2.6-10.336a21.975,21.975,0,0,1-.976-6.988,17.339,17.339,0,0,1,.81-3.8,42.408,42.408,0,0,1,5.747-11.753c10,.561,20.127-.374,30.109-1.142a2.018,2.018,0,0,1,1.412.239,2,2,0,0,1,.571,1.287l3.753,21.284a53.469,53.469,0,0,1,1.064,8.981c0,3.011-.467,6.012-.353,9.017C323.988,671.723,324.756,675.554,324.777,679.608Z" transform="translate(-149.323 -316.044)"/><path class="n" d="M314.865,688.787a48.427,48.427,0,0,1-.841,4.968c-2.175-3.764-4.522-7.434-6.525-11.291-.519-.992-1.007-2-1.5-3.006l-1.48-3.011c-.275-.566-.55-1.132-.8-1.708a12.343,12.343,0,0,1-.929-2.6c.727-.135,2.523,1.827,3.063,2.341a41.874,41.874,0,0,1,3.115,3.447,37.8,37.8,0,0,1,3.25,4.257A20.7,20.7,0,0,1,314.865,688.787Z" transform="translate(-159.953 -337.833)"/><path class="ad" d="M321.7,501.077s-5.555,8.851-4.527,10.7-17.495-1.646-17.495-1.646,10.087-8.851,9.054-12.558S321.7,501.077,321.7,501.077Z" transform="translate(-158.457 -253.383)"/><circle class="ad" cx="12.558" cy="12.558" r="12.558" transform="translate(145.749 225.258)"/><path class="f" d="M311.816,517.359a12.75,12.75,0,0,0-5.28-4.246,18.889,18.889,0,0,0-3.753-.924l-5.01-.883a6.381,6.381,0,0,0-3.681.083,6.034,6.034,0,0,0-1.557,1.147c-1.739,1.615-3.426,3.385-5.612,4.319-.6.254-1.22.441-1.817.7a10.488,10.488,0,0,0-5.306,5.71,19.052,19.052,0,0,0-1.038,8.14,14.31,14.31,0,0,0,.286,2.866,18.463,18.463,0,0,0,.95,2.627,48.058,48.058,0,0,1,1.734,5.57q1.947,7.449,3.239,15.055a5.643,5.643,0,0,0,.628,2.077,7.455,7.455,0,0,0,1.734,1.666,10.829,10.829,0,0,1,1.448,1.438,1.879,1.879,0,0,1,.472.768c.161.748-.519,1.391-1.038,1.936a9.376,9.376,0,0,0-2.346,4.086,1.646,1.646,0,0,0-.374,1.127,1.973,1.973,0,0,1,.119.893,2.016,2.016,0,0,1-.472.732,2.767,2.767,0,0,0-.519,2.222,35.244,35.244,0,0,0,12.293,2.876c1.038.052,2.077.052,3.115.176.737.093,1.464.244,2.2.332a23.767,23.767,0,0,0,3.219.083c5.591-.114,11.343-.254,16.477-2.471.483-2.632-.561-5.316-1.215-7.911-1.038-4.153-1.3-8.4-2.077-12.594-.519-2.86-1.3-5.679-1.739-8.56a20.925,20.925,0,0,1,.249-8.669c.7-2.481.914-5.015,1.64-7.491s1.236-5.16.415-7.61A7.826,7.826,0,0,0,311.816,517.359Z" transform="translate(-148.385 -260.383)"/><path class="p" d="M319.208,462.546c.613-2.227-.592-4.548-2.025-6.359A10.77,10.77,0,0,0,311.208,452c-1.978-.4-4.028.083-6.043-.078-1.781-.14-3.494-.784-5.264-1.038a16.674,16.674,0,0,0-4.818.182,18.3,18.3,0,0,0-4.387,1.225c-5.347,2.372-8.477,8.218-9.2,14.017s.545,11.644,1.812,17.349l1.147,5.16a102.481,102.481,0,0,1,2.7,16.259,34.5,34.5,0,0,1-2.533,16.145,34.725,34.725,0,0,0,15.953-18.061c.81-2.123,1.412-4.33,2.315-6.416.773-1.8,1.765-3.5,2.45-5.331a17.318,17.318,0,0,0,1.1-6.474c-.042-1.661-.317-3.312-.27-4.973a6.871,6.871,0,0,1,1.62-4.594,14.04,14.04,0,0,1,3.779-2.248,15.735,15.735,0,0,0,5.29-4.413,4.84,4.84,0,0,0,1.08-2.783C318.144,464.7,318.886,463.724,319.208,462.546Z" transform="translate(-149.61 -231.391)"/><path class="ad" d="M352.62,648.747a33.319,33.319,0,0,0,.176,3.878c.213.955.706,1.817,1,2.751a13.082,13.082,0,0,1,.441,3.307c.042.934-.031,2.077-.862,2.513-.363.192-.8.192-1.178.358s-.7.618-.483.971.592.3.934.363.711.42.519.706a.592.592,0,0,1-.3.192,3.677,3.677,0,0,0-.976.467,1,1,0,0,0-.4.95.587.587,0,0,0,.836.384,2.6,2.6,0,0,0-.244,1.038c1.329.571,2.819-.177,4.065-.9a15.312,15.312,0,0,0,1.557-1,7.787,7.787,0,0,0,3.032-6.629,15.466,15.466,0,0,0-.3-1.895,28.514,28.514,0,0,0-.763-3.224c-.358-1.116-.846-2.18-1.267-3.276-.893-2.331-1.469-4.771-2.279-7.133a1.08,1.08,0,0,0-.389-.618,1.1,1.1,0,0,0-.576-.109,9.442,9.442,0,0,0-2.7.249,2.876,2.876,0,0,0-1.651,1.038c-.244.519.145.955.379,1.386A11.618,11.618,0,0,1,352.62,648.747Z" transform="translate(-183.006 -323.261)"/><path class="n" d="M341.851,533.64a3.807,3.807,0,0,1,.664.924c1.786,3.245,1.807,7.122,1.89,10.824.093,4.153.322,8.306.55,12.485l.68,12.459c.068,1.189.13,2.378.3,3.556.8.2.831,1.241.742,2.076-.576,5.077-2,10.3-.519,15.19a1.526,1.526,0,0,0,.348.675,4.054,4.054,0,0,0-2.32-.031c-.742.156-1.459.431-2.206.6a4.685,4.685,0,0,0-2.658,1.038,51.511,51.511,0,0,1-1.739-6.707c-.353-2.077-.452-4.215-1.293-6.136-.337-.773-.794-1.49-1.21-2.232-2.175-3.883-3.245-8.27-4.288-12.6a18.393,18.393,0,0,1-.332-6.261,21.52,21.52,0,0,0,.26-2.881,22.128,22.128,0,0,0-.4-3.032,20.323,20.323,0,0,1,.607-8.778c.779-2.642,1.464-5.425,3.115-7.647S339.094,533.676,341.851,533.64Z" transform="translate(-173.083 -271.234)"/><path class="f" d="M343.051,532.84a3.841,3.841,0,0,1,.664.929c1.786,3.239,1.807,7.122,1.89,10.824.093,4.153.322,8.306.55,12.459l.68,12.459c.067,1.189.13,2.378.3,3.556.8.2.831,1.241.737,2.077-.571,5.077-2,10.3-.519,15.19a1.526,1.526,0,0,0,.348.675,4.054,4.054,0,0,0-2.321-.031c-.742.156-1.459.431-2.206.6a4.721,4.721,0,0,0-2.658,1.038,50.984,50.984,0,0,1-1.723-6.738c-.353-2.077-.452-4.21-1.293-6.131a25.063,25.063,0,0,0-1.21-2.232c-2.18-3.883-3.245-8.275-4.288-12.6a18.389,18.389,0,0,1-.332-6.261,13.5,13.5,0,0,0-.14-5.913,20.3,20.3,0,0,1,.607-8.773c.779-2.642,1.464-5.425,3.115-7.647S340.294,532.882,343.051,532.84Z" transform="translate(-173.665 -270.849)"/><g class="v" transform="translate(135.014 219.394)"><path d="M323.9,456.187A10.771,10.771,0,0,0,317.926,452c-1.978-.4-4.028.083-6.043-.078-1.781-.14-3.494-.784-5.264-1.038a16.673,16.673,0,0,0-4.817.182,18.3,18.3,0,0,0-4.387,1.225,13.03,13.03,0,0,0-2.165,1.23,18.461,18.461,0,0,1,3.878-1.038,16.612,16.612,0,0,1,4.812-.182c1.775.228,3.483.867,5.269,1.007,2.009.161,4.06-.317,6.043.078a10.715,10.715,0,0,1,5.97,4.195c1.438,1.807,2.637,4.127,2.03,6.359a35.485,35.485,0,0,0-1.272,3.411,4.817,4.817,0,0,1-1.085,2.783,15.77,15.77,0,0,1-3.81,3.546c.4-.187.81-.374,1.2-.576a15.734,15.734,0,0,0,5.29-4.413,4.84,4.84,0,0,0,1.08-2.783,35.838,35.838,0,0,1,1.272-3.411C326.538,460.319,325.333,458,323.9,456.187Z" transform="translate(-291.341 -450.785)"/><path d="M310.884,497.637a5.2,5.2,0,0,1,.7-.607,10.757,10.757,0,0,0-3.38,2.077,6.941,6.941,0,0,0-1.62,4.594c-.062,1.661.234,3.312.27,4.968a17.345,17.345,0,0,1-1.1,6.479c-.685,1.833-1.677,3.53-2.45,5.331-.9,2.077-1.5,4.288-2.31,6.411a34.782,34.782,0,0,1-13.191,16.415c-.031.068-.057.14-.088.208a34.725,34.725,0,0,0,15.953-18.06c.81-2.123,1.412-4.33,2.315-6.416.773-1.8,1.765-3.5,2.45-5.331a17.319,17.319,0,0,0,1.1-6.474c-.042-1.661-.317-3.312-.27-4.973A6.939,6.939,0,0,1,310.884,497.637Z" transform="translate(-287.72 -473.023)"/></g><circle class="e" cx="3.286" cy="3.286" r="3.286" transform="translate(220.182 243.822)"/><g transform="translate(279.15 185.605)"><rect class="m" width="53.382" height="2.767" transform="translate(0 14.629)"/><g transform="translate(4.745 0)"><rect class="o" width="5.139" height="14.629"/><rect class="m" width="5.139" height="1.583" transform="translate(0 2.767)"/><rect class="m" width="5.139" height="1.583" transform="translate(0 9.884)"/><g transform="translate(7.512)"><rect class="o" width="5.139" height="14.629"/><rect class="m" width="5.139" height="1.583" transform="translate(0 2.767)"/><rect class="m" width="5.139" height="1.583" transform="translate(0 9.884)"/></g><g transform="translate(15.024)"><rect class="o" width="5.139" height="14.629"/><rect class="m" width="5.139" height="1.583" transform="translate(0 2.767)"/><rect class="m" width="5.139" height="1.583" transform="translate(0 9.884)"/></g><g transform="translate(22.541)"><rect class="o" width="5.139" height="14.629"/><rect class="m" width="5.139" height="1.583" transform="translate(0 2.767)"/><rect class="m" width="5.139" height="1.583" transform="translate(0 9.884)"/></g><g transform="translate(30.052)"><rect class="o" width="5.139" height="14.629"/><rect class="m" width="5.139" height="1.583" transform="translate(0 2.767)"/><rect class="m" width="5.139" height="1.583" transform="translate(0 9.884)"/></g><g transform="translate(37.564)"><rect class="o" width="5.139" height="14.629"/><rect class="m" width="5.139" height="1.583" transform="translate(0 2.767)"/><rect class="m" width="5.139" height="1.583" transform="translate(0 9.884)"/></g></g></g><g transform="translate(156.95 155.777)"><rect class="m" width="53.382" height="2.767" transform="translate(0 14.629)"/><g transform="translate(4.745 0)"><rect class="o" width="5.139" height="14.629"/><rect class="m" width="5.139" height="1.583" transform="translate(0 2.767)"/><rect class="m" width="5.139" height="1.583" transform="translate(0 9.884)"/><g transform="translate(7.512)"><rect class="o" width="5.139" height="14.629"/><rect class="m" width="5.139" height="1.583" transform="translate(0 2.767)"/><rect class="m" width="5.139" height="1.583" transform="translate(0 9.884)"/></g><g transform="translate(15.024)"><rect class="o" width="5.139" height="14.629"/><rect class="m" width="5.139" height="1.583" transform="translate(0 2.767)"/><rect class="m" width="5.139" height="1.583" transform="translate(0 9.884)"/></g><g transform="translate(22.541)"><rect class="o" width="5.139" height="14.629"/><rect class="m" width="5.139" height="1.583" transform="translate(0 2.767)"/><rect class="m" width="5.139" height="1.583" transform="translate(0 9.884)"/></g><g transform="translate(30.052)"><rect class="o" width="5.139" height="14.629"/><rect class="m" width="5.139" height="1.583" transform="translate(0 2.767)"/><rect class="m" width="5.139" height="1.583" transform="translate(0 9.884)"/></g><g transform="translate(37.564)"><rect class="o" width="5.139" height="14.629"/><rect class="m" width="5.139" height="1.583" transform="translate(0 2.767)"/><rect class="m" width="5.139" height="1.583" transform="translate(0 9.884)"/></g></g></g></g></g></svg>