<svg xmlns="http://www.w3.org/2000/svg" width="72.33" height="69.919" viewBox="0 0 72.33 69.919"><defs><style>.a{fill:#eeae1d;}</style></defs><g transform="translate(0 13.261)"><path class="a" d="M-1448.886-684.385h-21.7v2.411h21.7a1.209,1.209,0,0,1,1.206,1.206v19.71a15.441,15.441,0,0,0-7.128,3.858,10.817,10.817,0,0,0-13.125,4.777,5.976,5.976,0,0,0-2.652-.633,6.033,6.033,0,0,0-5.907,4.822h-10.97a7.235,7.235,0,0,0-7.233-7.233,7.4,7.4,0,0,0-1.3.121,6.028,6.028,0,0,0-7.022-4.837,6,6,0,0,0-2.969,1.462,15.4,15.4,0,0,0-9.207-3.918v-18.143a1.209,1.209,0,0,1,1.205-1.205h21.7V-684.4h-21.7a3.608,3.608,0,0,0-3.616,3.616v38.576a3.608,3.608,0,0,0,3.616,3.616h26.521v3.617h-4.822a1.209,1.209,0,0,0-1.206,1.205v3.617h-2.411v2.411h28.932v-2.411h-2.411v-3.617a1.209,1.209,0,0,0-1.206-1.205h-4.822v-3.617h26.521a3.608,3.608,0,0,0,3.617-3.616v-38.576A3.6,3.6,0,0,0-1448.886-684.385Zm-21.7,33.754a3.526,3.526,0,0,1,2.336.889,1.2,1.2,0,0,0,1.7-.136.921.921,0,0,0,.2-.332,8.407,8.407,0,0,1,10.955-4.641c.121.045.241.105.362.151a1.2,1.2,0,0,0,1.371-.271,13.178,13.178,0,0,1,5.982-3.616v10.337h-26.3A3.615,3.615,0,0,1-1470.585-650.631Zm-36.2-5.5a1.162,1.162,0,0,0,.964.377,1.236,1.236,0,0,0,.9-.527,3.613,3.613,0,0,1,5.018-.964,3.615,3.615,0,0,1,1.582,3,1.167,1.167,0,0,1-.03.226l-.03.181a1.2,1.2,0,0,0,1.07,1.326,1.24,1.24,0,0,0,.618-.09,4.791,4.791,0,0,1,6.359,2.381,4.918,4.918,0,0,1,.437,2.019H-1515.2V-660.2A13.017,13.017,0,0,1-1506.78-656.131Zm34.99,25.994h-19.288v-2.411h19.288Zm-6.027-4.822h-7.233v-3.617h7.233Zm28.932-6.028h-65.1a1.209,1.209,0,0,1-1.205-1.206v-3.617h67.508v3.617A1.2,1.2,0,0,1-1448.886-640.987Z" transform="translate(1517.6 684.4)"/></g><g transform="translate(20.279)"><g transform="translate(3.56 5.801)"><path class="a" d="M-1335.787-727.089a12.5,12.5,0,0,0-11.136-6.811,12.565,12.565,0,0,0-11.543,7.685.743.743,0,0,0-.06.166,14.549,14.549,0,0,0-.5,1.627,4.7,4.7,0,0,0-.136.663c-.015.045-.015.105-.03.151a13.1,13.1,0,0,0-.211,2.049v.362a12.126,12.126,0,0,0,.06,1.281c.015.226.045.467.075.693a3.322,3.322,0,0,0,.075.377h0a14.344,14.344,0,0,0,.482,1.748c0,.015,0,.015.015.03.045.105.075.211.12.316,0,.015.015.015.015.03.12.3.241.588.392.889.015.045.045.075.06.12a1.25,1.25,0,0,0,.105.2l.09.181c.03.06.06.106.09.166a1.653,1.653,0,0,1,.121.226c.03.045.045.09.075.136.075.12.151.241.226.347l.015.03c.015.03.03.045.045.075s.03.045.045.075a.821.821,0,0,0,1.13.226.854.854,0,0,0,.332-.437v-.015c0-.03.015-.045.015-.075v-.015a.091.091,0,0,1,.015-.06v-.241c0-.015-.015-.045-.015-.06v-.015c-.015-.03-.015-.045-.03-.075h0a.7.7,0,0,0-.075-.151c-.03-.03-.045-.075-.075-.105a.015.015,0,0,0-.015-.015l-.015-.03a3.589,3.589,0,0,1-.2-.317,1.3,1.3,0,0,1-.09-.151c-.03-.06-.075-.121-.105-.181s-.075-.136-.105-.2c-.03-.045-.045-.09-.075-.136a1.528,1.528,0,0,1-.106-.226l-.045-.09c-.045-.09-.075-.166-.12-.256-.015-.03-.015-.045-.03-.06-.045-.09-.075-.2-.121-.286,0-.015-.015-.03-.015-.045-.045-.106-.075-.211-.12-.317h0a11.244,11.244,0,0,1-.633-3.164c-.015-.181-.015-.362-.015-.542a3.962,3.962,0,0,1,.015-.422v-.075a3.19,3.19,0,0,1,.03-.392.191.191,0,0,1,.015-.09c.015-.12.03-.256.045-.377a.135.135,0,0,1,.015-.075c.015-.121.03-.226.045-.347,0-.045.015-.075.015-.121.015-.12.045-.226.06-.347.015-.045.015-.09.03-.136.03-.105.045-.2.075-.3l.045-.181c.015-.075.045-.151.06-.226.03-.075.045-.166.075-.241a1.186,1.186,0,0,1,.075-.211,10.946,10.946,0,0,1,10.322-7.4,10.946,10.946,0,0,1,10.322,7.4,1.1,1.1,0,0,1,.06.211c.03.075.045.166.075.241.015.075.045.151.06.226l.045.181c.03.105.045.2.075.3.015.045.015.09.03.136a2.794,2.794,0,0,1,.06.347.334.334,0,0,1,.015.121c.015.121.03.226.045.347a.135.135,0,0,0,.015.075c.015.121.03.256.045.377a.191.191,0,0,0,.015.09c.015.136.015.271.03.392v.075c0,.136.015.286.015.422,0,.181,0,.362-.015.542a11.458,11.458,0,0,1-.2,1.612,10.738,10.738,0,0,1-.437,1.552v.015a2.726,2.726,0,0,1-.121.316c0,.015-.015.03-.015.045-.045.09-.075.2-.121.286-.015.03-.015.045-.03.075-.045.09-.075.166-.12.256a.723.723,0,0,0-.045.105c-.03.075-.075.151-.105.226-.03.045-.045.09-.075.136-.03.06-.06.121-.105.2-.03.06-.075.121-.105.181a1.32,1.32,0,0,0-.09.151c-.06.105-.136.211-.2.316l-.015.03h0a.533.533,0,0,0-.075.12v.015l-.09.136c-.075.12-.151.241-.241.362-.045.075-.09.136-.136.211-.06.09-.12.2-.181.286-.045.075-.09.136-.136.211a2.616,2.616,0,0,0-.166.271c-.045.075-.09.135-.136.211-.06.09-.105.181-.166.256a1.5,1.5,0,0,0-.12.211c-.06.09-.106.181-.151.256-.045.06-.075.136-.12.2-.045.09-.106.181-.151.256-.03.06-.075.121-.105.181-.06.09-.105.181-.151.256a1.6,1.6,0,0,1-.105.166c-.06.09-.105.181-.166.271a1.359,1.359,0,0,0-.09.151c-.075.121-.136.241-.2.347a.115.115,0,0,0-.03.06l-.226.407a.315.315,0,0,1-.06.09c-.06.105-.105.2-.166.286-.03.045-.045.09-.075.136-.045.075-.09.166-.135.241-.03.045-.045.09-.075.136-.03.075-.075.136-.105.211l-.015.015c-.03.045-.045.09-.075.136-.045.075-.075.151-.12.211-.03.045-.045.09-.075.136-.03.075-.075.135-.105.211a.906.906,0,0,1-.06.121c-.03.075-.075.136-.105.211-.015.045-.045.075-.06.12a.015.015,0,0,1-.015.015c0,.015-.015.015-.015.03-.015.03-.03.045-.03.075v-8.785a.9.9,0,0,0-.075-.347v-.015l-2.155-4.521-1.884-3.948a.815.815,0,0,0-.738-.467.815.815,0,0,0-.738.467l-1.959,3.963h0l-2.155,4.521v.015a.893.893,0,0,0-.075.347v8.785c-.015-.015-.015-.045-.03-.06a.015.015,0,0,0-.015-.015.885.885,0,0,0-.06-.121c-.03-.045-.045-.09-.075-.136a.535.535,0,0,1-.06-.136,1.416,1.416,0,0,1-.075-.151c-.03-.045-.045-.09-.075-.136a.706.706,0,0,1-.075-.151c-.03-.045-.045-.09-.075-.136a1.61,1.61,0,0,0-.09-.166c-.015-.015-.015-.045-.03-.06v-.015c-.015-.015-.015-.03-.03-.06-.045-.075-.076-.136-.121-.211l-.045-.09c-.06-.106-.105-.211-.166-.3l-.045-.09a1.647,1.647,0,0,1-.121-.226c-.03-.045-.045-.075-.075-.12a1.38,1.38,0,0,0-.12-.2c-.03-.045-.045-.09-.075-.136-.03-.06-.075-.136-.105-.2a.605.605,0,0,1-.075-.136c-.045-.075-.075-.136-.12-.211a.6.6,0,0,1-.075-.136l-.136-.226a.609.609,0,0,1-.075-.136,2.112,2.112,0,0,0-.151-.241c-.03-.045-.045-.075-.075-.12-.075-.121-.151-.241-.226-.377a.806.806,0,0,0-1.115-.271.963.963,0,0,0-.2.151.822.822,0,0,0-.181.738c0,.015,0,.03.015.03a.917.917,0,0,0,.075.181c.09.151.181.286.256.437a.015.015,0,0,0,.015.015,3.437,3.437,0,0,0,.241.392c.015.03.03.045.045.075a3.765,3.765,0,0,0,.2.332.314.314,0,0,0,.06.09,2.949,2.949,0,0,1,.166.3c.015.03.045.075.06.105a2.435,2.435,0,0,1,.151.271c.015.03.045.075.06.105.045.09.106.181.151.271.015.03.045.075.06.105.045.075.075.151.121.211.015.015.015.03.03.045a.383.383,0,0,0,.06.105c.045.09.09.166.135.256l.045.09c.045.09.09.166.136.256a.328.328,0,0,0,.045.075c.045.09.09.166.136.256a.114.114,0,0,1,.03.06l.136.271a.053.053,0,0,0,.015.03c.211.407.392.8.558,1.145a.052.052,0,0,0,.015.03c.03.075.075.136.105.211.015.015.015.045.03.06a.907.907,0,0,1,.075.181c.015.03.015.045.03.06.03.045.045.106.075.151.015.03.015.045.03.075.015.045.045.09.06.136.015.03.015.045.03.06.015.045.045.09.06.136.015.015.015.045.03.06.015.045.03.075.045.12.015.015.015.045.03.06.015.03.03.075.045.105.015.015.015.03.03.06a.737.737,0,0,1,.045.105c0,.015.015.03.015.045a.214.214,0,0,1,.03.09c0,.015.015.03.015.045.015.03.015.045.03.075,0,.015.015.03.015.045.015.015.015.045.03.06.015.045.03.075.045.12v.015c.015.03.015.045.03.06v.015a.736.736,0,0,0,.045.105v6.133A2.775,2.775,0,0,0-1349-695.2h4.189a2.775,2.775,0,0,0,2.773-2.773v-6.133c.015-.03.03-.09.06-.151.105-.256.3-.738.618-1.431a.906.906,0,0,1,.06-.121c.09-.181.181-.392.286-.6.03-.075.075-.151.12-.241.075-.166.166-.347.256-.527.075-.166.166-.331.256-.512.045-.075.075-.151.121-.241.181-.332.362-.693.573-1.07.015-.015.015-.03.03-.045.5-.919,1.1-1.959,1.793-3.1.015-.015.015-.03.03-.045l.015-.015c.09-.151.2-.316.3-.482.015-.03.03-.045.045-.075.09-.151.181-.286.271-.437a1.347,1.347,0,0,0,.09-.151c.075-.121.166-.256.241-.392.09-.136.181-.286.271-.422l.09-.136a1.357,1.357,0,0,0,.09-.151l.015-.03c.075-.121.151-.226.226-.347.03-.045.045-.09.075-.136a1.638,1.638,0,0,0,.12-.226c.03-.06.06-.106.09-.166l.09-.181c.03-.06.075-.136.105-.2.015-.045.045-.075.06-.121.136-.286.271-.588.392-.889,0-.015,0-.015.015-.015a2.926,2.926,0,0,0,.12-.332v-.015a10.145,10.145,0,0,0,.332-1.1,13.919,13.919,0,0,0,.332-2.984A13.967,13.967,0,0,0-1335.787-727.089Zm-12.522,6.54h2.758l1.386,2.893h-5.53Zm4.626,22.558a1.145,1.145,0,0,1-1.145,1.145h-4.189a1.145,1.145,0,0,1-1.145-1.145v-1.989h6.479Zm0-3.6h-6.479v-1.929h6.479Zm0-3.556h-6.479v-10.88h6.479Z" transform="translate(1359.4 733.9)"/></g><g transform="translate(15.223)"><path class="a" d="M-1281.186-772.4a.81.81,0,0,0-.814.814v3.029a.81.81,0,0,0,.814.814.81.81,0,0,0,.814-.814v-3.029A.81.81,0,0,0-1281.186-772.4Z" transform="translate(1282 772.4)"/></g><g transform="translate(27.531 6.626)"><path class="a" d="M-1196.178-728.015a.8.8,0,0,0-1.1-.3l-2.637,1.507a.8.8,0,0,0-.3,1.1.822.822,0,0,0,.708.407.82.82,0,0,0,.407-.105l2.637-1.507A.83.83,0,0,0-1196.178-728.015Z" transform="translate(1200.326 728.426)"/></g><g transform="translate(22.228 1.941)"><path class="a" d="M-1232.381-759.35a.8.8,0,0,0-1.13.151l-1.838,2.411a.8.8,0,0,0,.151,1.13.857.857,0,0,0,.5.166.82.82,0,0,0,.648-.316l1.838-2.411A.816.816,0,0,0-1232.381-759.35Z" transform="translate(1235.519 759.519)"/></g><g transform="translate(0 6.626)"><path class="a" d="M-1379.18-726.81l-2.637-1.507a.8.8,0,0,0-1.1.3.8.8,0,0,0,.3,1.1l2.637,1.507a.782.782,0,0,0,.407.105.822.822,0,0,0,.708-.407A.82.82,0,0,0-1379.18-726.81Z" transform="translate(1383.026 728.426)"/></g><g transform="translate(6.104 1.941)"><path class="a" d="M-1339.231-756.788l-1.838-2.411a.8.8,0,0,0-1.13-.151.8.8,0,0,0-.151,1.13l1.839,2.411a.82.82,0,0,0,.648.316.892.892,0,0,0,.5-.166A.81.81,0,0,0-1339.231-756.788Z" transform="translate(1342.519 759.519)"/></g></g></svg>