<svg xmlns="http://www.w3.org/2000/svg" width="70.003" height="69.975" viewBox="0 0 70.003 69.975"><defs><style>.a{fill:#eeae1d;}</style></defs><path class="a" d="M23.443,21.571A15.086,15.086,0,0,0,19,32.331,1.167,1.167,0,0,0,20.167,33.5h7v1.167a1.167,1.167,0,0,0,1.167,1.167h1.881L29.56,37.8a1.167,1.167,0,0,0,1.107,1.535h7A1.167,1.167,0,0,0,38.775,37.8l-.655-1.965H40a1.167,1.167,0,0,0,1.167-1.167V33.5h7a1.167,1.167,0,0,0,1.167-1.167v-.561a15.15,15.15,0,0,0-5.3-11.516l-2.87-2.461V15.069a12.76,12.76,0,0,0-2.391-7.46l-3.66-5.124a1.21,1.21,0,0,0-1.9,0l-3.66,5.124a12.76,12.76,0,0,0-2.391,7.46v2.778Zm-2.06,9.593a12.746,12.746,0,0,1,3.71-7.943l2.074-2.074V31.164ZM38.834,15.069V28.83H29.5V15.069c0-.081.016-.159.019-.239h9.3C38.818,14.91,38.834,14.989,38.834,15.069ZM36.049,37H32.285l.39-1.167H35.66Zm2.785-3.5H29.5V31.164h9.334ZM42.52,22.025a12.821,12.821,0,0,1,4.467,9.139h-5.82v-10.3ZM34.167,5.171l2.71,3.794A10.432,10.432,0,0,1,38.484,12.5H29.851a10.432,10.432,0,0,1,1.608-3.532Z" transform="translate(0.834 -2.024)"/><path class="a" d="M32.5,22A3.5,3.5,0,1,0,29,18.5,3.5,3.5,0,0,0,32.5,22Zm0-4.667A1.167,1.167,0,1,1,31.333,18.5,1.167,1.167,0,0,1,32.5,17.333Z" transform="translate(2.501 0.139)"/><path class="a" d="M68.5,15h-21v2.333h21A1.167,1.167,0,0,1,69.67,18.5V37.583a15.051,15.051,0,0,0-6.9,3.734,10.47,10.47,0,0,0-12.708,4.625,5.67,5.67,0,0,0-2.56-.607A5.844,5.844,0,0,0,41.785,50H31.168a7.007,7.007,0,0,0-7-7,6.811,6.811,0,0,0-1.261.117,5.834,5.834,0,0,0-9.659-3.267,14.967,14.967,0,0,0-8.914-3.8V18.5A1.167,1.167,0,0,1,5.5,17.333h21V15H5.5A3.5,3.5,0,0,0,2,18.5V55.835a3.5,3.5,0,0,0,3.5,3.5H31.168v3.5H26.5A1.167,1.167,0,0,0,25.334,64v3.5H23v2.333H51V67.5H48.669V64A1.167,1.167,0,0,0,47.5,62.836H42.835v-3.5H68.5a3.5,3.5,0,0,0,3.5-3.5V18.5A3.5,3.5,0,0,0,68.5,15Zm-21,32.668a3.463,3.463,0,0,1,2.262.862,1.167,1.167,0,0,0,1.839-.442,8.145,8.145,0,0,1,10.955-4.34,1.167,1.167,0,0,0,1.327-.256A12.8,12.8,0,0,1,69.67,40V50H44.217A3.5,3.5,0,0,1,47.5,47.668ZM12.468,42.343a1.14,1.14,0,0,0,.933.359,1.167,1.167,0,0,0,.869-.505,3.5,3.5,0,0,1,6.4,1.971,1.6,1.6,0,0,1-.022.212l-.023.179a1.167,1.167,0,0,0,1.633,1.194A4.648,4.648,0,0,1,28.835,50H4.333V38.393a12.717,12.717,0,0,1,8.134,3.951ZM46.335,67.5H27.668V65.169H46.335ZM40.5,62.836h-7v-3.5h7ZM68.5,57H5.5a1.167,1.167,0,0,1-1.167-1.167v-3.5H69.67v3.5A1.167,1.167,0,0,1,68.5,57Z" transform="translate(-2 0.139)"/><path class="a" d="M29,38.5c0,1.491,1.776,4.225,2.54,5.33a1.167,1.167,0,0,0,1.92,0c.764-1.1,2.54-3.839,2.54-5.33a3.5,3.5,0,1,0-7,0Zm4.667,0a8.7,8.7,0,0,1-1.167,2.5,8.684,8.684,0,0,1-1.167-2.5,1.167,1.167,0,0,1,2.333,0Z" transform="translate(2.501 3.473)"/><rect class="a" width="2.333" height="4.667" transform="translate(43.169 32.64)"/><rect class="a" width="2.333" height="2.333" transform="translate(46.669 32.64)"/><rect class="a" width="2.333" height="4.667" transform="translate(24.501 32.64)"/><rect class="a" width="2.333" height="2.333" transform="translate(21.001 32.64)"/></svg>