<svg xmlns="http://www.w3.org/2000/svg" width="75.186" height="75.545" viewBox="0 0 75.186 75.545"><defs><style>.a{fill:#e8eaed;}.b{fill:#252525;}.c{fill:#fff;}.d{fill:#eeae1d;}</style></defs><path class="a" d="M37.593,0C58.355,0,75.186,2.829,75.186,6.319s-16.831,6.319-37.593,6.319S0,9.809,0,6.319,16.831,0,37.593,0Z" transform="translate(0 62.906)"/><circle class="b" cx="21.586" cy="21.586" r="21.586" transform="translate(14.975 16.532)"/><rect class="b" width="6.558" height="11.749" transform="translate(26.724 55.059)"/><rect class="b" width="6.558" height="11.749" transform="translate(39.84 55.059)"/><ellipse class="b" cx="5.465" cy="2.049" rx="5.465" ry="2.049" transform="translate(26.724 64.895)"/><ellipse class="b" cx="5.465" cy="2.049" rx="5.465" ry="2.049" transform="translate(39.84 64.622)"/><circle class="c" cx="7.378" cy="7.378" r="7.378" transform="translate(29.73 25.276)"/><circle class="b" cx="2.459" cy="2.459" r="2.459" transform="translate(34.648 30.194)"/><path class="d" d="M174.72,261.977c-1.743-7.806,3.829-15.693,12.444-17.617s17.013,2.844,18.756,10.65-3.967,10.685-12.583,12.609S176.463,269.783,174.72,261.977Z" transform="translate(-159.098 -243.934)"/><ellipse class="b" cx="10.793" cy="3.388" rx="10.793" ry="3.388" transform="matrix(0.357, -0.934, 0.934, 0.357, 49.494, 30.69)"/><ellipse class="b" cx="3.388" cy="10.793" rx="3.388" ry="10.793" transform="translate(1.044 26.538) rotate(-64.626)"/><path class="c" d="M213.4,404.969c0,2.113,5.44,6.284,11.476,6.284s11.7-5.948,11.7-8.061-5.66.41-11.7.41S213.4,402.857,213.4,404.969Z" transform="translate(-187.439 -359.064)"/></svg>