<svg xmlns="http://www.w3.org/2000/svg" width="373" height="84" viewBox="0 0 373 84"><defs><style>.a{fill:#f8f9fa;}.b,.c{fill:#252525;}.c{font-size:35px;font-family:Barlow-SemiBold, Barlow;font-weight:600;}.d{font-family:Barlow-Regular, Barlow;font-weight:400;}</style></defs><g transform="translate(-375.06 155.609)"><path class="a" d="M20,0H353a20,20,0,0,1,20,20V84a0,0,0,0,1,0,0H0a0,0,0,0,1,0,0V20A20,20,0,0,1,20,0Z" transform="translate(375.06 -155.609)"/><g transform="translate(3)"><g transform="translate(400.391 -135.609)"><path class="b" d="M3.331,983.272l.657.657L7.6,987.54l.657.657.657-.657a4.179,4.179,0,1,1,5.91,5.91l-.657.657.657.657,3.611,3.611.657.657.657-.657,26.266-26.266.657-.657-.657-.657L42.4,967.184l-.657-.657-.657.657a4.179,4.179,0,1,1-5.91-5.91l.657-.656-.657-.657-3.612-3.611-.657-.657-.657.657L3.988,982.615l-.657.657Zm2.627,0L22.7,966.528,35.835,979.66,19.09,996.4l-2.37-2.37a6.01,6.01,0,0,0-8.4-8.4l-2.36-2.36Zm18.058-18.058,6.895-6.895,2.36,2.36a6.01,6.01,0,0,0,8.4,8.4l2.37,2.37-6.895,6.895Z" transform="translate(-3.331 -955.693)"/></g><text class="c" transform="translate(473.06 -99.609)"><tspan x="0" y="0">Book</tspan><tspan class="d" y="0" xml:space="preserve"> your slots!</tspan></text></g></g></svg>