<svg xmlns="http://www.w3.org/2000/svg" width="1233.542" height="113.417" viewBox="0 0 1233.542 113.417"><defs><style>.a{fill:#e8eaed;}.b{fill:#252525;}.c{fill:#fff;}.d{fill:#eeae1d;}.e{fill:#f2f2f2;}.f{fill:#0865ab;}</style></defs><g transform="translate(-343.332 -978.815)"><g transform="translate(343.332 1016.606)"><path class="a" d="M37.593,0C58.355,0,75.186,2.829,75.186,6.319s-16.831,6.319-37.593,6.319S0,9.809,0,6.319,16.831,0,37.593,0Z" transform="translate(0 62.906)"/><circle class="b" cx="21.586" cy="21.586" r="21.586" transform="translate(14.975 16.532)"/><rect class="b" width="6.558" height="11.749" transform="translate(26.724 55.059)"/><rect class="b" width="6.558" height="11.749" transform="translate(39.84 55.059)"/><ellipse class="b" cx="5.465" cy="2.049" rx="5.465" ry="2.049" transform="translate(26.724 64.895)"/><ellipse class="b" cx="5.465" cy="2.049" rx="5.465" ry="2.049" transform="translate(39.84 64.622)"/><circle class="c" cx="7.378" cy="7.378" r="7.378" transform="translate(29.73 25.276)"/><circle class="b" cx="2.459" cy="2.459" r="2.459" transform="translate(34.648 30.194)"/><path class="d" d="M174.72,261.977c-1.743-7.806,3.829-15.693,12.444-17.617s17.013,2.844,18.756,10.65-3.967,10.685-12.583,12.609S176.463,269.783,174.72,261.977Z" transform="translate(-159.098 -243.934)"/><ellipse class="b" cx="10.793" cy="3.388" rx="10.793" ry="3.388" transform="matrix(0.357, -0.934, 0.934, 0.357, 49.494, 30.69)"/><ellipse class="b" cx="3.388" cy="10.793" rx="3.388" ry="10.793" transform="translate(1.044 26.538) rotate(-64.626)"/><path class="c" d="M213.4,404.969c0,2.113,5.44,6.284,11.476,6.284s11.7-5.948,11.7-8.061-5.66.41-11.7.41S213.4,402.857,213.4,404.969Z" transform="translate(-187.439 -359.064)"/></g><g transform="translate(1456.089 978.815)"><g transform="translate(63.702)"><path class="e" d="M966.98,459.649c0,21.495-12.779,29-28.542,29s-28.542-7.505-28.542-29,28.542-48.84,28.542-48.84S966.98,438.154,966.98,459.649Z" transform="translate(-909.897 -410.808)"/><path class="b" d="M909.594,428.925l.292-17.99,12.165-22.255-12.119,19.434.132-8.089,8.384-16.1L910.1,397.884h0l.236-14.548,8.978-12.819-8.941,10.531.148-26.676-.928,35.314.076-1.457-9.128-13.972,8.982,16.768-.851,16.248-.025-.431-10.523-14.7,10.491,16.227-.106,2.032-.019.03.009.167-2.158,41.222h2.883l.345-21.292,10.466-16.187Z" transform="translate(-882.092 -354.372)"/><ellipse class="b" cx="9.924" cy="2.94" rx="9.924" ry="2.94" transform="translate(15.549 94.503)"/></g><path class="a" d="M44.657,0C69.32,0,89.314,2.72,89.314,6.075S69.32,12.15,44.657,12.15,0,9.43,0,6.075,19.994,0,44.657,0Z" transform="translate(0 101.267)"/><circle class="b" cx="20.752" cy="20.752" r="20.752" transform="translate(24.43 55.461)"/><rect class="b" width="6.305" height="11.296" transform="translate(54.639 103.795) rotate(180)"/><rect class="b" width="6.305" height="11.296" transform="translate(42.03 103.795) rotate(180)"/><ellipse class="b" cx="5.254" cy="1.97" rx="5.254" ry="1.97" transform="translate(32.03 105.899) rotate(-30)"/><ellipse class="b" cx="5.254" cy="1.97" rx="5.254" ry="1.97" transform="translate(44.377 105.899) rotate(-30)"/><circle class="c" cx="7.093" cy="7.093" r="7.093" transform="translate(37.564 63.867)"/><circle class="b" cx="2.364" cy="2.364" r="2.364" transform="translate(39.877 65.574)"/><path class="f" d="M830.991,578.78c1.676-7.5-3.681-15.087-11.964-16.937S802.671,564.578,801,572.082s3.814,10.272,12.1,12.122S829.316,586.285,830.991,578.78Z" transform="translate(-765.679 -521.866)"/><ellipse class="b" cx="3.257" cy="10.376" rx="3.257" ry="10.376" transform="translate(16.179 67.992) rotate(-66.829)"/><ellipse class="b" cx="3.257" cy="10.376" rx="3.257" ry="10.376" transform="translate(55.057 81.915) rotate(-66.829)"/><path class="c" d="M828.658,726.589a4.728,4.728,0,1,1-9.457,0c0-2.611,2.117-3.152,4.729-3.152S828.658,723.977,828.658,726.589Z" transform="translate(-779.324 -641.313)"/></g></g></svg>