<svg xmlns="http://www.w3.org/2000/svg" width="71.755" height="67.401" viewBox="0 0 71.755 67.401"><defs><style>.a{fill:#eeae1d;}.b{fill:#fff;}.c{fill:#d94d9c;}</style></defs><g transform="translate(0 11.193)"><g transform="translate(0 0)"><path class="a" d="M84.167,95.5H62.641v2.392H84.167a1.2,1.2,0,0,1,1.2,1.2v19.553a15.319,15.319,0,0,0-7.071,3.827,10.731,10.731,0,0,0-13.021,4.739,5.946,5.946,0,0,0-8.491,4.156H45.9a7.177,7.177,0,0,0-7.176-7.176,7.345,7.345,0,0,0-1.286.12,5.994,5.994,0,0,0-9.911-3.349,15.275,15.275,0,0,0-9.134-3.887V99.088a1.2,1.2,0,0,1,1.2-1.2H41.114V95.5H19.588A3.579,3.579,0,0,0,16,99.088v38.27a3.579,3.579,0,0,0,3.588,3.588H45.9v3.588H41.114a1.2,1.2,0,0,0-1.2,1.2v3.588H37.527v2.392h28.7v-2.392H63.837v-3.588a1.2,1.2,0,0,0-1.2-1.2H57.857v-3.588h26.31a3.579,3.579,0,0,0,3.588-3.588V99.088A3.579,3.579,0,0,0,84.167,95.5ZM62.641,128.986a3.5,3.5,0,0,1,2.317.882,1.19,1.19,0,0,0,1.689-.135.914.914,0,0,0,.194-.329,8.34,8.34,0,0,1,10.868-4.6c.12.045.239.1.359.149a1.193,1.193,0,0,0,1.36-.269,13.074,13.074,0,0,1,5.935-3.588v10.255H59.277A3.587,3.587,0,0,1,62.641,128.986Zm-35.908-5.456a1.153,1.153,0,0,0,.957.374,1.226,1.226,0,0,0,.9-.523,3.581,3.581,0,0,1,6.548,2.018,1.154,1.154,0,0,1-.03.224l-.03.179a1.193,1.193,0,0,0,1.061,1.316,1.23,1.23,0,0,0,.613-.09,4.753,4.753,0,0,1,6.308,2.362,4.879,4.879,0,0,1,.434,2h-25.1v-11.9A12.946,12.946,0,0,1,26.733,123.529Zm34.712,25.787H42.31v-2.392H61.445Zm-5.98-4.784H48.29v-3.588h7.176Zm28.7-5.98H19.588a1.2,1.2,0,0,1-1.2-1.2V133.77H85.363v3.588A1.2,1.2,0,0,1,84.167,138.553Z" transform="translate(-16 -95.5)"/></g></g><g transform="translate(13.2)"><path class="b" d="M255.9,52.7h21.422a2.025,2.025,0,0,0,.3-.03,1.234,1.234,0,0,0,.942-1.2V29.332h0v-1.6h0V24.025a1.884,1.884,0,0,0-1.39-1.809,27.806,27.806,0,0,0-11.81-.972,16.908,16.908,0,0,0-9.448,4.963" transform="translate(-233.237 -20.92)"/><path class="c" d="M311.1,194.2a.807.807,0,0,1,0,1.614h-5.7a.807.807,0,1,1,0-1.614Z" transform="translate(-274.657 -168.252)"/><path class="b" d="M290.755,74.881H277.091a1.123,1.123,0,0,1-1.031-.688,1.143,1.143,0,0,1,.224-1.256l13.663-14.56a1.079,1.079,0,0,1,1.226-.269,1.158,1.158,0,0,1,.718,1.076v14.56A1.155,1.155,0,0,1,290.755,74.881Z" transform="translate(-250.303 -52.432)"/><path class="b" d="M149.71,27.492v1.614H149.7V51.35a1.234,1.234,0,0,1-.942,1.2.968.968,0,0,1-.3.03H105.641a2.026,2.026,0,0,1-.3-.03,1.234,1.234,0,0,1-.942-1.2V29.106h0V27.492h0V23.769a1.871,1.871,0,0,1,1.39-1.809,27.335,27.335,0,0,1,11.81-.972,16.953,16.953,0,0,1,9.448,4.993,17.488,17.488,0,0,1,13.888-5.247.808.808,0,0,1-.06,1.614,15.975,15.975,0,0,0-13.006,5.113V50.977H148.1V23.769a.256.256,0,0,0-.194-.254c-1.181-.314-2.332-.583-3.408-.777a.8.8,0,0,1,.269-1.585c1.121.194,2.317.463,3.558.807a1.888,1.888,0,0,1,1.39,1.809v3.722h0Z" transform="translate(-104.385 -20.694)"/><path class="a" d="M149.61,27.424V23.7a1.871,1.871,0,0,0-1.39-1.809c-1.241-.329-2.437-.6-3.558-.807a.8.8,0,0,0-.269,1.585c1.076.194,2.227.448,3.408.777A.256.256,0,0,1,148,23.7V50.909H127.77V27.38a15.919,15.919,0,0,1,13.006-5.113.808.808,0,0,0,.06-1.614A17.488,17.488,0,0,0,126.948,25.9a16.953,16.953,0,0,0-9.448-4.993,27.553,27.553,0,0,0-11.81.972,1.871,1.871,0,0,0-1.39,1.809V27.41h0v1.614h0V51.268a1.234,1.234,0,0,0,.942,1.2.968.968,0,0,0,.3.03h42.814a1.841,1.841,0,0,0,.3-.03,1.234,1.234,0,0,0,.942-1.2V29.039h.015V27.424Zm-23.44,23.47H105.944V23.687a.256.256,0,0,1,.194-.254,26.08,26.08,0,0,1,11.122-.942,15.4,15.4,0,0,1,8.91,4.888Z" transform="translate(-104.3 -20.627)"/><path class="a" d="M144.807,76.586l.344,1.211a.8.8,0,0,0,.777.583,1.154,1.154,0,0,0,.224-.03.8.8,0,0,0,.553-.987l-2.048-7.19a.928.928,0,0,0-.9-.673h-.3a.946.946,0,0,0-.9.673l-2.033,7.19a.8.8,0,0,0,1.54.434l.344-1.211ZM143.626,72.4l.732,2.571h-1.45Z" transform="translate(-135.09 -62.194)"/><path class="a" d="M196.666,115.245h-1.9l2.6-4.649a.79.79,0,0,0-.015-.792.824.824,0,0,0-.688-.4h-3.259a.807.807,0,0,0,0,1.614h1.9l-2.6,4.649a.79.79,0,0,0,.015.792.824.824,0,0,0,.688.4h3.274a.8.8,0,0,0,.807-.807A.817.817,0,0,0,196.666,115.245Z" transform="translate(-179.4 -96.129)"/><path class="a" d="M165,194.2h-5.7a.807.807,0,1,0,0,1.614H165a.807.807,0,1,0,0-1.614Z" transform="translate(-150.398 -168.252)"/><path class="a" d="M311.91,195.007a.8.8,0,0,1-.807.807h-5.7a.807.807,0,1,1,0-1.614h5.7A.824.824,0,0,1,311.91,195.007Z" transform="translate(-274.657 -168.252)"/><path class="a" d="M330.208,110.964a1.142,1.142,0,0,0-1.226.269l-3.154,3.364a1.139,1.139,0,0,0-.209,1.256,1.123,1.123,0,0,0,1.031.688H329.8a1.136,1.136,0,0,0,1.121-1.151v-3.364A1.153,1.153,0,0,0,330.208,110.964Zm-.882,3.961h-1.585l1.585-1.689Z" transform="translate(-292.446 -97.394)"/><path class="a" d="M291.093,58.064a1.13,1.13,0,0,0-1.226.269L276.2,72.908a1.181,1.181,0,0,0-.224,1.256,1.123,1.123,0,0,0,1.031.688h13.663A1.136,1.136,0,0,0,291.8,73.7V59.14A1.1,1.1,0,0,0,291.093,58.064Zm-.882,15.173H278.088l1.286-1.375.135.135a.83.83,0,0,0,.583.254.82.82,0,0,0,.553-.224.79.79,0,0,0,.03-1.136l-.194-.209,1.764-1.884.134.135a.83.83,0,0,0,.583.254.82.82,0,0,0,.553-.224.79.79,0,0,0,.03-1.136l-.194-.209,1.764-1.884.135.135a.83.83,0,0,0,.583.254.82.82,0,0,0,.553-.224.79.79,0,0,0,.03-1.136l-.194-.209,1.764-1.884.135.135a.83.83,0,0,0,.583.254.82.82,0,0,0,.553-.224.79.79,0,0,0,.03-1.136l-.194-.209,1.121-1.181Z" transform="translate(-250.238 -52.402)"/></g></svg>